M48
;Layer_Color=9474304
;FILE_FORMAT=4:4
METRIC,LZ
;TYPE=PLATED
T1F00S00C0.3080
T2F00S00C2.2000
;TYPE=NON_PLATED
T3F00S00C0.8000
%
T01
X-0006985Y-0028575
X00075799
X00103025Y-00257699
X-0027305Y-0009525
Y-0005715
X-0028067Y0005334
X-00243698Y0006985
X-00250385Y0009398
X-0024003Y0012446
X-00228004Y0013897
X-00209867Y0012623
X-00195586Y00123776
X-0019558Y0009906
X-00206564Y00102914
X-0020574Y00076047
X-0020828Y0004445
X-0019431Y000225
X-001905Y000175
X-001778Y0000635
X-0016129Y0001225
X-00163447Y-0000635
X-0016764Y000275
X-00171521Y000325
X-0016764Y000375
X-00171521Y000425
X-0016764Y000475
X-00171521Y000525
X-0016637Y00095266
X-00166463Y001125
X-00161579Y001175
X-00166463Y001225
X-00161579Y001275
X-00159932Y00140735
X-0018075Y0013843
X-00136604Y00127761
X-0012503
X-0012474Y0012163
X-00124705Y00115245
Y0010877
X-0011141Y00104637
X-00106756Y00116764
X-000889Y0012065
X-00079391Y0012192
X-0006096Y0012827
X-00060698Y0010795
X-00088596Y00104256
X-000762Y000826
X-0009204Y0006306
X-0010649Y00061761
X-00111183Y0006731
X-00115868Y00045964
X-0010649Y000425
X-0009906
X-000825Y000381
Y0000663
X-0012065Y0000635
X-0014097Y000225
X-0013716Y000275
X-0014097Y000325
X-0013716Y000375
X-0013327Y000425
X-00128445Y000475
X-0014605Y-0005715
X-00098425Y-00054864
X-0006985Y-0005715
X-00082515Y-0006985
X-0006985Y-0010541
X-000508Y-0012573
X-00053718Y-00162334
X-00050653Y-0019685
X-0008255Y-002159
X-00106221Y-00196469
X-00127Y-002032
X-00156877Y-00203803
X-00127Y-002413
X-00088706Y-001778
X-0009525Y-001651
X-0009979Y-0014732
X-001397Y-00145796
X-0013374Y-001144
X-00120457Y-0012319
X-0015847Y-0009525
X-0019685Y-00088774
X-00241306Y-0005715
X-0023622Y-0002193
X-0021717Y-0002867
X-0021082Y-0001524
X-0007112Y-0002413
X-0001905Y-0001885
Y-0005715
X-0003937Y-00093118
X-0000381Y-00123858
X00020701Y-0012319
X000254Y-00127889
X000508Y-00127006
X0003175Y-00107937
X0006585Y-0006858
Y-0005715
Y-0004455
Y-0003175
X0006575Y-0000645
X0006985Y0000917
X00082307Y-000127
X000275Y-0000645
X0002715Y00011049
X0000254Y00019611
X00020656Y0003937
X000508Y0005098
X000889Y00069858
X00087179Y0010541
X0009017Y0011811
X00096425Y0011303
X0010418Y0012283
X001108Y001235
X00118623Y00105083
X0010668Y0009144
X00124576Y00076047
X0012446Y000435
X00127Y0001524
X0009398Y-0006477
X0009852Y-0007004
X0008217Y-0008255
X00114279Y-00127006
X0009779Y-00170609
X0010414Y-00189175
X00127381Y-00200198
X00133206Y-0024765
X00075649Y-00232404
X0005715Y-002032
X0007239Y-00183402
X00016351Y-00183783
Y-0019601
X00032115Y-002413
X-00013176
X-002413Y-001524
X00000161Y00076047
Y00101644
X000381Y00133294
X00069953Y0013335
X0017033Y001335
Y001235
X0016637Y001185
X0017033Y001135
X0016637Y00105461
X0019177Y001085
Y000985
Y000885
Y000735
Y000685
X0019939Y0006731
Y00061172
Y0007366
X00199797Y0004445
X0019804Y0003477
X0019471Y000381
X00163075Y0003302
X0014097Y000285
X0014232Y000585
X0014986Y0000508
X0018415Y0000127
X00167195Y-0002286
X0015494Y-00035084
X00139414Y-000254
X00137701Y-0006477
X0013708Y-0008509
X00168156Y-0008222
Y-00088774
X00197361Y-0009271
X00248784Y-0008222
X00253926Y-0010541
X00254204Y-00140234
X0025781Y-00051673
X00226401Y-0005495
X00222112Y-00035987
X00246978Y0005647
X00251569Y0010033
X00239917Y00107162
X0023876Y0012065
X0026543Y00120666
X0028067Y00079605
X0019558Y0011811
X001397Y-0012065
X001524Y-00184678
X0018415Y-002286
X0018288Y00143129
X002159Y0014859
X00250433Y00147219
X0013999Y0019685
X001651Y00222444
X00127Y0023495
X00101646Y00221632
X00082Y00191612
X0007786Y0017057
X00088691Y00166161
X00107773Y00166292
X0011352Y0015113
X0004445Y00164885
X000525Y0018753
X0005715Y00198365
X000275Y0019812
Y0019106
X000067Y001905
X00006326Y00220595
X000125Y0022372
X-00027506Y0022261
X-000525Y002222
X-0007747Y0022261
X-0008763
X-0010287Y00221222
X-00117784Y00222448
X-0014351Y00236827
Y0020574
X-0015875Y00184264
X-00139694Y001524
X-0010877Y0018972
X-00088596Y0026035
X00075503Y00254
X00107773Y002667
X-0003302Y0014224
X-00213317Y00163935
X-00248718Y00146465
T02
X-0019Y-0019
X0019
Y0019
X-0019
T03
X00238458Y-00146143
X00249558Y-00126917
M30
