M48
;Layer_Color=9474304
;FILE_FORMAT=4:4
METRIC,LZ
;TYPE=PLATED
T1F00S00C0.2500
T2F00S00C0.7620
T3F00S00C1.2000
T4F00S00C2.2000
%
T01
X00158733Y-0026035
X0011049Y-0025781
Y-0026924
X000889Y-002921
X000762Y-00292376
X000635Y-002921
X00050604
X-0004572Y-00302136
X-00050629Y-002794
X-000508Y-002667
X-0008255Y-0027305
X-00082546Y-0028575
X-00082353Y-0029845
X-00095292Y-00285989
X-0010795Y-0028575
X-00108094Y-0027305
X-00095292
X-0010795Y-0026035
X-00120684
X-0013346
X-0013335Y-0027305
X-00120945
X-0015234Y-002667
X-0026035Y-0016002
X-00275991Y-00132167
X-00286023Y-0010668
X-00292675Y-000889
X-0030099Y-00056972
X-0028448Y-0004699
X-0026035
X-0030099Y00050977
X-0029718Y00071208
X-0029083Y00089937
X-0026035Y001143
X-00273286Y0013589
X-00253602Y001335
X-00254Y00089
X-002413Y0009525
X-0023876Y00068999
X-00250286Y0007239
X-00246798Y000508
X-0021347Y000453
X-00214001Y00070676
X-0021844Y00086094
X-0020447Y00121057
X-0017003Y001235
X-001651Y001185
X-0017003Y001135
X-00162465Y001035
X-00163671Y0009652
X-0017003Y000835
X-001651Y000785
X-00163671Y00070676
X-0017003Y000635
X-0016233Y000535
X-00164456Y00044293
X-0016891Y0003356
X-0018231Y0001016
X-0019812Y0000635
X-00200534Y00025858
X-0021786Y-000045
X-0023114Y0
X-0022225Y-000254
X-002032
X-0018213
Y-000635
X-00196884
X-0020955
Y-0007605
X-0022225Y-0007619
Y-000635
X-0024398Y-0005849
Y-0007119
Y-0008389
Y-0009779
Y-0010922
Y-0012199
Y-0013469
Y-0014739
X-002413Y-0015875
X-00228617
X-00247224Y-0017526
X-0023495Y-00191787
X-00219557Y-0020955
X-0020574Y-00224854
X-0015875Y-00217036
X-00155458Y-0020955
X-00162962Y-00195083
X-0013408
X-00138145Y-002032
X-00132685Y-0021114
X-00133216Y-0024765
X-00173985Y-00251274
X-0015508Y-00147233
X-00133216Y-00146024
X-00134265Y-0016002
X-00122816Y-0012954
X-00113202Y-00137884
X-00099622Y-00152364
X-0008509Y-0015621
X-0008001Y-0017526
X-00100149Y-0017272
X-0003429Y-00173985
X-000175Y-0019431
X-000075
X000025
X000125
X000225
X0002159Y-0018288
Y-0017272
X000175Y-0022098
X000075
X-000025
X-000125
X-000225
X-00041276Y-0023271
X-00050629Y-00237148
X-000508Y-00254
X-00041276Y-0020671
X-0001074Y-00141542
X-0001524Y-00127
X-0000127
Y-001143
X000176
X0003704Y-0010795
X00052447
X0005727Y-0008128
X0004727
X0002227Y-0007978
X-00001167Y-0007874
X-0002273Y-0008128
X-0001773Y-0005472
X-00022311Y-0004191
X-000127Y-00036449
X-0000031Y-0004995
X0004227Y-0005472
X0005227
X0006227
X0007214Y-0005461
X0008087Y-0004318
X0008636Y-0004826
X00095763Y-0004953
X00107421Y-0001905
X00120747Y-0000635
X0008636Y-0000762
X0008087Y-0000181
X00071272Y-0000254
X0005727
X0004722
X0004227Y0000381
X0005227
X0006223
X0003556Y-00004051
X-000127Y00006344
X-00025378
X-000381
X-00050724
X-000635
X-00076182
X-000762Y-00012661
X-000635Y-0001279
X-00050908Y-000127
X-0004773Y-0005472
X-0005773
X-0007965Y-00050678
X-000889
Y-00038133
X-00079161
X-00105518Y-00038425
Y-00046477
X-0009779Y-0007874
X-0011273Y-0008128
X-00122641
X-0015508Y-0008389
X-0015494Y-0010159
X-0018231Y-00101608
X-00197205Y-001016
X-00196884Y-000888
X-0020918Y-000889
X-0019036Y-0007105
X-00162465Y-000495
X-00149147Y-000508
X-00141075Y-00030931
X-00147006Y00004534
X-0013633Y0000889
Y0001651
X-00133926Y0003556
Y00054078
X-0013462Y001085
X-0014017Y001135
Y001235
X-0013335Y00118641
X-0012573Y0012734
X-00124666Y001035
X-0011107Y0010668
X-00102529Y00089241
X-0005461Y000889
X-0004572Y0010194
Y001143
X-0001847Y0012739
X0001227Y00126071
X00023188Y00110976
X0003537Y0011322
X0004191Y0011845
X0004826Y0011303
X0006223Y00109931
X00062234Y00098877
X0007747
Y00109733
X0010668Y00117869
X0011938Y00124679
X0012415Y0010668
X00129999Y000975
X0013589Y000925
X0011176Y001016
X0009906Y000925
X00126855Y0006477
X00131419Y00054247
X0012156Y0005334
X0007112Y0005715
Y000475
X0005487Y0006096
X00023188Y00069093
Y00046164
X-0000793Y0003012
X-000127Y0001905
X-00038834Y0003175
X-000508Y000508
X-00099622Y0002032
X-00105826Y-00000654
X-00122641Y00002323
X-0008273Y-0008128
X-0006273
X-0005273Y-0010795
X-00079075Y-0011938
X-0009271Y-0010541
X-0010287Y-0010795
X-0017787Y-0012185
X-002159Y-0013462
X-00221547Y-001143
X0003537Y-00123531
X00114096Y-0013315
X00133295Y-00133359
X0013335Y-00152827
Y-0017153
Y-00190741
X00133375Y-0020955
X00133295Y-002286
X00120728
X00120431Y-0024765
X00133295
X0009525Y-0022695
Y-0021717
X00083876Y-0021698
Y-0022714
X0007239
Y-0021717
X00007136Y0008001
X-00009296Y000889
X-00162465Y0013875
X-0017003Y001335
X0013916Y0014043
X001397Y001125
Y001025
X00163741Y001075
X00169882Y001125
Y001025
X00165011Y000975
X00169882Y000925
Y000825
X00165011Y0007747
X0016164Y000675
Y000575
X00169882Y000625
X00166752Y000475
Y0003937
X00169882Y000325
X0019177Y000375
Y000275
Y000475
Y00057525
X0019166Y000725
X0020447Y0009017
X0022479Y000975
X002252Y00109931
X00240665Y00109651
Y000975
X0024343Y0005969
X0023368
Y0005207
X0021743Y0006096
X00217307Y000127
X00217434Y0000362
X00215804Y-00007239
X0022225
X00219729Y-00023076
X00212814Y-00033331
X00229532Y-000381
X002413Y-00044963
X0024511Y-0006477
X0025126Y-0008021
X00296707Y-0007239
X00302249Y-0004953
X0030099Y00050023
X0029586Y00070479
X0029083Y00089241
X0028194Y0008128
X0027813Y00054176
X0028067Y00114983
X0026943Y0011938
X0019166Y001075
X0018415Y0013843
X00169882Y001275
X00163171Y001225
Y-0001905
X00169928Y-00022296
X0017526Y-00016908
X0018034Y-00010138
X0019127Y-0001651
X0015148Y-00028035
X0015748Y-00043249
X0015621Y-0005969
X001778Y-00056888
X00206601
X0021717Y-0010541
X0020955Y-001143
Y-0012683
X0020193Y-0013335
X0016891Y-00137567
X001524
X00172101Y-0015494
X0014351Y-00102887
X0024384Y-0016637
X00254Y-00171168
X00239445Y-00177417
Y-0019
X0022479Y-00206015
X00210451Y-0022098
X00195611Y-0023495
X00178053Y-0024765
X002667Y-001524
X00263747Y0015321
X00254Y0016764
X00242498Y0018542
X00219235Y00186067
X0022987Y00200454
X0021717Y0021423
X00202967Y0022733
X00188349Y0024003
X0017018Y00252186
X00154281Y00262485
X0013716Y00272032
X00165011Y00209534
X00166423Y0014885
X0015252Y0014351
X0014351Y00154004
X0022352Y001524
X0023043Y0014549
X0024343
X0021717Y0014478
X0008087Y0014691
X0005487Y0014732
X000217Y0014351
X-00011461Y00153701
X-0000308Y0016764
X0000577Y00183254
X-0000127Y0020701
X0000635Y00221637
Y0023495
X-0000889Y0022987
X-0002996Y0019431
X-0006416Y0021336
X-0010414Y0022225
X-001143Y0021209
X-0016006Y00206015
X-0016764Y00168143
X-0015513Y00146807
X-0018075Y0014732
X-0020447Y00154746
X-0023495Y00155067
X-00250724Y0017018
X-002287Y0020193
X-00214538Y0021717
X-00200534Y00229832
X-0015367Y0026289
X-00131286Y0027305
X-0012123Y0026543
X-0011049
X-0009779Y0028575
X-00060591Y0029845
X-00063871Y0026289
X-0008186Y0015864
X-0013023Y0014293
X00032737Y0019304
X000509Y0021219
X000636
X00044146Y0022225
X00044433Y0023495
X0005969Y00298954
X0012055Y002794
X00120853Y0026035
X0012065Y00241693
X00089Y0018298
X-0026289Y001524
T02
X-002794Y0005715
Y000762
T03
X0008001Y00272032
T04
X-0019Y-0019
X0019
Y0019
X-0019
M30
