%FSLAX44Y44*%
%MOMM*%
G71*
G01*
G75*
G04 Layer_Physical_Order=1*
G04 Layer_Color=255*
%ADD10R,1.3500X0.3000*%
%ADD11R,1.3500X0.2500*%
%ADD12R,0.5000X1.7000*%
G04:AMPARAMS|DCode=13|XSize=0.32mm|YSize=1.7mm|CornerRadius=0.08mm|HoleSize=0mm|Usage=FLASHONLY|Rotation=0.000|XOffset=0mm|YOffset=0mm|HoleType=Round|Shape=RoundedRectangle|*
%AMROUNDEDRECTD13*
21,1,0.3200,1.5400,0,0,0.0*
21,1,0.1600,1.7000,0,0,0.0*
1,1,0.1600,0.0800,-0.7700*
1,1,0.1600,-0.0800,-0.7700*
1,1,0.1600,-0.0800,0.7700*
1,1,0.1600,0.0800,0.7700*
%
%ADD13ROUNDEDRECTD13*%
G04:AMPARAMS|DCode=14|XSize=1.5mm|YSize=0.8mm|CornerRadius=0mm|HoleSize=0mm|Usage=FLASHONLY|Rotation=330.000|XOffset=0mm|YOffset=0mm|HoleType=Round|Shape=Rectangle|*
%AMROTATEDRECTD14*
4,1,4,-0.8495,0.0286,-0.4495,0.7214,0.8495,-0.0286,0.4495,-0.7214,-0.8495,0.0286,0.0*
%
%ADD14ROTATEDRECTD14*%

G04:AMPARAMS|DCode=15|XSize=1.5mm|YSize=1mm|CornerRadius=0mm|HoleSize=0mm|Usage=FLASHONLY|Rotation=240.000|XOffset=0mm|YOffset=0mm|HoleType=Round|Shape=Rectangle|*
%AMROTATEDRECTD15*
4,1,4,-0.0580,0.8995,0.8080,0.3995,0.0580,-0.8995,-0.8080,-0.3995,-0.0580,0.8995,0.0*
%
%ADD15ROTATEDRECTD15*%

G04:AMPARAMS|DCode=16|XSize=3mm|YSize=2.1mm|CornerRadius=0mm|HoleSize=0mm|Usage=FLASHONLY|Rotation=203.500|XOffset=0mm|YOffset=0mm|HoleType=Round|Shape=Rectangle|*
%AMROTATEDRECTD16*
4,1,4,0.9569,1.5610,1.7943,-0.3648,-0.9569,-1.5610,-1.7943,0.3648,0.9569,1.5610,0.0*
%
%ADD16ROTATEDRECTD16*%

G04:AMPARAMS|DCode=17|XSize=2.1mm|YSize=0.8mm|CornerRadius=0mm|HoleSize=0mm|Usage=FLASHONLY|Rotation=203.500|XOffset=0mm|YOffset=0mm|HoleType=Round|Shape=Rectangle|*
%AMROTATEDRECTD17*
4,1,4,0.8034,0.7855,1.1224,0.0519,-0.8034,-0.7855,-1.1224,-0.0519,0.8034,0.7855,0.0*
%
%ADD17ROTATEDRECTD17*%

G04:AMPARAMS|DCode=18|XSize=1.2954mm|YSize=1.1938mm|CornerRadius=0mm|HoleSize=0mm|Usage=FLASHONLY|Rotation=344.000|XOffset=0mm|YOffset=0mm|HoleType=Round|Shape=Rectangle|*
%AMROTATEDRECTD18*
4,1,4,-0.7871,-0.3952,-0.4581,0.7523,0.7871,0.3952,0.4581,-0.7523,-0.7871,-0.3952,0.0*
%
%ADD18ROTATEDRECTD18*%

G04:AMPARAMS|DCode=19|XSize=1.2954mm|YSize=1.1938mm|CornerRadius=0mm|HoleSize=0mm|Usage=FLASHONLY|Rotation=325.000|XOffset=0mm|YOffset=0mm|HoleType=Round|Shape=Rectangle|*
%AMROTATEDRECTD19*
4,1,4,-0.8729,-0.1175,-0.1882,0.8605,0.8729,0.1175,0.1882,-0.8605,-0.8729,-0.1175,0.0*
%
%ADD19ROTATEDRECTD19*%

%ADD20C,0.6000*%
%ADD21C,0.2540*%
%ADD22C,1.0000*%
%ADD23C,0.4000*%
%ADD24C,0.3000*%
G04:AMPARAMS|DCode=25|XSize=4mm|YSize=4mm|CornerRadius=2mm|HoleSize=0mm|Usage=FLASHONLY|Rotation=0.000|XOffset=0mm|YOffset=0mm|HoleType=Round|Shape=RoundedRectangle|*
%AMROUNDEDRECTD25*
21,1,4.0000,0.0000,0,0,0.0*
21,1,0.0000,4.0000,0,0,0.0*
1,1,4.0000,0.0000,0.0000*
1,1,4.0000,0.0000,0.0000*
1,1,4.0000,0.0000,0.0000*
1,1,4.0000,0.0000,0.0000*
%
%ADD25ROUNDEDRECTD25*%
%ADD26C,0.0254*%
%ADD27C,0.4500*%
G36*
X-60698Y297114D02*
Y250000D01*
X-60494Y249506D01*
X-60000Y249302D01*
X60000D01*
X60494Y249506D01*
X60698Y250000D01*
Y297114D01*
X61680Y297919D01*
X67724Y296717D01*
X84254Y292453D01*
X100520Y287269D01*
X116469Y281181D01*
X132051Y274208D01*
X147219Y266372D01*
X161923Y257699D01*
X176117Y248214D01*
X189758Y237949D01*
X202801Y226935D01*
X215206Y215206D01*
X226935Y202801D01*
X237949Y189758D01*
X248214Y176117D01*
X257699Y161923D01*
X266372Y147219D01*
X274208Y132051D01*
X281181Y116469D01*
X287269Y100520D01*
X292453Y84254D01*
X296717Y67724D01*
X300048Y50980D01*
X301364Y41657D01*
X300531Y40698D01*
X250000D01*
X249506Y40494D01*
X249302Y40000D01*
Y-40000D01*
X249506Y-40494D01*
X250000Y-40698D01*
X300531D01*
X301364Y-41657D01*
X300048Y-50980D01*
X296717Y-67724D01*
X292453Y-84254D01*
X287269Y-100520D01*
X281181Y-116469D01*
X274208Y-132051D01*
X266372Y-147219D01*
X257699Y-161923D01*
X248214Y-176117D01*
X237949Y-189758D01*
X226935Y-202801D01*
X215206Y-215206D01*
X202801Y-226935D01*
X189758Y-237949D01*
X176117Y-248214D01*
X161923Y-257699D01*
X147219Y-266372D01*
X132051Y-274208D01*
X116469Y-281181D01*
X100520Y-287269D01*
X84254Y-292453D01*
X67724Y-296717D01*
X61680Y-297919D01*
X60698Y-297114D01*
Y-250000D01*
X60494Y-249506D01*
X60000Y-249302D01*
X-60000D01*
X-60494Y-249506D01*
X-60698Y-250000D01*
Y-297114D01*
X-61680Y-297919D01*
X-67724Y-296717D01*
X-84254Y-292453D01*
X-100520Y-287269D01*
X-116469Y-281181D01*
X-132051Y-274208D01*
X-147219Y-266372D01*
X-161923Y-257699D01*
X-176117Y-248214D01*
X-189758Y-237949D01*
X-202801Y-226935D01*
X-215206Y-215206D01*
X-226935Y-202801D01*
X-237949Y-189758D01*
X-248214Y-176117D01*
X-257699Y-161923D01*
X-266372Y-147219D01*
X-274208Y-132051D01*
X-281181Y-116469D01*
X-287269Y-100520D01*
X-292453Y-84254D01*
X-296717Y-67724D01*
X-300048Y-50980D01*
X-301364Y-41657D01*
X-300531Y-40698D01*
X-250000D01*
X-249506Y-40494D01*
X-249302Y-40000D01*
Y40000D01*
X-249506Y40494D01*
X-250000Y40698D01*
X-300531D01*
X-301364Y41657D01*
X-300048Y50980D01*
X-296717Y67724D01*
X-292453Y84254D01*
X-287269Y100520D01*
X-281181Y116469D01*
X-274208Y132051D01*
X-266372Y147219D01*
X-257699Y161923D01*
X-248214Y176117D01*
X-237949Y189758D01*
X-226935Y202801D01*
X-215206Y215206D01*
X-202801Y226935D01*
X-189758Y237949D01*
X-176117Y248214D01*
X-161923Y257699D01*
X-147219Y266372D01*
X-132051Y274208D01*
X-116469Y281181D01*
X-100520Y287269D01*
X-84254Y292453D01*
X-67724Y296717D01*
X-61680Y297919D01*
X-60698Y297114D01*
D02*
G37*
%LPC*%
G36*
X160000Y56750D02*
X142500D01*
Y51834D01*
X114279D01*
X113004Y51580D01*
X111922Y50858D01*
X87259Y26194D01*
X5789D01*
X4514Y25940D01*
X3432Y25217D01*
X182Y21968D01*
X-540Y20886D01*
X-794Y19611D01*
X-540Y18335D01*
X182Y17253D01*
X1264Y16530D01*
X2540Y16277D01*
X3816Y16530D01*
X4897Y17253D01*
X7170Y19526D01*
X85351D01*
X85837Y18353D01*
X63393Y-4092D01*
X62670Y-5174D01*
X62416Y-6450D01*
X62670Y-7726D01*
X63393Y-8808D01*
X64474Y-9530D01*
X65750Y-9784D01*
X67026Y-9530D01*
X68108Y-8808D01*
X117081Y40166D01*
X151250D01*
X151673Y40250D01*
X160000D01*
Y45250D01*
Y50250D01*
Y56750D01*
D02*
G37*
G36*
X261206Y-48338D02*
X257810D01*
X256534Y-48592D01*
X255452Y-49315D01*
X254730Y-50397D01*
X254476Y-51673D01*
X254730Y-52948D01*
X255452Y-54030D01*
X256534Y-54753D01*
X257810Y-55006D01*
X259825D01*
X263085Y-58266D01*
X260939Y-65751D01*
X277236Y-70424D01*
X281629Y-55104D01*
X265332Y-50431D01*
X265332Y-50430D01*
X265332Y-50430D01*
X264814Y-50565D01*
X263564Y-49315D01*
X262482Y-48592D01*
X261206Y-48338D01*
D02*
G37*
G36*
X-142500Y15750D02*
X-160000D01*
Y15584D01*
X-161290D01*
X-162566Y15330D01*
X-163647Y14607D01*
X-164370Y13526D01*
X-164624Y12250D01*
X-164370Y10974D01*
X-163647Y9893D01*
X-162566Y9170D01*
X-161290Y8916D01*
X-160000D01*
Y8750D01*
X-142500D01*
Y15750D01*
D02*
G37*
G36*
X-280670Y55736D02*
X-281587Y55554D01*
X-282364Y55034D01*
X-282884Y54257D01*
X-283066Y53340D01*
X-282884Y52423D01*
X-282364Y51646D01*
X-281587Y51126D01*
X-280670Y50944D01*
X-279753Y51126D01*
X-278976Y51646D01*
X-278456Y52423D01*
X-278274Y53340D01*
X-278456Y54257D01*
X-278976Y55034D01*
X-279753Y55554D01*
X-280670Y55736D01*
D02*
G37*
G36*
X-128445Y50834D02*
X-151250D01*
X-151673Y50750D01*
X-160000D01*
Y44250D01*
Y39250D01*
Y34250D01*
Y29250D01*
Y24250D01*
Y19250D01*
X-151673D01*
X-151250Y19166D01*
X-143228D01*
X-142246Y18510D01*
X-140970Y18256D01*
X-139694Y18510D01*
X-138612Y19232D01*
X-137890Y20314D01*
X-137636Y21590D01*
X-137890Y22866D01*
X-138010Y23046D01*
X-137411Y24166D01*
X-137160D01*
X-135884Y24420D01*
X-134803Y25143D01*
X-134080Y26224D01*
X-133826Y27500D01*
X-134080Y28776D01*
X-134803Y29857D01*
X-135884Y30580D01*
X-137160Y30834D01*
X-137890Y31224D01*
X-137890D01*
X-137636Y32500D01*
X-137890Y33776D01*
X-137890Y33776D01*
D01*
X-137160Y34166D01*
X-135884Y34420D01*
X-134803Y35143D01*
X-134080Y36224D01*
X-133826Y37500D01*
X-134080Y38776D01*
X-134080Y38776D01*
D01*
X-133270Y39166D01*
X-131994Y39420D01*
X-130913Y40142D01*
X-130190Y41224D01*
X-129936Y42500D01*
X-130072Y43184D01*
X-129266Y44166D01*
X-128445D01*
X-127169Y44420D01*
X-126088Y45142D01*
X-125365Y46224D01*
X-125111Y47500D01*
X-125365Y48776D01*
X-126088Y49858D01*
X-127169Y50580D01*
X-128445Y50834D01*
D02*
G37*
G36*
X-89994Y-111066D02*
X-133740D01*
X-135015Y-111320D01*
X-136097Y-112043D01*
X-136820Y-113124D01*
X-137074Y-114400D01*
X-136820Y-115676D01*
X-136097Y-116757D01*
X-135015Y-117480D01*
X-133740Y-117734D01*
X-91375D01*
X-81021Y-128088D01*
X-81021D01*
X-81021Y-128088D01*
X-81021Y-128088D01*
Y-128088D01*
X-79940Y-128810D01*
X-78664Y-129064D01*
X-50800D01*
X-49524Y-128810D01*
X-48443Y-128088D01*
X-47720Y-127006D01*
X-47466Y-125730D01*
X-47720Y-124454D01*
X-48443Y-123372D01*
X-49524Y-122650D01*
X-50800Y-122396D01*
X-77283D01*
X-87636Y-112043D01*
X-88718Y-111320D01*
X-89994Y-111066D01*
D02*
G37*
G36*
X-240030Y127794D02*
X-253170D01*
X-254446Y127540D01*
X-255527Y126818D01*
X-269058Y113287D01*
X-269780Y112206D01*
X-270034Y110930D01*
Y75120D01*
X-269780Y73844D01*
X-269058Y72762D01*
X-269058Y72762D01*
X-269058Y72762D01*
X-244094Y47799D01*
Y-25924D01*
X-243840Y-27200D01*
X-243118Y-28282D01*
X-181723Y-89676D01*
Y-116482D01*
X-181470Y-117758D01*
X-180747Y-118840D01*
X-180747Y-118840D01*
X-180747Y-118840D01*
X-160211Y-139375D01*
Y-203803D01*
X-159957Y-205079D01*
X-159235Y-206160D01*
X-158153Y-206883D01*
X-156877Y-207137D01*
X-155601Y-206883D01*
X-154520Y-206160D01*
X-153797Y-205079D01*
X-153543Y-203803D01*
Y-191309D01*
X-152370Y-190823D01*
X-144366Y-198827D01*
X-143285Y-199549D01*
X-143284Y-199549D01*
X-143284Y-199549D01*
D01*
X-143284Y-199549D01*
X-143284Y-199549D01*
X-142008Y-199803D01*
X-106221D01*
X-104945Y-199549D01*
X-103863Y-198827D01*
X-103140Y-197745D01*
X-102886Y-196469D01*
X-103140Y-195193D01*
X-103863Y-194111D01*
X-104945Y-193389D01*
X-106221Y-193135D01*
X-140627D01*
X-149003Y-184759D01*
Y-136114D01*
X-149257Y-134838D01*
X-149980Y-133756D01*
X-170515Y-113221D01*
Y-84301D01*
X-170769Y-83025D01*
X-171492Y-81944D01*
X-233862Y-19573D01*
X-234944Y-18850D01*
X-236220Y-18596D01*
X-236444Y-18641D01*
X-237426Y-17835D01*
Y49180D01*
X-237680Y50456D01*
X-238403Y51537D01*
X-263366Y76501D01*
Y109549D01*
X-251789Y121126D01*
X-240030D01*
X-238754Y121380D01*
X-237673Y122102D01*
X-236950Y123184D01*
X-236696Y124460D01*
X-236950Y125736D01*
X-237673Y126818D01*
X-238754Y127540D01*
X-240030Y127794D01*
D02*
G37*
G36*
X127381Y-193825D02*
X124942Y-194310D01*
X122875Y-195692D01*
X121494Y-197759D01*
X121009Y-200198D01*
X121494Y-202637D01*
X122008Y-203406D01*
Y-231117D01*
X101494Y-251631D01*
X100587Y-251811D01*
X98519Y-253193D01*
X97138Y-255260D01*
X96653Y-257699D01*
X97138Y-260137D01*
X98519Y-262205D01*
X100587Y-263586D01*
X103025Y-264071D01*
X105464Y-263586D01*
X107531Y-262205D01*
X108913Y-260137D01*
X109093Y-259230D01*
X131180Y-237142D01*
X131180Y-237143D01*
X131180Y-237142D01*
X132345Y-235399D01*
X132754Y-233343D01*
Y-203406D01*
X133268Y-202637D01*
X133753Y-200198D01*
X133268Y-197759D01*
X131887Y-195692D01*
X129820Y-194310D01*
X127381Y-193825D01*
D02*
G37*
G36*
X-99790Y-143986D02*
X-101066Y-144240D01*
X-102148Y-144963D01*
X-102870Y-146044D01*
X-103124Y-147320D01*
Y-166980D01*
X-102870Y-168256D01*
X-102148Y-169338D01*
X-102148Y-169338D01*
X-102148Y-169338D01*
X-99488Y-171998D01*
X-98406Y-172720D01*
X-97130Y-172974D01*
X-82072D01*
X-64366Y-190680D01*
D01*
X-64366D01*
Y-190680D01*
D01*
X-64366D01*
Y-190680D01*
X-64366D01*
X-64366Y-190680D01*
Y-190680D01*
X-64366Y-190680D01*
Y-190680D01*
X-63284Y-191403D01*
X-62008Y-191657D01*
X7283D01*
X13993Y-198367D01*
X15075Y-199090D01*
X16351Y-199343D01*
X17626Y-199090D01*
X18708Y-198367D01*
X19431Y-197285D01*
X19684Y-196010D01*
X19431Y-194734D01*
X18708Y-193652D01*
X13346Y-188290D01*
X13832Y-187117D01*
X16351D01*
X17626Y-186863D01*
X18708Y-186140D01*
X19431Y-185059D01*
X19684Y-183783D01*
X19431Y-182507D01*
X18708Y-181425D01*
X17626Y-180702D01*
X16351Y-180449D01*
X-58747D01*
X-76453Y-162743D01*
X-77535Y-162020D01*
X-78811Y-161766D01*
X-95250D01*
X-95474Y-161810D01*
X-96456Y-161005D01*
Y-147320D01*
X-96710Y-146044D01*
X-97432Y-144963D01*
X-98514Y-144240D01*
X-99790Y-143986D01*
D02*
G37*
G36*
X239256Y-140077D02*
X236875Y-140234D01*
X234734Y-141289D01*
X233160Y-143084D01*
X232393Y-145344D01*
X232549Y-147726D01*
X233605Y-149867D01*
X235399Y-151441D01*
X237659Y-152208D01*
X240041Y-152052D01*
X242182Y-150996D01*
X243756Y-149201D01*
X244523Y-146941D01*
X244367Y-144559D01*
X243311Y-142419D01*
X241517Y-140845D01*
X239256Y-140077D01*
D02*
G37*
G36*
X90170Y121444D02*
X63429D01*
X62154Y121190D01*
X61072Y120468D01*
X-23407Y35988D01*
X-24130Y34906D01*
X-24384Y33630D01*
Y-190D01*
X-24130Y-1465D01*
X-23407Y-2547D01*
X-23407Y-2547D01*
X-23407Y-2547D01*
X161Y-26116D01*
Y-66167D01*
X415Y-67443D01*
X1138Y-68524D01*
X1138Y-68524D01*
X1138Y-68524D01*
X94456Y-161843D01*
Y-170609D01*
X94710Y-171885D01*
X95433Y-172967D01*
X96514Y-173690D01*
X97790Y-173944D01*
X99066Y-173690D01*
X99686Y-173276D01*
X100806Y-173874D01*
Y-189175D01*
X101060Y-190451D01*
X101783Y-191533D01*
X102864Y-192256D01*
X104140Y-192509D01*
X105416Y-192256D01*
X106497Y-191533D01*
X107220Y-190451D01*
X107474Y-189175D01*
Y-160391D01*
X107220Y-159115D01*
X106497Y-158034D01*
X11369Y-62905D01*
Y-22854D01*
X11116Y-21579D01*
X10393Y-20497D01*
X-13176Y3072D01*
Y30369D01*
X66151Y109696D01*
X96425D01*
X97700Y109950D01*
X98782Y110673D01*
X99505Y111754D01*
X99759Y113030D01*
X99505Y114306D01*
X98782Y115387D01*
X97700Y116110D01*
X96425Y116364D01*
X94158D01*
X93352Y117346D01*
X93504Y118110D01*
X93250Y119386D01*
X92528Y120468D01*
X91446Y121190D01*
X90170Y121444D01*
D02*
G37*
G36*
X-6700Y245555D02*
X-8300D01*
X-9392Y245338D01*
X-10319Y244719D01*
X-10938Y243792D01*
X-11155Y242700D01*
Y227300D01*
X-10938Y226208D01*
X-10834Y226053D01*
Y220266D01*
X-11700Y219555D01*
X-13300D01*
X-14166Y220266D01*
Y226053D01*
X-14062Y226208D01*
X-13845Y227300D01*
Y242700D01*
X-14062Y243792D01*
X-14681Y244719D01*
X-15608Y245338D01*
X-16700Y245555D01*
X-18300D01*
X-19392Y245338D01*
X-20319Y244719D01*
X-20938Y243792D01*
X-21155Y242700D01*
Y227300D01*
X-20938Y226208D01*
X-20834Y226053D01*
Y220266D01*
X-21700Y219555D01*
X-23300D01*
X-24392Y219338D01*
X-25319Y218719D01*
X-25938Y217792D01*
X-26155Y216700D01*
Y201300D01*
X-25938Y200208D01*
X-25834Y200053D01*
Y193285D01*
X-27993Y191126D01*
X-29166Y191612D01*
Y200053D01*
X-29062Y200208D01*
X-28845Y201300D01*
Y216700D01*
X-29062Y217792D01*
X-29681Y218719D01*
X-30608Y219338D01*
X-31700Y219555D01*
X-33300D01*
X-34166Y220266D01*
Y226053D01*
X-34062Y226208D01*
X-33845Y227300D01*
Y242700D01*
X-34062Y243792D01*
X-34681Y244719D01*
X-35608Y245338D01*
X-36700Y245555D01*
X-38300D01*
X-39392Y245338D01*
X-40319Y244719D01*
X-40938Y243792D01*
X-41155Y242700D01*
Y227300D01*
X-40938Y226208D01*
X-40834Y226053D01*
Y220266D01*
X-41700Y219555D01*
X-43300D01*
X-44166Y220266D01*
Y226053D01*
X-44062Y226208D01*
X-43845Y227300D01*
Y242700D01*
X-44062Y243792D01*
X-44681Y244719D01*
X-45608Y245338D01*
X-46700Y245555D01*
X-48300D01*
X-49392Y245338D01*
X-50319Y244719D01*
X-50938Y243792D01*
X-51155Y242700D01*
Y227300D01*
X-50938Y226208D01*
X-50834Y226053D01*
Y195363D01*
X-52993Y193204D01*
X-54166Y193690D01*
Y226053D01*
X-54062Y226208D01*
X-53845Y227300D01*
Y242700D01*
X-54062Y243792D01*
X-54681Y244719D01*
X-55608Y245338D01*
X-56700Y245555D01*
X-58300D01*
X-59392Y245338D01*
X-60319Y244719D01*
X-60938Y243792D01*
X-61155Y242700D01*
Y227300D01*
X-60938Y226208D01*
X-60834Y226053D01*
Y220266D01*
X-61700Y219555D01*
X-63300D01*
X-64166Y220266D01*
Y226053D01*
X-64062Y226208D01*
X-63845Y227300D01*
Y242700D01*
X-64062Y243792D01*
X-64681Y244719D01*
X-65607Y245338D01*
X-66700Y245555D01*
X-68300D01*
X-69392Y245338D01*
X-70319Y244719D01*
X-70938Y243792D01*
X-71155Y242700D01*
Y227300D01*
X-70938Y226208D01*
X-70834Y226053D01*
Y220266D01*
X-71700Y219555D01*
X-73300D01*
X-74392Y219338D01*
X-75319Y218719D01*
X-75938Y217792D01*
X-76155Y216700D01*
Y201300D01*
X-75938Y200208D01*
X-75834Y200053D01*
Y196045D01*
X-77993Y193886D01*
X-79166Y194372D01*
Y200053D01*
X-79062Y200208D01*
X-78845Y201300D01*
Y216700D01*
X-79062Y217792D01*
X-79681Y218719D01*
X-80608Y219338D01*
X-81700Y219555D01*
X-83300D01*
X-84392Y219338D01*
X-85319Y218719D01*
X-85938Y217792D01*
X-86155Y216700D01*
Y201300D01*
X-85938Y200208D01*
X-85834Y200053D01*
Y192465D01*
X-87993Y190307D01*
X-89166Y190793D01*
Y200053D01*
X-89062Y200208D01*
X-88845Y201300D01*
Y216700D01*
X-89062Y217792D01*
X-89681Y218719D01*
X-90607Y219338D01*
X-91700Y219555D01*
X-93300D01*
X-94166Y220266D01*
Y226053D01*
X-94062Y226208D01*
X-93845Y227300D01*
Y242700D01*
X-94062Y243792D01*
X-94681Y244719D01*
X-95608Y245338D01*
X-96700Y245555D01*
X-98300D01*
X-99392Y245338D01*
X-100319Y244719D01*
X-100938Y243792D01*
X-101155Y242700D01*
Y227300D01*
X-100938Y226208D01*
X-100834Y226053D01*
Y190306D01*
X-127388Y163753D01*
X-128110Y162671D01*
X-128364Y161395D01*
Y127761D01*
X-128110Y126485D01*
X-127388Y125403D01*
X-127197Y125276D01*
X-127073Y124013D01*
X-127098Y123988D01*
X-127821Y122906D01*
X-128074Y121630D01*
X-127821Y120354D01*
X-127098Y119273D01*
X-126016Y118550D01*
X-124740Y118296D01*
X-123464Y118550D01*
X-122383Y119273D01*
X-120457Y121198D01*
X-119284Y120712D01*
Y118906D01*
X-127063Y111127D01*
X-127785Y110045D01*
X-128039Y108770D01*
X-127785Y107494D01*
X-127063Y106412D01*
X-125981Y105689D01*
X-124705Y105436D01*
X-123429Y105689D01*
X-122347Y106412D01*
X-115917Y112842D01*
X-114744Y112356D01*
Y104637D01*
X-114490Y103362D01*
X-113767Y102280D01*
X-112686Y101557D01*
X-111410Y101303D01*
X-110737Y101437D01*
X-110138Y100317D01*
X-118225Y92230D01*
X-118948Y91148D01*
X-119202Y89872D01*
Y45964D01*
X-118948Y44688D01*
X-118225Y43606D01*
X-117143Y42883D01*
X-115868Y42629D01*
X-114592Y42883D01*
X-113510Y43606D01*
X-112787Y44688D01*
X-112534Y45964D01*
Y63829D01*
X-111552Y64635D01*
X-111183Y64562D01*
X-110806Y64637D01*
X-109824Y63831D01*
Y61761D01*
X-109570Y60486D01*
X-108848Y59404D01*
X-107766Y58681D01*
X-106490Y58428D01*
X-106266Y58472D01*
X-105284Y57666D01*
Y48421D01*
X-108848Y44858D01*
X-109570Y43776D01*
X-109824Y42500D01*
X-109570Y41224D01*
X-108848Y40142D01*
X-107766Y39420D01*
X-106490Y39166D01*
X-105214Y39420D01*
X-104132Y40142D01*
X-103213Y41062D01*
X-101949Y40938D01*
X-101418Y40142D01*
X-100336Y39420D01*
X-99060Y39166D01*
X-97784Y39420D01*
X-96702Y40142D01*
X-95052Y41792D01*
X-94330Y42874D01*
X-94076Y44150D01*
Y59130D01*
X-93094Y59936D01*
X-92040Y59726D01*
X-90764Y59980D01*
X-89682Y60703D01*
X-88960Y61784D01*
X-88706Y63060D01*
Y80169D01*
X-72382Y96493D01*
X-71660Y97574D01*
X-71406Y98850D01*
Y105269D01*
X-63414Y113261D01*
X-62691Y114343D01*
X-62691Y114343D01*
X-62691Y114343D01*
X-62437Y115619D01*
Y124229D01*
X-61456Y125035D01*
X-60960Y124936D01*
X-59684Y125190D01*
X-58602Y125913D01*
X-57880Y126994D01*
X-57626Y128270D01*
Y130699D01*
X-5142Y183183D01*
X-5142Y183183D01*
X-5142Y183183D01*
X-4420Y184264D01*
X-4166Y185540D01*
Y226053D01*
X-4062Y226208D01*
X-3845Y227300D01*
Y242700D01*
X-4062Y243792D01*
X-4681Y244719D01*
X-5608Y245338D01*
X-6700Y245555D01*
D02*
G37*
G36*
X86500Y219500D02*
X77500D01*
Y198500D01*
X86500D01*
Y219500D01*
D02*
G37*
G36*
X-225237Y179096D02*
X-234379Y166040D01*
X-220491Y156316D01*
X-217491Y160601D01*
X-213317D01*
X-212041Y160855D01*
X-210960Y161577D01*
X-210237Y162659D01*
X-209983Y163935D01*
X-210237Y165211D01*
X-210960Y166292D01*
X-211939Y166947D01*
X-212173Y168195D01*
X-211350Y169372D01*
X-225237Y179096D01*
D02*
G37*
G36*
X23300Y247594D02*
X21700D01*
X19827Y247222D01*
X18239Y246161D01*
X17179Y244573D01*
X17098Y244168D01*
X15852Y243920D01*
X15319Y244719D01*
X14392Y245338D01*
X13300Y245555D01*
X11700D01*
X10608Y245338D01*
X9681Y244719D01*
X9062Y243792D01*
X8845Y242700D01*
Y227300D01*
X9062Y226208D01*
X9166Y226053D01*
Y223977D01*
X8399Y223567D01*
X7909Y223470D01*
X7601Y223676D01*
X6326Y223930D01*
X5050Y223676D01*
X3968Y222953D01*
X3245Y221871D01*
X2991Y220595D01*
X3245Y219320D01*
X3968Y218238D01*
X4166Y218040D01*
Y217947D01*
X4062Y217792D01*
X3845Y216700D01*
Y201300D01*
X4062Y200208D01*
X4681Y199281D01*
X5608Y198662D01*
X6700Y198445D01*
X8300D01*
X9392Y198662D01*
X10319Y199281D01*
X10938Y200208D01*
X11155Y201300D01*
Y216700D01*
X10938Y217792D01*
X10834Y217947D01*
Y219421D01*
X10789Y219650D01*
X11687Y220548D01*
X12500Y220386D01*
X13776Y220640D01*
X14825Y221341D01*
X14943Y221305D01*
X16237Y220441D01*
X15652Y219346D01*
X15608Y219338D01*
X14681Y218719D01*
X14062Y217792D01*
X13845Y216700D01*
Y201300D01*
X14062Y200208D01*
X14681Y199281D01*
X15608Y198662D01*
X16700Y198445D01*
X18300D01*
X18300Y198445D01*
D01*
X18422Y198120D01*
Y163340D01*
X-52139Y92779D01*
X-53582Y90899D01*
X-54488Y88709D01*
X-54798Y86360D01*
Y-32310D01*
X-152015D01*
X-197410Y13084D01*
Y19291D01*
X-196290Y19890D01*
X-195586Y19420D01*
X-194414Y19187D01*
X-193709Y18131D01*
X-193834Y17500D01*
X-193580Y16224D01*
X-192857Y15143D01*
X-191776Y14420D01*
X-190500Y14166D01*
X-180750D01*
X-180327Y14250D01*
X-172000D01*
Y19250D01*
Y24166D01*
X-167640D01*
X-166364Y24420D01*
X-165282Y25143D01*
X-164560Y26224D01*
X-164306Y27500D01*
X-164560Y28776D01*
X-165282Y29857D01*
X-166364Y30580D01*
X-167640Y30834D01*
X-168440Y31224D01*
X-168440D01*
X-168186Y32500D01*
X-168440Y33776D01*
X-168440Y33776D01*
D01*
X-167640Y34166D01*
X-166364Y34420D01*
X-165282Y35143D01*
X-164560Y36224D01*
X-164306Y37500D01*
X-164560Y38776D01*
X-165282Y39857D01*
X-166364Y40580D01*
X-167640Y40834D01*
X-168440Y41224D01*
X-168440D01*
X-168186Y42500D01*
X-168440Y43776D01*
X-168440Y43776D01*
D01*
X-167640Y44166D01*
X-166364Y44420D01*
X-165282Y45142D01*
X-164560Y46224D01*
X-164306Y47500D01*
X-164560Y48776D01*
X-165282Y49858D01*
X-166364Y50580D01*
X-167640Y50834D01*
X-168440Y51224D01*
X-168440D01*
X-168186Y52500D01*
X-168440Y53776D01*
X-169163Y54858D01*
X-170000Y55417D01*
Y62750D01*
X-172000D01*
Y64250D01*
Y69250D01*
Y74250D01*
Y79250D01*
Y84250D01*
Y89250D01*
Y94250D01*
Y99250D01*
Y104250D01*
Y109250D01*
Y114250D01*
Y119250D01*
Y124250D01*
Y124309D01*
X-171444Y124420D01*
X-170362Y125142D01*
X-166553Y128953D01*
X-165830Y130034D01*
X-165576Y131310D01*
Y134644D01*
X-162820Y137400D01*
X-159932D01*
X-158657Y137654D01*
X-157575Y138377D01*
X-156852Y139459D01*
X-156598Y140735D01*
X-156852Y142010D01*
X-157575Y143092D01*
X-158657Y143815D01*
X-159932Y144068D01*
X-162799D01*
X-163285Y145242D01*
X-112507Y196020D01*
X-112211Y196406D01*
X-111700D01*
X-109827Y196779D01*
X-108239Y197839D01*
X-107178Y199427D01*
X-106806Y201300D01*
Y204922D01*
X-106385Y205470D01*
X-105680Y207173D01*
X-105440Y209000D01*
X-105680Y210827D01*
X-106385Y212530D01*
X-106806Y213078D01*
Y216700D01*
X-107178Y218573D01*
X-108239Y220161D01*
X-109827Y221222D01*
X-110440Y221343D01*
Y223095D01*
X-109392Y224662D01*
X-108300Y224445D01*
X-106700D01*
X-105607Y224662D01*
X-104681Y225281D01*
X-104062Y226208D01*
X-103845Y227300D01*
Y242700D01*
X-104062Y243792D01*
X-104681Y244719D01*
X-105607Y245338D01*
X-106700Y245555D01*
X-108300D01*
X-109392Y245338D01*
X-110319Y244719D01*
X-110852Y243920D01*
X-112098Y244168D01*
X-112178Y244573D01*
X-113239Y246161D01*
X-114827Y247222D01*
X-116700Y247594D01*
X-118300D01*
X-120173Y247222D01*
X-121761Y246161D01*
X-122821Y244573D01*
X-123194Y242700D01*
Y239078D01*
X-123614Y238530D01*
X-124320Y236827D01*
X-124560Y235000D01*
Y221343D01*
X-125173Y221222D01*
X-126761Y220161D01*
X-127821Y218573D01*
X-128194Y216700D01*
Y213078D01*
X-128614Y212530D01*
X-129320Y210827D01*
X-129560Y209000D01*
X-129320Y207173D01*
X-128614Y205470D01*
X-128194Y204922D01*
Y201300D01*
X-128028Y200468D01*
X-183721Y144776D01*
X-184280Y144544D01*
X-185742Y143422D01*
X-186864Y141960D01*
X-186980Y141680D01*
X-201478D01*
X-203305Y141440D01*
X-205008Y140735D01*
X-206470Y139612D01*
X-214860Y131222D01*
X-245042Y101040D01*
X-250385D01*
X-252213Y100800D01*
X-253916Y100094D01*
X-255378Y98972D01*
X-256500Y97510D01*
X-257205Y95807D01*
X-257446Y93980D01*
X-257205Y92153D01*
X-256500Y90450D01*
X-255378Y88988D01*
X-253916Y87865D01*
X-252213Y87160D01*
X-250385Y86920D01*
X-242118D01*
X-240290Y87160D01*
X-238587Y87865D01*
X-237125Y88988D01*
X-204875Y121238D01*
X-198553Y127560D01*
X-191500D01*
Y127250D01*
X-189500D01*
Y124250D01*
Y119250D01*
Y115834D01*
X-203399D01*
X-204675Y115580D01*
X-205756Y114858D01*
X-223153Y97461D01*
X-223876Y96379D01*
X-224129Y95104D01*
Y2360D01*
X-223876Y1085D01*
X-223153Y3D01*
X-212141Y-11009D01*
X-212265Y-12273D01*
X-213178Y-12882D01*
X-213900Y-13964D01*
X-214154Y-15240D01*
X-213900Y-16516D01*
X-213178Y-17598D01*
X-131769Y-99006D01*
D01*
X-131769D01*
Y-99006D01*
D01*
X-131769D01*
Y-99006D01*
X-131769D01*
X-131769Y-99006D01*
Y-99006D01*
X-131769Y-99006D01*
Y-99006D01*
X-130687Y-99729D01*
X-129412Y-99983D01*
X-61737D01*
X-5692Y-156027D01*
X-5692D01*
X-5692Y-156028D01*
X-5692D01*
X-5692Y-156028D01*
Y-156028D01*
X-5691Y-156028D01*
Y-156028D01*
X-4610Y-156750D01*
X-3334Y-157004D01*
X24119D01*
X72315Y-205200D01*
Y-232404D01*
X72569Y-233680D01*
X73292Y-234761D01*
X74373Y-235484D01*
X75649Y-235738D01*
X76925Y-235484D01*
X78007Y-234761D01*
X78730Y-233680D01*
X78983Y-232404D01*
Y-203819D01*
X78730Y-202543D01*
X78007Y-201462D01*
X64454Y-187909D01*
X64940Y-186736D01*
X72390D01*
X73666Y-186482D01*
X74748Y-185759D01*
X75470Y-184678D01*
X75724Y-183402D01*
X75470Y-182126D01*
X74748Y-181044D01*
X73666Y-180322D01*
X72390Y-180068D01*
X63033D01*
X29738Y-146772D01*
X28656Y-146050D01*
X27380Y-145796D01*
X-72D01*
X-56118Y-89751D01*
X-57199Y-89028D01*
X-58475Y-88774D01*
X-124945D01*
X-217461Y3741D01*
Y93722D01*
X-210313Y100871D01*
X-209049Y100746D01*
X-208922Y100556D01*
X-207840Y99834D01*
X-206564Y99580D01*
X-205289Y99834D01*
X-204207Y100556D01*
X-203580Y101184D01*
X-202441Y100622D01*
X-202646Y99060D01*
Y57500D01*
Y53684D01*
Y35939D01*
X-209462Y29122D01*
X-210585Y27660D01*
X-211290Y25957D01*
X-211530Y24130D01*
Y10160D01*
X-211530Y10160D01*
X-211530D01*
X-211290Y8333D01*
X-210585Y6630D01*
X-209462Y5168D01*
X-159932Y-44362D01*
X-158470Y-45484D01*
X-156767Y-46190D01*
X-154940Y-46430D01*
X-105485D01*
Y-54864D01*
X-105245Y-56691D01*
X-104539Y-58394D01*
X-103417Y-59856D01*
X-101955Y-60978D01*
X-100252Y-61684D01*
X-98425Y-61924D01*
X-96598Y-61684D01*
X-94895Y-60978D01*
X-93433Y-59856D01*
X-92310Y-58394D01*
X-91605Y-56691D01*
X-91365Y-54864D01*
Y-46430D01*
X-54798D01*
Y-56769D01*
X-54798Y-56769D01*
X-54798D01*
X-54488Y-59118D01*
X-53582Y-61308D01*
X-52139Y-63188D01*
X14282Y-129609D01*
X14282Y-129609D01*
X18981Y-134308D01*
X20861Y-135751D01*
X23051Y-136657D01*
X25400Y-136967D01*
X27749Y-136657D01*
X29939Y-135751D01*
X31819Y-134308D01*
X33261Y-132428D01*
X34168Y-130238D01*
X34478Y-127889D01*
X34168Y-125540D01*
X33261Y-123350D01*
X31819Y-121470D01*
X27120Y-116771D01*
X27120Y-116771D01*
X-36642Y-53009D01*
Y82600D01*
X33919Y153161D01*
X35361Y155041D01*
X36268Y157231D01*
X36578Y159580D01*
X36578Y159580D01*
X36578Y159580D01*
Y159580D01*
Y198120D01*
X36268Y200469D01*
X35361Y202659D01*
X34560Y203703D01*
Y209000D01*
Y218670D01*
X34320Y220497D01*
X33614Y222200D01*
X33300Y222610D01*
X33300Y224445D01*
X34392Y224662D01*
X35319Y225281D01*
X35938Y226208D01*
X36155Y227300D01*
Y242700D01*
X35938Y243792D01*
X35319Y244719D01*
X34392Y245338D01*
X33300Y245555D01*
X31700D01*
X30608Y245338D01*
X29681Y244719D01*
X29148Y243920D01*
X27902Y244168D01*
X27822Y244573D01*
X26761Y246161D01*
X25173Y247222D01*
X23300Y247594D01*
D02*
G37*
G36*
X86500Y245500D02*
X77500D01*
Y224500D01*
X86500D01*
Y245500D01*
D02*
G37*
G36*
X63300Y245555D02*
X61700D01*
X60608Y245338D01*
X59681Y244719D01*
X59062Y243792D01*
X58845Y242700D01*
Y227300D01*
X59062Y226208D01*
X59166Y226053D01*
Y220266D01*
X58300Y219555D01*
X56700D01*
X55834Y220266D01*
Y226053D01*
X55938Y226208D01*
X56155Y227300D01*
Y242700D01*
X55938Y243792D01*
X55319Y244719D01*
X54392Y245338D01*
X53300Y245555D01*
X51700D01*
X50608Y245338D01*
X49681Y244719D01*
X49062Y243792D01*
X48845Y242700D01*
Y227300D01*
X49062Y226208D01*
X49166Y226053D01*
Y220266D01*
X48300Y219555D01*
X46700D01*
X45834Y220266D01*
Y226053D01*
X45938Y226208D01*
X46155Y227300D01*
Y242700D01*
X45938Y243792D01*
X45319Y244719D01*
X44392Y245338D01*
X43300Y245555D01*
X41700D01*
X40608Y245338D01*
X39681Y244719D01*
X39062Y243792D01*
X38845Y242700D01*
Y227300D01*
X39062Y226208D01*
X39166Y226053D01*
Y184510D01*
X39420Y183234D01*
X40142Y182152D01*
X101823Y120472D01*
X102904Y119749D01*
X104180Y119496D01*
X105456Y119749D01*
X106538Y120472D01*
X107013Y121184D01*
X108277Y121308D01*
X108442Y121143D01*
X109524Y120420D01*
X110800Y120166D01*
X112076Y120420D01*
X113158Y121143D01*
X113801Y122106D01*
X115065Y122230D01*
X131152Y106143D01*
D01*
X131152D01*
Y106143D01*
D01*
X131152D01*
Y106142D01*
X131152D01*
X131152Y106142D01*
Y106142D01*
X131152Y106142D01*
Y106142D01*
X132234Y105420D01*
X133510Y105166D01*
X151250D01*
X151673Y105250D01*
X160000D01*
Y110250D01*
Y116750D01*
X151673D01*
X151250Y116834D01*
X136312D01*
X118903Y134243D01*
X119389Y135416D01*
X142500D01*
Y135250D01*
Y130250D01*
X160000D01*
Y135250D01*
Y138811D01*
X161215Y139180D01*
X161292Y139065D01*
Y127597D01*
X160529Y126834D01*
X151250D01*
X150827Y126750D01*
X142500D01*
Y120250D01*
X150827D01*
X151250Y120166D01*
X161910D01*
X162306Y120245D01*
X163204Y119347D01*
X163036Y118500D01*
X163290Y117224D01*
X164013Y116143D01*
X165094Y115420D01*
X166370Y115166D01*
X167250Y114776D01*
D01*
X167250Y114776D01*
X166996Y113500D01*
X167250Y112224D01*
X167973Y111143D01*
X169054Y110420D01*
X170000Y110232D01*
Y103250D01*
Y93250D01*
Y83250D01*
X172000D01*
Y80250D01*
Y78750D01*
X170000D01*
Y68250D01*
Y66246D01*
X169419Y65858D01*
X167973Y64411D01*
X167250Y63329D01*
X166996Y62053D01*
Y41656D01*
X160718Y35378D01*
X159995Y34296D01*
X159741Y33020D01*
X159798Y32732D01*
X158993Y31750D01*
X151673D01*
X151250Y31834D01*
X140970D01*
X139694Y31580D01*
X138612Y30858D01*
X137890Y29776D01*
X137636Y28500D01*
X137890Y27224D01*
X138612Y26142D01*
X139694Y25420D01*
X140970Y25166D01*
X142500D01*
Y20250D01*
Y19465D01*
X135989Y12954D01*
X114611D01*
X113335Y12700D01*
X112253Y11977D01*
X71860Y-28416D01*
X65850D01*
X64574Y-28670D01*
X63492Y-29392D01*
X62770Y-30474D01*
X62516Y-31750D01*
X62770Y-33026D01*
X63492Y-34107D01*
X64574Y-34830D01*
X65850Y-35084D01*
X69953D01*
X70439Y-36257D01*
X63492Y-43204D01*
X62770Y-44285D01*
X62516Y-45561D01*
X62770Y-46837D01*
X63492Y-47919D01*
X64574Y-48642D01*
X65850Y-48895D01*
X67126Y-48642D01*
X68208Y-47919D01*
X117872Y1746D01*
X139250D01*
X140526Y2000D01*
X141608Y2722D01*
X149031Y10146D01*
X158853D01*
X159339Y8973D01*
X149350Y-1016D01*
X123659D01*
X122384Y-1270D01*
X121302Y-1992D01*
X69479Y-53816D01*
X65850D01*
X64574Y-54070D01*
X63492Y-54792D01*
X62770Y-55874D01*
X62516Y-57150D01*
X62770Y-58426D01*
X63492Y-59507D01*
X64574Y-60230D01*
X65850Y-60484D01*
X67572D01*
X68057Y-61657D01*
X63492Y-66223D01*
X62770Y-67304D01*
X62516Y-68580D01*
X62668Y-69344D01*
X61862Y-70326D01*
X56565D01*
X47784Y-61545D01*
Y-23400D01*
X47530Y-22124D01*
X46807Y-21042D01*
X29857Y-4092D01*
X28776Y-3370D01*
X27500Y-3116D01*
X26224Y-3370D01*
X25143Y-4092D01*
X24420Y-5174D01*
X24166Y-6450D01*
X24420Y-7726D01*
X25143Y-8808D01*
X41116Y-24781D01*
Y-62926D01*
X41370Y-64202D01*
X42092Y-65284D01*
X42092Y-65284D01*
X42092Y-65284D01*
X52826Y-76017D01*
X52826D01*
X52826Y-76018D01*
X52826Y-76018D01*
Y-76018D01*
X53908Y-76740D01*
X55184Y-76994D01*
X67958D01*
X69234Y-76740D01*
X70316Y-76017D01*
X129029Y-17304D01*
X155040D01*
X156316Y-17050D01*
X157397Y-16328D01*
X178633Y4907D01*
X179355Y5989D01*
X179355Y5989D01*
X179355Y5989D01*
X179609Y7265D01*
Y10067D01*
X179688Y10146D01*
X189624D01*
X190882Y10396D01*
X191864Y9590D01*
Y-75160D01*
X168156D01*
X166329Y-75401D01*
X164626Y-76106D01*
X163164Y-77228D01*
X162041Y-78690D01*
X161336Y-80393D01*
X161096Y-82220D01*
Y-88774D01*
X161336Y-90602D01*
X162041Y-92305D01*
X163164Y-93767D01*
X164626Y-94889D01*
X166329Y-95594D01*
X168156Y-95835D01*
X169983Y-95594D01*
X171686Y-94889D01*
X173148Y-93767D01*
X177634Y-89281D01*
X228504D01*
X228990Y-90454D01*
X220270Y-99174D01*
X138790D01*
X102028Y-62413D01*
X100946Y-61690D01*
X99670Y-61436D01*
X93980D01*
X92704Y-61690D01*
X91622Y-62413D01*
X90900Y-63494D01*
X90646Y-64770D01*
X90900Y-66046D01*
X91622Y-67127D01*
X92704Y-67850D01*
X93980Y-68104D01*
X94570D01*
X95376Y-69086D01*
X95186Y-70040D01*
X95440Y-71316D01*
X96163Y-72397D01*
X133629Y-109864D01*
X134710Y-110586D01*
X135986Y-110840D01*
X229742D01*
X230377Y-111940D01*
X230187Y-112269D01*
X245410Y-121058D01*
X245617Y-122311D01*
X244260Y-123858D01*
X243493Y-126118D01*
X243649Y-128500D01*
X244704Y-130641D01*
X246499Y-132215D01*
X248759Y-132982D01*
X251141Y-132826D01*
X253282Y-131770D01*
X254856Y-129976D01*
X255623Y-127716D01*
X255467Y-125334D01*
X254411Y-123193D01*
X252617Y-121619D01*
X250356Y-120852D01*
X248389Y-120981D01*
X247719Y-119902D01*
X252596Y-111456D01*
X256284Y-107767D01*
X257006Y-106686D01*
X257260Y-105410D01*
X257006Y-104134D01*
X256284Y-103053D01*
X255202Y-102330D01*
X253926Y-102076D01*
X252650Y-102330D01*
X251569Y-103053D01*
X246684Y-107937D01*
X236187Y-101877D01*
X234862Y-104172D01*
X226362D01*
X225875Y-102999D01*
X233119Y-95755D01*
X257260D01*
X258536Y-95501D01*
X259618Y-94778D01*
X259618Y-94778D01*
X259618Y-94778D01*
X266301Y-88095D01*
X271724Y-89649D01*
X276117Y-74329D01*
X259820Y-69656D01*
X256807Y-80163D01*
X255539Y-80235D01*
X254899Y-78690D01*
X253777Y-77228D01*
X252314Y-76106D01*
X250612Y-75401D01*
X248784Y-75160D01*
X205985D01*
Y33885D01*
X205744Y35713D01*
X205039Y37416D01*
X203917Y38878D01*
X203416Y39262D01*
X203032Y39762D01*
X199702Y43092D01*
X198240Y44215D01*
X196537Y44920D01*
X194710Y45160D01*
X192882Y44920D01*
X191180Y44215D01*
X190639Y43800D01*
X189500Y44361D01*
Y45250D01*
Y50166D01*
X201360D01*
X202636Y50420D01*
X203717Y51143D01*
X203717Y51142D01*
X203717Y51143D01*
X206687Y54112D01*
X207410Y55194D01*
X207664Y56470D01*
X207664Y56470D01*
X207664Y56470D01*
Y56470D01*
Y64511D01*
X207410Y65787D01*
X206687Y66869D01*
X204403Y69153D01*
X204890Y70326D01*
X212026D01*
X219939Y62413D01*
X219939D01*
X219939Y62412D01*
X219940Y62412D01*
Y62412D01*
X221021Y61690D01*
X222297Y61436D01*
X230606D01*
X231826Y58631D01*
X245305Y64492D01*
X246020Y63442D01*
X245033Y62455D01*
X244539Y62357D01*
X242472Y60976D01*
X241746Y59889D01*
X235592Y53735D01*
X234265Y51750D01*
X233800Y49409D01*
Y-38900D01*
X222981Y-49719D01*
X221894Y-50444D01*
X220513Y-52512D01*
X220028Y-54950D01*
X220513Y-57389D01*
X221894Y-59457D01*
X223962Y-60838D01*
X226401Y-61323D01*
X228839Y-60838D01*
X230907Y-59457D01*
X231632Y-58370D01*
X244243Y-45760D01*
X245569Y-43775D01*
X245569Y-43775D01*
X245569Y-43775D01*
X246035Y-41434D01*
Y46875D01*
X250397Y51238D01*
X251484Y51964D01*
X252865Y54031D01*
X252963Y54525D01*
X257764Y59326D01*
X262746Y61680D01*
X263434Y62190D01*
X264164Y62639D01*
X264307Y62837D01*
X264504Y62983D01*
X264945Y63718D01*
X265447Y64412D01*
X275607Y86562D01*
X275691Y86914D01*
X275864Y87232D01*
X275942Y87970D01*
X276114Y88691D01*
X276056Y89048D01*
X276095Y89408D01*
X275885Y90119D01*
X275767Y90851D01*
X275578Y91159D01*
X275475Y91507D01*
X254420Y131612D01*
X254420Y131612D01*
X248805Y142307D01*
X248207Y143046D01*
X247649Y143816D01*
X247523Y143893D01*
X247430Y144008D01*
X246595Y144463D01*
X245784Y144960D01*
X245638Y144983D01*
X245508Y145054D01*
X244562Y145154D01*
X243623Y145303D01*
X243479Y145269D01*
X243332Y145285D01*
X242420Y145015D01*
X241495Y144794D01*
X227577Y138388D01*
X226391Y138841D01*
X225922Y139919D01*
X207330Y131835D01*
X206268Y132531D01*
Y145781D01*
X205841Y147927D01*
X204625Y149746D01*
X193389Y160983D01*
X191569Y162198D01*
X189423Y162625D01*
X169223D01*
X167078Y162198D01*
X165258Y160983D01*
X155744Y151468D01*
X121112D01*
X119506Y153075D01*
X119407Y153569D01*
X118026Y155636D01*
X115959Y157017D01*
X113520Y157502D01*
X111081Y157017D01*
X109014Y155636D01*
X107633Y153569D01*
X107624Y153526D01*
X106409Y153157D01*
X91048Y168518D01*
X89966Y169241D01*
X88691Y169495D01*
X87415Y169241D01*
X86333Y168518D01*
X86206Y168328D01*
X84942Y168204D01*
X80218Y172928D01*
X79136Y173650D01*
X77860Y173904D01*
X76584Y173650D01*
X75503Y172928D01*
X75376Y172738D01*
X74112Y172613D01*
X65834Y180891D01*
Y226053D01*
X65938Y226208D01*
X66155Y227300D01*
Y242700D01*
X65938Y243792D01*
X65319Y244719D01*
X64392Y245338D01*
X63300Y245555D01*
D02*
G37*
G36*
X160000Y96750D02*
X142500D01*
Y90250D01*
Y85250D01*
Y80250D01*
Y75250D01*
X160000D01*
Y80250D01*
Y85250D01*
Y90250D01*
Y96750D01*
D02*
G37*
G36*
X106680Y94774D02*
X105404Y94520D01*
X104323Y93798D01*
X103600Y92716D01*
X103346Y91440D01*
Y71134D01*
X103600Y69858D01*
X104323Y68776D01*
X104322Y68776D01*
X104323Y68776D01*
X111956Y61143D01*
X111956D01*
X111956Y61142D01*
X111956D01*
X111956Y61142D01*
Y61142D01*
X111956Y61142D01*
Y61142D01*
X113038Y60420D01*
X114314Y60166D01*
X151250D01*
X151673Y60250D01*
X160000D01*
Y66750D01*
X151673D01*
X151250Y66834D01*
X115695D01*
X110014Y72515D01*
Y91440D01*
X109760Y92716D01*
X109038Y93798D01*
X107956Y94520D01*
X106680Y94774D01*
D02*
G37*
G36*
X-142500Y105750D02*
X-160000D01*
Y99250D01*
Y94250D01*
Y89250D01*
Y84250D01*
Y79250D01*
Y74250D01*
Y69250D01*
Y64250D01*
Y59250D01*
Y54250D01*
X-142500D01*
Y59250D01*
Y64250D01*
Y69250D01*
Y74250D01*
Y79250D01*
Y84250D01*
Y89250D01*
Y94250D01*
Y99250D01*
Y105750D01*
D02*
G37*
G36*
X-236709Y162713D02*
X-245851Y149657D01*
X-231963Y139933D01*
X-231963Y139933D01*
X-231963Y139933D01*
X-231338Y139736D01*
Y138970D01*
X-231084Y137694D01*
X-230362Y136613D01*
X-229280Y135890D01*
X-228004Y135636D01*
X-226728Y135890D01*
X-225647Y136613D01*
X-224924Y137694D01*
X-224670Y138970D01*
Y144992D01*
X-224924Y146267D01*
X-225647Y147349D01*
X-226307Y148010D01*
X-222821Y152989D01*
X-236709Y162713D01*
D02*
G37*
G36*
X-151250Y130834D02*
X-161579D01*
X-162855Y130580D01*
X-163937Y129858D01*
X-164660Y128776D01*
X-164913Y127500D01*
X-164777Y126816D01*
X-165583Y125834D01*
X-166463D01*
X-167739Y125580D01*
X-168821Y124858D01*
X-169543Y123776D01*
X-169797Y122500D01*
X-169543Y121224D01*
X-168821Y120142D01*
X-167739Y119420D01*
X-166463Y119166D01*
X-165583D01*
X-164777Y118184D01*
X-164913Y117500D01*
X-164777Y116816D01*
X-165583Y115834D01*
X-166463D01*
X-167739Y115580D01*
X-168821Y114858D01*
X-169543Y113776D01*
X-169797Y112500D01*
X-169543Y111224D01*
X-168821Y110142D01*
X-167739Y109420D01*
X-166463Y109166D01*
X-151250D01*
X-150827Y109250D01*
X-142500D01*
Y114250D01*
Y119250D01*
Y124250D01*
Y130750D01*
X-150827D01*
X-151250Y130834D01*
D02*
G37*
%LPD*%
G36*
X244490Y126399D02*
X244490Y126399D01*
X264264Y88733D01*
X256105Y70947D01*
X254961Y70406D01*
X253772Y70853D01*
X249967Y79605D01*
X249967Y79605D01*
X249768Y80063D01*
D01*
X249768Y80063D01*
X244983Y91068D01*
X244983Y91068D01*
X244704Y91710D01*
D01*
X244704Y91710D01*
X241432Y99233D01*
X241908Y100410D01*
X243447Y101048D01*
X244910Y102170D01*
X246032Y103632D01*
X246737Y105335D01*
X246978Y107162D01*
X246737Y108989D01*
X246032Y110692D01*
X244910Y112155D01*
X243447Y113277D01*
X241745Y113982D01*
X239917Y114223D01*
X237096D01*
X235971Y116809D01*
X229857Y114151D01*
X228573Y113982D01*
X226870Y113277D01*
X225594Y112297D01*
X209376Y105246D01*
X209680Y104547D01*
X209407Y104024D01*
X207663Y102859D01*
X198691Y93887D01*
X197435Y94074D01*
X196944Y94993D01*
X197657Y96061D01*
X198142Y98500D01*
X197657Y100939D01*
X196276Y103006D01*
Y103994D01*
X197657Y106061D01*
X198142Y108500D01*
X197657Y110939D01*
X196276Y113006D01*
X195455Y113555D01*
X195702Y114800D01*
X196856Y115030D01*
X197938Y115752D01*
X198660Y116834D01*
X198723Y117148D01*
X199896Y117634D01*
X201253Y116728D01*
X203399Y116301D01*
X204569D01*
X205707Y113683D01*
X212409Y116596D01*
X213068Y116728D01*
X213735Y117173D01*
X232302Y125246D01*
X231226Y127721D01*
X241349Y132380D01*
X244490Y126399D01*
D02*
G37*
D10*
X-180750Y132750D02*
D03*
X-151250D02*
D03*
X-180750Y12250D02*
D03*
X-151250D02*
D03*
X151250Y138750D02*
D03*
X180750D02*
D03*
X151250Y18250D02*
D03*
X180750D02*
D03*
D11*
X-180750Y127500D02*
D03*
X-151250D02*
D03*
X-180750Y122500D02*
D03*
X-151250D02*
D03*
X-180750Y117500D02*
D03*
X-151250D02*
D03*
X-180750Y112500D02*
D03*
X-151250D02*
D03*
X-180750Y107500D02*
D03*
X-151250D02*
D03*
X-180750Y102500D02*
D03*
X-151250D02*
D03*
X-180750Y97500D02*
D03*
X-151250D02*
D03*
X-180750Y92500D02*
D03*
X-151250D02*
D03*
X-180750Y87500D02*
D03*
X-151250D02*
D03*
X-180750Y82500D02*
D03*
X-151250D02*
D03*
X-180750Y77500D02*
D03*
X-151250D02*
D03*
X-180750Y72500D02*
D03*
X-151250D02*
D03*
X-180750Y67500D02*
D03*
X-151250D02*
D03*
X-180750Y62500D02*
D03*
X-151250D02*
D03*
X-180750Y57500D02*
D03*
X-151250D02*
D03*
X-180750Y52500D02*
D03*
X-151250D02*
D03*
X-180750Y47500D02*
D03*
X-151250D02*
D03*
X-180750Y42500D02*
D03*
X-151250D02*
D03*
X-180750Y37500D02*
D03*
X-151250D02*
D03*
X-180750Y32500D02*
D03*
X-151250D02*
D03*
X-180750Y27500D02*
D03*
X-151250D02*
D03*
X-180750Y22500D02*
D03*
X-151250D02*
D03*
X-180750Y17500D02*
D03*
X-151250D02*
D03*
X151250Y133500D02*
D03*
X180750D02*
D03*
X151250Y128500D02*
D03*
X180750D02*
D03*
X151250Y123500D02*
D03*
X180750D02*
D03*
X151250Y118500D02*
D03*
X180750D02*
D03*
X151250Y113500D02*
D03*
X180750D02*
D03*
X151250Y108500D02*
D03*
X180750D02*
D03*
X151250Y103500D02*
D03*
X180750D02*
D03*
X151250Y98500D02*
D03*
X180750D02*
D03*
X151250Y93500D02*
D03*
X180750D02*
D03*
X151250Y88500D02*
D03*
X180750D02*
D03*
X151250Y83500D02*
D03*
X180750D02*
D03*
X151250Y78500D02*
D03*
X180750D02*
D03*
X151250Y73500D02*
D03*
X180750D02*
D03*
X151250Y68500D02*
D03*
X180750D02*
D03*
X151250Y63500D02*
D03*
X180750D02*
D03*
X151250Y58500D02*
D03*
X180750D02*
D03*
X151250Y53500D02*
D03*
X180750D02*
D03*
X151250Y48500D02*
D03*
X180750D02*
D03*
X151250Y43500D02*
D03*
X180750D02*
D03*
X151250Y38500D02*
D03*
X180750D02*
D03*
X151250Y33500D02*
D03*
X180750D02*
D03*
X151250Y28500D02*
D03*
X180750D02*
D03*
X151250Y23500D02*
D03*
X180750D02*
D03*
D12*
X82000Y235000D02*
D03*
Y209000D02*
D03*
X-132000D02*
D03*
Y235000D02*
D03*
D13*
X17500Y209000D02*
D03*
X27500D02*
D03*
X37500D02*
D03*
X22500Y235000D02*
D03*
X32500D02*
D03*
X42500D02*
D03*
X72500D02*
D03*
X62500D02*
D03*
X52500D02*
D03*
X67500Y209000D02*
D03*
X57500D02*
D03*
X47500D02*
D03*
X-42500D02*
D03*
X-32500D02*
D03*
X-22500D02*
D03*
X-12500D02*
D03*
X-2500D02*
D03*
X7500D02*
D03*
X-37500Y235000D02*
D03*
X-27500D02*
D03*
X-17500D02*
D03*
X-7500D02*
D03*
X2500D02*
D03*
X12500D02*
D03*
X-47500D02*
D03*
X-57500D02*
D03*
X-67500D02*
D03*
X-77500D02*
D03*
X-87500D02*
D03*
X-97500D02*
D03*
X-107500D02*
D03*
X-117500D02*
D03*
X-52500Y209000D02*
D03*
X-62500D02*
D03*
X-72500D02*
D03*
X-82500D02*
D03*
X-92500D02*
D03*
X-102500D02*
D03*
X-112500D02*
D03*
X-122500D02*
D03*
D14*
X241414Y-111823D02*
D03*
X221564Y-146204D02*
D03*
D15*
X268586Y-109959D02*
D03*
X233586Y-170581D02*
D03*
D16*
X233777Y163235D02*
D03*
X279792Y57406D02*
D03*
D17*
X215815Y126801D02*
D03*
X220799Y115338D02*
D03*
X235912Y80581D02*
D03*
X240896Y69118D02*
D03*
X230848Y92228D02*
D03*
X225863Y103691D02*
D03*
D18*
X271284Y-60427D02*
D03*
X265772Y-79653D02*
D03*
D19*
X-222864Y167706D02*
D03*
X-234336Y151323D02*
D03*
D20*
X230400Y107162D02*
X239917D01*
X228321Y105083D02*
X230400Y107162D01*
X-180750Y134620D02*
Y138430D01*
X-204470Y10160D02*
X-154940Y-39370D01*
X27500Y198120D02*
Y209000D01*
X22500Y223670D02*
Y235000D01*
X27500Y209000D02*
Y218670D01*
X-98425Y-54864D02*
Y-40005D01*
X-97790Y-39370D01*
X-154940D02*
X-97790D01*
X-46990D01*
X-122500Y209000D02*
X-117500D01*
X-112500D01*
X-209867Y126230D02*
X-201478Y134620D01*
X-180750D01*
X-195586Y57500D02*
X-190821D01*
X-195586Y53684D02*
Y57500D01*
X22500Y223670D02*
X27500Y218670D01*
X-117500Y209000D02*
Y235000D01*
X198660Y-82220D02*
X198924Y-81956D01*
Y33885D01*
X-250385Y93980D02*
X-242118D01*
X-209867Y126230D01*
X-204470Y24130D02*
X-195586Y33014D01*
X-204470Y10160D02*
Y24130D01*
X-195586Y33014D02*
Y53684D01*
Y57500D02*
Y99060D01*
X168156Y-88774D02*
Y-82220D01*
X174710D01*
X168156Y-88774D02*
X174710Y-82220D01*
X-180750Y134620D02*
Y137762D01*
X-117500Y201012D01*
Y209000D01*
X174710Y-82220D02*
X248784D01*
X182880Y139990D02*
Y143129D01*
X194710Y37389D02*
Y38100D01*
X192091Y34770D02*
X194710Y37389D01*
Y38100D02*
X198040Y34770D01*
X192091D02*
X198040D01*
D21*
X62500Y179510D02*
Y235000D01*
X133510Y108500D02*
X151250D01*
X62500Y179510D02*
X133510Y108500D01*
X161270Y20340D02*
Y21105D01*
Y20340D02*
X161290Y20320D01*
X161270Y20300D02*
X161290Y20320D01*
X158874Y23500D02*
X161270Y21105D01*
X151250Y23500D02*
X158874D01*
X172020D02*
X180750D01*
X173190Y18250D02*
X180750D01*
X222297Y64770D02*
X231140D01*
X235488Y69118D01*
X240896D01*
X231513Y76182D02*
X235912Y80581D01*
X218546Y76182D02*
X231513D01*
X216228Y78500D02*
X218546Y76182D01*
X224956Y92228D02*
X230848D01*
X65750Y-6450D02*
X115700Y43500D01*
X124460D01*
X151250D01*
X114279Y48500D02*
X151250D01*
X114314Y63500D02*
X151250D01*
X106680Y71134D02*
X114314Y63500D01*
X106680Y71134D02*
Y91440D01*
X-32500Y189720D02*
Y209000D01*
X-62500Y191823D02*
Y209000D01*
X-67500Y193243D02*
Y235000D01*
X-72500Y194664D02*
Y209000D01*
X-115950Y157634D02*
X-82500Y191084D01*
Y209000D01*
X-120490Y159515D02*
X-92500Y187505D01*
Y209000D01*
X-125030Y161395D02*
X-97500Y188925D01*
Y235000D01*
X-179810Y47500D02*
X-167640D01*
X-180750Y42500D02*
X-171521D01*
X-180750Y37500D02*
X-167640D01*
X-180750Y52500D02*
X-171521D01*
X-180750Y32500D02*
X-171521D01*
X-151250Y22500D02*
X-141880D01*
X-151250Y37500D02*
X-137160D01*
X-151250Y32500D02*
X-140970D01*
X-151250Y27500D02*
X-137160D01*
X-180750D02*
X-167640D01*
X-151250Y42500D02*
X-133270D01*
X-180750Y22500D02*
X-179530D01*
X-194310D02*
X-180750D01*
X-190500Y17500D02*
X-180750D01*
X-111410Y104637D02*
Y155754D01*
X-72500Y194664D01*
X-106756Y116764D02*
Y153988D01*
X-67500Y193243D01*
X-102216Y152107D02*
X-62500Y191823D01*
X-57500Y190402D02*
Y235000D01*
X-97676Y150226D02*
X-57500Y190402D01*
X-37500Y191140D02*
Y235000D01*
X-47500Y193982D02*
Y235000D01*
X-93136Y148346D02*
X-47500Y193982D01*
X-7500Y185540D02*
Y235000D01*
X-12500Y187655D02*
Y209000D01*
X-17500Y189510D02*
Y235000D01*
X-22500Y191904D02*
Y209000D01*
X-42500Y192561D02*
Y209000D01*
X-88596Y146465D02*
X-42500Y192561D01*
X-70311Y136699D02*
X-17500Y189510D01*
X-83931Y144709D02*
X-37500Y191140D01*
X-79391Y121920D02*
Y142829D01*
X-32500Y189720D01*
X-74851Y139552D02*
X-22500Y191904D01*
X-99060Y42500D02*
X-97410Y44150D01*
X-141880Y22500D02*
X-140970Y21590D01*
X-106490Y42500D02*
X-101950Y47040D01*
X-65771Y134383D02*
X-12500Y187655D01*
X-60960Y128270D02*
Y132080D01*
X-7500Y185540D01*
X-161290Y12250D02*
X-151250D01*
X-125030Y127761D02*
Y161395D01*
X-124740Y121630D02*
X-120490Y125880D01*
Y159515D01*
X-151250Y47500D02*
X-128445D01*
X-111183Y76047D02*
X-111030Y76200D01*
X-111183Y67896D02*
Y76047D01*
X-124705Y108770D02*
X-115950Y117525D01*
Y157634D01*
X-92040Y63060D02*
Y81550D01*
X-97410Y44150D02*
Y82600D01*
X-101950Y47040D02*
Y84481D01*
X-115868Y45964D02*
Y89872D01*
X-102216Y103524D01*
Y152107D01*
X-111030Y76200D02*
Y88289D01*
X-97676Y101644D01*
X-106490Y86409D02*
X-93136Y99763D01*
X-106490Y61761D02*
Y86409D01*
X-97676Y101644D02*
Y150226D01*
X-93136Y99763D02*
Y148346D01*
X12500Y223720D02*
Y235000D01*
X75649Y-232404D02*
Y-203819D01*
X-236220Y-21930D02*
X-173850Y-84301D01*
X-60128Y-183783D02*
X16351D01*
X-240760Y-25924D02*
X-178389Y-88295D01*
X61652Y-183402D02*
X72390D01*
X88639Y22860D02*
X114279Y48500D01*
X241414Y-111823D02*
X247513D01*
X253926Y-105410D01*
X180750Y28500D02*
X190824D01*
X192654Y26670D01*
X65850Y-68580D02*
X125540Y-8890D01*
X123659Y-4350D02*
X150731D01*
X125540Y-8890D02*
X153610D01*
X67958Y-73660D02*
X127648Y-13970D01*
X180750Y108500D02*
X191220D01*
X180750Y88500D02*
X191220D01*
X180750Y73500D02*
X191220D01*
X180750Y68500D02*
X191220D01*
X180750Y33500D02*
X191220D01*
X180750Y83500D02*
X216228D01*
X224956Y92228D01*
X180750Y78500D02*
X216228D01*
X201360Y53500D02*
X204330Y56470D01*
X180750Y53500D02*
X201360D01*
X140970Y28500D02*
X151250D01*
X199390Y73660D02*
X213407D01*
X222297Y64770D01*
X193716Y119974D02*
X195580Y118110D01*
X193716Y119974D02*
Y143915D01*
X187771Y149860D02*
X193716Y143915D01*
X134930Y113500D02*
X151250D01*
X77860Y170570D02*
X134930Y113500D01*
X57150Y198365D02*
Y208650D01*
X116101Y138750D02*
X151250D01*
X88691Y166161D02*
X116101Y138750D01*
X52500Y187530D02*
Y235000D01*
X151250Y123500D02*
X161910D01*
X102009Y131600D02*
X102700D01*
X110800Y123500D01*
X47500Y186110D02*
Y209000D01*
Y186110D02*
X102009Y131600D01*
X42500Y184510D02*
Y235000D01*
Y184510D02*
X104180Y122830D01*
X191770Y88500D02*
X200903D01*
X211463Y99060D01*
X221232D01*
X225863Y103691D01*
X64770Y113030D02*
X96425D01*
X63429Y118110D02*
X90170D01*
X-16510Y31750D02*
X64770Y113030D01*
X-21050Y33630D02*
X63429Y118110D01*
X-201978Y107500D02*
X-180750D01*
X-206564Y102914D02*
X-201978Y107500D01*
X237097Y-107506D02*
X241414Y-111823D01*
X-240760Y-25924D02*
Y49180D01*
X-178389Y-116482D02*
Y-88295D01*
Y-116482D02*
X-156877Y-137994D01*
Y-203803D02*
Y-137994D01*
X-173850Y-114601D02*
Y-84301D01*
X142003Y128500D02*
X151250D01*
X139990Y126487D02*
X142003Y128500D01*
X139990Y120360D02*
Y126487D01*
Y120360D02*
X141850Y118500D01*
X151250D01*
X159630D01*
X161910Y116220D01*
Y105390D02*
Y116220D01*
X160020Y103500D02*
X161910Y105390D01*
X180750Y103500D02*
X201330D01*
X208320Y110490D01*
X215952D01*
X220799Y115338D01*
X226112Y120650D01*
X238760D01*
X151250Y103500D02*
X160020D01*
X180750D01*
Y98500D02*
X191220D01*
X132122Y68500D02*
X151250D01*
X124576Y76047D02*
X132122Y68500D01*
X101833Y98500D02*
X151250D01*
X94923Y105410D02*
X101833Y98500D01*
X87179Y105410D02*
X94923D01*
X-220795Y2360D02*
X-126326Y-92108D01*
X-210820Y-15240D02*
X-129412Y-96648D01*
X8035Y-64286D02*
X104140Y-160391D01*
Y-189175D02*
Y-160391D01*
X3495Y-66167D02*
X97790Y-160462D01*
Y-170609D02*
Y-160462D01*
X-180750Y127500D02*
X-172720D01*
X-161579Y117500D02*
X-151250D01*
X-203399Y112500D02*
X-180750D01*
X-220795Y2360D02*
Y95104D01*
X-203399Y112500D01*
X-166463D02*
X-151250D01*
X-190821Y57500D02*
X-180750D01*
X135986Y-107506D02*
X237097D01*
X98520Y-70040D02*
X135986Y-107506D01*
X127381Y-233343D02*
Y-200198D01*
X103025Y-257699D02*
X127381Y-233343D01*
X-129412Y-96648D02*
X-60356D01*
X-3334Y-153670D01*
X25500D01*
X75649Y-203819D01*
X-126326Y-92108D02*
X-58475D01*
X-1453Y-149130D01*
X27380D01*
X61652Y-183402D01*
X99670Y-64770D02*
X137409Y-102508D01*
X93980Y-64770D02*
X99670D01*
X178307Y13480D02*
X189624D01*
X192654Y16510D01*
X127648Y-13970D02*
X155040D01*
X192654Y16510D02*
Y26670D01*
X-253170Y124460D02*
X-240030D01*
X-266700Y110930D02*
X-253170Y124460D01*
X-266700Y75120D02*
Y110930D01*
Y75120D02*
X-240760Y49180D01*
X-88596Y120650D02*
Y146465D01*
Y112560D02*
X-83931Y117224D01*
X-88596Y104256D02*
Y112560D01*
X-83931Y117224D02*
Y144709D01*
X-83820Y102611D02*
Y110411D01*
X-74851Y119380D01*
X-101950Y84481D02*
X-83820Y102611D01*
X-74851Y119380D02*
Y139552D01*
X-79280Y108531D02*
X-70311Y117500D01*
X-79280Y100730D02*
Y108531D01*
X-97410Y82600D02*
X-79280Y100730D01*
X-70311Y117500D02*
Y136699D01*
X-74740Y106650D02*
X-65771Y115619D01*
X-74740Y98850D02*
Y106650D01*
X-92040Y81550D02*
X-74740Y98850D01*
X-65771Y115619D02*
Y134383D01*
X6326Y220595D02*
X7500Y219421D01*
Y209000D02*
Y219421D01*
X170330Y133500D02*
X180750D01*
X170330Y123500D02*
X180750D01*
X170330Y113500D02*
X180750D01*
X166370Y118500D02*
X180750D01*
X-142008Y-196469D02*
X-106221D01*
X-152337Y-186140D02*
X-142008Y-196469D01*
X-152337Y-186140D02*
Y-136114D01*
X-173850Y-114601D02*
X-152337Y-136114D01*
X137409Y-102508D02*
X221651D01*
X231738Y-92421D01*
X171777Y63500D02*
X180750D01*
X170330Y62053D02*
X171777Y63500D01*
X170330Y40275D02*
Y62053D01*
X163075Y33020D02*
X170330Y40275D01*
X2540Y19611D02*
X5789Y22860D01*
X88639D01*
X-16510Y1691D02*
Y31750D01*
Y1691D02*
X8035Y-22854D01*
Y-64286D02*
Y-22854D01*
X-21050Y-190D02*
X3495Y-24735D01*
Y-66167D02*
Y-24735D01*
X-21050Y-190D02*
Y33630D01*
X27500Y-6450D02*
X44450Y-23400D01*
Y-62926D02*
Y-23400D01*
Y-62926D02*
X55184Y-73660D01*
X67958D01*
X65850Y-57150D02*
X70859D01*
X123659Y-4350D01*
X146000Y18250D02*
X151250D01*
X137370Y9620D02*
X146000Y18250D01*
X114611Y9620D02*
X137370D01*
X139250Y5080D02*
X147650Y13480D01*
X159354D01*
X161270Y15395D01*
Y20300D01*
X65850Y-45561D02*
X116491Y5080D01*
X139250D01*
X65850Y-31750D02*
X73241D01*
X114611Y9620D01*
X150731Y-4350D02*
X167195Y12114D01*
Y18676D01*
X172020Y23500D01*
X171735Y16795D02*
X173190Y18250D01*
X176275Y11448D02*
X178307Y13480D01*
X176275Y7265D02*
Y11448D01*
X171735Y9235D02*
Y16795D01*
X153610Y-8890D02*
X171735Y9235D01*
X155040Y-13970D02*
X176275Y7265D01*
X-234336Y151323D02*
X-228004Y144992D01*
Y138970D02*
Y144992D01*
X-218049Y163935D02*
X-213317D01*
X-222864Y168750D02*
X-218049Y163935D01*
X-227510Y168750D02*
X-222864D01*
X266316Y-83364D02*
Y-75785D01*
X257260Y-92421D02*
X266316Y-83364D01*
X231738Y-92421D02*
X257260D01*
X257810Y-51673D02*
X261206D01*
X266194Y-56659D01*
X272164D01*
X161910Y123500D02*
X164626Y126216D01*
Y141179D01*
X173307Y149860D01*
X187771D01*
X-95250Y-165100D02*
X-78811D01*
X-60128Y-183783D01*
X-99790Y-166980D02*
X-97130Y-169640D01*
X-80691D01*
X-62008Y-188323D01*
X8664D01*
X16351Y-196010D01*
X-99790Y-166980D02*
Y-147320D01*
X196718Y58500D02*
X199390Y61172D01*
X180750Y58500D02*
X196718D01*
X199390Y67310D02*
X201531D01*
X204330Y64511D01*
Y56470D02*
Y64511D01*
X-166463Y122500D02*
X-151250D01*
X-161579Y127500D02*
X-151250D01*
X-172720D02*
X-168910Y131310D01*
Y136025D01*
X-164201Y140735D01*
X-159932D01*
X-133740Y-114400D02*
X-89994D01*
X-78664Y-125730D01*
X-50800D01*
D22*
X-45720Y-56769D02*
X20701Y-123190D01*
X-45720Y86360D02*
X27500Y159580D01*
Y198120D01*
X-45720Y-56769D02*
Y86360D01*
X20701Y-123190D02*
X25400Y-127889D01*
D23*
X226401Y-54950D02*
X239917Y-41434D01*
Y49409D02*
X246978Y56470D01*
X239917Y-41434D02*
Y49409D01*
D24*
X260350Y66750D02*
X270510Y88900D01*
X249455Y129005D02*
X270510Y88900D01*
X223690Y130426D02*
X243840Y139700D01*
X249455Y129005D01*
X246978Y56470D02*
X254000Y63492D01*
X253901Y63703D02*
X260350Y66750D01*
X113520Y151130D02*
X118789Y145861D01*
X158067D01*
X169223Y157017D01*
X189423D01*
X200660Y145781D01*
Y124648D02*
Y145781D01*
Y124648D02*
X203399Y121909D01*
X210922D01*
X215815Y126801D01*
D25*
X-190000Y-190000D02*
D03*
X190000D02*
D03*
Y190000D02*
D03*
X-190000D02*
D03*
D26*
X249558Y-126917D02*
D03*
X238458Y-146143D02*
D03*
D27*
X239917Y107162D02*
D03*
X65850Y-57150D02*
D03*
Y-68580D02*
D03*
Y-44550D02*
D03*
Y-31750D02*
D03*
X199390Y73660D02*
D03*
X226401Y-54950D02*
D03*
X-280670Y53340D02*
D03*
X65750Y-6450D02*
D03*
X124460Y43500D02*
D03*
X106680Y91440D02*
D03*
X-194310Y22500D02*
D03*
X-190500Y17500D02*
D03*
X-140970Y22500D02*
D03*
X-106756Y116764D02*
D03*
X-88900Y120650D02*
D03*
X-79391Y121920D02*
D03*
X-171521Y52500D02*
D03*
X-167640Y37500D02*
D03*
X-137160D02*
D03*
X-140970Y32500D02*
D03*
X-137160Y27500D02*
D03*
X-171521Y32500D02*
D03*
X-88596Y104256D02*
D03*
X-167640Y27500D02*
D03*
Y47500D02*
D03*
X-171521Y42500D02*
D03*
X-128445Y47500D02*
D03*
X-133270Y42500D02*
D03*
X-111410Y104637D02*
D03*
X-60960Y128270D02*
D03*
X-106490Y42500D02*
D03*
X-99060D02*
D03*
X-92040Y63060D02*
D03*
X-161290Y12250D02*
D03*
X-124705Y108770D02*
D03*
X-177800Y6350D02*
D03*
X-125030Y127761D02*
D03*
X-124740Y121630D02*
D03*
X-124705Y115245D02*
D03*
X-115868Y45964D02*
D03*
X-106490Y61761D02*
D03*
X-111183Y67310D02*
D03*
X-166463Y122500D02*
D03*
X12500Y223720D02*
D03*
X6326Y220595D02*
D03*
X-161579Y117500D02*
D03*
X75649Y-232404D02*
D03*
X246978Y56470D02*
D03*
X-210820Y-15240D02*
D03*
X-206564Y102914D02*
D03*
X-236220Y-21930D02*
D03*
X-156877Y-203803D02*
D03*
X-240030Y124460D02*
D03*
X-95250Y-165100D02*
D03*
X16351Y-183783D02*
D03*
X-99790Y-147320D02*
D03*
X72390Y-183402D02*
D03*
X253926Y-105410D02*
D03*
X257810Y-51673D02*
D03*
X191770Y108500D02*
D03*
Y88500D02*
D03*
Y73500D02*
D03*
Y68500D02*
D03*
X199390Y61172D02*
D03*
Y67310D02*
D03*
X93980Y-64770D02*
D03*
X140970Y28500D02*
D03*
X170330Y113500D02*
D03*
X96425Y113030D02*
D03*
X104140Y-189175D02*
D03*
X170330Y133500D02*
D03*
X90170Y118110D02*
D03*
X97790Y-170609D02*
D03*
X195580Y118110D02*
D03*
X182880Y143129D02*
D03*
X77860Y170570D02*
D03*
X57150Y198365D02*
D03*
X88691Y166161D02*
D03*
X52500Y187530D02*
D03*
X170330Y123500D02*
D03*
X110800D02*
D03*
X104180Y122830D02*
D03*
X166370Y118500D02*
D03*
X-213317Y163935D02*
D03*
X-133740Y-114400D02*
D03*
X163075Y33020D02*
D03*
X98520Y-70040D02*
D03*
X27500Y198120D02*
D03*
X-180750Y138430D02*
D03*
X20701Y-123190D02*
D03*
X-250385Y93980D02*
D03*
X113520Y151130D02*
D03*
X238760Y120650D02*
D03*
X191770Y98500D02*
D03*
X142320Y58500D02*
D03*
X124576Y76047D02*
D03*
X87179Y105410D02*
D03*
X-98425Y-54864D02*
D03*
X-205740Y76047D02*
D03*
X82307Y-12700D02*
D03*
X69850Y9170D02*
D03*
X127000Y15240D02*
D03*
X139414Y-25400D02*
D03*
X167195Y-22860D02*
D03*
X222112Y-35987D02*
D03*
X197361Y-92710D02*
D03*
X154940Y-35084D02*
D03*
X248784Y-82220D02*
D03*
X168156Y-88774D02*
D03*
X103025Y-257699D02*
D03*
X127381Y-200198D02*
D03*
X-159932Y140735D02*
D03*
X-209867Y126230D02*
D03*
X-166463Y112500D02*
D03*
X-228004Y138970D02*
D03*
X-195580Y99060D02*
D03*
X-117784Y222448D02*
D03*
X-87630Y222610D02*
D03*
X-77470D02*
D03*
X-27506D02*
D03*
X-143510Y236827D02*
D03*
Y205740D02*
D03*
X6700Y190500D02*
D03*
X82000Y191612D02*
D03*
X75503Y254000D02*
D03*
X199797Y44450D02*
D03*
X137701Y-64770D02*
D03*
X137080Y-85090D02*
D03*
X82170Y-82550D02*
D03*
X50800Y-127006D02*
D03*
X31750Y-107937D02*
D03*
X-19050Y-57150D02*
D03*
Y-18850D02*
D03*
X198040Y34770D02*
D03*
X25400Y-127889D02*
D03*
X-88596Y260350D02*
D03*
X69953Y133350D02*
D03*
X38100Y133294D02*
D03*
X161Y101644D02*
D03*
Y76047D02*
D03*
X50800Y50980D02*
D03*
X88900Y69858D02*
D03*
X-50800Y-125730D02*
D03*
X-82515Y-69850D02*
D03*
X-69850Y-57150D02*
D03*
X-146050D02*
D03*
X-196850Y-88774D02*
D03*
X-273050Y-57150D02*
D03*
Y-95250D02*
D03*
X-241300Y-152400D02*
D03*
X-241306Y-57150D02*
D03*
X-127000Y-203200D02*
D03*
Y-241300D02*
D03*
X-13176D02*
D03*
X32115D02*
D03*
X133206Y-247650D02*
D03*
X57150Y-203200D02*
D03*
X-50653Y-196850D02*
D03*
X-88706Y-177800D02*
D03*
X-139700Y-145796D02*
D03*
X152400Y-184678D02*
D03*
X114279Y-127006D02*
D03*
X-120650Y6350D02*
D03*
X-82500Y6630D02*
D03*
Y38100D02*
D03*
X-76200Y82600D02*
D03*
X-33020Y142240D02*
D03*
X-139694Y152400D02*
D03*
X-158750Y184264D02*
D03*
X-108770Y189720D02*
D03*
X118623Y105083D02*
D03*
X166370Y105461D02*
D03*
X280670Y79605D02*
D03*
X250433Y147219D02*
D03*
X165100Y222444D02*
D03*
X107773Y266700D02*
D03*
X184150Y1270D02*
D03*
X254204Y-140234D02*
D03*
X184150Y-228600D02*
D03*
X75799Y-285750D02*
D03*
X-69850D02*
D03*
X139990Y196850D02*
D03*
X101646Y221632D02*
D03*
X-69850Y-105410D02*
D03*
X-39370Y-93118D02*
D03*
X-120457Y-123190D02*
D03*
X-158470Y-95250D02*
D03*
X-217170Y-28670D02*
D03*
X-163447Y-6350D02*
D03*
X-195586Y123776D02*
D03*
X-208280Y44450D02*
D03*
X-243698Y69850D02*
D03*
X-71120Y-24130D02*
D03*
X-248718Y146465D02*
D03*
X139700Y-120650D02*
D03*
X107773Y166292D02*
D03*
X27150Y11049D02*
D03*
X20656Y39370D02*
D03*
X-166370Y95266D02*
D03*
X-136604Y127761D02*
D03*
X-60698Y107950D02*
D03*
X-52500Y222200D02*
D03*
X-102870Y221222D02*
D03*
X265430Y120666D02*
D03*
X251569Y100330D02*
D03*
X44450Y164885D02*
D03*
X-106221Y-196469D02*
D03*
X-53718Y-162334D02*
D03*
X16351Y-196010D02*
D03*
X194710Y38100D02*
D03*
X168156Y-82220D02*
D03*
X27500Y191060D02*
D03*
Y-6450D02*
D03*
X2540Y19611D02*
D03*
X-82550Y-215900D02*
D03*
X149860Y5080D02*
D03*
X215900Y148590D02*
D03*
X-161579Y127500D02*
D03*
X-3810Y-123858D02*
D03*
X127000Y234950D02*
D03*
M02*
