%FSLAX44Y44*%
%MOMM*%
G71*
G01*
G75*
G04 Layer_Color=8388736*
%ADD10R,1.3500X0.3000*%
%ADD11R,1.3500X0.2500*%
%ADD12R,0.5000X1.7000*%
G04:AMPARAMS|DCode=13|XSize=0.32mm|YSize=1.7mm|CornerRadius=0.08mm|HoleSize=0mm|Usage=FLASHONLY|Rotation=0.000|XOffset=0mm|YOffset=0mm|HoleType=Round|Shape=RoundedRectangle|*
%AMROUNDEDRECTD13*
21,1,0.3200,1.5400,0,0,0.0*
21,1,0.1600,1.7000,0,0,0.0*
1,1,0.1600,0.0800,-0.7700*
1,1,0.1600,-0.0800,-0.7700*
1,1,0.1600,-0.0800,0.7700*
1,1,0.1600,0.0800,0.7700*
%
%ADD13ROUNDEDRECTD13*%
G04:AMPARAMS|DCode=14|XSize=1.5mm|YSize=0.8mm|CornerRadius=0mm|HoleSize=0mm|Usage=FLASHONLY|Rotation=330.000|XOffset=0mm|YOffset=0mm|HoleType=Round|Shape=Rectangle|*
%AMROTATEDRECTD14*
4,1,4,-0.8495,0.0286,-0.4495,0.7214,0.8495,-0.0286,0.4495,-0.7214,-0.8495,0.0286,0.0*
%
%ADD14ROTATEDRECTD14*%

G04:AMPARAMS|DCode=15|XSize=1.5mm|YSize=1mm|CornerRadius=0mm|HoleSize=0mm|Usage=FLASHONLY|Rotation=240.000|XOffset=0mm|YOffset=0mm|HoleType=Round|Shape=Rectangle|*
%AMROTATEDRECTD15*
4,1,4,-0.0580,0.8995,0.8080,0.3995,0.0580,-0.8995,-0.8080,-0.3995,-0.0580,0.8995,0.0*
%
%ADD15ROTATEDRECTD15*%

G04:AMPARAMS|DCode=16|XSize=3mm|YSize=2.1mm|CornerRadius=0mm|HoleSize=0mm|Usage=FLASHONLY|Rotation=203.500|XOffset=0mm|YOffset=0mm|HoleType=Round|Shape=Rectangle|*
%AMROTATEDRECTD16*
4,1,4,0.9569,1.5610,1.7943,-0.3648,-0.9569,-1.5610,-1.7943,0.3648,0.9569,1.5610,0.0*
%
%ADD16ROTATEDRECTD16*%

G04:AMPARAMS|DCode=17|XSize=2.1mm|YSize=0.8mm|CornerRadius=0mm|HoleSize=0mm|Usage=FLASHONLY|Rotation=203.500|XOffset=0mm|YOffset=0mm|HoleType=Round|Shape=Rectangle|*
%AMROTATEDRECTD17*
4,1,4,0.8034,0.7855,1.1224,0.0519,-0.8034,-0.7855,-1.1224,-0.0519,0.8034,0.7855,0.0*
%
%ADD17ROTATEDRECTD17*%

G04:AMPARAMS|DCode=18|XSize=1.2954mm|YSize=1.1938mm|CornerRadius=0mm|HoleSize=0mm|Usage=FLASHONLY|Rotation=344.000|XOffset=0mm|YOffset=0mm|HoleType=Round|Shape=Rectangle|*
%AMROTATEDRECTD18*
4,1,4,-0.7871,-0.3952,-0.4581,0.7523,0.7871,0.3952,0.4581,-0.7523,-0.7871,-0.3952,0.0*
%
%ADD18ROTATEDRECTD18*%

G04:AMPARAMS|DCode=19|XSize=1.2954mm|YSize=1.1938mm|CornerRadius=0mm|HoleSize=0mm|Usage=FLASHONLY|Rotation=325.000|XOffset=0mm|YOffset=0mm|HoleType=Round|Shape=Rectangle|*
%AMROTATEDRECTD19*
4,1,4,-0.8729,-0.1175,-0.1882,0.8605,0.8729,0.1175,0.1882,-0.8605,-0.8729,-0.1175,0.0*
%
%ADD19ROTATEDRECTD19*%

%ADD20C,0.6000*%
%ADD21C,0.2540*%
%ADD22C,1.0000*%
%ADD23C,0.4000*%
%ADD24C,0.3000*%
G04:AMPARAMS|DCode=25|XSize=4mm|YSize=4mm|CornerRadius=2mm|HoleSize=0mm|Usage=FLASHONLY|Rotation=0.000|XOffset=0mm|YOffset=0mm|HoleType=Round|Shape=RoundedRectangle|*
%AMROUNDEDRECTD25*
21,1,4.0000,0.0000,0,0,0.0*
21,1,0.0000,4.0000,0,0,0.0*
1,1,4.0000,0.0000,0.0000*
1,1,4.0000,0.0000,0.0000*
1,1,4.0000,0.0000,0.0000*
1,1,4.0000,0.0000,0.0000*
%
%ADD25ROUNDEDRECTD25*%
%ADD26C,0.0254*%
%ADD27C,0.4500*%
G04:AMPARAMS|DCode=28|XSize=3mm|YSize=2.1mm|CornerRadius=0mm|HoleSize=0mm|Usage=FLASHONLY|Rotation=210.000|XOffset=0mm|YOffset=0mm|HoleType=Round|Shape=Rectangle|*
%AMROTATEDRECTD28*
4,1,4,0.7740,1.6593,1.8240,-0.1593,-0.7740,-1.6593,-1.8240,0.1593,0.7740,1.6593,0.0*
%
%ADD28ROTATEDRECTD28*%

G04:AMPARAMS|DCode=29|XSize=2.1mm|YSize=0.8mm|CornerRadius=0mm|HoleSize=0mm|Usage=FLASHONLY|Rotation=210.000|XOffset=0mm|YOffset=0mm|HoleType=Round|Shape=Rectangle|*
%AMROTATEDRECTD29*
4,1,4,0.7093,0.8714,1.1093,0.1786,-0.7093,-0.8714,-1.1093,-0.1786,0.7093,0.8714,0.0*
%
%ADD29ROTATEDRECTD29*%

%ADD30R,0.8890X1.0160*%
%ADD31R,2.1000X0.8000*%
%ADD32R,3.0000X2.1000*%
%ADD33R,1.0160X0.8890*%
%ADD34R,1.3970X1.3970*%
%ADD35R,0.8128X0.8128*%
%ADD36R,1.3970X1.3970*%
%ADD37R,1.2700X0.5080*%
%ADD38R,0.8128X0.8128*%
%ADD39R,2.0320X0.6096*%
%ADD40O,2.0320X0.6096*%
%ADD41R,2.0000X2.0000*%
%ADD42R,0.6096X2.0320*%
%ADD43O,0.6096X2.0320*%
%ADD44R,2.5000X2.2000*%
%ADD45R,1.2954X1.6002*%
%ADD46R,1.2000X1.6000*%
%ADD47R,1.6000X1.2000*%
%ADD48R,2.1500X6.3000*%
G04:AMPARAMS|DCode=49|XSize=1.6mm|YSize=1mm|CornerRadius=0mm|HoleSize=0mm|Usage=FLASHONLY|Rotation=24.000|XOffset=0mm|YOffset=0mm|HoleType=Round|Shape=Rectangle|*
%AMROTATEDRECTD49*
4,1,4,-0.5275,-0.7822,-0.9342,0.1314,0.5275,0.7822,0.9342,-0.1314,-0.5275,-0.7822,0.0*
%
%ADD49ROTATEDRECTD49*%

G04:AMPARAMS|DCode=50|XSize=1.8mm|YSize=1.2mm|CornerRadius=0mm|HoleSize=0mm|Usage=FLASHONLY|Rotation=153.000|XOffset=0mm|YOffset=0mm|HoleType=Round|Shape=Rectangle|*
%AMROTATEDRECTD50*
4,1,4,1.0743,0.1260,0.5295,-0.9432,-1.0743,-0.1260,-0.5295,0.9432,1.0743,0.1260,0.0*
%
%ADD50ROTATEDRECTD50*%

%ADD51R,0.8128X1.0668*%
%ADD52R,0.7000X0.6000*%
%ADD53R,3.5000X1.0000*%
%ADD54R,1.0668X0.8128*%
%ADD55C,0.8000*%
%ADD56C,0.5000*%
%ADD57C,0.1200*%
%ADD58C,0.1000*%
%ADD59C,0.1501*%
%ADD60C,0.1500*%
%ADD61C,0.1250*%
%ADD62R,1.5532X0.5032*%
%ADD63R,1.5532X0.4532*%
%ADD64R,0.7032X1.9032*%
G04:AMPARAMS|DCode=65|XSize=0.5232mm|YSize=1.9032mm|CornerRadius=0.1816mm|HoleSize=0mm|Usage=FLASHONLY|Rotation=0.000|XOffset=0mm|YOffset=0mm|HoleType=Round|Shape=RoundedRectangle|*
%AMROUNDEDRECTD65*
21,1,0.5232,1.5400,0,0,0.0*
21,1,0.1600,1.9032,0,0,0.0*
1,1,0.3632,0.0800,-0.7700*
1,1,0.3632,-0.0800,-0.7700*
1,1,0.3632,-0.0800,0.7700*
1,1,0.3632,0.0800,0.7700*
%
%ADD65ROUNDEDRECTD65*%
G04:AMPARAMS|DCode=66|XSize=1.7032mm|YSize=1.0032mm|CornerRadius=0mm|HoleSize=0mm|Usage=FLASHONLY|Rotation=330.000|XOffset=0mm|YOffset=0mm|HoleType=Round|Shape=Rectangle|*
%AMROTATEDRECTD66*
4,1,4,-0.9883,-0.0086,-0.4867,0.8602,0.9883,0.0086,0.4867,-0.8602,-0.9883,-0.0086,0.0*
%
%ADD66ROTATEDRECTD66*%

G04:AMPARAMS|DCode=67|XSize=1.7032mm|YSize=1.2032mm|CornerRadius=0mm|HoleSize=0mm|Usage=FLASHONLY|Rotation=240.000|XOffset=0mm|YOffset=0mm|HoleType=Round|Shape=Rectangle|*
%AMROTATEDRECTD67*
4,1,4,-0.0952,1.0383,0.9468,0.4367,0.0952,-1.0383,-0.9468,-0.4367,-0.0952,1.0383,0.0*
%
%ADD67ROTATEDRECTD67*%

G04:AMPARAMS|DCode=68|XSize=3.2032mm|YSize=2.3032mm|CornerRadius=0mm|HoleSize=0mm|Usage=FLASHONLY|Rotation=203.500|XOffset=0mm|YOffset=0mm|HoleType=Round|Shape=Rectangle|*
%AMROTATEDRECTD68*
4,1,4,1.0096,1.6947,1.9280,-0.4174,-1.0096,-1.6947,-1.9280,0.4174,1.0096,1.6947,0.0*
%
%ADD68ROTATEDRECTD68*%

G04:AMPARAMS|DCode=69|XSize=2.3032mm|YSize=1.0032mm|CornerRadius=0mm|HoleSize=0mm|Usage=FLASHONLY|Rotation=203.500|XOffset=0mm|YOffset=0mm|HoleType=Round|Shape=Rectangle|*
%AMROTATEDRECTD69*
4,1,4,0.8561,0.9192,1.2561,-0.0008,-0.8561,-0.9192,-1.2561,0.0008,0.8561,0.9192,0.0*
%
%ADD69ROTATEDRECTD69*%

G04:AMPARAMS|DCode=70|XSize=1.4986mm|YSize=1.397mm|CornerRadius=0mm|HoleSize=0mm|Usage=FLASHONLY|Rotation=344.000|XOffset=0mm|YOffset=0mm|HoleType=Round|Shape=Rectangle|*
%AMROTATEDRECTD70*
4,1,4,-0.9128,-0.4649,-0.5277,0.8780,0.9128,0.4649,0.5277,-0.8780,-0.9128,-0.4649,0.0*
%
%ADD70ROTATEDRECTD70*%

G04:AMPARAMS|DCode=71|XSize=1.4986mm|YSize=1.397mm|CornerRadius=0mm|HoleSize=0mm|Usage=FLASHONLY|Rotation=325.000|XOffset=0mm|YOffset=0mm|HoleType=Round|Shape=Rectangle|*
%AMROTATEDRECTD71*
4,1,4,-1.0144,-0.1424,-0.2132,1.0020,1.0144,0.1424,0.2132,-1.0020,-1.0144,-0.1424,0.0*
%
%ADD71ROTATEDRECTD71*%

G04:AMPARAMS|DCode=72|XSize=4.2032mm|YSize=4.2032mm|CornerRadius=2.1016mm|HoleSize=0mm|Usage=FLASHONLY|Rotation=0.000|XOffset=0mm|YOffset=0mm|HoleType=Round|Shape=RoundedRectangle|*
%AMROUNDEDRECTD72*
21,1,4.2032,0.0000,0,0,0.0*
21,1,0.0000,4.2032,0,0,0.0*
1,1,4.2032,0.0000,0.0000*
1,1,4.2032,0.0000,0.0000*
1,1,4.2032,0.0000,0.0000*
1,1,4.2032,0.0000,0.0000*
%
%ADD72ROUNDEDRECTD72*%
%ADD73C,0.2286*%
%ADD74C,0.6532*%
D22*
X-59189Y294103D02*
G03*
X-297380Y39563I59189J-294103D01*
G01*
X297385Y39521D02*
G03*
X59128Y294116I-297385J-39521D01*
G01*
X-297380Y-39563D02*
G03*
X-59128Y-294116I297380J39563D01*
G01*
X59097Y-294122D02*
G03*
X297407Y-39355I-59097J294122D01*
G01*
D62*
X-180750Y132750D02*
D03*
X-151250D02*
D03*
X-180750Y12250D02*
D03*
X-151250D02*
D03*
X151250Y138750D02*
D03*
X180750D02*
D03*
X151250Y18250D02*
D03*
X180750D02*
D03*
D63*
X-180750Y127500D02*
D03*
X-151250D02*
D03*
X-180750Y122500D02*
D03*
X-151250D02*
D03*
X-180750Y117500D02*
D03*
X-151250D02*
D03*
X-180750Y112500D02*
D03*
X-151250D02*
D03*
X-180750Y107500D02*
D03*
X-151250D02*
D03*
X-180750Y102500D02*
D03*
X-151250D02*
D03*
X-180750Y97500D02*
D03*
X-151250D02*
D03*
X-180750Y92500D02*
D03*
X-151250D02*
D03*
X-180750Y87500D02*
D03*
X-151250D02*
D03*
X-180750Y82500D02*
D03*
X-151250D02*
D03*
X-180750Y77500D02*
D03*
X-151250D02*
D03*
X-180750Y72500D02*
D03*
X-151250D02*
D03*
X-180750Y67500D02*
D03*
X-151250D02*
D03*
X-180750Y62500D02*
D03*
X-151250D02*
D03*
X-180750Y57500D02*
D03*
X-151250D02*
D03*
X-180750Y52500D02*
D03*
X-151250D02*
D03*
X-180750Y47500D02*
D03*
X-151250D02*
D03*
X-180750Y42500D02*
D03*
X-151250D02*
D03*
X-180750Y37500D02*
D03*
X-151250D02*
D03*
X-180750Y32500D02*
D03*
X-151250D02*
D03*
X-180750Y27500D02*
D03*
X-151250D02*
D03*
X-180750Y22500D02*
D03*
X-151250D02*
D03*
X-180750Y17500D02*
D03*
X-151250D02*
D03*
X151250Y133500D02*
D03*
X180750D02*
D03*
X151250Y128500D02*
D03*
X180750D02*
D03*
X151250Y123500D02*
D03*
X180750D02*
D03*
X151250Y118500D02*
D03*
X180750D02*
D03*
X151250Y113500D02*
D03*
X180750D02*
D03*
X151250Y108500D02*
D03*
X180750D02*
D03*
X151250Y103500D02*
D03*
X180750D02*
D03*
X151250Y98500D02*
D03*
X180750D02*
D03*
X151250Y93500D02*
D03*
X180750D02*
D03*
X151250Y88500D02*
D03*
X180750D02*
D03*
X151250Y83500D02*
D03*
X180750D02*
D03*
X151250Y78500D02*
D03*
X180750D02*
D03*
X151250Y73500D02*
D03*
X180750D02*
D03*
X151250Y68500D02*
D03*
X180750D02*
D03*
X151250Y63500D02*
D03*
X180750D02*
D03*
X151250Y58500D02*
D03*
X180750D02*
D03*
X151250Y53500D02*
D03*
X180750D02*
D03*
X151250Y48500D02*
D03*
X180750D02*
D03*
X151250Y43500D02*
D03*
X180750D02*
D03*
X151250Y38500D02*
D03*
X180750D02*
D03*
X151250Y33500D02*
D03*
X180750D02*
D03*
X151250Y28500D02*
D03*
X180750D02*
D03*
X151250Y23500D02*
D03*
X180750D02*
D03*
D64*
X82000Y235000D02*
D03*
Y209000D02*
D03*
X-132000D02*
D03*
Y235000D02*
D03*
D65*
X17500Y209000D02*
D03*
X27500D02*
D03*
X37500D02*
D03*
X22500Y235000D02*
D03*
X32500D02*
D03*
X42500D02*
D03*
X72500D02*
D03*
X62500D02*
D03*
X52500D02*
D03*
X67500Y209000D02*
D03*
X57500D02*
D03*
X47500D02*
D03*
X-42500D02*
D03*
X-32500D02*
D03*
X-22500D02*
D03*
X-12500D02*
D03*
X-2500D02*
D03*
X7500D02*
D03*
X-37500Y235000D02*
D03*
X-27500D02*
D03*
X-17500D02*
D03*
X-7500D02*
D03*
X2500D02*
D03*
X12500D02*
D03*
X-47500D02*
D03*
X-57500D02*
D03*
X-67500D02*
D03*
X-77500D02*
D03*
X-87500D02*
D03*
X-97500D02*
D03*
X-107500D02*
D03*
X-117500D02*
D03*
X-52500Y209000D02*
D03*
X-62500D02*
D03*
X-72500D02*
D03*
X-82500D02*
D03*
X-92500D02*
D03*
X-102500D02*
D03*
X-112500D02*
D03*
X-122500D02*
D03*
D66*
X241414Y-111823D02*
D03*
X221564Y-146204D02*
D03*
D67*
X268586Y-109959D02*
D03*
X233586Y-170581D02*
D03*
D68*
X233777Y163235D02*
D03*
X279792Y57406D02*
D03*
D69*
X215815Y126801D02*
D03*
X220799Y115338D02*
D03*
X235912Y80581D02*
D03*
X240896Y69118D02*
D03*
X230848Y92228D02*
D03*
X225863Y103691D02*
D03*
D70*
X271284Y-60427D02*
D03*
X265772Y-79653D02*
D03*
D71*
X-222864Y167706D02*
D03*
X-234336Y151323D02*
D03*
D72*
X-190000Y-190000D02*
D03*
X190000D02*
D03*
Y190000D02*
D03*
X-190000D02*
D03*
D73*
X249558Y-126917D02*
D03*
X238458Y-146143D02*
D03*
D74*
X239917Y107162D02*
D03*
X65850Y-57150D02*
D03*
Y-68580D02*
D03*
Y-44550D02*
D03*
Y-31750D02*
D03*
X199390Y73660D02*
D03*
X226401Y-54950D02*
D03*
X-280670Y53340D02*
D03*
X65750Y-6450D02*
D03*
X124460Y43500D02*
D03*
X106680Y91440D02*
D03*
X-194310Y22500D02*
D03*
X-190500Y17500D02*
D03*
X-140970Y22500D02*
D03*
X-106756Y116764D02*
D03*
X-88900Y120650D02*
D03*
X-79391Y121920D02*
D03*
X-171521Y52500D02*
D03*
X-167640Y37500D02*
D03*
X-137160D02*
D03*
X-140970Y32500D02*
D03*
X-137160Y27500D02*
D03*
X-171521Y32500D02*
D03*
X-88596Y104256D02*
D03*
X-167640Y27500D02*
D03*
Y47500D02*
D03*
X-171521Y42500D02*
D03*
X-128445Y47500D02*
D03*
X-133270Y42500D02*
D03*
X-111410Y104637D02*
D03*
X-60960Y128270D02*
D03*
X-106490Y42500D02*
D03*
X-99060D02*
D03*
X-92040Y63060D02*
D03*
X-161290Y12250D02*
D03*
X-124705Y108770D02*
D03*
X-177800Y6350D02*
D03*
X-125030Y127761D02*
D03*
X-124740Y121630D02*
D03*
X-124705Y115245D02*
D03*
X-115868Y45964D02*
D03*
X-106490Y61761D02*
D03*
X-111183Y67310D02*
D03*
X-166463Y122500D02*
D03*
X12500Y223720D02*
D03*
X6326Y220595D02*
D03*
X-161579Y117500D02*
D03*
X75649Y-232404D02*
D03*
X246978Y56470D02*
D03*
X-210820Y-15240D02*
D03*
X-206564Y102914D02*
D03*
X-236220Y-21930D02*
D03*
X-156877Y-203803D02*
D03*
X-240030Y124460D02*
D03*
X-95250Y-165100D02*
D03*
X16351Y-183783D02*
D03*
X-99790Y-147320D02*
D03*
X72390Y-183402D02*
D03*
X253926Y-105410D02*
D03*
X257810Y-51673D02*
D03*
X191770Y108500D02*
D03*
Y88500D02*
D03*
Y73500D02*
D03*
Y68500D02*
D03*
X199390Y61172D02*
D03*
Y67310D02*
D03*
X93980Y-64770D02*
D03*
X140970Y28500D02*
D03*
X170330Y113500D02*
D03*
X96425Y113030D02*
D03*
X104140Y-189175D02*
D03*
X170330Y133500D02*
D03*
X90170Y118110D02*
D03*
X97790Y-170609D02*
D03*
X195580Y118110D02*
D03*
X182880Y143129D02*
D03*
X77860Y170570D02*
D03*
X57150Y198365D02*
D03*
X88691Y166161D02*
D03*
X52500Y187530D02*
D03*
X170330Y123500D02*
D03*
X110800D02*
D03*
X104180Y122830D02*
D03*
X166370Y118500D02*
D03*
X-213317Y163935D02*
D03*
X-133740Y-114400D02*
D03*
X163075Y33020D02*
D03*
X98520Y-70040D02*
D03*
X27500Y198120D02*
D03*
X-180750Y138430D02*
D03*
X20701Y-123190D02*
D03*
X-250385Y93980D02*
D03*
X113520Y151130D02*
D03*
X238760Y120650D02*
D03*
X191770Y98500D02*
D03*
X142320Y58500D02*
D03*
X124576Y76047D02*
D03*
X87179Y105410D02*
D03*
X-98425Y-54864D02*
D03*
X-205740Y76047D02*
D03*
X82307Y-12700D02*
D03*
X69850Y9170D02*
D03*
X127000Y15240D02*
D03*
X139414Y-25400D02*
D03*
X167195Y-22860D02*
D03*
X222112Y-35987D02*
D03*
X197361Y-92710D02*
D03*
X154940Y-35084D02*
D03*
X248784Y-82220D02*
D03*
X168156Y-88774D02*
D03*
X103025Y-257699D02*
D03*
X127381Y-200198D02*
D03*
X-159932Y140735D02*
D03*
X-209867Y126230D02*
D03*
X-166463Y112500D02*
D03*
X-228004Y138970D02*
D03*
X-195580Y99060D02*
D03*
X-117784Y222448D02*
D03*
X-87630Y222610D02*
D03*
X-77470D02*
D03*
X-27506D02*
D03*
X-143510Y236827D02*
D03*
Y205740D02*
D03*
X6700Y190500D02*
D03*
X82000Y191612D02*
D03*
X75503Y254000D02*
D03*
X199797Y44450D02*
D03*
X137701Y-64770D02*
D03*
X137080Y-85090D02*
D03*
X82170Y-82550D02*
D03*
X50800Y-127006D02*
D03*
X31750Y-107937D02*
D03*
X-19050Y-57150D02*
D03*
Y-18850D02*
D03*
X198040Y34770D02*
D03*
X25400Y-127889D02*
D03*
X-88596Y260350D02*
D03*
X69953Y133350D02*
D03*
X38100Y133294D02*
D03*
X161Y101644D02*
D03*
Y76047D02*
D03*
X50800Y50980D02*
D03*
X88900Y69858D02*
D03*
X-50800Y-125730D02*
D03*
X-82515Y-69850D02*
D03*
X-69850Y-57150D02*
D03*
X-146050D02*
D03*
X-196850Y-88774D02*
D03*
X-273050Y-57150D02*
D03*
Y-95250D02*
D03*
X-241300Y-152400D02*
D03*
X-241306Y-57150D02*
D03*
X-127000Y-203200D02*
D03*
Y-241300D02*
D03*
X-13176D02*
D03*
X32115D02*
D03*
X133206Y-247650D02*
D03*
X57150Y-203200D02*
D03*
X-50653Y-196850D02*
D03*
X-88706Y-177800D02*
D03*
X-139700Y-145796D02*
D03*
X152400Y-184678D02*
D03*
X114279Y-127006D02*
D03*
X-120650Y6350D02*
D03*
X-82500Y6630D02*
D03*
Y38100D02*
D03*
X-76200Y82600D02*
D03*
X-33020Y142240D02*
D03*
X-139694Y152400D02*
D03*
X-158750Y184264D02*
D03*
X-108770Y189720D02*
D03*
X118623Y105083D02*
D03*
X166370Y105461D02*
D03*
X280670Y79605D02*
D03*
X250433Y147219D02*
D03*
X165100Y222444D02*
D03*
X107773Y266700D02*
D03*
X184150Y1270D02*
D03*
X254204Y-140234D02*
D03*
X184150Y-228600D02*
D03*
X75799Y-285750D02*
D03*
X-69850D02*
D03*
X139990Y196850D02*
D03*
X101646Y221632D02*
D03*
X-69850Y-105410D02*
D03*
X-39370Y-93118D02*
D03*
X-120457Y-123190D02*
D03*
X-158470Y-95250D02*
D03*
X-217170Y-28670D02*
D03*
X-163447Y-6350D02*
D03*
X-195586Y123776D02*
D03*
X-208280Y44450D02*
D03*
X-243698Y69850D02*
D03*
X-71120Y-24130D02*
D03*
X-248718Y146465D02*
D03*
X139700Y-120650D02*
D03*
X107773Y166292D02*
D03*
X27150Y11049D02*
D03*
X20656Y39370D02*
D03*
X-166370Y95266D02*
D03*
X-136604Y127761D02*
D03*
X-60698Y107950D02*
D03*
X-52500Y222200D02*
D03*
X-102870Y221222D02*
D03*
X265430Y120666D02*
D03*
X251569Y100330D02*
D03*
X44450Y164885D02*
D03*
X-106221Y-196469D02*
D03*
X-53718Y-162334D02*
D03*
X16351Y-196010D02*
D03*
X194710Y38100D02*
D03*
X168156Y-82220D02*
D03*
X27500Y191060D02*
D03*
Y-6450D02*
D03*
X2540Y19611D02*
D03*
X-82550Y-215900D02*
D03*
X149860Y5080D02*
D03*
X215900Y148590D02*
D03*
X-161579Y127500D02*
D03*
X-3810Y-123858D02*
D03*
X127000Y234950D02*
D03*
M02*
