%FSLAX44Y44*%
%MOMM*%
G71*
G01*
G75*
G04 Layer_Color=128*
%ADD10R,0.8000X1.5000*%
%ADD11R,1.5000X1.0000*%
%ADD12R,1.0160X0.8890*%
%ADD13R,0.3000X1.3500*%
%ADD14R,0.2500X1.3500*%
%ADD15R,3.0000X2.1000*%
%ADD16R,2.1000X0.8000*%
%ADD17R,2.1844X2.4130*%
%ADD18R,0.3000X1.1000*%
%ADD19R,0.8128X1.0668*%
%ADD20R,0.8000X1.6000*%
%ADD21R,2.1000X3.0000*%
%ADD22R,0.8000X2.1000*%
%ADD23R,1.2954X1.1938*%
%ADD24R,0.8890X1.0160*%
%ADD25R,0.7000X0.6000*%
%ADD26R,1.3970X1.3970*%
%ADD27C,0.6000*%
%ADD28C,0.2540*%
%ADD29C,0.5000*%
%ADD30C,1.0000*%
%ADD31C,0.0254*%
%ADD32C,0.0254*%
G04:AMPARAMS|DCode=33|XSize=4mm|YSize=4mm|CornerRadius=2mm|HoleSize=0mm|Usage=FLASHONLY|Rotation=0.000|XOffset=0mm|YOffset=0mm|HoleType=Round|Shape=RoundedRectangle|*
%AMROUNDEDRECTD33*
21,1,4.0000,0.0000,0,0,0.0*
21,1,0.0000,4.0000,0,0,0.0*
1,1,4.0000,0.0000,0.0000*
1,1,4.0000,0.0000,0.0000*
1,1,4.0000,0.0000,0.0000*
1,1,4.0000,0.0000,0.0000*
%
%ADD33ROUNDEDRECTD33*%
%ADD34C,0.4500*%
%ADD35R,0.8128X0.8128*%
%ADD36R,1.2700X0.5080*%
%ADD37R,0.5000X0.8000*%
%ADD38R,1.3970X1.3970*%
%ADD39R,0.8000X1.5000*%
%ADD40R,1.4500X2.0000*%
%ADD41R,0.6096X2.0320*%
%ADD42O,0.6096X2.0320*%
%ADD43R,1.2000X1.8000*%
%ADD44R,1.0000X1.6000*%
%ADD45R,2.0000X2.0000*%
%ADD46R,2.5000X2.2000*%
%ADD47R,1.2954X1.6002*%
%ADD48R,1.6000X1.2000*%
%ADD49R,1.0668X0.8128*%
%ADD50R,3.5000X1.0000*%
%ADD51R,1.2000X1.6000*%
%ADD52R,2.1500X6.3000*%
%ADD53C,0.8000*%
%ADD54C,0.1200*%
%ADD55C,0.1000*%
%ADD56C,0.1501*%
%ADD57C,0.1500*%
%ADD58C,0.1250*%
%ADD59C,0.2032*%
%ADD60R,1.0032X1.7032*%
%ADD61R,1.7032X1.2032*%
%ADD62R,1.2192X1.0922*%
%ADD63R,0.5032X1.5532*%
%ADD64R,0.4532X1.5532*%
%ADD65R,3.2032X2.3032*%
%ADD66R,2.3032X1.0032*%
%ADD67R,2.3876X2.6162*%
%ADD68R,0.5032X1.3032*%
%ADD69R,1.0160X1.2700*%
%ADD70R,1.0032X1.8032*%
%ADD71R,2.3032X3.2032*%
%ADD72R,1.0032X2.3032*%
%ADD73R,1.4986X1.3970*%
%ADD74R,1.0922X1.2192*%
%ADD75R,0.9032X0.8032*%
%ADD76R,1.6002X1.6002*%
%ADD77C,0.2286*%
G04:AMPARAMS|DCode=78|XSize=4.2032mm|YSize=4.2032mm|CornerRadius=2.1016mm|HoleSize=0mm|Usage=FLASHONLY|Rotation=0.000|XOffset=0mm|YOffset=0mm|HoleType=Round|Shape=RoundedRectangle|*
%AMROUNDEDRECTD78*
21,1,4.2032,0.0000,0,0,0.0*
21,1,0.0000,4.2032,0,0,0.0*
1,1,4.2032,0.0000,0.0000*
1,1,4.2032,0.0000,0.0000*
1,1,4.2032,0.0000,0.0000*
1,1,4.2032,0.0000,0.0000*
%
%ADD78ROUNDEDRECTD78*%
%ADD79C,0.6532*%
%ADD80R,1.0160X1.0160*%
%ADD81R,1.4732X0.7112*%
%ADD82R,0.7032X1.0032*%
%ADD83R,1.6002X1.6002*%
%ADD84R,1.0032X1.7032*%
%ADD85R,1.6532X2.2032*%
%ADD86R,0.8128X2.2352*%
%ADD87O,0.8128X2.2352*%
%ADD88R,1.4032X2.0032*%
%ADD89R,1.2032X1.8032*%
%ADD90R,2.2032X2.2032*%
%ADD91R,2.7032X2.4032*%
%ADD92R,1.4986X1.8034*%
%ADD93R,1.8032X1.4032*%
%ADD94R,1.2700X1.0160*%
%ADD95R,3.7032X1.2032*%
%ADD96R,1.4032X1.8032*%
%ADD97R,2.3532X6.5032*%
D12*
X-183810Y588391D02*
D03*
Y572389D02*
D03*
X-8890Y676021D02*
D03*
Y660019D02*
D03*
X-66040Y625729D02*
D03*
Y641731D02*
D03*
X54610Y524971D02*
D03*
Y508969D02*
D03*
X26670Y677291D02*
D03*
Y661289D02*
D03*
X-77470Y324739D02*
D03*
Y340741D02*
D03*
X-51770Y434021D02*
D03*
Y418019D02*
D03*
X132080Y381889D02*
D03*
Y397891D02*
D03*
X149860Y381889D02*
D03*
Y397891D02*
D03*
X167640Y381889D02*
D03*
Y397891D02*
D03*
X142240Y433959D02*
D03*
Y449961D02*
D03*
X26670Y714121D02*
D03*
Y698119D02*
D03*
X46990Y714121D02*
D03*
Y698119D02*
D03*
X218440Y651129D02*
D03*
Y667131D02*
D03*
X236220Y681609D02*
D03*
Y697611D02*
D03*
X218780Y786511D02*
D03*
Y770509D02*
D03*
X-233680Y695579D02*
D03*
Y711581D02*
D03*
X-97790Y191389D02*
D03*
Y207391D02*
D03*
X64770Y714121D02*
D03*
Y698119D02*
D03*
X100330Y714121D02*
D03*
Y698119D02*
D03*
X82550Y714121D02*
D03*
Y698119D02*
D03*
X33020Y350139D02*
D03*
Y366141D02*
D03*
X50800Y350139D02*
D03*
Y366141D02*
D03*
X-127000Y588391D02*
D03*
Y572389D02*
D03*
X-146050D02*
D03*
Y588391D02*
D03*
X186690Y381889D02*
D03*
Y397891D02*
D03*
Y524891D02*
D03*
Y508889D02*
D03*
X114300Y381889D02*
D03*
Y397891D02*
D03*
X96520Y397730D02*
D03*
Y381728D02*
D03*
X142240Y486791D02*
D03*
Y470789D02*
D03*
X-84470Y641731D02*
D03*
Y625729D02*
D03*
X-170180Y693039D02*
D03*
Y709041D02*
D03*
X-146050Y536321D02*
D03*
Y520319D02*
D03*
D24*
X21971Y543640D02*
D03*
X5969D02*
D03*
X38989D02*
D03*
X54991D02*
D03*
X5969Y505540D02*
D03*
X21971D02*
D03*
X-110871Y785940D02*
D03*
X-94869D02*
D03*
X21971Y524590D02*
D03*
X5969D02*
D03*
X-15829Y451420D02*
D03*
X-31831D02*
D03*
X-16129Y433070D02*
D03*
X-32131D02*
D03*
X-15829Y470470D02*
D03*
X-31831D02*
D03*
D26*
X-77756Y363220D02*
D03*
X-56166D02*
D03*
D31*
X-71250Y78600D02*
X-71243D01*
X-97750Y68000D02*
X-97743D01*
X160473Y765320D02*
X160480D01*
X133973Y754720D02*
X133980D01*
X135473Y765320D02*
X135480D01*
X110473D02*
X110480D01*
X83973Y754720D02*
X83980D01*
X108973D02*
X108980D01*
X135473Y765320D02*
X135480D01*
D35*
X54990Y577850D02*
D03*
Y562610D02*
D03*
X-51770Y455230D02*
D03*
Y470470D02*
D03*
D36*
Y384200D02*
D03*
Y393700D02*
D03*
Y403200D02*
D03*
X-77770D02*
D03*
Y393700D02*
D03*
Y384200D02*
D03*
D37*
X-34193Y350490D02*
D03*
X-34637Y365520D02*
D03*
X-26290Y350520D02*
D03*
Y365520D02*
D03*
X-18290Y350520D02*
D03*
Y365520D02*
D03*
X-10290Y350520D02*
D03*
Y365520D02*
D03*
D38*
X10160Y368935D02*
D03*
Y347345D02*
D03*
X209550Y512445D02*
D03*
Y534035D02*
D03*
X232410Y465455D02*
D03*
Y443865D02*
D03*
D39*
X-22010Y238090D02*
D03*
X-11010D02*
D03*
X-10D02*
D03*
X10990D02*
D03*
X21990D02*
D03*
X32990D02*
D03*
X43990D02*
D03*
X54990D02*
D03*
D40*
X-58760Y295090D02*
D03*
Y212090D02*
D03*
X78740Y295090D02*
D03*
Y212090D02*
D03*
D41*
X212430Y426860D02*
D03*
X218780Y691020D02*
D03*
X-145709Y612280D02*
D03*
D42*
X199730Y426860D02*
D03*
X187031D02*
D03*
X174331D02*
D03*
Y482740D02*
D03*
X187031D02*
D03*
X199730D02*
D03*
X212430D02*
D03*
X206080Y691020D02*
D03*
X193381D02*
D03*
X180681D02*
D03*
Y746900D02*
D03*
X193381D02*
D03*
X206080D02*
D03*
X218780D02*
D03*
X-158410Y612280D02*
D03*
X-171110D02*
D03*
X-183810D02*
D03*
Y668160D02*
D03*
X-171110D02*
D03*
X-158410D02*
D03*
X-145709D02*
D03*
D43*
X-84470Y761340D02*
D03*
X-59070D02*
D03*
Y671340D02*
D03*
X-84470D02*
D03*
D44*
X-8890Y768060D02*
D03*
X-34290D02*
D03*
Y700060D02*
D03*
X-8890D02*
D03*
D45*
X64180Y781050D02*
D03*
X22180D02*
D03*
D46*
X-110490Y450700D02*
D03*
Y393700D02*
D03*
D47*
X-77470Y454660D02*
D03*
Y429260D02*
D03*
D48*
X137730Y208790D02*
D03*
Y240790D02*
D03*
X110490Y208790D02*
D03*
Y240790D02*
D03*
X106680Y518920D02*
D03*
Y486920D02*
D03*
D49*
X-153632Y782371D02*
D03*
X-130696Y772833D02*
D03*
Y791908D02*
D03*
D50*
X-186690Y790639D02*
D03*
Y754639D02*
D03*
D51*
X147830Y781050D02*
D03*
X179830D02*
D03*
D52*
X193470Y625729D02*
D03*
X151970D02*
D03*
M02*
