%FSLAX44Y44*%
%MOMM*%
G71*
G01*
G75*
G04 Layer_Physical_Order=2*
G04 Layer_Color=16711680*
%ADD10R,0.8000X1.5000*%
%ADD11R,1.5000X1.0000*%
%ADD12R,1.0160X0.8890*%
%ADD13R,0.3000X1.3500*%
%ADD14R,0.2500X1.3500*%
%ADD15R,3.0000X2.1000*%
%ADD16R,2.1000X0.8000*%
%ADD17R,2.1844X2.4130*%
%ADD18R,0.3000X1.1000*%
%ADD19R,0.8128X1.0668*%
%ADD20R,0.8000X1.6000*%
%ADD21R,2.1000X3.0000*%
%ADD22R,0.8000X2.1000*%
%ADD23R,1.2954X1.1938*%
%ADD24R,0.8890X1.0160*%
%ADD25R,0.7000X0.6000*%
%ADD26R,1.3970X1.3970*%
%ADD27C,0.6000*%
%ADD28C,0.2540*%
%ADD29C,0.5000*%
%ADD30C,1.0000*%
%ADD31C,0.0254*%
%ADD32C,0.0254*%
G04:AMPARAMS|DCode=33|XSize=4mm|YSize=4mm|CornerRadius=2mm|HoleSize=0mm|Usage=FLASHONLY|Rotation=0.000|XOffset=0mm|YOffset=0mm|HoleType=Round|Shape=RoundedRectangle|*
%AMROUNDEDRECTD33*
21,1,4.0000,0.0000,0,0,0.0*
21,1,0.0000,4.0000,0,0,0.0*
1,1,4.0000,0.0000,0.0000*
1,1,4.0000,0.0000,0.0000*
1,1,4.0000,0.0000,0.0000*
1,1,4.0000,0.0000,0.0000*
%
%ADD33ROUNDEDRECTD33*%
%ADD34C,0.4500*%
%ADD35R,0.8128X0.8128*%
%ADD36R,1.2700X0.5080*%
%ADD37R,0.5000X0.8000*%
%ADD38R,1.3970X1.3970*%
%ADD39R,0.8000X1.5000*%
%ADD40R,1.4500X2.0000*%
%ADD41R,0.6096X2.0320*%
%ADD42O,0.6096X2.0320*%
%ADD43R,1.2000X1.8000*%
%ADD44R,1.0000X1.6000*%
%ADD45R,2.0000X2.0000*%
%ADD46R,2.5000X2.2000*%
%ADD47R,1.2954X1.6002*%
%ADD48R,1.6000X1.2000*%
%ADD49R,1.0668X0.8128*%
%ADD50R,3.5000X1.0000*%
%ADD51R,1.2000X1.6000*%
%ADD52R,2.1500X6.3000*%
%ADD53C,0.8000*%
G36*
X299302Y771591D02*
Y698D01*
X-299302D01*
Y771591D01*
X-271591Y799302D01*
X271591D01*
X299302Y771591D01*
D02*
G37*
%LPC*%
G36*
X212430Y494999D02*
X210461Y494607D01*
X208791Y493491D01*
X207675Y491822D01*
X207284Y489852D01*
Y475628D01*
X207675Y473658D01*
X208791Y471989D01*
X210461Y470873D01*
X212430Y470481D01*
X214400Y470873D01*
X216070Y471989D01*
X217186Y473658D01*
X217577Y475628D01*
Y478152D01*
X223479D01*
X226018Y475613D01*
X225532Y474440D01*
X223425D01*
Y456470D01*
X241395D01*
Y474440D01*
X236998D01*
Y475710D01*
X236649Y477466D01*
X235654Y478954D01*
X228624Y485984D01*
X227136Y486979D01*
X225380Y487328D01*
X217577D01*
Y489852D01*
X217186Y491822D01*
X216070Y493491D01*
X214400Y494607D01*
X212430Y494999D01*
D02*
G37*
G36*
X-68993Y464661D02*
X-85947D01*
Y457994D01*
X-95990D01*
Y463700D01*
X-124990D01*
Y437700D01*
X-95990D01*
Y451326D01*
X-85947D01*
Y444659D01*
X-68993D01*
Y464661D01*
D02*
G37*
G36*
X149320Y477234D02*
X135160D01*
Y464344D01*
X138906D01*
Y456406D01*
X135160D01*
Y443516D01*
X149320D01*
Y456406D01*
X145574D01*
Y464344D01*
X149320D01*
Y477234D01*
D02*
G37*
G36*
X-45706Y461294D02*
X-57834D01*
Y449166D01*
X-55104D01*
Y440466D01*
X-58850D01*
Y427576D01*
X-44690D01*
Y429736D01*
X-38576D01*
Y425990D01*
X-25686D01*
Y440150D01*
X-28497D01*
Y444340D01*
X-25386D01*
Y458500D01*
X-38276D01*
Y444340D01*
X-35165D01*
Y440150D01*
X-38576D01*
Y436404D01*
X-44690D01*
Y440466D01*
X-48436D01*
Y449166D01*
X-45706D01*
Y461294D01*
D02*
G37*
G36*
X241395Y452850D02*
X223425D01*
Y434880D01*
X226072D01*
X226558Y433707D01*
X224300Y431448D01*
X217479D01*
Y439020D01*
X207383D01*
Y414700D01*
X217479D01*
Y422272D01*
X226200D01*
X227956Y422621D01*
X229444Y423616D01*
X235654Y429826D01*
X236649Y431314D01*
X236998Y433070D01*
X236998Y433070D01*
X236998Y433070D01*
Y433070D01*
Y434880D01*
X241395D01*
Y452850D01*
D02*
G37*
G36*
X199730Y494999D02*
X197761Y494607D01*
X196091Y493491D01*
X194975Y491822D01*
X194584Y489852D01*
Y475628D01*
X194975Y473658D01*
X196091Y471989D01*
X197761Y470873D01*
X199730Y470481D01*
X201700Y470873D01*
X203370Y471989D01*
X204486Y473658D01*
X204877Y475628D01*
Y489852D01*
X204486Y491822D01*
X203370Y493491D01*
X201700Y494607D01*
X199730Y494999D01*
D02*
G37*
G36*
X218535Y521430D02*
X200565D01*
Y512223D01*
X193770D01*
Y515334D01*
X179610D01*
Y502444D01*
X183356D01*
Y493439D01*
X182275Y491822D01*
X181884Y489852D01*
Y475628D01*
X182275Y473658D01*
X183391Y471989D01*
X185061Y470873D01*
X187031Y470481D01*
X189000Y470873D01*
X190670Y471989D01*
X191786Y473658D01*
X192177Y475628D01*
Y489852D01*
X191786Y491822D01*
X190670Y493491D01*
X190024Y493923D01*
Y502444D01*
X193770D01*
Y505555D01*
X200565D01*
Y503460D01*
X218535D01*
Y521430D01*
D02*
G37*
G36*
X63054Y585914D02*
X46926D01*
Y569786D01*
X48926D01*
Y568674D01*
X48926D01*
Y556546D01*
X52546D01*
Y550720D01*
X48546D01*
Y536560D01*
X52546D01*
Y531416D01*
X47530D01*
Y518526D01*
X61690D01*
Y531416D01*
X59214D01*
Y536560D01*
X61436D01*
Y550720D01*
X59214D01*
Y556546D01*
X61054D01*
Y568674D01*
X61054D01*
Y568888D01*
X61952Y569786D01*
X63054D01*
Y571482D01*
X63927Y571597D01*
X65508Y572252D01*
X66866Y573294D01*
X67908Y574652D01*
X68563Y576233D01*
X68786Y577930D01*
X68563Y579627D01*
X67908Y581208D01*
X66866Y582566D01*
X65508Y583608D01*
X63927Y584263D01*
X63054Y584378D01*
Y585914D01*
D02*
G37*
G36*
X135350Y730804D02*
X134074Y730550D01*
X132992Y729827D01*
X132270Y728746D01*
X132016Y727470D01*
Y700470D01*
X104323Y672776D01*
X103600Y671695D01*
X103346Y670419D01*
Y526920D01*
X96680D01*
Y510920D01*
X116680D01*
Y526920D01*
X110014D01*
Y669038D01*
X137708Y696731D01*
X138430Y697813D01*
X138684Y699089D01*
Y727470D01*
X138430Y728746D01*
X137708Y729827D01*
X136626Y730550D01*
X135350Y730804D01*
D02*
G37*
G36*
X-25386Y477550D02*
X-38276D01*
Y473804D01*
X-45706D01*
Y476534D01*
X-57834D01*
Y473804D01*
X-62730D01*
X-64006Y473550D01*
X-65087Y472827D01*
X-65810Y471746D01*
X-66064Y470470D01*
X-65810Y469194D01*
X-65087Y468112D01*
X-64006Y467390D01*
X-62730Y467136D01*
X-57834D01*
Y464406D01*
X-45706D01*
Y467136D01*
X-38276D01*
Y463390D01*
X-25386D01*
Y477550D01*
D02*
G37*
G36*
X174331Y494999D02*
X172361Y494607D01*
X170691Y493491D01*
X169575Y491822D01*
X169184Y489852D01*
Y486074D01*
X162671D01*
X159597Y489148D01*
X158515Y489871D01*
X157239Y490125D01*
X149320D01*
Y493236D01*
X135160D01*
Y490254D01*
X116680D01*
Y494920D01*
X96680D01*
Y478920D01*
X116680D01*
Y483586D01*
X135160D01*
Y480346D01*
X149320D01*
Y483457D01*
X155858D01*
X158933Y480382D01*
X160014Y479660D01*
X161290Y479406D01*
X169184D01*
Y475628D01*
X169575Y473658D01*
X170691Y471989D01*
X172361Y470873D01*
X174331Y470481D01*
X176300Y470873D01*
X177970Y471989D01*
X179086Y473658D01*
X179477Y475628D01*
Y489852D01*
X179086Y491822D01*
X177970Y493491D01*
X176300Y494607D01*
X174331Y494999D01*
D02*
G37*
G36*
X187031Y439119D02*
X185061Y438727D01*
X183391Y437611D01*
X182275Y435942D01*
X181884Y433972D01*
Y419748D01*
X182275Y417778D01*
X183391Y416109D01*
X183696Y415905D01*
Y404336D01*
X179610D01*
Y401225D01*
X174720D01*
Y404336D01*
X160560D01*
Y401225D01*
X156940D01*
Y404336D01*
X142780D01*
Y391446D01*
X156940D01*
Y394557D01*
X160560D01*
Y391446D01*
X174720D01*
Y394557D01*
X179610D01*
Y391446D01*
X193770D01*
Y404336D01*
X190364D01*
Y415905D01*
X190670Y416109D01*
X191786Y417778D01*
X192177Y419748D01*
Y433972D01*
X191786Y435942D01*
X190670Y437611D01*
X189000Y438727D01*
X187031Y439119D01*
D02*
G37*
G36*
X228600Y148151D02*
X227683Y147969D01*
X226906Y147450D01*
X226386Y146672D01*
X226204Y145755D01*
X226386Y144838D01*
X226906Y144061D01*
X227683Y143542D01*
X228600Y143359D01*
X229517Y143542D01*
X230294Y144061D01*
X230814Y144838D01*
X230996Y145755D01*
X230814Y146672D01*
X230294Y147450D01*
X229517Y147969D01*
X228600Y148151D01*
D02*
G37*
G36*
X-88710Y199834D02*
X-106870D01*
Y182944D01*
X-103925D01*
X-103872Y182880D01*
X-103387Y180441D01*
X-102006Y178374D01*
X-99939Y176993D01*
X-97500Y176508D01*
X-95061Y176993D01*
X-92994Y178374D01*
X-92179Y179593D01*
X-90964Y179224D01*
Y166548D01*
X-91946Y165742D01*
X-92710Y165894D01*
X-93986Y165640D01*
X-95068Y164918D01*
X-95790Y163836D01*
X-96044Y162560D01*
Y155225D01*
X-97026Y154419D01*
X-97250Y154464D01*
X-98526Y154210D01*
X-99607Y153488D01*
X-100330Y152406D01*
X-100584Y151130D01*
Y142547D01*
X-100330Y141271D01*
X-99607Y140189D01*
X-99607Y140189D01*
X-99607Y140189D01*
X-75834Y116416D01*
Y94630D01*
X-75580Y93354D01*
X-74858Y92273D01*
X-73776Y91550D01*
X-72500Y91296D01*
X-71224Y91550D01*
X-70142Y92273D01*
X-69420Y93354D01*
X-69363Y93642D01*
X-68776Y94520D01*
X-67500Y94266D01*
X-66224Y94520D01*
X-65142Y95243D01*
X-64420Y96324D01*
X-64166Y97600D01*
Y115929D01*
X-62993Y116416D01*
X-59994Y113417D01*
X-59858Y113212D01*
X-58776Y112490D01*
X-57500Y112236D01*
X-56767Y112382D01*
X-55785Y111576D01*
Y107551D01*
X-55531Y106275D01*
X-54809Y105194D01*
X-44858Y95243D01*
X-43776Y94520D01*
X-42500Y94266D01*
X-41224Y94520D01*
X-40142Y95243D01*
X-39420Y96324D01*
X-39166Y97600D01*
X-39420Y98876D01*
X-40142Y99958D01*
X-49117Y108932D01*
Y111559D01*
X-48135Y112364D01*
X-47491Y112236D01*
X-46215Y112490D01*
X-45133Y113212D01*
X-44410Y114294D01*
X-44156Y115570D01*
Y118469D01*
X-44410Y119745D01*
X-45133Y120827D01*
X-53109Y128803D01*
X-52984Y130067D01*
X-52794Y130194D01*
X-52667Y130384D01*
X-51403Y130508D01*
X-40834Y119939D01*
Y115570D01*
X-40580Y114294D01*
X-39857Y113212D01*
X-38776Y112490D01*
X-37500Y112236D01*
X-36816Y112372D01*
X-35834Y111566D01*
Y97600D01*
X-35580Y96324D01*
X-34857Y95243D01*
X-33776Y94520D01*
X-32500Y94266D01*
X-31224Y94520D01*
X-30143Y95243D01*
X-29420Y96324D01*
X-29166Y97600D01*
Y122740D01*
X-29420Y124016D01*
X-30143Y125098D01*
X-58567Y153523D01*
X-59649Y154246D01*
X-60925Y154499D01*
X-62201Y154246D01*
X-63046Y153681D01*
X-64166Y154279D01*
Y156210D01*
X-64420Y157486D01*
X-64834Y158106D01*
X-64235Y159226D01*
X-55871D01*
X-9858Y113212D01*
X-8776Y112490D01*
X-7500Y112236D01*
X-6224Y112490D01*
X-5142Y113212D01*
X-4420Y114294D01*
X-4166Y115570D01*
X-4420Y116846D01*
X-5142Y117928D01*
X-10869Y123654D01*
X-10745Y124918D01*
X-10143Y125321D01*
X-9420Y126403D01*
X-9166Y127678D01*
X-9420Y128954D01*
X-10143Y130036D01*
X-15653Y135546D01*
X-15528Y136810D01*
X-15143Y137067D01*
X-14420Y138149D01*
X-14166Y139425D01*
Y146770D01*
X-14420Y148046D01*
X-15143Y149128D01*
X-60142Y194128D01*
X-61224Y194850D01*
X-62500Y195104D01*
X-63776Y194850D01*
X-64858Y194128D01*
X-65580Y193046D01*
X-65580Y193046D01*
Y193046D01*
X-66224Y192560D01*
X-67500Y192814D01*
X-68776Y192560D01*
X-69420Y193046D01*
Y193046D01*
X-69420Y193046D01*
X-70142Y194128D01*
X-71224Y194850D01*
X-72500Y195104D01*
X-73776Y194850D01*
X-74858Y194128D01*
X-75580Y193046D01*
D01*
X-76194Y192280D01*
X-77470Y192534D01*
X-78746Y192280D01*
X-79420Y193046D01*
Y193046D01*
X-79420Y193046D01*
X-80142Y194128D01*
X-81224Y194850D01*
X-82500Y195104D01*
X-83776Y194850D01*
X-84858Y194128D01*
X-85580Y193046D01*
X-85677Y192561D01*
X-86354Y192280D01*
X-87630Y192534D01*
X-87728Y192514D01*
X-88710Y193320D01*
Y199834D01*
D02*
G37*
G36*
X265800Y31748D02*
X263459Y31282D01*
X261474Y29956D01*
X260148Y27971D01*
X259683Y25630D01*
X260148Y23289D01*
X261474Y21304D01*
X263459Y19978D01*
X265800Y19512D01*
X268141Y19978D01*
X270126Y21304D01*
X271452Y23289D01*
X271918Y25630D01*
X271452Y27971D01*
X270126Y29956D01*
X268141Y31282D01*
X265800Y31748D01*
D02*
G37*
G36*
X-6350Y21446D02*
X-7267Y21264D01*
X-8044Y20744D01*
X-8564Y19967D01*
X-8746Y19050D01*
X-8564Y18133D01*
X-8044Y17356D01*
X-7267Y16836D01*
X-6350Y16654D01*
X-5433Y16836D01*
X-4656Y17356D01*
X-4136Y18133D01*
X-3954Y19050D01*
X-4136Y19967D01*
X-4656Y20744D01*
X-5433Y21264D01*
X-6350Y21446D01*
D02*
G37*
G36*
X243600Y31748D02*
X241259Y31282D01*
X239274Y29956D01*
X237948Y27971D01*
X237483Y25630D01*
X237948Y23289D01*
X239274Y21304D01*
X241259Y19978D01*
X243600Y19512D01*
X245941Y19978D01*
X247926Y21304D01*
X249252Y23289D01*
X249718Y25630D01*
X249252Y27971D01*
X247926Y29956D01*
X245941Y31282D01*
X243600Y31748D01*
D02*
G37*
G36*
X110490Y261128D02*
X108734Y260779D01*
X107246Y259784D01*
X106251Y258296D01*
X105902Y256540D01*
Y248790D01*
X100490D01*
Y232790D01*
X120490D01*
Y236202D01*
X127730D01*
Y232790D01*
X147730D01*
Y248790D01*
X127730D01*
Y245378D01*
X120490D01*
Y248790D01*
X115078D01*
Y256540D01*
X114729Y258296D01*
X113734Y259784D01*
X112246Y260779D01*
X110490Y261128D01*
D02*
G37*
G36*
X38100Y402446D02*
X37183Y402264D01*
X36406Y401744D01*
X35886Y400967D01*
X35704Y400050D01*
X35886Y399133D01*
X36406Y398356D01*
X37183Y397836D01*
X38100Y397654D01*
X39017Y397836D01*
X39794Y398356D01*
X40314Y399133D01*
X40496Y400050D01*
X40314Y400967D01*
X39794Y401744D01*
X39017Y402264D01*
X38100Y402446D01*
D02*
G37*
G36*
X-44690Y424464D02*
X-58850D01*
Y411574D01*
X-55104D01*
Y407740D01*
X-60120D01*
Y398660D01*
X-43420D01*
Y407740D01*
X-48436D01*
Y411574D01*
X-44690D01*
Y424464D01*
D02*
G37*
G36*
X-68993Y439261D02*
X-85947D01*
Y419259D01*
X-81104D01*
Y407740D01*
X-86120D01*
Y399138D01*
X-86120Y399138D01*
X-86120D01*
X-86120Y398660D01*
Y398450D01*
Y398240D01*
Y397932D01*
X-87018Y397034D01*
X-95990D01*
Y406700D01*
X-124990D01*
Y380700D01*
X-95990D01*
Y390366D01*
X-87018D01*
X-86120Y389468D01*
Y389160D01*
Y388950D01*
Y388740D01*
X-86120Y388262D01*
X-86120Y388262D01*
X-86120D01*
Y379660D01*
X-81090D01*
Y372205D01*
X-86741D01*
Y354235D01*
X-80804D01*
Y347186D01*
X-84550D01*
Y334296D01*
X-70390D01*
Y347186D01*
X-74136D01*
Y354235D01*
X-68771D01*
Y372205D01*
X-74422D01*
Y379660D01*
X-69420D01*
Y380852D01*
X-60120D01*
Y379660D01*
X-43420D01*
Y388740D01*
X-60120D01*
Y387520D01*
X-68522D01*
X-69420Y388418D01*
X-69420Y388740D01*
Y388789D01*
Y388950D01*
X-69420Y389160D01*
X-69420Y389638D01*
X-69420Y389638D01*
X-69420D01*
Y397762D01*
X-69420Y397762D01*
D01*
D01*
X-69420Y398240D01*
Y398289D01*
Y398450D01*
X-69420Y398660D01*
X-69420Y399138D01*
X-69420Y399138D01*
X-69420D01*
Y407740D01*
X-74436D01*
Y419259D01*
X-68993D01*
Y439261D01*
D02*
G37*
G36*
X-114300Y275446D02*
X-115217Y275264D01*
X-115994Y274744D01*
X-116514Y273967D01*
X-116696Y273050D01*
X-116514Y272133D01*
X-115994Y271356D01*
X-115217Y270836D01*
X-114300Y270654D01*
X-113383Y270836D01*
X-112606Y271356D01*
X-112086Y272133D01*
X-111904Y273050D01*
X-112086Y273967D01*
X-112606Y274744D01*
X-113383Y275264D01*
X-114300Y275446D01*
D02*
G37*
G36*
X156940Y388334D02*
X142780D01*
Y385223D01*
X139160D01*
Y388334D01*
X125000D01*
Y375444D01*
X139160D01*
Y378555D01*
X142780D01*
Y375444D01*
X156940D01*
Y388334D01*
D02*
G37*
G36*
X220535Y545020D02*
X198565D01*
Y523050D01*
X220535D01*
Y527588D01*
X221407Y527702D01*
X222988Y528357D01*
X224346Y529399D01*
X225388Y530757D01*
X226043Y532338D01*
X226266Y534035D01*
X226043Y535732D01*
X225388Y537313D01*
X224346Y538671D01*
X222988Y539713D01*
X221407Y540368D01*
X220535Y540482D01*
Y545020D01*
D02*
G37*
G36*
X193381Y759159D02*
X191411Y758767D01*
X189741Y757651D01*
X188625Y755982D01*
X188234Y754012D01*
Y739788D01*
X188625Y737818D01*
X189741Y736149D01*
X190046Y735945D01*
Y735290D01*
Y734060D01*
X190300Y732784D01*
X191023Y731702D01*
X192105Y730980D01*
X193381Y730726D01*
X194656Y730980D01*
X194902Y731144D01*
X195586Y731280D01*
X196667Y732002D01*
X197390Y733084D01*
X197644Y734360D01*
X197390Y735636D01*
X197034Y736169D01*
X198136Y737818D01*
X198527Y739788D01*
Y754012D01*
X198136Y755982D01*
X197020Y757651D01*
X195350Y758767D01*
X193381Y759159D01*
D02*
G37*
G36*
X-1890Y778060D02*
X-15890D01*
Y758060D01*
X-12224D01*
Y753221D01*
X-27751Y737694D01*
X-32050D01*
X-33326Y737440D01*
X-34407Y736718D01*
X-35130Y735636D01*
X-35384Y734360D01*
X-35130Y733084D01*
X-34407Y732002D01*
X-33326Y731280D01*
X-32050Y731026D01*
X-26370D01*
X-25094Y731280D01*
X-24012Y732002D01*
X-6532Y749482D01*
X-5810Y750564D01*
X-5556Y751840D01*
Y758060D01*
X-1890D01*
Y778060D01*
D02*
G37*
G36*
X-104426Y793020D02*
X-117316D01*
Y778860D01*
X-114205D01*
Y740991D01*
X-113951Y739715D01*
X-113229Y738633D01*
X-107668Y733073D01*
X-106586Y732350D01*
X-105310Y732096D01*
X-104034Y732350D01*
X-102952Y733073D01*
X-102230Y734154D01*
X-101976Y735430D01*
X-102230Y736706D01*
X-102952Y737787D01*
X-107537Y742372D01*
Y778860D01*
X-104426D01*
Y793020D01*
D02*
G37*
G36*
X64770Y725964D02*
X63494Y725710D01*
X62413Y724987D01*
X61690Y723906D01*
X61436Y722630D01*
Y720566D01*
X57690D01*
Y717660D01*
X56570Y717061D01*
X56076Y717391D01*
X54800Y717645D01*
X54070Y718244D01*
Y720566D01*
X39910D01*
Y707676D01*
X54070D01*
Y710787D01*
X54610D01*
X55886Y711041D01*
X56570Y711498D01*
X57690Y710899D01*
Y707676D01*
X71850D01*
Y720566D01*
X68104D01*
Y722630D01*
X67850Y723906D01*
X67127Y724987D01*
X66046Y725710D01*
X64770Y725964D01*
D02*
G37*
G36*
X206080Y759159D02*
X204111Y758767D01*
X202441Y757651D01*
X201325Y755982D01*
X200934Y754012D01*
Y739788D01*
X201325Y737818D01*
X202441Y736149D01*
X202746Y735945D01*
Y733719D01*
X203000Y732444D01*
X203723Y731362D01*
X204805Y730639D01*
X206080Y730386D01*
X207356Y730639D01*
X208438Y731362D01*
X209161Y732444D01*
X209415Y733719D01*
Y735945D01*
X209720Y736149D01*
X210836Y737818D01*
X211227Y739788D01*
Y754012D01*
X210836Y755982D01*
X209720Y757651D01*
X208050Y758767D01*
X206080Y759159D01*
D02*
G37*
G36*
X180681D02*
X178711Y758767D01*
X177041Y757651D01*
X175925Y755982D01*
X175534Y754012D01*
Y739788D01*
X175734Y738779D01*
X173372Y736417D01*
X172650Y735336D01*
X172396Y734060D01*
X172650Y732784D01*
X173372Y731702D01*
X174454Y730980D01*
X175730Y730726D01*
X177006Y730980D01*
X178088Y731702D01*
X180839Y734454D01*
X182436Y734772D01*
X183925Y735766D01*
X184068Y735980D01*
X184320Y736149D01*
X185436Y737818D01*
X185827Y739788D01*
Y754012D01*
X185436Y755982D01*
X184320Y757651D01*
X182650Y758767D01*
X180681Y759159D01*
D02*
G37*
G36*
X36180Y795050D02*
X8180D01*
Y767050D01*
X26908D01*
X27704Y766254D01*
X29062Y765212D01*
X29988Y764829D01*
X30643Y764557D01*
X32340Y764334D01*
X37730D01*
X39427Y764557D01*
X41008Y765212D01*
X42366Y766254D01*
X43408Y767612D01*
X44063Y769193D01*
X44286Y770890D01*
X44063Y772587D01*
X44056Y772603D01*
Y778510D01*
X43833Y780207D01*
X43178Y781788D01*
X42136Y783146D01*
X40778Y784188D01*
X39197Y784843D01*
X37500Y785066D01*
X36180D01*
Y795050D01*
D02*
G37*
G36*
X-88424Y793020D02*
X-101314D01*
Y778860D01*
X-101124D01*
Y774700D01*
X-100870Y773424D01*
X-100147Y772343D01*
X-99066Y771620D01*
X-97790Y771366D01*
X-96514Y771620D01*
X-95433Y772343D01*
X-94710Y773424D01*
X-94456Y774700D01*
Y778860D01*
X-88424D01*
Y793020D01*
D02*
G37*
G36*
X-146298Y788435D02*
X-160966D01*
Y776307D01*
X-146298D01*
Y788435D01*
D02*
G37*
G36*
X225861Y776954D02*
X211700D01*
Y764064D01*
X215446D01*
Y757856D01*
X215141Y757651D01*
X214025Y755982D01*
X213634Y754012D01*
Y739788D01*
X214025Y737818D01*
X215141Y736149D01*
X216811Y735033D01*
X218780Y734641D01*
X220750Y735033D01*
X222420Y736149D01*
X223536Y737818D01*
X223927Y739788D01*
Y754012D01*
X223536Y755982D01*
X222420Y757651D01*
X222115Y757856D01*
Y764064D01*
X225861D01*
Y776954D01*
D02*
G37*
G36*
X-27290Y778060D02*
X-41290D01*
Y758060D01*
X-37624D01*
Y754491D01*
X-38177Y753938D01*
X-38900Y752856D01*
X-39154Y751580D01*
X-38900Y750304D01*
X-38177Y749222D01*
X-37096Y748500D01*
X-35820Y748246D01*
X-34544Y748500D01*
X-33463Y749222D01*
X-31932Y750752D01*
X-31210Y751834D01*
X-30956Y753110D01*
X-30956Y753110D01*
X-30956Y753110D01*
Y753110D01*
Y758060D01*
X-27290D01*
Y778060D01*
D02*
G37*
G36*
X-123362Y778897D02*
X-138030D01*
Y766769D01*
X-134030D01*
Y757973D01*
X-167190D01*
Y761638D01*
X-206190D01*
Y757973D01*
X-224272D01*
X-225547Y757719D01*
X-226629Y756996D01*
X-236038Y747588D01*
X-236760Y746506D01*
X-237014Y745230D01*
Y718026D01*
X-240760D01*
Y705136D01*
X-226600D01*
Y718026D01*
X-230346D01*
Y743849D01*
X-222890Y751304D01*
X-206190D01*
Y747638D01*
X-167190D01*
Y751304D01*
X-130696D01*
X-129420Y751558D01*
X-128338Y752281D01*
X-127615Y753363D01*
X-127362Y754639D01*
Y766769D01*
X-123362D01*
Y778897D01*
D02*
G37*
G36*
X33750Y667734D02*
X19590D01*
Y664623D01*
X16129D01*
X14853Y664369D01*
X13772Y663646D01*
X13049Y662565D01*
X12795Y661289D01*
X13049Y660013D01*
X13772Y658932D01*
X14853Y658209D01*
X16129Y657955D01*
X19590D01*
Y654844D01*
X33750D01*
Y667734D01*
D02*
G37*
G36*
X-226600Y702024D02*
X-240760D01*
Y689134D01*
X-237014D01*
Y669290D01*
X-236760Y668014D01*
X-236038Y666933D01*
X-234956Y666210D01*
X-233680Y665956D01*
X-232404Y666210D01*
X-231322Y666933D01*
X-230600Y668014D01*
X-230346Y669290D01*
Y689134D01*
X-226600D01*
Y702024D01*
D02*
G37*
G36*
X78180Y795050D02*
X50180D01*
Y767050D01*
X78180D01*
Y772981D01*
X137830D01*
Y769050D01*
X139761D01*
Y731010D01*
X139761Y731010D01*
X139761D01*
X140036Y728922D01*
X140842Y726975D01*
X142124Y725304D01*
X159394Y708034D01*
X161066Y706752D01*
X163012Y705946D01*
X165100Y705671D01*
X198011D01*
Y702456D01*
X196891Y701857D01*
X195350Y702887D01*
X193381Y703279D01*
X191411Y702887D01*
X189741Y701771D01*
X188625Y700102D01*
X188234Y698132D01*
Y694117D01*
X187729Y693361D01*
X187263Y691020D01*
Y661571D01*
X158586Y661475D01*
X157686Y662371D01*
Y662940D01*
X157463Y664637D01*
X156808Y666218D01*
X155766Y667576D01*
X154408Y668618D01*
X152827Y669273D01*
X151130Y669496D01*
X149433Y669273D01*
X147852Y668618D01*
X146494Y667576D01*
X145452Y666218D01*
X144797Y664637D01*
X144574Y662940D01*
Y661428D01*
X137653Y661404D01*
X137653Y661404D01*
Y661404D01*
X137478Y661229D01*
X137220D01*
Y637660D01*
X135380Y637418D01*
X133191Y636511D01*
X131311Y635069D01*
X129868Y633189D01*
X128962Y630999D01*
X128652Y628650D01*
X128962Y626301D01*
X129868Y624111D01*
X131311Y622231D01*
X133191Y620788D01*
X135380Y619882D01*
X137220Y619640D01*
Y613880D01*
X135380Y613637D01*
X133191Y612730D01*
X131311Y611288D01*
X129868Y609408D01*
X128962Y607219D01*
X128652Y604869D01*
X128962Y602519D01*
X129868Y600330D01*
X131311Y598450D01*
X133191Y597007D01*
X135380Y596101D01*
X137220Y595858D01*
Y590229D01*
X166720D01*
Y591026D01*
X208309D01*
X208205Y646896D01*
X209102Y647795D01*
X211360D01*
Y644684D01*
X225520D01*
Y657574D01*
X211360D01*
Y654463D01*
X208191D01*
X208178Y661641D01*
X200398Y661615D01*
X199498Y662512D01*
Y678933D01*
X200701Y679342D01*
X201054Y678881D01*
X202526Y677752D01*
X204241Y677041D01*
X206080Y676799D01*
X207920Y677041D01*
X209635Y677752D01*
X211107Y678881D01*
X212237Y680354D01*
X212487Y680957D01*
X213732Y680709D01*
Y678860D01*
X215446D01*
Y673576D01*
X211360D01*
Y660686D01*
X225520D01*
Y673576D01*
X222115D01*
Y678860D01*
X223829D01*
Y703180D01*
X214149D01*
Y705671D01*
X226528D01*
X227140Y705059D01*
Y689166D01*
X245300D01*
Y706056D01*
X244289D01*
Y707390D01*
X244014Y709478D01*
X243208Y711424D01*
X241926Y713096D01*
X235576Y719446D01*
X233904Y720728D01*
X231958Y721534D01*
X229870Y721809D01*
X168442D01*
X155899Y734352D01*
Y769050D01*
X157830D01*
Y793050D01*
X137830D01*
Y789119D01*
X78180D01*
Y795050D01*
D02*
G37*
G36*
X-1890Y710060D02*
X-15890D01*
Y690060D01*
X-12224D01*
Y682466D01*
X-15970D01*
Y669576D01*
X-15970D01*
Y669362D01*
X-16868Y668464D01*
X-17970D01*
Y651574D01*
X-15950D01*
Y645486D01*
X-29090D01*
X-30787Y645263D01*
X-31442Y644991D01*
X-32368Y644608D01*
X-33726Y643566D01*
X-45007Y632285D01*
X-56960D01*
Y634174D01*
X-58960D01*
Y635286D01*
X-58960D01*
Y648176D01*
X-67214D01*
Y650240D01*
X-67468Y651516D01*
X-68191Y652598D01*
X-69273Y653320D01*
X-70549Y653574D01*
X-71824Y653320D01*
X-72906Y652598D01*
X-73629Y651516D01*
X-73883Y650240D01*
Y646239D01*
X-73629Y644964D01*
X-73120Y644202D01*
Y635286D01*
X-73120D01*
Y635072D01*
X-74018Y634174D01*
X-75120D01*
D01*
D01*
X-75120Y634174D01*
X-75390D01*
Y634174D01*
X-77390D01*
Y635286D01*
X-77390D01*
Y648176D01*
X-80486D01*
Y650240D01*
Y660340D01*
X-76470D01*
Y682340D01*
X-92470D01*
Y660340D01*
X-87154D01*
Y650240D01*
Y648176D01*
X-91550D01*
Y635286D01*
X-91550D01*
Y635072D01*
X-92448Y634174D01*
X-93550D01*
Y617284D01*
X-75390D01*
Y617284D01*
X-75390D01*
X-75390Y617284D01*
X-75120D01*
Y617284D01*
X-56960D01*
Y619173D01*
X-42291D01*
X-40594Y619396D01*
X-39939Y619668D01*
X-39013Y620051D01*
X-37655Y621093D01*
X-26374Y632374D01*
X-12319D01*
X2140Y617915D01*
X-41024Y574750D01*
X-59690D01*
X-61517Y574510D01*
X-63220Y573805D01*
X-64682Y572682D01*
X-65805Y571220D01*
X-66510Y569517D01*
X-66750Y567690D01*
X-66510Y565863D01*
X-65805Y564160D01*
X-64682Y562698D01*
X-63220Y561576D01*
X-61517Y560870D01*
X-59690Y560630D01*
X-38100D01*
X-36273Y560870D01*
X-34570Y561576D01*
X-33108Y562698D01*
X16422Y612228D01*
X56265Y652070D01*
X62230D01*
X64057Y652310D01*
X65760Y653016D01*
X67222Y654138D01*
X68344Y655600D01*
X69050Y657303D01*
X69290Y659130D01*
Y666190D01*
X69050Y668018D01*
X68344Y669721D01*
X67222Y671183D01*
X65760Y672305D01*
X64057Y673010D01*
X62230Y673251D01*
X60403Y673010D01*
X58700Y672305D01*
X57238Y671183D01*
X52079Y666024D01*
X51513Y665950D01*
X49810Y665245D01*
X48348Y664122D01*
X12125Y627900D01*
X-1830Y641854D01*
Y651574D01*
X190D01*
Y668464D01*
X-1810D01*
Y669576D01*
X-1810D01*
Y682466D01*
X-5556D01*
Y690060D01*
X-1890D01*
Y710060D01*
D02*
G37*
G36*
X125230Y745014D02*
X123954Y744760D01*
X122872Y744037D01*
X122150Y742956D01*
X121896Y741680D01*
Y703191D01*
X60761Y642057D01*
X60039Y640975D01*
X59785Y639699D01*
Y610600D01*
X36632Y587447D01*
X35909Y586365D01*
X35655Y585089D01*
Y550720D01*
X32544D01*
Y546974D01*
X28416D01*
Y550720D01*
X15526D01*
Y536560D01*
X18637D01*
Y531670D01*
X15526D01*
Y517510D01*
X18637D01*
Y512620D01*
X15526D01*
Y498460D01*
D01*
Y498460D01*
X14750Y497684D01*
X-83500D01*
X-84776Y497430D01*
X-85857Y496707D01*
X-86580Y495626D01*
X-86834Y494350D01*
X-86618Y493266D01*
X-87424Y492284D01*
X-97039D01*
X-101143Y496387D01*
X-102224Y497110D01*
X-103500Y497364D01*
X-104524Y497160D01*
X-105123Y498280D01*
X-77523Y525881D01*
X-76800Y526963D01*
X-76546Y528238D01*
Y583647D01*
X-68191Y592002D01*
X-67468Y593084D01*
X-67214Y594360D01*
X-67468Y595636D01*
X-68191Y596718D01*
X-68681Y597045D01*
X-68806Y598309D01*
X-65580Y601535D01*
X-46069D01*
X-44793Y601789D01*
X-43712Y602511D01*
X-42989Y603593D01*
X-42735Y604869D01*
X-42989Y606145D01*
X-43712Y607226D01*
X-44793Y607949D01*
X-46069Y608203D01*
X-66961D01*
X-68237Y607949D01*
X-69318Y607226D01*
X-79839Y596706D01*
X-81103Y596830D01*
X-81462Y597368D01*
X-82544Y598090D01*
X-83820Y598344D01*
X-85096Y598090D01*
X-86178Y597368D01*
X-86900Y596286D01*
X-86955Y596011D01*
X-88993Y593973D01*
X-90166Y594459D01*
Y606580D01*
X-90420Y607856D01*
X-91142Y608937D01*
X-96702Y614497D01*
X-97784Y615220D01*
X-99060Y615474D01*
X-100336Y615220D01*
X-101418Y614497D01*
X-102140Y613416D01*
X-102394Y612140D01*
X-102140Y610864D01*
X-101418Y609782D01*
X-101138Y609503D01*
X-101263Y608239D01*
X-101453Y608112D01*
X-102176Y607031D01*
X-102429Y605755D01*
X-102176Y604479D01*
X-101754Y603848D01*
Y547692D01*
X-101834Y547290D01*
X-103461Y546966D01*
X-103500Y546974D01*
X-104776Y546720D01*
X-105857Y545998D01*
X-106580Y544916D01*
X-106834Y543640D01*
Y525261D01*
X-114009Y518086D01*
X-115225Y518455D01*
X-115420Y519436D01*
X-116143Y520518D01*
X-117224Y521240D01*
X-118500Y521494D01*
X-119475Y521300D01*
X-120373Y522198D01*
X-120166Y523240D01*
X-120420Y524516D01*
X-121143Y525597D01*
X-122224Y526320D01*
X-123500Y526574D01*
X-124776Y526320D01*
X-125857Y525597D01*
X-136978Y514478D01*
X-137700Y513396D01*
X-137954Y512120D01*
Y494619D01*
X-143879Y488694D01*
X-144858Y488889D01*
X-145173Y488984D01*
X-145420Y490226D01*
X-146143Y491307D01*
X-147224Y492030D01*
X-148500Y492284D01*
X-149512D01*
X-150318Y493266D01*
X-150166Y494030D01*
X-150420Y495306D01*
X-151143Y496387D01*
X-152224Y497110D01*
X-153500Y497364D01*
X-156591D01*
X-157077Y498537D01*
X-156143Y499472D01*
X-155420Y500554D01*
X-155166Y501829D01*
Y518160D01*
X-155420Y519436D01*
X-156143Y520518D01*
X-157224Y521240D01*
X-158500Y521494D01*
X-159184Y521358D01*
X-160166Y522164D01*
Y523240D01*
X-160420Y524516D01*
X-161143Y525597D01*
X-162224Y526320D01*
X-163500Y526574D01*
X-163790Y526516D01*
X-164389Y527636D01*
X-156303Y535722D01*
X-155130Y535236D01*
Y527876D01*
X-136970D01*
Y544766D01*
X-140170D01*
Y548550D01*
X-140410Y550377D01*
X-141116Y552080D01*
X-142238Y553543D01*
X-143700Y554664D01*
X-145403Y555370D01*
X-147230Y555610D01*
X-147659Y555554D01*
X-148221Y556693D01*
X-143693Y561222D01*
X-142970Y562303D01*
X-142716Y563579D01*
Y565944D01*
X-138970D01*
Y578834D01*
X-153130D01*
Y565944D01*
X-150059D01*
X-149573Y564771D01*
X-156043Y558301D01*
X-157216Y558787D01*
Y600258D01*
X-156440Y600413D01*
X-154770Y601529D01*
X-153654Y603198D01*
X-153263Y605168D01*
Y619392D01*
X-153654Y621362D01*
X-154770Y623031D01*
X-156440Y624147D01*
X-158410Y624539D01*
X-160379Y624147D01*
X-162049Y623031D01*
X-163165Y621362D01*
X-163556Y619392D01*
Y615614D01*
X-165963D01*
Y619392D01*
X-166354Y621362D01*
X-167470Y623031D01*
X-169140Y624147D01*
X-171110Y624539D01*
X-173079Y624147D01*
X-174749Y623031D01*
X-175865Y621362D01*
X-176256Y619392D01*
Y605168D01*
X-175865Y603198D01*
X-174749Y601529D01*
X-173079Y600413D01*
X-171110Y600021D01*
X-169140Y600413D01*
X-167470Y601529D01*
X-166354Y603198D01*
X-165963Y605168D01*
Y608946D01*
X-163885D01*
Y586819D01*
X-165058Y586333D01*
X-169473Y590748D01*
X-170555Y591471D01*
X-171831Y591725D01*
X-176730D01*
Y594836D01*
X-180476D01*
Y601325D01*
X-180170Y601529D01*
X-179054Y603198D01*
X-178663Y605168D01*
Y619392D01*
X-179054Y621362D01*
X-180170Y623031D01*
X-181840Y624147D01*
X-183810Y624539D01*
X-185779Y624147D01*
X-187449Y623031D01*
X-188565Y621362D01*
X-188956Y619392D01*
Y605168D01*
X-188565Y603198D01*
X-187449Y601529D01*
X-187144Y601325D01*
Y594836D01*
X-190889D01*
Y581946D01*
X-190889D01*
Y581732D01*
X-191788Y580834D01*
X-192889D01*
Y563944D01*
X-190366D01*
Y551679D01*
X-190142Y549982D01*
X-189815Y549192D01*
X-189487Y548401D01*
X-188445Y547043D01*
X-188022Y546619D01*
X-225616Y509025D01*
X-226658Y507668D01*
X-227041Y506741D01*
X-227313Y506086D01*
X-227536Y504389D01*
Y202819D01*
X-227313Y201122D01*
X-226658Y199541D01*
X-225616Y198183D01*
X-224258Y197141D01*
X-222677Y196486D01*
X-220980Y196263D01*
X-219283Y196486D01*
X-217702Y197141D01*
X-216344Y198183D01*
X-215302Y199541D01*
X-214647Y201122D01*
X-214424Y202819D01*
Y349472D01*
X-214281Y350193D01*
X-214424Y350914D01*
Y501674D01*
X-174114Y541983D01*
X-174114Y541984D01*
X-173072Y543341D01*
X-172417Y544923D01*
X-172194Y546619D01*
X-172417Y548316D01*
X-173072Y549897D01*
X-174114Y551255D01*
X-177253Y554395D01*
Y563944D01*
X-174729D01*
Y580834D01*
X-176730D01*
Y581946D01*
X-176730D01*
Y585057D01*
X-173212D01*
X-168424Y580270D01*
Y548649D01*
X-168171Y547374D01*
X-167448Y546292D01*
X-166366Y545569D01*
X-165091Y545316D01*
X-164866Y545360D01*
X-164536Y545089D01*
X-164474Y543821D01*
X-180397Y527897D01*
X-181120Y526816D01*
X-181374Y525540D01*
Y503271D01*
X-211208Y473438D01*
X-211930Y472356D01*
X-212184Y471081D01*
Y209550D01*
X-211930Y208274D01*
X-211208Y207192D01*
X-210126Y206470D01*
X-208850Y206216D01*
X-208626Y206261D01*
X-207644Y205455D01*
Y122490D01*
X-207390Y121214D01*
X-206667Y120132D01*
X-206667Y120132D01*
X-206667Y120132D01*
X-144486Y57950D01*
X-143404Y57228D01*
X-142128Y56974D01*
X-140852Y57228D01*
X-139770Y57950D01*
X-139382Y58531D01*
X-138118Y58656D01*
X-137683Y58220D01*
X-136601Y57497D01*
X-135325Y57243D01*
X-134049Y57497D01*
X-132968Y58220D01*
X-132687Y58639D01*
X-131424Y58764D01*
X-131262Y58602D01*
X-130181Y57880D01*
X-128905Y57626D01*
X-127629Y57880D01*
X-126547Y58602D01*
X-126420Y58793D01*
X-125156Y58917D01*
X-119572Y53333D01*
X-118490Y52610D01*
X-117214Y52356D01*
X25210D01*
X26486Y52610D01*
X27568Y53333D01*
X27568Y53333D01*
X27568Y53333D01*
X59858Y85623D01*
X60580Y86704D01*
X60834Y87980D01*
X60580Y89256D01*
X60385Y89547D01*
X60984Y90667D01*
X62491D01*
X63767Y90921D01*
X64848Y91644D01*
X65571Y92726D01*
X65825Y94002D01*
X65571Y95277D01*
X64848Y96359D01*
X63767Y97082D01*
X62491Y97336D01*
X57101D01*
X55825Y97082D01*
X54743Y96359D01*
X21948Y63564D01*
X-113953D01*
X-182816Y132427D01*
Y459589D01*
X-168007Y474397D01*
X-166834Y473911D01*
Y472160D01*
X-178538Y460456D01*
X-179260Y459374D01*
X-179514Y458098D01*
Y133917D01*
X-179260Y132641D01*
X-178538Y131560D01*
X-178538Y131560D01*
X-178538Y131560D01*
X-113930Y66952D01*
X-113282Y66519D01*
X-112848Y66230D01*
X-111573Y65976D01*
X17501D01*
X18777Y66230D01*
X19858Y66953D01*
X63872Y110966D01*
X157480D01*
X158756Y111220D01*
X159838Y111943D01*
X159838Y111942D01*
X159838Y111943D01*
X203018Y155122D01*
X203018Y155122D01*
X203018Y155122D01*
X203740Y156204D01*
X203994Y157480D01*
Y200660D01*
X203740Y201936D01*
X203018Y203018D01*
X201936Y203740D01*
X200660Y203994D01*
X200436Y203950D01*
X199454Y204755D01*
Y228060D01*
X199200Y229336D01*
X198477Y230417D01*
X189048Y239848D01*
X187966Y240570D01*
X186690Y240824D01*
X185414Y240570D01*
X184333Y239848D01*
X183610Y238766D01*
X183356Y237490D01*
X183610Y236214D01*
X184333Y235133D01*
X192786Y226679D01*
Y224289D01*
X191613Y223804D01*
X189048Y226369D01*
X187966Y227091D01*
X186690Y227345D01*
X185414Y227091D01*
X184333Y226369D01*
X183610Y225287D01*
X183356Y224011D01*
X183610Y222735D01*
X184333Y221653D01*
X188246Y217740D01*
Y162622D01*
X152338Y126714D01*
X146875D01*
X146069Y127696D01*
X146114Y127920D01*
X145860Y129196D01*
X145138Y130278D01*
X144056Y131000D01*
X142780Y131254D01*
X56849D01*
X55574Y131000D01*
X54492Y130278D01*
X11559Y87344D01*
X-90249D01*
X-149606Y146701D01*
Y156546D01*
X-149860Y157822D01*
X-150583Y158904D01*
X-154686Y163007D01*
Y185330D01*
X-153704Y186136D01*
X-152500Y185896D01*
X-151230Y186148D01*
X-150332Y185250D01*
X-150374Y185040D01*
Y169560D01*
X-150120Y168284D01*
X-149397Y167202D01*
X-149397Y167202D01*
X-149397Y167202D01*
X-139858Y157662D01*
X-138776Y156940D01*
X-137500Y156686D01*
X-136224Y156940D01*
X-135142Y157662D01*
X-134420Y158744D01*
X-134166Y160020D01*
X-134420Y161296D01*
X-135142Y162378D01*
X-143706Y170941D01*
Y178785D01*
X-142724Y179590D01*
X-142500Y179546D01*
X-141224Y179800D01*
X-140142Y180522D01*
X-137007Y183657D01*
X-135834Y183172D01*
Y182880D01*
X-135580Y181604D01*
X-134858Y180522D01*
X-133776Y179800D01*
X-132500Y179546D01*
X-131224Y179800D01*
X-130142Y180522D01*
X-129420Y181604D01*
X-129166Y182880D01*
Y204430D01*
X-108330Y225266D01*
X-47800D01*
X-33536Y211003D01*
X-32454Y210280D01*
X-31179Y210026D01*
X37540D01*
X38816Y210280D01*
X39897Y211003D01*
X39897Y211002D01*
X39897Y211003D01*
X46347Y217453D01*
X47070Y218534D01*
X47324Y219810D01*
Y228590D01*
X60990D01*
Y247590D01*
X58324D01*
Y327280D01*
X58070Y328556D01*
X57347Y329637D01*
X54134Y332851D01*
Y343694D01*
X57880D01*
Y356584D01*
X57880D01*
Y356798D01*
X58778Y357696D01*
X59880D01*
Y359204D01*
X63500D01*
X65197Y359427D01*
X66778Y360082D01*
X68136Y361124D01*
X69178Y362482D01*
X69833Y364063D01*
X70056Y365760D01*
X69833Y367457D01*
X69178Y369038D01*
X68136Y370396D01*
X66778Y371438D01*
X65197Y372093D01*
X63500Y372316D01*
X59880D01*
Y374586D01*
X25538D01*
X25503Y374613D01*
X24577Y374996D01*
X23922Y375268D01*
X22225Y375491D01*
X21145D01*
Y379920D01*
X-825D01*
Y375382D01*
X-1697Y375268D01*
X-2352Y374996D01*
X-3278Y374613D01*
X-4636Y373571D01*
X-4687Y373520D01*
X-41137D01*
Y372076D01*
X-45181D01*
Y374205D01*
X-67151D01*
Y352235D01*
X-62722D01*
Y350193D01*
X-62499Y348496D01*
X-61844Y346915D01*
X-60802Y345557D01*
X-59444Y344515D01*
X-57863Y343860D01*
X-56166Y343637D01*
X-54469Y343860D01*
X-52888Y344515D01*
X-51530Y345557D01*
X-50488Y346915D01*
X-49833Y348496D01*
X-49610Y350193D01*
Y352235D01*
X-45181D01*
Y358964D01*
X-41137D01*
Y357520D01*
X-38693D01*
Y356490D01*
X-38693D01*
Y344490D01*
X-37527D01*
Y342573D01*
X-37274Y341297D01*
X-36551Y340215D01*
X-36551Y340215D01*
X-36551Y340215D01*
X-27244Y330909D01*
Y309590D01*
Y285319D01*
X-26990Y284043D01*
X-26267Y282961D01*
X-12424Y269118D01*
Y261121D01*
X-24367Y249177D01*
X-25090Y248096D01*
X-25191Y247590D01*
X-26435D01*
X-26853Y248008D01*
X-27934Y248730D01*
X-29210Y248984D01*
X-30486Y248730D01*
X-31567Y248008D01*
X-32290Y246926D01*
X-32544Y245650D01*
X-32290Y244374D01*
X-31567Y243293D01*
X-28010Y239735D01*
Y229407D01*
X-28149Y229350D01*
X-28149Y229350D01*
X-29183Y228921D01*
X-40300Y240037D01*
X-41382Y240760D01*
X-42657Y241014D01*
X-114110D01*
X-115386Y240760D01*
X-116468Y240037D01*
X-143938Y212568D01*
X-144660Y211486D01*
X-144914Y210210D01*
Y191881D01*
X-147831Y188964D01*
X-148895Y189176D01*
X-149166Y189289D01*
Y209849D01*
X-146462Y212552D01*
X-145740Y213634D01*
X-145486Y214910D01*
Y445554D01*
X-109403Y481638D01*
X-108680Y482719D01*
X-108426Y483995D01*
Y494779D01*
X-107337Y495432D01*
X-106630Y495054D01*
X-106834Y494030D01*
X-106580Y492754D01*
X-105857Y491673D01*
X-100778Y486592D01*
X-100778D01*
X-100778Y486592D01*
X-100778Y486592D01*
Y486592D01*
X-99696Y485870D01*
X-98420Y485616D01*
X23700D01*
X93186Y416130D01*
Y404175D01*
X89440D01*
Y391285D01*
X103600D01*
Y394557D01*
X107220D01*
Y391446D01*
X121380D01*
Y394557D01*
X125000D01*
Y391446D01*
X139160D01*
Y404336D01*
X125000D01*
Y401225D01*
X121380D01*
Y404336D01*
X107220D01*
Y401225D01*
X103600D01*
Y404175D01*
X99854D01*
Y417511D01*
X99600Y418787D01*
X98877Y419869D01*
X27438Y491307D01*
X26357Y492030D01*
X25081Y492284D01*
X23358D01*
X22872Y493457D01*
X24329Y494913D01*
X25051Y495995D01*
X25305Y497271D01*
Y498460D01*
X28416D01*
Y512620D01*
X25305D01*
Y517510D01*
X28416D01*
Y531670D01*
X25305D01*
Y536560D01*
X28416D01*
Y540306D01*
X32544D01*
Y536560D01*
X45434D01*
Y550720D01*
X42323D01*
Y583708D01*
X65476Y606861D01*
X66199Y607943D01*
X66453Y609219D01*
Y638318D01*
X127588Y699453D01*
X128021Y700101D01*
X128310Y700534D01*
X128564Y701810D01*
Y741680D01*
X128310Y742956D01*
X127587Y744037D01*
X126506Y744760D01*
X125230Y745014D01*
D02*
G37*
G36*
X-140661Y624440D02*
X-150758D01*
Y600120D01*
X-149044D01*
Y594836D01*
X-153130D01*
Y581946D01*
X-138970D01*
Y585057D01*
X-134080D01*
Y581946D01*
X-134080D01*
Y581732D01*
X-134978Y580834D01*
X-136080D01*
Y563944D01*
X-132373D01*
Y560738D01*
X-132887Y559969D01*
X-133372Y557530D01*
X-132887Y555091D01*
X-131506Y553024D01*
X-129439Y551643D01*
X-127000Y551158D01*
X-124561Y551643D01*
X-122494Y553024D01*
X-121113Y555091D01*
X-120628Y557530D01*
X-121113Y559969D01*
X-121627Y560738D01*
Y563944D01*
X-117920D01*
Y580834D01*
X-119920D01*
Y581946D01*
X-119920D01*
Y588069D01*
X-119856Y588391D01*
X-119920Y588713D01*
Y594836D01*
X-134080D01*
Y591725D01*
X-138970D01*
Y594836D01*
X-142375D01*
Y600120D01*
X-140661D01*
Y624440D01*
D02*
G37*
G36*
X-161100Y717486D02*
X-179260D01*
Y716965D01*
X-180897Y716750D01*
X-182600Y716044D01*
X-184062Y714922D01*
X-185184Y713460D01*
X-185890Y711757D01*
X-186130Y709930D01*
X-185890Y708103D01*
X-185184Y706400D01*
X-184062Y704938D01*
X-182600Y703816D01*
X-180897Y703110D01*
X-179260Y702895D01*
Y700596D01*
X-177260D01*
Y699484D01*
X-177260D01*
Y686594D01*
X-174444D01*
Y679116D01*
X-174749Y678911D01*
X-175865Y677242D01*
X-176256Y675272D01*
Y661048D01*
X-175865Y659078D01*
X-174749Y657409D01*
X-173079Y656293D01*
X-171110Y655901D01*
X-169140Y656293D01*
X-167470Y657409D01*
X-166354Y659078D01*
X-165963Y661048D01*
Y675272D01*
X-166354Y677242D01*
X-167470Y678911D01*
X-167775Y679116D01*
Y686594D01*
X-163100D01*
Y689705D01*
X-156139D01*
X-155653Y688532D01*
X-160767Y683418D01*
X-161490Y682336D01*
X-161744Y681060D01*
Y679116D01*
X-162049Y678911D01*
X-163165Y677242D01*
X-163556Y675272D01*
Y661048D01*
X-163165Y659078D01*
X-162049Y657409D01*
X-160379Y656293D01*
X-158410Y655901D01*
X-157256Y656131D01*
X-156657Y655011D01*
X-165050Y646618D01*
X-171110D01*
X-173459Y646308D01*
X-175648Y645402D01*
X-177528Y643959D01*
X-178971Y642079D01*
X-179878Y639889D01*
X-180187Y637540D01*
X-179878Y635191D01*
X-178971Y633001D01*
X-177528Y631121D01*
X-175648Y629678D01*
X-173459Y628772D01*
X-171110Y628462D01*
X-161290D01*
X-158940Y628772D01*
X-156751Y629678D01*
X-154871Y631121D01*
X-139291Y646702D01*
X-137848Y648582D01*
X-136941Y650771D01*
X-136632Y653120D01*
X-136632Y653121D01*
Y668160D01*
X-136941Y670509D01*
X-137848Y672699D01*
X-138601Y673680D01*
Y675272D01*
X-138843Y677112D01*
X-139553Y678826D01*
X-140683Y680299D01*
X-142155Y681428D01*
X-143870Y682139D01*
X-145709Y682381D01*
X-147549Y682139D01*
X-149264Y681428D01*
X-150736Y680299D01*
X-151866Y678826D01*
X-152421Y677487D01*
X-152867Y677398D01*
X-153704Y677316D01*
X-154770Y678911D01*
X-152608Y682147D01*
X-149368Y685387D01*
X-137160D01*
X-135884Y685641D01*
X-134803Y686364D01*
X-134080Y687445D01*
X-133826Y688721D01*
X-134080Y689997D01*
X-134803Y691078D01*
X-135884Y691801D01*
X-137160Y692055D01*
X-147461D01*
X-147947Y693228D01*
X-144450Y696726D01*
X-124460D01*
X-123184Y696980D01*
X-122102Y697702D01*
X-121380Y698784D01*
X-121126Y700060D01*
X-121380Y701336D01*
X-122102Y702418D01*
X-123184Y703140D01*
X-124460Y703394D01*
X-145830D01*
X-147106Y703140D01*
X-148188Y702418D01*
X-154233Y696373D01*
X-163100D01*
Y699484D01*
X-163100D01*
Y699698D01*
X-162202Y700596D01*
X-161100D01*
Y717486D01*
D02*
G37*
G36*
X107410Y704564D02*
X93250D01*
Y702707D01*
X89630D01*
Y704564D01*
X75470D01*
Y702707D01*
X71850D01*
Y704564D01*
X57690D01*
Y702707D01*
X54070D01*
Y704564D01*
X39910D01*
Y702707D01*
X33750D01*
Y704564D01*
X19590D01*
Y691674D01*
X22082D01*
Y683736D01*
X19590D01*
Y670846D01*
X33750D01*
Y683736D01*
X31258D01*
Y691674D01*
X33750D01*
Y693531D01*
X39910D01*
Y691674D01*
X54070D01*
Y693531D01*
X57690D01*
Y691674D01*
X71850D01*
Y693531D01*
X75470D01*
Y691674D01*
X89630D01*
Y693531D01*
X93250D01*
Y691674D01*
X107410D01*
Y704564D01*
D02*
G37*
G36*
X82550Y725964D02*
X81274Y725710D01*
X80192Y724987D01*
X79470Y723906D01*
X79216Y722630D01*
Y720566D01*
X75470D01*
Y707676D01*
X89630D01*
Y720566D01*
X85884D01*
Y722630D01*
X85630Y723906D01*
X84908Y724987D01*
X83826Y725710D01*
X82550Y725964D01*
D02*
G37*
G36*
X100330D02*
X99054Y725710D01*
X97972Y724987D01*
X97250Y723906D01*
X96996Y722630D01*
Y720566D01*
X93250D01*
Y707676D01*
X107410D01*
Y720566D01*
X103664D01*
Y722630D01*
X103410Y723906D01*
X102688Y724987D01*
X101606Y725710D01*
X100330Y725964D01*
D02*
G37*
G36*
X-76470Y772340D02*
X-92470D01*
Y750340D01*
X-89058D01*
Y735980D01*
X-88709Y734224D01*
X-87714Y732736D01*
X-84598Y729620D01*
Y701040D01*
X-84249Y699284D01*
X-83254Y697796D01*
X-81766Y696801D01*
X-80010Y696452D01*
X-78254Y696801D01*
X-76766Y697796D01*
X-75771Y699284D01*
X-75422Y701040D01*
Y731520D01*
X-75771Y733276D01*
X-76766Y734764D01*
X-79882Y737880D01*
Y750340D01*
X-76470D01*
Y772340D01*
D02*
G37*
G36*
X-27290Y710060D02*
X-41290D01*
Y690060D01*
X-27290D01*
Y696726D01*
X-25690D01*
X-24414Y696980D01*
X-23333Y697702D01*
X-22610Y698784D01*
X-22356Y700060D01*
X-22610Y701336D01*
X-23333Y702418D01*
X-24414Y703140D01*
X-25690Y703394D01*
X-27290D01*
Y710060D01*
D02*
G37*
%LPD*%
G36*
X23322Y359808D02*
X23940Y359727D01*
Y357696D01*
X25940D01*
Y356584D01*
X25940D01*
Y343694D01*
X29686D01*
Y342830D01*
X29940Y341554D01*
X30663Y340472D01*
X47116Y324019D01*
Y263111D01*
X41632Y257628D01*
X40910Y256546D01*
X40656Y255270D01*
Y247590D01*
X37990D01*
Y228590D01*
X40656D01*
Y221191D01*
X36159Y216694D01*
X88D01*
X-397Y217867D01*
X2348Y220613D01*
X3070Y221694D01*
X3324Y222970D01*
Y228590D01*
X27990D01*
Y247590D01*
X25324D01*
Y258680D01*
X25070Y259956D01*
X24348Y261038D01*
X-6956Y292341D01*
Y344520D01*
X-5790D01*
Y356520D01*
X-5790D01*
Y356622D01*
X-4892Y357520D01*
X-3790D01*
Y358964D01*
X-3415D01*
X-1780Y359179D01*
X-825Y358342D01*
Y357950D01*
X21145D01*
Y359567D01*
X22201Y360273D01*
X23322Y359808D01*
D02*
G37*
%LPC*%
G36*
X19145Y356330D02*
X1175D01*
Y338360D01*
X5572D01*
Y337820D01*
X5921Y336064D01*
X6916Y334576D01*
X8404Y333581D01*
X10160Y333232D01*
X11916Y333581D01*
X13404Y334576D01*
X14399Y336064D01*
X14748Y337820D01*
Y338360D01*
X19145D01*
Y356330D01*
D02*
G37*
%LPD*%
D12*
X-183810Y588391D02*
D03*
Y572389D02*
D03*
X-8890Y676021D02*
D03*
Y660019D02*
D03*
X-66040Y625729D02*
D03*
Y641731D02*
D03*
X54610Y524971D02*
D03*
Y508969D02*
D03*
X26670Y677291D02*
D03*
Y661289D02*
D03*
X-77470Y324739D02*
D03*
Y340741D02*
D03*
X-51770Y434021D02*
D03*
Y418019D02*
D03*
X132080Y381889D02*
D03*
Y397891D02*
D03*
X149860Y381889D02*
D03*
Y397891D02*
D03*
X167640Y381889D02*
D03*
Y397891D02*
D03*
X142240Y433959D02*
D03*
Y449961D02*
D03*
X26670Y714121D02*
D03*
Y698119D02*
D03*
X46990Y714121D02*
D03*
Y698119D02*
D03*
X218440Y651129D02*
D03*
Y667131D02*
D03*
X236220Y681609D02*
D03*
Y697611D02*
D03*
X218780Y786511D02*
D03*
Y770509D02*
D03*
X-233680Y695579D02*
D03*
Y711581D02*
D03*
X-97790Y191389D02*
D03*
Y207391D02*
D03*
X64770Y714121D02*
D03*
Y698119D02*
D03*
X100330Y714121D02*
D03*
Y698119D02*
D03*
X82550Y714121D02*
D03*
Y698119D02*
D03*
X33020Y350139D02*
D03*
Y366141D02*
D03*
X50800Y350139D02*
D03*
Y366141D02*
D03*
X-127000Y588391D02*
D03*
Y572389D02*
D03*
X-146050D02*
D03*
Y588391D02*
D03*
X186690Y381889D02*
D03*
Y397891D02*
D03*
Y524891D02*
D03*
Y508889D02*
D03*
X114300Y381889D02*
D03*
Y397891D02*
D03*
X96520Y397730D02*
D03*
Y381728D02*
D03*
X142240Y486791D02*
D03*
Y470789D02*
D03*
X-84470Y641731D02*
D03*
Y625729D02*
D03*
X-170180Y693039D02*
D03*
Y709041D02*
D03*
X-146050Y536321D02*
D03*
Y520319D02*
D03*
D24*
X21971Y543640D02*
D03*
X5969D02*
D03*
X38989D02*
D03*
X54991D02*
D03*
X5969Y505540D02*
D03*
X21971D02*
D03*
X-110871Y785940D02*
D03*
X-94869D02*
D03*
X21971Y524590D02*
D03*
X5969D02*
D03*
X-15829Y451420D02*
D03*
X-31831D02*
D03*
X-16129Y433070D02*
D03*
X-32131D02*
D03*
X-15829Y470470D02*
D03*
X-31831D02*
D03*
D26*
X-77756Y363220D02*
D03*
X-56166D02*
D03*
D27*
X53340Y659130D02*
X62230D01*
X55170D02*
X62230Y666190D01*
Y659130D02*
Y666190D01*
X-179070Y709930D02*
X-171069D01*
X-170180Y709041D01*
X-59690Y567690D02*
X-38100D01*
X-147230Y537501D02*
Y548550D01*
Y537501D02*
X-146050Y536321D01*
X-8890Y638930D02*
Y660019D01*
Y638930D02*
X11430Y618610D01*
Y617220D02*
Y618610D01*
X-38100Y567690D02*
X11430Y617220D01*
X53340Y659130D01*
D28*
X-115334Y60230D02*
X23330D01*
X-186150Y131046D02*
X-115334Y60230D01*
X23330D02*
X57101Y94002D01*
X19967Y64770D02*
X53739Y98541D01*
X-113453Y64770D02*
X19967D01*
X-180720Y132037D02*
X-113453Y64770D01*
X17501Y69310D02*
X62491Y114300D01*
X-111573Y69310D02*
X17501D01*
X-176180Y133917D02*
X-111573Y69310D01*
X57101Y94002D02*
X62491D01*
X-117214Y55690D02*
X25210D01*
X57500Y87980D01*
X-190690Y129166D02*
X-117214Y55690D01*
X16510Y74740D02*
X60610Y118840D01*
X-102886Y74740D02*
X16510D01*
X-102902Y74756D02*
X-102886Y74740D01*
X-102902Y74756D02*
Y74756D01*
X-102919Y74740D02*
X-102902Y74756D01*
X-110582Y74740D02*
X-102919D01*
X-171640Y135798D02*
X-110582Y74740D01*
X14630Y79280D02*
X58730Y123380D01*
X-101005Y79280D02*
X14630D01*
X-101195Y79470D02*
X-101005Y79280D01*
X-104609Y79470D02*
X-101195D01*
X-104799Y79280D02*
X-104609Y79470D01*
X-108701Y79280D02*
X-104799D01*
X-167100Y137678D02*
X-108701Y79280D01*
X12939Y84010D02*
X56849Y127920D01*
X-91630Y84010D02*
X12939D01*
X-152940Y145320D02*
X-91630Y84010D01*
X-204310Y122490D02*
Y469200D01*
Y122490D02*
X-142128Y60308D01*
Y60960D01*
X-199770Y125022D02*
Y466980D01*
Y125022D02*
X-135325Y60578D01*
X-195230Y127285D02*
X-128905Y60960D01*
X56849Y127920D02*
X142780D01*
X-162560Y139700D02*
X-106680Y83820D01*
X-157480Y142240D02*
X-105378Y90138D01*
X-105410Y90105D02*
X-99125Y83820D01*
X-70549Y646239D02*
Y650240D01*
Y646239D02*
X-66040Y641731D01*
X-134620Y493238D02*
Y512120D01*
X-123500Y523240D01*
X-130080Y491357D02*
Y506580D01*
X-118500Y518160D01*
X33020Y342830D02*
Y350139D01*
Y342830D02*
X50450Y325400D01*
Y261730D02*
Y325400D01*
X54990Y238090D02*
Y327280D01*
X50800Y331470D02*
X54990Y327280D01*
X50800Y331470D02*
Y347980D01*
X-23910Y285319D02*
Y309590D01*
Y332290D01*
X-34193Y342573D02*
Y350490D01*
Y342573D02*
X-23910Y332290D01*
X-19370Y287199D02*
Y334669D01*
X-26290Y341590D02*
X-19370Y334669D01*
X-26290Y341590D02*
Y350520D01*
X-14830Y289079D02*
Y336550D01*
X-18290Y340010D02*
X-14830Y336550D01*
X-18290Y340010D02*
Y350520D01*
X-23910Y285319D02*
X-9090Y270499D01*
X-22010Y238450D02*
Y246820D01*
Y238090D02*
Y238450D01*
X-9090Y259740D02*
Y270499D01*
X-22010Y246820D02*
X-9090Y259740D01*
X-19370Y287199D02*
X-4550Y272379D01*
X-11010Y238090D02*
Y248612D01*
X-4550Y255072D01*
Y272379D01*
X-10Y238090D02*
Y274259D01*
X-14830Y289079D02*
X-10Y274259D01*
X21990Y238090D02*
Y258680D01*
X-10290Y290960D02*
X21990Y258680D01*
X-10290Y290960D02*
Y350520D01*
X155599Y118840D02*
X196120Y159361D01*
X200660Y157480D02*
Y200660D01*
X157480Y114300D02*
X200660Y157480D01*
X-158500Y501829D02*
Y518160D01*
X-163500Y503250D02*
Y523240D01*
X-158169Y488950D02*
X-148500D01*
X-159510Y494030D02*
X-153500D01*
X-8890Y676021D02*
Y700060D01*
X-35820Y751580D02*
X-34290Y753110D01*
Y768060D01*
X-26370Y734360D02*
X-8890Y751840D01*
Y768060D01*
X-32050Y734360D02*
X-26370D01*
X16129Y661289D02*
X26670D01*
X100330Y714121D02*
Y722630D01*
X82550Y714121D02*
Y722630D01*
X64770Y714121D02*
Y722630D01*
X114300Y397891D02*
X132080D01*
X96681D02*
X114300D01*
X132080Y381889D02*
X149860D01*
Y397891D02*
X186690D01*
X187031Y396581D02*
Y426860D01*
X142240Y449961D02*
Y470789D01*
X161290Y482740D02*
X174331D01*
X157239Y486791D02*
X161290Y482740D01*
X142240Y486791D02*
X157239D01*
X142111Y486920D02*
X142240Y486791D01*
X106680Y486920D02*
X142111D01*
X186690Y483080D02*
X187031Y482740D01*
X186690Y483080D02*
Y508889D01*
X205994D02*
X209550Y512445D01*
X186690Y508889D02*
X205994D01*
X68049Y98541D02*
X72500Y94090D01*
X53739Y98541D02*
X68049D01*
X62491Y114300D02*
X157480D01*
X60610Y118840D02*
X155599D01*
X-204310Y469200D02*
X-178750Y494760D01*
X-199770Y466980D02*
X-163500Y503250D01*
X-190690Y462850D02*
X-159510Y494030D01*
X-195230Y465099D02*
X-158500Y501829D01*
X-186150Y460970D02*
X-158169Y488950D01*
X-190690Y129166D02*
Y462850D01*
X-162560Y139700D02*
Y191770D01*
X-163500Y470779D02*
Y476580D01*
X-186150Y131046D02*
Y460970D01*
X-162440Y208160D02*
X-158020Y203740D01*
X-162440Y208160D02*
Y452577D01*
X-180720Y132037D02*
Y459979D01*
X-176180Y458098D02*
X-163500Y470779D01*
X-176180Y133917D02*
Y458098D01*
X-171640Y135798D02*
Y456218D01*
X-167100Y137678D02*
Y454337D01*
X-180720Y459979D02*
X-168379Y472319D01*
X-195230Y127285D02*
Y465099D01*
X21971Y524590D02*
Y543640D01*
X38989D01*
X-34290Y700060D02*
X-25690D01*
X-103500Y494030D02*
X-98420Y488950D01*
X21971Y505540D02*
Y524590D01*
X-153360Y217500D02*
Y448816D01*
X-148820Y214910D02*
Y446935D01*
X-66961Y604869D02*
X-46069D01*
X-84470Y671340D02*
X-83820Y670690D01*
Y650240D02*
Y670690D01*
Y641731D02*
Y650240D01*
X-140970Y588391D02*
X-123190D01*
X-124190Y589390D02*
X-123190Y588391D01*
X-148820Y446935D02*
X-111760Y483995D01*
X-153360Y448816D02*
X-116300Y485876D01*
X-83820Y594431D02*
Y595010D01*
X-157900Y450696D02*
X-120840Y487756D01*
X-171640Y456218D02*
X-134620Y493238D01*
X-125540Y489477D02*
Y501840D01*
X-167100Y454337D02*
X-130080Y491357D01*
X-162440Y452577D02*
X-125540Y489477D01*
X-111760Y483995D02*
Y496358D01*
X-120840Y487756D02*
Y500120D01*
X-116300Y485876D02*
Y498239D01*
X-51770Y470470D02*
X-31831D01*
X-62730D02*
X-51770D01*
Y434021D02*
Y455230D01*
X-50819Y433070D02*
X-32131D01*
X-51770Y434021D02*
X-50819Y433070D01*
X-31831Y433370D02*
Y451420D01*
X-32131Y433070D02*
X-31831Y433370D01*
X-32131Y432370D02*
X-31831D01*
X-51770Y403200D02*
Y418019D01*
X-77770Y403200D02*
Y428960D01*
X-110490Y393700D02*
X-77770D01*
X-77756Y363220D02*
Y384186D01*
X-51784D01*
X-77470Y340741D02*
Y362934D01*
X-77756Y363220D02*
X-77470Y362934D01*
X-110490Y450700D02*
X-106530Y454660D01*
X-90170D02*
X-77470D01*
X-106530D02*
X-90170D01*
X-29210Y245650D02*
X-22010Y238450D01*
X-183810Y591590D02*
Y612280D01*
X-145709Y588731D02*
Y612280D01*
X-150749Y688721D02*
X-137160D01*
X-158410Y668160D02*
Y681060D01*
X-150749Y688721D01*
X-145830Y700060D02*
X-124460D01*
X-152851Y693039D02*
X-145830Y700060D01*
X-170180Y693039D02*
X-152851D01*
X-171110Y668160D02*
Y693039D01*
X-233680Y669290D02*
Y695579D01*
Y711581D02*
Y745230D01*
X-224272Y754639D01*
X-186690D01*
X-130696D01*
Y771563D01*
X-110871Y740991D02*
Y785940D01*
Y740991D02*
X-105310Y735430D01*
X-97790Y774700D02*
Y783019D01*
X-94869Y785940D01*
X55880Y526241D02*
Y562690D01*
X54610Y524971D02*
X55880Y526241D01*
X-157900Y224790D02*
Y450696D01*
X-157500Y213360D02*
X-153360Y217500D01*
X-132500Y182880D02*
Y205811D01*
X-109711Y228600D01*
X-46418D01*
X-31179Y213360D01*
X37540D01*
X43990Y219810D01*
Y238090D01*
X-10Y222970D02*
Y238090D01*
X-5080Y217900D02*
X-10Y222970D01*
X-29298Y217900D02*
X-5080D01*
X-44538Y233140D02*
X-29298Y217900D01*
X-111592Y233140D02*
X-44538D01*
X-152500Y189230D02*
Y211230D01*
X-148820Y214910D01*
X-114110Y237680D02*
X-42657D01*
X-27418Y222440D01*
X-14380D01*
X-11010Y225810D01*
Y238090D01*
X-142500Y182880D02*
X-137040Y188340D01*
Y207691D01*
X-111592Y233140D01*
X-147040Y169560D02*
X-137500Y160020D01*
X-147040Y169560D02*
Y185040D01*
X-141580Y190500D01*
Y210210D01*
X-114110Y237680D01*
X43990Y255270D02*
X50450Y261730D01*
X43990Y238090D02*
Y255270D01*
X11430Y558880D02*
X34290D01*
X5969Y553419D02*
X11430Y558880D01*
X5969Y524590D02*
Y553419D01*
X58420Y641421D02*
X119920Y702921D01*
X112730Y741680D02*
X119920Y734490D01*
Y702921D02*
Y734490D01*
X67659Y631190D02*
X72500D01*
X67659D02*
Y637818D01*
X21971Y497271D02*
Y505540D01*
X19050Y494350D02*
X21971Y497271D01*
X-83500Y494350D02*
X19050D01*
X38989Y543640D02*
Y585089D01*
X63119Y609219D01*
Y639699D01*
X58420Y610941D02*
Y641421D01*
X34290Y586810D02*
X58420Y610941D01*
X34290Y558880D02*
Y586810D01*
X43529Y558880D02*
Y583209D01*
X67659Y607338D01*
Y631190D01*
Y637818D02*
X130810Y700969D01*
Y734760D01*
X137730Y741680D01*
X125230Y701810D02*
Y741680D01*
X63119Y639699D02*
X125230Y701810D01*
X135350Y699089D02*
Y727470D01*
X218780Y667471D02*
Y691020D01*
X218440Y667131D02*
X218780Y667471D01*
X193762Y651129D02*
X218440D01*
X175730Y734060D02*
X180681Y739010D01*
X206080Y733719D02*
Y746900D01*
X218780D02*
Y770169D01*
X186690Y237490D02*
X196120Y228060D01*
Y159361D02*
Y228060D01*
X186690Y224011D02*
X191580Y219121D01*
Y161241D02*
Y219121D01*
X153719Y123380D02*
X191580Y161241D01*
X58730Y123380D02*
X153719D01*
X-62500Y191770D02*
X-17500Y146770D01*
Y139425D02*
Y146770D01*
X-67500Y189480D02*
X-22500Y144480D01*
X-72500Y187679D02*
Y191770D01*
Y187679D02*
X-12500Y127678D01*
X-57500Y115570D02*
Y115638D01*
X-52451Y107551D02*
X-42500Y97600D01*
X-52451Y107551D02*
Y117009D01*
X-47491Y115570D02*
Y118469D01*
X-72040Y149439D02*
X-55152Y132551D01*
X-37500Y115570D02*
Y121320D01*
X-67500Y151320D02*
Y156210D01*
Y151320D02*
X-37500Y121320D01*
X-32500Y97600D02*
Y122740D01*
X-60925Y151165D02*
X-32500Y122740D01*
X-87630Y145768D02*
Y189200D01*
Y145768D02*
X-57500Y115638D01*
X-82500Y147058D02*
Y162560D01*
Y147058D02*
X-52451Y117009D01*
X-76580Y147559D02*
X-47491Y118469D01*
X-92710Y144427D02*
Y162560D01*
Y144427D02*
X-67500Y119217D01*
Y97600D02*
Y119217D01*
X-72500Y94630D02*
Y117797D01*
X-97250Y142547D02*
Y151130D01*
Y142547D02*
X-72500Y117797D01*
X-77470Y177800D02*
Y189200D01*
Y177800D02*
X-72040Y172370D01*
Y149439D02*
Y172370D01*
X-76580Y147559D02*
Y170490D01*
X-82500Y176409D02*
X-76580Y170490D01*
X-82500Y176409D02*
Y191770D01*
X-54490Y162560D02*
X-7500Y115570D01*
X-67500Y162560D02*
X-54490D01*
X-56220Y214630D02*
X-48260D01*
X-58760Y212090D02*
X-56220Y214630D01*
X-127000Y557530D02*
Y572389D01*
X-93500Y543640D02*
Y606580D01*
X-99060Y612140D02*
X-93500Y606580D01*
X-88960Y589291D02*
X-83820Y594431D01*
X-79880Y585028D02*
X-70549Y594360D01*
X-79880Y528238D02*
Y585028D01*
X-116300Y498239D02*
X-84420Y530119D01*
Y587410D01*
X-120840Y500120D02*
X-88960Y532000D01*
Y589291D01*
X-84420Y587410D02*
X-66961Y604869D01*
X-111760Y496358D02*
X-79880Y528238D01*
X-98500Y547290D02*
X-98420Y547370D01*
Y605079D01*
X-99095Y605755D02*
X-98420Y605079D01*
X-103500Y523880D02*
Y543640D01*
X-125540Y501840D02*
X-103500Y523880D01*
X-208850Y471081D02*
X-178040Y501890D01*
X-208850Y209550D02*
Y471081D01*
X-171110Y612280D02*
X-160550D01*
X-173500Y523240D02*
X-154940Y541800D01*
X-178040Y501890D02*
Y525540D01*
X-160550Y543030D01*
Y612280D01*
X-154940Y541800D02*
Y554689D01*
X-146050Y563579D01*
Y572389D01*
X-171831Y588391D02*
X-165091Y581651D01*
Y548649D02*
Y581651D01*
X-183810Y588391D02*
X-180611D01*
X-171831D01*
X-183810Y591590D02*
X-180611Y588391D01*
X54610Y714121D02*
X54800Y714311D01*
X46990Y714121D02*
X54610D01*
X-157480Y142240D02*
Y154665D01*
X-158020Y161626D02*
X-152940Y156546D01*
X-158020Y161626D02*
Y203740D01*
X-152940Y145320D02*
Y156546D01*
X-97500Y182880D02*
Y191099D01*
X-97790Y191389D02*
X-97500Y191099D01*
X25081Y488950D02*
X96520Y417511D01*
Y397730D02*
Y417511D01*
X-98420Y488950D02*
X25081D01*
X193381Y734060D02*
Y735290D01*
Y746900D01*
Y735290D02*
X194310Y734360D01*
X106680Y518920D02*
Y670419D01*
X135350Y699089D01*
D29*
X24720Y778510D02*
X32340Y770890D01*
X37730D01*
X24720Y778510D02*
X37500D01*
Y771120D02*
Y778510D01*
X-29090Y638930D02*
X-8890D01*
X-42291Y625729D02*
X-29090Y638930D01*
X-52451Y625729D02*
X-42291D01*
X26670Y677291D02*
Y698119D01*
X99060D01*
X-80010Y701040D02*
Y731520D01*
X-84470Y735980D02*
X-80010Y731520D01*
X-84470Y735980D02*
Y761340D01*
Y625729D02*
X-66040D01*
X-52451D01*
X-53866Y365520D02*
X-10290D01*
X-56166Y363220D02*
X-53866Y365520D01*
X-10290D02*
X-3415D01*
X0Y368935D01*
X25019Y366141D02*
X33020D01*
X22225Y368935D02*
X25019Y366141D01*
X0Y368935D02*
X10160D01*
X22225D01*
X180681Y739010D02*
Y746900D01*
X212430Y482740D02*
X225380D01*
X232410Y475710D01*
Y465455D02*
Y475710D01*
Y433070D02*
Y443865D01*
X226200Y426860D02*
X232410Y433070D01*
X212430Y426860D02*
X226200D01*
X209550Y534035D02*
X219710D01*
X33401Y365760D02*
X63500D01*
X33020Y366141D02*
X33401Y365760D01*
X10160Y337820D02*
Y347345D01*
Y238920D02*
Y261620D01*
Y238920D02*
X10990Y238090D01*
X110490Y240790D02*
Y256540D01*
Y240790D02*
X137730D01*
X150209Y604869D02*
X151130Y605790D01*
Y626569D02*
X151970Y625729D01*
X151130Y626569D02*
Y662940D01*
X-220980Y504389D02*
X-178750Y546619D01*
X-220980Y202819D02*
Y504389D01*
X-183810Y551679D02*
Y572389D01*
Y551679D02*
X-178750Y546619D01*
X-56166Y350193D02*
Y363220D01*
X151130Y605790D02*
Y626569D01*
X55880Y577930D02*
X62230D01*
D30*
X-145709Y653120D02*
Y668160D01*
X-161290Y637540D02*
X-145709Y653120D01*
X-171110Y637540D02*
X-161290D01*
X137730Y604869D02*
X150209D01*
X137730Y628650D02*
X149049D01*
X151130Y626569D01*
D31*
X-71250Y78600D02*
X-71243D01*
X-97750Y68000D02*
X-97743D01*
X160473Y765320D02*
X160480D01*
X133973Y754720D02*
X133980D01*
X135473Y765320D02*
X135480D01*
X110473D02*
X110480D01*
X83973Y754720D02*
X83980D01*
X108973D02*
X108980D01*
X135473Y765320D02*
X135480D01*
D32*
X265800Y25630D02*
D03*
X243600D02*
D03*
D33*
X-230000Y543060D02*
D03*
X150000D02*
D03*
Y163060D02*
D03*
X-230000D02*
D03*
X160000Y30000D02*
D03*
X-160000D02*
D03*
D34*
X62230Y659130D02*
D03*
Y666190D02*
D03*
X-203200Y693420D02*
D03*
X-178750Y724112D02*
D03*
X37500Y778510D02*
D03*
X37730Y770890D02*
D03*
X-19050Y177800D02*
D03*
X6350Y139495D02*
D03*
X63500Y76200D02*
D03*
X120825D02*
D03*
X165100D02*
D03*
X25223Y184150D02*
D03*
X-6350Y203523D02*
D03*
X228600Y95243D02*
D03*
Y145755D02*
D03*
X63767Y146179D02*
D03*
X114729Y146050D02*
D03*
X234950Y342900D02*
D03*
X158750Y311150D02*
D03*
Y342900D02*
D03*
X127000D02*
D03*
X203200Y450850D02*
D03*
X184150Y457200D02*
D03*
X120619Y425450D02*
D03*
X101600Y457018D02*
D03*
X0Y438150D02*
D03*
Y476250D02*
D03*
X38100Y457200D02*
D03*
Y400050D02*
D03*
X-19050D02*
D03*
X197644Y565150D02*
D03*
X241300Y660400D02*
D03*
Y736417D02*
D03*
Y781050D02*
D03*
X203228D02*
D03*
X134080Y769620D02*
D03*
X99060D02*
D03*
X-234956Y762000D02*
D03*
X-190812Y774700D02*
D03*
X-44450Y787696D02*
D03*
X-76200Y787400D02*
D03*
X6350Y698500D02*
D03*
X12700Y736600D02*
D03*
X73660Y671830D02*
D03*
X87730Y685380D02*
D03*
X-241300Y217964D02*
D03*
X-241507Y247650D02*
D03*
X-241300Y278130D02*
D03*
Y336550D02*
D03*
Y393700D02*
D03*
X234950Y215906D02*
D03*
Y279324D02*
D03*
X114300Y279400D02*
D03*
X76200Y323850D02*
D03*
X31750Y298450D02*
D03*
X-114300Y323850D02*
D03*
Y273050D02*
D03*
X-214630Y248160D02*
D03*
Y217710D02*
D03*
X-115570Y187484D02*
D03*
X-114300Y133350D02*
D03*
X-38282Y137615D02*
D03*
X-87500Y91733D02*
D03*
X-56252D02*
D03*
X-13970D02*
D03*
X196850Y19050D02*
D03*
X101600D02*
D03*
X38100D02*
D03*
X-6350D02*
D03*
X-57150D02*
D03*
X-101600D02*
D03*
X57500Y87980D02*
D03*
X62491Y94002D02*
D03*
X-142128Y60308D02*
D03*
X-135325Y60578D02*
D03*
X-128905Y60960D02*
D03*
X142780Y127920D02*
D03*
X-106680Y83820D02*
D03*
X-99125D02*
D03*
X-215900Y76454D02*
D03*
X-203200Y57150D02*
D03*
X-222250Y577850D02*
D03*
Y615950D02*
D03*
X-120650Y635000D02*
D03*
X-101621D02*
D03*
X-38177Y679450D02*
D03*
X-12700Y615950D02*
D03*
X31750Y584200D02*
D03*
X0Y552652D02*
D03*
X-31750Y520700D02*
D03*
X63500Y365760D02*
D03*
X186690Y224011D02*
D03*
Y237490D02*
D03*
X-103500Y543640D02*
D03*
X-118500Y518160D02*
D03*
X-123500Y523240D02*
D03*
X200660Y200660D02*
D03*
X-163500Y476580D02*
D03*
X-148500Y488950D02*
D03*
X-153500Y494030D02*
D03*
X-178750Y494760D02*
D03*
X-158500Y518160D02*
D03*
X-163500Y523240D02*
D03*
X-162560Y191770D02*
D03*
X-87630Y189200D02*
D03*
X-77470D02*
D03*
X-37500Y115570D02*
D03*
X-72500Y191770D02*
D03*
X-32050Y734360D02*
D03*
X-35820Y751580D02*
D03*
X125230Y741680D02*
D03*
X16129Y661289D02*
D03*
X100330Y722630D02*
D03*
X82550D02*
D03*
X64770D02*
D03*
X72500Y94090D02*
D03*
X-180600Y201810D02*
D03*
X-168500Y472440D02*
D03*
X-80010Y701040D02*
D03*
X-25690Y700060D02*
D03*
X-52451Y625729D02*
D03*
X-70549Y650240D02*
D03*
X-103500Y494030D02*
D03*
X-83500Y494350D02*
D03*
X-157500Y213360D02*
D03*
X-46069Y604869D02*
D03*
X-130810Y765810D02*
D03*
X-70549Y594360D02*
D03*
X-83820Y650240D02*
D03*
Y595010D02*
D03*
X-173500Y523240D02*
D03*
X-62730Y470470D02*
D03*
X-90170Y454660D02*
D03*
X22080Y249770D02*
D03*
X-29210Y245650D02*
D03*
X54610Y248920D02*
D03*
X-142500Y182880D02*
D03*
X-137500Y160020D02*
D03*
X-132500Y182880D02*
D03*
X-208850Y209550D02*
D03*
X-137160Y688721D02*
D03*
X-124460Y700060D02*
D03*
X-233680Y669290D02*
D03*
X-105310Y735430D02*
D03*
X-97790Y774700D02*
D03*
X62230Y577930D02*
D03*
X-157900Y224790D02*
D03*
X-152500Y189230D02*
D03*
X137730Y741680D02*
D03*
X43529Y558880D02*
D03*
X34290D02*
D03*
X112730Y741680D02*
D03*
X72500Y631190D02*
D03*
X135350Y727470D02*
D03*
X175730Y734060D02*
D03*
X193381D02*
D03*
X236220Y705739D02*
D03*
X206080Y733719D02*
D03*
X219710Y534035D02*
D03*
X10160Y337820D02*
D03*
Y261620D02*
D03*
X110490Y256540D02*
D03*
X-7500Y115570D02*
D03*
X-12500Y127000D02*
D03*
X-22500Y144480D02*
D03*
X-17500Y139425D02*
D03*
X-62500Y191770D02*
D03*
X-67500Y189480D02*
D03*
X-82500Y191770D02*
D03*
Y162560D02*
D03*
X-67500Y156210D02*
D03*
X-57500Y115570D02*
D03*
X-47491D02*
D03*
X-55152Y132551D02*
D03*
X-92710Y162560D02*
D03*
X-97250Y151130D02*
D03*
X-67500Y97600D02*
D03*
X-72500Y94630D02*
D03*
X-42500Y97600D02*
D03*
X-32500D02*
D03*
X-67500Y162560D02*
D03*
X-60960Y151130D02*
D03*
X-27500Y115487D02*
D03*
X-48260Y214630D02*
D03*
X-87500Y117210D02*
D03*
X-147230Y548550D02*
D03*
X-127000Y557530D02*
D03*
X-93500Y543640D02*
D03*
X-99060Y612140D02*
D03*
X-98500Y547290D02*
D03*
X-99095Y605755D02*
D03*
X-171110Y637540D02*
D03*
X-179070Y709930D02*
D03*
X-165091Y548649D02*
D03*
X54800Y714311D02*
D03*
X151130Y662940D02*
D03*
X-157480Y154665D02*
D03*
X-97500Y182880D02*
D03*
X-220980Y202819D02*
D03*
X-178750Y546619D02*
D03*
X-56166Y350193D02*
D03*
X-220653D02*
D03*
X137730Y604869D02*
D03*
X-143510Y494030D02*
D03*
X-78500Y483880D02*
D03*
X-73500Y480220D02*
D03*
D35*
X54990Y577850D02*
D03*
Y562610D02*
D03*
X-51770Y455230D02*
D03*
Y470470D02*
D03*
D36*
Y384200D02*
D03*
Y393700D02*
D03*
Y403200D02*
D03*
X-77770D02*
D03*
Y393700D02*
D03*
Y384200D02*
D03*
D37*
X-34193Y350490D02*
D03*
X-34637Y365520D02*
D03*
X-26290Y350520D02*
D03*
Y365520D02*
D03*
X-18290Y350520D02*
D03*
Y365520D02*
D03*
X-10290Y350520D02*
D03*
Y365520D02*
D03*
D38*
X10160Y368935D02*
D03*
Y347345D02*
D03*
X209550Y512445D02*
D03*
Y534035D02*
D03*
X232410Y465455D02*
D03*
Y443865D02*
D03*
D39*
X-22010Y238090D02*
D03*
X-11010D02*
D03*
X-10D02*
D03*
X10990D02*
D03*
X21990D02*
D03*
X32990D02*
D03*
X43990D02*
D03*
X54990D02*
D03*
D40*
X-58760Y295090D02*
D03*
Y212090D02*
D03*
X78740Y295090D02*
D03*
Y212090D02*
D03*
D41*
X212430Y426860D02*
D03*
X218780Y691020D02*
D03*
X-145709Y612280D02*
D03*
D42*
X199730Y426860D02*
D03*
X187031D02*
D03*
X174331D02*
D03*
Y482740D02*
D03*
X187031D02*
D03*
X199730D02*
D03*
X212430D02*
D03*
X206080Y691020D02*
D03*
X193381D02*
D03*
X180681D02*
D03*
Y746900D02*
D03*
X193381D02*
D03*
X206080D02*
D03*
X218780D02*
D03*
X-158410Y612280D02*
D03*
X-171110D02*
D03*
X-183810D02*
D03*
Y668160D02*
D03*
X-171110D02*
D03*
X-158410D02*
D03*
X-145709D02*
D03*
D43*
X-84470Y761340D02*
D03*
X-59070D02*
D03*
Y671340D02*
D03*
X-84470D02*
D03*
D44*
X-8890Y768060D02*
D03*
X-34290D02*
D03*
Y700060D02*
D03*
X-8890D02*
D03*
D45*
X64180Y781050D02*
D03*
X22180D02*
D03*
D46*
X-110490Y450700D02*
D03*
Y393700D02*
D03*
D47*
X-77470Y454660D02*
D03*
Y429260D02*
D03*
D48*
X137730Y208790D02*
D03*
Y240790D02*
D03*
X110490Y208790D02*
D03*
Y240790D02*
D03*
X106680Y518920D02*
D03*
Y486920D02*
D03*
D49*
X-153632Y782371D02*
D03*
X-130696Y772833D02*
D03*
Y791908D02*
D03*
D50*
X-186690Y790639D02*
D03*
Y754639D02*
D03*
D51*
X147830Y781050D02*
D03*
X179830D02*
D03*
D52*
X193470Y625729D02*
D03*
X151970D02*
D03*
D53*
X64180Y781050D02*
X147830D01*
Y731010D02*
Y781050D01*
Y731010D02*
X165100Y713740D01*
X193381Y639789D02*
X193470Y639699D01*
X193381Y639789D02*
Y691020D01*
X229870Y713740D02*
X236220Y707390D01*
X206080Y712811D02*
X207010Y713740D01*
X206080Y691020D02*
Y712811D01*
X207010Y713740D02*
X229870D01*
X165100D02*
X207010D01*
X236220Y699021D02*
Y705739D01*
Y707390D01*
M02*
