%FSLAX44Y44*%
%MOMM*%
G71*
G01*
G75*
G04 Layer_Color=8388736*
%ADD10R,0.8000X1.5000*%
%ADD11R,1.5000X1.0000*%
%ADD12R,1.0160X0.8890*%
%ADD13R,0.3000X1.3500*%
%ADD14R,0.2500X1.3500*%
%ADD15R,3.0000X2.1000*%
%ADD16R,2.1000X0.8000*%
%ADD17R,2.1844X2.4130*%
%ADD18R,0.3000X1.1000*%
%ADD19R,0.8128X1.0668*%
%ADD20R,0.8000X1.6000*%
%ADD21R,2.1000X3.0000*%
%ADD22R,0.8000X2.1000*%
%ADD23R,1.2954X1.1938*%
%ADD24R,0.8890X1.0160*%
%ADD25R,0.7000X0.6000*%
%ADD26R,1.3970X1.3970*%
%ADD27C,0.6000*%
%ADD28C,0.2540*%
%ADD29C,0.5000*%
%ADD30C,1.0000*%
%ADD31C,0.0254*%
%ADD32C,0.0254*%
G04:AMPARAMS|DCode=33|XSize=4mm|YSize=4mm|CornerRadius=2mm|HoleSize=0mm|Usage=FLASHONLY|Rotation=0.000|XOffset=0mm|YOffset=0mm|HoleType=Round|Shape=RoundedRectangle|*
%AMROUNDEDRECTD33*
21,1,4.0000,0.0000,0,0,0.0*
21,1,0.0000,4.0000,0,0,0.0*
1,1,4.0000,0.0000,0.0000*
1,1,4.0000,0.0000,0.0000*
1,1,4.0000,0.0000,0.0000*
1,1,4.0000,0.0000,0.0000*
%
%ADD33ROUNDEDRECTD33*%
%ADD34C,0.4500*%
%ADD35R,0.8128X0.8128*%
%ADD36R,1.2700X0.5080*%
%ADD37R,0.5000X0.8000*%
%ADD38R,1.3970X1.3970*%
%ADD39R,0.8000X1.5000*%
%ADD40R,1.4500X2.0000*%
%ADD41R,0.6096X2.0320*%
%ADD42O,0.6096X2.0320*%
%ADD43R,1.2000X1.8000*%
%ADD44R,1.0000X1.6000*%
%ADD45R,2.0000X2.0000*%
%ADD46R,2.5000X2.2000*%
%ADD47R,1.2954X1.6002*%
%ADD48R,1.6000X1.2000*%
%ADD49R,1.0668X0.8128*%
%ADD50R,3.5000X1.0000*%
%ADD51R,1.2000X1.6000*%
%ADD52R,2.1500X6.3000*%
%ADD53C,0.8000*%
%ADD54C,0.1200*%
%ADD55C,0.1000*%
%ADD56C,0.1501*%
%ADD57C,0.1500*%
%ADD58C,0.1250*%
%ADD59C,0.2032*%
%ADD60R,1.0032X1.7032*%
%ADD61R,1.7032X1.2032*%
%ADD62R,1.2192X1.0922*%
%ADD63R,0.5032X1.5532*%
%ADD64R,0.4532X1.5532*%
%ADD65R,3.2032X2.3032*%
%ADD66R,2.3032X1.0032*%
%ADD67R,2.3876X2.6162*%
%ADD68R,0.5032X1.3032*%
%ADD69R,1.0160X1.2700*%
%ADD70R,1.0032X1.8032*%
%ADD71R,2.3032X3.2032*%
%ADD72R,1.0032X2.3032*%
%ADD73R,1.4986X1.3970*%
%ADD74R,1.0922X1.2192*%
%ADD75R,0.9032X0.8032*%
%ADD76R,1.6002X1.6002*%
%ADD77C,0.2286*%
G04:AMPARAMS|DCode=78|XSize=4.2032mm|YSize=4.2032mm|CornerRadius=2.1016mm|HoleSize=0mm|Usage=FLASHONLY|Rotation=0.000|XOffset=0mm|YOffset=0mm|HoleType=Round|Shape=RoundedRectangle|*
%AMROUNDEDRECTD78*
21,1,4.2032,0.0000,0,0,0.0*
21,1,0.0000,4.2032,0,0,0.0*
1,1,4.2032,0.0000,0.0000*
1,1,4.2032,0.0000,0.0000*
1,1,4.2032,0.0000,0.0000*
1,1,4.2032,0.0000,0.0000*
%
%ADD78ROUNDEDRECTD78*%
%ADD79C,0.6532*%
D31*
X-71250Y78600D02*
X-71243D01*
X-97750Y68000D02*
X-97743D01*
X160473Y765320D02*
X160480D01*
X133973Y754720D02*
X133980D01*
X135473Y765320D02*
X135480D01*
X110473D02*
X110480D01*
X83973Y754720D02*
X83980D01*
X108973D02*
X108980D01*
X135473Y765320D02*
X135480D01*
D60*
X274800Y40230D02*
D03*
X235100D02*
D03*
D61*
X290000Y17630D02*
D03*
X220000D02*
D03*
D62*
X-271780Y200279D02*
D03*
Y216281D02*
D03*
X-34989Y604869D02*
D03*
Y620871D02*
D03*
X-70549Y604869D02*
D03*
Y620871D02*
D03*
X194310Y671449D02*
D03*
Y687451D02*
D03*
X-137500Y653288D02*
D03*
Y669290D02*
D03*
X-80010Y724281D02*
D03*
Y708279D02*
D03*
X-60960Y724281D02*
D03*
Y708279D02*
D03*
X-124460D02*
D03*
Y724281D02*
D03*
X194310Y705739D02*
D03*
Y721741D02*
D03*
X175730Y705739D02*
D03*
Y721741D02*
D03*
X157480Y705739D02*
D03*
Y721741D02*
D03*
X213360Y705739D02*
D03*
Y721741D02*
D03*
X-105410Y708279D02*
D03*
Y724281D02*
D03*
X-92710Y669429D02*
D03*
Y685431D02*
D03*
X-118500Y669290D02*
D03*
Y653288D02*
D03*
X115570Y660019D02*
D03*
Y676021D02*
D03*
D63*
X-178750Y504310D02*
D03*
Y533810D02*
D03*
X-58250Y504310D02*
D03*
Y533810D02*
D03*
X-172750Y172310D02*
D03*
Y201810D02*
D03*
X-52250Y172310D02*
D03*
Y201810D02*
D03*
D64*
X-173500Y504310D02*
D03*
Y533810D02*
D03*
X-168500Y504310D02*
D03*
Y533810D02*
D03*
X-163500Y504310D02*
D03*
Y533810D02*
D03*
X-158500Y504310D02*
D03*
Y533810D02*
D03*
X-153500Y504310D02*
D03*
Y533810D02*
D03*
X-148500Y504310D02*
D03*
Y533810D02*
D03*
X-143500Y504310D02*
D03*
Y533810D02*
D03*
X-138500Y504310D02*
D03*
Y533810D02*
D03*
X-133500Y504310D02*
D03*
Y533810D02*
D03*
X-128500Y504310D02*
D03*
Y533810D02*
D03*
X-123500Y504310D02*
D03*
Y533810D02*
D03*
X-118500Y504310D02*
D03*
Y533810D02*
D03*
X-113500Y504310D02*
D03*
Y533810D02*
D03*
X-108500Y504310D02*
D03*
Y533810D02*
D03*
X-103500Y504310D02*
D03*
Y533810D02*
D03*
X-98500Y504310D02*
D03*
Y533810D02*
D03*
X-93500Y504310D02*
D03*
Y533810D02*
D03*
X-88500Y504310D02*
D03*
Y533810D02*
D03*
X-83500Y504310D02*
D03*
Y533810D02*
D03*
X-78500Y504310D02*
D03*
Y533810D02*
D03*
X-73500Y504310D02*
D03*
Y533810D02*
D03*
X-68500Y504310D02*
D03*
Y533810D02*
D03*
X-63500Y504310D02*
D03*
Y533810D02*
D03*
X-167500Y172310D02*
D03*
Y201810D02*
D03*
X-162500Y172310D02*
D03*
Y201810D02*
D03*
X-157500Y172310D02*
D03*
Y201810D02*
D03*
X-152500Y172310D02*
D03*
Y201810D02*
D03*
X-147500Y172310D02*
D03*
Y201810D02*
D03*
X-142500Y172310D02*
D03*
Y201810D02*
D03*
X-137500Y172310D02*
D03*
Y201810D02*
D03*
X-132500Y172310D02*
D03*
Y201810D02*
D03*
X-127500Y172310D02*
D03*
Y201810D02*
D03*
X-122500Y172310D02*
D03*
Y201810D02*
D03*
X-117500Y172310D02*
D03*
Y201810D02*
D03*
X-112500Y172310D02*
D03*
Y201810D02*
D03*
X-107500Y172310D02*
D03*
Y201810D02*
D03*
X-102500Y172310D02*
D03*
Y201810D02*
D03*
X-97500Y172310D02*
D03*
Y201810D02*
D03*
X-92500Y172310D02*
D03*
Y201810D02*
D03*
X-87500Y172310D02*
D03*
Y201810D02*
D03*
X-82500Y172310D02*
D03*
Y201810D02*
D03*
X-77500Y172310D02*
D03*
Y201810D02*
D03*
X-72500Y172310D02*
D03*
Y201810D02*
D03*
X-67500Y172310D02*
D03*
Y201810D02*
D03*
X-62500Y172310D02*
D03*
Y201810D02*
D03*
X-57500Y172310D02*
D03*
Y201810D02*
D03*
D65*
X231400Y300270D02*
D03*
Y184870D02*
D03*
X-235210Y782870D02*
D03*
Y692870D02*
D03*
D66*
X200400Y274020D02*
D03*
Y261520D02*
D03*
Y223620D02*
D03*
Y211120D02*
D03*
Y236320D02*
D03*
Y248820D02*
D03*
X-204210Y719120D02*
D03*
Y731620D02*
D03*
Y744120D02*
D03*
Y756620D02*
D03*
D67*
X92443Y80065D02*
D03*
X-142437Y80065D02*
D03*
D68*
X-122500Y106500D02*
D03*
X-117500D02*
D03*
X-112500D02*
D03*
X-107500D02*
D03*
X-102500D02*
D03*
X-97500D02*
D03*
X-92500D02*
D03*
X-87500D02*
D03*
X-82500D02*
D03*
X-77500D02*
D03*
X-72500D02*
D03*
X-67500D02*
D03*
X-62500D02*
D03*
X-57500D02*
D03*
X-52500D02*
D03*
X-47500D02*
D03*
X-42500D02*
D03*
X-37500D02*
D03*
X-32500D02*
D03*
X-27500D02*
D03*
X-22500D02*
D03*
X-17500D02*
D03*
X-12500D02*
D03*
X-7500D02*
D03*
X-2500D02*
D03*
X2500D02*
D03*
X7500D02*
D03*
X12500D02*
D03*
X17500D02*
D03*
X22500D02*
D03*
X27500D02*
D03*
X32500D02*
D03*
X37500D02*
D03*
X42500D02*
D03*
X47500D02*
D03*
X52500D02*
D03*
X57500D02*
D03*
X62500D02*
D03*
X67500D02*
D03*
X72500D02*
D03*
D69*
X-25451Y662902D02*
D03*
X-15913Y639966D02*
D03*
X-34989D02*
D03*
X-61011Y662902D02*
D03*
X-51473Y639966D02*
D03*
X-70549D02*
D03*
D70*
X150230Y753320D02*
D03*
X137730D02*
D03*
X112730D02*
D03*
X87730D02*
D03*
X75230D02*
D03*
X62730D02*
D03*
X50230D02*
D03*
X37730D02*
D03*
X100230D02*
D03*
X125230D02*
D03*
D71*
X175730Y782320D02*
D03*
X12230D02*
D03*
X-15960Y782580D02*
D03*
X-169460D02*
D03*
D72*
X-42010Y751580D02*
D03*
X-143410D02*
D03*
X-130710D02*
D03*
X-54710D02*
D03*
X-67410D02*
D03*
X-105310D02*
D03*
X-92810D02*
D03*
X-80110D02*
D03*
X-118010D02*
D03*
D73*
X-271780Y239770D02*
D03*
Y259770D02*
D03*
X115570Y697390D02*
D03*
Y717390D02*
D03*
D74*
X279781Y63500D02*
D03*
X263779D02*
D03*
D75*
X-60960Y677430D02*
D03*
Y691630D02*
D03*
D76*
X103505Y628650D02*
D03*
X125095D02*
D03*
X103505Y604869D02*
D03*
X125095D02*
D03*
D77*
X265800Y25630D02*
D03*
X243600D02*
D03*
D78*
X-230000Y543060D02*
D03*
X150000D02*
D03*
Y163060D02*
D03*
X-230000D02*
D03*
X160000Y30000D02*
D03*
X-160000D02*
D03*
D79*
X62230Y659130D02*
D03*
Y666190D02*
D03*
X-203200Y693420D02*
D03*
X-178750Y724112D02*
D03*
X37500Y778510D02*
D03*
X37730Y770890D02*
D03*
X-19050Y177800D02*
D03*
X6350Y139495D02*
D03*
X63500Y76200D02*
D03*
X120825D02*
D03*
X165100D02*
D03*
X25223Y184150D02*
D03*
X-6350Y203523D02*
D03*
X228600Y95243D02*
D03*
Y145755D02*
D03*
X63767Y146179D02*
D03*
X114729Y146050D02*
D03*
X234950Y342900D02*
D03*
X158750Y311150D02*
D03*
Y342900D02*
D03*
X127000D02*
D03*
X203200Y450850D02*
D03*
X184150Y457200D02*
D03*
X120619Y425450D02*
D03*
X101600Y457018D02*
D03*
X0Y438150D02*
D03*
Y476250D02*
D03*
X38100Y457200D02*
D03*
Y400050D02*
D03*
X-19050D02*
D03*
X197644Y565150D02*
D03*
X241300Y660400D02*
D03*
Y736417D02*
D03*
Y781050D02*
D03*
X203228D02*
D03*
X134080Y769620D02*
D03*
X99060D02*
D03*
X-234956Y762000D02*
D03*
X-190812Y774700D02*
D03*
X-44450Y787696D02*
D03*
X-76200Y787400D02*
D03*
X6350Y698500D02*
D03*
X12700Y736600D02*
D03*
X73660Y671830D02*
D03*
X87730Y685380D02*
D03*
X-241300Y217964D02*
D03*
X-241507Y247650D02*
D03*
X-241300Y278130D02*
D03*
Y336550D02*
D03*
Y393700D02*
D03*
X234950Y215906D02*
D03*
Y279324D02*
D03*
X114300Y279400D02*
D03*
X76200Y323850D02*
D03*
X31750Y298450D02*
D03*
X-114300Y323850D02*
D03*
Y273050D02*
D03*
X-214630Y248160D02*
D03*
Y217710D02*
D03*
X-115570Y187484D02*
D03*
X-114300Y133350D02*
D03*
X-38282Y137615D02*
D03*
X-87500Y91733D02*
D03*
X-56252D02*
D03*
X-13970D02*
D03*
X196850Y19050D02*
D03*
X101600D02*
D03*
X38100D02*
D03*
X-6350D02*
D03*
X-57150D02*
D03*
X-101600D02*
D03*
X57500Y87980D02*
D03*
X62491Y94002D02*
D03*
X-142128Y60308D02*
D03*
X-135325Y60578D02*
D03*
X-128905Y60960D02*
D03*
X142780Y127920D02*
D03*
X-106680Y83820D02*
D03*
X-99125D02*
D03*
X-215900Y76454D02*
D03*
X-203200Y57150D02*
D03*
X-222250Y577850D02*
D03*
Y615950D02*
D03*
X-120650Y635000D02*
D03*
X-101621D02*
D03*
X-38177Y679450D02*
D03*
X-12700Y615950D02*
D03*
X31750Y584200D02*
D03*
X0Y552652D02*
D03*
X-31750Y520700D02*
D03*
X63500Y365760D02*
D03*
X186690Y224011D02*
D03*
Y237490D02*
D03*
X-103500Y543640D02*
D03*
X-118500Y518160D02*
D03*
X-123500Y523240D02*
D03*
X200660Y200660D02*
D03*
X-163500Y476580D02*
D03*
X-148500Y488950D02*
D03*
X-153500Y494030D02*
D03*
X-178750Y494760D02*
D03*
X-158500Y518160D02*
D03*
X-163500Y523240D02*
D03*
X-162560Y191770D02*
D03*
X-87630Y189200D02*
D03*
X-77470D02*
D03*
X-37500Y115570D02*
D03*
X-72500Y191770D02*
D03*
X-32050Y734360D02*
D03*
X-35820Y751580D02*
D03*
X125230Y741680D02*
D03*
X16129Y661289D02*
D03*
X100330Y722630D02*
D03*
X82550D02*
D03*
X64770D02*
D03*
X72500Y94090D02*
D03*
X-180600Y201810D02*
D03*
X-168500Y472440D02*
D03*
X-80010Y701040D02*
D03*
X-25690Y700060D02*
D03*
X-52451Y625729D02*
D03*
X-70549Y650240D02*
D03*
X-103500Y494030D02*
D03*
X-83500Y494350D02*
D03*
X-157500Y213360D02*
D03*
X-46069Y604869D02*
D03*
X-130810Y765810D02*
D03*
X-70549Y594360D02*
D03*
X-83820Y650240D02*
D03*
Y595010D02*
D03*
X-173500Y523240D02*
D03*
X-62730Y470470D02*
D03*
X-90170Y454660D02*
D03*
X22080Y249770D02*
D03*
X-29210Y245650D02*
D03*
X54610Y248920D02*
D03*
X-142500Y182880D02*
D03*
X-137500Y160020D02*
D03*
X-132500Y182880D02*
D03*
X-208850Y209550D02*
D03*
X-137160Y688721D02*
D03*
X-124460Y700060D02*
D03*
X-233680Y669290D02*
D03*
X-105310Y735430D02*
D03*
X-97790Y774700D02*
D03*
X62230Y577930D02*
D03*
X-157900Y224790D02*
D03*
X-152500Y189230D02*
D03*
X137730Y741680D02*
D03*
X43529Y558880D02*
D03*
X34290D02*
D03*
X112730Y741680D02*
D03*
X72500Y631190D02*
D03*
X135350Y727470D02*
D03*
X175730Y734060D02*
D03*
X193381D02*
D03*
X236220Y705739D02*
D03*
X206080Y733719D02*
D03*
X219710Y534035D02*
D03*
X10160Y337820D02*
D03*
Y261620D02*
D03*
X110490Y256540D02*
D03*
X-7500Y115570D02*
D03*
X-12500Y127000D02*
D03*
X-22500Y144480D02*
D03*
X-17500Y139425D02*
D03*
X-62500Y191770D02*
D03*
X-67500Y189480D02*
D03*
X-82500Y191770D02*
D03*
Y162560D02*
D03*
X-67500Y156210D02*
D03*
X-57500Y115570D02*
D03*
X-47491D02*
D03*
X-55152Y132551D02*
D03*
X-92710Y162560D02*
D03*
X-97250Y151130D02*
D03*
X-67500Y97600D02*
D03*
X-72500Y94630D02*
D03*
X-42500Y97600D02*
D03*
X-32500D02*
D03*
X-67500Y162560D02*
D03*
X-60960Y151130D02*
D03*
X-27500Y115487D02*
D03*
X-48260Y214630D02*
D03*
X-87500Y117210D02*
D03*
X-147230Y548550D02*
D03*
X-127000Y557530D02*
D03*
X-93500Y543640D02*
D03*
X-99060Y612140D02*
D03*
X-98500Y547290D02*
D03*
X-99095Y605755D02*
D03*
X-171110Y637540D02*
D03*
X-179070Y709930D02*
D03*
X-165091Y548649D02*
D03*
X54800Y714311D02*
D03*
X151130Y662940D02*
D03*
X-157480Y154665D02*
D03*
X-97500Y182880D02*
D03*
X-220980Y202819D02*
D03*
X-178750Y546619D02*
D03*
X-56166Y350193D02*
D03*
X-220653D02*
D03*
X137730Y604869D02*
D03*
X-143510Y494030D02*
D03*
X-78500Y483880D02*
D03*
X-73500Y480220D02*
D03*
M02*
