M48
;Layer_Color=9474304
;FILE_FORMAT=4:4
METRIC,LZ
;TYPE=PLATED
T1F00S00C0.3080
T2F00S00C2.2000
;TYPE=NON_PLATED
T3F00S00C0.8000
%
T01
X-0000635Y0001905
X000381
X001016
X00120825Y000762
X001651
X002286Y00095243
X0019685Y0001905
X000635Y000762
X000575Y0008798
X00062491Y00094002
X000725Y0009409
X-0001397Y00091733
X-000325Y000976
X-000425
X-00056252Y00091733
X-000675Y000976
X-000725Y0009463
X-000875Y00091733
X-00099125Y0008382
X-0010668
X-00128905Y0006096
X-00135325Y00060578
X-00142128Y00060308
X-002032Y0005715
X-002159Y00076454
X-001016Y0001905
X-0005715
X-000575Y0011557
X-00047491
X-000375
X-000275Y00115487
X-000125Y00127
X-000175Y00139425
X-000225Y0014448
X-00038282Y00137615
X-00055152Y00132551
X-0006096Y0015113
X-000675Y0015621
Y0016256
X-000825
X-0009271
X-0009725Y0015113
X-000975Y0018288
X-0008763Y001892
X-000825Y0019177
X-0007747Y001892
X-000725Y0019177
X-000675Y0018948
X-000625Y0019177
X-0004826Y0021463
X-0002921Y0024565
X-0001905Y001778
X-0011557Y00187484
X-001325Y0018288
X-001425
X-001525Y0018923
X-0016256Y0019177
X-001575Y0021336
X-001579Y0022479
X-001806Y0020181
X-0020885Y0020955
X-0021463Y0021771
X-0022098Y00202819
X-002413Y00217964
X-00241507Y0024765
X-0021463Y0024816
X-002413Y0027813
Y0033655
X-00220653Y00350193
X-002413Y003937
X-001685Y0047244
X-001635Y0047658
X-001485Y0048895
X-0014351Y0049403
X-001535
X-0017875Y0049476
X-001035Y0049403
X-000835Y0049435
X-000785Y0048388
X-000735Y0048022
X-0006273Y0047047
X-0009017Y0045466
X-0001905Y0040005
X-00056166Y00350193
X-001143Y0032385
Y0027305
X-001375Y0016002
X-0015748Y00154665
X-001143Y0013335
X-000875Y0011721
X-000075Y0011557
X0000635Y00139495
X00025223Y0018415
X-0000635Y00203523
X0001016Y0026162
X0002208Y0024977
X0005461Y0024892
X0011049Y0025654
X001143Y002794
X0015875Y0031115
Y003429
X00127
X000762Y0032385
X000635Y0036576
X000381Y0040005
Y004572
X0Y0043815
Y0047625
X001016Y00457018
X00120619Y0042545
X0018415Y004572
X002032Y0045085
X0023495Y003429
Y00279324
Y00215906
X0020066Y0020066
X0018669Y00224011
Y0023749
X002286Y00145755
X0014278Y0012792
X00114729Y0014605
X00063767Y00146179
X0003175Y0029845
X0001016Y0033782
X0Y00552652
X0003429Y0055888
X00043529
X0003175Y005842
X0006223Y0057793
X000725Y0063119
X0006223Y0065913
Y0066619
X0007366Y0067183
X0008773Y0068538
X0008255Y0072263
X0010033
X0011273Y0074168
X0012523
X0013773
X0013535Y0072747
X0013408Y0076962
X0009906
X0003773Y0077089
X000375Y0077851
X000127Y007366
X0000635Y006985
X00016129Y00661289
X000548Y00714311
X0006477Y0072263
X0017573Y0073406
X00193381
X0020608Y00733719
X002413Y00736417
X0023622Y00705739
X002413Y006604
X0015113Y0066294
X0013773Y00604869
X00197644Y0056515
X0021971Y00534035
X00203228Y0078105
X002413
X-0004445Y00787696
X-000762Y007874
X-0009779Y007747
X-0013081Y0076581
X-0010531Y0073543
X-0012446Y0070006
X-0013716Y00688721
X-0017907Y0070993
X-0017875Y00724112
X-002032Y0069342
X-0023368Y0066929
X-0022225Y0061595
Y0057785
X-0017875Y00546619
X-00165091Y00548649
X-0014723Y0054855
X-00127Y0055753
X-001035Y0054364
X-000985Y0054729
X-000935Y0054364
X-001235Y0052324
X-001185Y0051816
X-001585
X-001635Y0052324
X-001735
X-0017111Y0063754
X-0012065Y00635
X-00101621
X-0009906Y0061214
X-00099095Y00605755
X-0008382Y0059501
X-00070549Y0059436
X-00046069Y00604869
X-00052451Y00625729
X-00070549Y0065024
X-0008382
X-0008001Y0070104
X-0002569Y0070006
X-00038177Y0067945
X-0003205Y0073436
X-0003582Y0075158
X-000127Y0061595
X-0003175Y005207
X-00190812Y007747
X-00234956Y00762
T02
X0016Y0003
X-0016
X-0023Y0016306
X0015
Y0054306
X-0023
T03
X002436Y0002563
X002658
M30
