G04*
G04 #@! TF.GenerationSoftware,Altium Limited,Altium Designer,20.0.2 (26)*
G04*
G04 Layer_Physical_Order=2*
G04 Layer_Color=36540*
%FSLAX44Y44*%
%MOMM*%
G71*
G01*
G75*
%ADD45C,1.0000*%
%ADD75C,0.3000*%
%ADD76C,0.2540*%
%ADD81C,0.5000*%
G36*
X70479Y308787D02*
X87681Y304349D01*
X104608Y298954D01*
X121206Y292618D01*
X137423Y285362D01*
X153207Y277207D01*
X168509Y268181D01*
X183281Y258311D01*
X197476Y247628D01*
X211050Y236165D01*
X223960Y223960D01*
X236165Y211050D01*
X247628Y197476D01*
X258311Y183281D01*
X268181Y168509D01*
X277207Y153207D01*
X285362Y137423D01*
X292618Y121206D01*
X298954Y104608D01*
X304349Y87681D01*
X308787Y70479D01*
X312253Y53054D01*
X313489Y44293D01*
X312656Y43334D01*
X250000D01*
X248724Y43080D01*
X247642Y42358D01*
X246920Y41276D01*
X246666Y40000D01*
Y-40000D01*
X246676Y-40053D01*
X157916Y-144797D01*
X156335Y-145452D01*
X154977Y-146494D01*
X153935Y-147852D01*
X153280Y-149433D01*
X153057Y-151130D01*
X153280Y-152827D01*
X153935Y-154408D01*
X154005Y-154499D01*
Y-231699D01*
X154057Y-231956D01*
X153700Y-235575D01*
X153162Y-237348D01*
X152569Y-239302D01*
X150733Y-242737D01*
X148426Y-245549D01*
X148208Y-245694D01*
X125907Y-267995D01*
X125762Y-268213D01*
X122950Y-270520D01*
X119515Y-272356D01*
X117561Y-272949D01*
X115788Y-273487D01*
X112169Y-273843D01*
X111912Y-273792D01*
X62538D01*
X62404Y-273819D01*
X60611Y-273583D01*
X58816Y-272839D01*
X57382Y-271739D01*
X57305Y-271625D01*
X57154Y-271524D01*
X56239Y-270154D01*
X55918Y-268538D01*
X55953Y-268360D01*
Y-249387D01*
X55954D01*
X55521Y-246093D01*
X54249Y-243023D01*
X52226Y-240387D01*
X52225Y-240388D01*
X52083Y-240293D01*
X49352Y-238051D01*
X46087Y-236306D01*
X42545Y-235232D01*
X41612Y-235140D01*
X41295Y-235077D01*
X41188Y-235098D01*
X39029Y-234886D01*
X38861Y-234852D01*
X-38322D01*
X-38579Y-234903D01*
X-42198Y-234547D01*
X-45925Y-233416D01*
X-49360Y-231580D01*
X-52172Y-229273D01*
X-52317Y-229055D01*
X-53085Y-228287D01*
X-53100Y-228173D01*
X-53755Y-226592D01*
X-54797Y-225234D01*
X-56155Y-224192D01*
X-57736Y-223537D01*
X-59433Y-223314D01*
X-61130Y-223537D01*
X-62711Y-224192D01*
X-62802Y-224262D01*
X-122882D01*
X-123016Y-224289D01*
X-124809Y-224053D01*
X-126604Y-223309D01*
X-128037Y-222210D01*
X-128113Y-222097D01*
X-139547Y-210663D01*
X-139660Y-210587D01*
X-140759Y-209154D01*
X-141503Y-207359D01*
X-141739Y-205566D01*
X-141712Y-205432D01*
Y-194313D01*
X-141755Y-194096D01*
X-142077Y-190829D01*
X-143093Y-187479D01*
X-144743Y-184392D01*
X-146826Y-181855D01*
X-146949Y-181671D01*
X-171938Y-156681D01*
X-172024Y-156624D01*
X-175645Y-153531D01*
X-179792Y-150990D01*
X-184286Y-149129D01*
X-189015Y-147993D01*
X-193762Y-147619D01*
X-193864Y-147599D01*
X-208963D01*
X-209155Y-147638D01*
X-211462Y-147334D01*
X-213790Y-146369D01*
X-215636Y-144953D01*
X-215745Y-144790D01*
X-215925Y-144610D01*
X-216143Y-144464D01*
X-218450Y-141653D01*
X-220286Y-138218D01*
X-221417Y-134491D01*
X-221773Y-130872D01*
X-221722Y-130615D01*
Y-75505D01*
X-220741Y-74699D01*
X-220443Y-74759D01*
X-219077Y-74487D01*
X-217919Y-73713D01*
X-217146Y-72556D01*
X-216874Y-71190D01*
X-217146Y-69824D01*
X-217919Y-68667D01*
X-219077Y-67893D01*
X-220443Y-67621D01*
X-220741Y-67681D01*
X-221722Y-66875D01*
Y-60960D01*
X-221756Y-60789D01*
X-222091Y-56535D01*
X-222757Y-53761D01*
X-222915Y-52969D01*
X-222966Y-52892D01*
X-223127Y-52218D01*
X-224826Y-48117D01*
X-227145Y-44333D01*
X-229917Y-41088D01*
X-230014Y-40943D01*
X-230472Y-40485D01*
X-230624Y-40383D01*
X-231978Y-38619D01*
X-232898Y-36397D01*
X-233188Y-34193D01*
X-233152Y-34013D01*
Y-4276D01*
X-231882Y-3421D01*
X-231140Y-3569D01*
X-229774Y-3297D01*
X-228617Y-2523D01*
X-227843Y-1366D01*
X-227571Y0D01*
X-227843Y1366D01*
X-228617Y2523D01*
X-229774Y3297D01*
X-231140Y3569D01*
X-231882Y3421D01*
X-233152Y4276D01*
Y41931D01*
X-233082Y42022D01*
X-232427Y43603D01*
X-232204Y45300D01*
X-232427Y46997D01*
X-233082Y48578D01*
X-234124Y49936D01*
X-235482Y50978D01*
X-237063Y51633D01*
X-238760Y51856D01*
X-240457Y51633D01*
X-242038Y50978D01*
X-243396Y49936D01*
X-244438Y48578D01*
X-249735Y43281D01*
X-250000Y43334D01*
X-312656D01*
X-313489Y44293D01*
X-312253Y53054D01*
X-308787Y70479D01*
X-304349Y87681D01*
X-298954Y104608D01*
X-292618Y121206D01*
X-285362Y137423D01*
X-277207Y153207D01*
X-268181Y168509D01*
X-258311Y183281D01*
X-247628Y197476D01*
X-236165Y211050D01*
X-223960Y223960D01*
X-211050Y236165D01*
X-197476Y247628D01*
X-183281Y258311D01*
X-168509Y268181D01*
X-153207Y277207D01*
X-137423Y285362D01*
X-121206Y292618D01*
X-104608Y298954D01*
X-87681Y304349D01*
X-70479Y308787D01*
X-55116Y311842D01*
X-54134Y311037D01*
Y250000D01*
X-53880Y248724D01*
X-53158Y247642D01*
X-52076Y246920D01*
X-50800Y246666D01*
X50800D01*
X52076Y246920D01*
X53158Y247642D01*
X53880Y248724D01*
X54134Y250000D01*
Y311037D01*
X55116Y311842D01*
X70479Y308787D01*
D02*
G37*
%LPC*%
G36*
X76070Y282969D02*
X74704Y282697D01*
X73547Y281923D01*
X72773Y280766D01*
X72502Y279400D01*
X72773Y278034D01*
X73547Y276877D01*
X74704Y276103D01*
X76070Y275831D01*
X77436Y276103D01*
X78593Y276877D01*
X79367Y278034D01*
X79639Y279400D01*
X79367Y280766D01*
X78593Y281923D01*
X77436Y282697D01*
X76070Y282969D01*
D02*
G37*
G36*
X-90170Y271539D02*
X-91536Y271267D01*
X-92693Y270493D01*
X-93467Y269336D01*
X-93739Y267970D01*
X-93467Y266604D01*
X-92693Y265447D01*
X-91536Y264673D01*
X-90170Y264401D01*
X-88804Y264673D01*
X-87647Y265447D01*
X-86873Y266604D01*
X-86601Y267970D01*
X-86873Y269336D01*
X-87647Y270493D01*
X-88804Y271267D01*
X-90170Y271539D01*
D02*
G37*
G36*
X-110490Y268999D02*
X-111856Y268727D01*
X-113013Y267953D01*
X-113787Y266796D01*
X-114059Y265430D01*
X-113787Y264064D01*
X-113013Y262907D01*
X-111856Y262133D01*
X-110490Y261861D01*
X-109124Y262133D01*
X-107967Y262907D01*
X-107193Y264064D01*
X-106921Y265430D01*
X-107193Y266796D01*
X-107967Y267953D01*
X-109124Y268727D01*
X-110490Y268999D01*
D02*
G37*
G36*
X-121230D02*
X-122596Y268727D01*
X-123753Y267953D01*
X-124527Y266796D01*
X-124799Y265430D01*
X-124527Y264064D01*
X-123753Y262907D01*
X-122596Y262133D01*
X-121230Y261861D01*
X-119864Y262133D01*
X-118707Y262907D01*
X-117933Y264064D01*
X-117661Y265430D01*
X-117933Y266796D01*
X-118707Y267953D01*
X-119864Y268727D01*
X-121230Y268999D01*
D02*
G37*
G36*
X-153670Y266459D02*
X-155036Y266187D01*
X-156193Y265413D01*
X-156967Y264256D01*
X-157239Y262890D01*
X-156967Y261524D01*
X-156193Y260367D01*
X-155036Y259593D01*
X-153670Y259321D01*
X-152304Y259593D01*
X-151147Y260367D01*
X-150373Y261524D01*
X-150101Y262890D01*
X-150373Y264256D01*
X-151147Y265413D01*
X-152304Y266187D01*
X-153670Y266459D01*
D02*
G37*
G36*
X133350Y251219D02*
X131984Y250947D01*
X130827Y250173D01*
X130053Y249016D01*
X129781Y247650D01*
X130053Y246284D01*
X130827Y245127D01*
X131984Y244353D01*
X133350Y244081D01*
X134716Y244353D01*
X135873Y245127D01*
X136647Y246284D01*
X136919Y247650D01*
X136647Y249016D01*
X135873Y250173D01*
X134716Y250947D01*
X133350Y251219D01*
D02*
G37*
G36*
X76200Y251131D02*
X74834Y250860D01*
X73677Y250086D01*
X72903Y248928D01*
X72631Y247563D01*
X72903Y246197D01*
X73677Y245039D01*
X74834Y244266D01*
X76200Y243994D01*
X77566Y244266D01*
X78723Y245039D01*
X79497Y246197D01*
X79769Y247563D01*
X79497Y248928D01*
X78723Y250086D01*
X77566Y250860D01*
X76200Y251131D01*
D02*
G37*
G36*
X-8890Y233439D02*
X-10256Y233167D01*
X-11413Y232393D01*
X-12187Y231236D01*
X-12459Y229870D01*
X-12187Y228504D01*
X-11413Y227347D01*
X-10256Y226573D01*
X-8890Y226301D01*
X-7524Y226573D01*
X-6367Y227347D01*
X-5593Y228504D01*
X-5321Y229870D01*
X-5593Y231236D01*
X-6367Y232393D01*
X-7524Y233167D01*
X-8890Y233439D01*
D02*
G37*
G36*
X-104140Y225819D02*
X-105506Y225547D01*
X-106663Y224773D01*
X-107437Y223616D01*
X-107709Y222250D01*
X-107437Y220884D01*
X-106663Y219727D01*
X-105506Y218953D01*
X-104140Y218681D01*
X-102774Y218953D01*
X-101617Y219727D01*
X-100843Y220884D01*
X-100571Y222250D01*
X-100843Y223616D01*
X-101617Y224773D01*
X-102774Y225547D01*
X-104140Y225819D01*
D02*
G37*
G36*
X-64160Y216929D02*
X-65526Y216657D01*
X-66683Y215883D01*
X-67457Y214726D01*
X-67729Y213360D01*
X-67457Y211994D01*
X-66683Y210837D01*
X-65526Y210063D01*
X-64160Y209791D01*
X-62794Y210063D01*
X-61637Y210837D01*
X-60863Y211994D01*
X-60591Y213360D01*
X-60863Y214726D01*
X-61637Y215883D01*
X-62794Y216657D01*
X-64160Y216929D01*
D02*
G37*
G36*
X63600Y215759D02*
X62234Y215487D01*
X61077Y214713D01*
X60303Y213556D01*
X60031Y212190D01*
X60303Y210824D01*
X61077Y209667D01*
X62234Y208893D01*
X63600Y208621D01*
X64966Y208893D01*
X66123Y209667D01*
X66897Y210824D01*
X67169Y212190D01*
X66897Y213556D01*
X66123Y214713D01*
X64966Y215487D01*
X63600Y215759D01*
D02*
G37*
G36*
X50900D02*
X49534Y215487D01*
X48377Y214713D01*
X47603Y213556D01*
X47331Y212190D01*
X47603Y210824D01*
X48377Y209667D01*
X49534Y208893D01*
X50900Y208621D01*
X52266Y208893D01*
X53423Y209667D01*
X54197Y210824D01*
X54469Y212190D01*
X54197Y213556D01*
X53423Y214713D01*
X52266Y215487D01*
X50900Y215759D01*
D02*
G37*
G36*
X-114300Y215659D02*
X-115666Y215387D01*
X-116823Y214613D01*
X-117597Y213456D01*
X-117869Y212090D01*
X-117597Y210724D01*
X-116823Y209567D01*
X-115666Y208793D01*
X-114300Y208521D01*
X-112934Y208793D01*
X-111777Y209567D01*
X-111003Y210724D01*
X-110731Y212090D01*
X-111003Y213456D01*
X-111777Y214613D01*
X-112934Y215387D01*
X-114300Y215659D01*
D02*
G37*
G36*
X165011Y213103D02*
X163645Y212831D01*
X162487Y212057D01*
X161714Y210900D01*
X161442Y209534D01*
X161714Y208169D01*
X162487Y207011D01*
X163645Y206237D01*
X165011Y205966D01*
X166376Y206237D01*
X167534Y207011D01*
X168307Y208169D01*
X168579Y209534D01*
X168307Y210900D01*
X167534Y212057D01*
X166376Y212831D01*
X165011Y213103D01*
D02*
G37*
G36*
X-160060Y209584D02*
X-161426Y209312D01*
X-162583Y208539D01*
X-163357Y207381D01*
X-163629Y206015D01*
X-163357Y204650D01*
X-162583Y203492D01*
X-161426Y202718D01*
X-160060Y202447D01*
X-158694Y202718D01*
X-157537Y203492D01*
X-156763Y204650D01*
X-156491Y206015D01*
X-156763Y207381D01*
X-157537Y208539D01*
X-158694Y209312D01*
X-160060Y209584D01*
D02*
G37*
G36*
X-29960Y197879D02*
X-31326Y197607D01*
X-32483Y196833D01*
X-33257Y195676D01*
X-33529Y194310D01*
X-33257Y192944D01*
X-32483Y191787D01*
X-31326Y191013D01*
X-29960Y190741D01*
X-28594Y191013D01*
X-27437Y191787D01*
X-26663Y192944D01*
X-26391Y194310D01*
X-26663Y195676D01*
X-27437Y196833D01*
X-28594Y197607D01*
X-29960Y197879D01*
D02*
G37*
G36*
X32737Y196609D02*
X31371Y196337D01*
X30213Y195563D01*
X29440Y194406D01*
X29168Y193040D01*
X29440Y191674D01*
X30213Y190517D01*
X31371Y189743D01*
X32737Y189471D01*
X34102Y189743D01*
X35260Y190517D01*
X36034Y191674D01*
X36305Y193040D01*
X36034Y194406D01*
X35260Y195563D01*
X34102Y196337D01*
X32737Y196609D01*
D02*
G37*
G36*
X219235Y189636D02*
X217870Y189364D01*
X216712Y188591D01*
X215938Y187433D01*
X215667Y186067D01*
X215938Y184701D01*
X216712Y183544D01*
X217870Y182770D01*
X219235Y182499D01*
X220601Y182770D01*
X221759Y183544D01*
X222532Y184701D01*
X222804Y186067D01*
X222532Y187433D01*
X221759Y188591D01*
X220601Y189364D01*
X219235Y189636D01*
D02*
G37*
G36*
X5770Y186822D02*
X4404Y186551D01*
X3247Y185777D01*
X2473Y184619D01*
X2201Y183254D01*
X2473Y181888D01*
X3247Y180730D01*
X4404Y179957D01*
X5770Y179685D01*
X7136Y179957D01*
X8293Y180730D01*
X9067Y181888D01*
X9339Y183254D01*
X9067Y184619D01*
X8293Y185777D01*
X7136Y186551D01*
X5770Y186822D01*
D02*
G37*
G36*
X89000Y186549D02*
X87634Y186277D01*
X86477Y185503D01*
X85703Y184346D01*
X85431Y182980D01*
X85703Y181614D01*
X86477Y180457D01*
X87634Y179683D01*
X89000Y179411D01*
X90366Y179683D01*
X91523Y180457D01*
X92297Y181614D01*
X92569Y182980D01*
X92297Y184346D01*
X91523Y185503D01*
X90366Y186277D01*
X89000Y186549D01*
D02*
G37*
G36*
X-222250Y181909D02*
X-223616Y181637D01*
X-224773Y180864D01*
X-225547Y179706D01*
X-225819Y178340D01*
X-225547Y176975D01*
X-224773Y175817D01*
X-223616Y175043D01*
X-222250Y174772D01*
X-220884Y175043D01*
X-219727Y175817D01*
X-218953Y176975D01*
X-218681Y178340D01*
X-218953Y179706D01*
X-219727Y180864D01*
X-220884Y181637D01*
X-222250Y181909D01*
D02*
G37*
G36*
X190000Y212106D02*
X185687Y211682D01*
X181540Y210424D01*
X177718Y208381D01*
X174368Y205632D01*
X171619Y202282D01*
X169576Y198460D01*
X168318Y194313D01*
X167894Y190000D01*
X168318Y185687D01*
X169576Y181540D01*
X171619Y177718D01*
X174368Y174368D01*
X177718Y171619D01*
X181540Y169576D01*
X185687Y168318D01*
X190000Y167894D01*
X194313Y168318D01*
X198460Y169576D01*
X202282Y171619D01*
X205632Y174368D01*
X208381Y177718D01*
X210424Y181540D01*
X211682Y185687D01*
X212106Y190000D01*
X211682Y194313D01*
X210424Y198460D01*
X208381Y202282D01*
X205632Y205632D01*
X202282Y208381D01*
X198460Y210424D01*
X194313Y211682D01*
X190000Y212106D01*
D02*
G37*
G36*
X-190000D02*
X-194313Y211682D01*
X-198460Y210424D01*
X-202282Y208381D01*
X-205632Y205632D01*
X-208381Y202282D01*
X-210424Y198460D01*
X-211682Y194313D01*
X-212106Y190000D01*
X-211682Y185687D01*
X-210424Y181540D01*
X-208381Y177718D01*
X-205632Y174368D01*
X-202282Y171619D01*
X-198460Y169576D01*
X-194313Y168318D01*
X-190000Y167894D01*
X-185687Y168318D01*
X-181540Y169576D01*
X-177718Y171619D01*
X-174368Y174368D01*
X-171619Y177718D01*
X-169576Y181540D01*
X-168318Y185687D01*
X-167894Y190000D01*
X-168318Y194313D01*
X-169576Y198460D01*
X-171619Y202282D01*
X-174368Y205632D01*
X-177718Y208381D01*
X-181540Y210424D01*
X-185687Y211682D01*
X-190000Y212106D01*
D02*
G37*
G36*
X143510Y157573D02*
X142144Y157301D01*
X140987Y156528D01*
X140213Y155370D01*
X139941Y154004D01*
X140213Y152639D01*
X140987Y151481D01*
X142144Y150707D01*
X143510Y150436D01*
X144876Y150707D01*
X146033Y151481D01*
X146807Y152639D01*
X147079Y154004D01*
X146807Y155370D01*
X146033Y156528D01*
X144876Y157301D01*
X143510Y157573D01*
D02*
G37*
G36*
X-11461Y157270D02*
X-12827Y156998D01*
X-13985Y156225D01*
X-14758Y155067D01*
X-15030Y153701D01*
X-14758Y152336D01*
X-13985Y151178D01*
X-12827Y150405D01*
X-11461Y150133D01*
X-10096Y150405D01*
X-8938Y151178D01*
X-8165Y152336D01*
X-7893Y153701D01*
X-8165Y155067D01*
X-8938Y156225D01*
X-10096Y156998D01*
X-11461Y157270D01*
D02*
G37*
G36*
X-238760Y156776D02*
X-240126Y156504D01*
X-241283Y155730D01*
X-242057Y154573D01*
X-242329Y153207D01*
X-242057Y151841D01*
X-241283Y150684D01*
X-240126Y149910D01*
X-238760Y149639D01*
X-237394Y149910D01*
X-236237Y150684D01*
X-235463Y151841D01*
X-235191Y153207D01*
X-235463Y154573D01*
X-236237Y155730D01*
X-237394Y156504D01*
X-238760Y156776D01*
D02*
G37*
G36*
X223520Y155969D02*
X222154Y155697D01*
X220997Y154923D01*
X220223Y153766D01*
X219951Y152400D01*
X220223Y151034D01*
X220997Y149877D01*
X222154Y149103D01*
X223520Y148831D01*
X224886Y149103D01*
X226043Y149877D01*
X226817Y151034D01*
X227089Y152400D01*
X226817Y153766D01*
X226043Y154923D01*
X224886Y155697D01*
X223520Y155969D01*
D02*
G37*
G36*
X54870Y150889D02*
X53504Y150617D01*
X52347Y149843D01*
X51573Y148686D01*
X51301Y147320D01*
X51573Y145954D01*
X52347Y144797D01*
X53504Y144023D01*
X54870Y143751D01*
X56236Y144023D01*
X57393Y144797D01*
X58167Y145954D01*
X58439Y147320D01*
X58167Y148686D01*
X57393Y149843D01*
X56236Y150617D01*
X54870Y150889D01*
D02*
G37*
G36*
X80870Y150479D02*
X79504Y150207D01*
X78347Y149433D01*
X77573Y148276D01*
X77301Y146910D01*
X77573Y145544D01*
X78347Y144387D01*
X79504Y143613D01*
X80870Y143341D01*
X82236Y143613D01*
X83393Y144387D01*
X84167Y145544D01*
X84439Y146910D01*
X84167Y148276D01*
X83393Y149433D01*
X82236Y150207D01*
X80870Y150479D01*
D02*
G37*
G36*
X-155130Y150375D02*
X-156496Y150104D01*
X-157653Y149330D01*
X-158427Y148173D01*
X-158699Y146807D01*
X-158427Y145441D01*
X-157653Y144284D01*
X-156496Y143510D01*
X-155130Y143238D01*
X-153764Y143510D01*
X-152607Y144284D01*
X-151833Y145441D01*
X-151561Y146807D01*
X-151833Y148173D01*
X-152607Y149330D01*
X-153764Y150104D01*
X-155130Y150375D01*
D02*
G37*
G36*
X21700Y147079D02*
X20334Y146807D01*
X19177Y146033D01*
X18403Y144876D01*
X18131Y143510D01*
X18403Y142144D01*
X19177Y140987D01*
X20334Y140213D01*
X21700Y139941D01*
X23066Y140213D01*
X24223Y140987D01*
X24997Y142144D01*
X25269Y143510D01*
X24997Y144876D01*
X24223Y146033D01*
X23066Y146807D01*
X21700Y147079D01*
D02*
G37*
G36*
X-162465Y142319D02*
X-163831Y142047D01*
X-164988Y141273D01*
X-165762Y140116D01*
X-166034Y138750D01*
X-165905Y138104D01*
X-166805Y136834D01*
X-168851D01*
X-170030Y137069D01*
X-171396Y136797D01*
X-172553Y136023D01*
X-173327Y134866D01*
X-173599Y133500D01*
X-173327Y132134D01*
X-172553Y130977D01*
X-171396Y130203D01*
X-170030Y129931D01*
X-168851Y130166D01*
X-133271D01*
X-128921Y125817D01*
X-128253Y124817D01*
X-127096Y124044D01*
X-125730Y123772D01*
X-124364Y124044D01*
X-123207Y124817D01*
X-122433Y125975D01*
X-122161Y127340D01*
X-122433Y128706D01*
X-123207Y129864D01*
X-124206Y130532D01*
X-129532Y135857D01*
X-130614Y136580D01*
X-131889Y136834D01*
X-158125D01*
X-159025Y138104D01*
X-158896Y138750D01*
X-159168Y140116D01*
X-159942Y141273D01*
X-161099Y142047D01*
X-162465Y142319D01*
D02*
G37*
G36*
X139386Y143772D02*
X138021Y143501D01*
X136863Y142727D01*
X136089Y141569D01*
X135818Y140204D01*
X136089Y138838D01*
X136863Y137680D01*
X138021Y136907D01*
X139386Y136635D01*
X140752Y136907D01*
X141910Y137680D01*
X142683Y138838D01*
X142955Y140204D01*
X142683Y141569D01*
X141910Y142727D01*
X140752Y143501D01*
X139386Y143772D01*
D02*
G37*
G36*
X169882Y131069D02*
X168516Y130797D01*
X167358Y130023D01*
X166585Y128866D01*
X166313Y127500D01*
X166585Y126134D01*
X167358Y124977D01*
X168516Y124203D01*
X169882Y123931D01*
X171247Y124203D01*
X172405Y124977D01*
X173179Y126134D01*
X173450Y127500D01*
X173179Y128866D01*
X172405Y130023D01*
X171247Y130797D01*
X169882Y131069D01*
D02*
G37*
G36*
X119380Y130379D02*
X118014Y130107D01*
X116857Y129333D01*
X116083Y128176D01*
X115811Y126810D01*
X116083Y125444D01*
X116857Y124287D01*
X118014Y123513D01*
X119380Y123241D01*
X120746Y123513D01*
X121903Y124287D01*
X122677Y125444D01*
X122949Y126810D01*
X122677Y128176D01*
X121903Y129333D01*
X120746Y130107D01*
X119380Y130379D01*
D02*
G37*
G36*
X12270Y129639D02*
X10904Y129368D01*
X9747Y128594D01*
X8973Y127436D01*
X8701Y126071D01*
X8973Y124705D01*
X9747Y123547D01*
X10904Y122774D01*
X12270Y122502D01*
X13636Y122774D01*
X14793Y123547D01*
X15567Y124705D01*
X15839Y126071D01*
X15567Y127436D01*
X14793Y128594D01*
X13636Y129368D01*
X12270Y129639D01*
D02*
G37*
G36*
X-262890Y127340D02*
X-264256Y127069D01*
X-265413Y126295D01*
X-266187Y125138D01*
X-266459Y123772D01*
X-266187Y122406D01*
X-265413Y121249D01*
X-264256Y120475D01*
X-262890Y120203D01*
X-261524Y120475D01*
X-260367Y121249D01*
X-259593Y122406D01*
X-259321Y123772D01*
X-259593Y125138D01*
X-260367Y126295D01*
X-261524Y127069D01*
X-262890Y127340D01*
D02*
G37*
G36*
X-140170Y127069D02*
X-141536Y126797D01*
X-142693Y126023D01*
X-143467Y124866D01*
X-143739Y123500D01*
X-143467Y122134D01*
X-142693Y120977D01*
X-141536Y120203D01*
X-140170Y119931D01*
X-138804Y120203D01*
X-137647Y120977D01*
X-136873Y122134D01*
X-136601Y123500D01*
X-136873Y124866D01*
X-137647Y126023D01*
X-138804Y126797D01*
X-140170Y127069D01*
D02*
G37*
G36*
X163171Y126069D02*
X161805Y125797D01*
X160647Y125023D01*
X159874Y123866D01*
X159602Y122500D01*
X159874Y121134D01*
X160647Y119977D01*
X161805Y119203D01*
X163171Y118931D01*
X164536Y119203D01*
X165694Y119977D01*
X166467Y121134D01*
X166739Y122500D01*
X166467Y123866D01*
X165694Y125023D01*
X164536Y125797D01*
X163171Y126069D01*
D02*
G37*
G36*
X-170030Y127069D02*
X-171396Y126797D01*
X-172553Y126023D01*
X-173327Y124866D01*
X-173599Y123500D01*
X-173327Y122134D01*
X-172553Y120977D01*
X-171396Y120203D01*
X-170030Y119931D01*
X-169815Y119974D01*
X-168866Y119126D01*
X-168875Y117880D01*
X-169840Y117031D01*
X-170030Y117069D01*
X-171396Y116797D01*
X-172553Y116023D01*
X-173327Y114866D01*
X-173504Y113975D01*
X-174754Y113476D01*
X-174800Y113475D01*
X-184740Y123415D01*
X-185821Y124137D01*
X-187097Y124391D01*
X-203291D01*
X-204470Y124626D01*
X-205836Y124354D01*
X-206993Y123581D01*
X-207767Y122423D01*
X-208039Y121057D01*
X-207767Y119691D01*
X-206993Y118534D01*
X-205836Y117760D01*
X-204470Y117489D01*
X-203291Y117723D01*
X-188478D01*
X-171898Y101143D01*
X-170816Y100420D01*
X-169540Y100166D01*
X-163644D01*
X-162465Y99931D01*
X-161099Y100203D01*
X-159942Y100977D01*
X-159168Y102134D01*
X-158896Y103500D01*
X-159168Y104866D01*
X-159942Y106023D01*
X-161099Y106797D01*
X-162465Y107069D01*
X-163644Y106834D01*
X-168159D01*
X-170055Y108730D01*
X-170054Y108776D01*
X-169555Y110026D01*
X-168851Y110166D01*
X-161871D01*
X-145868Y94163D01*
X-144786Y93440D01*
X-143510Y93186D01*
X-111190D01*
X-105721Y87717D01*
X-105053Y86717D01*
X-103895Y85944D01*
X-102529Y85672D01*
X-101164Y85944D01*
X-100006Y86717D01*
X-99233Y87875D01*
X-98961Y89241D01*
X-99233Y90606D01*
X-100006Y91764D01*
X-101006Y92432D01*
X-107451Y98877D01*
X-108533Y99600D01*
X-109809Y99854D01*
X-142129D01*
X-158132Y115857D01*
X-159214Y116580D01*
X-160490Y116834D01*
X-160593D01*
X-161610Y118104D01*
X-161531Y118500D01*
X-161803Y119866D01*
X-162577Y121023D01*
X-163734Y121797D01*
X-165100Y122069D01*
X-165466Y121996D01*
X-166546Y123076D01*
X-166461Y123500D01*
X-166733Y124866D01*
X-167507Y126023D01*
X-168664Y126797D01*
X-170030Y127069D01*
D02*
G37*
G36*
X199390Y153194D02*
X167330D01*
X166054Y152940D01*
X164972Y152218D01*
X122626Y109871D01*
X121627Y109203D01*
X120853Y108046D01*
X120581Y106680D01*
X120853Y105314D01*
X121627Y104157D01*
X122784Y103383D01*
X124150Y103111D01*
X125516Y103383D01*
X126673Y104157D01*
X127341Y105156D01*
X134894Y112709D01*
X135355Y112631D01*
X136189Y112208D01*
X136403Y111134D01*
X137177Y109977D01*
X138334Y109203D01*
X139700Y108931D01*
X141066Y109203D01*
X142223Y109977D01*
X142997Y111134D01*
X143269Y112500D01*
X142997Y113866D01*
X142223Y115023D01*
X141066Y115797D01*
X139992Y116011D01*
X139569Y116845D01*
X139491Y117306D01*
X168711Y146526D01*
X198009D01*
X208463Y136073D01*
X209544Y135350D01*
X210820Y135096D01*
X248999D01*
X266239Y117856D01*
X266907Y116857D01*
X268064Y116083D01*
X269430Y115811D01*
X270796Y116083D01*
X271953Y116857D01*
X272727Y118014D01*
X272999Y119380D01*
X272727Y120746D01*
X271953Y121903D01*
X270954Y122571D01*
X252738Y140787D01*
X251656Y141510D01*
X250380Y141764D01*
X246440D01*
X246077Y142661D01*
X245998Y143034D01*
X246727Y144124D01*
X246999Y145490D01*
X246727Y146856D01*
X245953Y148013D01*
X244796Y148787D01*
X243430Y149059D01*
X242064Y148787D01*
X240907Y148013D01*
X240133Y146856D01*
X239861Y145490D01*
X240133Y144124D01*
X240862Y143034D01*
X240783Y142661D01*
X240420Y141764D01*
X233440D01*
X233077Y142661D01*
X232998Y143034D01*
X233727Y144124D01*
X233999Y145490D01*
X233727Y146856D01*
X232953Y148013D01*
X231796Y148787D01*
X230430Y149059D01*
X229064Y148787D01*
X227907Y148013D01*
X227133Y146856D01*
X226861Y145490D01*
X227133Y144124D01*
X227862Y143034D01*
X227783Y142661D01*
X227421Y141764D01*
X220892D01*
X220213Y143034D01*
X220467Y143414D01*
X220739Y144780D01*
X220467Y146146D01*
X219693Y147303D01*
X218536Y148077D01*
X217170Y148349D01*
X215804Y148077D01*
X214647Y147303D01*
X213873Y146146D01*
X213601Y144780D01*
X213873Y143414D01*
X214127Y143034D01*
X213448Y141764D01*
X212201D01*
X201747Y152218D01*
X200666Y152940D01*
X199390Y153194D01*
D02*
G37*
G36*
X106680Y121437D02*
X105314Y121166D01*
X104157Y120392D01*
X103383Y119234D01*
X103111Y117869D01*
X103383Y116503D01*
X104157Y115345D01*
X105314Y114572D01*
X106680Y114300D01*
X108046Y114572D01*
X109203Y115345D01*
X109977Y116503D01*
X110249Y117869D01*
X109977Y119234D01*
X109203Y120392D01*
X108046Y121166D01*
X106680Y121437D01*
D02*
G37*
G36*
X74523Y133537D02*
X53340D01*
X52064Y133283D01*
X50982Y132561D01*
X50333Y131588D01*
X40386Y121642D01*
X39387Y120974D01*
X38613Y119816D01*
X38341Y118450D01*
X38613Y117085D01*
X39387Y115927D01*
X40544Y115154D01*
X41910Y114882D01*
X43276Y115154D01*
X44433Y115927D01*
X45101Y116927D01*
X54553Y126378D01*
X55026Y126307D01*
X55471Y124956D01*
X46736Y116221D01*
X45737Y115553D01*
X44963Y114396D01*
X44691Y113030D01*
X44963Y111664D01*
X45737Y110507D01*
X46894Y109733D01*
X48260Y109461D01*
X49626Y109733D01*
X50783Y110507D01*
X51451Y111506D01*
X62274Y122329D01*
X71262D01*
X79202Y114389D01*
X78823Y113104D01*
X78747Y113048D01*
X77470Y113302D01*
X76104Y113030D01*
X74947Y112256D01*
X74173Y111099D01*
X73901Y109733D01*
X74173Y108367D01*
X74947Y107210D01*
X76104Y106436D01*
X77470Y106165D01*
X78836Y106436D01*
X79993Y107210D01*
X80767Y108367D01*
X81039Y109733D01*
X80785Y111010D01*
X80841Y111086D01*
X82126Y111465D01*
X96583Y97007D01*
X96097Y95834D01*
X81173D01*
X80494Y97104D01*
X80767Y97512D01*
X81039Y98877D01*
X80767Y100243D01*
X79993Y101401D01*
X78836Y102174D01*
X77470Y102446D01*
X76104Y102174D01*
X74947Y101401D01*
X74173Y100243D01*
X73901Y98877D01*
X74173Y97512D01*
X74446Y97104D01*
X73767Y95834D01*
X65938D01*
X65259Y97104D01*
X65531Y97512D01*
X65803Y98877D01*
X65531Y100243D01*
X64758Y101401D01*
X63600Y102174D01*
X62234Y102446D01*
X60869Y102174D01*
X59711Y101401D01*
X58937Y100243D01*
X58666Y98877D01*
X58937Y97512D01*
X59210Y97104D01*
X58649Y96055D01*
X57363Y95942D01*
X38561Y114744D01*
X37893Y115743D01*
X36736Y116517D01*
X35370Y116789D01*
X34004Y116517D01*
X32847Y115743D01*
X32073Y114586D01*
X31801Y113220D01*
X32073Y111854D01*
X32847Y110697D01*
X33846Y110029D01*
X53732Y90142D01*
X54814Y89420D01*
X56090Y89166D01*
X97881D01*
X99060Y88931D01*
X100426Y89203D01*
X101583Y89977D01*
X101677Y90117D01*
X103312Y90278D01*
X117398Y76192D01*
X118480Y75470D01*
X119756Y75216D01*
X155804D01*
X159536Y71484D01*
X159411Y70220D01*
X159117Y70023D01*
X158343Y68866D01*
X158071Y67500D01*
X158343Y66134D01*
X159117Y64977D01*
X160274Y64203D01*
X161640Y63931D01*
X163006Y64203D01*
X164163Y64977D01*
X164257Y65117D01*
X165535Y65243D01*
X166548Y64298D01*
Y63679D01*
X166313Y62500D01*
X166585Y61134D01*
X167358Y59977D01*
X168516Y59203D01*
X169882Y58931D01*
X171247Y59203D01*
X172405Y59977D01*
X173179Y61134D01*
X173450Y62500D01*
X173216Y63679D01*
Y66004D01*
X172962Y67280D01*
X172239Y68362D01*
X167115Y73486D01*
X167239Y74750D01*
X167534Y74947D01*
X168307Y76104D01*
X168579Y77470D01*
X168491Y77913D01*
X169571Y78993D01*
X169882Y78931D01*
X171247Y79203D01*
X172405Y79977D01*
X173179Y81134D01*
X173450Y82500D01*
X173179Y83866D01*
X172405Y85023D01*
X171406Y85691D01*
X169356Y87741D01*
X169766Y88670D01*
X169948Y88945D01*
X171247Y89203D01*
X172405Y89977D01*
X173179Y91134D01*
X173450Y92500D01*
X173179Y93866D01*
X172405Y95023D01*
X171247Y95797D01*
X169882Y96069D01*
X169577Y96008D01*
X168497Y97088D01*
X168579Y97500D01*
X168497Y97912D01*
X169577Y98992D01*
X169882Y98931D01*
X171247Y99203D01*
X172405Y99977D01*
X173179Y101134D01*
X173450Y102500D01*
X173179Y103866D01*
X172405Y105023D01*
X171247Y105797D01*
X169882Y106069D01*
X168516Y105797D01*
X167358Y105023D01*
X166585Y103866D01*
X166313Y102500D01*
X166395Y102088D01*
X165315Y101008D01*
X165011Y101069D01*
X163645Y100797D01*
X162487Y100023D01*
X161714Y98866D01*
X161442Y97500D01*
X161714Y96134D01*
X162487Y94977D01*
X163645Y94203D01*
X165011Y93931D01*
X165315Y93992D01*
X166274Y93033D01*
X166279Y91690D01*
X165370Y90841D01*
X164752Y90964D01*
X140448D01*
X139406Y92234D01*
X139459Y92500D01*
X139187Y93866D01*
X138413Y95023D01*
X137256Y95797D01*
X135890Y96069D01*
X134524Y95797D01*
X134446Y95745D01*
X133380Y96560D01*
X133567Y97500D01*
X133295Y98866D01*
X132522Y100023D01*
X131364Y100797D01*
X129999Y101069D01*
X128633Y100797D01*
X127475Y100023D01*
X126701Y98866D01*
X126430Y97500D01*
X126701Y96134D01*
X127475Y94977D01*
X128633Y94203D01*
X129999Y93931D01*
X131364Y94203D01*
X131442Y94255D01*
X132508Y93440D01*
X132321Y92500D01*
X132374Y92234D01*
X131332Y90964D01*
X127111D01*
X114951Y103124D01*
X114283Y104123D01*
X113126Y104897D01*
X111760Y105169D01*
X110394Y104897D01*
X109237Y104123D01*
X108463Y102966D01*
X108431Y102806D01*
X107053Y102388D01*
X76881Y132561D01*
X75799Y133283D01*
X74523Y133537D01*
D02*
G37*
G36*
X-45720Y117869D02*
X-47086Y117597D01*
X-48243Y116823D01*
X-49017Y115666D01*
X-49289Y114300D01*
X-49017Y112934D01*
X-48243Y111777D01*
X-47086Y111003D01*
X-45720Y110731D01*
X-44354Y111003D01*
X-43197Y111777D01*
X-42423Y112934D01*
X-42151Y114300D01*
X-42423Y115666D01*
X-43197Y116823D01*
X-44354Y117597D01*
X-45720Y117869D01*
D02*
G37*
G36*
X169882Y116069D02*
X168516Y115797D01*
X167358Y115023D01*
X166585Y113866D01*
X166313Y112500D01*
X166585Y111134D01*
X167358Y109977D01*
X168516Y109203D01*
X169882Y108931D01*
X171247Y109203D01*
X172405Y109977D01*
X173179Y111134D01*
X173450Y112500D01*
X173179Y113866D01*
X172405Y115023D01*
X171247Y115797D01*
X169882Y116069D01*
D02*
G37*
G36*
X225200Y113500D02*
X223834Y113228D01*
X222677Y112455D01*
X221903Y111297D01*
X221631Y109931D01*
X221903Y108566D01*
X222677Y107408D01*
X223834Y106635D01*
X225200Y106363D01*
X226566Y106635D01*
X227723Y107408D01*
X228497Y108566D01*
X228769Y109931D01*
X228497Y111297D01*
X227723Y112455D01*
X226566Y113228D01*
X225200Y113500D01*
D02*
G37*
G36*
X62230D02*
X60864Y113228D01*
X59707Y112455D01*
X58933Y111297D01*
X58661Y109931D01*
X58933Y108566D01*
X59707Y107408D01*
X60864Y106635D01*
X62230Y106363D01*
X63596Y106635D01*
X64753Y107408D01*
X65527Y108566D01*
X65799Y109931D01*
X65527Y111297D01*
X64753Y112455D01*
X63596Y113228D01*
X62230Y113500D01*
D02*
G37*
G36*
X240665Y113220D02*
X239299Y112948D01*
X238142Y112175D01*
X237368Y111017D01*
X237096Y109651D01*
X237368Y108286D01*
X238142Y107128D01*
X239299Y106355D01*
X240665Y106083D01*
X242031Y106355D01*
X243188Y107128D01*
X243962Y108286D01*
X244234Y109651D01*
X243962Y111017D01*
X243188Y112175D01*
X242031Y112948D01*
X240665Y113220D01*
D02*
G37*
G36*
X-140170Y117069D02*
X-141536Y116797D01*
X-142693Y116023D01*
X-143467Y114866D01*
X-143739Y113500D01*
X-143467Y112134D01*
X-142693Y110977D01*
X-141536Y110203D01*
X-140170Y109931D01*
X-139148Y110135D01*
X-138297Y109509D01*
X-138054Y109177D01*
X-138189Y108500D01*
X-137917Y107134D01*
X-137143Y105977D01*
X-135986Y105203D01*
X-134620Y104931D01*
X-133254Y105203D01*
X-132097Y105977D01*
X-131323Y107134D01*
X-131051Y108500D01*
X-131323Y109866D01*
X-132097Y111023D01*
X-133254Y111797D01*
X-134620Y112069D01*
X-135642Y111865D01*
X-136493Y112491D01*
X-136736Y112823D01*
X-136601Y113500D01*
X-136873Y114866D01*
X-137647Y116023D01*
X-138804Y116797D01*
X-140170Y117069D01*
D02*
G37*
G36*
X191660Y111069D02*
X190294Y110797D01*
X189137Y110023D01*
X188363Y108866D01*
X188091Y107500D01*
X188363Y106134D01*
X189137Y104977D01*
X190294Y104203D01*
X191660Y103931D01*
X193026Y104203D01*
X194183Y104977D01*
X194957Y106134D01*
X195229Y107500D01*
X194957Y108866D01*
X194183Y110023D01*
X193026Y110797D01*
X191660Y111069D01*
D02*
G37*
G36*
X139700Y106069D02*
X138334Y105797D01*
X137177Y105023D01*
X136403Y103866D01*
X136131Y102500D01*
X136403Y101134D01*
X137177Y99977D01*
X138334Y99203D01*
X139700Y98931D01*
X141066Y99203D01*
X142223Y99977D01*
X142997Y101134D01*
X143269Y102500D01*
X142997Y103866D01*
X142223Y105023D01*
X141066Y105797D01*
X139700Y106069D01*
D02*
G37*
G36*
X-45720Y105509D02*
X-47086Y105237D01*
X-48243Y104464D01*
X-49017Y103306D01*
X-49289Y101940D01*
X-49017Y100575D01*
X-48243Y99417D01*
X-47086Y98644D01*
X-45720Y98372D01*
X-44354Y98644D01*
X-43197Y99417D01*
X-42423Y100575D01*
X-42151Y101940D01*
X-42423Y103306D01*
X-43197Y104464D01*
X-44354Y105237D01*
X-45720Y105509D01*
D02*
G37*
G36*
X240665Y101069D02*
X239299Y100797D01*
X238142Y100023D01*
X237368Y98866D01*
X237096Y97500D01*
X237368Y96134D01*
X238142Y94977D01*
X239299Y94203D01*
X240665Y93931D01*
X242031Y94203D01*
X243188Y94977D01*
X243962Y96134D01*
X244234Y97500D01*
X243962Y98866D01*
X243188Y100023D01*
X242031Y100797D01*
X240665Y101069D01*
D02*
G37*
G36*
X224790D02*
X223424Y100797D01*
X222267Y100023D01*
X221493Y98866D01*
X221221Y97500D01*
X221493Y96134D01*
X222267Y94977D01*
X223424Y94203D01*
X224790Y93931D01*
X226156Y94203D01*
X227313Y94977D01*
X228087Y96134D01*
X228359Y97500D01*
X228087Y98866D01*
X227313Y100023D01*
X226156Y100797D01*
X224790Y101069D01*
D02*
G37*
G36*
X204470Y93739D02*
X203104Y93467D01*
X201947Y92693D01*
X201173Y91536D01*
X200901Y90170D01*
X201173Y88804D01*
X201947Y87647D01*
X203104Y86873D01*
X204470Y86601D01*
X205836Y86873D01*
X206993Y87647D01*
X207767Y88804D01*
X208039Y90170D01*
X207767Y91536D01*
X206993Y92693D01*
X205836Y93467D01*
X204470Y93739D01*
D02*
G37*
G36*
X-54610Y92469D02*
X-55976Y92197D01*
X-57133Y91423D01*
X-57907Y90266D01*
X-58179Y88900D01*
X-57907Y87534D01*
X-57133Y86377D01*
X-55976Y85603D01*
X-54610Y85331D01*
X-53244Y85603D01*
X-52087Y86377D01*
X-51313Y87534D01*
X-51041Y88900D01*
X-51313Y90266D01*
X-52087Y91423D01*
X-53244Y92197D01*
X-54610Y92469D01*
D02*
G37*
G36*
X281940Y84849D02*
X280574Y84577D01*
X279417Y83803D01*
X278643Y82646D01*
X278371Y81280D01*
X278643Y79914D01*
X279417Y78757D01*
X280574Y77983D01*
X281940Y77711D01*
X283306Y77983D01*
X284463Y78757D01*
X285237Y79914D01*
X285509Y81280D01*
X285237Y82646D01*
X284463Y83803D01*
X283306Y84577D01*
X281940Y84849D01*
D02*
G37*
G36*
X-170030Y87069D02*
X-171396Y86797D01*
X-172553Y86023D01*
X-173327Y84866D01*
X-173599Y83500D01*
X-173327Y82134D01*
X-172553Y80977D01*
X-171396Y80203D01*
X-170030Y79931D01*
X-169664Y80004D01*
X-168584Y78924D01*
X-168669Y78500D01*
X-168397Y77134D01*
X-167623Y75977D01*
X-166466Y75203D01*
X-165100Y74931D01*
X-163734Y75203D01*
X-162577Y75977D01*
X-161803Y77134D01*
X-161531Y78500D01*
X-161803Y79866D01*
X-162577Y81023D01*
X-163734Y81797D01*
X-165100Y82069D01*
X-165466Y81996D01*
X-166546Y83076D01*
X-166461Y83500D01*
X-166733Y84866D01*
X-167507Y86023D01*
X-168664Y86797D01*
X-170030Y87069D01*
D02*
G37*
G36*
X7620Y81039D02*
X6254Y80767D01*
X5097Y79993D01*
X4323Y78836D01*
X4051Y77470D01*
X4323Y76104D01*
X5097Y74947D01*
X6254Y74173D01*
X7620Y73901D01*
X8986Y74173D01*
X10143Y74947D01*
X10917Y76104D01*
X11189Y77470D01*
X10917Y78836D01*
X10143Y79993D01*
X8986Y80767D01*
X7620Y81039D01*
D02*
G37*
G36*
X-279400Y83260D02*
X-281227Y83020D01*
X-282930Y82315D01*
X-284393Y81192D01*
X-285515Y79730D01*
X-286220Y78027D01*
X-286460Y76200D01*
X-286220Y74373D01*
X-285515Y72670D01*
X-284393Y71208D01*
X-282930Y70086D01*
X-281227Y69380D01*
X-279400Y69140D01*
X-277573Y69380D01*
X-275870Y70086D01*
X-274408Y71208D01*
X-273286Y72670D01*
X-272580Y74373D01*
X-272340Y76200D01*
X-272580Y78027D01*
X-273286Y79730D01*
X-274408Y81192D01*
X-275870Y82315D01*
X-277573Y83020D01*
X-279400Y83260D01*
D02*
G37*
G36*
X191660Y76069D02*
X190294Y75797D01*
X189137Y75023D01*
X188363Y73866D01*
X188091Y72500D01*
X188363Y71134D01*
X189137Y69977D01*
X190294Y69203D01*
X191660Y68931D01*
X193026Y69203D01*
X194183Y69977D01*
X194957Y71134D01*
X195229Y72500D01*
X194957Y73866D01*
X194183Y75023D01*
X193026Y75797D01*
X191660Y76069D01*
D02*
G37*
G36*
X-250286Y75959D02*
X-251651Y75687D01*
X-252809Y74913D01*
X-253583Y73756D01*
X-253854Y72390D01*
X-253583Y71024D01*
X-252809Y69867D01*
X-251651Y69093D01*
X-250286Y68821D01*
X-248920Y69093D01*
X-247762Y69867D01*
X-246989Y71024D01*
X-246717Y72390D01*
X-246989Y73756D01*
X-247762Y74913D01*
X-248920Y75687D01*
X-250286Y75959D01*
D02*
G37*
G36*
X129999Y68339D02*
X128633Y68067D01*
X127475Y67293D01*
X126701Y66136D01*
X126430Y64770D01*
X126701Y63404D01*
X127475Y62247D01*
X128633Y61473D01*
X129999Y61201D01*
X131364Y61473D01*
X132522Y62247D01*
X133295Y63404D01*
X133567Y64770D01*
X133295Y66136D01*
X132522Y67293D01*
X131364Y68067D01*
X129999Y68339D01*
D02*
G37*
G36*
X-170030Y67069D02*
X-171396Y66797D01*
X-172553Y66023D01*
X-173327Y64866D01*
X-173599Y63500D01*
X-173327Y62134D01*
X-172553Y60977D01*
X-171396Y60203D01*
X-170030Y59931D01*
X-168664Y60203D01*
X-167507Y60977D01*
X-166733Y62134D01*
X-166461Y63500D01*
X-166733Y64866D01*
X-167507Y66023D01*
X-168664Y66797D01*
X-170030Y67069D01*
D02*
G37*
G36*
X-297180D02*
X-298546Y66797D01*
X-299703Y66023D01*
X-300477Y64866D01*
X-300749Y63500D01*
X-300477Y62134D01*
X-299703Y60977D01*
X-298546Y60203D01*
X-297180Y59931D01*
X-295814Y60203D01*
X-294657Y60977D01*
X-293883Y62134D01*
X-293611Y63500D01*
X-293883Y64866D01*
X-294657Y66023D01*
X-295814Y66797D01*
X-297180Y67069D01*
D02*
G37*
G36*
X217430Y64529D02*
X216064Y64257D01*
X214907Y63483D01*
X214133Y62326D01*
X213861Y60960D01*
X214133Y59594D01*
X214907Y58437D01*
X216064Y57663D01*
X217430Y57391D01*
X218796Y57663D01*
X219953Y58437D01*
X220727Y59594D01*
X220999Y60960D01*
X220727Y62326D01*
X219953Y63483D01*
X218796Y64257D01*
X217430Y64529D01*
D02*
G37*
G36*
X54870D02*
X53504Y64257D01*
X52347Y63483D01*
X51573Y62326D01*
X51301Y60960D01*
X51573Y59594D01*
X52347Y58437D01*
X53504Y57663D01*
X54870Y57391D01*
X56236Y57663D01*
X57393Y58437D01*
X58167Y59594D01*
X58439Y60960D01*
X58167Y62326D01*
X57393Y63483D01*
X56236Y64257D01*
X54870Y64529D01*
D02*
G37*
G36*
X161640Y61069D02*
X160274Y60797D01*
X159117Y60023D01*
X158343Y58866D01*
X158071Y57500D01*
X158343Y56134D01*
X159117Y54977D01*
X160274Y54203D01*
X161640Y53931D01*
X163006Y54203D01*
X164163Y54977D01*
X164937Y56134D01*
X165209Y57500D01*
X164937Y58866D01*
X164163Y60023D01*
X163006Y60797D01*
X161640Y61069D01*
D02*
G37*
G36*
X289560Y57544D02*
X288194Y57272D01*
X287037Y56498D01*
X286263Y55341D01*
X285991Y53975D01*
X286263Y52609D01*
X287037Y51452D01*
X288194Y50678D01*
X289560Y50406D01*
X290926Y50678D01*
X292083Y51452D01*
X292857Y52609D01*
X293129Y53975D01*
X292857Y55341D01*
X292083Y56498D01*
X290926Y57272D01*
X289560Y57544D01*
D02*
G37*
G36*
X-279400Y64210D02*
X-281227Y63970D01*
X-282930Y63264D01*
X-284393Y62142D01*
X-285515Y60680D01*
X-286220Y58977D01*
X-286460Y57150D01*
X-286220Y55323D01*
X-285515Y53620D01*
X-284393Y52158D01*
X-282930Y51035D01*
X-281227Y50330D01*
X-279400Y50090D01*
X-277573Y50330D01*
X-275870Y51035D01*
X-274408Y52158D01*
X-273286Y53620D01*
X-272580Y55323D01*
X-272340Y57150D01*
X-272580Y58977D01*
X-273286Y60680D01*
X-274408Y62142D01*
X-275870Y63264D01*
X-277573Y63970D01*
X-279400Y64210D01*
D02*
G37*
G36*
X-140170Y57069D02*
X-141536Y56797D01*
X-142693Y56023D01*
X-143467Y54866D01*
X-143739Y53500D01*
X-143467Y52134D01*
X-142693Y50977D01*
X-141536Y50203D01*
X-140170Y49931D01*
X-138804Y50203D01*
X-137647Y50977D01*
X-136873Y52134D01*
X-136601Y53500D01*
X-136873Y54866D01*
X-137647Y56023D01*
X-138804Y56797D01*
X-140170Y57069D01*
D02*
G37*
G36*
X121560Y56909D02*
X120194Y56637D01*
X119037Y55863D01*
X118263Y54706D01*
X117992Y53340D01*
X118263Y51974D01*
X119037Y50817D01*
X120194Y50043D01*
X121560Y49771D01*
X122926Y50043D01*
X124083Y50817D01*
X124857Y51974D01*
X125129Y53340D01*
X124857Y54706D01*
X124083Y55863D01*
X122926Y56637D01*
X121560Y56909D01*
D02*
G37*
G36*
X-50800Y54369D02*
X-52166Y54097D01*
X-53323Y53323D01*
X-54097Y52166D01*
X-54369Y50800D01*
X-54097Y49434D01*
X-53323Y48277D01*
X-52166Y47503D01*
X-50800Y47231D01*
X-49434Y47503D01*
X-48277Y48277D01*
X-47503Y49434D01*
X-47231Y50800D01*
X-47503Y52166D01*
X-48277Y53323D01*
X-49434Y54097D01*
X-50800Y54369D01*
D02*
G37*
G36*
X191770Y51069D02*
X190404Y50797D01*
X189247Y50023D01*
X188473Y48866D01*
X188201Y47500D01*
X188473Y46134D01*
X189247Y44977D01*
X190404Y44203D01*
X191770Y43931D01*
X193136Y44203D01*
X194293Y44977D01*
X195067Y46134D01*
X195339Y47500D01*
X195067Y48866D01*
X194293Y50023D01*
X193136Y50797D01*
X191770Y51069D01*
D02*
G37*
G36*
X-165700Y48019D02*
X-167066Y47747D01*
X-168223Y46973D01*
X-168997Y45816D01*
X-169268Y44450D01*
X-168997Y43084D01*
X-168223Y41927D01*
X-167066Y41153D01*
X-165700Y40881D01*
X-164334Y41153D01*
X-163177Y41927D01*
X-162403Y43084D01*
X-162131Y44450D01*
X-162403Y45816D01*
X-163177Y46973D01*
X-164334Y47747D01*
X-165700Y48019D01*
D02*
G37*
G36*
X191770Y41069D02*
X190404Y40797D01*
X189247Y40023D01*
X188473Y38866D01*
X188201Y37500D01*
X188473Y36134D01*
X189247Y34977D01*
X190404Y34203D01*
X191770Y33931D01*
X193136Y34203D01*
X194293Y34977D01*
X195067Y36134D01*
X195339Y37500D01*
X195067Y38866D01*
X194293Y40023D01*
X193136Y40797D01*
X191770Y41069D01*
D02*
G37*
G36*
X166752Y51069D02*
X165386Y50797D01*
X164228Y50023D01*
X163455Y48866D01*
X163183Y47500D01*
X163455Y46134D01*
X164228Y44977D01*
X165386Y44203D01*
X165993Y44082D01*
Y42788D01*
X165386Y42667D01*
X164228Y41893D01*
X163455Y40736D01*
X163183Y39370D01*
X163455Y38004D01*
X164228Y36847D01*
X165386Y36073D01*
X166489Y35854D01*
X166941Y35024D01*
X167053Y34567D01*
X166585Y33866D01*
X166313Y32500D01*
X166585Y31134D01*
X167358Y29977D01*
X168516Y29203D01*
X169882Y28931D01*
X171247Y29203D01*
X172405Y29977D01*
X173179Y31134D01*
X173450Y32500D01*
X173179Y33866D01*
X172405Y35023D01*
X171247Y35797D01*
X170144Y36016D01*
X169692Y36846D01*
X169580Y37304D01*
X170049Y38004D01*
X170320Y39370D01*
X170049Y40736D01*
X169275Y41893D01*
X168117Y42667D01*
X167511Y42788D01*
Y44082D01*
X168117Y44203D01*
X169275Y44977D01*
X170049Y46134D01*
X170320Y47500D01*
X170049Y48866D01*
X169275Y50023D01*
X168117Y50797D01*
X166752Y51069D01*
D02*
G37*
G36*
X-7930Y33689D02*
X-9296Y33417D01*
X-10453Y32643D01*
X-11227Y31486D01*
X-11499Y30120D01*
X-11227Y28754D01*
X-10453Y27597D01*
X-9296Y26823D01*
X-7930Y26551D01*
X-6564Y26823D01*
X-5407Y27597D01*
X-4633Y28754D01*
X-4361Y30120D01*
X-4633Y31486D01*
X-5407Y32643D01*
X-6564Y33417D01*
X-7930Y33689D01*
D02*
G37*
G36*
X-69850Y32144D02*
X-71216Y31872D01*
X-72373Y31098D01*
X-73147Y29941D01*
X-73419Y28575D01*
X-73147Y27209D01*
X-72373Y26052D01*
X-71216Y25278D01*
X-69850Y25006D01*
X-68484Y25278D01*
X-67327Y26052D01*
X-66553Y27209D01*
X-66281Y28575D01*
X-66553Y29941D01*
X-67327Y31098D01*
X-68484Y31872D01*
X-69850Y32144D01*
D02*
G37*
G36*
X191770Y31069D02*
X190404Y30797D01*
X189247Y30023D01*
X188473Y28866D01*
X188201Y27500D01*
X188473Y26134D01*
X189247Y24977D01*
X190404Y24203D01*
X191770Y23931D01*
X193136Y24203D01*
X194293Y24977D01*
X195067Y26134D01*
X195339Y27500D01*
X195067Y28866D01*
X194293Y30023D01*
X193136Y30797D01*
X191770Y31069D01*
D02*
G37*
G36*
X-99622Y23889D02*
X-100988Y23617D01*
X-102146Y22843D01*
X-102919Y21686D01*
X-103191Y20320D01*
X-102919Y18954D01*
X-102146Y17797D01*
X-100988Y17023D01*
X-99622Y16751D01*
X-98257Y17023D01*
X-97099Y17797D01*
X-96326Y18954D01*
X-96054Y20320D01*
X-96326Y21686D01*
X-97099Y22843D01*
X-98257Y23617D01*
X-99622Y23889D01*
D02*
G37*
G36*
X233680Y66750D02*
X231853Y66510D01*
X230150Y65805D01*
X228688Y64682D01*
X227565Y63220D01*
X226860Y61517D01*
X226620Y59690D01*
Y52359D01*
X187671Y13410D01*
X113015D01*
X78180Y48245D01*
Y57150D01*
X77940Y58977D01*
X77235Y60680D01*
X76112Y62142D01*
X74650Y63264D01*
X72947Y63970D01*
X71120Y64210D01*
X69293Y63970D01*
X67590Y63264D01*
X66128Y62142D01*
X65005Y60680D01*
X64300Y58977D01*
X64060Y57150D01*
Y45321D01*
X64300Y43493D01*
X65005Y41791D01*
X66128Y40328D01*
X105098Y1358D01*
X106561Y236D01*
X108263Y-470D01*
X110091Y-710D01*
X190596D01*
X192423Y-470D01*
X194126Y236D01*
X195588Y1358D01*
X238672Y44442D01*
X239795Y45904D01*
X240500Y47607D01*
X240740Y49434D01*
Y55750D01*
X242010Y56429D01*
X242064Y56393D01*
X243430Y56121D01*
X244796Y56393D01*
X245953Y57167D01*
X246727Y58324D01*
X246999Y59690D01*
X246727Y61056D01*
X245953Y62213D01*
X244796Y62987D01*
X243430Y63259D01*
X242064Y62987D01*
X241439Y62569D01*
X239937Y62875D01*
X239795Y63220D01*
X238672Y64682D01*
X237210Y65805D01*
X235507Y66510D01*
X233680Y66750D01*
D02*
G37*
G36*
X-132080Y20079D02*
X-133446Y19807D01*
X-134603Y19033D01*
X-135377Y17876D01*
X-135649Y16510D01*
X-135377Y15144D01*
X-134603Y13987D01*
X-133446Y13213D01*
X-132080Y12941D01*
X-130714Y13213D01*
X-129557Y13987D01*
X-128783Y15144D01*
X-128511Y16510D01*
X-128783Y17876D01*
X-129557Y19033D01*
X-130714Y19807D01*
X-132080Y20079D01*
D02*
G37*
G36*
X-25023Y14758D02*
X-26389Y14487D01*
X-27547Y13713D01*
X-28320Y12555D01*
X-28592Y11190D01*
X-28320Y9824D01*
X-27547Y8666D01*
X-26389Y7893D01*
X-25023Y7621D01*
X-23658Y7893D01*
X-22500Y8666D01*
X-21726Y9824D01*
X-21455Y11190D01*
X-21726Y12555D01*
X-22500Y13713D01*
X-23658Y14487D01*
X-25023Y14758D01*
D02*
G37*
G36*
X-198120Y9919D02*
X-199486Y9647D01*
X-200643Y8873D01*
X-201417Y7716D01*
X-201689Y6350D01*
X-201417Y4984D01*
X-200643Y3827D01*
X-199486Y3053D01*
X-198120Y2781D01*
X-196754Y3053D01*
X-195597Y3827D01*
X-194823Y4984D01*
X-194551Y6350D01*
X-194823Y7716D01*
X-195597Y8873D01*
X-196754Y9647D01*
X-198120Y9919D01*
D02*
G37*
G36*
X-132230Y8103D02*
X-133596Y7831D01*
X-134753Y7058D01*
X-135527Y5900D01*
X-135799Y4534D01*
X-135527Y3169D01*
X-134753Y2011D01*
X-133596Y1237D01*
X-132230Y966D01*
X-130864Y1237D01*
X-129707Y2011D01*
X-128933Y3169D01*
X-128661Y4534D01*
X-128933Y5900D01*
X-129707Y7058D01*
X-130864Y7831D01*
X-132230Y8103D01*
D02*
G37*
G36*
X62230Y7379D02*
X60864Y7107D01*
X59707Y6333D01*
X58933Y5176D01*
X58661Y3810D01*
X58933Y2444D01*
X59366Y1796D01*
X58833Y1037D01*
X58517Y780D01*
X57270Y1029D01*
X55976Y771D01*
X55761Y934D01*
X55102Y1748D01*
X55567Y2444D01*
X55838Y3810D01*
X55567Y5176D01*
X54793Y6333D01*
X53636Y7107D01*
X52270Y7379D01*
X50904Y7107D01*
X49747Y6333D01*
X48973Y5176D01*
X48701Y3810D01*
X48973Y2444D01*
X49479Y1688D01*
X48621Y794D01*
X48571Y760D01*
X47220Y1029D01*
X45854Y757D01*
X44697Y-17D01*
X43923Y-1174D01*
X43651Y-2540D01*
X43836Y-3468D01*
X43105Y-4415D01*
X42859Y-4568D01*
X42270Y-4451D01*
X40904Y-4723D01*
X39747Y-5497D01*
X38973Y-6654D01*
X38701Y-8020D01*
X38973Y-9386D01*
X39747Y-10543D01*
X40904Y-11317D01*
X42270Y-11589D01*
X43636Y-11317D01*
X44793Y-10543D01*
X45567Y-9386D01*
X45839Y-8020D01*
X45654Y-7092D01*
X46385Y-6145D01*
X46631Y-5992D01*
X47220Y-6109D01*
X48586Y-5837D01*
X49743Y-5063D01*
X50517Y-3906D01*
X50789Y-2540D01*
X50517Y-1174D01*
X50011Y-418D01*
X50869Y476D01*
X50919Y510D01*
X52270Y241D01*
X53564Y499D01*
X53779Y336D01*
X54438Y-478D01*
X53973Y-1174D01*
X53701Y-2540D01*
X53973Y-3906D01*
X54747Y-5063D01*
X55904Y-5837D01*
X57270Y-6109D01*
X58636Y-5837D01*
X59793Y-5063D01*
X60567Y-3906D01*
X60839Y-2540D01*
X60567Y-1174D01*
X60134Y-526D01*
X60667Y233D01*
X60982Y490D01*
X62230Y241D01*
X63596Y513D01*
X64753Y1287D01*
X65527Y2444D01*
X65799Y3810D01*
X65527Y5176D01*
X64753Y6333D01*
X63596Y7107D01*
X62230Y7379D01*
D02*
G37*
G36*
X-54674Y6008D02*
X-56040Y5736D01*
X-57197Y4963D01*
X-57971Y3805D01*
X-58243Y2439D01*
X-57971Y1074D01*
X-57197Y-84D01*
X-56040Y-857D01*
X-54674Y-1129D01*
X-53309Y-857D01*
X-52151Y-84D01*
X-51377Y1074D01*
X-51105Y2439D01*
X-51377Y3805D01*
X-52151Y4963D01*
X-53309Y5736D01*
X-54674Y6008D01*
D02*
G37*
G36*
X-100230Y1029D02*
X-101596Y757D01*
X-102753Y-17D01*
X-103527Y-1174D01*
X-103799Y-2540D01*
X-103527Y-3906D01*
X-102753Y-5063D01*
X-101596Y-5837D01*
X-100230Y-6109D01*
X-98864Y-5837D01*
X-97707Y-5063D01*
X-96933Y-3906D01*
X-96661Y-2540D01*
X-96933Y-1174D01*
X-97707Y-17D01*
X-98864Y757D01*
X-100230Y1029D01*
D02*
G37*
G36*
X80870Y1759D02*
X79504Y1487D01*
X78347Y713D01*
X77573Y-444D01*
X77301Y-1810D01*
X77573Y-3176D01*
X78347Y-4333D01*
X79504Y-5107D01*
X80870Y-5379D01*
X82236Y-5107D01*
X82356Y-5026D01*
X83272Y-5942D01*
X83063Y-6254D01*
X82791Y-7620D01*
X83063Y-8986D01*
X83837Y-10143D01*
X84994Y-10917D01*
X86360Y-11189D01*
X87726Y-10917D01*
X88883Y-10143D01*
X89657Y-8986D01*
X89929Y-7620D01*
X89657Y-6254D01*
X88883Y-5097D01*
X87726Y-4323D01*
X86360Y-4051D01*
X84994Y-4323D01*
X84874Y-4404D01*
X83958Y-3488D01*
X84167Y-3176D01*
X84439Y-1810D01*
X84167Y-444D01*
X83393Y713D01*
X82236Y1487D01*
X80870Y1759D01*
D02*
G37*
G36*
X180340Y-6569D02*
X178974Y-6841D01*
X177817Y-7614D01*
X177043Y-8772D01*
X176771Y-10138D01*
X177043Y-11503D01*
X177817Y-12661D01*
X178974Y-13435D01*
X180340Y-13706D01*
X181706Y-13435D01*
X182863Y-12661D01*
X183637Y-11503D01*
X183909Y-10138D01*
X183637Y-8772D01*
X182863Y-7614D01*
X181706Y-6841D01*
X180340Y-6569D01*
D02*
G37*
G36*
X175260Y-13340D02*
X173894Y-13612D01*
X172737Y-14385D01*
X171963Y-15543D01*
X171691Y-16908D01*
X171893Y-17922D01*
X171772Y-18139D01*
X171187Y-18743D01*
X170895Y-18920D01*
X169928Y-18727D01*
X168562Y-18999D01*
X167965Y-19398D01*
X167530Y-19274D01*
X166679Y-18747D01*
X166467Y-17684D01*
X165694Y-16527D01*
X164536Y-15753D01*
X163171Y-15481D01*
X161805Y-15753D01*
X160647Y-16527D01*
X159874Y-17684D01*
X159602Y-19050D01*
X159874Y-20416D01*
X160647Y-21573D01*
X161805Y-22347D01*
X163171Y-22619D01*
X164536Y-22347D01*
X165134Y-21948D01*
X165569Y-22071D01*
X166420Y-22599D01*
X166631Y-23661D01*
X167404Y-24819D01*
X168562Y-25593D01*
X169928Y-25864D01*
X171293Y-25593D01*
X172451Y-24819D01*
X173225Y-23661D01*
X173496Y-22296D01*
X173295Y-21282D01*
X173416Y-21065D01*
X174000Y-20461D01*
X174293Y-20285D01*
X175260Y-20477D01*
X176626Y-20205D01*
X177783Y-19432D01*
X178557Y-18274D01*
X178829Y-16908D01*
X178557Y-15543D01*
X177783Y-14385D01*
X176626Y-13612D01*
X175260Y-13340D01*
D02*
G37*
G36*
X-222250Y-20561D02*
X-223616Y-20833D01*
X-224773Y-21607D01*
X-225547Y-22764D01*
X-225819Y-24130D01*
X-225547Y-25496D01*
X-224773Y-26653D01*
X-223616Y-27427D01*
X-222250Y-27699D01*
X-220884Y-27427D01*
X-219727Y-26653D01*
X-218953Y-25496D01*
X-218681Y-24130D01*
X-218953Y-22764D01*
X-219727Y-21607D01*
X-220884Y-20833D01*
X-222250Y-20561D01*
D02*
G37*
G36*
X-147320Y-21831D02*
X-148686Y-22103D01*
X-149843Y-22877D01*
X-150617Y-24034D01*
X-150889Y-25400D01*
X-150617Y-26766D01*
X-149843Y-27923D01*
X-148686Y-28697D01*
X-147320Y-28969D01*
X-145954Y-28697D01*
X-144797Y-27923D01*
X-144023Y-26766D01*
X-143751Y-25400D01*
X-144023Y-24034D01*
X-144797Y-22877D01*
X-145954Y-22103D01*
X-147320Y-21831D01*
D02*
G37*
G36*
X151480Y-24466D02*
X150114Y-24738D01*
X148957Y-25511D01*
X148183Y-26669D01*
X147911Y-28035D01*
X148183Y-29400D01*
X148957Y-30558D01*
X150114Y-31332D01*
X151480Y-31603D01*
X152846Y-31332D01*
X154003Y-30558D01*
X154777Y-29400D01*
X155049Y-28035D01*
X154777Y-26669D01*
X154003Y-25511D01*
X152846Y-24738D01*
X151480Y-24466D01*
D02*
G37*
G36*
X-81180Y-28423D02*
X-82546Y-28695D01*
X-83703Y-29468D01*
X-84477Y-30626D01*
X-84749Y-31991D01*
X-84477Y-33357D01*
X-83703Y-34515D01*
X-82546Y-35288D01*
X-81180Y-35560D01*
X-79814Y-35288D01*
X-78657Y-34515D01*
X-77883Y-33357D01*
X-77611Y-31991D01*
X-77883Y-30626D01*
X-78657Y-29468D01*
X-79814Y-28695D01*
X-81180Y-28423D01*
D02*
G37*
G36*
X212814Y-29762D02*
X211448Y-30034D01*
X210291Y-30807D01*
X209517Y-31965D01*
X209245Y-33331D01*
X209517Y-34696D01*
X210291Y-35854D01*
X211448Y-36628D01*
X212814Y-36899D01*
X214179Y-36628D01*
X215337Y-35854D01*
X216111Y-34696D01*
X216383Y-33331D01*
X216111Y-31965D01*
X215337Y-30807D01*
X214179Y-30034D01*
X212814Y-29762D01*
D02*
G37*
G36*
X-12700Y-32880D02*
X-14066Y-33152D01*
X-15223Y-33926D01*
X-15997Y-35083D01*
X-16269Y-36449D01*
X-15997Y-37815D01*
X-15223Y-38972D01*
X-14066Y-39746D01*
X-12700Y-40018D01*
X-11334Y-39746D01*
X-10177Y-38972D01*
X-9403Y-37815D01*
X-9131Y-36449D01*
X-9403Y-35083D01*
X-10177Y-33926D01*
X-11334Y-33152D01*
X-12700Y-32880D01*
D02*
G37*
G36*
X157480Y-39680D02*
X156114Y-39952D01*
X154957Y-40725D01*
X154183Y-41883D01*
X153911Y-43249D01*
X154183Y-44614D01*
X154957Y-45772D01*
X156114Y-46546D01*
X157480Y-46817D01*
X158846Y-46546D01*
X160003Y-45772D01*
X160777Y-44614D01*
X161049Y-43249D01*
X160777Y-41883D01*
X160003Y-40725D01*
X158846Y-39952D01*
X157480Y-39680D01*
D02*
G37*
G36*
X80870Y-39611D02*
X79504Y-39883D01*
X78347Y-40657D01*
X77573Y-41814D01*
X77301Y-43180D01*
X77573Y-44546D01*
X78347Y-45703D01*
X79504Y-46477D01*
X80870Y-46749D01*
X81884Y-46547D01*
X82724Y-47213D01*
X82936Y-47534D01*
X82791Y-48260D01*
X83063Y-49626D01*
X83837Y-50783D01*
X84994Y-51557D01*
X86360Y-51829D01*
X87726Y-51557D01*
X88883Y-50783D01*
X89657Y-49626D01*
X89929Y-48260D01*
X89657Y-46894D01*
X88883Y-45737D01*
X87726Y-44963D01*
X86360Y-44691D01*
X85346Y-44893D01*
X84507Y-44227D01*
X84294Y-43906D01*
X84439Y-43180D01*
X84167Y-41814D01*
X83393Y-40657D01*
X82236Y-39883D01*
X80870Y-39611D01*
D02*
G37*
G36*
X-162465Y-45931D02*
X-163831Y-46203D01*
X-164988Y-46976D01*
X-165762Y-48134D01*
X-166034Y-49500D01*
X-165762Y-50865D01*
X-164988Y-52023D01*
X-163831Y-52796D01*
X-162465Y-53068D01*
X-161099Y-52796D01*
X-159942Y-52023D01*
X-159168Y-50865D01*
X-158896Y-49500D01*
X-159168Y-48134D01*
X-159942Y-46976D01*
X-161099Y-46203D01*
X-162465Y-45931D01*
D02*
G37*
G36*
X95763Y-45961D02*
X94397Y-46233D01*
X93240Y-47007D01*
X92466Y-48164D01*
X92194Y-49530D01*
X92466Y-50896D01*
X93240Y-52053D01*
X94397Y-52827D01*
X95763Y-53099D01*
X97129Y-52827D01*
X98286Y-52053D01*
X99060Y-50896D01*
X99332Y-49530D01*
X99060Y-48164D01*
X98286Y-47007D01*
X97129Y-46233D01*
X95763Y-45961D01*
D02*
G37*
G36*
X-310Y-46381D02*
X-1675Y-46653D01*
X-2833Y-47427D01*
X-3607Y-48584D01*
X-3878Y-49950D01*
X-3607Y-51316D01*
X-2833Y-52473D01*
X-1675Y-53247D01*
X-310Y-53519D01*
X1056Y-53247D01*
X2214Y-52473D01*
X2987Y-51316D01*
X3259Y-49950D01*
X2987Y-48584D01*
X2214Y-47427D01*
X1056Y-46653D01*
X-310Y-46381D01*
D02*
G37*
G36*
X72140Y-51041D02*
X70774Y-51313D01*
X69617Y-52087D01*
X68843Y-53244D01*
X68571Y-54610D01*
X68843Y-55976D01*
X69617Y-57133D01*
X70774Y-57907D01*
X72140Y-58179D01*
X73506Y-57907D01*
X74663Y-57133D01*
X75437Y-55976D01*
X75709Y-54610D01*
X75437Y-53244D01*
X74663Y-52087D01*
X73506Y-51313D01*
X72140Y-51041D01*
D02*
G37*
G36*
X62270Y-51151D02*
X60904Y-51423D01*
X59747Y-52197D01*
X58973Y-53354D01*
X58701Y-54720D01*
X58973Y-56086D01*
X59747Y-57243D01*
X60904Y-58017D01*
X62270Y-58289D01*
X63636Y-58017D01*
X64793Y-57243D01*
X65567Y-56086D01*
X65839Y-54720D01*
X65567Y-53354D01*
X64793Y-52197D01*
X63636Y-51423D01*
X62270Y-51151D01*
D02*
G37*
G36*
X52270D02*
X50904Y-51423D01*
X49747Y-52197D01*
X48973Y-53354D01*
X48701Y-54720D01*
X48973Y-56086D01*
X49747Y-57243D01*
X50904Y-58017D01*
X52270Y-58289D01*
X53636Y-58017D01*
X54793Y-57243D01*
X55567Y-56086D01*
X55838Y-54720D01*
X55567Y-53354D01*
X54793Y-52197D01*
X53636Y-51423D01*
X52270Y-51151D01*
D02*
G37*
G36*
X42270D02*
X40904Y-51423D01*
X39747Y-52197D01*
X38973Y-53354D01*
X38701Y-54720D01*
X38973Y-56086D01*
X39747Y-57243D01*
X40904Y-58017D01*
X42270Y-58289D01*
X43636Y-58017D01*
X44793Y-57243D01*
X45567Y-56086D01*
X45839Y-54720D01*
X45567Y-53354D01*
X44793Y-52197D01*
X43636Y-51423D01*
X42270Y-51151D01*
D02*
G37*
G36*
X-17730D02*
X-19096Y-51423D01*
X-20253Y-52197D01*
X-21027Y-53354D01*
X-21299Y-54720D01*
X-21027Y-56086D01*
X-20253Y-57243D01*
X-19096Y-58017D01*
X-17730Y-58289D01*
X-16364Y-58017D01*
X-15207Y-57243D01*
X-14433Y-56086D01*
X-14161Y-54720D01*
X-14433Y-53354D01*
X-15207Y-52197D01*
X-16364Y-51423D01*
X-17730Y-51151D01*
D02*
G37*
G36*
X-47730D02*
X-49096Y-51423D01*
X-50253Y-52197D01*
X-51027Y-53354D01*
X-51299Y-54720D01*
X-51027Y-56086D01*
X-50253Y-57243D01*
X-49096Y-58017D01*
X-47730Y-58289D01*
X-46364Y-58017D01*
X-45207Y-57243D01*
X-44433Y-56086D01*
X-44161Y-54720D01*
X-44433Y-53354D01*
X-45207Y-52197D01*
X-46364Y-51423D01*
X-47730Y-51151D01*
D02*
G37*
G36*
X-57730D02*
X-59096Y-51423D01*
X-60253Y-52197D01*
X-61027Y-53354D01*
X-61299Y-54720D01*
X-61027Y-56086D01*
X-60253Y-57243D01*
X-59096Y-58017D01*
X-57730Y-58289D01*
X-56364Y-58017D01*
X-55207Y-57243D01*
X-54433Y-56086D01*
X-54161Y-54720D01*
X-54433Y-53354D01*
X-55207Y-52197D01*
X-56364Y-51423D01*
X-57730Y-51151D01*
D02*
G37*
G36*
X156210Y-56121D02*
X154844Y-56393D01*
X153687Y-57167D01*
X152913Y-58324D01*
X152641Y-59690D01*
X152913Y-61056D01*
X153687Y-62213D01*
X154844Y-62987D01*
X156210Y-63259D01*
X157576Y-62987D01*
X158733Y-62213D01*
X159507Y-61056D01*
X159779Y-59690D01*
X159507Y-58324D01*
X158733Y-57167D01*
X157576Y-56393D01*
X156210Y-56121D01*
D02*
G37*
G36*
X-190360Y-67481D02*
X-191726Y-67753D01*
X-192883Y-68527D01*
X-193657Y-69684D01*
X-193929Y-71050D01*
X-193657Y-72416D01*
X-192883Y-73573D01*
X-191726Y-74347D01*
X-190360Y-74619D01*
X-188994Y-74347D01*
X-187837Y-73573D01*
X-187063Y-72416D01*
X-186791Y-71050D01*
X-187063Y-69684D01*
X-187837Y-68527D01*
X-188994Y-67753D01*
X-190360Y-67481D01*
D02*
G37*
G36*
X-1167Y-75171D02*
X-2533Y-75443D01*
X-3691Y-76217D01*
X-4464Y-77374D01*
X-4736Y-78740D01*
X-4464Y-80106D01*
X-3691Y-81263D01*
X-2533Y-82037D01*
X-1167Y-82309D01*
X198Y-82037D01*
X1356Y-81263D01*
X2130Y-80106D01*
X2401Y-78740D01*
X2130Y-77374D01*
X1356Y-76217D01*
X198Y-75443D01*
X-1167Y-75171D01*
D02*
G37*
G36*
X-97790D02*
X-99156Y-75443D01*
X-100313Y-76217D01*
X-101087Y-77374D01*
X-101359Y-78740D01*
X-101087Y-80106D01*
X-100313Y-81263D01*
X-99156Y-82037D01*
X-97790Y-82309D01*
X-96424Y-82037D01*
X-95267Y-81263D01*
X-94493Y-80106D01*
X-94221Y-78740D01*
X-94493Y-77374D01*
X-95267Y-76217D01*
X-96424Y-75443D01*
X-97790Y-75171D01*
D02*
G37*
G36*
X57270Y-77711D02*
X55904Y-77983D01*
X54747Y-78757D01*
X53973Y-79914D01*
X53701Y-81280D01*
X53973Y-82646D01*
X54747Y-83803D01*
X55904Y-84577D01*
X57270Y-84849D01*
X58636Y-84577D01*
X59793Y-83803D01*
X60567Y-82646D01*
X60839Y-81280D01*
X60567Y-79914D01*
X59793Y-78757D01*
X58636Y-77983D01*
X57270Y-77711D01*
D02*
G37*
G36*
X47270D02*
X45904Y-77983D01*
X44747Y-78757D01*
X43973Y-79914D01*
X43701Y-81280D01*
X43973Y-82646D01*
X44747Y-83803D01*
X45904Y-84577D01*
X47270Y-84849D01*
X48636Y-84577D01*
X49793Y-83803D01*
X50567Y-82646D01*
X50839Y-81280D01*
X50567Y-79914D01*
X49793Y-78757D01*
X48636Y-77983D01*
X47270Y-77711D01*
D02*
G37*
G36*
X-22730D02*
X-24096Y-77983D01*
X-25253Y-78757D01*
X-26027Y-79914D01*
X-26299Y-81280D01*
X-26027Y-82646D01*
X-25253Y-83803D01*
X-24096Y-84577D01*
X-22730Y-84849D01*
X-21364Y-84577D01*
X-20207Y-83803D01*
X-19433Y-82646D01*
X-19161Y-81280D01*
X-19433Y-79914D01*
X-20207Y-78757D01*
X-21364Y-77983D01*
X-22730Y-77711D01*
D02*
G37*
G36*
X-62730D02*
X-64096Y-77983D01*
X-65253Y-78757D01*
X-66027Y-79914D01*
X-66298Y-81280D01*
X-66027Y-82646D01*
X-65253Y-83803D01*
X-64096Y-84577D01*
X-62730Y-84849D01*
X-61364Y-84577D01*
X-60207Y-83803D01*
X-59433Y-82646D01*
X-59161Y-81280D01*
X-59433Y-79914D01*
X-60207Y-78757D01*
X-61364Y-77983D01*
X-62730Y-77711D01*
D02*
G37*
G36*
X-82730D02*
X-84096Y-77983D01*
X-85253Y-78757D01*
X-86027Y-79914D01*
X-86299Y-81280D01*
X-86027Y-82646D01*
X-85253Y-83803D01*
X-84096Y-84577D01*
X-82730Y-84849D01*
X-81364Y-84577D01*
X-80207Y-83803D01*
X-79433Y-82646D01*
X-79161Y-81280D01*
X-79433Y-79914D01*
X-80207Y-78757D01*
X-81364Y-77983D01*
X-82730Y-77711D01*
D02*
G37*
G36*
X-155080Y-80321D02*
X-156446Y-80593D01*
X-157603Y-81367D01*
X-158377Y-82524D01*
X-158649Y-83890D01*
X-158377Y-85256D01*
X-157603Y-86413D01*
X-156446Y-87187D01*
X-155080Y-87459D01*
X-153714Y-87187D01*
X-152557Y-86413D01*
X-151783Y-85256D01*
X-151511Y-83890D01*
X-151783Y-82524D01*
X-152557Y-81367D01*
X-153714Y-80593D01*
X-155080Y-80321D01*
D02*
G37*
G36*
X-204470Y-95491D02*
X-205836Y-95763D01*
X-206993Y-96537D01*
X-207767Y-97694D01*
X-208039Y-99060D01*
X-207767Y-100426D01*
X-206993Y-101583D01*
X-205836Y-102357D01*
X-204470Y-102629D01*
X-203104Y-102357D01*
X-201947Y-101583D01*
X-201173Y-100426D01*
X-200901Y-99060D01*
X-201173Y-97694D01*
X-201947Y-96537D01*
X-203104Y-95763D01*
X-204470Y-95491D01*
D02*
G37*
G36*
X-156115Y-99301D02*
X-157481Y-99573D01*
X-158639Y-100347D01*
X-159412Y-101504D01*
X-159684Y-102870D01*
X-159412Y-104236D01*
X-158639Y-105393D01*
X-157481Y-106167D01*
X-156115Y-106439D01*
X-154750Y-106167D01*
X-153592Y-105393D01*
X-152818Y-104236D01*
X-152547Y-102870D01*
X-152818Y-101504D01*
X-153592Y-100347D01*
X-154750Y-99573D01*
X-156115Y-99301D01*
D02*
G37*
G36*
X143510Y-99318D02*
X142144Y-99590D01*
X140987Y-100363D01*
X140213Y-101521D01*
X139941Y-102887D01*
X140213Y-104252D01*
X140987Y-105410D01*
X142144Y-106184D01*
X143510Y-106455D01*
X144876Y-106184D01*
X146033Y-105410D01*
X146807Y-104252D01*
X147079Y-102887D01*
X146807Y-101521D01*
X146033Y-100363D01*
X144876Y-99590D01*
X143510Y-99318D01*
D02*
G37*
G36*
X-92710Y-101841D02*
X-94076Y-102113D01*
X-95233Y-102887D01*
X-96007Y-104044D01*
X-96279Y-105410D01*
X-96007Y-106776D01*
X-95233Y-107933D01*
X-94076Y-108707D01*
X-92710Y-108979D01*
X-91344Y-108707D01*
X-90187Y-107933D01*
X-89413Y-106776D01*
X-89141Y-105410D01*
X-89413Y-104044D01*
X-90187Y-102887D01*
X-91344Y-102113D01*
X-92710Y-101841D01*
D02*
G37*
G36*
X52869Y-105187D02*
X51503Y-105458D01*
X50345Y-106232D01*
X49572Y-107390D01*
X49300Y-108755D01*
X49572Y-110121D01*
X50345Y-111279D01*
X51503Y-112052D01*
X52869Y-112324D01*
X54234Y-112052D01*
X55392Y-111279D01*
X56166Y-110121D01*
X56437Y-108755D01*
X56166Y-107390D01*
X55392Y-106232D01*
X54234Y-105458D01*
X52869Y-105187D01*
D02*
G37*
G36*
X-1270Y-110731D02*
X-2636Y-111003D01*
X-3793Y-111777D01*
X-4567Y-112934D01*
X-4839Y-114300D01*
X-4567Y-115666D01*
X-3793Y-116823D01*
X-2636Y-117597D01*
X-1270Y-117869D01*
X96Y-117597D01*
X1253Y-116823D01*
X2027Y-115666D01*
X2299Y-114300D01*
X2027Y-112934D01*
X1253Y-111777D01*
X96Y-111003D01*
X-1270Y-110731D01*
D02*
G37*
G36*
X-177870Y-118281D02*
X-179236Y-118553D01*
X-180393Y-119327D01*
X-181167Y-120484D01*
X-181439Y-121850D01*
X-181167Y-123216D01*
X-180393Y-124373D01*
X-179236Y-125147D01*
X-177870Y-125419D01*
X-176504Y-125147D01*
X-175347Y-124373D01*
X-174573Y-123216D01*
X-174301Y-121850D01*
X-174573Y-120484D01*
X-175347Y-119327D01*
X-176504Y-118553D01*
X-177870Y-118281D01*
D02*
G37*
G36*
X-1270Y-123431D02*
X-2636Y-123703D01*
X-3793Y-124477D01*
X-4567Y-125634D01*
X-4839Y-127000D01*
X-4567Y-128366D01*
X-3793Y-129523D01*
X-2636Y-130297D01*
X-1270Y-130569D01*
X96Y-130297D01*
X1253Y-129523D01*
X2027Y-128366D01*
X2299Y-127000D01*
X2027Y-125634D01*
X1253Y-124477D01*
X96Y-123703D01*
X-1270Y-123431D01*
D02*
G37*
G36*
X-15240D02*
X-16606Y-123703D01*
X-17763Y-124477D01*
X-18537Y-125634D01*
X-18809Y-127000D01*
X-18537Y-128366D01*
X-17763Y-129523D01*
X-16606Y-130297D01*
X-15240Y-130569D01*
X-13874Y-130297D01*
X-12717Y-129523D01*
X-11943Y-128366D01*
X-11671Y-127000D01*
X-11943Y-125634D01*
X-12717Y-124477D01*
X-13874Y-123703D01*
X-15240Y-123431D01*
D02*
G37*
G36*
X-130810Y-130981D02*
X-132176Y-131253D01*
X-133333Y-132027D01*
X-134107Y-133184D01*
X-134379Y-134550D01*
X-134107Y-135916D01*
X-133333Y-137073D01*
X-132176Y-137847D01*
X-130810Y-138119D01*
X-129444Y-137847D01*
X-128287Y-137073D01*
X-127513Y-135916D01*
X-127241Y-134550D01*
X-127513Y-133184D01*
X-128287Y-132027D01*
X-129444Y-131253D01*
X-130810Y-130981D01*
D02*
G37*
G36*
X-144780Y-132321D02*
X-146146Y-132593D01*
X-147303Y-133367D01*
X-148077Y-134524D01*
X-148349Y-135890D01*
X-148077Y-137256D01*
X-147303Y-138413D01*
X-146146Y-139187D01*
X-144780Y-139459D01*
X-143414Y-139187D01*
X-142257Y-138413D01*
X-141483Y-137256D01*
X-141211Y-135890D01*
X-141483Y-134524D01*
X-142257Y-133367D01*
X-143414Y-132593D01*
X-144780Y-132321D01*
D02*
G37*
G36*
X103346Y-133505D02*
X101980Y-133776D01*
X100823Y-134550D01*
X100049Y-135708D01*
X99777Y-137073D01*
X100049Y-138439D01*
X100823Y-139597D01*
X101980Y-140370D01*
X103346Y-140642D01*
X104712Y-140370D01*
X105869Y-139597D01*
X106643Y-138439D01*
X106915Y-137073D01*
X106643Y-135708D01*
X105869Y-134550D01*
X104712Y-133776D01*
X103346Y-133505D01*
D02*
G37*
G36*
X127000Y-134861D02*
X125634Y-135133D01*
X124477Y-135907D01*
X123703Y-137064D01*
X123431Y-138430D01*
X123703Y-139796D01*
X124477Y-140953D01*
X125634Y-141727D01*
X127000Y-141999D01*
X128366Y-141727D01*
X129523Y-140953D01*
X130297Y-139796D01*
X130569Y-138430D01*
X130297Y-137064D01*
X129523Y-135907D01*
X128366Y-135133D01*
X127000Y-134861D01*
D02*
G37*
G36*
X-10740Y-137973D02*
X-12106Y-138245D01*
X-13263Y-139018D01*
X-14037Y-140176D01*
X-14309Y-141542D01*
X-14037Y-142907D01*
X-13263Y-144065D01*
X-12106Y-144838D01*
X-10740Y-145110D01*
X-9374Y-144838D01*
X-8217Y-144065D01*
X-7443Y-142907D01*
X-7171Y-141542D01*
X-7443Y-140176D01*
X-8217Y-139018D01*
X-9374Y-138245D01*
X-10740Y-137973D01*
D02*
G37*
G36*
X-155080Y-143665D02*
X-156446Y-143936D01*
X-157603Y-144710D01*
X-158377Y-145868D01*
X-158649Y-147233D01*
X-158377Y-148599D01*
X-157603Y-149757D01*
X-156446Y-150530D01*
X-155080Y-150802D01*
X-153714Y-150530D01*
X-152557Y-149757D01*
X-151783Y-148599D01*
X-151511Y-147233D01*
X-151783Y-145868D01*
X-152557Y-144710D01*
X-153714Y-143936D01*
X-155080Y-143665D01*
D02*
G37*
G36*
X-107950Y-155181D02*
X-109316Y-155453D01*
X-110473Y-156227D01*
X-111247Y-157384D01*
X-111519Y-158750D01*
X-111247Y-160116D01*
X-110473Y-161273D01*
X-109316Y-162047D01*
X-107950Y-162319D01*
X-106584Y-162047D01*
X-105427Y-161273D01*
X-104653Y-160116D01*
X-104381Y-158750D01*
X-104653Y-157384D01*
X-105427Y-156227D01*
X-106584Y-155453D01*
X-107950Y-155181D01*
D02*
G37*
G36*
X144780Y-175501D02*
X143414Y-175773D01*
X142257Y-176547D01*
X141483Y-177704D01*
X141211Y-179070D01*
X141483Y-180436D01*
X142257Y-181593D01*
X143414Y-182367D01*
X144780Y-182639D01*
X146146Y-182367D01*
X147303Y-181593D01*
X148077Y-180436D01*
X148349Y-179070D01*
X148077Y-177704D01*
X147303Y-176547D01*
X146146Y-175773D01*
X144780Y-175501D01*
D02*
G37*
G36*
X-87630Y-178041D02*
X-88996Y-178313D01*
X-90153Y-179087D01*
X-90927Y-180244D01*
X-91199Y-181610D01*
X-90927Y-182976D01*
X-90153Y-184133D01*
X-88996Y-184907D01*
X-87630Y-185179D01*
X-86264Y-184907D01*
X-85107Y-184133D01*
X-84333Y-182976D01*
X-84061Y-181610D01*
X-84333Y-180244D01*
X-85107Y-179087D01*
X-86264Y-178313D01*
X-87630Y-178041D01*
D02*
G37*
G36*
X22500Y-190741D02*
X21134Y-191013D01*
X19977Y-191787D01*
X19203Y-192944D01*
X18931Y-194310D01*
X19203Y-195676D01*
X19977Y-196833D01*
X21134Y-197607D01*
X22500Y-197879D01*
X23866Y-197607D01*
X25023Y-196833D01*
X25797Y-195676D01*
X26069Y-194310D01*
X25797Y-192944D01*
X25023Y-191787D01*
X23866Y-191013D01*
X22500Y-190741D01*
D02*
G37*
G36*
X12500D02*
X11134Y-191013D01*
X9977Y-191787D01*
X9203Y-192944D01*
X8931Y-194310D01*
X9203Y-195676D01*
X9977Y-196833D01*
X11134Y-197607D01*
X12500Y-197879D01*
X13866Y-197607D01*
X15023Y-196833D01*
X15797Y-195676D01*
X16069Y-194310D01*
X15797Y-192944D01*
X15023Y-191787D01*
X13866Y-191013D01*
X12500Y-190741D01*
D02*
G37*
G36*
X2500D02*
X1134Y-191013D01*
X-23Y-191787D01*
X-797Y-192944D01*
X-1069Y-194310D01*
X-797Y-195676D01*
X-23Y-196833D01*
X1134Y-197607D01*
X2500Y-197879D01*
X3866Y-197607D01*
X5023Y-196833D01*
X5797Y-195676D01*
X6069Y-194310D01*
X5797Y-192944D01*
X5023Y-191787D01*
X3866Y-191013D01*
X2500Y-190741D01*
D02*
G37*
G36*
X-17500D02*
X-18866Y-191013D01*
X-20023Y-191787D01*
X-20797Y-192944D01*
X-21068Y-194310D01*
X-20797Y-195676D01*
X-20023Y-196833D01*
X-18866Y-197607D01*
X-17500Y-197879D01*
X-16134Y-197607D01*
X-14977Y-196833D01*
X-14203Y-195676D01*
X-13931Y-194310D01*
X-14203Y-192944D01*
X-14977Y-191787D01*
X-16134Y-191013D01*
X-17500Y-190741D01*
D02*
G37*
G36*
X-127000Y-192011D02*
X-128366Y-192283D01*
X-129523Y-193057D01*
X-130297Y-194214D01*
X-130569Y-195580D01*
X-130297Y-196946D01*
X-129523Y-198103D01*
X-128366Y-198877D01*
X-127000Y-199149D01*
X-125634Y-198877D01*
X-124477Y-198103D01*
X-123703Y-196946D01*
X-123431Y-195580D01*
X-123703Y-194214D01*
X-124477Y-193057D01*
X-125634Y-192283D01*
X-127000Y-192011D01*
D02*
G37*
G36*
X138430Y-208955D02*
X137064Y-209227D01*
X135907Y-210001D01*
X135133Y-211158D01*
X134861Y-212524D01*
X135133Y-213890D01*
X135907Y-215047D01*
X137064Y-215821D01*
X138430Y-216092D01*
X139796Y-215821D01*
X140953Y-215047D01*
X141727Y-213890D01*
X141999Y-212524D01*
X141727Y-211158D01*
X140953Y-210001D01*
X139796Y-209227D01*
X138430Y-208955D01*
D02*
G37*
G36*
X17500Y-217411D02*
X16134Y-217683D01*
X14977Y-218457D01*
X14203Y-219614D01*
X13931Y-220980D01*
X14203Y-222346D01*
X14977Y-223503D01*
X16134Y-224277D01*
X17500Y-224549D01*
X18866Y-224277D01*
X20023Y-223503D01*
X20797Y-222346D01*
X21069Y-220980D01*
X20797Y-219614D01*
X20023Y-218457D01*
X18866Y-217683D01*
X17500Y-217411D01*
D02*
G37*
G36*
X7500D02*
X6134Y-217683D01*
X4977Y-218457D01*
X4203Y-219614D01*
X3932Y-220980D01*
X4203Y-222346D01*
X4977Y-223503D01*
X6134Y-224277D01*
X7500Y-224549D01*
X8866Y-224277D01*
X10023Y-223503D01*
X10797Y-222346D01*
X11069Y-220980D01*
X10797Y-219614D01*
X10023Y-218457D01*
X8866Y-217683D01*
X7500Y-217411D01*
D02*
G37*
G36*
X-2500D02*
X-3866Y-217683D01*
X-5023Y-218457D01*
X-5797Y-219614D01*
X-6069Y-220980D01*
X-5797Y-222346D01*
X-5023Y-223503D01*
X-3866Y-224277D01*
X-2500Y-224549D01*
X-1134Y-224277D01*
X23Y-223503D01*
X797Y-222346D01*
X1069Y-220980D01*
X797Y-219614D01*
X23Y-218457D01*
X-1134Y-217683D01*
X-2500Y-217411D01*
D02*
G37*
G36*
X-12500D02*
X-13866Y-217683D01*
X-15023Y-218457D01*
X-15797Y-219614D01*
X-16069Y-220980D01*
X-15797Y-222346D01*
X-15023Y-223503D01*
X-13866Y-224277D01*
X-12500Y-224549D01*
X-11134Y-224277D01*
X-9977Y-223503D01*
X-9203Y-222346D01*
X-8931Y-220980D01*
X-9203Y-219614D01*
X-9977Y-218457D01*
X-11134Y-217683D01*
X-12500Y-217411D01*
D02*
G37*
G36*
X-22500D02*
X-23866Y-217683D01*
X-25023Y-218457D01*
X-25797Y-219614D01*
X-26069Y-220980D01*
X-25797Y-222346D01*
X-25023Y-223503D01*
X-23866Y-224277D01*
X-22500Y-224549D01*
X-21134Y-224277D01*
X-19977Y-223503D01*
X-19203Y-222346D01*
X-18931Y-220980D01*
X-19203Y-219614D01*
X-19977Y-218457D01*
X-21134Y-217683D01*
X-22500Y-217411D01*
D02*
G37*
G36*
X124460Y-252156D02*
X123094Y-252428D01*
X121937Y-253201D01*
X121163Y-254359D01*
X120891Y-255725D01*
X121163Y-257090D01*
X121937Y-258248D01*
X123094Y-259022D01*
X124460Y-259293D01*
X125826Y-259022D01*
X126983Y-258248D01*
X127757Y-257090D01*
X128029Y-255725D01*
X127757Y-254359D01*
X126983Y-253201D01*
X125826Y-252428D01*
X124460Y-252156D01*
D02*
G37*
%LPD*%
D45*
X233680Y49434D02*
Y59690D01*
X71120Y45321D02*
Y57150D01*
X190596Y6350D02*
X233680Y49434D01*
X110091Y6350D02*
X190596D01*
X71120Y45321D02*
X110091Y6350D01*
D75*
X152174Y-249660D02*
G03*
X158554Y-238956I-17960J17960D01*
G01*
X50345Y-249387D02*
G03*
X48260Y-244353I-7120J0D01*
G01*
X50345Y-268360D02*
G03*
X53340Y-275590I10224J0D01*
G01*
X119169Y-278341D02*
G03*
X129873Y-271961I-7257J24341D01*
G01*
X111912Y-279400D02*
G03*
X119169Y-278341I0J25400D01*
G01*
X53340Y-275590D02*
G03*
X62538Y-279400I9198J9198D01*
G01*
X-56283Y-233020D02*
G03*
X-38322Y-240460I17960J17960D01*
G01*
X48260Y-244353D02*
G03*
X41295Y-240685I-9399J-9399D01*
G01*
D02*
G03*
X38861Y-240460I-2433J-13067D01*
G01*
X-227330Y-130615D02*
G03*
X-219890Y-148575I25400J0D01*
G01*
X-238760Y-34013D02*
G03*
X-234437Y-44450I14760J0D01*
G01*
X-227330Y-60960D02*
G03*
X-228095Y-55114I-22701J0D01*
G01*
X-143512Y-214628D02*
G03*
X-143510Y-214630I9200J9196D01*
G01*
X-132080Y-226060D02*
G03*
X-132078Y-226062I9198J9198D01*
G01*
X-132078D02*
G03*
X-122882Y-229870I9196J9201D01*
G01*
X-175903Y-160647D02*
G03*
X-193864Y-153207I-17960J-17960D01*
G01*
X-219710Y-148756D02*
G03*
X-208963Y-153207I10747J10747D01*
G01*
X-147320Y-205432D02*
G03*
X-143512Y-214628I13008J0D01*
G01*
X-147320Y-194313D02*
G03*
X-150914Y-185636I-12271J0D01*
G01*
X-228095Y-55114D02*
G03*
X-233979Y-44908I-21936J-5846D01*
G01*
X158554Y-238956D02*
G03*
X159613Y-231699I-24341J7257D01*
G01*
X-238760Y-34013D02*
Y45300D01*
X129873Y-271961D02*
X152174Y-249660D01*
X62538Y-279400D02*
X111912D01*
X-59433Y-229870D02*
X-56283Y-233020D01*
X50345Y-268360D02*
Y-249387D01*
X-38322Y-240460D02*
X38861D01*
X-227330Y-130615D02*
Y-60960D01*
X-132080Y-226060D02*
X-132078Y-226062D01*
X-143510Y-214630D02*
X-132080Y-226060D01*
X-143512Y-214628D02*
X-143510Y-214630D01*
X-208963Y-153207D02*
X-193864D01*
X-219890Y-148575D02*
X-219710Y-148756D01*
X-147320Y-205432D02*
Y-194313D01*
X-175903Y-160647D02*
X-150914Y-185636D01*
X-234437Y-44450D02*
X-233979Y-44908D01*
X-122882Y-229870D02*
X-59433D01*
X159613Y-231699D02*
Y-151130D01*
D76*
X157185Y78550D02*
X163465Y72270D01*
X163616D01*
X169882Y66004D01*
Y62500D02*
Y66004D01*
X-109809Y96520D02*
X-102529Y89241D01*
X35370Y113220D02*
X56090Y92500D01*
X99060D01*
X72643Y125663D02*
X119756Y78550D01*
X60893Y125663D02*
X72643D01*
X48260Y113030D02*
X60893Y125663D01*
X74523Y130203D02*
X121636Y83090D01*
X53340Y130203D02*
X74523D01*
X53340Y129881D02*
Y130203D01*
X41910Y118450D02*
X53340Y129881D01*
X159391Y83090D02*
X165011Y77470D01*
X164752Y87630D02*
X169882Y82500D01*
X-187097Y121057D02*
X-169540Y103500D01*
X-204470Y121057D02*
X-187097D01*
X-169540Y103500D02*
X-162465D01*
X-170030Y133500D02*
X-131889D01*
X-125730Y127340D01*
X-143510Y96520D02*
X-109809D01*
X-160490Y113500D02*
X-143510Y96520D01*
X-170030Y113500D02*
X-160490D01*
X124150Y106680D02*
X167330Y149860D01*
X210820Y138430D02*
X250380D01*
X199390Y149860D02*
X210820Y138430D01*
X167330Y149860D02*
X199390D01*
X250380Y138430D02*
X269430Y119380D01*
X111760Y101600D02*
X125730Y87630D01*
X164752D01*
X119756Y78550D02*
X157185D01*
X121636Y83090D02*
X159391D01*
X40628Y-317410D02*
G03*
X317466Y-40193I-40628J317410D01*
G01*
X-317490Y-40000D02*
G03*
X-40193Y-317466I317490J40000D01*
G01*
X-50800Y315942D02*
G03*
X-317489Y40010I50800J-315942D01*
G01*
X317466Y40193D02*
G03*
X51000Y315910I-317466J-40193D01*
G01*
X250000Y-40000D02*
X317466D01*
X40000Y-317410D02*
Y-250000D01*
X-40000D02*
X40000D01*
X-40000Y-317466D02*
Y-250000D01*
X-317500Y-40000D02*
X-250000D01*
Y40000D01*
X-317409D02*
X-250000D01*
X-50800Y250000D02*
Y315949D01*
Y250000D02*
X50800D01*
Y315910D01*
X250000Y40000D02*
X317466D01*
X250000Y-40000D02*
Y40000D01*
D81*
X-3080Y167640D02*
D03*
X71120Y47500D02*
D03*
X-79075Y-119380D02*
D03*
X222250Y-7239D02*
D03*
X233680Y52070D02*
D03*
X-102529Y89241D02*
D03*
X-41910Y20320D02*
D03*
X-238760Y45300D02*
D03*
X159613Y-151130D02*
D03*
X-59433Y-229870D02*
D03*
X95250Y-226950D02*
D03*
X72390Y-227140D02*
D03*
Y-217170D02*
D03*
X-107950Y-133350D02*
D03*
X95250Y-217170D02*
D03*
X35370Y113220D02*
D03*
X165011Y77470D02*
D03*
X169882Y82500D02*
D03*
X-204470Y121057D02*
D03*
X-168910Y33560D02*
D03*
X-217860Y-4500D02*
D03*
X-204470Y154746D02*
D03*
X-214001Y70676D02*
D03*
X-81860Y158640D02*
D03*
X-18470Y127390D02*
D03*
X-111070Y106680D02*
D03*
X191770Y57525D02*
D03*
X-130230Y142930D02*
D03*
X83876Y-227140D02*
D03*
Y-216980D02*
D03*
X22270Y-79780D02*
D03*
X27270Y-106010D02*
D03*
X-112730Y-81280D02*
D03*
X-117730Y-49879D02*
D03*
X-1270Y207010D02*
D03*
X-125730Y127340D02*
D03*
X-7500Y-194310D02*
D03*
X-162465Y103500D02*
D03*
X-180750Y147320D02*
D03*
X-170030Y133500D02*
D03*
Y113500D02*
D03*
X215804Y-7239D02*
D03*
X71120Y57150D02*
D03*
X233680Y59690D02*
D03*
X184150Y138430D02*
D03*
X124150Y106680D02*
D03*
X111760Y101600D02*
D03*
X169882Y62500D02*
D03*
X99060Y92500D02*
D03*
X41910Y118450D02*
D03*
X48260Y113030D02*
D03*
X269430Y119380D02*
D03*
M02*
