G04*
G04 #@! TF.GenerationSoftware,Altium Limited,Altium Designer,20.0.2 (26)*
G04*
G04 Layer_Color=128*
%FSLAX44Y44*%
%MOMM*%
G71*
G01*
G75*
%ADD105C,0.0508*%
D105*
X-283210Y57150D02*
X-275590D01*
X-279400Y53340D02*
Y60960D01*
X-283210Y76200D02*
X-275590D01*
X-279400Y72390D02*
Y80010D01*
X-201000Y-190000D02*
X-179000D01*
X-190000Y-201000D02*
Y-179000D01*
X179000Y-190000D02*
X201000D01*
X190000Y-201000D02*
Y-179000D01*
X179000Y190000D02*
X201000D01*
X190000Y179000D02*
Y201000D01*
X-201000Y190000D02*
X-179000D01*
X-190000Y179000D02*
Y201000D01*
X-100872Y20320D02*
X-98372D01*
X-99622Y19070D02*
Y21570D01*
X-26273Y11190D02*
X-23773D01*
X-25023Y9940D02*
Y12440D01*
X-55924Y2439D02*
X-53424D01*
X-54674Y1190D02*
Y3690D01*
X-4330Y167640D02*
X-1830D01*
X-3080Y166390D02*
Y168890D01*
X-156380Y146807D02*
X-153880D01*
X-155130Y145557D02*
Y148057D01*
X-130790Y-260417D02*
X-128290D01*
X-129540Y-261667D02*
Y-259167D01*
X-109200Y-273050D02*
X-106700D01*
X-107950Y-274300D02*
Y-271800D01*
X69870Y47500D02*
X72370D01*
X71120Y46250D02*
Y48750D01*
X-80325Y-119380D02*
X-77825D01*
X-79075Y-120630D02*
Y-118130D01*
X221000Y-7239D02*
X223500D01*
X222250Y-8489D02*
Y-5989D01*
X161921Y-19050D02*
X164421D01*
X163171Y-20300D02*
Y-17800D01*
X211564Y-33331D02*
X214064D01*
X212814Y-34581D02*
Y-32081D01*
X232430Y52070D02*
X234930D01*
X233680Y50820D02*
Y53320D01*
X179090Y-10138D02*
X181590D01*
X180340Y-11388D02*
Y-8888D01*
X102096Y-137073D02*
X104596D01*
X103346Y-138323D02*
Y-135823D01*
X-2417Y-78740D02*
X83D01*
X-1167Y-79990D02*
Y-77490D01*
X-1560Y-49950D02*
X940D01*
X-310Y-51200D02*
Y-48700D01*
X239415Y109651D02*
X241915D01*
X240665Y108401D02*
Y110901D01*
X239415Y97500D02*
X241915D01*
X240665Y96250D02*
Y98750D01*
X223540Y97500D02*
X226040D01*
X224790Y96250D02*
Y98750D01*
X223950Y109931D02*
X226450D01*
X225200Y108681D02*
Y111181D01*
X227720Y-191770D02*
X230220D01*
X228970Y-193020D02*
Y-190520D01*
X123210Y-255725D02*
X125710D01*
X124460Y-256975D02*
Y-254475D01*
X88444Y-288290D02*
X90944D01*
X89694Y-289540D02*
Y-287040D01*
X-103779Y89241D02*
X-101279D01*
X-102529Y87991D02*
Y90491D01*
X-9180Y30120D02*
X-6680D01*
X-7930Y28870D02*
Y31370D01*
X-71100Y28575D02*
X-68600D01*
X-69850Y27325D02*
Y29825D01*
X-52050Y50800D02*
X-49550D01*
X-50800Y49550D02*
Y52050D01*
X154960Y-59690D02*
X157460D01*
X156210Y-60940D02*
Y-58440D01*
X150230Y-28035D02*
X152730D01*
X151480Y-29285D02*
Y-26785D01*
X168678Y-22296D02*
X171178D01*
X169928Y-23546D02*
Y-21046D01*
X174010Y-16908D02*
X176510D01*
X175260Y-18158D02*
Y-15658D01*
X156230Y-43249D02*
X158730D01*
X157480Y-44499D02*
Y-41999D01*
X215920Y-105410D02*
X218420D01*
X217170Y-106660D02*
Y-104160D01*
X-43160Y20320D02*
X-40660D01*
X-41910Y19070D02*
Y21570D01*
X-133480Y4534D02*
X-130980D01*
X-132230Y3284D02*
Y5784D01*
X-133330Y16510D02*
X-130830D01*
X-132080Y15260D02*
Y17760D01*
X-141420Y53500D02*
X-138920D01*
X-140170Y52250D02*
Y54750D01*
X45970Y-2540D02*
X48470D01*
X47220Y-3790D02*
Y-1290D01*
X41020Y-54720D02*
X43520D01*
X42270Y-55970D02*
Y-53470D01*
X51020Y3810D02*
X53520D01*
X52270Y2560D02*
Y5060D01*
X60980Y3810D02*
X63480D01*
X62230Y2560D02*
Y5060D01*
X51020Y-54720D02*
X53520D01*
X52270Y-55970D02*
Y-53470D01*
X56020Y-2540D02*
X58520D01*
X57270Y-3790D02*
Y-1290D01*
X61020Y-54720D02*
X63520D01*
X62270Y-55970D02*
Y-53470D01*
X41020Y-8020D02*
X43520D01*
X42270Y-9270D02*
Y-6770D01*
X142260Y-102887D02*
X144760D01*
X143510Y-104137D02*
Y-101637D01*
X79620Y-43180D02*
X82120D01*
X80870Y-44430D02*
Y-41930D01*
X-240010Y45300D02*
X-237510D01*
X-238760Y44050D02*
Y46550D01*
X158363Y-151130D02*
X160863D01*
X159613Y-152380D02*
Y-149880D01*
X-60683Y-229870D02*
X-58183D01*
X-59433Y-231120D02*
Y-228620D01*
X250010Y-80210D02*
X252510D01*
X251260Y-81460D02*
Y-78960D01*
X243860Y-64770D02*
X246360D01*
X245110Y-66020D02*
Y-63520D01*
X59654Y-287020D02*
X62154D01*
X60904Y-288270D02*
Y-285770D01*
X-2520Y-114300D02*
X-20D01*
X-1270Y-115550D02*
Y-113050D01*
X94000Y-226950D02*
X96500D01*
X95250Y-228200D02*
Y-225700D01*
X71140Y-227140D02*
X73640D01*
X72390Y-228390D02*
Y-225890D01*
X71140Y-217170D02*
X73640D01*
X72390Y-218420D02*
Y-215920D01*
X-109200Y-158750D02*
X-106700D01*
X-107950Y-160000D02*
Y-157500D01*
X-109200Y-133350D02*
X-106700D01*
X-107950Y-134600D02*
Y-132100D01*
X-132060Y-134550D02*
X-129560D01*
X-130810Y-135800D02*
Y-133300D01*
X295930Y-64770D02*
X298430D01*
X297180Y-66020D02*
Y-63520D01*
X-2520Y-127000D02*
X-20D01*
X-1270Y-128250D02*
Y-125750D01*
X94000Y-217170D02*
X96500D01*
X95250Y-218420D02*
Y-215920D01*
X-11990Y-141542D02*
X-9490D01*
X-10740Y-142792D02*
Y-140292D01*
X60984Y98877D02*
X63484D01*
X62234Y97627D02*
Y100127D01*
X76220Y98877D02*
X78720D01*
X77470Y97627D02*
Y100127D01*
X76220Y109733D02*
X78720D01*
X77470Y108483D02*
Y110983D01*
X60980Y109931D02*
X63480D01*
X62230Y108681D02*
Y111181D01*
X34120Y113220D02*
X36620D01*
X35370Y111970D02*
Y114470D01*
X142260Y154004D02*
X144760D01*
X143510Y152754D02*
Y155254D01*
X120310Y53340D02*
X122810D01*
X121560Y52090D02*
Y54590D01*
X128749Y64770D02*
X131249D01*
X129999Y63520D02*
Y66020D01*
X160390Y67500D02*
X162890D01*
X161640Y66250D02*
Y68750D01*
X163761Y77470D02*
X166261D01*
X165011Y76220D02*
Y78720D01*
X168632Y82500D02*
X171132D01*
X169882Y81250D02*
Y83750D01*
X160390Y57500D02*
X162890D01*
X161640Y56250D02*
Y58750D01*
X163761Y97500D02*
X166261D01*
X165011Y96250D02*
Y98750D01*
X168632Y92500D02*
X171132D01*
X169882Y91250D02*
Y93750D01*
X94513Y-49530D02*
X97013D01*
X95763Y-50780D02*
Y-48280D01*
X-156990Y-199988D02*
X-154490D01*
X-155740Y-201238D02*
Y-198738D01*
X-264140Y123772D02*
X-261640D01*
X-262890Y122522D02*
Y125022D01*
X-205720Y121057D02*
X-203220D01*
X-204470Y119807D02*
Y122307D01*
X-170160Y33560D02*
X-167660D01*
X-168910Y32310D02*
Y34810D01*
X-166950Y44450D02*
X-164450D01*
X-165700Y43200D02*
Y45700D01*
X-148570Y-25400D02*
X-146070D01*
X-147320Y-26650D02*
Y-24150D01*
X-276840Y-53594D02*
X-274340D01*
X-275590Y-54844D02*
Y-52344D01*
X-221693Y-71190D02*
X-219193D01*
X-220443Y-72440D02*
Y-69940D01*
X-205720Y-99060D02*
X-203220D01*
X-204470Y-100310D02*
Y-97810D01*
X-157365Y-102870D02*
X-154865D01*
X-156115Y-104120D02*
Y-101620D01*
X-146030Y-135890D02*
X-143530D01*
X-144780Y-137140D02*
Y-134640D01*
X-88880Y-181610D02*
X-86380D01*
X-87630Y-182860D02*
Y-180360D01*
X-219110Y-4500D02*
X-216610D01*
X-217860Y-5750D02*
Y-3250D01*
X-205720Y154746D02*
X-203220D01*
X-204470Y153496D02*
Y155996D01*
X-251536Y72390D02*
X-249036D01*
X-250286Y71140D02*
Y73640D01*
X-232390Y0D02*
X-229890D01*
X-231140Y-1250D02*
Y1250D01*
X-215251Y70676D02*
X-212751D01*
X-214001Y69426D02*
Y71926D01*
X-83110Y158640D02*
X-80610D01*
X-81860Y157390D02*
Y159890D01*
X-19720Y127390D02*
X-17220D01*
X-18470Y126140D02*
Y128640D01*
X-112320Y106680D02*
X-109820D01*
X-111070Y105430D02*
Y107930D01*
X190520Y57525D02*
X193020D01*
X191770Y56275D02*
Y58775D01*
X105430Y117869D02*
X107930D01*
X106680Y116619D02*
Y119119D01*
X70890Y-54610D02*
X73390D01*
X72140Y-55860D02*
Y-53360D01*
X51619Y-108755D02*
X54119D01*
X52869Y-110005D02*
Y-107505D01*
X31487Y193040D02*
X33987D01*
X32737Y191790D02*
Y194290D01*
X11020Y126071D02*
X13520D01*
X12270Y124821D02*
Y127321D01*
X6370Y77470D02*
X8870D01*
X7620Y76220D02*
Y78720D01*
X-55860Y88900D02*
X-53360D01*
X-54610Y87650D02*
Y90150D01*
X-82430Y-31991D02*
X-79930D01*
X-81180Y-33241D02*
Y-30741D01*
X-101480Y-2540D02*
X-98980D01*
X-100230Y-3790D02*
Y-1290D01*
X-16490Y-127000D02*
X-13990D01*
X-15240Y-128250D02*
Y-125750D01*
X-131480Y142930D02*
X-128980D01*
X-130230Y141680D02*
Y144180D01*
X208300Y-114300D02*
X210800D01*
X209550Y-115550D02*
Y-113050D01*
X137180Y-212524D02*
X139680D01*
X138430Y-213774D02*
Y-211274D01*
X143530Y-179070D02*
X146030D01*
X144780Y-180320D02*
Y-177820D01*
X125750Y-138430D02*
X128250D01*
X127000Y-139680D02*
Y-137180D01*
X82626Y-227140D02*
X85126D01*
X83876Y-228390D02*
Y-225890D01*
X82626Y-216980D02*
X85126D01*
X83876Y-218230D02*
Y-215730D01*
X21020Y-79780D02*
X23520D01*
X22270Y-81030D02*
Y-78530D01*
X26020Y-106010D02*
X28520D01*
X27270Y-107260D02*
Y-104760D01*
X-113980Y-81280D02*
X-111480D01*
X-112730Y-82530D02*
Y-80030D01*
X-118980Y-49879D02*
X-116480D01*
X-117730Y-51129D02*
Y-48629D01*
X-10140Y229870D02*
X-7640D01*
X-8890Y228620D02*
Y231120D01*
X-2520Y207010D02*
X-20D01*
X-1270Y205760D02*
Y208260D01*
X-105390Y222250D02*
X-102890D01*
X-104140Y221000D02*
Y223500D01*
X-115550Y212090D02*
X-113050D01*
X-114300Y210840D02*
Y213340D01*
X85110Y-7620D02*
X87610D01*
X86360Y-8870D02*
Y-6370D01*
X79620Y-1810D02*
X82120D01*
X80870Y-3060D02*
Y-560D01*
X-13950Y-36449D02*
X-11450D01*
X-12700Y-37699D02*
Y-35199D01*
X-126980Y127340D02*
X-124480D01*
X-125730Y126090D02*
Y128590D01*
X-148570Y-247650D02*
X-146070D01*
X-147320Y-248900D02*
Y-246400D01*
X-156330Y-247650D02*
X-153830D01*
X-155080Y-248900D02*
Y-246400D01*
X16250Y-220980D02*
X18750D01*
X17500Y-222230D02*
Y-219730D01*
X-60940Y-269240D02*
X-58440D01*
X-59690Y-270490D02*
Y-267990D01*
X-65410Y213360D02*
X-62910D01*
X-64160Y212110D02*
Y214610D01*
X4520Y183254D02*
X7020D01*
X5770Y182004D02*
Y184504D01*
X-31210Y194310D02*
X-28710D01*
X-29960Y193060D02*
Y195560D01*
X20450Y143510D02*
X22950D01*
X21700Y142260D02*
Y144760D01*
X-12711Y153701D02*
X-10211D01*
X-11461Y152451D02*
Y154951D01*
X-245230Y-121990D02*
X-242730D01*
X-243980Y-123240D02*
Y-120740D01*
X-245230Y-134690D02*
X-242730D01*
X-243980Y-135940D02*
Y-133440D01*
X-245230Y-147390D02*
X-242730D01*
X-243980Y-148640D02*
Y-146140D01*
X-245230Y-83890D02*
X-242730D01*
X-243980Y-85140D02*
Y-82640D01*
X-245230Y-71190D02*
X-242730D01*
X-243980Y-72440D02*
Y-69940D01*
X-245230Y-58490D02*
X-242730D01*
X-243980Y-59740D02*
Y-57240D01*
X-111740Y265430D02*
X-109240D01*
X-110490Y264180D02*
Y266680D01*
X-122480Y265430D02*
X-119980D01*
X-121230Y264180D02*
Y266680D01*
X6250Y-220980D02*
X8750D01*
X7500Y-222230D02*
Y-219730D01*
X-3750Y-220980D02*
X-1250D01*
X-2500Y-222230D02*
Y-219730D01*
X-13750Y-220980D02*
X-11250D01*
X-12500Y-222230D02*
Y-219730D01*
X-23750Y-220980D02*
X-21250D01*
X-22500Y-222230D02*
Y-219730D01*
X21250Y-194310D02*
X23750D01*
X22500Y-195560D02*
Y-193060D01*
X11250Y-194310D02*
X13750D01*
X12500Y-195560D02*
Y-193060D01*
X1250Y-194310D02*
X3750D01*
X2500Y-195560D02*
Y-193060D01*
X-8750Y-194310D02*
X-6250D01*
X-7500Y-195560D02*
Y-193060D01*
X-18750Y-194310D02*
X-16250D01*
X-17500Y-195560D02*
Y-193060D01*
X-163715Y103500D02*
X-161215D01*
X-162465Y102250D02*
Y104750D01*
X-46970Y101940D02*
X-44470D01*
X-45720Y100690D02*
Y103190D01*
X-46970Y114300D02*
X-44470D01*
X-45720Y113050D02*
Y115550D01*
X-182000Y147320D02*
X-179500D01*
X-180750Y146070D02*
Y148570D01*
X-135870Y108500D02*
X-133370D01*
X-134620Y107250D02*
Y109750D01*
X-141420Y113500D02*
X-138920D01*
X-140170Y112250D02*
Y114750D01*
X-141420Y123500D02*
X-138920D01*
X-140170Y122250D02*
Y124750D01*
X-163715Y138750D02*
X-161215D01*
X-162465Y137500D02*
Y140000D01*
X-166350Y78500D02*
X-163850D01*
X-165100Y77250D02*
Y79750D01*
X-171280Y83500D02*
X-168780D01*
X-170030Y82250D02*
Y84750D01*
X53620Y147320D02*
X56120D01*
X54870Y146070D02*
Y148570D01*
X-171280Y133500D02*
X-168780D01*
X-170030Y132250D02*
Y134750D01*
X-166350Y118500D02*
X-163850D01*
X-165100Y117250D02*
Y119750D01*
X-171280Y123500D02*
X-168780D01*
X-170030Y122250D02*
Y124750D01*
X-171280Y113500D02*
X-168780D01*
X-170030Y112250D02*
Y114750D01*
X214554Y-7239D02*
X217054D01*
X215804Y-8489D02*
Y-5989D01*
X69870Y57150D02*
X72370D01*
X71120Y55900D02*
Y58400D01*
X232430Y59690D02*
X234930D01*
X233680Y58440D02*
Y60940D01*
X138450Y112500D02*
X140950D01*
X139700Y111250D02*
Y113750D01*
X182900Y138430D02*
X185400D01*
X184150Y137180D02*
Y139680D01*
X161921Y122500D02*
X164421D01*
X163171Y121250D02*
Y123750D01*
X168632Y127500D02*
X171132D01*
X169882Y126250D02*
Y128750D01*
X122900Y106680D02*
X125400D01*
X124150Y105430D02*
Y107930D01*
X110510Y101600D02*
X113010D01*
X111760Y100350D02*
Y102850D01*
X168632Y62500D02*
X171132D01*
X169882Y61250D02*
Y63750D01*
X97810Y92500D02*
X100310D01*
X99060Y91250D02*
Y93750D01*
X40660Y118450D02*
X43160D01*
X41910Y117200D02*
Y119700D01*
X47010Y113030D02*
X49510D01*
X48260Y111780D02*
Y114280D01*
X134640Y92500D02*
X137140D01*
X135890Y91250D02*
Y93750D01*
X118130Y126810D02*
X120630D01*
X119380Y125560D02*
Y128060D01*
X165502Y47500D02*
X168002D01*
X166752Y46250D02*
Y48750D01*
X138450Y102500D02*
X140950D01*
X139700Y101250D02*
Y103750D01*
X128749Y97500D02*
X131249D01*
X129999Y96250D02*
Y98750D01*
X168632Y102500D02*
X171132D01*
X169882Y101250D02*
Y103750D01*
X190410Y72500D02*
X192910D01*
X191660Y71250D02*
Y73750D01*
X190410Y107500D02*
X192910D01*
X191660Y106250D02*
Y108750D01*
X138136Y140204D02*
X140636D01*
X139386Y138954D02*
Y141454D01*
X215920Y144780D02*
X218420D01*
X217170Y143530D02*
Y146030D01*
X222270Y152400D02*
X224770D01*
X223520Y151150D02*
Y153650D01*
X229180Y145490D02*
X231680D01*
X230430Y144240D02*
Y146740D01*
X168632Y112500D02*
X171132D01*
X169882Y111250D02*
Y113750D01*
X53620Y60960D02*
X56120D01*
X54870Y59710D02*
Y62210D01*
X216180Y60960D02*
X218680D01*
X217430Y59710D02*
Y62210D01*
X203220Y90170D02*
X205720D01*
X204470Y88920D02*
Y91420D01*
X268180Y119380D02*
X270680D01*
X269430Y118130D02*
Y120630D01*
X85110Y-48260D02*
X87610D01*
X86360Y-49510D02*
Y-47010D01*
X-58980Y-54720D02*
X-56480D01*
X-57730Y-55970D02*
Y-53470D01*
X-99040Y-78740D02*
X-96540D01*
X-97790Y-79990D02*
Y-77490D01*
X-93960Y-105410D02*
X-91460D01*
X-92710Y-106660D02*
Y-104160D01*
X-83980Y-81280D02*
X-81480D01*
X-82730Y-82530D02*
Y-80030D01*
X165502Y39370D02*
X168002D01*
X166752Y38120D02*
Y40620D01*
X168632Y32500D02*
X171132D01*
X169882Y31250D02*
Y33750D01*
X56020Y-81280D02*
X58520D01*
X57270Y-82530D02*
Y-80030D01*
X46020Y-81280D02*
X48520D01*
X47270Y-82530D02*
Y-80030D01*
X-48980Y-54720D02*
X-46480D01*
X-47730Y-55970D02*
Y-53470D01*
X-23980Y-81280D02*
X-21480D01*
X-22730Y-82530D02*
Y-80030D01*
X190520Y47500D02*
X193020D01*
X191770Y46250D02*
Y48750D01*
X190520Y37500D02*
X193020D01*
X191770Y36250D02*
Y38750D01*
X190520Y27500D02*
X193020D01*
X191770Y26250D02*
Y28750D01*
X-18980Y-54720D02*
X-16480D01*
X-17730Y-55970D02*
Y-53470D01*
X-63980Y-81280D02*
X-61480D01*
X-62730Y-82530D02*
Y-80030D01*
X-171280Y63500D02*
X-168780D01*
X-170030Y62250D02*
Y64750D01*
X-156330Y-147233D02*
X-153830D01*
X-155080Y-148483D02*
Y-145983D01*
X-154920Y262890D02*
X-152420D01*
X-153670Y261640D02*
Y264140D01*
X242180Y59690D02*
X244680D01*
X243430Y58440D02*
Y60940D01*
X242180Y145490D02*
X244680D01*
X243430Y144240D02*
Y146740D01*
X-156330Y-83890D02*
X-153830D01*
X-155080Y-85140D02*
Y-82640D01*
X-163715Y-49500D02*
X-161215D01*
X-162465Y-50750D02*
Y-48250D01*
X-179120Y-121850D02*
X-176620D01*
X-177870Y-123100D02*
Y-120600D01*
X-191610Y-71050D02*
X-189110D01*
X-190360Y-72300D02*
Y-69800D01*
X79620Y146910D02*
X82120D01*
X80870Y145660D02*
Y148160D01*
X49650Y212190D02*
X52150D01*
X50900Y210940D02*
Y213440D01*
X62350Y212190D02*
X64850D01*
X63600Y210940D02*
Y213440D01*
X87750Y182980D02*
X90250D01*
X89000Y181730D02*
Y184230D01*
X-91420Y267970D02*
X-88920D01*
X-90170Y266720D02*
Y269220D01*
X-285730Y-104140D02*
X-283230D01*
X-284480Y-105390D02*
Y-102890D01*
X-227310Y-156210D02*
X-224810D01*
X-226060Y-157460D02*
Y-154960D01*
X-298430Y63500D02*
X-295930D01*
X-297180Y62250D02*
Y64750D01*
X-199370Y6350D02*
X-196870D01*
X-198120Y5100D02*
Y7600D01*
X74950Y247563D02*
X77450D01*
X76200Y246313D02*
Y248813D01*
X-293350Y-77216D02*
X-290850D01*
X-292100Y-78466D02*
Y-75966D01*
X-128250Y-195580D02*
X-125750D01*
X-127000Y-196830D02*
Y-194330D01*
X169708Y-222250D02*
X172208D01*
X170958Y-223500D02*
Y-221000D01*
X-161310Y206015D02*
X-158810D01*
X-160060Y204765D02*
Y207265D01*
X280690Y81280D02*
X283190D01*
X281940Y80030D02*
Y82530D01*
X163761Y209534D02*
X166261D01*
X165011Y208284D02*
Y210784D01*
X74820Y279400D02*
X77320D01*
X76070Y278150D02*
Y280650D01*
X160555Y-252058D02*
X163055D01*
X161805Y-253308D02*
Y-250808D01*
X-223500Y-24130D02*
X-221000D01*
X-222250Y-25380D02*
Y-22880D01*
X-223500Y178340D02*
X-221000D01*
X-222250Y177090D02*
Y179590D01*
X-240010Y153207D02*
X-237510D01*
X-238760Y151957D02*
Y154457D01*
X288310Y53975D02*
X290810D01*
X289560Y52725D02*
Y55225D01*
X-90150Y-279400D02*
X-87650D01*
X-88900Y-280650D02*
Y-278150D01*
X217985Y186067D02*
X220485D01*
X219235Y184817D02*
Y187317D01*
X132100Y247650D02*
X134600D01*
X133350Y246400D02*
Y248900D01*
X219730Y-175260D02*
X222230D01*
X220980Y-176510D02*
Y-174010D01*
X242180Y-154940D02*
X244680D01*
X243430Y-156190D02*
Y-153690D01*
M02*
