M48
;Layer_Color=9474304
;FILE_FORMAT=4:4
METRIC,LZ
;TYPE=PLATED
T1F00S00C0.2500
T2F00S00C0.7620
T3F00S00C2.2000
%
T01
X-0012954Y-00260417
X-0010795Y-0027305
X-000889Y-002794
X-0005969Y-0026924
X00060904Y-0028702
X00089694Y-0028829
X0012446Y-00255725
X-0028448Y-0010414
X-002921Y-00077216
X-0027559Y-00053594
X-0029718Y000635
X-0026289Y00123772
X-0020447Y00121057
X-0017003Y001235
X-001651Y001185
X-0017003Y001135
X-00162465Y001035
X-0017003Y000835
X-001651Y000785
X-0017003Y000635
X-001657Y0004445
X-0016891Y0003356
X-0014017Y000535
X-0013208Y0001651
X-0013223Y00004534
X-0010023Y-0000254
X-00099622Y0002032
X-0006985Y00028575
X-0004191Y0002032
X-00025023Y0001119
X-0000793Y0003012
X0000762Y0007747
X0001227Y00126071
X-0001847Y0012739
X-0004572Y001143
Y0010194
X-0005461Y000889
X-000508Y000508
X-00054674Y00002439
X-0005773Y-0005472
X-0004773
X-0001773
X-0000031Y-0004995
X-000127Y-00036449
X-00001167Y-0007874
X-0002273Y-0008128
X-0006273
X-0008273
X-0009779Y-0007874
X-0011273Y-0008128
X-0011773Y-00049879
X-00162465Y-000495
X-0014732Y-000254
X-0015508Y-0008389
X-00156115Y-0010287
X-0017787Y-0012185
X-0014478Y-0013589
X-0013081Y-0013455
X-0010795Y-0013335
Y-0015875
X-0008763Y-0018161
X-00127Y-0019558
X-0015574Y-00199988
X-0015508Y-0024765
X-0014732
X-00059433Y-0022987
X-000225Y-0022098
X-000125
X-000025
X000075
X000175
X000125Y-0019431
X000225
X000025
X-000075
X-000175
X-0001074Y-00141542
X-0001524Y-00127
X-0000127
Y-001143
X0002727Y-0010601
X00052869Y-00108755
X0005727Y-0008128
X0004727
X0002227Y-0007978
X0004227Y-0005472
X0005227
X0006227
X0007214Y-0005461
X0008087Y-0004318
X0008636Y-0004826
X00095763Y-0004953
X0008636Y-0000762
X0008087Y-0000181
X0006223Y0000381
X0005227
X0004227
X0004722Y-0000254
X0005727
X0007112Y000475
Y0005715
X0005487Y0006096
X00062234Y00098877
X0006223Y00109931
X0007747Y00109733
Y00098877
X0009906Y000925
X0011176Y001016
X0012415Y0010668
X00129999Y000975
X0013589Y000925
X00129999Y0006477
X0012156Y0005334
X0011938Y0012681
X0010668Y00117869
X0004826Y0011303
X0004191Y0011845
X0003537Y0011322
X-0011107Y0010668
X-0013462Y001085
X-0014017Y001135
Y001235
X-0012573Y0012734
X-00162465Y0013875
X-0017003Y001335
X-00214001Y00070676
X-00250286Y0007239
X-0023876Y000453
X-0023114Y0
X-0021786Y-000045
X-0022225Y-0002413
X-00220443Y-0007119
X-0024398
Y-0008389
Y-0005849
Y-0012199
Y-0013469
Y-0014739
X-0022606Y-0015621
X-0020447Y-0009906
X-0019036Y-0007105
X-0019812Y0000635
X-0008118Y-00031991
X-0009271Y-0010541
X-00079075Y-0011938
X-0015508Y-00147233
X00103346Y-00137073
X00127Y-0013843
X0009525Y-0021717
Y-0022695
X00083876Y-0022714
Y-0021698
X0007239Y-0021717
Y-0022714
X-00102529Y00089241
X001397Y001025
Y001125
X00139386Y00140204
X00163171Y001225
X00169882Y001275
Y001125
Y001025
X00165011Y000975
X00169882Y000925
Y000825
X00165011Y0007747
X0016164Y000675
Y000575
X00169882Y000625
X00166752Y000475
Y0003937
X00169882Y000325
X0019177Y000375
Y000475
Y00057525
X0019166Y000725
X0020447Y0009017
X0022479Y000975
X002252Y00109931
X00240665Y00109651
Y000975
X0024343Y0005969
X0023368
Y0005207
X0021743Y0006096
X0019177Y000275
X0018034Y-00010138
X0017526Y-00016908
X00169928Y-00022296
X00163171Y-0001905
X0015148Y-00028035
X0015748Y-00043249
X0015621Y-0005969
X0014351Y-00102887
X0021717Y-0010541
X0020955Y-001143
X0022098Y-0017526
X0022897Y-0019177
X0024343Y-0015494
X0025126Y-0008021
X0024511Y-0006477
X0029718
X00212814Y-00033331
X00215804Y-00007239
X0022225
X0028956Y00053975
X0028194Y0008128
X0026943Y0011938
X0019166Y001075
X0018415Y0013843
X0014478Y-0017907
X0013843Y-00212524
X00154777Y-0021389
X00170958Y-0022225
X00161805Y-00252058
X0014351Y00154004
X00165011Y00209534
X00219235Y00186067
X0022352Y001524
X0023043Y0014549
X0024343
X0021717Y0014478
X0008087Y0014691
X0005487Y0014732
X000217Y0014351
X-00011461Y00153701
X-0000308Y0016764
X0000577Y00183254
X-0000127Y0020701
X-0000889Y0022987
X-0002996Y0019431
X-0006416Y0021336
X-0010414Y0022225
X-001143Y0021209
X-0016006Y00206015
X-0015367Y0026289
X-0012123Y0026543
X-0011049
X-0009017Y0026797
X-0008186Y0015864
X-0013023Y0014293
X-0015513Y00146807
X-0018075Y0014732
X-0020447Y00154746
X-0023876Y00153207
X-0022225Y0017834
X00032737Y0019304
X000509Y0021219
X000636
X000762Y00247563
X0007607Y002794
X0013335Y0024765
X00089Y0018298
T02
X-002794Y0005715
Y000762
T03
X-0019Y-0019
X0019
Y0019
X-0019
M30
