G04*
G04 #@! TF.GenerationSoftware,Altium Limited,Altium Designer,18.0.7 (293)*
G04*
G04 Layer_Color=255*
%FSLAX44Y44*%
%MOMM*%
G71*
G01*
G75*
%ADD18R,0.8890X1.0160*%
%ADD19R,0.6000X0.5000*%
%ADD22R,0.5000X0.6000*%
%ADD42R,3.0000X2.1000*%
%ADD43R,2.1000X0.8000*%
%ADD80C,1.0000*%
G04:AMPARAMS|DCode=81|XSize=4mm|YSize=4mm|CornerRadius=2mm|HoleSize=0mm|Usage=FLASHONLY|Rotation=0.000|XOffset=0mm|YOffset=0mm|HoleType=Round|Shape=RoundedRectangle|*
%AMROUNDEDRECTD81*
21,1,4.0000,0.0000,0,0,0.0*
21,1,0.0000,4.0000,0,0,0.0*
1,1,4.0000,0.0000,0.0000*
1,1,4.0000,0.0000,0.0000*
1,1,4.0000,0.0000,0.0000*
1,1,4.0000,0.0000,0.0000*
%
%ADD81ROUNDEDRECTD81*%
%ADD83R,0.8128X0.8128*%
G04:AMPARAMS|DCode=84|XSize=3mm|YSize=2.1mm|CornerRadius=0mm|HoleSize=0mm|Usage=FLASHONLY|Rotation=295.000|XOffset=0mm|YOffset=0mm|HoleType=Round|Shape=Rectangle|*
%AMROTATEDRECTD84*
4,1,4,-1.5856,0.9157,0.3177,1.8032,1.5856,-0.9157,-0.3177,-1.8032,-1.5856,0.9157,0.0*
%
%ADD84ROTATEDRECTD84*%

G04:AMPARAMS|DCode=85|XSize=2.1mm|YSize=0.8mm|CornerRadius=0mm|HoleSize=0mm|Usage=FLASHONLY|Rotation=295.000|XOffset=0mm|YOffset=0mm|HoleType=Round|Shape=Rectangle|*
%AMROTATEDRECTD85*
4,1,4,-0.8063,0.7826,-0.0812,1.1207,0.8063,-0.7826,0.0812,-1.1207,-0.8063,0.7826,0.0*
%
%ADD85ROTATEDRECTD85*%

%ADD86R,0.6000X0.7000*%
%ADD87R,1.3500X0.3000*%
%ADD88R,1.3500X0.2500*%
G04:AMPARAMS|DCode=89|XSize=2.1mm|YSize=0.8mm|CornerRadius=0mm|HoleSize=0mm|Usage=FLASHONLY|Rotation=65.000|XOffset=0mm|YOffset=0mm|HoleType=Round|Shape=Rectangle|*
%AMROTATEDRECTD89*
4,1,4,-0.0812,-1.1207,-0.8063,-0.7826,0.0812,1.1207,0.8063,0.7826,-0.0812,-1.1207,0.0*
%
%ADD89ROTATEDRECTD89*%

G04:AMPARAMS|DCode=90|XSize=3mm|YSize=2.1mm|CornerRadius=0mm|HoleSize=0mm|Usage=FLASHONLY|Rotation=65.000|XOffset=0mm|YOffset=0mm|HoleType=Round|Shape=Rectangle|*
%AMROTATEDRECTD90*
4,1,4,0.3177,-1.8032,-1.5856,-0.9157,-0.3177,1.8032,1.5856,0.9157,0.3177,-1.8032,0.0*
%
%ADD90ROTATEDRECTD90*%

%ADD91R,1.0160X0.8890*%
G04:AMPARAMS|DCode=92|XSize=2.1mm|YSize=0.8mm|CornerRadius=0mm|HoleSize=0mm|Usage=FLASHONLY|Rotation=330.000|XOffset=0mm|YOffset=0mm|HoleType=Round|Shape=Rectangle|*
%AMROTATEDRECTD92*
4,1,4,-1.1093,0.1786,-0.7093,0.8714,1.1093,-0.1786,0.7093,-0.8714,-1.1093,0.1786,0.0*
%
%ADD92ROTATEDRECTD92*%

G04:AMPARAMS|DCode=93|XSize=3mm|YSize=2.1mm|CornerRadius=0mm|HoleSize=0mm|Usage=FLASHONLY|Rotation=330.000|XOffset=0mm|YOffset=0mm|HoleType=Round|Shape=Rectangle|*
%AMROTATEDRECTD93*
4,1,4,-1.8240,-0.1593,-0.7740,1.6593,1.8240,0.1593,0.7740,-1.6593,-1.8240,-0.1593,0.0*
%
%ADD93ROTATEDRECTD93*%

D18*
X267081Y59690D02*
D03*
X251079D02*
D03*
X-275971Y-87630D02*
D03*
X-259969D02*
D03*
X-275971Y-118110D02*
D03*
X-259969D02*
D03*
X-231101Y-45974D02*
D03*
X-215099D02*
D03*
D19*
X-82550Y43870D02*
D03*
Y34870D02*
D03*
X-69850D02*
D03*
Y43870D02*
D03*
Y22280D02*
D03*
Y13280D02*
D03*
X-95250Y43870D02*
D03*
Y34870D02*
D03*
X-107950Y43870D02*
D03*
Y34870D02*
D03*
X-120650Y43870D02*
D03*
Y34870D02*
D03*
X-93980Y179760D02*
D03*
Y170760D02*
D03*
X223930Y137640D02*
D03*
Y128640D02*
D03*
X-118110Y142930D02*
D03*
Y133930D02*
D03*
X217430Y50220D02*
D03*
Y41220D02*
D03*
X233680Y68000D02*
D03*
Y77000D02*
D03*
X80870Y152980D02*
D03*
Y161980D02*
D03*
X-107950Y-151336D02*
D03*
Y-142336D02*
D03*
Y179760D02*
D03*
Y170760D02*
D03*
X-120650Y179760D02*
D03*
Y170760D02*
D03*
X-50187Y207146D02*
D03*
Y216146D02*
D03*
X243430Y161290D02*
D03*
Y152290D02*
D03*
X54870Y42490D02*
D03*
Y51490D02*
D03*
X-209550Y4500D02*
D03*
Y-4500D02*
D03*
X-130810Y-126490D02*
D03*
Y-117490D02*
D03*
D22*
X161980Y-102870D02*
D03*
X152980D02*
D03*
X-221560Y70676D02*
D03*
X-230560D02*
D03*
X88320Y57150D02*
D03*
X79320D02*
D03*
X211400Y90170D02*
D03*
X220400D02*
D03*
X-18470Y207010D02*
D03*
X-9470D02*
D03*
X-3230Y177800D02*
D03*
X5770D02*
D03*
X-130230Y157480D02*
D03*
X-121230D02*
D03*
X-41220Y229870D02*
D03*
X-50220D02*
D03*
X-250770Y-134690D02*
D03*
X-259770D02*
D03*
X-250770Y-71190D02*
D03*
X-259770D02*
D03*
X-9470Y194310D02*
D03*
X-18470D02*
D03*
X5770Y153701D02*
D03*
X-3230D02*
D03*
D42*
X266579Y-54010D02*
D03*
Y-131410D02*
D03*
D43*
X235579Y-105210D02*
D03*
Y-92710D02*
D03*
Y-80210D02*
D03*
D80*
X-279400Y57150D02*
D03*
Y76200D02*
D03*
D81*
X-190000Y-190000D02*
D03*
X190000D02*
D03*
Y190000D02*
D03*
X-190000D02*
D03*
D83*
X233999Y33020D02*
D03*
Y17780D02*
D03*
D84*
X-78354Y286752D02*
D03*
X-182942Y237982D02*
D03*
D85*
X-89043Y247563D02*
D03*
X-100372Y242280D02*
D03*
X-134721Y226263D02*
D03*
X-146050Y220980D02*
D03*
X-123211Y231630D02*
D03*
X-111882Y236913D02*
D03*
D86*
X-29960Y229870D02*
D03*
X-15760D02*
D03*
D87*
X-180750Y18250D02*
D03*
X-151250D02*
D03*
X-180750Y138750D02*
D03*
X-151250D02*
D03*
X151250Y12250D02*
D03*
X180750D02*
D03*
X151250Y132750D02*
D03*
X180750D02*
D03*
D88*
X-180750Y23500D02*
D03*
X-151250D02*
D03*
X-180750Y28500D02*
D03*
X-151250D02*
D03*
X-180750Y33500D02*
D03*
X-151250D02*
D03*
X-180750Y38500D02*
D03*
X-151250D02*
D03*
X-180750Y43500D02*
D03*
X-151250D02*
D03*
X-180750Y48500D02*
D03*
X-151250D02*
D03*
X-180750Y53500D02*
D03*
X-151250D02*
D03*
X-180750Y58500D02*
D03*
X-151250D02*
D03*
X-180750Y63500D02*
D03*
X-151250D02*
D03*
X-180750Y68500D02*
D03*
X-151250D02*
D03*
X-180750Y73500D02*
D03*
X-151250D02*
D03*
X-180750Y78500D02*
D03*
X-151250D02*
D03*
X-180750Y83500D02*
D03*
X-151250D02*
D03*
X-180750Y88500D02*
D03*
X-151250D02*
D03*
X-180750Y93500D02*
D03*
X-151250D02*
D03*
X-180750Y98500D02*
D03*
X-151250D02*
D03*
X-180750Y103500D02*
D03*
X-151250D02*
D03*
X-180750Y108500D02*
D03*
X-151250D02*
D03*
X-180750Y113500D02*
D03*
X-151250D02*
D03*
X-180750Y118500D02*
D03*
X-151250D02*
D03*
X-180750Y123500D02*
D03*
X-151250D02*
D03*
X-180750Y128500D02*
D03*
X-151250D02*
D03*
X-180750Y133500D02*
D03*
X-151250D02*
D03*
X151250Y17500D02*
D03*
X180750D02*
D03*
X151250Y22500D02*
D03*
X180750D02*
D03*
X151250Y27500D02*
D03*
X180750D02*
D03*
X151250Y32500D02*
D03*
X180750D02*
D03*
X151250Y37500D02*
D03*
X180750D02*
D03*
X151250Y42500D02*
D03*
X180750D02*
D03*
X151250Y47500D02*
D03*
X180750D02*
D03*
X151250Y52500D02*
D03*
X180750D02*
D03*
X151250Y57500D02*
D03*
X180750D02*
D03*
X151250Y62500D02*
D03*
X180750D02*
D03*
X151250Y67500D02*
D03*
X180750D02*
D03*
X151250Y72500D02*
D03*
X180750D02*
D03*
X151250Y77500D02*
D03*
X180750D02*
D03*
X151250Y82500D02*
D03*
X180750D02*
D03*
X151250Y87500D02*
D03*
X180750D02*
D03*
X151250Y92500D02*
D03*
X180750D02*
D03*
X151250Y97500D02*
D03*
X180750D02*
D03*
X151250Y102500D02*
D03*
X180750D02*
D03*
X151250Y107500D02*
D03*
X180750D02*
D03*
X151250Y112500D02*
D03*
X180750D02*
D03*
X151250Y117500D02*
D03*
X180750D02*
D03*
X151250Y122500D02*
D03*
X180750D02*
D03*
X151250Y127500D02*
D03*
X180750D02*
D03*
D89*
X-151010Y-219939D02*
D03*
X-139500Y-225306D02*
D03*
X-70620Y-257425D02*
D03*
X-82131Y-252058D02*
D03*
X-116480Y-236041D02*
D03*
X-105151Y-241324D02*
D03*
X-93641Y-246691D02*
D03*
X-127990Y-230674D02*
D03*
D90*
X-187720Y-237025D02*
D03*
X-60112Y-296530D02*
D03*
D91*
X233999Y-23241D02*
D03*
Y-7239D02*
D03*
D92*
X-234712Y108092D02*
D03*
X-228462Y118917D02*
D03*
X-222212Y129743D02*
D03*
X-215962Y140568D02*
D03*
D93*
X-229683Y178801D02*
D03*
X-274683Y100859D02*
D03*
M02*
