G04*
G04 #@! TF.GenerationSoftware,Altium Limited,Altium Designer,18.0.7 (293)*
G04*
G04 Layer_Color=16711935*
%FSLAX44Y44*%
%MOMM*%
G71*
G01*
G75*
%ADD45C,1.0000*%
%ADD46R,1.0922X1.2192*%
%ADD47R,0.8032X0.7032*%
%ADD50R,0.7032X0.8032*%
%ADD70R,3.2032X2.3032*%
%ADD71R,2.3032X1.0032*%
%ADD73C,1.2032*%
G04:AMPARAMS|DCode=74|XSize=4.2032mm|YSize=4.2032mm|CornerRadius=2.1016mm|HoleSize=0mm|Usage=FLASHONLY|Rotation=0.000|XOffset=0mm|YOffset=0mm|HoleType=Round|Shape=RoundedRectangle|*
%AMROUNDEDRECTD74*
21,1,4.2032,0.0000,0,0,0.0*
21,1,0.0000,4.2032,0,0,0.0*
1,1,4.2032,0.0000,0.0000*
1,1,4.2032,0.0000,0.0000*
1,1,4.2032,0.0000,0.0000*
1,1,4.2032,0.0000,0.0000*
%
%ADD74ROUNDEDRECTD74*%
%ADD75C,0.7032*%
%ADD95R,1.0160X1.0160*%
G04:AMPARAMS|DCode=96|XSize=3.2032mm|YSize=2.3032mm|CornerRadius=0mm|HoleSize=0mm|Usage=FLASHONLY|Rotation=295.000|XOffset=0mm|YOffset=0mm|HoleType=Round|Shape=Rectangle|*
%AMROTATEDRECTD96*
4,1,4,-1.7206,0.9649,0.3668,1.9382,1.7206,-0.9649,-0.3668,-1.9382,-1.7206,0.9649,0.0*
%
%ADD96ROTATEDRECTD96*%

G04:AMPARAMS|DCode=97|XSize=2.3032mm|YSize=1.0032mm|CornerRadius=0mm|HoleSize=0mm|Usage=FLASHONLY|Rotation=295.000|XOffset=0mm|YOffset=0mm|HoleType=Round|Shape=Rectangle|*
%AMROTATEDRECTD97*
4,1,4,-0.9413,0.8317,-0.0321,1.2557,0.9413,-0.8317,0.0321,-1.2557,-0.9413,0.8317,0.0*
%
%ADD97ROTATEDRECTD97*%

%ADD98R,0.8032X0.9032*%
%ADD99R,1.5532X0.5032*%
%ADD100R,1.5532X0.4532*%
G04:AMPARAMS|DCode=101|XSize=2.3032mm|YSize=1.0032mm|CornerRadius=0mm|HoleSize=0mm|Usage=FLASHONLY|Rotation=65.000|XOffset=0mm|YOffset=0mm|HoleType=Round|Shape=Rectangle|*
%AMROTATEDRECTD101*
4,1,4,-0.0321,-1.2557,-0.9413,-0.8317,0.0321,1.2557,0.9413,0.8317,-0.0321,-1.2557,0.0*
%
%ADD101ROTATEDRECTD101*%

G04:AMPARAMS|DCode=102|XSize=3.2032mm|YSize=2.3032mm|CornerRadius=0mm|HoleSize=0mm|Usage=FLASHONLY|Rotation=65.000|XOffset=0mm|YOffset=0mm|HoleType=Round|Shape=Rectangle|*
%AMROTATEDRECTD102*
4,1,4,0.3668,-1.9382,-1.7206,-0.9649,-0.3668,1.9382,1.7206,0.9649,0.3668,-1.9382,0.0*
%
%ADD102ROTATEDRECTD102*%

%ADD103R,1.2192X1.0922*%
G04:AMPARAMS|DCode=104|XSize=2.3032mm|YSize=1.0032mm|CornerRadius=0mm|HoleSize=0mm|Usage=FLASHONLY|Rotation=330.000|XOffset=0mm|YOffset=0mm|HoleType=Round|Shape=Rectangle|*
%AMROTATEDRECTD104*
4,1,4,-1.2481,0.1414,-0.7465,1.0102,1.2481,-0.1414,0.7465,-1.0102,-1.2481,0.1414,0.0*
%
%ADD104ROTATEDRECTD104*%

G04:AMPARAMS|DCode=105|XSize=3.2032mm|YSize=2.3032mm|CornerRadius=0mm|HoleSize=0mm|Usage=FLASHONLY|Rotation=330.000|XOffset=0mm|YOffset=0mm|HoleType=Round|Shape=Rectangle|*
%AMROTATEDRECTD105*
4,1,4,-1.9628,-0.1965,-0.8112,1.7981,1.9628,0.1965,0.8112,-1.7981,-1.9628,-0.1965,0.0*
%
%ADD105ROTATEDRECTD105*%

D45*
X-48668Y311218D02*
G03*
X-312249Y41541I48668J-311218D01*
G01*
X313297Y32714D02*
G03*
X44548Y311834I-313297J-32714D01*
G01*
X-312887Y-36424D02*
G03*
X-39542Y-312508I312887J36424D01*
G01*
X39542D02*
G03*
X312683Y-38132I-39542J312508D01*
G01*
D46*
X267081Y59690D02*
D03*
X251079D02*
D03*
X-275971Y-87630D02*
D03*
X-259969D02*
D03*
X-275971Y-118110D02*
D03*
X-259969D02*
D03*
X-231101Y-45974D02*
D03*
X-215099D02*
D03*
D47*
X-82550Y43870D02*
D03*
Y34870D02*
D03*
X-69850D02*
D03*
Y43870D02*
D03*
Y22280D02*
D03*
Y13280D02*
D03*
X-95250Y43870D02*
D03*
Y34870D02*
D03*
X-107950Y43870D02*
D03*
Y34870D02*
D03*
X-120650Y43870D02*
D03*
Y34870D02*
D03*
X-93980Y179760D02*
D03*
Y170760D02*
D03*
X223930Y137640D02*
D03*
Y128640D02*
D03*
X-118110Y142930D02*
D03*
Y133930D02*
D03*
X217430Y50220D02*
D03*
Y41220D02*
D03*
X233680Y68000D02*
D03*
Y77000D02*
D03*
X80870Y152980D02*
D03*
Y161980D02*
D03*
X-107950Y-151336D02*
D03*
Y-142336D02*
D03*
Y179760D02*
D03*
Y170760D02*
D03*
X-120650Y179760D02*
D03*
Y170760D02*
D03*
X-50187Y207146D02*
D03*
Y216146D02*
D03*
X243430Y161290D02*
D03*
Y152290D02*
D03*
X54870Y42490D02*
D03*
Y51490D02*
D03*
X-209550Y4500D02*
D03*
Y-4500D02*
D03*
X-130810Y-126490D02*
D03*
Y-117490D02*
D03*
D50*
X161980Y-102870D02*
D03*
X152980D02*
D03*
X-221560Y70676D02*
D03*
X-230560D02*
D03*
X88320Y57150D02*
D03*
X79320D02*
D03*
X211400Y90170D02*
D03*
X220400D02*
D03*
X-18470Y207010D02*
D03*
X-9470D02*
D03*
X-3230Y177800D02*
D03*
X5770D02*
D03*
X-130230Y157480D02*
D03*
X-121230D02*
D03*
X-41220Y229870D02*
D03*
X-50220D02*
D03*
X-250770Y-134690D02*
D03*
X-259770D02*
D03*
X-250770Y-71190D02*
D03*
X-259770D02*
D03*
X-9470Y194310D02*
D03*
X-18470D02*
D03*
X5770Y153701D02*
D03*
X-3230D02*
D03*
D70*
X266579Y-54010D02*
D03*
Y-131410D02*
D03*
D71*
X235579Y-105210D02*
D03*
Y-92710D02*
D03*
Y-80210D02*
D03*
D73*
X-279400Y57150D02*
D03*
Y76200D02*
D03*
D74*
X-190000Y-190000D02*
D03*
X190000D02*
D03*
Y190000D02*
D03*
X-190000D02*
D03*
D75*
X71120Y47500D02*
D03*
X-79075Y-119380D02*
D03*
X222250Y-7239D02*
D03*
X163171Y-19050D02*
D03*
X212814Y-33331D02*
D03*
X233680Y52070D02*
D03*
X180340Y-10138D02*
D03*
X-102529Y89241D02*
D03*
X-7930Y30120D02*
D03*
X-50800Y50800D02*
D03*
X156210Y-59690D02*
D03*
X151480Y-28035D02*
D03*
X169928Y-22296D02*
D03*
X175260Y-16908D02*
D03*
X157480Y-43249D02*
D03*
X217170Y-105410D02*
D03*
X-41910Y20320D02*
D03*
X-132230Y4534D02*
D03*
X-132080Y16510D02*
D03*
X-140170Y53500D02*
D03*
X47220Y-2540D02*
D03*
X42270Y-54720D02*
D03*
X52270Y3810D02*
D03*
X62230D02*
D03*
X52270Y-54720D02*
D03*
X57270Y-2540D02*
D03*
X62270Y-54720D02*
D03*
X42270Y-8020D02*
D03*
X143510Y-102887D02*
D03*
X80870Y-43180D02*
D03*
X-238760Y45300D02*
D03*
X159613Y-151130D02*
D03*
X-59433Y-229870D02*
D03*
X251260Y-80210D02*
D03*
X95250Y-226950D02*
D03*
X72390Y-227140D02*
D03*
Y-217170D02*
D03*
X-107950Y-133350D02*
D03*
X-130810Y-134550D02*
D03*
X95250Y-217170D02*
D03*
X-10740Y-141542D02*
D03*
X35370Y113220D02*
D03*
X161640Y67500D02*
D03*
X165011Y77470D02*
D03*
X169882Y82500D02*
D03*
X161640Y57500D02*
D03*
X165011Y97500D02*
D03*
X169882Y92500D02*
D03*
X-204470Y121057D02*
D03*
X-168910Y33560D02*
D03*
X-217860Y-4500D02*
D03*
X-204470Y154746D02*
D03*
X-250286Y72390D02*
D03*
X-214001Y70676D02*
D03*
X-81860Y158640D02*
D03*
X-18470Y127390D02*
D03*
X-111070Y106680D02*
D03*
X191770Y57525D02*
D03*
X106680Y117869D02*
D03*
X-130230Y142930D02*
D03*
X209550Y-114300D02*
D03*
X138430Y-212524D02*
D03*
X144780Y-179070D02*
D03*
X127000Y-138430D02*
D03*
X83876Y-227140D02*
D03*
Y-216980D02*
D03*
X22270Y-79780D02*
D03*
X27270Y-106010D02*
D03*
X-112730Y-81280D02*
D03*
X-117730Y-49879D02*
D03*
X-8890Y229870D02*
D03*
X-1270Y207010D02*
D03*
X-104140Y222250D02*
D03*
X-114300Y212090D02*
D03*
X86360Y-7620D02*
D03*
X80870Y-1810D02*
D03*
X-12700Y-36449D02*
D03*
X-125730Y127340D02*
D03*
X-147320Y-247650D02*
D03*
X-155080D02*
D03*
X17500Y-220980D02*
D03*
X-64160Y213360D02*
D03*
X5770Y183254D02*
D03*
X-29960Y194310D02*
D03*
X21700Y143510D02*
D03*
X-11461Y153701D02*
D03*
X-243980Y-121990D02*
D03*
Y-134690D02*
D03*
Y-147390D02*
D03*
Y-83890D02*
D03*
Y-71190D02*
D03*
Y-58490D02*
D03*
X-110490Y265430D02*
D03*
X-121230D02*
D03*
X7500Y-220980D02*
D03*
X-2500D02*
D03*
X-12500D02*
D03*
X-22500D02*
D03*
X22500Y-194310D02*
D03*
X12500D02*
D03*
X2500D02*
D03*
X-7500D02*
D03*
X-17500D02*
D03*
X-162465Y103500D02*
D03*
X-45720Y101940D02*
D03*
Y114300D02*
D03*
X-180750Y147320D02*
D03*
X-134620Y108500D02*
D03*
X-140170Y113500D02*
D03*
Y123500D02*
D03*
X-162465Y138750D02*
D03*
X-165100Y78500D02*
D03*
X-170030Y83500D02*
D03*
X54870Y147320D02*
D03*
X-170030Y133500D02*
D03*
X-165100Y118500D02*
D03*
X-170030Y123500D02*
D03*
Y113500D02*
D03*
X215804Y-7239D02*
D03*
X71120Y57150D02*
D03*
X233680Y59690D02*
D03*
X139700Y112500D02*
D03*
X184150Y138430D02*
D03*
X163171Y122500D02*
D03*
X169882Y127500D02*
D03*
X124150Y106680D02*
D03*
X111760Y101600D02*
D03*
X169882Y62500D02*
D03*
X99060Y92500D02*
D03*
X41910Y118450D02*
D03*
X48260Y113030D02*
D03*
X135890Y92500D02*
D03*
X119380Y126810D02*
D03*
X166752Y47500D02*
D03*
X139700Y102500D02*
D03*
X129999Y97500D02*
D03*
X169882Y102500D02*
D03*
X191660Y72500D02*
D03*
Y107500D02*
D03*
X139386Y140204D02*
D03*
X217170Y144780D02*
D03*
X223520Y152400D02*
D03*
X230430Y145490D02*
D03*
X169882Y112500D02*
D03*
X54870Y60960D02*
D03*
X217430D02*
D03*
X204470Y90170D02*
D03*
X269430Y119380D02*
D03*
X86360Y-48260D02*
D03*
X-57730Y-54720D02*
D03*
X-97790Y-78740D02*
D03*
X-92710Y-105410D02*
D03*
X-82730Y-81280D02*
D03*
X166752Y39370D02*
D03*
X169882Y32500D02*
D03*
X57270Y-81280D02*
D03*
X47270D02*
D03*
X-47730Y-54720D02*
D03*
X-22730Y-81280D02*
D03*
X191770Y47500D02*
D03*
Y37500D02*
D03*
Y27500D02*
D03*
X-17730Y-54720D02*
D03*
X-62730Y-81280D02*
D03*
X-170030Y63500D02*
D03*
X-155080Y-147233D02*
D03*
X243430Y59690D02*
D03*
Y145490D02*
D03*
X-155080Y-83890D02*
D03*
X-162465Y-49500D02*
D03*
X-177870Y-121850D02*
D03*
X-190360Y-71050D02*
D03*
X80870Y146910D02*
D03*
X50900Y212190D02*
D03*
X63600D02*
D03*
X89000Y182980D02*
D03*
D95*
X233999Y33020D02*
D03*
Y17780D02*
D03*
D96*
X-78354Y286752D02*
D03*
X-182942Y237982D02*
D03*
D97*
X-89043Y247563D02*
D03*
X-100372Y242280D02*
D03*
X-134721Y226263D02*
D03*
X-146050Y220980D02*
D03*
X-123211Y231630D02*
D03*
X-111882Y236913D02*
D03*
D98*
X-29960Y229870D02*
D03*
X-15760D02*
D03*
D99*
X-180750Y18250D02*
D03*
X-151250D02*
D03*
X-180750Y138750D02*
D03*
X-151250D02*
D03*
X151250Y12250D02*
D03*
X180750D02*
D03*
X151250Y132750D02*
D03*
X180750D02*
D03*
D100*
X-180750Y23500D02*
D03*
X-151250D02*
D03*
X-180750Y28500D02*
D03*
X-151250D02*
D03*
X-180750Y33500D02*
D03*
X-151250D02*
D03*
X-180750Y38500D02*
D03*
X-151250D02*
D03*
X-180750Y43500D02*
D03*
X-151250D02*
D03*
X-180750Y48500D02*
D03*
X-151250D02*
D03*
X-180750Y53500D02*
D03*
X-151250D02*
D03*
X-180750Y58500D02*
D03*
X-151250D02*
D03*
X-180750Y63500D02*
D03*
X-151250D02*
D03*
X-180750Y68500D02*
D03*
X-151250D02*
D03*
X-180750Y73500D02*
D03*
X-151250D02*
D03*
X-180750Y78500D02*
D03*
X-151250D02*
D03*
X-180750Y83500D02*
D03*
X-151250D02*
D03*
X-180750Y88500D02*
D03*
X-151250D02*
D03*
X-180750Y93500D02*
D03*
X-151250D02*
D03*
X-180750Y98500D02*
D03*
X-151250D02*
D03*
X-180750Y103500D02*
D03*
X-151250D02*
D03*
X-180750Y108500D02*
D03*
X-151250D02*
D03*
X-180750Y113500D02*
D03*
X-151250D02*
D03*
X-180750Y118500D02*
D03*
X-151250D02*
D03*
X-180750Y123500D02*
D03*
X-151250D02*
D03*
X-180750Y128500D02*
D03*
X-151250D02*
D03*
X-180750Y133500D02*
D03*
X-151250D02*
D03*
X151250Y17500D02*
D03*
X180750D02*
D03*
X151250Y22500D02*
D03*
X180750D02*
D03*
X151250Y27500D02*
D03*
X180750D02*
D03*
X151250Y32500D02*
D03*
X180750D02*
D03*
X151250Y37500D02*
D03*
X180750D02*
D03*
X151250Y42500D02*
D03*
X180750D02*
D03*
X151250Y47500D02*
D03*
X180750D02*
D03*
X151250Y52500D02*
D03*
X180750D02*
D03*
X151250Y57500D02*
D03*
X180750D02*
D03*
X151250Y62500D02*
D03*
X180750D02*
D03*
X151250Y67500D02*
D03*
X180750D02*
D03*
X151250Y72500D02*
D03*
X180750D02*
D03*
X151250Y77500D02*
D03*
X180750D02*
D03*
X151250Y82500D02*
D03*
X180750D02*
D03*
X151250Y87500D02*
D03*
X180750D02*
D03*
X151250Y92500D02*
D03*
X180750D02*
D03*
X151250Y97500D02*
D03*
X180750D02*
D03*
X151250Y102500D02*
D03*
X180750D02*
D03*
X151250Y107500D02*
D03*
X180750D02*
D03*
X151250Y112500D02*
D03*
X180750D02*
D03*
X151250Y117500D02*
D03*
X180750D02*
D03*
X151250Y122500D02*
D03*
X180750D02*
D03*
X151250Y127500D02*
D03*
X180750D02*
D03*
D101*
X-151010Y-219939D02*
D03*
X-139500Y-225306D02*
D03*
X-70620Y-257425D02*
D03*
X-82131Y-252058D02*
D03*
X-116480Y-236041D02*
D03*
X-105151Y-241324D02*
D03*
X-93641Y-246691D02*
D03*
X-127990Y-230674D02*
D03*
D102*
X-187720Y-237025D02*
D03*
X-60112Y-296530D02*
D03*
D103*
X233999Y-23241D02*
D03*
Y-7239D02*
D03*
D104*
X-234712Y108092D02*
D03*
X-228462Y118917D02*
D03*
X-222212Y129743D02*
D03*
X-215962Y140568D02*
D03*
D105*
X-229683Y178801D02*
D03*
X-274683Y100859D02*
D03*
M02*
