%FSLAX44Y44*%
%MOMM*%
G71*
G01*
G75*
G04 Layer_Physical_Order=3*
G04 Layer_Color=16440176*
%ADD10C,0.6000*%
%ADD11C,0.8000*%
%ADD12C,0.2540*%
%ADD13R,0.5000X0.6000*%
%ADD14R,0.6000X0.5000*%
%ADD15R,1.0160X0.8890*%
%ADD16R,0.8890X1.0160*%
%ADD17R,1.3970X1.3970*%
G04:AMPARAMS|DCode=18|XSize=0.32mm|YSize=1.7mm|CornerRadius=0.08mm|HoleSize=0mm|Usage=FLASHONLY|Rotation=0.000|XOffset=0mm|YOffset=0mm|HoleType=Round|Shape=RoundedRectangle|*
%AMROUNDEDRECTD18*
21,1,0.3200,1.5400,0,0,0.0*
21,1,0.1600,1.7000,0,0,0.0*
1,1,0.1600,0.0800,-0.7700*
1,1,0.1600,-0.0800,-0.7700*
1,1,0.1600,-0.0800,0.7700*
1,1,0.1600,0.0800,0.7700*
%
%ADD18ROUNDEDRECTD18*%
%ADD19R,0.5000X1.7000*%
%ADD20R,2.1000X0.8000*%
%ADD21R,3.0000X2.1000*%
%ADD22R,1.6000X1.0000*%
%ADD23R,3.2800X2.4000*%
%ADD24O,0.3500X2.0000*%
%ADD25R,1.5200X0.7600*%
%ADD26R,0.8000X2.1000*%
%ADD27R,2.1000X3.0000*%
%ADD28R,2.0320X0.6096*%
%ADD29O,2.0320X0.6096*%
G04:AMPARAMS|DCode=30|XSize=2mm|YSize=2mm|CornerRadius=0mm|HoleSize=0mm|Usage=FLASHONLY|Rotation=0.000|XOffset=0mm|YOffset=0mm|HoleType=Round|Shape=RoundedRectangle|*
%AMROUNDEDRECTD30*
21,1,2.0000,2.0000,0,0,0.0*
21,1,2.0000,2.0000,0,0,0.0*
1,1,0.0000,1.0000,-1.0000*
1,1,0.0000,-1.0000,-1.0000*
1,1,0.0000,-1.0000,1.0000*
1,1,0.0000,1.0000,1.0000*
%
%ADD30ROUNDEDRECTD30*%
%ADD31R,1.8000X1.2000*%
%ADD32R,1.0668X0.8128*%
%ADD33R,0.4000X1.7000*%
G04:AMPARAMS|DCode=34|XSize=0.4mm|YSize=1.7mm|CornerRadius=0.1mm|HoleSize=0mm|Usage=FLASHONLY|Rotation=0.000|XOffset=0mm|YOffset=0mm|HoleType=Round|Shape=RoundedRectangle|*
%AMROUNDEDRECTD34*
21,1,0.4000,1.5000,0,0,0.0*
21,1,0.2000,1.7000,0,0,0.0*
1,1,0.2000,0.1000,-0.7500*
1,1,0.2000,-0.1000,-0.7500*
1,1,0.2000,-0.1000,0.7500*
1,1,0.2000,0.1000,0.7500*
%
%ADD34ROUNDEDRECTD34*%
%ADD35R,0.8128X1.0668*%
%ADD36R,1.3970X1.3970*%
%ADD37R,1.6000X1.2000*%
%ADD38R,1.2954X1.6002*%
%ADD39R,1.6002X1.2954*%
%ADD40R,0.8128X0.8128*%
%ADD41R,6.3000X2.1500*%
%ADD42C,1.0000*%
%ADD43C,0.4000*%
%ADD44C,0.3000*%
%ADD45C,0.5000*%
%ADD46C,5.0000*%
G04:AMPARAMS|DCode=47|XSize=4mm|YSize=4mm|CornerRadius=2mm|HoleSize=0mm|Usage=FLASHONLY|Rotation=0.000|XOffset=0mm|YOffset=0mm|HoleType=Round|Shape=RoundedRectangle|*
%AMROUNDEDRECTD47*
21,1,4.0000,0.0000,0,0,0.0*
21,1,0.0000,4.0000,0,0,0.0*
1,1,4.0000,0.0000,0.0000*
1,1,4.0000,0.0000,0.0000*
1,1,4.0000,0.0000,0.0000*
1,1,4.0000,0.0000,0.0000*
%
%ADD47ROUNDEDRECTD47*%
%ADD48C,1.0000*%
%ADD49C,0.5000*%
G36*
X70479Y308787D02*
X87681Y304349D01*
X104608Y298954D01*
X121206Y292618D01*
X137423Y285362D01*
X153207Y277207D01*
X168509Y268181D01*
X183281Y258311D01*
X197476Y247628D01*
X211050Y236165D01*
X223960Y223960D01*
X236165Y211050D01*
X247628Y197476D01*
X258311Y183281D01*
X268181Y168509D01*
X277207Y153207D01*
X285362Y137423D01*
X292618Y121206D01*
X298954Y104608D01*
X304349Y87681D01*
X308787Y70479D01*
X312253Y53054D01*
X313489Y44293D01*
X312656Y43334D01*
X250000D01*
X248724Y43080D01*
X247642Y42358D01*
X246920Y41276D01*
X246666Y40000D01*
Y-40000D01*
X246920Y-41276D01*
X247642Y-42358D01*
X248724Y-43080D01*
X250000Y-43334D01*
X312656D01*
X313489Y-44293D01*
X312253Y-53054D01*
X308787Y-70479D01*
X304349Y-87681D01*
X298954Y-104608D01*
X292618Y-121206D01*
X285362Y-137423D01*
X277207Y-153207D01*
X268181Y-168509D01*
X258311Y-183281D01*
X247628Y-197476D01*
X236165Y-211050D01*
X223960Y-223960D01*
X211050Y-236165D01*
X197476Y-247628D01*
X183281Y-258311D01*
X168509Y-268181D01*
X153207Y-277207D01*
X137423Y-285362D01*
X121206Y-292618D01*
X104608Y-298954D01*
X87681Y-304349D01*
X70479Y-308787D01*
X53054Y-312253D01*
X44293Y-313489D01*
X43334Y-312656D01*
Y-250000D01*
X43080Y-248724D01*
X42358Y-247642D01*
X41276Y-246920D01*
X40000Y-246666D01*
X-40000D01*
X-41276Y-246920D01*
X-42358Y-247642D01*
X-43080Y-248724D01*
X-43334Y-250000D01*
Y-312656D01*
X-44293Y-313489D01*
X-53054Y-312253D01*
X-70479Y-308787D01*
X-87681Y-304349D01*
X-104608Y-298954D01*
X-121206Y-292618D01*
X-137423Y-285362D01*
X-153207Y-277207D01*
X-168509Y-268181D01*
X-183281Y-258311D01*
X-197476Y-247628D01*
X-211050Y-236165D01*
X-223960Y-223960D01*
X-236165Y-211050D01*
X-247628Y-197476D01*
X-258311Y-183281D01*
X-268181Y-168509D01*
X-277207Y-153207D01*
X-285362Y-137423D01*
X-292618Y-121206D01*
X-298954Y-104608D01*
X-304349Y-87681D01*
X-308787Y-70479D01*
X-312253Y-53054D01*
X-313489Y-44293D01*
X-312656Y-43334D01*
X-250000D01*
X-248724Y-43080D01*
X-247642Y-42358D01*
X-246920Y-41276D01*
X-246666Y-40000D01*
Y40000D01*
X-246920Y41276D01*
X-247642Y42358D01*
X-248724Y43080D01*
X-250000Y43334D01*
X-312656D01*
X-313489Y44293D01*
X-312253Y53054D01*
X-308787Y70479D01*
X-304349Y87681D01*
X-298954Y104608D01*
X-292618Y121206D01*
X-285362Y137423D01*
X-277207Y153207D01*
X-268181Y168509D01*
X-258311Y183281D01*
X-247628Y197476D01*
X-236165Y211050D01*
X-223960Y223960D01*
X-211050Y236165D01*
X-197476Y247628D01*
X-183281Y258311D01*
X-168509Y268181D01*
X-153207Y277207D01*
X-137423Y285362D01*
X-121206Y292618D01*
X-104608Y298954D01*
X-87681Y304349D01*
X-70479Y308787D01*
X-55116Y311842D01*
X-54134Y311037D01*
Y250000D01*
X-54134Y250000D01*
X-54134D01*
X-53880Y248724D01*
X-53158Y247642D01*
X-52076Y246920D01*
X-50800Y246666D01*
X50800D01*
X52076Y246920D01*
X53158Y247642D01*
X53880Y248724D01*
X54134Y250000D01*
Y259282D01*
X55380Y259530D01*
X55396Y259491D01*
X57661Y255795D01*
X60476Y252498D01*
X63772Y249683D01*
X67468Y247418D01*
X71473Y245759D01*
X75689Y244747D01*
X78740Y244507D01*
Y272032D01*
Y299557D01*
X75689Y299317D01*
X71473Y298305D01*
X67468Y296646D01*
X63772Y294381D01*
X60476Y291566D01*
X57661Y288270D01*
X55396Y284574D01*
X55380Y284535D01*
X54134Y284783D01*
Y311037D01*
X55116Y311842D01*
X70479Y308787D01*
D02*
G37*
%LPC*%
G36*
X-162465Y-45931D02*
X-163831Y-46203D01*
X-164988Y-46976D01*
X-165762Y-48134D01*
X-166034Y-49500D01*
X-165762Y-50865D01*
X-164988Y-52023D01*
X-163831Y-52796D01*
X-162465Y-53068D01*
X-161099Y-52796D01*
X-159942Y-52023D01*
X-159168Y-50865D01*
X-158896Y-49500D01*
X-159168Y-48134D01*
X-159942Y-46976D01*
X-161099Y-46203D01*
X-162465Y-45931D01*
D02*
G37*
G36*
X-105518Y-31869D02*
X-107215Y-32092D01*
X-108796Y-32747D01*
X-110154Y-33789D01*
X-111196Y-35147D01*
X-111851Y-36728D01*
X-112074Y-38425D01*
X-111851Y-40122D01*
X-111196Y-41703D01*
X-110622Y-42451D01*
X-111196Y-43199D01*
X-111851Y-44780D01*
X-112074Y-46477D01*
X-111851Y-48174D01*
X-111196Y-49755D01*
X-110154Y-51113D01*
X-108796Y-52155D01*
X-107215Y-52810D01*
X-105518Y-53033D01*
X-103821Y-52810D01*
X-102240Y-52155D01*
X-100882Y-51113D01*
X-99841Y-49755D01*
X-99186Y-48174D01*
X-98962Y-46477D01*
X-99186Y-44780D01*
X-99841Y-43199D01*
X-100415Y-42451D01*
X-99841Y-41703D01*
X-99186Y-40122D01*
X-98962Y-38425D01*
X-99186Y-36728D01*
X-99841Y-35147D01*
X-100882Y-33789D01*
X-102240Y-32747D01*
X-103821Y-32092D01*
X-105518Y-31869D01*
D02*
G37*
G36*
X52270Y-51151D02*
X50904Y-51423D01*
X49747Y-52197D01*
X48973Y-53354D01*
X48701Y-54720D01*
X48973Y-56086D01*
X49747Y-57243D01*
X50904Y-58017D01*
X52270Y-58289D01*
X53636Y-58017D01*
X54793Y-57243D01*
X55567Y-56086D01*
X55838Y-54720D01*
X55567Y-53354D01*
X54793Y-52197D01*
X53636Y-51423D01*
X52270Y-51151D01*
D02*
G37*
G36*
X62270D02*
X60904Y-51423D01*
X59747Y-52197D01*
X58973Y-53354D01*
X58701Y-54720D01*
X58973Y-56086D01*
X59747Y-57243D01*
X60904Y-58017D01*
X62270Y-58289D01*
X63636Y-58017D01*
X64793Y-57243D01*
X65567Y-56086D01*
X65839Y-54720D01*
X65567Y-53354D01*
X64793Y-52197D01*
X63636Y-51423D01*
X62270Y-51151D01*
D02*
G37*
G36*
X80870Y-39611D02*
X79504Y-39883D01*
X78347Y-40657D01*
X77573Y-41814D01*
X77301Y-43180D01*
X77573Y-44546D01*
X78347Y-45703D01*
X79504Y-46477D01*
X80870Y-46749D01*
X82063Y-46511D01*
X82653Y-47102D01*
X82937Y-47527D01*
X82791Y-48260D01*
X83063Y-49626D01*
X83837Y-50783D01*
X84994Y-51557D01*
X86360Y-51829D01*
X87726Y-51557D01*
X88883Y-50783D01*
X89657Y-49626D01*
X89929Y-48260D01*
X89657Y-46894D01*
X88883Y-45737D01*
X87726Y-44963D01*
X86360Y-44691D01*
X85167Y-44929D01*
X84577Y-44338D01*
X84293Y-43913D01*
X84439Y-43180D01*
X84167Y-41814D01*
X83393Y-40657D01*
X82236Y-39883D01*
X80870Y-39611D01*
D02*
G37*
G36*
X212814Y-29762D02*
X211448Y-30034D01*
X210291Y-30807D01*
X209517Y-31965D01*
X209245Y-33331D01*
X209517Y-34696D01*
X210291Y-35854D01*
X211448Y-36628D01*
X212814Y-36899D01*
X214179Y-36628D01*
X215337Y-35854D01*
X216111Y-34696D01*
X216383Y-33331D01*
X216111Y-31965D01*
X215337Y-30807D01*
X214179Y-30034D01*
X212814Y-29762D01*
D02*
G37*
G36*
X-141075Y-27362D02*
X-142441Y-27634D01*
X-143598Y-28408D01*
X-144372Y-29565D01*
X-144643Y-30931D01*
X-144372Y-32297D01*
X-143598Y-33454D01*
X-142441Y-34228D01*
X-141075Y-34500D01*
X-139709Y-34228D01*
X-138552Y-33454D01*
X-137778Y-32297D01*
X-137506Y-30931D01*
X-137778Y-29565D01*
X-138552Y-28408D01*
X-139709Y-27634D01*
X-141075Y-27362D01*
D02*
G37*
G36*
X80870Y1759D02*
X79504Y1487D01*
X78347Y713D01*
X77573Y-444D01*
X77301Y-1810D01*
X77573Y-3176D01*
X78347Y-4333D01*
X79504Y-5107D01*
X80870Y-5379D01*
X82236Y-5107D01*
X82409Y-4991D01*
X83307Y-5889D01*
X83063Y-6254D01*
X82791Y-7620D01*
X83063Y-8986D01*
X83837Y-10143D01*
X84994Y-10917D01*
X86360Y-11189D01*
X87726Y-10917D01*
X88883Y-10143D01*
X89657Y-8986D01*
X89929Y-7620D01*
X89657Y-6254D01*
X88883Y-5097D01*
X87726Y-4323D01*
X86360Y-4051D01*
X84994Y-4323D01*
X84821Y-4439D01*
X83923Y-3541D01*
X84167Y-3176D01*
X84439Y-1810D01*
X84167Y-444D01*
X83393Y713D01*
X82236Y1487D01*
X80870Y1759D01*
D02*
G37*
G36*
X-12700Y-32880D02*
X-14066Y-33152D01*
X-15223Y-33926D01*
X-15997Y-35083D01*
X-16269Y-36449D01*
X-15997Y-37815D01*
X-15223Y-38972D01*
X-14066Y-39746D01*
X-12700Y-40018D01*
X-11334Y-39746D01*
X-10177Y-38972D01*
X-9403Y-37815D01*
X-9131Y-36449D01*
X-9403Y-35083D01*
X-10177Y-33926D01*
X-11334Y-33152D01*
X-12700Y-32880D01*
D02*
G37*
G36*
X-243980Y-67621D02*
X-245346Y-67893D01*
X-246503Y-68667D01*
X-247277Y-69824D01*
X-247549Y-71190D01*
X-247277Y-72556D01*
X-246503Y-73713D01*
X-245346Y-74487D01*
X-243980Y-74759D01*
X-242614Y-74487D01*
X-241457Y-73713D01*
X-240683Y-72556D01*
X-240411Y-71190D01*
X-240683Y-69824D01*
X-241457Y-68667D01*
X-242614Y-67893D01*
X-243980Y-67621D01*
D02*
G37*
G36*
X-190360Y-67481D02*
X-191726Y-67753D01*
X-192883Y-68527D01*
X-193657Y-69684D01*
X-193929Y-71050D01*
X-193657Y-72416D01*
X-192883Y-73573D01*
X-191726Y-74347D01*
X-190360Y-74619D01*
X-188994Y-74347D01*
X-187837Y-73573D01*
X-187063Y-72416D01*
X-186791Y-71050D01*
X-187063Y-69684D01*
X-187837Y-68527D01*
X-188994Y-67753D01*
X-190360Y-67481D01*
D02*
G37*
G36*
X-97790Y-75171D02*
X-99156Y-75443D01*
X-100313Y-76217D01*
X-101087Y-77374D01*
X-101359Y-78740D01*
X-101087Y-80106D01*
X-100313Y-81263D01*
X-99156Y-82037D01*
X-97790Y-82309D01*
X-96424Y-82037D01*
X-95267Y-81263D01*
X-94493Y-80106D01*
X-94221Y-78740D01*
X-94493Y-77374D01*
X-95267Y-76217D01*
X-96424Y-75443D01*
X-97790Y-75171D01*
D02*
G37*
G36*
X-112730Y-74724D02*
X-114427Y-74947D01*
X-116008Y-75602D01*
X-117366Y-76644D01*
X-118006D01*
X-119363Y-75602D01*
X-120945Y-74947D01*
X-122641Y-74724D01*
X-124338Y-74947D01*
X-125920Y-75602D01*
X-127277Y-76644D01*
X-128319Y-78002D01*
X-128974Y-79583D01*
X-129198Y-81280D01*
X-128974Y-82977D01*
X-128319Y-84558D01*
X-127277Y-85916D01*
X-125920Y-86958D01*
X-124338Y-87613D01*
X-122641Y-87836D01*
X-120945Y-87613D01*
X-119363Y-86958D01*
X-118006Y-85916D01*
X-117366D01*
X-116008Y-86958D01*
X-114427Y-87613D01*
X-112730Y-87836D01*
X-111033Y-87613D01*
X-109452Y-86958D01*
X-108094Y-85916D01*
X-107052Y-84558D01*
X-106397Y-82977D01*
X-106174Y-81280D01*
X-106397Y-79583D01*
X-107052Y-78002D01*
X-108094Y-76644D01*
X-109452Y-75602D01*
X-111033Y-74947D01*
X-112730Y-74724D01*
D02*
G37*
G36*
X-243980Y-54921D02*
X-245346Y-55193D01*
X-246503Y-55967D01*
X-247277Y-57124D01*
X-247549Y-58490D01*
X-247277Y-59856D01*
X-246503Y-61013D01*
X-245346Y-61787D01*
X-243980Y-62059D01*
X-242614Y-61787D01*
X-241457Y-61013D01*
X-240683Y-59856D01*
X-240411Y-58490D01*
X-240683Y-57124D01*
X-241457Y-55967D01*
X-242614Y-55193D01*
X-243980Y-54921D01*
D02*
G37*
G36*
X-17730Y-51151D02*
X-19096Y-51423D01*
X-20253Y-52197D01*
X-21027Y-53354D01*
X-21299Y-54720D01*
X-21027Y-56086D01*
X-20253Y-57243D01*
X-19096Y-58017D01*
X-17730Y-58289D01*
X-16364Y-58017D01*
X-15207Y-57243D01*
X-14433Y-56086D01*
X-14161Y-54720D01*
X-14433Y-53354D01*
X-15207Y-52197D01*
X-16364Y-51423D01*
X-17730Y-51151D01*
D02*
G37*
G36*
X42270D02*
X40904Y-51423D01*
X39747Y-52197D01*
X38973Y-53354D01*
X38701Y-54720D01*
X38973Y-56086D01*
X39747Y-57243D01*
X40904Y-58017D01*
X42270Y-58289D01*
X43636Y-58017D01*
X44793Y-57243D01*
X45567Y-56086D01*
X45839Y-54720D01*
X45567Y-53354D01*
X44793Y-52197D01*
X43636Y-51423D01*
X42270Y-51151D01*
D02*
G37*
G36*
X-57730D02*
X-59096Y-51423D01*
X-60253Y-52197D01*
X-61027Y-53354D01*
X-61299Y-54720D01*
X-61027Y-56086D01*
X-60253Y-57243D01*
X-59096Y-58017D01*
X-57730Y-58289D01*
X-56364Y-58017D01*
X-55207Y-57243D01*
X-54433Y-56086D01*
X-54161Y-54720D01*
X-54433Y-53354D01*
X-55207Y-52197D01*
X-56364Y-51423D01*
X-57730Y-51151D01*
D02*
G37*
G36*
X-47730D02*
X-49096Y-51423D01*
X-50253Y-52197D01*
X-51027Y-53354D01*
X-51299Y-54720D01*
X-51027Y-56086D01*
X-50253Y-57243D01*
X-49096Y-58017D01*
X-47730Y-58289D01*
X-46364Y-58017D01*
X-45207Y-57243D01*
X-44433Y-56086D01*
X-44161Y-54720D01*
X-44433Y-53354D01*
X-45207Y-52197D01*
X-46364Y-51423D01*
X-47730Y-51151D01*
D02*
G37*
G36*
X-213470Y48869D02*
X-214836Y48597D01*
X-215993Y47823D01*
X-216767Y46666D01*
X-217038Y45300D01*
X-216767Y43934D01*
X-215993Y42777D01*
X-214836Y42003D01*
X-213470Y41732D01*
X-212104Y42003D01*
X-210947Y42777D01*
X-210173Y43934D01*
X-209901Y45300D01*
X-210173Y46666D01*
X-210947Y47823D01*
X-212104Y48597D01*
X-213470Y48869D01*
D02*
G37*
G36*
X191770Y64081D02*
X190073Y63858D01*
X188492Y63203D01*
X187134Y62161D01*
X186092Y60803D01*
X185437Y59222D01*
X185214Y57525D01*
X185437Y55828D01*
X186092Y54247D01*
X187134Y52889D01*
X188492Y51847D01*
X189398Y51472D01*
X189523Y50208D01*
X189247Y50023D01*
X188473Y48866D01*
X188201Y47500D01*
X188473Y46134D01*
X189247Y44977D01*
X190404Y44203D01*
X191770Y43931D01*
X193136Y44203D01*
X194293Y44977D01*
X195067Y46134D01*
X195339Y47500D01*
X195067Y48866D01*
X194293Y50023D01*
X194017Y50208D01*
X194142Y51472D01*
X195048Y51847D01*
X196406Y52889D01*
X197448Y54247D01*
X198103Y55828D01*
X198326Y57525D01*
X198103Y59222D01*
X197448Y60803D01*
X196406Y62161D01*
X195048Y63203D01*
X193467Y63858D01*
X191770Y64081D01*
D02*
G37*
G36*
Y41069D02*
X190404Y40797D01*
X189247Y40023D01*
X188473Y38866D01*
X188201Y37500D01*
X188473Y36134D01*
X189247Y34977D01*
X190404Y34203D01*
X191770Y33931D01*
X193136Y34203D01*
X194293Y34977D01*
X195067Y36134D01*
X195339Y37500D01*
X195067Y38866D01*
X194293Y40023D01*
X193136Y40797D01*
X191770Y41069D01*
D02*
G37*
G36*
X71120Y63706D02*
X69423Y63483D01*
X67842Y62828D01*
X66484Y61786D01*
X65442Y60428D01*
X64787Y58847D01*
X64564Y57150D01*
X64787Y55453D01*
X65442Y53872D01*
X66484Y52514D01*
Y52136D01*
X65442Y50778D01*
X64787Y49197D01*
X64564Y47500D01*
X64787Y45803D01*
X65442Y44222D01*
X66484Y42864D01*
X67842Y41822D01*
X69423Y41167D01*
X71120Y40944D01*
X72817Y41167D01*
X74398Y41822D01*
X75756Y42864D01*
X76798Y44222D01*
X77453Y45803D01*
X77676Y47500D01*
X77453Y49197D01*
X76798Y50778D01*
X75756Y52136D01*
Y52514D01*
X76798Y53872D01*
X77453Y55453D01*
X77676Y57150D01*
X77453Y58847D01*
X76798Y60428D01*
X75756Y61786D01*
X74398Y62828D01*
X72817Y63483D01*
X71120Y63706D01*
D02*
G37*
G36*
X-246798Y57356D02*
X-248495Y57133D01*
X-250076Y56478D01*
X-251434Y55436D01*
X-252476Y54078D01*
X-253131Y52497D01*
X-253354Y50800D01*
X-253131Y49103D01*
X-252476Y47522D01*
X-251434Y46164D01*
X-250076Y45122D01*
X-248495Y44467D01*
X-246798Y44244D01*
X-245101Y44467D01*
X-243520Y45122D01*
X-242162Y46164D01*
X-241120Y47522D01*
X-240465Y49103D01*
X-240242Y50800D01*
X-240465Y52497D01*
X-241120Y54078D01*
X-242162Y55436D01*
X-243520Y56478D01*
X-245101Y57133D01*
X-246798Y57356D01*
D02*
G37*
G36*
X233680Y66246D02*
X231983Y66023D01*
X230402Y65368D01*
X229044Y64326D01*
X228002Y62968D01*
X227347Y61387D01*
X227124Y59690D01*
X227347Y57993D01*
X228002Y56412D01*
X228410Y55880D01*
X228002Y55348D01*
X227347Y53767D01*
X227124Y52070D01*
X227347Y50373D01*
X228002Y48792D01*
X229044Y47434D01*
X230402Y46392D01*
X231983Y45737D01*
X233680Y45514D01*
X235377Y45737D01*
X236958Y46392D01*
X238316Y47434D01*
X239358Y48792D01*
X240013Y50373D01*
X240236Y52070D01*
X240013Y53767D01*
X239358Y55348D01*
X238950Y55880D01*
X239358Y56412D01*
X239628Y57064D01*
X240892Y57189D01*
X240907Y57167D01*
X242064Y56393D01*
X243430Y56121D01*
X244796Y56393D01*
X245953Y57167D01*
X246727Y58324D01*
X246999Y59690D01*
X246727Y61056D01*
X245953Y62213D01*
X244796Y62987D01*
X243430Y63259D01*
X242064Y62987D01*
X240907Y62213D01*
X240892Y62191D01*
X239628Y62316D01*
X239358Y62968D01*
X238316Y64326D01*
X236958Y65368D01*
X235377Y66023D01*
X233680Y66246D01*
D02*
G37*
G36*
X54870Y64529D02*
X53504Y64257D01*
X52347Y63483D01*
X51573Y62326D01*
X51301Y60960D01*
X51573Y59594D01*
X52347Y58437D01*
X53504Y57663D01*
X54870Y57391D01*
X56236Y57663D01*
X57393Y58437D01*
X58167Y59594D01*
X58439Y60960D01*
X58167Y62326D01*
X57393Y63483D01*
X56236Y64257D01*
X54870Y64529D01*
D02*
G37*
G36*
X-162330Y57069D02*
X-163696Y56797D01*
X-164853Y56023D01*
X-165627Y54866D01*
X-165899Y53500D01*
X-165627Y52134D01*
X-164853Y50977D01*
X-163696Y50203D01*
X-162330Y49931D01*
X-160964Y50203D01*
X-159807Y50977D01*
X-159033Y52134D01*
X-158761Y53500D01*
X-159033Y54866D01*
X-159807Y56023D01*
X-160964Y56797D01*
X-162330Y57069D01*
D02*
G37*
G36*
X-279400Y64210D02*
X-281227Y63970D01*
X-282930Y63264D01*
X-284393Y62142D01*
X-285515Y60680D01*
X-286220Y58977D01*
X-286460Y57150D01*
X-286220Y55323D01*
X-285515Y53620D01*
X-284393Y52158D01*
X-282930Y51035D01*
X-281227Y50330D01*
X-279400Y50090D01*
X-277573Y50330D01*
X-275870Y51035D01*
X-274408Y52158D01*
X-273286Y53620D01*
X-272580Y55323D01*
X-272340Y57150D01*
X-272580Y58977D01*
X-273286Y60680D01*
X-274408Y62142D01*
X-275870Y63264D01*
X-277573Y63970D01*
X-279400Y64210D01*
D02*
G37*
G36*
X222250Y-683D02*
X220553Y-906D01*
X219027Y-1538D01*
X217501Y-906D01*
X215804Y-683D01*
X214107Y-906D01*
X212526Y-1561D01*
X211168Y-2603D01*
X210127Y-3961D01*
X209472Y-5542D01*
X209248Y-7239D01*
X209472Y-8936D01*
X210127Y-10517D01*
X211168Y-11875D01*
X212526Y-12917D01*
X214107Y-13572D01*
X215804Y-13795D01*
X217501Y-13572D01*
X219027Y-12940D01*
X220553Y-13572D01*
X222250Y-13795D01*
X223947Y-13572D01*
X225528Y-12917D01*
X226886Y-11875D01*
X227928Y-10517D01*
X228583Y-8936D01*
X228806Y-7239D01*
X228583Y-5542D01*
X227928Y-3961D01*
X226886Y-2603D01*
X225528Y-1561D01*
X223947Y-906D01*
X222250Y-683D01*
D02*
G37*
G36*
X-122641Y5892D02*
X-124007Y5620D01*
X-125165Y4846D01*
X-125938Y3688D01*
X-126210Y2323D01*
X-125938Y957D01*
X-125165Y-201D01*
X-124007Y-974D01*
X-122641Y-1246D01*
X-121276Y-974D01*
X-120118Y-201D01*
X-119345Y957D01*
X-119073Y2323D01*
X-119345Y3688D01*
X-120118Y4846D01*
X-121276Y5620D01*
X-122641Y5892D01*
D02*
G37*
G36*
X-217860Y2056D02*
X-219557Y1833D01*
X-221138Y1178D01*
X-222496Y136D01*
X-223538Y-1222D01*
X-224193Y-2803D01*
X-224416Y-4500D01*
X-224193Y-6197D01*
X-223538Y-7778D01*
X-222496Y-9136D01*
X-221138Y-10178D01*
X-219557Y-10833D01*
X-217860Y-11056D01*
X-216163Y-10833D01*
X-214582Y-10178D01*
X-213224Y-9136D01*
X-212182Y-7778D01*
X-211527Y-6197D01*
X-211304Y-4500D01*
X-211527Y-2803D01*
X-212182Y-1222D01*
X-213224Y136D01*
X-214582Y1178D01*
X-216163Y1833D01*
X-217860Y2056D01*
D02*
G37*
G36*
X-105826Y5902D02*
X-107523Y5679D01*
X-109104Y5024D01*
X-110462Y3982D01*
X-111504Y2624D01*
X-112159Y1043D01*
X-112382Y-654D01*
X-112159Y-2351D01*
X-111504Y-3932D01*
X-110462Y-5290D01*
X-109104Y-6332D01*
X-107523Y-6987D01*
X-105826Y-7210D01*
X-104130Y-6987D01*
X-102548Y-6332D01*
X-101191Y-5290D01*
X-100149Y-3932D01*
X-99494Y-2351D01*
X-99270Y-654D01*
X-99494Y1043D01*
X-100149Y2624D01*
X-101191Y3982D01*
X-102548Y5024D01*
X-104130Y5679D01*
X-105826Y5902D01*
D02*
G37*
G36*
X62230Y7379D02*
X60864Y7107D01*
X59707Y6333D01*
X58933Y5176D01*
X58661Y3810D01*
X58933Y2444D01*
X59348Y1823D01*
X58636Y757D01*
X57270Y1029D01*
X55904Y757D01*
X55172Y1853D01*
X55567Y2444D01*
X55838Y3810D01*
X55567Y5176D01*
X54793Y6333D01*
X53636Y7107D01*
X52270Y7379D01*
X50904Y7107D01*
X49747Y6333D01*
X48973Y5176D01*
X48701Y3810D01*
X48973Y2444D01*
X49514Y1635D01*
X48616Y737D01*
X48586Y757D01*
X47220Y1029D01*
X45854Y757D01*
X45147Y1816D01*
X45567Y2444D01*
X45839Y3810D01*
X45567Y5176D01*
X44793Y6333D01*
X43636Y7107D01*
X42270Y7379D01*
X40904Y7107D01*
X39747Y6333D01*
X38973Y5176D01*
X38701Y3810D01*
X38973Y2444D01*
X39747Y1287D01*
X40904Y513D01*
X42270Y241D01*
X43636Y513D01*
X44343Y-546D01*
X43923Y-1174D01*
X43651Y-2540D01*
X43923Y-3906D01*
X44697Y-5063D01*
X45854Y-5837D01*
X47220Y-6109D01*
X48586Y-5837D01*
X49743Y-5063D01*
X50517Y-3906D01*
X50789Y-2540D01*
X50517Y-1174D01*
X49976Y-365D01*
X50874Y533D01*
X50904Y513D01*
X52270Y241D01*
X53636Y513D01*
X54368Y-583D01*
X53973Y-1174D01*
X53701Y-2540D01*
X53973Y-3906D01*
X54747Y-5063D01*
X55904Y-5837D01*
X57270Y-6109D01*
X58636Y-5837D01*
X59793Y-5063D01*
X60567Y-3906D01*
X60839Y-2540D01*
X60567Y-1174D01*
X60152Y-553D01*
X60864Y513D01*
X62230Y241D01*
X63596Y513D01*
X64753Y1287D01*
X65527Y2444D01*
X65799Y3810D01*
X65527Y5176D01*
X64753Y6333D01*
X63596Y7107D01*
X62230Y7379D01*
D02*
G37*
G36*
X-38834Y38306D02*
X-40531Y38083D01*
X-42112Y37428D01*
X-43470Y36386D01*
X-44511Y35028D01*
X-45166Y33447D01*
X-45390Y31750D01*
X-45166Y30053D01*
X-44511Y28472D01*
X-43470Y27114D01*
X-42112Y26072D01*
X-40531Y25417D01*
X-38834Y25194D01*
X-37137Y25417D01*
X-35556Y26072D01*
X-34198Y27114D01*
X-33156Y28472D01*
X-32501Y30053D01*
X-32278Y31750D01*
X-32501Y33447D01*
X-33156Y35028D01*
X-34198Y36386D01*
X-35556Y37428D01*
X-37137Y38083D01*
X-38834Y38306D01*
D02*
G37*
G36*
X-168910Y40116D02*
X-170607Y39893D01*
X-172188Y39238D01*
X-173546Y38196D01*
X-174588Y36838D01*
X-175243Y35257D01*
X-175466Y33560D01*
X-175243Y31863D01*
X-174588Y30282D01*
X-173546Y28924D01*
X-172188Y27882D01*
X-170607Y27228D01*
X-168910Y27004D01*
X-167213Y27228D01*
X-165632Y27882D01*
X-164274Y28924D01*
X-163232Y30282D01*
X-162577Y31863D01*
X-162354Y33560D01*
X-162577Y35257D01*
X-163232Y36838D01*
X-164274Y38196D01*
X-165632Y39238D01*
X-167213Y39893D01*
X-168910Y40116D01*
D02*
G37*
G36*
X-136330Y20079D02*
X-137696Y19807D01*
X-138853Y19033D01*
X-139627Y17876D01*
X-139899Y16510D01*
X-139627Y15144D01*
X-138853Y13987D01*
X-137878Y13335D01*
Y12065D01*
X-138853Y11413D01*
X-139627Y10256D01*
X-139899Y8890D01*
X-139627Y7524D01*
X-138853Y6367D01*
X-137696Y5593D01*
X-136330Y5321D01*
X-134964Y5593D01*
X-133807Y6367D01*
X-133033Y7524D01*
X-132761Y8890D01*
X-133033Y10256D01*
X-133807Y11413D01*
X-134782Y12065D01*
Y13335D01*
X-133807Y13987D01*
X-133033Y15144D01*
X-132761Y16510D01*
X-133033Y17876D01*
X-133807Y19033D01*
X-134964Y19807D01*
X-136330Y20079D01*
D02*
G37*
G36*
X191770Y31069D02*
X190404Y30797D01*
X189247Y30023D01*
X188473Y28866D01*
X188201Y27500D01*
X188473Y26134D01*
X189247Y24977D01*
X190404Y24203D01*
X191770Y23931D01*
X193136Y24203D01*
X194293Y24977D01*
X195067Y26134D01*
X195339Y27500D01*
X195067Y28866D01*
X194293Y30023D01*
X193136Y30797D01*
X191770Y31069D01*
D02*
G37*
G36*
X251260Y-76641D02*
X249894Y-76913D01*
X248737Y-77687D01*
X247963Y-78844D01*
X247691Y-80210D01*
X247963Y-81576D01*
X248737Y-82733D01*
X249894Y-83507D01*
X251260Y-83779D01*
X252626Y-83507D01*
X253783Y-82733D01*
X254557Y-81576D01*
X254829Y-80210D01*
X254557Y-78844D01*
X253783Y-77687D01*
X252626Y-76913D01*
X251260Y-76641D01*
D02*
G37*
G36*
X212524Y-191270D02*
X191270D01*
Y-212524D01*
X194419Y-212214D01*
X198667Y-210925D01*
X202583Y-208832D01*
X206015Y-206015D01*
X208832Y-202583D01*
X210925Y-198667D01*
X212214Y-194419D01*
X212524Y-191270D01*
D02*
G37*
G36*
X12500Y-190741D02*
X11134Y-191013D01*
X9977Y-191787D01*
X9203Y-192944D01*
X8931Y-194310D01*
X9203Y-195676D01*
X9977Y-196833D01*
X11134Y-197607D01*
X12500Y-197879D01*
X13866Y-197607D01*
X15023Y-196833D01*
X15797Y-195676D01*
X16069Y-194310D01*
X15797Y-192944D01*
X15023Y-191787D01*
X13866Y-191013D01*
X12500Y-190741D01*
D02*
G37*
G36*
X-167476Y-191270D02*
X-188730D01*
Y-212524D01*
X-185581Y-212214D01*
X-181333Y-210925D01*
X-177417Y-208832D01*
X-173985Y-206015D01*
X-171168Y-202583D01*
X-169075Y-198667D01*
X-167786Y-194419D01*
X-167476Y-191270D01*
D02*
G37*
G36*
X188730D02*
X167476D01*
X167786Y-194419D01*
X169075Y-198667D01*
X171168Y-202583D01*
X173985Y-206015D01*
X177417Y-208832D01*
X181333Y-210925D01*
X185581Y-212214D01*
X188730Y-212524D01*
Y-191270D01*
D02*
G37*
G36*
X22500Y-190741D02*
X21134Y-191013D01*
X19977Y-191787D01*
X19203Y-192944D01*
X18931Y-194310D01*
X19203Y-195676D01*
X19977Y-196833D01*
X21134Y-197607D01*
X22500Y-197879D01*
X23866Y-197607D01*
X25023Y-196833D01*
X25797Y-195676D01*
X26069Y-194310D01*
X25797Y-192944D01*
X25023Y-191787D01*
X23866Y-191013D01*
X22500Y-190741D01*
D02*
G37*
G36*
X-188730Y-167476D02*
Y-188730D01*
X-167476D01*
X-167786Y-185581D01*
X-169075Y-181333D01*
X-171168Y-177417D01*
X-173985Y-173985D01*
X-177417Y-171168D01*
X-181333Y-169075D01*
X-185581Y-167786D01*
X-188730Y-167476D01*
D02*
G37*
G36*
X188730D02*
X185581Y-167786D01*
X181333Y-169075D01*
X177417Y-171168D01*
X173985Y-173985D01*
X171168Y-177417D01*
X169075Y-181333D01*
X167786Y-185581D01*
X167476Y-188730D01*
X188730D01*
Y-167476D01*
D02*
G37*
G36*
X-7500Y-187754D02*
X-9197Y-187977D01*
X-10778Y-188632D01*
X-12136Y-189674D01*
X-13178Y-191032D01*
X-13544Y-191915D01*
X-14807Y-192040D01*
X-14977Y-191787D01*
X-16134Y-191013D01*
X-17500Y-190741D01*
X-18866Y-191013D01*
X-20023Y-191787D01*
X-20797Y-192944D01*
X-21068Y-194310D01*
X-20797Y-195676D01*
X-20023Y-196833D01*
X-18866Y-197607D01*
X-17500Y-197879D01*
X-16134Y-197607D01*
X-14977Y-196833D01*
X-14807Y-196580D01*
X-13544Y-196705D01*
X-13178Y-197588D01*
X-12136Y-198946D01*
X-10778Y-199988D01*
X-9197Y-200643D01*
X-7500Y-200866D01*
X-5803Y-200643D01*
X-4222Y-199988D01*
X-2864Y-198946D01*
X-1822Y-197588D01*
X-1167Y-196007D01*
X-944Y-194310D01*
X-1167Y-192613D01*
X-1822Y-191032D01*
X-2864Y-189674D01*
X-4222Y-188632D01*
X-5803Y-187977D01*
X-7500Y-187754D01*
D02*
G37*
G36*
X-191270Y-167476D02*
X-194419Y-167786D01*
X-198667Y-169075D01*
X-202583Y-171168D01*
X-206015Y-173985D01*
X-208832Y-177417D01*
X-210925Y-181333D01*
X-212214Y-185581D01*
X-212524Y-188730D01*
X-191270D01*
Y-167476D01*
D02*
G37*
G36*
X-12500Y-217411D02*
X-13866Y-217683D01*
X-15023Y-218457D01*
X-15797Y-219614D01*
X-16069Y-220980D01*
X-15797Y-222346D01*
X-15023Y-223503D01*
X-13866Y-224277D01*
X-12500Y-224549D01*
X-11134Y-224277D01*
X-9977Y-223503D01*
X-9203Y-222346D01*
X-8931Y-220980D01*
X-9203Y-219614D01*
X-9977Y-218457D01*
X-11134Y-217683D01*
X-12500Y-217411D01*
D02*
G37*
G36*
X-2500D02*
X-3866Y-217683D01*
X-5023Y-218457D01*
X-5797Y-219614D01*
X-6069Y-220980D01*
X-5797Y-222346D01*
X-5023Y-223503D01*
X-3866Y-224277D01*
X-2500Y-224549D01*
X-1134Y-224277D01*
X23Y-223503D01*
X797Y-222346D01*
X1069Y-220980D01*
X797Y-219614D01*
X23Y-218457D01*
X-1134Y-217683D01*
X-2500Y-217411D01*
D02*
G37*
G36*
X-50629Y-230591D02*
X-52326Y-230815D01*
X-53907Y-231470D01*
X-55265Y-232512D01*
X-56307Y-233869D01*
X-56962Y-235451D01*
X-57185Y-237148D01*
X-56962Y-238844D01*
X-56307Y-240425D01*
X-55265Y-241783D01*
X-53907Y-242825D01*
X-52326Y-243480D01*
X-50629Y-243704D01*
X-48932Y-243480D01*
X-47351Y-242825D01*
X-45993Y-241783D01*
X-44951Y-240425D01*
X-44296Y-238844D01*
X-44073Y-237148D01*
X-44296Y-235451D01*
X-44951Y-233869D01*
X-45993Y-232512D01*
X-47351Y-231470D01*
X-48932Y-230815D01*
X-50629Y-230591D01*
D02*
G37*
G36*
X-22500Y-217411D02*
X-23866Y-217683D01*
X-25023Y-218457D01*
X-25797Y-219614D01*
X-26069Y-220980D01*
X-25797Y-222346D01*
X-25023Y-223503D01*
X-23866Y-224277D01*
X-22500Y-224549D01*
X-21134Y-224277D01*
X-19977Y-223503D01*
X-19203Y-222346D01*
X-18931Y-220980D01*
X-19203Y-219614D01*
X-19977Y-218457D01*
X-21134Y-217683D01*
X-22500Y-217411D01*
D02*
G37*
G36*
X7500D02*
X6134Y-217683D01*
X4977Y-218457D01*
X4203Y-219614D01*
X3932Y-220980D01*
X4203Y-222346D01*
X4977Y-223503D01*
X6134Y-224277D01*
X7500Y-224549D01*
X8866Y-224277D01*
X10023Y-223503D01*
X10797Y-222346D01*
X11069Y-220980D01*
X10797Y-219614D01*
X10023Y-218457D01*
X8866Y-217683D01*
X7500Y-217411D01*
D02*
G37*
G36*
X83876Y-210424D02*
X82179Y-210647D01*
X80598Y-211302D01*
X79240Y-212344D01*
X78695Y-213055D01*
X77425D01*
X77026Y-212534D01*
X75668Y-211492D01*
X74087Y-210837D01*
X72390Y-210614D01*
X70693Y-210837D01*
X69112Y-211492D01*
X67754Y-212534D01*
X66712Y-213892D01*
X66057Y-215473D01*
X65834Y-217170D01*
X66057Y-218867D01*
X66712Y-220448D01*
X67754Y-221806D01*
Y-222504D01*
X66712Y-223862D01*
X66057Y-225443D01*
X65834Y-227140D01*
X66057Y-228837D01*
X66712Y-230418D01*
X67754Y-231776D01*
X69112Y-232818D01*
X70693Y-233473D01*
X72390Y-233696D01*
X74087Y-233473D01*
X75668Y-232818D01*
X77026Y-231776D01*
X77498Y-231161D01*
X78768D01*
X79240Y-231776D01*
X80598Y-232818D01*
X82179Y-233473D01*
X83876Y-233696D01*
X85573Y-233473D01*
X87154Y-232818D01*
X88512Y-231776D01*
X89001Y-231138D01*
X90271D01*
X90614Y-231586D01*
X91972Y-232628D01*
X93553Y-233283D01*
X95250Y-233506D01*
X96947Y-233283D01*
X98528Y-232628D01*
X99886Y-231586D01*
X100928Y-230228D01*
X101583Y-228647D01*
X101806Y-226950D01*
X101583Y-225253D01*
X100928Y-223672D01*
X99886Y-222314D01*
Y-221806D01*
X100928Y-220448D01*
X101583Y-218867D01*
X101806Y-217170D01*
X101583Y-215473D01*
X100928Y-213892D01*
X99886Y-212534D01*
X98528Y-211492D01*
X96947Y-210837D01*
X95250Y-210614D01*
X93553Y-210837D01*
X91972Y-211492D01*
X90614Y-212534D01*
X90271Y-212981D01*
X89001D01*
X88512Y-212344D01*
X87154Y-211302D01*
X85573Y-210647D01*
X83876Y-210424D01*
D02*
G37*
G36*
X-191270Y-191270D02*
X-212524D01*
X-212214Y-194419D01*
X-210925Y-198667D01*
X-208832Y-202583D01*
X-206015Y-206015D01*
X-202583Y-208832D01*
X-198667Y-210925D01*
X-194419Y-212214D01*
X-191270Y-212524D01*
Y-191270D01*
D02*
G37*
G36*
X17500Y-217411D02*
X16134Y-217683D01*
X14977Y-218457D01*
X14203Y-219614D01*
X13931Y-220980D01*
X14203Y-222346D01*
X14977Y-223503D01*
X16134Y-224277D01*
X17500Y-224549D01*
X18866Y-224277D01*
X20023Y-223503D01*
X20797Y-222346D01*
X21069Y-220980D01*
X20797Y-219614D01*
X20023Y-218457D01*
X18866Y-217683D01*
X17500Y-217411D01*
D02*
G37*
G36*
X-155458Y-202994D02*
X-157155Y-203217D01*
X-158736Y-203872D01*
X-160094Y-204914D01*
X-161136Y-206272D01*
X-161791Y-207853D01*
X-162014Y-209550D01*
X-161791Y-211247D01*
X-161797Y-211262D01*
X-162028Y-211358D01*
X-163386Y-212400D01*
X-164428Y-213758D01*
X-165083Y-215339D01*
X-165306Y-217036D01*
X-165083Y-218733D01*
X-164428Y-220314D01*
X-163386Y-221672D01*
X-162028Y-222714D01*
X-160447Y-223369D01*
X-158750Y-223592D01*
X-157053Y-223369D01*
X-155472Y-222714D01*
X-154114Y-221672D01*
X-153072Y-220314D01*
X-152417Y-218733D01*
X-152194Y-217036D01*
X-152417Y-215339D01*
X-152411Y-215323D01*
X-152180Y-215228D01*
X-150822Y-214186D01*
X-149780Y-212828D01*
X-149125Y-211247D01*
X-148902Y-209550D01*
X-149125Y-207853D01*
X-149780Y-206272D01*
X-150822Y-204914D01*
X-152180Y-203872D01*
X-153761Y-203217D01*
X-155458Y-202994D01*
D02*
G37*
G36*
X-155080Y-80321D02*
X-156446Y-80593D01*
X-157603Y-81367D01*
X-158377Y-82524D01*
X-158649Y-83890D01*
X-158377Y-85256D01*
X-157603Y-86413D01*
X-156446Y-87187D01*
X-155080Y-87459D01*
X-153714Y-87187D01*
X-152557Y-86413D01*
X-151783Y-85256D01*
X-151511Y-83890D01*
X-151783Y-82524D01*
X-152557Y-81367D01*
X-153714Y-80593D01*
X-155080Y-80321D01*
D02*
G37*
G36*
X22270Y-73224D02*
X20573Y-73447D01*
X18992Y-74102D01*
X17634Y-75144D01*
X16592Y-76502D01*
X15937Y-78083D01*
X15714Y-79780D01*
X15937Y-81477D01*
X16592Y-83058D01*
X17634Y-84416D01*
X18992Y-85458D01*
X20573Y-86113D01*
X22270Y-86336D01*
X23967Y-86113D01*
X25548Y-85458D01*
X26906Y-84416D01*
X27948Y-83058D01*
X28603Y-81477D01*
X28826Y-79780D01*
X28603Y-78083D01*
X27948Y-76502D01*
X26906Y-75144D01*
X25548Y-74102D01*
X23967Y-73447D01*
X22270Y-73224D01*
D02*
G37*
G36*
X-7930Y33689D02*
X-9296Y33417D01*
X-10453Y32643D01*
X-11227Y31486D01*
X-11499Y30120D01*
X-11227Y28754D01*
X-11011Y28431D01*
X-11010Y28428D01*
X-10287Y27347D01*
X-10288Y27347D01*
X-10287Y27347D01*
X32999Y-15940D01*
X32962Y-15977D01*
X37472Y-19829D01*
X42530Y-22928D01*
X48010Y-25198D01*
X53777Y-26583D01*
X59690Y-27048D01*
Y-26995D01*
X67310D01*
X67407Y-26976D01*
X71872Y-27328D01*
X76322Y-28396D01*
X80550Y-30147D01*
X84451Y-32538D01*
X87857Y-35447D01*
X87912Y-35529D01*
X101756Y-49373D01*
X101764Y-49378D01*
X101767Y-49384D01*
X101769Y-49382D01*
X101890Y-49463D01*
X104627Y-52798D01*
X106736Y-56743D01*
X108034Y-61024D01*
X108457Y-65317D01*
X108426Y-65475D01*
X108408D01*
X108735Y-68796D01*
X109704Y-71988D01*
X111172Y-74736D01*
X111214Y-74947D01*
X111935Y-76026D01*
X111908Y-76053D01*
X111915Y-76062D01*
X111943Y-76034D01*
X112472Y-76388D01*
X113383Y-77498D01*
X113393Y-77488D01*
X113406Y-77498D01*
Y-77498D01*
X113406Y-77498D01*
D01*
X140319Y-104410D01*
X140987Y-105410D01*
X142144Y-106184D01*
X143510Y-106455D01*
X144876Y-106184D01*
X146033Y-105410D01*
X146807Y-104252D01*
X147079Y-102887D01*
X146807Y-101521D01*
X146033Y-100363D01*
X145034Y-99695D01*
X118121Y-72782D01*
X118116Y-72779D01*
X118114Y-72776D01*
X118113Y-72777D01*
X118055Y-72738D01*
X116456Y-70655D01*
X115421Y-68156D01*
X115079Y-65553D01*
X115094Y-65475D01*
X115121D01*
X114758Y-60866D01*
X113679Y-56370D01*
X111909Y-52098D01*
X109493Y-48155D01*
X106503Y-44654D01*
X106487Y-44671D01*
X106472Y-44658D01*
X106472Y-44658D01*
Y-44658D01*
D01*
X92627Y-30814D01*
X92660Y-30781D01*
X88382Y-27128D01*
X83586Y-24188D01*
X78388Y-22036D01*
X72918Y-20722D01*
X67310Y-20281D01*
Y-20327D01*
X59690D01*
X59571Y-20351D01*
X54823Y-19977D01*
X50076Y-18838D01*
X45566Y-16969D01*
X41403Y-14419D01*
X37781Y-11325D01*
X37714Y-11225D01*
X37714Y-11225D01*
D01*
D01*
D01*
X37714Y-11225D01*
X37714Y-11225D01*
X37714Y-11225D01*
X37714D01*
X-4543Y31032D01*
X-4633Y31486D01*
X-5407Y32643D01*
X-6564Y33417D01*
X-7930Y33689D01*
D02*
G37*
G36*
X-243980Y-80321D02*
X-245346Y-80593D01*
X-246503Y-81367D01*
X-247277Y-82524D01*
X-247549Y-83890D01*
X-247277Y-85256D01*
X-246503Y-86413D01*
X-245346Y-87187D01*
X-243980Y-87459D01*
X-242614Y-87187D01*
X-241457Y-86413D01*
X-240683Y-85256D01*
X-240411Y-83890D01*
X-240683Y-82524D01*
X-241457Y-81367D01*
X-242614Y-80593D01*
X-243980Y-80321D01*
D02*
G37*
G36*
X-82730Y-77711D02*
X-84096Y-77983D01*
X-85253Y-78757D01*
X-86027Y-79914D01*
X-86299Y-81280D01*
X-86027Y-82646D01*
X-85253Y-83803D01*
X-84096Y-84577D01*
X-82730Y-84849D01*
X-81364Y-84577D01*
X-80207Y-83803D01*
X-79433Y-82646D01*
X-79161Y-81280D01*
X-79433Y-79914D01*
X-80207Y-78757D01*
X-81364Y-77983D01*
X-82730Y-77711D01*
D02*
G37*
G36*
X47270D02*
X45904Y-77983D01*
X44747Y-78757D01*
X43973Y-79914D01*
X43701Y-81280D01*
X43973Y-82646D01*
X44747Y-83803D01*
X45904Y-84577D01*
X47270Y-84849D01*
X48636Y-84577D01*
X49793Y-83803D01*
X50567Y-82646D01*
X50839Y-81280D01*
X50567Y-79914D01*
X49793Y-78757D01*
X48636Y-77983D01*
X47270Y-77711D01*
D02*
G37*
G36*
X57270D02*
X55904Y-77983D01*
X54747Y-78757D01*
X53973Y-79914D01*
X53701Y-81280D01*
X53973Y-82646D01*
X54747Y-83803D01*
X55904Y-84577D01*
X57270Y-84849D01*
X58636Y-84577D01*
X59793Y-83803D01*
X60567Y-82646D01*
X60839Y-81280D01*
X60567Y-79914D01*
X59793Y-78757D01*
X58636Y-77983D01*
X57270Y-77711D01*
D02*
G37*
G36*
X-62730D02*
X-64096Y-77983D01*
X-65253Y-78757D01*
X-66027Y-79914D01*
X-66298Y-81280D01*
X-66027Y-82646D01*
X-65253Y-83803D01*
X-64096Y-84577D01*
X-62730Y-84849D01*
X-61364Y-84577D01*
X-60207Y-83803D01*
X-59433Y-82646D01*
X-59161Y-81280D01*
X-59433Y-79914D01*
X-60207Y-78757D01*
X-61364Y-77983D01*
X-62730Y-77711D01*
D02*
G37*
G36*
X-22730D02*
X-24096Y-77983D01*
X-25253Y-78757D01*
X-26027Y-79914D01*
X-26299Y-81280D01*
X-26027Y-82646D01*
X-25253Y-83803D01*
X-24096Y-84577D01*
X-22730Y-84849D01*
X-21364Y-84577D01*
X-20207Y-83803D01*
X-19433Y-82646D01*
X-19161Y-81280D01*
X-19433Y-79914D01*
X-20207Y-78757D01*
X-21364Y-77983D01*
X-22730Y-77711D01*
D02*
G37*
G36*
X-243980Y-143821D02*
X-245346Y-144093D01*
X-246503Y-144867D01*
X-247277Y-146024D01*
X-247549Y-147390D01*
X-247277Y-148756D01*
X-246503Y-149913D01*
X-245346Y-150687D01*
X-243980Y-150959D01*
X-242614Y-150687D01*
X-241457Y-149913D01*
X-240683Y-148756D01*
X-240411Y-147390D01*
X-240683Y-146024D01*
X-241457Y-144867D01*
X-242614Y-144093D01*
X-243980Y-143821D01*
D02*
G37*
G36*
X-155080Y-143665D02*
X-156446Y-143936D01*
X-157603Y-144710D01*
X-158377Y-145868D01*
X-158649Y-147233D01*
X-158377Y-148599D01*
X-157603Y-149757D01*
X-156446Y-150530D01*
X-155080Y-150802D01*
X-153714Y-150530D01*
X-152557Y-149757D01*
X-151783Y-148599D01*
X-151511Y-147233D01*
X-151783Y-145868D01*
X-152557Y-144710D01*
X-153714Y-143936D01*
X-155080Y-143665D01*
D02*
G37*
G36*
X191270Y-167476D02*
Y-188730D01*
X212524D01*
X212214Y-185581D01*
X210925Y-181333D01*
X208832Y-177417D01*
X206015Y-173985D01*
X202583Y-171168D01*
X198667Y-169075D01*
X194419Y-167786D01*
X191270Y-167476D01*
D02*
G37*
G36*
X172101Y-148384D02*
X170404Y-148607D01*
X168823Y-149262D01*
X167465Y-150304D01*
X166423Y-151662D01*
X165768Y-153243D01*
X165545Y-154940D01*
X165768Y-156637D01*
X166423Y-158218D01*
X167465Y-159576D01*
X168823Y-160618D01*
X170404Y-161273D01*
X172101Y-161496D01*
X173798Y-161273D01*
X175379Y-160618D01*
X176737Y-159576D01*
X177779Y-158218D01*
X178434Y-156637D01*
X178657Y-154940D01*
X178434Y-153243D01*
X177779Y-151662D01*
X176737Y-150304D01*
X175379Y-149262D01*
X173798Y-148607D01*
X172101Y-148384D01*
D02*
G37*
G36*
X-243980Y-131121D02*
X-245346Y-131393D01*
X-246503Y-132167D01*
X-247277Y-133324D01*
X-247549Y-134690D01*
X-247277Y-136056D01*
X-246503Y-137213D01*
X-245346Y-137987D01*
X-243980Y-138259D01*
X-242614Y-137987D01*
X-241457Y-137213D01*
X-240683Y-136056D01*
X-240411Y-134690D01*
X-240683Y-133324D01*
X-241457Y-132167D01*
X-242614Y-131393D01*
X-243980Y-131121D01*
D02*
G37*
G36*
X-177870Y-118281D02*
X-179236Y-118553D01*
X-180393Y-119327D01*
X-181167Y-120484D01*
X-181439Y-121850D01*
X-181167Y-123216D01*
X-180393Y-124373D01*
X-179236Y-125147D01*
X-177870Y-125419D01*
X-176504Y-125147D01*
X-175347Y-124373D01*
X-174573Y-123216D01*
X-174301Y-121850D01*
X-174573Y-120484D01*
X-175347Y-119327D01*
X-176504Y-118553D01*
X-177870Y-118281D01*
D02*
G37*
G36*
X-92710Y-101841D02*
X-94076Y-102113D01*
X-95233Y-102887D01*
X-96007Y-104044D01*
X-96279Y-105410D01*
X-96007Y-106776D01*
X-95233Y-107933D01*
X-94076Y-108707D01*
X-92710Y-108979D01*
X-91344Y-108707D01*
X-90187Y-107933D01*
X-89413Y-106776D01*
X-89141Y-105410D01*
X-89413Y-104044D01*
X-90187Y-102887D01*
X-91344Y-102113D01*
X-92710Y-101841D01*
D02*
G37*
G36*
X-79075Y-112824D02*
X-80772Y-113047D01*
X-82353Y-113702D01*
X-83711Y-114744D01*
X-84753Y-116102D01*
X-85408Y-117683D01*
X-85631Y-119380D01*
X-85408Y-121077D01*
X-84753Y-122658D01*
X-83711Y-124016D01*
X-82353Y-125058D01*
X-80772Y-125713D01*
X-79075Y-125936D01*
X-77378Y-125713D01*
X-75797Y-125058D01*
X-74439Y-124016D01*
X-73397Y-122658D01*
X-72743Y-121077D01*
X-72519Y-119380D01*
X-72743Y-117683D01*
X-73397Y-116102D01*
X-74439Y-114744D01*
X-75797Y-113702D01*
X-77378Y-113047D01*
X-79075Y-112824D01*
D02*
G37*
G36*
X-243980Y-118421D02*
X-245346Y-118693D01*
X-246503Y-119467D01*
X-247277Y-120624D01*
X-247549Y-121990D01*
X-247277Y-123356D01*
X-246503Y-124513D01*
X-245346Y-125287D01*
X-243980Y-125559D01*
X-242614Y-125287D01*
X-241457Y-124513D01*
X-240683Y-123356D01*
X-240411Y-121990D01*
X-240683Y-120624D01*
X-241457Y-119467D01*
X-242614Y-118693D01*
X-243980Y-118421D01*
D02*
G37*
G36*
X-11461Y157270D02*
X-12827Y156998D01*
X-13985Y156225D01*
X-14758Y155067D01*
X-15030Y153701D01*
X-14758Y152336D01*
X-13985Y151178D01*
X-12827Y150405D01*
X-11461Y150133D01*
X-10096Y150405D01*
X-8938Y151178D01*
X-8165Y152336D01*
X-7893Y153701D01*
X-8165Y155067D01*
X-8938Y156225D01*
X-10096Y156998D01*
X-11461Y157270D01*
D02*
G37*
G36*
X-81860Y165196D02*
X-83557Y164973D01*
X-85138Y164318D01*
X-86496Y163276D01*
X-87538Y161918D01*
X-88193Y160337D01*
X-88416Y158640D01*
X-88193Y156943D01*
X-87538Y155362D01*
X-86496Y154004D01*
X-85138Y152962D01*
X-83557Y152307D01*
X-81860Y152084D01*
X-80163Y152307D01*
X-78582Y152962D01*
X-77224Y154004D01*
X-76182Y155362D01*
X-75527Y156943D01*
X-75304Y158640D01*
X-75527Y160337D01*
X-76182Y161918D01*
X-77224Y163276D01*
X-78582Y164318D01*
X-80163Y164973D01*
X-81860Y165196D01*
D02*
G37*
G36*
X-204470Y161302D02*
X-206167Y161079D01*
X-207748Y160424D01*
X-209106Y159382D01*
X-210148Y158024D01*
X-210803Y156443D01*
X-211026Y154746D01*
X-210803Y153049D01*
X-210148Y151468D01*
X-209106Y150110D01*
X-207748Y149068D01*
X-206167Y148413D01*
X-204470Y148190D01*
X-202773Y148413D01*
X-201192Y149068D01*
X-199834Y150110D01*
X-198792Y151468D01*
X-198137Y153049D01*
X-197914Y154746D01*
X-198137Y156443D01*
X-198792Y158024D01*
X-199834Y159382D01*
X-201192Y160424D01*
X-202773Y161079D01*
X-204470Y161302D01*
D02*
G37*
G36*
X223520Y155969D02*
X222154Y155697D01*
X220997Y154923D01*
X220223Y153766D01*
X219951Y152400D01*
X220223Y151034D01*
X220997Y149877D01*
X222154Y149103D01*
X223520Y148831D01*
X224886Y149103D01*
X226043Y149877D01*
X226817Y151034D01*
X227089Y152400D01*
X226817Y153766D01*
X226043Y154923D01*
X224886Y155697D01*
X223520Y155969D01*
D02*
G37*
G36*
X-3080Y174196D02*
X-4777Y173973D01*
X-6358Y173318D01*
X-7716Y172276D01*
X-8758Y170918D01*
X-9413Y169337D01*
X-9636Y167640D01*
X-9413Y165943D01*
X-8758Y164362D01*
X-7716Y163004D01*
X-6358Y161962D01*
X-4777Y161307D01*
X-3080Y161084D01*
X-1383Y161307D01*
X198Y161962D01*
X1556Y163004D01*
X2598Y164362D01*
X3253Y165943D01*
X3476Y167640D01*
X3253Y169337D01*
X2598Y170918D01*
X1556Y172276D01*
X198Y173318D01*
X-1383Y173973D01*
X-3080Y174196D01*
D02*
G37*
G36*
X188730Y188730D02*
X167476D01*
X167786Y185581D01*
X169075Y181333D01*
X171168Y177417D01*
X173985Y173985D01*
X177417Y171168D01*
X181333Y169075D01*
X185581Y167786D01*
X188730Y167476D01*
Y188730D01*
D02*
G37*
G36*
X212524D02*
X191270D01*
Y167476D01*
X194419Y167786D01*
X198667Y169075D01*
X202583Y171168D01*
X206015Y173985D01*
X208832Y177417D01*
X210925Y181333D01*
X212214Y185581D01*
X212524Y188730D01*
D02*
G37*
G36*
X-191270D02*
X-212524D01*
X-212214Y185581D01*
X-210925Y181333D01*
X-208832Y177417D01*
X-206015Y173985D01*
X-202583Y171168D01*
X-198667Y169075D01*
X-194419Y167786D01*
X-191270Y167476D01*
Y188730D01*
D02*
G37*
G36*
X-167476D02*
X-188730D01*
Y167476D01*
X-185581Y167786D01*
X-181333Y169075D01*
X-177417Y171168D01*
X-173985Y173985D01*
X-171168Y177417D01*
X-169075Y181333D01*
X-167786Y185581D01*
X-167476Y188730D01*
D02*
G37*
G36*
X21700Y147079D02*
X20334Y146807D01*
X19177Y146033D01*
X18403Y144876D01*
X18131Y143510D01*
X18403Y142144D01*
X19177Y140987D01*
X20334Y140213D01*
X21700Y139941D01*
X23066Y140213D01*
X24223Y140987D01*
X24997Y142144D01*
X25269Y143510D01*
X24997Y144876D01*
X24223Y146033D01*
X23066Y146807D01*
X21700Y147079D01*
D02*
G37*
G36*
X-180750Y153876D02*
X-182447Y153653D01*
X-184028Y152998D01*
X-185386Y151956D01*
X-186428Y150598D01*
X-187083Y149017D01*
X-187306Y147320D01*
X-187083Y145623D01*
X-186428Y144042D01*
X-185386Y142684D01*
X-184028Y141642D01*
X-182447Y140987D01*
X-180750Y140764D01*
X-179053Y140987D01*
X-177472Y141642D01*
X-176114Y142684D01*
X-175072Y144042D01*
X-174417Y145623D01*
X-174194Y147320D01*
X-174417Y149017D01*
X-175072Y150598D01*
X-176114Y151956D01*
X-177472Y152998D01*
X-179053Y153653D01*
X-180750Y153876D01*
D02*
G37*
G36*
X-130230Y149486D02*
X-131927Y149263D01*
X-133508Y148608D01*
X-134866Y147566D01*
X-135908Y146208D01*
X-136563Y144627D01*
X-136786Y142930D01*
X-136563Y141233D01*
X-135908Y139652D01*
X-134866Y138294D01*
X-133508Y137252D01*
X-131927Y136597D01*
X-130230Y136374D01*
X-128533Y136597D01*
X-126952Y137252D01*
X-125594Y138294D01*
X-124552Y139652D01*
X-123897Y141233D01*
X-123674Y142930D01*
X-123897Y144627D01*
X-124552Y146208D01*
X-125594Y147566D01*
X-126952Y148608D01*
X-128533Y149263D01*
X-130230Y149486D01*
D02*
G37*
G36*
X139160Y143999D02*
X137794Y143727D01*
X136637Y142953D01*
X135863Y141796D01*
X135591Y140430D01*
X135863Y139064D01*
X136637Y137907D01*
X137794Y137133D01*
X139160Y136861D01*
X140526Y137133D01*
X141683Y137907D01*
X142457Y139064D01*
X142729Y140430D01*
X142457Y141796D01*
X141683Y142953D01*
X140526Y143727D01*
X139160Y143999D01*
D02*
G37*
G36*
X217170Y148349D02*
X215804Y148077D01*
X214647Y147303D01*
X213873Y146146D01*
X213601Y144780D01*
X213873Y143414D01*
X214647Y142257D01*
X215804Y141483D01*
X217170Y141211D01*
X218536Y141483D01*
X219693Y142257D01*
X220467Y143414D01*
X220739Y144780D01*
X220467Y146146D01*
X219693Y147303D01*
X218536Y148077D01*
X217170Y148349D01*
D02*
G37*
G36*
X80870Y150479D02*
X79504Y150207D01*
X78347Y149433D01*
X77573Y148276D01*
X77301Y146910D01*
X77573Y145544D01*
X78347Y144387D01*
X79504Y143613D01*
X80870Y143341D01*
X82236Y143613D01*
X83393Y144387D01*
X84167Y145544D01*
X84439Y146910D01*
X84167Y148276D01*
X83393Y149433D01*
X82236Y150207D01*
X80870Y150479D01*
D02*
G37*
G36*
X54870Y150889D02*
X53504Y150617D01*
X52347Y149843D01*
X51573Y148686D01*
X51301Y147320D01*
X51573Y145954D01*
X52347Y144797D01*
X53504Y144023D01*
X54870Y143751D01*
X56236Y144023D01*
X57393Y144797D01*
X58167Y145954D01*
X58439Y147320D01*
X58167Y148686D01*
X57393Y149843D01*
X56236Y150617D01*
X54870Y150889D01*
D02*
G37*
G36*
X230430Y149059D02*
X229064Y148787D01*
X227907Y148013D01*
X227133Y146856D01*
X226861Y145490D01*
X227133Y144124D01*
X227907Y142967D01*
X229064Y142193D01*
X230430Y141921D01*
X231796Y142193D01*
X232953Y142967D01*
X233727Y144124D01*
X233999Y145490D01*
X233727Y146856D01*
X232953Y148013D01*
X231796Y148787D01*
X230430Y149059D01*
D02*
G37*
G36*
X243430D02*
X242064Y148787D01*
X240907Y148013D01*
X240133Y146856D01*
X239861Y145490D01*
X240133Y144124D01*
X240907Y142967D01*
X242064Y142193D01*
X243430Y141921D01*
X244796Y142193D01*
X245953Y142967D01*
X246727Y144124D01*
X246999Y145490D01*
X246727Y146856D01*
X245953Y148013D01*
X244796Y148787D01*
X243430Y149059D01*
D02*
G37*
G36*
X-64160Y216929D02*
X-65526Y216657D01*
X-66683Y215883D01*
X-67457Y214726D01*
X-67729Y213360D01*
X-67457Y211994D01*
X-66683Y210837D01*
X-65526Y210063D01*
X-64160Y209791D01*
X-62794Y210063D01*
X-61637Y210837D01*
X-60863Y211994D01*
X-60591Y213360D01*
X-60863Y214726D01*
X-61637Y215883D01*
X-62794Y216657D01*
X-64160Y216929D01*
D02*
G37*
G36*
X-104140Y225819D02*
X-105506Y225547D01*
X-106663Y224773D01*
X-107437Y223616D01*
X-107709Y222250D01*
X-107437Y220884D01*
X-106663Y219727D01*
X-105506Y218953D01*
X-104140Y218681D01*
X-102774Y218953D01*
X-101617Y219727D01*
X-100843Y220884D01*
X-100571Y222250D01*
X-100843Y223616D01*
X-101617Y224773D01*
X-102774Y225547D01*
X-104140Y225819D01*
D02*
G37*
G36*
X50900Y215759D02*
X49534Y215487D01*
X48377Y214713D01*
X47603Y213556D01*
X47331Y212190D01*
X47603Y210824D01*
X48377Y209667D01*
X49534Y208893D01*
X50900Y208621D01*
X52266Y208893D01*
X53423Y209667D01*
X54197Y210824D01*
X54469Y212190D01*
X54197Y213556D01*
X53423Y214713D01*
X52266Y215487D01*
X50900Y215759D01*
D02*
G37*
G36*
X63600D02*
X62234Y215487D01*
X61077Y214713D01*
X60303Y213556D01*
X60031Y212190D01*
X60303Y210824D01*
X61077Y209667D01*
X62234Y208893D01*
X63600Y208621D01*
X64966Y208893D01*
X66123Y209667D01*
X66897Y210824D01*
X67169Y212190D01*
X66897Y213556D01*
X66123Y214713D01*
X64966Y215487D01*
X63600Y215759D01*
D02*
G37*
G36*
X-8890Y233439D02*
X-10256Y233167D01*
X-11413Y232393D01*
X-12187Y231236D01*
X-12459Y229870D01*
X-12187Y228504D01*
X-11413Y227347D01*
X-10256Y226573D01*
X-8890Y226301D01*
X-7524Y226573D01*
X-6367Y227347D01*
X-5593Y228504D01*
X-5321Y229870D01*
X-5593Y231236D01*
X-6367Y232393D01*
X-7524Y233167D01*
X-8890Y233439D01*
D02*
G37*
G36*
X-110490Y268999D02*
X-111856Y268727D01*
X-113013Y267953D01*
X-113787Y266796D01*
X-114059Y265430D01*
X-113787Y264064D01*
X-113013Y262907D01*
X-111856Y262133D01*
X-110490Y261861D01*
X-109124Y262133D01*
X-107967Y262907D01*
X-107193Y264064D01*
X-106921Y265430D01*
X-107193Y266796D01*
X-107967Y267953D01*
X-109124Y268727D01*
X-110490Y268999D01*
D02*
G37*
G36*
X81280Y299557D02*
Y273302D01*
X107535D01*
X107295Y276354D01*
X106283Y280569D01*
X104624Y284574D01*
X102359Y288270D01*
X99544Y291566D01*
X96248Y294381D01*
X92552Y296646D01*
X88547Y298305D01*
X84332Y299317D01*
X81280Y299557D01*
D02*
G37*
G36*
X107535Y270762D02*
X81280D01*
Y244507D01*
X84332Y244747D01*
X88547Y245759D01*
X92552Y247418D01*
X96248Y249683D01*
X99544Y252498D01*
X102359Y255795D01*
X104624Y259491D01*
X106283Y263496D01*
X107295Y267711D01*
X107535Y270762D01*
D02*
G37*
G36*
X-121230Y268999D02*
X-122596Y268727D01*
X-123753Y267953D01*
X-124527Y266796D01*
X-124799Y265430D01*
X-124527Y264064D01*
X-123753Y262907D01*
X-122596Y262133D01*
X-121230Y261861D01*
X-119864Y262133D01*
X-118707Y262907D01*
X-117933Y264064D01*
X-117661Y265430D01*
X-117933Y266796D01*
X-118707Y267953D01*
X-119864Y268727D01*
X-121230Y268999D01*
D02*
G37*
G36*
X-29960Y197879D02*
X-31326Y197607D01*
X-32483Y196833D01*
X-33257Y195676D01*
X-33529Y194310D01*
X-33257Y192944D01*
X-32483Y191787D01*
X-31326Y191013D01*
X-29960Y190741D01*
X-28594Y191013D01*
X-27437Y191787D01*
X-26663Y192944D01*
X-26391Y194310D01*
X-26663Y195676D01*
X-27437Y196833D01*
X-28594Y197607D01*
X-29960Y197879D01*
D02*
G37*
G36*
X-191270Y212524D02*
X-194419Y212214D01*
X-198667Y210925D01*
X-202583Y208832D01*
X-206015Y206015D01*
X-208832Y202583D01*
X-210925Y198667D01*
X-212214Y194419D01*
X-212524Y191270D01*
X-191270D01*
Y212524D01*
D02*
G37*
G36*
X89000Y186549D02*
X87634Y186277D01*
X86477Y185503D01*
X85703Y184346D01*
X85431Y182980D01*
X85703Y181614D01*
X86477Y180457D01*
X87634Y179683D01*
X89000Y179411D01*
X90366Y179683D01*
X91523Y180457D01*
X92297Y181614D01*
X92569Y182980D01*
X92297Y184346D01*
X91523Y185503D01*
X90366Y186277D01*
X89000Y186549D01*
D02*
G37*
G36*
X5770Y186822D02*
X4404Y186551D01*
X3247Y185777D01*
X2473Y184619D01*
X2201Y183254D01*
X2473Y181888D01*
X3247Y180730D01*
X4404Y179957D01*
X5770Y179685D01*
X7136Y179957D01*
X8293Y180730D01*
X9067Y181888D01*
X9339Y183254D01*
X9067Y184619D01*
X8293Y185777D01*
X7136Y186551D01*
X5770Y186822D01*
D02*
G37*
G36*
X-188730Y212524D02*
Y191270D01*
X-167476D01*
X-167786Y194419D01*
X-169075Y198667D01*
X-171168Y202583D01*
X-173985Y206015D01*
X-177417Y208832D01*
X-181333Y210925D01*
X-185581Y212214D01*
X-188730Y212524D01*
D02*
G37*
G36*
X-1270Y213566D02*
X-2967Y213343D01*
X-4548Y212688D01*
X-5906Y211646D01*
X-6948Y210288D01*
X-7603Y208707D01*
X-7826Y207010D01*
X-7603Y205313D01*
X-6948Y203732D01*
X-5906Y202374D01*
X-4548Y201332D01*
X-2967Y200677D01*
X-1270Y200454D01*
X427Y200677D01*
X2008Y201332D01*
X3366Y202374D01*
X4408Y203732D01*
X5063Y205313D01*
X5286Y207010D01*
X5063Y208707D01*
X4408Y210288D01*
X3366Y211646D01*
X2008Y212688D01*
X427Y213343D01*
X-1270Y213566D01*
D02*
G37*
G36*
X-114300Y215659D02*
X-115666Y215387D01*
X-116823Y214613D01*
X-117597Y213456D01*
X-117869Y212090D01*
X-117597Y210724D01*
X-116823Y209567D01*
X-115666Y208793D01*
X-114300Y208521D01*
X-112934Y208793D01*
X-111777Y209567D01*
X-111003Y210724D01*
X-110731Y212090D01*
X-111003Y213456D01*
X-111777Y214613D01*
X-112934Y215387D01*
X-114300Y215659D01*
D02*
G37*
G36*
X188730Y212524D02*
X185581Y212214D01*
X181333Y210925D01*
X177417Y208832D01*
X173985Y206015D01*
X171168Y202583D01*
X169075Y198667D01*
X167786Y194419D01*
X167476Y191270D01*
X188730D01*
Y212524D01*
D02*
G37*
G36*
X191270D02*
Y191270D01*
X212524D01*
X212214Y194419D01*
X210925Y198667D01*
X208832Y202583D01*
X206015Y206015D01*
X202583Y208832D01*
X198667Y210925D01*
X194419Y212214D01*
X191270Y212524D01*
D02*
G37*
G36*
X-162465Y142319D02*
X-163831Y142047D01*
X-164988Y141273D01*
X-165762Y140116D01*
X-166034Y138750D01*
X-165762Y137384D01*
X-164988Y136227D01*
X-163831Y135453D01*
X-162465Y135181D01*
X-161099Y135453D01*
X-159942Y136227D01*
X-159168Y137384D01*
X-158896Y138750D01*
X-159168Y140116D01*
X-159942Y141273D01*
X-161099Y142047D01*
X-162465Y142319D01*
D02*
G37*
G36*
X139700Y116069D02*
X138334Y115797D01*
X137177Y115023D01*
X136403Y113866D01*
X136131Y112500D01*
X136403Y111134D01*
X137177Y109977D01*
X138176Y109309D01*
X139985Y107500D01*
X139700Y106069D01*
X138334Y105797D01*
X137177Y105023D01*
X136403Y103866D01*
X136131Y102500D01*
X136403Y101134D01*
X137177Y99977D01*
X138176Y99309D01*
X143256Y94229D01*
Y91509D01*
X142083Y91022D01*
X139081Y94024D01*
X138413Y95023D01*
X137256Y95797D01*
X135890Y96069D01*
X134524Y95797D01*
X134409Y95720D01*
X133353Y96426D01*
X133567Y97500D01*
X133295Y98866D01*
X132522Y100023D01*
X131364Y100797D01*
X129999Y101069D01*
X128633Y100797D01*
X127475Y100023D01*
X126701Y98866D01*
X126430Y97500D01*
X126664Y96321D01*
Y90862D01*
X126918Y89586D01*
X127641Y88504D01*
X127641Y88504D01*
X127641Y88504D01*
X134176Y81969D01*
Y23780D01*
X134430Y22504D01*
X135153Y21423D01*
X143376Y13199D01*
Y-40950D01*
X143630Y-42226D01*
X144353Y-43307D01*
X144353Y-43307D01*
X144353Y-43308D01*
X152876Y-51831D01*
Y-58511D01*
X152641Y-59690D01*
X152913Y-61056D01*
X153687Y-62213D01*
X154844Y-62987D01*
X156210Y-63259D01*
X157576Y-62987D01*
X158733Y-62213D01*
X159507Y-61056D01*
X159779Y-59690D01*
X159544Y-58511D01*
Y-50450D01*
X159290Y-49174D01*
X158567Y-48092D01*
X158276Y-47801D01*
X158645Y-46585D01*
X158846Y-46546D01*
X160003Y-45772D01*
X160777Y-44614D01*
X161049Y-43249D01*
X160814Y-42070D01*
Y-22877D01*
X161805Y-22347D01*
X163171Y-22619D01*
X164536Y-22347D01*
X165013Y-22028D01*
X165972Y-22219D01*
X166377Y-22387D01*
X166631Y-23661D01*
X167404Y-24819D01*
X168562Y-25593D01*
X169928Y-25864D01*
X171293Y-25593D01*
X172451Y-24819D01*
X173225Y-23661D01*
X173496Y-22296D01*
X173270Y-21158D01*
X173738Y-20689D01*
X174244Y-20275D01*
X175260Y-20477D01*
X176626Y-20205D01*
X177783Y-19432D01*
X178557Y-18274D01*
X178829Y-16908D01*
X178594Y-15730D01*
Y-14360D01*
X179576Y-13554D01*
X180340Y-13706D01*
X181706Y-13435D01*
X182863Y-12661D01*
X183637Y-11503D01*
X183909Y-10138D01*
X183674Y-8959D01*
Y92042D01*
X183420Y93318D01*
X182698Y94399D01*
X173073Y104024D01*
X172405Y105023D01*
X171247Y105797D01*
X169882Y106069D01*
X168516Y105797D01*
X167358Y105023D01*
X166585Y103866D01*
X166313Y102500D01*
X166440Y101861D01*
X165542Y100963D01*
X165011Y101069D01*
X163645Y100797D01*
X162487Y100023D01*
X161819Y99024D01*
X155637Y92842D01*
X154464Y93328D01*
Y101070D01*
X154210Y102346D01*
X153488Y103427D01*
X142891Y114024D01*
X142223Y115023D01*
X141066Y115797D01*
X139700Y116069D01*
D02*
G37*
G36*
X111760Y105169D02*
X110394Y104897D01*
X109237Y104123D01*
X108463Y102966D01*
X108191Y101600D01*
X108463Y100234D01*
X109237Y99077D01*
X110394Y98303D01*
X111760Y98031D01*
X113126Y98303D01*
X114283Y99077D01*
X115057Y100234D01*
X115329Y101600D01*
X115057Y102966D01*
X114283Y104123D01*
X113126Y104897D01*
X111760Y105169D01*
D02*
G37*
G36*
X204470Y93739D02*
X203104Y93467D01*
X201947Y92693D01*
X201173Y91536D01*
X200901Y90170D01*
X201173Y88804D01*
X201947Y87647D01*
X203104Y86873D01*
X204470Y86601D01*
X205836Y86873D01*
X206993Y87647D01*
X207767Y88804D01*
X208039Y90170D01*
X207767Y91536D01*
X206993Y92693D01*
X205836Y93467D01*
X204470Y93739D01*
D02*
G37*
G36*
X99060Y96069D02*
X97694Y95797D01*
X96537Y95023D01*
X95763Y93866D01*
X95491Y92500D01*
X95763Y91134D01*
X96537Y89977D01*
X97694Y89203D01*
X99060Y88931D01*
X100426Y89203D01*
X101583Y89977D01*
X102357Y91134D01*
X102629Y92500D01*
X102357Y93866D01*
X101583Y95023D01*
X100426Y95797D01*
X99060Y96069D01*
D02*
G37*
G36*
X-45720Y105509D02*
X-47086Y105237D01*
X-48243Y104464D01*
X-49017Y103306D01*
X-49289Y101940D01*
X-49017Y100575D01*
X-48243Y99417D01*
X-47086Y98644D01*
X-45720Y98372D01*
X-44354Y98644D01*
X-43197Y99417D01*
X-42423Y100575D01*
X-42151Y101940D01*
X-42423Y103306D01*
X-43197Y104464D01*
X-44354Y105237D01*
X-45720Y105509D01*
D02*
G37*
G36*
X124150Y110249D02*
X122784Y109977D01*
X121627Y109203D01*
X120853Y108046D01*
X120581Y106680D01*
X120853Y105314D01*
X121627Y104157D01*
X122784Y103383D01*
X124150Y103111D01*
X125516Y103383D01*
X126673Y104157D01*
X127447Y105314D01*
X127719Y106680D01*
X127447Y108046D01*
X126673Y109203D01*
X125516Y109977D01*
X124150Y110249D01*
D02*
G37*
G36*
X191660Y111069D02*
X190294Y110797D01*
X189137Y110023D01*
X188363Y108866D01*
X188091Y107500D01*
X188363Y106134D01*
X189137Y104977D01*
X190294Y104203D01*
X191660Y103931D01*
X193026Y104203D01*
X194183Y104977D01*
X194957Y106134D01*
X195229Y107500D01*
X194957Y108866D01*
X194183Y110023D01*
X193026Y110797D01*
X191660Y111069D01*
D02*
G37*
G36*
X-162465Y107069D02*
X-163831Y106797D01*
X-164988Y106023D01*
X-165762Y104866D01*
X-166034Y103500D01*
X-165762Y102134D01*
X-164988Y100977D01*
X-163831Y100203D01*
X-162465Y99931D01*
X-161099Y100203D01*
X-159942Y100977D01*
X-159168Y102134D01*
X-158896Y103500D01*
X-159168Y104866D01*
X-159942Y106023D01*
X-161099Y106797D01*
X-162465Y107069D01*
D02*
G37*
G36*
X-111070Y113236D02*
X-112767Y113013D01*
X-114348Y112358D01*
X-115706Y111316D01*
X-116748Y109958D01*
X-117403Y108377D01*
X-117626Y106680D01*
X-117403Y104983D01*
X-116748Y103402D01*
X-115706Y102044D01*
X-114348Y101002D01*
X-112767Y100347D01*
X-111070Y100124D01*
X-109373Y100347D01*
X-107792Y101002D01*
X-106434Y102044D01*
X-105392Y103402D01*
X-104737Y104983D01*
X-104514Y106680D01*
X-104737Y108377D01*
X-105392Y109958D01*
X-106434Y111316D01*
X-107792Y112358D01*
X-109373Y113013D01*
X-111070Y113236D01*
D02*
G37*
G36*
X-170030Y67069D02*
X-171396Y66797D01*
X-172553Y66023D01*
X-173327Y64866D01*
X-173599Y63500D01*
X-173327Y62134D01*
X-172553Y60977D01*
X-171396Y60203D01*
X-170030Y59931D01*
X-168664Y60203D01*
X-167507Y60977D01*
X-166733Y62134D01*
X-166461Y63500D01*
X-166733Y64866D01*
X-167507Y66023D01*
X-168664Y66797D01*
X-170030Y67069D01*
D02*
G37*
G36*
X-214001Y77232D02*
X-215698Y77009D01*
X-217279Y76354D01*
X-218637Y75312D01*
X-219679Y73954D01*
X-220334Y72373D01*
X-220557Y70676D01*
X-220334Y68979D01*
X-219679Y67398D01*
X-218637Y66040D01*
X-217279Y64998D01*
X-215698Y64343D01*
X-214001Y64120D01*
X-212304Y64343D01*
X-210723Y64998D01*
X-209366Y66040D01*
X-208324Y67398D01*
X-207669Y68979D01*
X-207445Y70676D01*
X-207669Y72373D01*
X-208324Y73954D01*
X-209366Y75312D01*
X-210723Y76354D01*
X-212304Y77009D01*
X-214001Y77232D01*
D02*
G37*
G36*
X217430Y64529D02*
X216064Y64257D01*
X214907Y63483D01*
X214133Y62326D01*
X213861Y60960D01*
X214133Y59594D01*
X214907Y58437D01*
X216064Y57663D01*
X217430Y57391D01*
X218796Y57663D01*
X219953Y58437D01*
X220727Y59594D01*
X220999Y60960D01*
X220727Y62326D01*
X219953Y63483D01*
X218796Y64257D01*
X217430Y64529D01*
D02*
G37*
G36*
X35295Y57969D02*
Y57944D01*
X-41602D01*
Y57959D01*
X-44793Y57645D01*
X-47861Y56714D01*
X-50689Y55202D01*
X-51995Y54131D01*
X-52166Y54097D01*
X-53323Y53323D01*
X-54097Y52166D01*
X-54369Y50800D01*
X-54097Y49434D01*
X-53323Y48277D01*
X-52166Y47503D01*
X-50800Y47231D01*
X-49434Y47503D01*
X-48277Y48277D01*
X-47840Y48929D01*
X-46449Y49997D01*
X-44111Y50966D01*
X-41662Y51288D01*
X-41602Y51276D01*
X35295D01*
X35441Y51305D01*
X39608Y50895D01*
X43755Y49637D01*
X47578Y47593D01*
X50815Y44937D01*
X50898Y44813D01*
X117723Y-22012D01*
X117846Y-22095D01*
X120503Y-25331D01*
X122546Y-29154D01*
X123804Y-33301D01*
X124214Y-37469D01*
X124185Y-37615D01*
X124140D01*
X124579Y-44313D01*
X125888Y-50897D01*
X128046Y-57254D01*
X131015Y-63274D01*
X134745Y-68856D01*
X139166Y-73898D01*
X139166Y-73898D01*
X139203Y-73871D01*
X149834Y-84502D01*
Y-84552D01*
Y-84552D01*
X155849Y-90004D01*
X162369Y-94839D01*
X169332Y-99012D01*
X176670Y-102483D01*
X184313Y-105218D01*
X192187Y-107190D01*
X200217Y-108381D01*
X208325Y-108780D01*
Y-108744D01*
X208326Y-108744D01*
X215991D01*
X217170Y-108979D01*
X218536Y-108707D01*
X219693Y-107933D01*
X220467Y-106776D01*
X220739Y-105410D01*
X220467Y-104044D01*
X219693Y-102887D01*
X218536Y-102113D01*
X217170Y-101841D01*
X215991Y-102076D01*
X208325D01*
X208102Y-102120D01*
X199808Y-101655D01*
X191397Y-100226D01*
X183200Y-97864D01*
X175319Y-94599D01*
X167852Y-90473D01*
X160895Y-85536D01*
X154701Y-80001D01*
X154575Y-79812D01*
X143918Y-69156D01*
X143916Y-69154D01*
X143914Y-69151D01*
X143913Y-69152D01*
X143814Y-69086D01*
X140045Y-64788D01*
X136801Y-59934D01*
X134219Y-54697D01*
X132342Y-49168D01*
X131203Y-43441D01*
X130829Y-37738D01*
X130854Y-37615D01*
X130878D01*
X130524Y-33116D01*
X129471Y-28728D01*
X127744Y-24559D01*
X125386Y-20711D01*
X122455Y-17279D01*
X122437Y-17297D01*
X55613Y49528D01*
X55630Y49545D01*
X55588Y49581D01*
Y49581D01*
X55588Y49581D01*
X52199Y52476D01*
X48351Y54834D01*
X44181Y56561D01*
X39793Y57615D01*
X35295Y57969D01*
D02*
G37*
G36*
X-250286Y75959D02*
X-251651Y75687D01*
X-252809Y74913D01*
X-253583Y73756D01*
X-253854Y72390D01*
X-253583Y71024D01*
X-252809Y69867D01*
X-251651Y69093D01*
X-250286Y68821D01*
X-248920Y69093D01*
X-247762Y69867D01*
X-246989Y71024D01*
X-246717Y72390D01*
X-246989Y73756D01*
X-247762Y74913D01*
X-248920Y75687D01*
X-250286Y75959D01*
D02*
G37*
G36*
X-170030Y87069D02*
X-171396Y86797D01*
X-172553Y86023D01*
X-173327Y84866D01*
X-173599Y83500D01*
X-173327Y82134D01*
X-172553Y80977D01*
X-171396Y80203D01*
X-170030Y79931D01*
X-169437Y80049D01*
X-168539Y79151D01*
X-168669Y78500D01*
X-168397Y77134D01*
X-167623Y75977D01*
X-166466Y75203D01*
X-165100Y74931D01*
X-163734Y75203D01*
X-162577Y75977D01*
X-161803Y77134D01*
X-161531Y78500D01*
X-161803Y79866D01*
X-162577Y81023D01*
X-163734Y81797D01*
X-165100Y82069D01*
X-165693Y81951D01*
X-166591Y82849D01*
X-166461Y83500D01*
X-166733Y84866D01*
X-167507Y86023D01*
X-168664Y86797D01*
X-170030Y87069D01*
D02*
G37*
G36*
X-102529Y92809D02*
X-103895Y92537D01*
X-105053Y91764D01*
X-105826Y90606D01*
X-106098Y89241D01*
X-105826Y87875D01*
X-105053Y86717D01*
X-103895Y85944D01*
X-102529Y85672D01*
X-101164Y85944D01*
X-100006Y86717D01*
X-99233Y87875D01*
X-98961Y89241D01*
X-99233Y90606D01*
X-100006Y91764D01*
X-101164Y92537D01*
X-102529Y92809D01*
D02*
G37*
G36*
X191660Y76069D02*
X190294Y75797D01*
X189137Y75023D01*
X188363Y73866D01*
X188091Y72500D01*
X188363Y71134D01*
X189137Y69977D01*
X190294Y69203D01*
X191660Y68931D01*
X193026Y69203D01*
X194183Y69977D01*
X194957Y71134D01*
X195229Y72500D01*
X194957Y73866D01*
X194183Y75023D01*
X193026Y75797D01*
X191660Y76069D01*
D02*
G37*
G36*
X-279400Y83260D02*
X-281227Y83020D01*
X-282930Y82315D01*
X-284393Y81192D01*
X-285515Y79730D01*
X-286220Y78027D01*
X-286460Y76200D01*
X-286220Y74373D01*
X-285515Y72670D01*
X-284393Y71208D01*
X-282930Y70086D01*
X-281227Y69380D01*
X-279400Y69140D01*
X-277573Y69380D01*
X-275870Y70086D01*
X-274408Y71208D01*
X-273286Y72670D01*
X-272580Y74373D01*
X-272340Y76200D01*
X-272580Y78027D01*
X-273286Y79730D01*
X-274408Y81192D01*
X-275870Y82315D01*
X-277573Y83020D01*
X-279400Y83260D01*
D02*
G37*
G36*
X-140170Y127069D02*
X-141536Y126797D01*
X-142693Y126023D01*
X-143467Y124866D01*
X-143739Y123500D01*
X-143467Y122134D01*
X-142693Y120977D01*
X-141536Y120203D01*
X-140170Y119931D01*
X-138804Y120203D01*
X-137647Y120977D01*
X-136873Y122134D01*
X-136601Y123500D01*
X-136873Y124866D01*
X-137647Y126023D01*
X-138804Y126797D01*
X-140170Y127069D01*
D02*
G37*
G36*
X-18470Y133946D02*
X-20167Y133722D01*
X-21748Y133068D01*
X-23106Y132026D01*
X-24148Y130668D01*
X-24803Y129087D01*
X-25026Y127390D01*
X-24803Y125693D01*
X-24148Y124112D01*
X-23106Y122754D01*
X-21748Y121712D01*
X-20167Y121057D01*
X-18470Y120834D01*
X-16773Y121057D01*
X-15192Y121712D01*
X-13834Y122754D01*
X-12792Y124112D01*
X-12137Y125693D01*
X-11914Y127390D01*
X-12137Y129087D01*
X-12792Y130668D01*
X-13834Y132026D01*
X-15192Y133068D01*
X-16773Y133722D01*
X-18470Y133946D01*
D02*
G37*
G36*
X-204470Y124626D02*
X-205836Y124354D01*
X-206993Y123581D01*
X-207767Y122423D01*
X-208039Y121057D01*
X-207767Y119691D01*
X-206993Y118534D01*
X-205836Y117760D01*
X-204470Y117489D01*
X-203104Y117760D01*
X-201947Y118534D01*
X-201173Y119691D01*
X-200901Y121057D01*
X-201173Y122423D01*
X-201947Y123581D01*
X-203104Y124354D01*
X-204470Y124626D01*
D02*
G37*
G36*
X163171Y126069D02*
X161805Y125797D01*
X160647Y125023D01*
X159874Y123866D01*
X159602Y122500D01*
X159874Y121134D01*
X160647Y119977D01*
X161805Y119203D01*
X163171Y118931D01*
X164536Y119203D01*
X165694Y119977D01*
X166467Y121134D01*
X166739Y122500D01*
X166467Y123866D01*
X165694Y125023D01*
X164536Y125797D01*
X163171Y126069D01*
D02*
G37*
G36*
X119380Y128247D02*
X118014Y127976D01*
X116857Y127202D01*
X116083Y126045D01*
X115811Y124679D01*
X116083Y123313D01*
X116857Y122156D01*
X118014Y121382D01*
X119380Y121110D01*
X120746Y121382D01*
X121903Y122156D01*
X122677Y123313D01*
X122949Y124679D01*
X122677Y126045D01*
X121903Y127202D01*
X120746Y127976D01*
X119380Y128247D01*
D02*
G37*
G36*
X-170030Y137069D02*
X-171396Y136797D01*
X-172553Y136023D01*
X-173327Y134866D01*
X-173599Y133500D01*
X-173327Y132134D01*
X-172553Y130977D01*
X-171396Y130203D01*
X-170030Y129931D01*
X-168664Y130203D01*
X-167507Y130977D01*
X-166733Y132134D01*
X-166461Y133500D01*
X-166733Y134866D01*
X-167507Y136023D01*
X-168664Y136797D01*
X-170030Y137069D01*
D02*
G37*
G36*
X184150Y144986D02*
X182453Y144763D01*
X180872Y144108D01*
X179514Y143066D01*
X178472Y141708D01*
X177817Y140127D01*
X177594Y138430D01*
X177817Y136733D01*
X178472Y135152D01*
X179514Y133794D01*
X180872Y132752D01*
X182453Y132097D01*
X184150Y131874D01*
X185847Y132097D01*
X187428Y132752D01*
X188786Y133794D01*
X189828Y135152D01*
X190483Y136733D01*
X190706Y138430D01*
X190483Y140127D01*
X189828Y141708D01*
X188786Y143066D01*
X187428Y144108D01*
X185847Y144763D01*
X184150Y144986D01*
D02*
G37*
G36*
X-125730Y130909D02*
X-127096Y130637D01*
X-128253Y129864D01*
X-129027Y128706D01*
X-129299Y127340D01*
X-129027Y125975D01*
X-128253Y124817D01*
X-127096Y124044D01*
X-125730Y123772D01*
X-124364Y124044D01*
X-123207Y124817D01*
X-122433Y125975D01*
X-122161Y127340D01*
X-122433Y128706D01*
X-123207Y129864D01*
X-124364Y130637D01*
X-125730Y130909D01*
D02*
G37*
G36*
X169882Y131069D02*
X168516Y130797D01*
X167358Y130023D01*
X166585Y128866D01*
X166313Y127500D01*
X166585Y126134D01*
X167358Y124977D01*
X168516Y124203D01*
X169882Y123931D01*
X171247Y124203D01*
X172405Y124977D01*
X173179Y126134D01*
X173450Y127500D01*
X173179Y128866D01*
X172405Y130023D01*
X171247Y130797D01*
X169882Y131069D01*
D02*
G37*
G36*
X48260Y116599D02*
X46894Y116327D01*
X45737Y115553D01*
X44963Y114396D01*
X44691Y113030D01*
X44963Y111664D01*
X45737Y110507D01*
X46894Y109733D01*
X48260Y109461D01*
X49626Y109733D01*
X50783Y110507D01*
X51557Y111664D01*
X51829Y113030D01*
X51557Y114396D01*
X50783Y115553D01*
X49626Y116327D01*
X48260Y116599D01*
D02*
G37*
G36*
X35370Y116789D02*
X34004Y116517D01*
X32847Y115743D01*
X32073Y114586D01*
X31801Y113220D01*
X32073Y111854D01*
X32847Y110697D01*
X34004Y109923D01*
X35370Y109651D01*
X36736Y109923D01*
X37893Y110697D01*
X38667Y111854D01*
X38939Y113220D01*
X38667Y114586D01*
X37893Y115743D01*
X36736Y116517D01*
X35370Y116789D01*
D02*
G37*
G36*
X-140170Y117069D02*
X-141536Y116797D01*
X-142693Y116023D01*
X-143467Y114866D01*
X-143739Y113500D01*
X-143467Y112134D01*
X-142693Y110977D01*
X-141536Y110203D01*
X-140170Y109931D01*
X-138932Y110178D01*
X-138497Y109744D01*
X-138069Y109102D01*
X-138189Y108500D01*
X-137917Y107134D01*
X-137143Y105977D01*
X-135986Y105203D01*
X-134620Y104931D01*
X-133254Y105203D01*
X-132097Y105977D01*
X-131323Y107134D01*
X-131051Y108500D01*
X-131323Y109866D01*
X-132097Y111023D01*
X-133254Y111797D01*
X-134620Y112069D01*
X-135858Y111822D01*
X-136292Y112256D01*
X-136721Y112898D01*
X-136601Y113500D01*
X-136873Y114866D01*
X-137647Y116023D01*
X-138804Y116797D01*
X-140170Y117069D01*
D02*
G37*
G36*
X169882Y116069D02*
X168516Y115797D01*
X167358Y115023D01*
X166585Y113866D01*
X166313Y112500D01*
X166585Y111134D01*
X167358Y109977D01*
X168516Y109203D01*
X169882Y108931D01*
X171247Y109203D01*
X172405Y109977D01*
X173179Y111134D01*
X173450Y112500D01*
X173179Y113866D01*
X172405Y115023D01*
X171247Y115797D01*
X169882Y116069D01*
D02*
G37*
G36*
X-45720Y117869D02*
X-47086Y117597D01*
X-48243Y116823D01*
X-49017Y115666D01*
X-49289Y114300D01*
X-49017Y112934D01*
X-48243Y111777D01*
X-47086Y111003D01*
X-45720Y110731D01*
X-44354Y111003D01*
X-43197Y111777D01*
X-42423Y112934D01*
X-42151Y114300D01*
X-42423Y115666D01*
X-43197Y116823D01*
X-44354Y117597D01*
X-45720Y117869D01*
D02*
G37*
G36*
X269430Y122949D02*
X268064Y122677D01*
X266907Y121903D01*
X266133Y120746D01*
X265861Y119380D01*
X266133Y118014D01*
X266907Y116857D01*
X268064Y116083D01*
X269430Y115811D01*
X270796Y116083D01*
X271953Y116857D01*
X272727Y118014D01*
X272999Y119380D01*
X272727Y120746D01*
X271953Y121903D01*
X270796Y122677D01*
X269430Y122949D01*
D02*
G37*
G36*
X-170030Y127069D02*
X-171396Y126797D01*
X-172553Y126023D01*
X-173327Y124866D01*
X-173599Y123500D01*
X-173327Y122134D01*
X-172553Y120977D01*
X-171396Y120203D01*
X-170030Y119931D01*
X-169437Y120049D01*
X-168539Y119151D01*
X-168669Y118500D01*
X-168539Y117849D01*
X-169437Y116951D01*
X-170030Y117069D01*
X-171396Y116797D01*
X-172553Y116023D01*
X-173327Y114866D01*
X-173599Y113500D01*
X-173327Y112134D01*
X-172553Y110977D01*
X-171396Y110203D01*
X-170030Y109931D01*
X-168664Y110203D01*
X-167507Y110977D01*
X-166733Y112134D01*
X-166461Y113500D01*
X-166591Y114151D01*
X-165693Y115049D01*
X-165100Y114931D01*
X-163734Y115203D01*
X-162577Y115977D01*
X-161803Y117134D01*
X-161531Y118500D01*
X-161803Y119866D01*
X-162577Y121023D01*
X-163734Y121797D01*
X-165100Y122069D01*
X-165693Y121951D01*
X-166591Y122849D01*
X-166461Y123500D01*
X-166733Y124866D01*
X-167507Y126023D01*
X-168664Y126797D01*
X-170030Y127069D01*
D02*
G37*
G36*
X106680Y121437D02*
X105314Y121166D01*
X104157Y120392D01*
X103383Y119234D01*
X103111Y117869D01*
X103383Y116503D01*
X104157Y115345D01*
X105314Y114572D01*
X106680Y114300D01*
X108046Y114572D01*
X109203Y115345D01*
X109977Y116503D01*
X110249Y117869D01*
X109977Y119234D01*
X109203Y120392D01*
X108046Y121166D01*
X106680Y121437D01*
D02*
G37*
G36*
X41910Y122019D02*
X40544Y121747D01*
X39387Y120974D01*
X38613Y119816D01*
X38341Y118450D01*
X38613Y117085D01*
X39387Y115927D01*
X40544Y115154D01*
X41910Y114882D01*
X43276Y115154D01*
X44433Y115927D01*
X45207Y117085D01*
X45479Y118450D01*
X45207Y119816D01*
X44433Y120974D01*
X43276Y121747D01*
X41910Y122019D01*
D02*
G37*
%LPD*%
D12*
X114294Y-73671D02*
G03*
X114300Y-73677I6138J6126D01*
G01*
X111760Y-65475D02*
G03*
X104126Y-47028I-26105J0D01*
G01*
X111760Y-65475D02*
G03*
X115754Y-75131I13668J0D01*
G01*
X35357Y-13582D02*
G03*
X59690Y-23661I24333J24333D01*
G01*
X90270Y-33172D02*
G03*
X67310Y-23661I-22960J-22960D01*
G01*
X-41602Y54610D02*
G03*
X-50800Y50800I0J-13008D01*
G01*
X152217Y-82170D02*
G03*
X208325Y-105410I56108J56108D01*
G01*
X53255Y47171D02*
G03*
X35295Y54610I-17960J-17960D01*
G01*
X127520Y-37615D02*
G03*
X120080Y-19654I-25400J0D01*
G01*
X127520Y-37615D02*
G03*
X141556Y-71508I47939J0D01*
G01*
X157480Y-43249D02*
Y17917D01*
X129999Y90862D02*
Y97500D01*
X139700Y112500D02*
X151130Y101070D01*
X139700Y102500D02*
X146590Y95610D01*
X156186Y88675D02*
X165011Y97500D01*
X129999Y90862D02*
X137510Y83350D01*
X169882Y102500D02*
X180340Y92042D01*
X169882Y92500D02*
X175260Y87122D01*
X156186Y34457D02*
Y88675D01*
X151130Y30687D02*
Y101070D01*
X156186Y34457D02*
X169928Y20715D01*
X146590Y28807D02*
Y95610D01*
Y28807D02*
X157480Y17917D01*
X142050Y26073D02*
X151480Y16643D01*
X137510Y23780D02*
Y83350D01*
X135890Y92500D02*
X142050Y86340D01*
Y26073D02*
Y86340D01*
X157428Y-43249D02*
X157480D01*
X151480Y-28035D02*
Y16643D01*
X137510Y23780D02*
X146710Y14580D01*
Y-40950D02*
Y14580D01*
Y-40950D02*
X156210Y-50450D01*
Y-59690D02*
Y-50450D01*
X208325Y-105410D02*
X217170D01*
X115763Y-75140D02*
X143510Y-102887D01*
X-7930Y29704D02*
Y30120D01*
Y29704D02*
X35357Y-13582D01*
X90270Y-33172D02*
X104114Y-47016D01*
X59690Y-23661D02*
X67310D01*
X180340Y-10138D02*
Y92042D01*
X53255Y47171D02*
X120080Y-19654D01*
X-41602Y54610D02*
X35295D01*
X141560Y-71513D02*
X152217Y-82170D01*
X169928Y-22296D02*
Y20715D01*
X175260Y-16908D02*
Y87122D01*
X151130Y30687D02*
X163171Y18647D01*
Y-19050D02*
Y18647D01*
X-317490Y-40000D02*
G03*
X-40193Y-317466I317490J40000D01*
G01*
X317466Y40193D02*
G03*
X51000Y315910I-317466J-40193D01*
G01*
X40628Y-317410D02*
G03*
X317466Y-40193I-40628J317410D01*
G01*
X-50800Y315942D02*
G03*
X-317489Y40010I50800J-315942D01*
G01*
X250000Y-40000D02*
Y40000D01*
X317466D01*
X50800Y250000D02*
Y315910D01*
X-50800Y250000D02*
X50800D01*
X-317409Y40000D02*
X-250000D01*
Y-40000D02*
Y40000D01*
X-40000Y-317466D02*
Y-250000D01*
X40000D01*
Y-317410D02*
Y-250000D01*
X250000Y-40000D02*
X317466D01*
X-317500D02*
X-250000D01*
X-50800Y250000D02*
Y315949D01*
D46*
X80010Y272032D02*
D03*
D47*
X-190000Y190000D02*
D03*
X190000D02*
D03*
Y-190000D02*
D03*
X-190000D02*
D03*
D49*
X-149147Y-50800D02*
D03*
X-102870Y-107950D02*
D03*
X-241300Y-158750D02*
D03*
X-221547Y-114300D02*
D03*
X-85090Y-156210D02*
D03*
X219729Y-23076D02*
D03*
X191270Y-16510D02*
D03*
X23188Y46164D02*
D03*
X-34290Y-173985D02*
D03*
X-100149Y-172720D02*
D03*
X35560Y-4051D02*
D03*
X107421Y-19050D02*
D03*
X71272Y-2540D02*
D03*
X-9296Y88900D02*
D03*
X23188Y69093D02*
D03*
Y110976D02*
D03*
X-133926Y35560D02*
D03*
Y54078D02*
D03*
X-182130Y-63500D02*
D03*
Y-25400D02*
D03*
X-203200D02*
D03*
X-12700Y19050D02*
D03*
Y6344D02*
D03*
X-25378D02*
D03*
X-38100D02*
D03*
X-76200Y-12661D02*
D03*
X-50908Y-12700D02*
D03*
X-63500Y-12790D02*
D03*
X-284480Y-46990D02*
D03*
X-300990Y-56972D02*
D03*
X-292675Y-88900D02*
D03*
X-286023Y-106680D02*
D03*
X-275991Y-132167D02*
D03*
X-260350Y-160020D02*
D03*
X-247224Y-175260D02*
D03*
X-234950Y-191787D02*
D03*
X-218440Y86094D02*
D03*
X-300990Y50977D02*
D03*
X-290830Y89937D02*
D03*
X-234950Y155067D02*
D03*
X-253602Y133500D02*
D03*
X-131286Y273050D02*
D03*
X-63871Y262890D02*
D03*
X-60591Y298450D02*
D03*
X59690Y298954D02*
D03*
X137160Y272032D02*
D03*
X154281Y262485D02*
D03*
X170180Y252186D02*
D03*
X188349Y240030D02*
D03*
X202967Y227330D02*
D03*
X217170Y214230D02*
D03*
X229870Y200454D02*
D03*
X242498Y185420D02*
D03*
X254000Y167640D02*
D03*
X263747Y153210D02*
D03*
X280670Y114983D02*
D03*
X290830Y89241D02*
D03*
X295860Y70479D02*
D03*
X278130Y54176D02*
D03*
X296707Y-72390D02*
D03*
X210451Y-220980D02*
D03*
X224790Y-206015D02*
D03*
X239445Y-190000D02*
D03*
X254000Y-171168D02*
D03*
X266700Y-152400D02*
D03*
X209550Y-126830D02*
D03*
X201930Y-133350D02*
D03*
X168910Y-137567D02*
D03*
X152400D02*
D03*
X206601Y-56888D02*
D03*
X177800D02*
D03*
X241300Y-44963D02*
D03*
X229532Y-38100D02*
D03*
X217434Y3620D02*
D03*
X217307Y12700D02*
D03*
X120747Y-6350D02*
D03*
X131419Y54247D02*
D03*
X152520Y143510D02*
D03*
X166423Y148850D02*
D03*
X44146Y222250D02*
D03*
X44433Y234950D02*
D03*
X6350Y221637D02*
D03*
Y234950D02*
D03*
X-167640Y168143D02*
D03*
X-124666Y103500D02*
D03*
X-133350Y118641D02*
D03*
X-163671Y96520D02*
D03*
Y70676D02*
D03*
X-200534Y25858D02*
D03*
X-254000Y89000D02*
D03*
X-238760Y68999D02*
D03*
X-241300Y95250D02*
D03*
X-260350Y114300D02*
D03*
X-262890Y152400D02*
D03*
X-214538Y217170D02*
D03*
X-200534Y229832D02*
D03*
X37040Y-107950D02*
D03*
X-22311Y-41910D02*
D03*
X-52730Y-107950D02*
D03*
X-122816Y-129540D02*
D03*
X-113202Y-137884D02*
D03*
X-79161Y-38133D02*
D03*
X-88900D02*
D03*
X-79650Y-50678D02*
D03*
X120728Y-228600D02*
D03*
X120431Y-247650D02*
D03*
X133295Y-228600D02*
D03*
X133350Y-152827D02*
D03*
Y-171530D02*
D03*
X50604Y-292100D02*
D03*
X88900D02*
D03*
X110490Y-269240D02*
D03*
Y-257810D02*
D03*
X-133216Y-146024D02*
D03*
X-138145Y-203200D02*
D03*
X-154940Y-101590D02*
D03*
X-215900Y-134620D02*
D03*
X-243980Y-109220D02*
D03*
Y-97790D02*
D03*
X-197205Y-101600D02*
D03*
X-196884Y-88800D02*
D03*
X-209180Y-88900D02*
D03*
X-196884Y-63500D02*
D03*
X-132685Y-211140D02*
D03*
X-162962Y-195083D02*
D03*
X-219557Y-209550D02*
D03*
X-205740Y-224854D02*
D03*
X-82546Y-285750D02*
D03*
X-107950Y-260350D02*
D03*
X-120945Y-273050D02*
D03*
X-108094D02*
D03*
X-95292D02*
D03*
X-50629Y-279400D02*
D03*
X-45720Y-302136D02*
D03*
X-95292Y-285989D02*
D03*
X-82353Y-298450D02*
D03*
X-82550Y-273050D02*
D03*
X-107950Y-285750D02*
D03*
X-152340Y-266700D02*
D03*
X-133216Y-247650D02*
D03*
X-133460Y-260350D02*
D03*
X-99622Y-152364D02*
D03*
X-41276Y-232710D02*
D03*
Y-206710D02*
D03*
X17600Y-114300D02*
D03*
X35370Y-123531D02*
D03*
X21590Y-182880D02*
D03*
Y-172720D02*
D03*
X-182310Y10160D02*
D03*
X163741Y107500D02*
D03*
X243840Y-166370D02*
D03*
X239445Y-177417D02*
D03*
X120650Y241693D02*
D03*
X219235Y186067D02*
D03*
X-120684Y-260350D02*
D03*
X300990Y50023D02*
D03*
X-250724Y170180D02*
D03*
X-228700Y201930D02*
D03*
X-222250Y-25400D02*
D03*
X158733Y-260350D02*
D03*
X120550Y279400D02*
D03*
X165011Y209534D02*
D03*
X281940Y81280D02*
D03*
X-160060Y206015D02*
D03*
X178053Y-247650D02*
D03*
X-134080Y-195083D02*
D03*
X-209550Y-76050D02*
D03*
X120853Y260350D02*
D03*
X-198120Y6350D02*
D03*
X-297180Y71208D02*
D03*
X-228617Y-158750D02*
D03*
X-222250Y-76190D02*
D03*
X-97790Y285750D02*
D03*
X-153670Y262890D02*
D03*
X169882Y102500D02*
D03*
X129999Y97500D02*
D03*
X139700Y102500D02*
D03*
X135890Y92500D02*
D03*
X139700Y112500D02*
D03*
X2500Y-194310D02*
D03*
X-50800Y-266700D02*
D03*
X133295Y-133359D02*
D03*
X133350Y-190741D02*
D03*
X133375Y-209550D02*
D03*
X209550Y-114300D02*
D03*
X-15240Y-127000D02*
D03*
X-76182Y6344D02*
D03*
X-88900Y-50678D02*
D03*
X-54610Y88900D02*
D03*
X7136Y80010D02*
D03*
X12270Y126071D02*
D03*
X32737Y193040D02*
D03*
X52447Y-107950D02*
D03*
X72140Y-54610D02*
D03*
X-231140Y0D02*
D03*
X-80010Y-175260D02*
D03*
X-134265Y-160020D02*
D03*
X-182310Y-101608D02*
D03*
X-209550Y-63500D02*
D03*
X-222250D02*
D03*
X-260350Y-46990D02*
D03*
X-147006Y4534D02*
D03*
X-164456Y44293D02*
D03*
X-273286Y135890D02*
D03*
X-173985Y-251274D02*
D03*
X95763Y-49530D02*
D03*
X169882Y92500D02*
D03*
X165011Y97500D02*
D03*
X126855Y64770D02*
D03*
X121560Y53340D02*
D03*
X143510Y154004D02*
D03*
X62230Y109931D02*
D03*
X77470Y109733D02*
D03*
Y98877D02*
D03*
X62234D02*
D03*
X-10740Y-141542D02*
D03*
X-1270Y-127000D02*
D03*
X302249Y-49530D02*
D03*
X-1270Y-114300D02*
D03*
X63500Y-292100D02*
D03*
X245110Y-64770D02*
D03*
X143510Y-102887D02*
D03*
X217170Y-105410D02*
D03*
X157480Y-43249D02*
D03*
X175260Y-16908D02*
D03*
X169928Y-22296D02*
D03*
X151480Y-28035D02*
D03*
X156210Y-59690D02*
D03*
X-50800Y50800D02*
D03*
X-7930Y30120D02*
D03*
X76200Y-292376D02*
D03*
X133295Y-247650D02*
D03*
X195611Y-234950D02*
D03*
X225200Y109931D02*
D03*
X224790Y97500D02*
D03*
X240665D02*
D03*
Y109651D02*
D03*
X-310Y-49950D02*
D03*
X-1167Y-78740D02*
D03*
X114096Y-133150D02*
D03*
X180340Y-10138D02*
D03*
X163171Y-19050D02*
D03*
X-133350Y-273050D02*
D03*
X-50800Y-254000D02*
D03*
X-155130Y146807D02*
D03*
X-63500Y6344D02*
D03*
X-50724D02*
D03*
X-99622Y20320D02*
D03*
M02*
