%FSLAX44Y44*%
%MOMM*%
G71*
G01*
G75*
%ADD10C,0.6000*%
%ADD11C,0.8000*%
%ADD12C,0.2540*%
%ADD13R,0.5000X0.6000*%
%ADD14R,0.6000X0.5000*%
%ADD15R,1.0160X0.8890*%
%ADD16R,0.8890X1.0160*%
%ADD17R,1.3970X1.3970*%
G04:AMPARAMS|DCode=18|XSize=0.32mm|YSize=1.7mm|CornerRadius=0.08mm|HoleSize=0mm|Usage=FLASHONLY|Rotation=0.000|XOffset=0mm|YOffset=0mm|HoleType=Round|Shape=RoundedRectangle|*
%AMROUNDEDRECTD18*
21,1,0.3200,1.5400,0,0,0.0*
21,1,0.1600,1.7000,0,0,0.0*
1,1,0.1600,0.0800,-0.7700*
1,1,0.1600,-0.0800,-0.7700*
1,1,0.1600,-0.0800,0.7700*
1,1,0.1600,0.0800,0.7700*
%
%ADD18ROUNDEDRECTD18*%
%ADD19R,0.5000X1.7000*%
%ADD20R,2.1000X0.8000*%
%ADD21R,3.0000X2.1000*%
%ADD22R,1.6000X1.0000*%
%ADD23R,3.2800X2.4000*%
%ADD24O,0.3500X2.0000*%
%ADD25R,1.5200X0.7600*%
%ADD26R,0.8000X2.1000*%
%ADD27R,2.1000X3.0000*%
%ADD28R,2.0320X0.6096*%
%ADD29O,2.0320X0.6096*%
G04:AMPARAMS|DCode=30|XSize=2mm|YSize=2mm|CornerRadius=0mm|HoleSize=0mm|Usage=FLASHONLY|Rotation=0.000|XOffset=0mm|YOffset=0mm|HoleType=Round|Shape=RoundedRectangle|*
%AMROUNDEDRECTD30*
21,1,2.0000,2.0000,0,0,0.0*
21,1,2.0000,2.0000,0,0,0.0*
1,1,0.0000,1.0000,-1.0000*
1,1,0.0000,-1.0000,-1.0000*
1,1,0.0000,-1.0000,1.0000*
1,1,0.0000,1.0000,1.0000*
%
%ADD30ROUNDEDRECTD30*%
%ADD31R,1.8000X1.2000*%
%ADD32R,1.0668X0.8128*%
%ADD33R,0.4000X1.7000*%
G04:AMPARAMS|DCode=34|XSize=0.4mm|YSize=1.7mm|CornerRadius=0.1mm|HoleSize=0mm|Usage=FLASHONLY|Rotation=0.000|XOffset=0mm|YOffset=0mm|HoleType=Round|Shape=RoundedRectangle|*
%AMROUNDEDRECTD34*
21,1,0.4000,1.5000,0,0,0.0*
21,1,0.2000,1.7000,0,0,0.0*
1,1,0.2000,0.1000,-0.7500*
1,1,0.2000,-0.1000,-0.7500*
1,1,0.2000,-0.1000,0.7500*
1,1,0.2000,0.1000,0.7500*
%
%ADD34ROUNDEDRECTD34*%
%ADD35R,0.8128X1.0668*%
%ADD36R,1.3970X1.3970*%
%ADD37R,1.6000X1.2000*%
%ADD38R,1.2954X1.6002*%
%ADD39R,1.6002X1.2954*%
%ADD40R,0.8128X0.8128*%
%ADD41R,6.3000X2.1500*%
%ADD42C,1.0000*%
%ADD43C,0.4000*%
%ADD44C,0.3000*%
%ADD45C,0.5000*%
%ADD46C,5.0000*%
G04:AMPARAMS|DCode=47|XSize=4mm|YSize=4mm|CornerRadius=2mm|HoleSize=0mm|Usage=FLASHONLY|Rotation=0.000|XOffset=0mm|YOffset=0mm|HoleType=Round|Shape=RoundedRectangle|*
%AMROUNDEDRECTD47*
21,1,4.0000,0.0000,0,0,0.0*
21,1,0.0000,4.0000,0,0,0.0*
1,1,4.0000,0.0000,0.0000*
1,1,4.0000,0.0000,0.0000*
1,1,4.0000,0.0000,0.0000*
1,1,4.0000,0.0000,0.0000*
%
%ADD47ROUNDEDRECTD47*%
%ADD48C,1.0000*%
%ADD49C,0.5000*%
%ADD50R,0.3050X0.6000*%
%ADD51R,0.5500X0.3050*%
%ADD52R,0.5500X0.3048*%
G04:AMPARAMS|DCode=53|XSize=3mm|YSize=2.1mm|CornerRadius=0mm|HoleSize=0mm|Usage=FLASHONLY|Rotation=330.000|XOffset=0mm|YOffset=0mm|HoleType=Round|Shape=Rectangle|*
%AMROTATEDRECTD53*
4,1,4,-1.8240,-0.1593,-0.7740,1.6593,1.8240,0.1593,0.7740,-1.6593,-1.8240,-0.1593,0.0*
%
%ADD53ROTATEDRECTD53*%

G04:AMPARAMS|DCode=54|XSize=2.1mm|YSize=0.8mm|CornerRadius=0mm|HoleSize=0mm|Usage=FLASHONLY|Rotation=330.000|XOffset=0mm|YOffset=0mm|HoleType=Round|Shape=Rectangle|*
%AMROTATEDRECTD54*
4,1,4,-1.1093,0.1786,-0.7093,0.8714,1.1093,-0.1786,0.7093,-0.8714,-1.1093,0.1786,0.0*
%
%ADD54ROTATEDRECTD54*%

G04:AMPARAMS|DCode=55|XSize=2.1mm|YSize=0.8mm|CornerRadius=0mm|HoleSize=0mm|Usage=FLASHONLY|Rotation=65.000|XOffset=0mm|YOffset=0mm|HoleType=Round|Shape=Rectangle|*
%AMROTATEDRECTD55*
4,1,4,-0.0812,-1.1207,-0.8063,-0.7826,0.0812,1.1207,0.8063,0.7826,-0.0812,-1.1207,0.0*
%
%ADD55ROTATEDRECTD55*%

G04:AMPARAMS|DCode=56|XSize=3mm|YSize=2.1mm|CornerRadius=0mm|HoleSize=0mm|Usage=FLASHONLY|Rotation=65.000|XOffset=0mm|YOffset=0mm|HoleType=Round|Shape=Rectangle|*
%AMROTATEDRECTD56*
4,1,4,0.3177,-1.8032,-1.5856,-0.9157,-0.3177,1.8032,1.5856,0.9157,0.3177,-1.8032,0.0*
%
%ADD56ROTATEDRECTD56*%

%ADD57R,1.3500X0.3000*%
%ADD58R,1.3500X0.2500*%
%ADD59R,0.6000X0.7000*%
G04:AMPARAMS|DCode=60|XSize=2.1mm|YSize=0.8mm|CornerRadius=0mm|HoleSize=0mm|Usage=FLASHONLY|Rotation=295.000|XOffset=0mm|YOffset=0mm|HoleType=Round|Shape=Rectangle|*
%AMROTATEDRECTD60*
4,1,4,-0.8063,0.7826,-0.0812,1.1207,0.8063,-0.7826,0.0812,-1.1207,-0.8063,0.7826,0.0*
%
%ADD60ROTATEDRECTD60*%

G04:AMPARAMS|DCode=61|XSize=3mm|YSize=2.1mm|CornerRadius=0mm|HoleSize=0mm|Usage=FLASHONLY|Rotation=295.000|XOffset=0mm|YOffset=0mm|HoleType=Round|Shape=Rectangle|*
%AMROTATEDRECTD61*
4,1,4,-1.5856,0.9157,0.3177,1.8032,1.5856,-0.9157,-0.3177,-1.8032,-1.5856,0.9157,0.0*
%
%ADD61ROTATEDRECTD61*%

%ADD62R,0.8128X0.8128*%
D13*
X-126866Y-45244D02*
D03*
X-117866D02*
D03*
X-120070Y140970D02*
D03*
X-111070D02*
D03*
Y127340D02*
D03*
X-120070D02*
D03*
X-70540Y-132027D02*
D03*
X-61540D02*
D03*
X-70885Y-119380D02*
D03*
X-61885D02*
D03*
X-10740Y-176530D02*
D03*
X-19740D02*
D03*
X-91440Y-144780D02*
D03*
X-82440D02*
D03*
X174680Y-31750D02*
D03*
X165680D02*
D03*
X-174100Y147320D02*
D03*
X-165100D02*
D03*
X-120070Y275590D02*
D03*
X-111070D02*
D03*
X121230Y148590D02*
D03*
X130230D02*
D03*
X121230Y161290D02*
D03*
X130230D02*
D03*
X41220Y158750D02*
D03*
X50220D02*
D03*
X202510Y28866D02*
D03*
X211510D02*
D03*
X25330Y96520D02*
D03*
X16330D02*
D03*
X174760Y144780D02*
D03*
X183760D02*
D03*
X37370Y-161630D02*
D03*
X46370D02*
D03*
X-61540Y-144780D02*
D03*
X-70540D02*
D03*
X-61461Y-161630D02*
D03*
X-70461D02*
D03*
X-580Y114300D02*
D03*
X-9580D02*
D03*
X-580Y101940D02*
D03*
X-9580D02*
D03*
X580Y-176530D02*
D03*
X9580D02*
D03*
X-580Y127340D02*
D03*
X-9580D02*
D03*
X128850Y-117420D02*
D03*
X137850D02*
D03*
Y-102870D02*
D03*
X128850D02*
D03*
D14*
X-112613Y-126420D02*
D03*
Y-117420D02*
D03*
X-68530Y-174570D02*
D03*
Y-183570D02*
D03*
X-173990Y45642D02*
D03*
Y54642D02*
D03*
X-105826Y-9470D02*
D03*
Y-18470D02*
D03*
X-257160Y52650D02*
D03*
Y61650D02*
D03*
Y81500D02*
D03*
Y72500D02*
D03*
X-57730Y174570D02*
D03*
Y183570D02*
D03*
X279400Y93000D02*
D03*
Y102000D02*
D03*
X242570Y175950D02*
D03*
Y166950D02*
D03*
X204470Y-7375D02*
D03*
Y-16375D02*
D03*
X-111070Y89480D02*
D03*
Y98480D02*
D03*
X210930Y50220D02*
D03*
Y41220D02*
D03*
X-169075Y25900D02*
D03*
Y16900D02*
D03*
X35560Y51414D02*
D03*
Y42414D02*
D03*
X48260Y51490D02*
D03*
Y42490D02*
D03*
X61370Y52415D02*
D03*
Y43415D02*
D03*
X285750Y-81860D02*
D03*
Y-90860D02*
D03*
X162560Y-117420D02*
D03*
Y-126420D02*
D03*
X149860D02*
D03*
Y-117420D02*
D03*
X285750Y-60270D02*
D03*
Y-69270D02*
D03*
X223520Y-171340D02*
D03*
Y-180340D02*
D03*
Y50220D02*
D03*
Y41220D02*
D03*
D15*
X-112744Y-249301D02*
D03*
Y-233299D02*
D03*
D16*
X-144143Y-250000D02*
D03*
X-160145D02*
D03*
X-193421Y-225843D02*
D03*
X-177419D02*
D03*
X93921Y47915D02*
D03*
X109923D02*
D03*
D17*
X-158580Y-228046D02*
D03*
X-136990D02*
D03*
D18*
X-122730Y-93310D02*
D03*
X-112730D02*
D03*
X-102730D02*
D03*
X-92730D02*
D03*
X-82730D02*
D03*
X-72730D02*
D03*
X-62730D02*
D03*
X-52730D02*
D03*
X-117730Y-67310D02*
D03*
X-107730D02*
D03*
X-97730D02*
D03*
X-87730D02*
D03*
X-77730D02*
D03*
X-67730D02*
D03*
X-57730D02*
D03*
X-47730D02*
D03*
X12270D02*
D03*
X2270D02*
D03*
X-7730D02*
D03*
X-17730D02*
D03*
X-27730D02*
D03*
X-37730D02*
D03*
X7270Y-93310D02*
D03*
X-2730D02*
D03*
X-12730D02*
D03*
X-22730D02*
D03*
X-32730D02*
D03*
X-42730D02*
D03*
X47270D02*
D03*
X57270D02*
D03*
X67270D02*
D03*
X52270Y-67310D02*
D03*
X62270D02*
D03*
X72270D02*
D03*
X42270D02*
D03*
X32270D02*
D03*
X22270D02*
D03*
X37270Y-93310D02*
D03*
X27270D02*
D03*
X17270D02*
D03*
D19*
X-132230Y-67310D02*
D03*
Y-93310D02*
D03*
X81770D02*
D03*
Y-67310D02*
D03*
X32000Y-232710D02*
D03*
Y-206710D02*
D03*
X-32000D02*
D03*
Y-232710D02*
D03*
D20*
X-198970Y70500D02*
D03*
X-198970Y83000D02*
D03*
X-198970Y108200D02*
D03*
X-198970Y95700D02*
D03*
X-198970Y57800D02*
D03*
X-198970Y45300D02*
D03*
D21*
X-229970Y134450D02*
D03*
X-229970Y19050D02*
D03*
D22*
X-81860Y167640D02*
D03*
Y193040D02*
D03*
X-149860Y193040D02*
D03*
Y167640D02*
D03*
D23*
X71120Y104140D02*
D03*
X233680D02*
D03*
D24*
X35370Y75140D02*
D03*
X41870D02*
D03*
X35370Y133140D02*
D03*
X41870D02*
D03*
X100370Y75140D02*
D03*
X106870D02*
D03*
X100370Y133140D02*
D03*
X106870D02*
D03*
X93870D02*
D03*
X87370D02*
D03*
X80870D02*
D03*
X74370D02*
D03*
X67870D02*
D03*
X61370D02*
D03*
X54870D02*
D03*
X48370D02*
D03*
X93870Y75140D02*
D03*
X87370D02*
D03*
X80870D02*
D03*
X74370D02*
D03*
X67870D02*
D03*
X61370D02*
D03*
X54870D02*
D03*
X48370D02*
D03*
X210930D02*
D03*
X217430D02*
D03*
X223930D02*
D03*
X230430D02*
D03*
X236930D02*
D03*
X243430D02*
D03*
X249930D02*
D03*
X256430D02*
D03*
X210930Y133140D02*
D03*
X217430D02*
D03*
X223930D02*
D03*
X230430D02*
D03*
X236930D02*
D03*
X243430D02*
D03*
X249930D02*
D03*
X256430D02*
D03*
X269430D02*
D03*
X262930D02*
D03*
X269430Y75140D02*
D03*
X262930D02*
D03*
X204430Y133140D02*
D03*
X197930D02*
D03*
X204430Y75140D02*
D03*
X197930D02*
D03*
D25*
X-255270Y-147390D02*
D03*
Y-134690D02*
D03*
Y-121990D02*
D03*
Y-83890D02*
D03*
Y-71190D02*
D03*
Y-58490D02*
D03*
X-166370Y-58350D02*
D03*
Y-71050D02*
D03*
Y-83750D02*
D03*
Y-121850D02*
D03*
Y-134550D02*
D03*
Y-147233D02*
D03*
D26*
X50900Y197860D02*
D03*
X63600D02*
D03*
X139600D02*
D03*
X126900D02*
D03*
X89000D02*
D03*
X101500D02*
D03*
X114200D02*
D03*
X76300D02*
D03*
D27*
X24850Y228860D02*
D03*
X165650D02*
D03*
D28*
X17640Y-161630D02*
D03*
X-88371Y127340D02*
D03*
X184860Y-92369D02*
D03*
D29*
X17640Y-148931D02*
D03*
Y-136230D02*
D03*
Y-123531D02*
D03*
X-38240D02*
D03*
Y-136230D02*
D03*
Y-148931D02*
D03*
Y-161630D02*
D03*
X-88371Y114641D02*
D03*
Y101940D02*
D03*
Y89241D02*
D03*
X-32490D02*
D03*
Y101940D02*
D03*
Y114641D02*
D03*
Y127340D02*
D03*
X240740Y-92369D02*
D03*
Y-105070D02*
D03*
Y-117769D02*
D03*
Y-130470D02*
D03*
X184860D02*
D03*
Y-117769D02*
D03*
Y-105070D02*
D03*
D30*
X-68594Y-205740D02*
D03*
X-112594D02*
D03*
D31*
X-64160Y224833D02*
D03*
X-64160Y250233D02*
D03*
X-154160Y250233D02*
D03*
Y224833D02*
D03*
D32*
X-44223Y163239D02*
D03*
X-21287Y172777D02*
D03*
Y153701D02*
D03*
X190500Y-31750D02*
D03*
Y-50825D02*
D03*
X213436Y-41288D02*
D03*
D33*
X-22500Y-232710D02*
D03*
D34*
X-12500D02*
D03*
X-2500D02*
D03*
X7500D02*
D03*
X17500D02*
D03*
X-17500Y-206710D02*
D03*
X-7500D02*
D03*
X2500D02*
D03*
X12500D02*
D03*
X22500D02*
D03*
D35*
X-20371Y229832D02*
D03*
X-10833Y206896D02*
D03*
X-29908D02*
D03*
X-122641Y-7506D02*
D03*
X-141717D02*
D03*
X-132179Y-30442D02*
D03*
D36*
X233810Y5715D02*
D03*
Y27305D02*
D03*
X73980Y-262065D02*
D03*
Y-240475D02*
D03*
X96922Y-262065D02*
D03*
Y-240475D02*
D03*
D37*
X-68530Y-237148D02*
D03*
Y-269147D02*
D03*
D38*
X267970Y-105410D02*
D03*
Y-80010D02*
D03*
D39*
X220452Y-151920D02*
D03*
X245852D02*
D03*
X224790Y-72390D02*
D03*
X199390D02*
D03*
D40*
X196041Y-154940D02*
D03*
X180801D02*
D03*
D41*
X86360Y-160860D02*
D03*
Y-202360D02*
D03*
D46*
X80010Y272032D02*
D03*
D47*
X-190000Y190000D02*
D03*
X190000D02*
D03*
Y-190000D02*
D03*
X-190000D02*
D03*
D48*
X-279400Y76200D02*
D03*
Y57150D02*
D03*
M02*
