%FSLAX44Y44*%
%MOMM*%
G71*
G01*
G75*
%ADD10R,1.3500X0.3000*%
%ADD11R,1.3500X0.2500*%
%ADD12R,0.5000X1.7000*%
G04:AMPARAMS|DCode=13|XSize=0.32mm|YSize=1.7mm|CornerRadius=0.08mm|HoleSize=0mm|Usage=FLASHONLY|Rotation=0.000|XOffset=0mm|YOffset=0mm|HoleType=Round|Shape=RoundedRectangle|*
%AMROUNDEDRECTD13*
21,1,0.3200,1.5400,0,0,0.0*
21,1,0.1600,1.7000,0,0,0.0*
1,1,0.1600,0.0800,-0.7700*
1,1,0.1600,-0.0800,-0.7700*
1,1,0.1600,-0.0800,0.7700*
1,1,0.1600,0.0800,0.7700*
%
%ADD13ROUNDEDRECTD13*%
G04:AMPARAMS|DCode=14|XSize=1.5mm|YSize=0.8mm|CornerRadius=0mm|HoleSize=0mm|Usage=FLASHONLY|Rotation=330.000|XOffset=0mm|YOffset=0mm|HoleType=Round|Shape=Rectangle|*
%AMROTATEDRECTD14*
4,1,4,-0.8495,0.0286,-0.4495,0.7214,0.8495,-0.0286,0.4495,-0.7214,-0.8495,0.0286,0.0*
%
%ADD14ROTATEDRECTD14*%

G04:AMPARAMS|DCode=15|XSize=1.5mm|YSize=1mm|CornerRadius=0mm|HoleSize=0mm|Usage=FLASHONLY|Rotation=240.000|XOffset=0mm|YOffset=0mm|HoleType=Round|Shape=Rectangle|*
%AMROTATEDRECTD15*
4,1,4,-0.0580,0.8995,0.8080,0.3995,0.0580,-0.8995,-0.8080,-0.3995,-0.0580,0.8995,0.0*
%
%ADD15ROTATEDRECTD15*%

G04:AMPARAMS|DCode=16|XSize=3mm|YSize=2.1mm|CornerRadius=0mm|HoleSize=0mm|Usage=FLASHONLY|Rotation=203.500|XOffset=0mm|YOffset=0mm|HoleType=Round|Shape=Rectangle|*
%AMROTATEDRECTD16*
4,1,4,0.9569,1.5610,1.7943,-0.3648,-0.9569,-1.5610,-1.7943,0.3648,0.9569,1.5610,0.0*
%
%ADD16ROTATEDRECTD16*%

G04:AMPARAMS|DCode=17|XSize=2.1mm|YSize=0.8mm|CornerRadius=0mm|HoleSize=0mm|Usage=FLASHONLY|Rotation=203.500|XOffset=0mm|YOffset=0mm|HoleType=Round|Shape=Rectangle|*
%AMROTATEDRECTD17*
4,1,4,0.8034,0.7855,1.1224,0.0519,-0.8034,-0.7855,-1.1224,-0.0519,0.8034,0.7855,0.0*
%
%ADD17ROTATEDRECTD17*%

G04:AMPARAMS|DCode=18|XSize=1.2954mm|YSize=1.1938mm|CornerRadius=0mm|HoleSize=0mm|Usage=FLASHONLY|Rotation=344.000|XOffset=0mm|YOffset=0mm|HoleType=Round|Shape=Rectangle|*
%AMROTATEDRECTD18*
4,1,4,-0.7871,-0.3952,-0.4581,0.7523,0.7871,0.3952,0.4581,-0.7523,-0.7871,-0.3952,0.0*
%
%ADD18ROTATEDRECTD18*%

G04:AMPARAMS|DCode=19|XSize=1.2954mm|YSize=1.1938mm|CornerRadius=0mm|HoleSize=0mm|Usage=FLASHONLY|Rotation=325.000|XOffset=0mm|YOffset=0mm|HoleType=Round|Shape=Rectangle|*
%AMROTATEDRECTD19*
4,1,4,-0.8729,-0.1175,-0.1882,0.8605,0.8729,0.1175,0.1882,-0.8605,-0.8729,-0.1175,0.0*
%
%ADD19ROTATEDRECTD19*%

%ADD20C,0.6000*%
%ADD21C,0.2540*%
%ADD22C,1.0000*%
%ADD23C,0.4000*%
%ADD24C,0.3000*%
G04:AMPARAMS|DCode=25|XSize=4mm|YSize=4mm|CornerRadius=2mm|HoleSize=0mm|Usage=FLASHONLY|Rotation=0.000|XOffset=0mm|YOffset=0mm|HoleType=Round|Shape=RoundedRectangle|*
%AMROUNDEDRECTD25*
21,1,4.0000,0.0000,0,0,0.0*
21,1,0.0000,4.0000,0,0,0.0*
1,1,4.0000,0.0000,0.0000*
1,1,4.0000,0.0000,0.0000*
1,1,4.0000,0.0000,0.0000*
1,1,4.0000,0.0000,0.0000*
%
%ADD25ROUNDEDRECTD25*%
%ADD26C,0.0254*%
%ADD27C,0.4500*%
G04:AMPARAMS|DCode=28|XSize=3mm|YSize=2.1mm|CornerRadius=0mm|HoleSize=0mm|Usage=FLASHONLY|Rotation=210.000|XOffset=0mm|YOffset=0mm|HoleType=Round|Shape=Rectangle|*
%AMROTATEDRECTD28*
4,1,4,0.7740,1.6593,1.8240,-0.1593,-0.7740,-1.6593,-1.8240,0.1593,0.7740,1.6593,0.0*
%
%ADD28ROTATEDRECTD28*%

G04:AMPARAMS|DCode=29|XSize=2.1mm|YSize=0.8mm|CornerRadius=0mm|HoleSize=0mm|Usage=FLASHONLY|Rotation=210.000|XOffset=0mm|YOffset=0mm|HoleType=Round|Shape=Rectangle|*
%AMROTATEDRECTD29*
4,1,4,0.7093,0.8714,1.1093,0.1786,-0.7093,-0.8714,-1.1093,-0.1786,0.7093,0.8714,0.0*
%
%ADD29ROTATEDRECTD29*%

%ADD30R,0.8890X1.0160*%
%ADD31R,2.1000X0.8000*%
%ADD32R,3.0000X2.1000*%
%ADD33R,1.0160X0.8890*%
%ADD34R,1.3970X1.3970*%
%ADD35R,0.8128X0.8128*%
%ADD36R,1.3970X1.3970*%
%ADD37R,1.2700X0.5080*%
%ADD38R,0.8128X0.8128*%
%ADD39R,2.0320X0.6096*%
%ADD40O,2.0320X0.6096*%
%ADD41R,2.0000X2.0000*%
%ADD42R,0.6096X2.0320*%
%ADD43O,0.6096X2.0320*%
%ADD44R,2.5000X2.2000*%
%ADD45R,1.2954X1.6002*%
%ADD46R,1.2000X1.6000*%
%ADD47R,1.6000X1.2000*%
%ADD48R,2.1500X6.3000*%
G04:AMPARAMS|DCode=49|XSize=1.6mm|YSize=1mm|CornerRadius=0mm|HoleSize=0mm|Usage=FLASHONLY|Rotation=24.000|XOffset=0mm|YOffset=0mm|HoleType=Round|Shape=Rectangle|*
%AMROTATEDRECTD49*
4,1,4,-0.5275,-0.7822,-0.9342,0.1314,0.5275,0.7822,0.9342,-0.1314,-0.5275,-0.7822,0.0*
%
%ADD49ROTATEDRECTD49*%

G04:AMPARAMS|DCode=50|XSize=1.8mm|YSize=1.2mm|CornerRadius=0mm|HoleSize=0mm|Usage=FLASHONLY|Rotation=153.000|XOffset=0mm|YOffset=0mm|HoleType=Round|Shape=Rectangle|*
%AMROTATEDRECTD50*
4,1,4,1.0743,0.1260,0.5295,-0.9432,-1.0743,-0.1260,-0.5295,0.9432,1.0743,0.1260,0.0*
%
%ADD50ROTATEDRECTD50*%

%ADD51R,0.8128X1.0668*%
%ADD52R,0.7000X0.6000*%
%ADD53R,3.5000X1.0000*%
%ADD54R,1.0668X0.8128*%
%ADD55C,0.8000*%
%ADD56C,0.5000*%
%ADD57C,0.1200*%
%ADD58C,0.1000*%
%ADD59C,0.1501*%
%ADD60C,0.1500*%
%ADD61C,0.1250*%
G36*
X216373Y-124400D02*
X216437D01*
X216613Y-124418D01*
X216807Y-124446D01*
X217010Y-124492D01*
X217232Y-124548D01*
X217436Y-124622D01*
X217445D01*
X217463Y-124631D01*
X217491Y-124649D01*
X217528Y-124668D01*
X217621Y-124714D01*
X217741Y-124797D01*
X217880Y-124890D01*
X218018Y-125010D01*
X218148Y-125149D01*
X218268Y-125306D01*
Y-125315D01*
X218277Y-125324D01*
X218296Y-125352D01*
X218314Y-125380D01*
X218360Y-125472D01*
X218416Y-125592D01*
X218480Y-125740D01*
X218527Y-125916D01*
X218573Y-126101D01*
X218591Y-126304D01*
X217778Y-126369D01*
Y-126360D01*
Y-126341D01*
X217769Y-126314D01*
X217759Y-126267D01*
X217732Y-126166D01*
X217695Y-126027D01*
X217639Y-125879D01*
X217556Y-125731D01*
X217454Y-125592D01*
X217325Y-125463D01*
X217306Y-125454D01*
X217260Y-125417D01*
X217168Y-125361D01*
X217047Y-125306D01*
X216890Y-125250D01*
X216705Y-125195D01*
X216474Y-125158D01*
X216215Y-125149D01*
X216086D01*
X216030Y-125158D01*
X215956Y-125167D01*
X215790Y-125186D01*
X215605Y-125223D01*
X215420Y-125269D01*
X215245Y-125343D01*
X215170Y-125389D01*
X215097Y-125435D01*
X215078Y-125445D01*
X215041Y-125482D01*
X214986Y-125546D01*
X214930Y-125620D01*
X214865Y-125722D01*
X214810Y-125833D01*
X214773Y-125962D01*
X214755Y-126110D01*
Y-126129D01*
Y-126166D01*
X214764Y-126230D01*
X214782Y-126304D01*
X214810Y-126397D01*
X214856Y-126489D01*
X214912Y-126582D01*
X214995Y-126674D01*
X215004Y-126684D01*
X215050Y-126711D01*
X215087Y-126739D01*
X215124Y-126757D01*
X215180Y-126785D01*
X215245Y-126822D01*
X215328Y-126850D01*
X215420Y-126887D01*
X215522Y-126924D01*
X215642Y-126970D01*
X215772Y-127007D01*
X215919Y-127053D01*
X216086Y-127090D01*
X216271Y-127137D01*
X216280D01*
X216317Y-127146D01*
X216373Y-127155D01*
X216437Y-127174D01*
X216520Y-127192D01*
X216622Y-127220D01*
X216724Y-127247D01*
X216835Y-127275D01*
X217075Y-127340D01*
X217306Y-127405D01*
X217417Y-127442D01*
X217519Y-127479D01*
X217611Y-127506D01*
X217685Y-127543D01*
X217695D01*
X217713Y-127553D01*
X217741Y-127571D01*
X217778Y-127590D01*
X217880Y-127645D01*
X218000Y-127719D01*
X218138Y-127821D01*
X218277Y-127932D01*
X218407Y-128061D01*
X218517Y-128200D01*
X218527Y-128218D01*
X218564Y-128265D01*
X218601Y-128348D01*
X218656Y-128459D01*
X218702Y-128588D01*
X218749Y-128745D01*
X218776Y-128921D01*
X218786Y-129106D01*
Y-129115D01*
Y-129124D01*
Y-129152D01*
Y-129189D01*
X218767Y-129291D01*
X218749Y-129420D01*
X218712Y-129568D01*
X218665Y-129725D01*
X218591Y-129892D01*
X218490Y-130067D01*
Y-130077D01*
X218480Y-130086D01*
X218434Y-130141D01*
X218370Y-130225D01*
X218277Y-130317D01*
X218157Y-130428D01*
X218009Y-130548D01*
X217843Y-130659D01*
X217648Y-130761D01*
X217639D01*
X217621Y-130770D01*
X217593Y-130779D01*
X217556Y-130798D01*
X217500Y-130816D01*
X217436Y-130844D01*
X217288Y-130881D01*
X217112Y-130927D01*
X216900Y-130974D01*
X216668Y-131001D01*
X216419Y-131011D01*
X216271D01*
X216197Y-131001D01*
X216114D01*
X216021Y-130992D01*
X215910Y-130983D01*
X215679Y-130946D01*
X215439Y-130909D01*
X215198Y-130844D01*
X214967Y-130761D01*
X214958D01*
X214939Y-130752D01*
X214912Y-130733D01*
X214875Y-130715D01*
X214764Y-130659D01*
X214634Y-130576D01*
X214486Y-130465D01*
X214329Y-130336D01*
X214181Y-130178D01*
X214043Y-130003D01*
Y-129993D01*
X214024Y-129975D01*
X214015Y-129947D01*
X213987Y-129910D01*
X213969Y-129864D01*
X213941Y-129809D01*
X213876Y-129670D01*
X213811Y-129494D01*
X213756Y-129300D01*
X213719Y-129078D01*
X213701Y-128847D01*
X214496Y-128773D01*
Y-128782D01*
Y-128792D01*
X214505Y-128819D01*
Y-128856D01*
X214523Y-128939D01*
X214551Y-129060D01*
X214588Y-129180D01*
X214625Y-129319D01*
X214690Y-129448D01*
X214755Y-129568D01*
X214764Y-129577D01*
X214792Y-129614D01*
X214838Y-129679D01*
X214912Y-129744D01*
X215004Y-129827D01*
X215106Y-129910D01*
X215245Y-129993D01*
X215392Y-130067D01*
X215402D01*
X215411Y-130077D01*
X215439Y-130086D01*
X215466Y-130095D01*
X215559Y-130123D01*
X215679Y-130160D01*
X215827Y-130197D01*
X215993Y-130225D01*
X216178Y-130243D01*
X216382Y-130252D01*
X216465D01*
X216557Y-130243D01*
X216668Y-130234D01*
X216798Y-130215D01*
X216946Y-130197D01*
X217094Y-130160D01*
X217232Y-130114D01*
X217251Y-130104D01*
X217297Y-130086D01*
X217362Y-130049D01*
X217445Y-130012D01*
X217528Y-129947D01*
X217621Y-129882D01*
X217713Y-129809D01*
X217787Y-129716D01*
X217796Y-129707D01*
X217815Y-129670D01*
X217843Y-129624D01*
X217880Y-129550D01*
X217917Y-129476D01*
X217944Y-129383D01*
X217963Y-129282D01*
X217972Y-129171D01*
Y-129161D01*
Y-129115D01*
X217963Y-129060D01*
X217953Y-128986D01*
X217926Y-128912D01*
X217898Y-128819D01*
X217852Y-128727D01*
X217787Y-128644D01*
X217778Y-128634D01*
X217750Y-128607D01*
X217713Y-128570D01*
X217648Y-128514D01*
X217574Y-128459D01*
X217473Y-128394D01*
X217353Y-128329D01*
X217214Y-128274D01*
X217205Y-128265D01*
X217158Y-128255D01*
X217084Y-128228D01*
X217038Y-128218D01*
X216973Y-128200D01*
X216909Y-128172D01*
X216826Y-128154D01*
X216733Y-128126D01*
X216622Y-128098D01*
X216511Y-128070D01*
X216382Y-128033D01*
X216234Y-127996D01*
X216077Y-127959D01*
X216067D01*
X216040Y-127950D01*
X215993Y-127941D01*
X215938Y-127922D01*
X215864Y-127904D01*
X215781Y-127885D01*
X215596Y-127830D01*
X215392Y-127765D01*
X215180Y-127701D01*
X214995Y-127636D01*
X214912Y-127599D01*
X214838Y-127562D01*
X214828D01*
X214819Y-127553D01*
X214764Y-127516D01*
X214681Y-127469D01*
X214588Y-127395D01*
X214477Y-127312D01*
X214366Y-127211D01*
X214255Y-127090D01*
X214163Y-126961D01*
X214153Y-126942D01*
X214126Y-126896D01*
X214089Y-126822D01*
X214052Y-126730D01*
X214015Y-126610D01*
X213978Y-126471D01*
X213950Y-126323D01*
X213941Y-126166D01*
Y-126157D01*
Y-126147D01*
Y-126119D01*
Y-126083D01*
X213959Y-125990D01*
X213978Y-125870D01*
X214006Y-125731D01*
X214052Y-125574D01*
X214116Y-125417D01*
X214209Y-125260D01*
Y-125250D01*
X214218Y-125241D01*
X214265Y-125186D01*
X214329Y-125112D01*
X214412Y-125019D01*
X214523Y-124918D01*
X214662Y-124807D01*
X214828Y-124705D01*
X215013Y-124613D01*
X215023D01*
X215041Y-124603D01*
X215069Y-124594D01*
X215106Y-124576D01*
X215152Y-124557D01*
X215217Y-124538D01*
X215355Y-124502D01*
X215531Y-124465D01*
X215735Y-124428D01*
X215947Y-124400D01*
X216188Y-124391D01*
X216308D01*
X216373Y-124400D01*
D02*
G37*
G36*
X225840Y-130899D02*
X225008D01*
X223667Y-126027D01*
Y-126018D01*
X223658Y-125999D01*
X223649Y-125972D01*
X223640Y-125925D01*
X223612Y-125824D01*
X223584Y-125703D01*
X223547Y-125574D01*
X223510Y-125454D01*
X223482Y-125352D01*
X223473Y-125306D01*
X223464Y-125278D01*
Y-125287D01*
X223455Y-125297D01*
X223445Y-125352D01*
X223427Y-125435D01*
X223399Y-125537D01*
X223371Y-125648D01*
X223334Y-125777D01*
X223307Y-125907D01*
X223270Y-126027D01*
X221920Y-130899D01*
X221032D01*
X219359Y-124502D01*
X220237D01*
X221189Y-128699D01*
Y-128708D01*
X221199Y-128727D01*
X221208Y-128764D01*
X221217Y-128810D01*
X221226Y-128875D01*
X221245Y-128939D01*
X221263Y-129023D01*
X221282Y-129115D01*
X221328Y-129309D01*
X221374Y-129531D01*
X221421Y-129771D01*
X221467Y-130012D01*
Y-130003D01*
X221476Y-129966D01*
X221495Y-129920D01*
X221504Y-129846D01*
X221522Y-129771D01*
X221550Y-129679D01*
X221596Y-129476D01*
X221652Y-129272D01*
X221670Y-129171D01*
X221698Y-129078D01*
X221716Y-128995D01*
X221735Y-128921D01*
X221753Y-128865D01*
X221763Y-128828D01*
X222974Y-124502D01*
X224000D01*
X224906Y-127747D01*
Y-127756D01*
X224925Y-127802D01*
X224943Y-127867D01*
X224962Y-127950D01*
X224989Y-128061D01*
X225026Y-128181D01*
X225063Y-128320D01*
X225100Y-128477D01*
X225147Y-128653D01*
X225184Y-128828D01*
X225267Y-129208D01*
X225350Y-129605D01*
X225415Y-130012D01*
Y-130003D01*
X225424Y-129984D01*
Y-129947D01*
X225442Y-129901D01*
X225452Y-129846D01*
X225470Y-129781D01*
X225479Y-129698D01*
X225507Y-129605D01*
X225553Y-129402D01*
X225609Y-129161D01*
X225664Y-128903D01*
X225738Y-128616D01*
X226737Y-124502D01*
X227597D01*
X225840Y-130899D01*
D02*
G37*
G36*
X249545Y-58895D02*
X249730Y-58904D01*
X249915Y-58923D01*
X250100Y-58951D01*
X250257Y-58978D01*
X250266D01*
X250285Y-58988D01*
X250312D01*
X250350Y-59006D01*
X250451Y-59034D01*
X250581Y-59080D01*
X250729Y-59145D01*
X250886Y-59228D01*
X251043Y-59320D01*
X251191Y-59441D01*
X251200Y-59450D01*
X251209Y-59459D01*
X251237Y-59487D01*
X251274Y-59515D01*
X251367Y-59607D01*
X251477Y-59736D01*
X251598Y-59894D01*
X251727Y-60079D01*
X251847Y-60291D01*
X251949Y-60532D01*
Y-60541D01*
X251958Y-60559D01*
X251977Y-60596D01*
X251986Y-60652D01*
X252014Y-60717D01*
X252032Y-60791D01*
X252051Y-60874D01*
X252078Y-60975D01*
X252106Y-61077D01*
X252125Y-61197D01*
X252171Y-61456D01*
X252199Y-61743D01*
X252208Y-62057D01*
Y-62066D01*
Y-62085D01*
Y-62131D01*
Y-62177D01*
X252199Y-62242D01*
Y-62316D01*
X252189Y-62492D01*
X252162Y-62695D01*
X252134Y-62908D01*
X252088Y-63130D01*
X252032Y-63351D01*
Y-63361D01*
X252023Y-63379D01*
X252014Y-63407D01*
X252004Y-63444D01*
X251968Y-63546D01*
X251912Y-63675D01*
X251856Y-63823D01*
X251783Y-63971D01*
X251690Y-64128D01*
X251598Y-64276D01*
X251588Y-64295D01*
X251551Y-64341D01*
X251496Y-64405D01*
X251422Y-64489D01*
X251339Y-64581D01*
X251237Y-64674D01*
X251135Y-64775D01*
X251015Y-64858D01*
X250997Y-64868D01*
X250960Y-64896D01*
X250895Y-64932D01*
X250802Y-64979D01*
X250692Y-65034D01*
X250562Y-65080D01*
X250414Y-65136D01*
X250248Y-65182D01*
X250229D01*
X250202Y-65191D01*
X250174Y-65201D01*
X250081Y-65210D01*
X249952Y-65228D01*
X249804Y-65247D01*
X249628Y-65265D01*
X249434Y-65275D01*
X249221Y-65284D01*
X246919D01*
Y-58886D01*
X249379D01*
X249545Y-58895D01*
D02*
G37*
G36*
X242759Y-64526D02*
X245912D01*
Y-65284D01*
X241908D01*
Y-58886D01*
X242759D01*
Y-64526D01*
D02*
G37*
G36*
X231027Y-130899D02*
X230241D01*
Y-125898D01*
X230232Y-125907D01*
X230185Y-125944D01*
X230130Y-125999D01*
X230037Y-126064D01*
X229936Y-126147D01*
X229806Y-126240D01*
X229658Y-126341D01*
X229492Y-126443D01*
X229483D01*
X229473Y-126452D01*
X229418Y-126489D01*
X229326Y-126536D01*
X229215Y-126591D01*
X229085Y-126656D01*
X228946Y-126721D01*
X228808Y-126785D01*
X228669Y-126841D01*
Y-126083D01*
X228678D01*
X228697Y-126064D01*
X228734Y-126055D01*
X228780Y-126027D01*
X228836Y-125999D01*
X228900Y-125962D01*
X229057Y-125870D01*
X229242Y-125768D01*
X229427Y-125639D01*
X229621Y-125491D01*
X229816Y-125334D01*
X229825Y-125324D01*
X229834Y-125315D01*
X229862Y-125287D01*
X229899Y-125260D01*
X229982Y-125167D01*
X230093Y-125056D01*
X230204Y-124927D01*
X230324Y-124779D01*
X230426Y-124631D01*
X230518Y-124474D01*
X231027D01*
Y-130899D01*
D02*
G37*
G36*
X-126496Y250954D02*
Y250945D01*
Y250917D01*
Y250880D01*
Y250825D01*
X-126506Y250751D01*
Y250677D01*
X-126524Y250501D01*
X-126543Y250298D01*
X-126580Y250085D01*
X-126635Y249891D01*
X-126700Y249706D01*
Y249697D01*
X-126709Y249687D01*
X-126737Y249632D01*
X-126783Y249558D01*
X-126848Y249456D01*
X-126940Y249354D01*
X-127042Y249244D01*
X-127171Y249133D01*
X-127319Y249040D01*
X-127338Y249031D01*
X-127393Y249003D01*
X-127477Y248966D01*
X-127597Y248929D01*
X-127745Y248883D01*
X-127911Y248846D01*
X-128096Y248818D01*
X-128299Y248809D01*
X-128383D01*
X-128438Y248818D01*
X-128512Y248827D01*
X-128586Y248837D01*
X-128780Y248874D01*
X-128983Y248929D01*
X-129196Y249013D01*
X-129307Y249068D01*
X-129409Y249133D01*
X-129501Y249207D01*
X-129594Y249290D01*
X-129603Y249299D01*
X-129612Y249308D01*
X-129631Y249345D01*
X-129658Y249382D01*
X-129695Y249429D01*
X-129732Y249493D01*
X-129769Y249567D01*
X-129816Y249650D01*
X-129853Y249743D01*
X-129890Y249854D01*
X-129927Y249965D01*
X-129964Y250094D01*
X-129982Y250233D01*
X-130010Y250390D01*
X-130019Y250547D01*
Y250723D01*
X-129252Y250834D01*
Y250825D01*
Y250806D01*
Y250769D01*
X-129242Y250714D01*
X-129233Y250658D01*
Y250593D01*
X-129205Y250436D01*
X-129178Y250270D01*
X-129122Y250103D01*
X-129067Y249956D01*
X-129030Y249891D01*
X-128983Y249835D01*
X-128974Y249826D01*
X-128937Y249798D01*
X-128882Y249752D01*
X-128808Y249706D01*
X-128706Y249650D01*
X-128595Y249613D01*
X-128456Y249576D01*
X-128309Y249567D01*
X-128253D01*
X-128198Y249576D01*
X-128114Y249586D01*
X-128031Y249604D01*
X-127939Y249623D01*
X-127846Y249660D01*
X-127754Y249706D01*
X-127745Y249715D01*
X-127717Y249734D01*
X-127680Y249771D01*
X-127624Y249808D01*
X-127578Y249872D01*
X-127523Y249937D01*
X-127477Y250011D01*
X-127439Y250103D01*
Y250113D01*
X-127421Y250150D01*
X-127412Y250214D01*
X-127393Y250298D01*
X-127375Y250408D01*
X-127366Y250547D01*
X-127347Y250714D01*
Y250908D01*
Y255318D01*
X-126496D01*
Y250954D01*
D02*
G37*
G36*
X-122133Y251176D02*
X-121263D01*
Y250455D01*
X-122133D01*
Y248920D01*
X-122918D01*
Y250455D01*
X-125701D01*
Y251176D01*
X-122770Y255318D01*
X-122133D01*
Y251176D01*
D02*
G37*
G36*
X203145Y145544D02*
Y145535D01*
Y145507D01*
Y145470D01*
Y145415D01*
X203135Y145341D01*
Y145267D01*
X203117Y145091D01*
X203099Y144888D01*
X203062Y144675D01*
X203006Y144481D01*
X202941Y144296D01*
Y144287D01*
X202932Y144277D01*
X202904Y144222D01*
X202858Y144148D01*
X202793Y144046D01*
X202701Y143945D01*
X202599Y143834D01*
X202470Y143723D01*
X202322Y143630D01*
X202303Y143621D01*
X202248Y143593D01*
X202165Y143556D01*
X202045Y143519D01*
X201896Y143473D01*
X201730Y143436D01*
X201545Y143408D01*
X201342Y143399D01*
X201259D01*
X201203Y143408D01*
X201129Y143418D01*
X201055Y143427D01*
X200861Y143464D01*
X200658Y143519D01*
X200445Y143603D01*
X200334Y143658D01*
X200232Y143723D01*
X200140Y143797D01*
X200047Y143880D01*
X200038Y143889D01*
X200029Y143898D01*
X200010Y143935D01*
X199983Y143972D01*
X199946Y144018D01*
X199909Y144083D01*
X199872Y144157D01*
X199825Y144240D01*
X199788Y144333D01*
X199751Y144444D01*
X199715Y144555D01*
X199678Y144684D01*
X199659Y144823D01*
X199631Y144980D01*
X199622Y145137D01*
Y145313D01*
X200389Y145424D01*
Y145415D01*
Y145396D01*
Y145359D01*
X200399Y145304D01*
X200408Y145248D01*
Y145183D01*
X200436Y145026D01*
X200464Y144860D01*
X200519Y144693D01*
X200574Y144545D01*
X200611Y144481D01*
X200658Y144425D01*
X200667Y144416D01*
X200704Y144388D01*
X200759Y144342D01*
X200833Y144296D01*
X200935Y144240D01*
X201046Y144203D01*
X201185Y144166D01*
X201332Y144157D01*
X201388D01*
X201444Y144166D01*
X201527Y144176D01*
X201610Y144194D01*
X201702Y144213D01*
X201795Y144250D01*
X201887Y144296D01*
X201896Y144305D01*
X201924Y144324D01*
X201961Y144361D01*
X202017Y144398D01*
X202063Y144462D01*
X202118Y144527D01*
X202165Y144601D01*
X202202Y144693D01*
Y144703D01*
X202220Y144740D01*
X202229Y144804D01*
X202248Y144888D01*
X202266Y144999D01*
X202276Y145137D01*
X202294Y145304D01*
Y145498D01*
Y149908D01*
X203145D01*
Y145544D01*
D02*
G37*
G36*
X208146Y149076D02*
X205585D01*
X205243Y147347D01*
X205253Y147356D01*
X205271Y147365D01*
X205299Y147384D01*
X205345Y147412D01*
X205401Y147439D01*
X205465Y147476D01*
X205613Y147550D01*
X205798Y147624D01*
X206002Y147689D01*
X206224Y147735D01*
X206334Y147754D01*
X206538D01*
X206593Y147745D01*
X206667Y147735D01*
X206751Y147726D01*
X206843Y147708D01*
X206945Y147680D01*
X207167Y147615D01*
X207287Y147569D01*
X207407Y147504D01*
X207527Y147439D01*
X207647Y147365D01*
X207758Y147273D01*
X207869Y147171D01*
X207878Y147162D01*
X207897Y147143D01*
X207925Y147116D01*
X207962Y147070D01*
X208008Y147005D01*
X208054Y146940D01*
X208110Y146857D01*
X208165Y146764D01*
X208211Y146663D01*
X208267Y146552D01*
X208313Y146422D01*
X208359Y146293D01*
X208396Y146154D01*
X208424Y145997D01*
X208442Y145840D01*
X208452Y145674D01*
Y145664D01*
Y145637D01*
Y145590D01*
X208442Y145526D01*
X208433Y145452D01*
X208424Y145368D01*
X208405Y145267D01*
X208387Y145165D01*
X208332Y144925D01*
X208239Y144675D01*
X208183Y144545D01*
X208110Y144425D01*
X208036Y144296D01*
X207943Y144176D01*
X207934Y144166D01*
X207915Y144139D01*
X207878Y144102D01*
X207832Y144056D01*
X207768Y144000D01*
X207694Y143926D01*
X207601Y143861D01*
X207499Y143787D01*
X207388Y143713D01*
X207259Y143649D01*
X207120Y143584D01*
X206972Y143519D01*
X206815Y143473D01*
X206639Y143436D01*
X206455Y143408D01*
X206260Y143399D01*
X206177D01*
X206112Y143408D01*
X206039Y143418D01*
X205955Y143427D01*
X205854Y143436D01*
X205752Y143464D01*
X205521Y143519D01*
X205290Y143603D01*
X205170Y143658D01*
X205049Y143723D01*
X204938Y143797D01*
X204827Y143880D01*
X204818Y143889D01*
X204800Y143898D01*
X204781Y143935D01*
X204744Y143972D01*
X204698Y144018D01*
X204652Y144074D01*
X204596Y144148D01*
X204550Y144231D01*
X204494Y144314D01*
X204439Y144416D01*
X204337Y144638D01*
X204254Y144897D01*
X204226Y145035D01*
X204208Y145183D01*
X205031Y145248D01*
Y145239D01*
Y145220D01*
X205040Y145193D01*
X205049Y145147D01*
X205077Y145045D01*
X205114Y144906D01*
X205170Y144767D01*
X205243Y144610D01*
X205336Y144472D01*
X205447Y144342D01*
X205465Y144333D01*
X205502Y144296D01*
X205576Y144250D01*
X205678Y144194D01*
X205789Y144139D01*
X205928Y144093D01*
X206085Y144056D01*
X206260Y144046D01*
X206316D01*
X206353Y144056D01*
X206464Y144065D01*
X206593Y144102D01*
X206751Y144148D01*
X206908Y144222D01*
X207074Y144333D01*
X207148Y144398D01*
X207222Y144472D01*
X207231Y144481D01*
X207241Y144490D01*
X207259Y144518D01*
X207287Y144545D01*
X207351Y144647D01*
X207425Y144777D01*
X207490Y144934D01*
X207555Y145128D01*
X207601Y145359D01*
X207619Y145479D01*
Y145609D01*
Y145618D01*
Y145637D01*
Y145674D01*
X207610Y145720D01*
Y145775D01*
X207601Y145840D01*
X207573Y145988D01*
X207527Y146164D01*
X207462Y146339D01*
X207370Y146506D01*
X207241Y146663D01*
Y146672D01*
X207222Y146681D01*
X207176Y146728D01*
X207092Y146792D01*
X206982Y146866D01*
X206834Y146931D01*
X206667Y146996D01*
X206473Y147042D01*
X206362Y147060D01*
X206187D01*
X206112Y147051D01*
X206020Y147042D01*
X205909Y147014D01*
X205798Y146986D01*
X205678Y146940D01*
X205558Y146885D01*
X205548Y146875D01*
X205512Y146857D01*
X205456Y146811D01*
X205382Y146764D01*
X205308Y146700D01*
X205234Y146616D01*
X205151Y146533D01*
X205086Y146432D01*
X204347Y146533D01*
X204966Y149825D01*
X208146D01*
Y149076D01*
D02*
G37*
G36*
X255324Y-58867D02*
X255398Y-58877D01*
X255490Y-58886D01*
X255592Y-58904D01*
X255693Y-58923D01*
X255934Y-58988D01*
X256174Y-59080D01*
X256294Y-59135D01*
X256415Y-59200D01*
X256525Y-59283D01*
X256627Y-59376D01*
X256637Y-59385D01*
X256655Y-59394D01*
X256674Y-59431D01*
X256710Y-59468D01*
X256757Y-59515D01*
X256803Y-59579D01*
X256849Y-59644D01*
X256905Y-59727D01*
X256997Y-59903D01*
X257090Y-60125D01*
X257127Y-60236D01*
X257145Y-60365D01*
X257164Y-60495D01*
X257173Y-60633D01*
Y-60652D01*
Y-60698D01*
X257164Y-60772D01*
X257154Y-60874D01*
X257136Y-60985D01*
X257099Y-61114D01*
X257062Y-61253D01*
X257006Y-61391D01*
X256997Y-61410D01*
X256979Y-61456D01*
X256942Y-61530D01*
X256886Y-61632D01*
X256812Y-61743D01*
X256720Y-61881D01*
X256609Y-62020D01*
X256479Y-62177D01*
X256461Y-62196D01*
X256415Y-62251D01*
X256368Y-62298D01*
X256322Y-62344D01*
X256267Y-62399D01*
X256193Y-62473D01*
X256119Y-62547D01*
X256026Y-62630D01*
X255934Y-62723D01*
X255823Y-62825D01*
X255703Y-62926D01*
X255573Y-63046D01*
X255425Y-63167D01*
X255277Y-63296D01*
X255268Y-63305D01*
X255250Y-63324D01*
X255213Y-63351D01*
X255166Y-63389D01*
X255111Y-63444D01*
X255046Y-63499D01*
X254898Y-63620D01*
X254741Y-63758D01*
X254593Y-63897D01*
X254464Y-64017D01*
X254408Y-64063D01*
X254362Y-64110D01*
X254353Y-64119D01*
X254325Y-64147D01*
X254288Y-64184D01*
X254242Y-64239D01*
X254196Y-64304D01*
X254140Y-64369D01*
X254029Y-64526D01*
X257182D01*
Y-65284D01*
X252938D01*
Y-65275D01*
Y-65238D01*
Y-65182D01*
X252948Y-65108D01*
X252957Y-65025D01*
X252975Y-64932D01*
X252994Y-64840D01*
X253031Y-64738D01*
Y-64729D01*
X253040Y-64720D01*
X253058Y-64664D01*
X253095Y-64581D01*
X253151Y-64470D01*
X253225Y-64341D01*
X253317Y-64193D01*
X253419Y-64045D01*
X253549Y-63888D01*
Y-63878D01*
X253567Y-63869D01*
X253613Y-63814D01*
X253696Y-63731D01*
X253817Y-63610D01*
X253955Y-63472D01*
X254131Y-63305D01*
X254344Y-63120D01*
X254575Y-62926D01*
X254584Y-62917D01*
X254621Y-62889D01*
X254676Y-62843D01*
X254741Y-62787D01*
X254824Y-62714D01*
X254926Y-62630D01*
X255028Y-62538D01*
X255148Y-62436D01*
X255379Y-62214D01*
X255610Y-61992D01*
X255721Y-61881D01*
X255823Y-61771D01*
X255915Y-61669D01*
X255989Y-61567D01*
Y-61558D01*
X256008Y-61549D01*
X256026Y-61521D01*
X256045Y-61484D01*
X256110Y-61382D01*
X256183Y-61262D01*
X256248Y-61114D01*
X256313Y-60957D01*
X256350Y-60781D01*
X256368Y-60615D01*
Y-60606D01*
Y-60596D01*
X256359Y-60541D01*
X256350Y-60448D01*
X256322Y-60347D01*
X256285Y-60217D01*
X256220Y-60088D01*
X256137Y-59958D01*
X256026Y-59829D01*
X256008Y-59810D01*
X255962Y-59774D01*
X255897Y-59727D01*
X255795Y-59662D01*
X255666Y-59607D01*
X255518Y-59552D01*
X255342Y-59515D01*
X255148Y-59505D01*
X255093D01*
X255056Y-59515D01*
X254944Y-59524D01*
X254815Y-59552D01*
X254676Y-59589D01*
X254519Y-59653D01*
X254371Y-59736D01*
X254233Y-59847D01*
X254214Y-59866D01*
X254177Y-59912D01*
X254122Y-59986D01*
X254066Y-60097D01*
X254002Y-60226D01*
X253946Y-60393D01*
X253909Y-60578D01*
X253891Y-60791D01*
X253086Y-60707D01*
Y-60698D01*
X253095Y-60670D01*
Y-60624D01*
X253105Y-60559D01*
X253123Y-60485D01*
X253142Y-60402D01*
X253169Y-60300D01*
X253197Y-60199D01*
X253271Y-59977D01*
X253382Y-59755D01*
X253447Y-59644D01*
X253530Y-59533D01*
X253613Y-59431D01*
X253706Y-59339D01*
X253715Y-59330D01*
X253733Y-59320D01*
X253761Y-59293D01*
X253807Y-59265D01*
X253863Y-59228D01*
X253927Y-59191D01*
X254002Y-59145D01*
X254094Y-59099D01*
X254196Y-59052D01*
X254307Y-59006D01*
X254427Y-58969D01*
X254556Y-58932D01*
X254695Y-58904D01*
X254843Y-58877D01*
X255000Y-58867D01*
X255166Y-58858D01*
X255259D01*
X255324Y-58867D01*
D02*
G37*
G36*
X141303Y149626D02*
Y149617D01*
Y149589D01*
Y149552D01*
Y149497D01*
X141294Y149423D01*
Y149349D01*
X141275Y149173D01*
X141257Y148970D01*
X141220Y148757D01*
X141164Y148563D01*
X141100Y148378D01*
Y148369D01*
X141090Y148360D01*
X141063Y148304D01*
X141016Y148230D01*
X140952Y148129D01*
X140859Y148027D01*
X140758Y147916D01*
X140628Y147805D01*
X140480Y147713D01*
X140462Y147703D01*
X140406Y147676D01*
X140323Y147639D01*
X140203Y147602D01*
X140055Y147555D01*
X139888Y147518D01*
X139704Y147491D01*
X139500Y147481D01*
X139417D01*
X139361Y147491D01*
X139288Y147500D01*
X139213Y147509D01*
X139019Y147546D01*
X138816Y147602D01*
X138603Y147685D01*
X138492Y147740D01*
X138391Y147805D01*
X138298Y147879D01*
X138206Y147962D01*
X138196Y147971D01*
X138187Y147981D01*
X138169Y148018D01*
X138141Y148055D01*
X138104Y148101D01*
X138067Y148166D01*
X138030Y148240D01*
X137984Y148323D01*
X137947Y148415D01*
X137910Y148526D01*
X137873Y148637D01*
X137836Y148767D01*
X137817Y148905D01*
X137790Y149062D01*
X137780Y149220D01*
Y149395D01*
X138548Y149506D01*
Y149497D01*
Y149479D01*
Y149441D01*
X138557Y149386D01*
X138566Y149331D01*
Y149266D01*
X138594Y149109D01*
X138622Y148942D01*
X138677Y148776D01*
X138733Y148628D01*
X138770Y148563D01*
X138816Y148508D01*
X138825Y148498D01*
X138862Y148471D01*
X138918Y148425D01*
X138992Y148378D01*
X139093Y148323D01*
X139204Y148286D01*
X139343Y148249D01*
X139491Y148240D01*
X139546D01*
X139602Y148249D01*
X139685Y148258D01*
X139768Y148277D01*
X139861Y148295D01*
X139953Y148332D01*
X140046Y148378D01*
X140055Y148387D01*
X140083Y148406D01*
X140120Y148443D01*
X140175Y148480D01*
X140221Y148545D01*
X140277Y148609D01*
X140323Y148683D01*
X140360Y148776D01*
Y148785D01*
X140378Y148822D01*
X140388Y148887D01*
X140406Y148970D01*
X140425Y149081D01*
X140434Y149220D01*
X140452Y149386D01*
Y149580D01*
Y153990D01*
X141303D01*
Y149626D01*
D02*
G37*
G36*
X145325Y147592D02*
X144539D01*
Y152594D01*
X144530Y152585D01*
X144483Y152548D01*
X144428Y152493D01*
X144336Y152428D01*
X144234Y152345D01*
X144104Y152252D01*
X143956Y152150D01*
X143790Y152049D01*
X143781D01*
X143772Y152039D01*
X143716Y152002D01*
X143624Y151956D01*
X143513Y151901D01*
X143383Y151836D01*
X143245Y151771D01*
X143106Y151707D01*
X142967Y151651D01*
Y152409D01*
X142976D01*
X142995Y152428D01*
X143032Y152437D01*
X143078Y152465D01*
X143134Y152493D01*
X143198Y152529D01*
X143356Y152622D01*
X143540Y152724D01*
X143725Y152853D01*
X143919Y153001D01*
X144114Y153158D01*
X144123Y153167D01*
X144132Y153177D01*
X144160Y153204D01*
X144197Y153232D01*
X144280Y153325D01*
X144391Y153436D01*
X144502Y153565D01*
X144622Y153713D01*
X144724Y153861D01*
X144816Y154018D01*
X145325D01*
Y147592D01*
D02*
G37*
G36*
X-167202Y155704D02*
Y155695D01*
Y155667D01*
Y155630D01*
Y155575D01*
X-167212Y155501D01*
Y155427D01*
X-167230Y155251D01*
X-167249Y155048D01*
X-167286Y154835D01*
X-167341Y154641D01*
X-167406Y154456D01*
Y154447D01*
X-167415Y154437D01*
X-167443Y154382D01*
X-167489Y154308D01*
X-167554Y154206D01*
X-167646Y154104D01*
X-167748Y153994D01*
X-167877Y153883D01*
X-168025Y153790D01*
X-168044Y153781D01*
X-168099Y153753D01*
X-168182Y153716D01*
X-168303Y153679D01*
X-168451Y153633D01*
X-168617Y153596D01*
X-168802Y153568D01*
X-169005Y153559D01*
X-169088D01*
X-169144Y153568D01*
X-169218Y153577D01*
X-169292Y153587D01*
X-169486Y153624D01*
X-169690Y153679D01*
X-169902Y153763D01*
X-170013Y153818D01*
X-170115Y153883D01*
X-170207Y153957D01*
X-170300Y154040D01*
X-170309Y154049D01*
X-170318Y154058D01*
X-170337Y154095D01*
X-170364Y154132D01*
X-170401Y154178D01*
X-170438Y154243D01*
X-170475Y154317D01*
X-170522Y154400D01*
X-170559Y154493D01*
X-170595Y154604D01*
X-170632Y154715D01*
X-170669Y154844D01*
X-170688Y154983D01*
X-170716Y155140D01*
X-170725Y155297D01*
Y155473D01*
X-169958Y155584D01*
Y155575D01*
Y155556D01*
Y155519D01*
X-169948Y155464D01*
X-169939Y155408D01*
Y155344D01*
X-169911Y155186D01*
X-169884Y155020D01*
X-169828Y154853D01*
X-169773Y154705D01*
X-169736Y154641D01*
X-169690Y154585D01*
X-169680Y154576D01*
X-169643Y154548D01*
X-169588Y154502D01*
X-169514Y154456D01*
X-169412Y154400D01*
X-169301Y154363D01*
X-169163Y154326D01*
X-169014Y154317D01*
X-168959D01*
X-168904Y154326D01*
X-168820Y154336D01*
X-168737Y154354D01*
X-168645Y154373D01*
X-168552Y154410D01*
X-168460Y154456D01*
X-168451Y154465D01*
X-168423Y154484D01*
X-168386Y154521D01*
X-168330Y154558D01*
X-168284Y154622D01*
X-168229Y154687D01*
X-168182Y154761D01*
X-168146Y154853D01*
Y154863D01*
X-168127Y154900D01*
X-168118Y154964D01*
X-168099Y155048D01*
X-168081Y155159D01*
X-168071Y155297D01*
X-168053Y155464D01*
Y155658D01*
Y160068D01*
X-167202D01*
Y155704D01*
D02*
G37*
G36*
X-163865Y160086D02*
X-163791Y160077D01*
X-163698Y160068D01*
X-163597Y160049D01*
X-163495Y160031D01*
X-163255Y159966D01*
X-163014Y159874D01*
X-162894Y159818D01*
X-162774Y159754D01*
X-162663Y159670D01*
X-162561Y159578D01*
X-162552Y159569D01*
X-162533Y159559D01*
X-162515Y159522D01*
X-162478Y159486D01*
X-162432Y159439D01*
X-162386Y159375D01*
X-162339Y159310D01*
X-162284Y159227D01*
X-162191Y159051D01*
X-162099Y158829D01*
X-162062Y158718D01*
X-162043Y158589D01*
X-162025Y158459D01*
X-162016Y158321D01*
Y158302D01*
Y158256D01*
X-162025Y158182D01*
X-162034Y158080D01*
X-162053Y157969D01*
X-162090Y157840D01*
X-162127Y157701D01*
X-162182Y157562D01*
X-162191Y157544D01*
X-162210Y157498D01*
X-162247Y157424D01*
X-162302Y157322D01*
X-162376Y157211D01*
X-162469Y157072D01*
X-162580Y156934D01*
X-162709Y156777D01*
X-162728Y156758D01*
X-162774Y156703D01*
X-162820Y156656D01*
X-162866Y156610D01*
X-162922Y156555D01*
X-162996Y156481D01*
X-163070Y156407D01*
X-163162Y156323D01*
X-163255Y156231D01*
X-163365Y156129D01*
X-163486Y156028D01*
X-163615Y155907D01*
X-163763Y155787D01*
X-163911Y155658D01*
X-163920Y155649D01*
X-163939Y155630D01*
X-163976Y155602D01*
X-164022Y155565D01*
X-164077Y155510D01*
X-164142Y155454D01*
X-164290Y155334D01*
X-164447Y155196D01*
X-164595Y155057D01*
X-164725Y154937D01*
X-164780Y154890D01*
X-164826Y154844D01*
X-164835Y154835D01*
X-164863Y154807D01*
X-164900Y154770D01*
X-164946Y154715D01*
X-164993Y154650D01*
X-165048Y154585D01*
X-165159Y154428D01*
X-162006D01*
Y153670D01*
X-166250D01*
Y153679D01*
Y153716D01*
Y153772D01*
X-166241Y153846D01*
X-166232Y153929D01*
X-166213Y154021D01*
X-166195Y154114D01*
X-166158Y154215D01*
Y154225D01*
X-166148Y154234D01*
X-166130Y154290D01*
X-166093Y154373D01*
X-166038Y154484D01*
X-165963Y154613D01*
X-165871Y154761D01*
X-165769Y154909D01*
X-165640Y155066D01*
Y155075D01*
X-165621Y155085D01*
X-165575Y155140D01*
X-165492Y155223D01*
X-165372Y155344D01*
X-165233Y155482D01*
X-165057Y155649D01*
X-164845Y155834D01*
X-164614Y156028D01*
X-164604Y156037D01*
X-164567Y156065D01*
X-164512Y156111D01*
X-164447Y156166D01*
X-164364Y156240D01*
X-164262Y156323D01*
X-164161Y156416D01*
X-164040Y156518D01*
X-163809Y156740D01*
X-163578Y156961D01*
X-163467Y157072D01*
X-163365Y157183D01*
X-163273Y157285D01*
X-163199Y157387D01*
Y157396D01*
X-163181Y157405D01*
X-163162Y157433D01*
X-163144Y157470D01*
X-163079Y157572D01*
X-163005Y157692D01*
X-162940Y157840D01*
X-162875Y157997D01*
X-162838Y158173D01*
X-162820Y158339D01*
Y158348D01*
Y158357D01*
X-162829Y158413D01*
X-162838Y158505D01*
X-162866Y158607D01*
X-162903Y158737D01*
X-162968Y158866D01*
X-163051Y158996D01*
X-163162Y159125D01*
X-163181Y159143D01*
X-163227Y159180D01*
X-163291Y159227D01*
X-163393Y159291D01*
X-163523Y159347D01*
X-163671Y159402D01*
X-163846Y159439D01*
X-164040Y159448D01*
X-164096D01*
X-164133Y159439D01*
X-164244Y159430D01*
X-164373Y159402D01*
X-164512Y159365D01*
X-164669Y159301D01*
X-164817Y159217D01*
X-164956Y159106D01*
X-164974Y159088D01*
X-165011Y159042D01*
X-165067Y158968D01*
X-165122Y158857D01*
X-165187Y158727D01*
X-165242Y158561D01*
X-165279Y158376D01*
X-165298Y158163D01*
X-166102Y158247D01*
Y158256D01*
X-166093Y158284D01*
Y158330D01*
X-166084Y158394D01*
X-166065Y158469D01*
X-166047Y158552D01*
X-166019Y158653D01*
X-165991Y158755D01*
X-165917Y158977D01*
X-165806Y159199D01*
X-165742Y159310D01*
X-165658Y159421D01*
X-165575Y159522D01*
X-165483Y159615D01*
X-165473Y159624D01*
X-165455Y159633D01*
X-165427Y159661D01*
X-165381Y159689D01*
X-165326Y159726D01*
X-165261Y159763D01*
X-165187Y159809D01*
X-165094Y159855D01*
X-164993Y159902D01*
X-164882Y159948D01*
X-164762Y159985D01*
X-164632Y160022D01*
X-164493Y160049D01*
X-164345Y160077D01*
X-164188Y160086D01*
X-164022Y160096D01*
X-163930D01*
X-163865Y160086D01*
D02*
G37*
G36*
X-242186Y133234D02*
X-242066Y133216D01*
X-241918Y133188D01*
X-241752Y133141D01*
X-241585Y133086D01*
X-241419Y133012D01*
X-241409D01*
X-241400Y133003D01*
X-241345Y132975D01*
X-241262Y132920D01*
X-241169Y132855D01*
X-241058Y132762D01*
X-240947Y132661D01*
X-240836Y132541D01*
X-240744Y132402D01*
X-240735Y132383D01*
X-240707Y132337D01*
X-240670Y132254D01*
X-240624Y132152D01*
X-240577Y132032D01*
X-240540Y131893D01*
X-240513Y131736D01*
X-240503Y131579D01*
Y131560D01*
Y131505D01*
X-240513Y131431D01*
X-240531Y131329D01*
X-240559Y131209D01*
X-240605Y131080D01*
X-240661Y130950D01*
X-240735Y130821D01*
X-240744Y130802D01*
X-240772Y130765D01*
X-240827Y130701D01*
X-240901Y130627D01*
X-240993Y130543D01*
X-241104Y130451D01*
X-241234Y130368D01*
X-241391Y130285D01*
X-241382D01*
X-241363Y130275D01*
X-241336Y130266D01*
X-241299Y130257D01*
X-241197Y130220D01*
X-241067Y130164D01*
X-240919Y130091D01*
X-240772Y129998D01*
X-240633Y129878D01*
X-240503Y129739D01*
X-240494Y129721D01*
X-240457Y129665D01*
X-240402Y129573D01*
X-240346Y129452D01*
X-240291Y129305D01*
X-240235Y129129D01*
X-240198Y128926D01*
X-240189Y128704D01*
Y128694D01*
Y128667D01*
Y128620D01*
X-240198Y128565D01*
X-240208Y128491D01*
X-240226Y128408D01*
X-240245Y128315D01*
X-240263Y128214D01*
X-240337Y127992D01*
X-240392Y127872D01*
X-240448Y127761D01*
X-240522Y127640D01*
X-240605Y127520D01*
X-240698Y127400D01*
X-240809Y127289D01*
X-240818Y127280D01*
X-240836Y127261D01*
X-240873Y127234D01*
X-240919Y127197D01*
X-240975Y127150D01*
X-241049Y127104D01*
X-241132Y127049D01*
X-241234Y127002D01*
X-241336Y126947D01*
X-241456Y126891D01*
X-241576Y126845D01*
X-241715Y126799D01*
X-241863Y126762D01*
X-242020Y126734D01*
X-242177Y126716D01*
X-242353Y126707D01*
X-242436D01*
X-242491Y126716D01*
X-242565Y126725D01*
X-242648Y126734D01*
X-242741Y126753D01*
X-242843Y126771D01*
X-243064Y126827D01*
X-243296Y126919D01*
X-243416Y126975D01*
X-243527Y127039D01*
X-243638Y127123D01*
X-243749Y127206D01*
X-243758Y127215D01*
X-243776Y127234D01*
X-243804Y127261D01*
X-243832Y127298D01*
X-243878Y127345D01*
X-243924Y127409D01*
X-243980Y127474D01*
X-244035Y127557D01*
X-244091Y127650D01*
X-244146Y127742D01*
X-244248Y127964D01*
X-244331Y128223D01*
X-244359Y128362D01*
X-244377Y128510D01*
X-243591Y128611D01*
Y128602D01*
X-243582Y128583D01*
X-243573Y128546D01*
X-243564Y128500D01*
X-243554Y128445D01*
X-243536Y128380D01*
X-243490Y128241D01*
X-243425Y128075D01*
X-243342Y127918D01*
X-243249Y127770D01*
X-243138Y127640D01*
X-243120Y127631D01*
X-243083Y127594D01*
X-243009Y127548D01*
X-242917Y127502D01*
X-242806Y127446D01*
X-242667Y127400D01*
X-242510Y127363D01*
X-242343Y127354D01*
X-242288D01*
X-242251Y127363D01*
X-242149Y127372D01*
X-242020Y127400D01*
X-241872Y127446D01*
X-241715Y127511D01*
X-241557Y127603D01*
X-241409Y127733D01*
X-241391Y127751D01*
X-241345Y127807D01*
X-241289Y127890D01*
X-241215Y128001D01*
X-241141Y128140D01*
X-241086Y128297D01*
X-241040Y128482D01*
X-241021Y128685D01*
Y128694D01*
Y128713D01*
Y128741D01*
X-241030Y128778D01*
X-241040Y128879D01*
X-241067Y129000D01*
X-241104Y129147D01*
X-241169Y129295D01*
X-241262Y129443D01*
X-241382Y129582D01*
X-241400Y129600D01*
X-241446Y129637D01*
X-241520Y129693D01*
X-241622Y129758D01*
X-241752Y129822D01*
X-241909Y129878D01*
X-242084Y129915D01*
X-242279Y129933D01*
X-242362D01*
X-242426Y129924D01*
X-242510Y129915D01*
X-242602Y129896D01*
X-242713Y129878D01*
X-242833Y129850D01*
X-242741Y130543D01*
X-242695D01*
X-242658Y130534D01*
X-242537D01*
X-242436Y130553D01*
X-242316Y130571D01*
X-242177Y130599D01*
X-242020Y130645D01*
X-241872Y130710D01*
X-241715Y130793D01*
X-241705D01*
X-241696Y130802D01*
X-241650Y130839D01*
X-241585Y130904D01*
X-241511Y130987D01*
X-241437Y131108D01*
X-241373Y131246D01*
X-241326Y131403D01*
X-241308Y131496D01*
Y131597D01*
Y131607D01*
Y131616D01*
Y131671D01*
X-241326Y131745D01*
X-241345Y131847D01*
X-241382Y131958D01*
X-241428Y132078D01*
X-241502Y132198D01*
X-241604Y132309D01*
X-241613Y132319D01*
X-241659Y132356D01*
X-241724Y132402D01*
X-241807Y132457D01*
X-241918Y132504D01*
X-242047Y132550D01*
X-242195Y132587D01*
X-242362Y132596D01*
X-242436D01*
X-242519Y132577D01*
X-242630Y132559D01*
X-242750Y132522D01*
X-242870Y132476D01*
X-243000Y132402D01*
X-243120Y132309D01*
X-243129Y132300D01*
X-243166Y132254D01*
X-243222Y132189D01*
X-243286Y132097D01*
X-243351Y131977D01*
X-243416Y131829D01*
X-243471Y131653D01*
X-243508Y131450D01*
X-244294Y131588D01*
Y131597D01*
X-244285Y131625D01*
X-244276Y131662D01*
X-244266Y131718D01*
X-244248Y131782D01*
X-244220Y131856D01*
X-244165Y132032D01*
X-244072Y132235D01*
X-243961Y132439D01*
X-243823Y132633D01*
X-243647Y132809D01*
X-243638Y132818D01*
X-243619Y132827D01*
X-243591Y132846D01*
X-243554Y132873D01*
X-243508Y132910D01*
X-243444Y132947D01*
X-243379Y132984D01*
X-243296Y133031D01*
X-243111Y133104D01*
X-242898Y133179D01*
X-242648Y133225D01*
X-242519Y133243D01*
X-242288D01*
X-242186Y133234D01*
D02*
G37*
G36*
X-254677Y127576D02*
X-251524D01*
Y126818D01*
X-255527D01*
Y133216D01*
X-254677D01*
Y127576D01*
D02*
G37*
G36*
X-247891Y133206D02*
X-247706Y133197D01*
X-247521Y133179D01*
X-247336Y133151D01*
X-247179Y133123D01*
X-247169D01*
X-247151Y133114D01*
X-247123D01*
X-247086Y133095D01*
X-246985Y133068D01*
X-246855Y133021D01*
X-246707Y132957D01*
X-246550Y132873D01*
X-246393Y132781D01*
X-246245Y132661D01*
X-246236Y132652D01*
X-246227Y132642D01*
X-246199Y132614D01*
X-246162Y132587D01*
X-246069Y132494D01*
X-245958Y132365D01*
X-245838Y132208D01*
X-245709Y132023D01*
X-245588Y131810D01*
X-245487Y131570D01*
Y131560D01*
X-245478Y131542D01*
X-245459Y131505D01*
X-245450Y131450D01*
X-245422Y131385D01*
X-245404Y131311D01*
X-245385Y131228D01*
X-245357Y131126D01*
X-245330Y131024D01*
X-245311Y130904D01*
X-245265Y130645D01*
X-245237Y130359D01*
X-245228Y130044D01*
Y130035D01*
Y130016D01*
Y129970D01*
Y129924D01*
X-245237Y129859D01*
Y129785D01*
X-245246Y129610D01*
X-245274Y129406D01*
X-245302Y129194D01*
X-245348Y128972D01*
X-245404Y128750D01*
Y128741D01*
X-245413Y128722D01*
X-245422Y128694D01*
X-245431Y128657D01*
X-245468Y128556D01*
X-245524Y128426D01*
X-245579Y128278D01*
X-245653Y128130D01*
X-245746Y127973D01*
X-245838Y127825D01*
X-245847Y127807D01*
X-245884Y127761D01*
X-245940Y127696D01*
X-246014Y127613D01*
X-246097Y127520D01*
X-246199Y127428D01*
X-246300Y127326D01*
X-246421Y127243D01*
X-246439Y127234D01*
X-246476Y127206D01*
X-246541Y127169D01*
X-246633Y127123D01*
X-246744Y127067D01*
X-246874Y127021D01*
X-247022Y126966D01*
X-247188Y126919D01*
X-247206D01*
X-247234Y126910D01*
X-247262Y126901D01*
X-247354Y126891D01*
X-247484Y126873D01*
X-247632Y126854D01*
X-247808Y126836D01*
X-248002Y126827D01*
X-248214Y126818D01*
X-250516D01*
Y133216D01*
X-248057D01*
X-247891Y133206D01*
D02*
G37*
%LPC*%
G36*
X249249Y-59644D02*
X247770D01*
Y-64526D01*
X249286D01*
X249351Y-64517D01*
X249490Y-64507D01*
X249647Y-64498D01*
X249813Y-64479D01*
X249980Y-64452D01*
X250118Y-64415D01*
X250137Y-64405D01*
X250183Y-64396D01*
X250248Y-64369D01*
X250331Y-64331D01*
X250424Y-64276D01*
X250516Y-64221D01*
X250608Y-64156D01*
X250701Y-64082D01*
X250710Y-64063D01*
X250747Y-64026D01*
X250802Y-63962D01*
X250867Y-63869D01*
X250941Y-63749D01*
X251024Y-63610D01*
X251098Y-63453D01*
X251163Y-63278D01*
Y-63268D01*
X251172Y-63250D01*
X251182Y-63222D01*
X251191Y-63185D01*
X251200Y-63139D01*
X251219Y-63074D01*
X251237Y-63009D01*
X251256Y-62936D01*
X251283Y-62751D01*
X251311Y-62538D01*
X251329Y-62298D01*
X251339Y-62039D01*
Y-62029D01*
Y-61992D01*
Y-61946D01*
X251329Y-61872D01*
Y-61789D01*
X251320Y-61697D01*
X251311Y-61586D01*
X251302Y-61475D01*
X251256Y-61225D01*
X251200Y-60966D01*
X251117Y-60726D01*
X251061Y-60606D01*
X251006Y-60504D01*
Y-60495D01*
X250987Y-60476D01*
X250969Y-60448D01*
X250951Y-60411D01*
X250877Y-60319D01*
X250784Y-60208D01*
X250664Y-60088D01*
X250525Y-59968D01*
X250368Y-59866D01*
X250202Y-59783D01*
X250183Y-59774D01*
X250137Y-59764D01*
X250054Y-59736D01*
X249933Y-59709D01*
X249785Y-59690D01*
X249601Y-59662D01*
X249490Y-59653D01*
X249370D01*
X249249Y-59644D01*
D02*
G37*
G36*
X-248186Y132457D02*
X-249666D01*
Y127576D01*
X-248150D01*
X-248085Y127585D01*
X-247946Y127594D01*
X-247789Y127603D01*
X-247623Y127622D01*
X-247456Y127650D01*
X-247317Y127687D01*
X-247299Y127696D01*
X-247253Y127705D01*
X-247188Y127733D01*
X-247105Y127770D01*
X-247012Y127825D01*
X-246920Y127881D01*
X-246827Y127945D01*
X-246735Y128020D01*
X-246726Y128038D01*
X-246689Y128075D01*
X-246633Y128140D01*
X-246569Y128232D01*
X-246495Y128352D01*
X-246411Y128491D01*
X-246337Y128648D01*
X-246273Y128824D01*
Y128833D01*
X-246263Y128852D01*
X-246254Y128879D01*
X-246245Y128916D01*
X-246236Y128962D01*
X-246217Y129027D01*
X-246199Y129092D01*
X-246180Y129166D01*
X-246152Y129351D01*
X-246125Y129564D01*
X-246106Y129804D01*
X-246097Y130063D01*
Y130072D01*
Y130109D01*
Y130155D01*
X-246106Y130229D01*
Y130312D01*
X-246115Y130405D01*
X-246125Y130516D01*
X-246134Y130627D01*
X-246180Y130876D01*
X-246236Y131135D01*
X-246319Y131376D01*
X-246374Y131496D01*
X-246430Y131597D01*
Y131607D01*
X-246448Y131625D01*
X-246467Y131653D01*
X-246485Y131690D01*
X-246559Y131782D01*
X-246652Y131893D01*
X-246772Y132014D01*
X-246911Y132134D01*
X-247068Y132235D01*
X-247234Y132319D01*
X-247253Y132328D01*
X-247299Y132337D01*
X-247382Y132365D01*
X-247502Y132393D01*
X-247650Y132411D01*
X-247835Y132439D01*
X-247946Y132448D01*
X-248066D01*
X-248186Y132457D01*
D02*
G37*
G36*
X-122918Y254042D02*
X-124934Y251176D01*
X-122918D01*
Y254042D01*
D02*
G37*
%LPD*%
D57*
X-190000Y132500D02*
G03*
X-190000Y132500I-2000J0D01*
G01*
X142000Y138500D02*
G03*
X142000Y138500I-2000J0D01*
G01*
X-153500Y136000D02*
Y150000D01*
X-178500D02*
X-153500D01*
X-178500Y136000D02*
Y150000D01*
X-153500Y-5000D02*
Y9000D01*
X-178500Y-5000D02*
X-153500D01*
X-178500D02*
Y9000D01*
X-166000Y70500D02*
Y74500D01*
X-168000Y72500D02*
X-164000D01*
X178500Y142000D02*
Y156000D01*
X153500D02*
X178500D01*
X153500Y142000D02*
Y156000D01*
X178500Y1000D02*
Y15000D01*
X153500Y1000D02*
X178500D01*
X153500D02*
Y15000D01*
X166000Y76500D02*
Y80500D01*
X164000Y78500D02*
X168000D01*
X88000Y212000D02*
X99000D01*
X88000Y232000D02*
X99000D01*
Y212000D02*
Y232000D01*
X-30000Y222000D02*
X-20000D01*
X-25000Y218000D02*
Y226000D01*
X-149000Y212000D02*
X-138000D01*
X-149000Y232000D02*
X-138000D01*
X-149000Y212000D02*
Y232000D01*
X-123844Y191996D02*
X-122844Y192996D01*
X-123844Y191996D02*
X-121844D01*
X-122844Y192996D02*
X-121844Y191996D01*
X-126344Y190996D02*
X-122844Y194496D01*
X-126344Y190996D02*
X-119344D01*
X-122844Y194496D02*
X-119344Y190996D01*
X-128844Y189996D02*
X-122844Y195996D01*
X-128844Y189996D02*
X-116844D01*
X-122844Y195996D02*
X-116844Y189996D01*
X270839Y-94629D02*
X271390Y-92708D01*
X253538Y-89668D02*
X270839Y-94629D01*
X253538Y-89668D02*
X254089Y-87747D01*
X254640Y-85823D01*
X254089Y-87747D02*
X271390Y-92708D01*
X271942Y-90784D01*
X282415Y-54257D01*
X265114Y-49296D02*
X282415Y-54257D01*
X254640Y-85823D02*
X265114Y-49296D01*
X254640Y-85823D02*
X271942Y-90784D01*
X267977Y-71962D02*
X269079Y-68117D01*
X266605Y-69489D02*
X270450Y-70591D01*
X-234420Y135513D02*
X-233274Y137150D01*
X-249164Y145836D02*
X-234420Y135513D01*
X-249164Y145836D02*
X-248017Y147473D01*
X-246869Y149113D01*
X-248017Y147473D02*
X-233274Y137150D01*
X-232126Y138790D01*
X-210331Y169916D01*
X-225074Y180240D02*
X-210331Y169916D01*
X-246869Y149113D02*
X-225074Y180240D01*
X-246869Y149113D02*
X-232126Y138790D01*
X-229747Y157876D02*
X-227453Y161153D01*
X-230238Y160662D02*
X-226962Y158367D01*
D58*
X239750Y-137305D02*
X242900Y-131849D01*
X239100Y-133350D02*
X243500Y-135890D01*
D59*
X247593Y-155920D02*
X256253Y-160920D01*
X247593Y-155920D02*
X256253Y-160920D01*
X247593Y-155920D02*
X256253Y-160920D01*
X247593Y-155920D02*
X256253Y-160920D01*
X262730Y-129903D02*
X271303Y-134853D01*
X262730Y-129903D02*
X271303Y-134853D01*
X262730Y-129903D02*
X271303Y-134853D01*
X262730Y-129903D02*
X271303Y-134853D01*
X256440Y-160797D02*
X271390Y-134903D01*
X256440Y-160797D02*
X271390Y-134903D01*
X256440Y-160797D02*
X271390Y-134903D01*
X256440Y-160797D02*
X271390Y-134903D01*
X243466Y-162868D02*
X266586Y-122823D01*
X217115Y-162110D02*
X226364Y-167450D01*
X228455Y-142469D02*
X241155Y-120472D01*
D60*
X247593Y-155920D02*
X256253Y-160920D01*
X247593Y-155920D02*
X256253Y-160920D01*
X247593Y-155920D02*
X256253Y-160920D01*
X247593Y-155920D02*
X256253Y-160920D01*
X262730Y-129903D02*
X271303Y-134853D01*
X262730Y-129903D02*
X271303Y-134853D01*
X262730Y-129903D02*
X271303Y-134853D01*
X262730Y-129903D02*
X271303Y-134853D01*
X256440Y-160797D02*
X271390Y-134903D01*
X256440Y-160797D02*
X271390Y-134903D01*
X256440Y-160797D02*
X271390Y-134903D01*
X256440Y-160797D02*
X271390Y-134903D01*
X248775Y-107274D02*
X252715Y-100449D01*
X217115Y-162110D02*
X222105Y-153467D01*
X252715Y-100449D02*
X261583Y-105569D01*
D61*
X211418Y157602D02*
X217150Y160095D01*
X211418Y157602D02*
X220988Y135593D01*
X250954Y66676D02*
X260424Y44896D01*
X266156Y47388D01*
X252078Y156254D02*
X287168Y75553D01*
X197632Y124549D02*
X204211Y121958D01*
X197632Y124549D02*
X201619Y115379D01*
X204211Y121958D01*
M02*
