G04*
G04 #@! TF.GenerationSoftware,Altium Limited,Altium Designer,20.0.2 (26)*
G04*
G04 Layer_Color=8388736*
%FSLAX44Y44*%
%MOMM*%
G71*
G01*
G75*
%ADD45C,1.0000*%
%ADD46R,1.0922X1.2192*%
%ADD47R,0.8032X0.7032*%
%ADD48R,1.0160X1.0160*%
%ADD49R,1.8034X1.4986*%
%ADD50R,0.7032X0.8032*%
%ADD51R,1.4986X1.8034*%
%ADD52R,1.6002X1.6002*%
%ADD53R,1.8032X1.4032*%
%ADD54R,2.2352X0.8128*%
%ADD55O,2.2352X0.8128*%
%ADD56R,3.4832X2.6032*%
%ADD57O,0.5532X2.2032*%
%ADD58R,1.2700X1.0160*%
%ADD59R,1.0160X1.2700*%
%ADD60R,0.7032X1.9032*%
G04:AMPARAMS|DCode=61|XSize=0.6032mm|YSize=1.9032mm|CornerRadius=0.2016mm|HoleSize=0mm|Usage=FLASHONLY|Rotation=0.000|XOffset=0mm|YOffset=0mm|HoleType=Round|Shape=RoundedRectangle|*
%AMROUNDEDRECTD61*
21,1,0.6032,1.5000,0,0,0.0*
21,1,0.2000,1.9032,0,0,0.0*
1,1,0.4032,0.1000,-0.7500*
1,1,0.4032,-0.1000,-0.7500*
1,1,0.4032,-0.1000,0.7500*
1,1,0.4032,0.1000,0.7500*
%
%ADD61ROUNDEDRECTD61*%
%ADD62R,0.6032X1.9032*%
%ADD63R,2.0032X1.4032*%
%ADD64R,6.5032X2.3532*%
G04:AMPARAMS|DCode=65|XSize=2.2032mm|YSize=2.2032mm|CornerRadius=0mm|HoleSize=0mm|Usage=FLASHONLY|Rotation=0.000|XOffset=0mm|YOffset=0mm|HoleType=Round|Shape=RoundedRectangle|*
%AMROUNDEDRECTD65*
21,1,2.2032,2.2032,0,0,0.0*
21,1,2.2032,2.2032,0,0,0.0*
1,1,0.0000,1.1016,-1.1016*
1,1,0.0000,-1.1016,-1.1016*
1,1,0.0000,-1.1016,1.1016*
1,1,0.0000,1.1016,1.1016*
%
%ADD65ROUNDEDRECTD65*%
%ADD66R,1.0032X2.3032*%
%ADD67R,2.3032X3.2032*%
%ADD68R,1.7232X0.9632*%
%ADD69R,1.8032X1.2032*%
%ADD70R,3.2032X2.3032*%
%ADD71R,2.3032X1.0032*%
G04:AMPARAMS|DCode=72|XSize=0.5232mm|YSize=1.9032mm|CornerRadius=0.1816mm|HoleSize=0mm|Usage=FLASHONLY|Rotation=0.000|XOffset=0mm|YOffset=0mm|HoleType=Round|Shape=RoundedRectangle|*
%AMROUNDEDRECTD72*
21,1,0.5232,1.5400,0,0,0.0*
21,1,0.1600,1.9032,0,0,0.0*
1,1,0.3632,0.0800,-0.7700*
1,1,0.3632,-0.0800,-0.7700*
1,1,0.3632,-0.0800,0.7700*
1,1,0.3632,0.0800,0.7700*
%
%ADD72ROUNDEDRECTD72*%
%ADD73C,1.2032*%
G04:AMPARAMS|DCode=74|XSize=4.2032mm|YSize=4.2032mm|CornerRadius=2.1016mm|HoleSize=0mm|Usage=FLASHONLY|Rotation=0.000|XOffset=0mm|YOffset=0mm|HoleType=Round|Shape=RoundedRectangle|*
%AMROUNDEDRECTD74*
21,1,4.2032,0.0000,0,0,0.0*
21,1,0.0000,4.2032,0,0,0.0*
1,1,4.2032,0.0000,0.0000*
1,1,4.2032,0.0000,0.0000*
1,1,4.2032,0.0000,0.0000*
1,1,4.2032,0.0000,0.0000*
%
%ADD74ROUNDEDRECTD74*%
D45*
X-47227Y311440D02*
G03*
X-312249Y41541I47227J-311440D01*
G01*
X313011Y35340D02*
G03*
X45794Y311653I-313011J-35340D01*
G01*
X-312995Y-35481D02*
G03*
X-43127Y-312034I312995J35481D01*
G01*
X40633Y-312368D02*
G03*
X312278Y-41323I-40633J312368D01*
G01*
D46*
X109923Y47915D02*
D03*
X93921D02*
D03*
D47*
X223520Y41220D02*
D03*
Y50220D02*
D03*
X200901Y-142820D02*
D03*
Y-151820D02*
D03*
X285750Y-69270D02*
D03*
Y-60270D02*
D03*
X149860Y-117420D02*
D03*
Y-126420D02*
D03*
X162560D02*
D03*
Y-117420D02*
D03*
X285750Y-90860D02*
D03*
Y-81860D02*
D03*
X61370Y43415D02*
D03*
Y52415D02*
D03*
X48260Y42490D02*
D03*
Y51490D02*
D03*
X35560Y42414D02*
D03*
Y51414D02*
D03*
X-169075Y16900D02*
D03*
Y25900D02*
D03*
X210930Y41220D02*
D03*
Y50220D02*
D03*
X-111070Y98480D02*
D03*
Y89480D02*
D03*
X204470Y-16375D02*
D03*
Y-7375D02*
D03*
X242570Y166950D02*
D03*
Y175950D02*
D03*
X279400Y102000D02*
D03*
Y93000D02*
D03*
X-57730Y183570D02*
D03*
Y174570D02*
D03*
X-257160Y72500D02*
D03*
Y81500D02*
D03*
Y61650D02*
D03*
Y52650D02*
D03*
D48*
X-42567Y27960D02*
D03*
X-57807D02*
D03*
X169989Y-151130D02*
D03*
X185229D02*
D03*
D49*
X199390Y-72390D02*
D03*
X224790D02*
D03*
X245852Y-151920D02*
D03*
X220452D02*
D03*
D50*
X128850Y-102870D02*
D03*
X137850D02*
D03*
Y-117420D02*
D03*
X128850D02*
D03*
X-9580Y127340D02*
D03*
X-580D02*
D03*
X9580Y-176530D02*
D03*
X580D02*
D03*
X-9580Y101940D02*
D03*
X-580D02*
D03*
X-9580Y114300D02*
D03*
X-580D02*
D03*
X-70461Y-161630D02*
D03*
X-61461D02*
D03*
X-70540Y-144780D02*
D03*
X-61540D02*
D03*
X46370Y-161630D02*
D03*
X37370D02*
D03*
X183760Y144780D02*
D03*
X174760D02*
D03*
X16330Y96520D02*
D03*
X25330D02*
D03*
X211510Y28866D02*
D03*
X202510D02*
D03*
X50220Y158750D02*
D03*
X41220D02*
D03*
X130230Y161290D02*
D03*
X121230D02*
D03*
X130230Y148590D02*
D03*
X121230D02*
D03*
X-111070Y275590D02*
D03*
X-120070D02*
D03*
X-165100Y147320D02*
D03*
X-174100D02*
D03*
X165680Y-31750D02*
D03*
X174680D02*
D03*
X-82440Y-144780D02*
D03*
X-91440D02*
D03*
X-19740Y-176530D02*
D03*
X-10740D02*
D03*
X-61885Y-119380D02*
D03*
X-70885D02*
D03*
X-61540Y-132027D02*
D03*
X-70540D02*
D03*
X-120070Y127340D02*
D03*
X-111070D02*
D03*
Y140970D02*
D03*
X-120070D02*
D03*
D51*
X267970Y-80010D02*
D03*
Y-105410D02*
D03*
D52*
X96922Y-240475D02*
D03*
Y-262065D02*
D03*
X73980Y-240475D02*
D03*
Y-262065D02*
D03*
X233810Y27305D02*
D03*
Y5715D02*
D03*
D53*
X-72730Y-261688D02*
D03*
Y-229688D02*
D03*
D54*
X184860Y-92369D02*
D03*
X-88371Y127340D02*
D03*
X17640Y-161630D02*
D03*
D55*
X184860Y-105070D02*
D03*
Y-117769D02*
D03*
Y-130470D02*
D03*
X240740D02*
D03*
Y-117769D02*
D03*
Y-105070D02*
D03*
Y-92369D02*
D03*
X-32490Y127340D02*
D03*
Y114641D02*
D03*
Y101940D02*
D03*
Y89241D02*
D03*
X-88371D02*
D03*
Y101940D02*
D03*
Y114641D02*
D03*
X-38240Y-161630D02*
D03*
Y-148931D02*
D03*
Y-136230D02*
D03*
Y-123531D02*
D03*
X17640D02*
D03*
Y-136230D02*
D03*
Y-148931D02*
D03*
D56*
X233680Y104140D02*
D03*
X71120D02*
D03*
D57*
X197930Y75140D02*
D03*
X204430D02*
D03*
X197930Y133140D02*
D03*
X204430D02*
D03*
X262930Y75140D02*
D03*
X269430D02*
D03*
X262930Y133140D02*
D03*
X269430D02*
D03*
X256430D02*
D03*
X249930D02*
D03*
X243430D02*
D03*
X236930D02*
D03*
X230430D02*
D03*
X223930D02*
D03*
X217430D02*
D03*
X210930D02*
D03*
X256430Y75140D02*
D03*
X249930D02*
D03*
X243430D02*
D03*
X236930D02*
D03*
X230430D02*
D03*
X223930D02*
D03*
X217430D02*
D03*
X210930D02*
D03*
X48370D02*
D03*
X54870D02*
D03*
X61370D02*
D03*
X67870D02*
D03*
X74370D02*
D03*
X80870D02*
D03*
X87370D02*
D03*
X93870D02*
D03*
X48370Y133140D02*
D03*
X54870D02*
D03*
X61370D02*
D03*
X67870D02*
D03*
X74370D02*
D03*
X80870D02*
D03*
X87370D02*
D03*
X93870D02*
D03*
X106870D02*
D03*
X100370D02*
D03*
X106870Y75140D02*
D03*
X100370D02*
D03*
X41870Y133140D02*
D03*
X35370D02*
D03*
X41870Y75140D02*
D03*
X35370D02*
D03*
D58*
X-107988Y-151079D02*
D03*
X-130924Y-160617D02*
D03*
Y-141542D02*
D03*
X213436Y-41288D02*
D03*
X190500Y-50825D02*
D03*
Y-31750D02*
D03*
X-21287Y153701D02*
D03*
Y172777D02*
D03*
X-44223Y163239D02*
D03*
D59*
X-29908Y206896D02*
D03*
X-10833D02*
D03*
X-20371Y229832D02*
D03*
D60*
X-32000Y-232710D02*
D03*
Y-206710D02*
D03*
X32000D02*
D03*
Y-232710D02*
D03*
X81770Y-67310D02*
D03*
Y-93310D02*
D03*
X-132230D02*
D03*
Y-67310D02*
D03*
D61*
X22500Y-206710D02*
D03*
X12500D02*
D03*
X2500D02*
D03*
X-7500D02*
D03*
X-17500D02*
D03*
X17500Y-232710D02*
D03*
X7500D02*
D03*
X-2500D02*
D03*
X-12500D02*
D03*
D62*
X-22500D02*
D03*
D63*
X-154160Y224833D02*
D03*
Y250233D02*
D03*
X-64160Y250233D02*
D03*
X-64160Y224833D02*
D03*
D64*
X86360Y-202360D02*
D03*
Y-160860D02*
D03*
D65*
X-152216Y-229870D02*
D03*
X-108216D02*
D03*
D66*
X76300Y197860D02*
D03*
X114200D02*
D03*
X101500D02*
D03*
X89000D02*
D03*
X126900D02*
D03*
X139600D02*
D03*
X63600D02*
D03*
X50900D02*
D03*
D67*
X165650Y228860D02*
D03*
X24850D02*
D03*
D68*
X-166370Y-147233D02*
D03*
Y-134550D02*
D03*
Y-121850D02*
D03*
Y-83750D02*
D03*
Y-71050D02*
D03*
Y-58350D02*
D03*
X-255270Y-58490D02*
D03*
Y-71190D02*
D03*
Y-83890D02*
D03*
Y-121990D02*
D03*
Y-134690D02*
D03*
Y-147390D02*
D03*
D69*
X-149860Y167640D02*
D03*
Y193040D02*
D03*
X-81860Y193040D02*
D03*
Y167640D02*
D03*
D70*
X-229970Y19050D02*
D03*
X-229970Y134450D02*
D03*
D71*
X-198970Y45300D02*
D03*
X-198970Y57800D02*
D03*
X-198970Y95700D02*
D03*
X-198970Y108200D02*
D03*
X-198970Y83000D02*
D03*
X-198970Y70500D02*
D03*
D72*
X17270Y-93310D02*
D03*
X27270D02*
D03*
X37270D02*
D03*
X22270Y-67310D02*
D03*
X32270D02*
D03*
X42270D02*
D03*
X72270D02*
D03*
X62270D02*
D03*
X52270D02*
D03*
X67270Y-93310D02*
D03*
X57270D02*
D03*
X47270D02*
D03*
X-42730D02*
D03*
X-32730D02*
D03*
X-22730D02*
D03*
X-12730D02*
D03*
X-2730D02*
D03*
X7270D02*
D03*
X-37730Y-67310D02*
D03*
X-27730D02*
D03*
X-17730D02*
D03*
X-7730D02*
D03*
X2270D02*
D03*
X12270D02*
D03*
X-47730D02*
D03*
X-57730D02*
D03*
X-67730D02*
D03*
X-77730D02*
D03*
X-87730D02*
D03*
X-97730D02*
D03*
X-107730D02*
D03*
X-117730D02*
D03*
X-52730Y-93310D02*
D03*
X-62730D02*
D03*
X-72730D02*
D03*
X-82730D02*
D03*
X-92730D02*
D03*
X-102730D02*
D03*
X-112730D02*
D03*
X-122730D02*
D03*
D73*
X-279400Y57150D02*
D03*
Y76200D02*
D03*
D74*
X-190000Y-190000D02*
D03*
X190000D02*
D03*
Y190000D02*
D03*
X-190000D02*
D03*
M02*
