G04*
G04 #@! TF.GenerationSoftware,Altium Limited,Altium Designer,20.0.2 (26)*
G04*
G04 Layer_Color=16711935*
%FSLAX44Y44*%
%MOMM*%
G71*
G01*
G75*
%ADD45C,1.0000*%
%ADD46R,1.0922X1.2192*%
%ADD47R,0.8032X0.7032*%
%ADD50R,0.7032X0.8032*%
%ADD70R,3.2032X2.3032*%
%ADD71R,2.3032X1.0032*%
%ADD73C,1.2032*%
G04:AMPARAMS|DCode=74|XSize=4.2032mm|YSize=4.2032mm|CornerRadius=2.1016mm|HoleSize=0mm|Usage=FLASHONLY|Rotation=0.000|XOffset=0mm|YOffset=0mm|HoleType=Round|Shape=RoundedRectangle|*
%AMROUNDEDRECTD74*
21,1,4.2032,0.0000,0,0,0.0*
21,1,0.0000,4.2032,0,0,0.0*
1,1,4.2032,0.0000,0.0000*
1,1,4.2032,0.0000,0.0000*
1,1,4.2032,0.0000,0.0000*
1,1,4.2032,0.0000,0.0000*
%
%ADD74ROUNDEDRECTD74*%
%ADD94R,1.0160X1.0160*%
G04:AMPARAMS|DCode=95|XSize=3.2032mm|YSize=2.3032mm|CornerRadius=0mm|HoleSize=0mm|Usage=FLASHONLY|Rotation=295.000|XOffset=0mm|YOffset=0mm|HoleType=Round|Shape=Rectangle|*
%AMROTATEDRECTD95*
4,1,4,-1.7206,0.9649,0.3668,1.9382,1.7206,-0.9649,-0.3668,-1.9382,-1.7206,0.9649,0.0*
%
%ADD95ROTATEDRECTD95*%

G04:AMPARAMS|DCode=96|XSize=2.3032mm|YSize=1.0032mm|CornerRadius=0mm|HoleSize=0mm|Usage=FLASHONLY|Rotation=295.000|XOffset=0mm|YOffset=0mm|HoleType=Round|Shape=Rectangle|*
%AMROTATEDRECTD96*
4,1,4,-0.9413,0.8317,-0.0321,1.2557,0.9413,-0.8317,0.0321,-1.2557,-0.9413,0.8317,0.0*
%
%ADD96ROTATEDRECTD96*%

%ADD97R,0.8032X0.9032*%
%ADD98R,1.5532X0.5032*%
%ADD99R,1.5532X0.4532*%
G04:AMPARAMS|DCode=100|XSize=2.3032mm|YSize=1.0032mm|CornerRadius=0mm|HoleSize=0mm|Usage=FLASHONLY|Rotation=65.000|XOffset=0mm|YOffset=0mm|HoleType=Round|Shape=Rectangle|*
%AMROTATEDRECTD100*
4,1,4,-0.0321,-1.2557,-0.9413,-0.8317,0.0321,1.2557,0.9413,0.8317,-0.0321,-1.2557,0.0*
%
%ADD100ROTATEDRECTD100*%

G04:AMPARAMS|DCode=101|XSize=3.2032mm|YSize=2.3032mm|CornerRadius=0mm|HoleSize=0mm|Usage=FLASHONLY|Rotation=65.000|XOffset=0mm|YOffset=0mm|HoleType=Round|Shape=Rectangle|*
%AMROTATEDRECTD101*
4,1,4,0.3668,-1.9382,-1.7206,-0.9649,-0.3668,1.9382,1.7206,0.9649,0.3668,-1.9382,0.0*
%
%ADD101ROTATEDRECTD101*%

%ADD102R,1.2192X1.0922*%
G04:AMPARAMS|DCode=103|XSize=2.3032mm|YSize=1.0032mm|CornerRadius=0mm|HoleSize=0mm|Usage=FLASHONLY|Rotation=330.000|XOffset=0mm|YOffset=0mm|HoleType=Round|Shape=Rectangle|*
%AMROTATEDRECTD103*
4,1,4,-1.2481,0.1414,-0.7465,1.0102,1.2481,-0.1414,0.7465,-1.0102,-1.2481,0.1414,0.0*
%
%ADD103ROTATEDRECTD103*%

G04:AMPARAMS|DCode=104|XSize=3.2032mm|YSize=2.3032mm|CornerRadius=0mm|HoleSize=0mm|Usage=FLASHONLY|Rotation=330.000|XOffset=0mm|YOffset=0mm|HoleType=Round|Shape=Rectangle|*
%AMROTATEDRECTD104*
4,1,4,-1.9628,-0.1965,-0.8112,1.7981,1.9628,0.1965,0.8112,-1.7981,-1.9628,-0.1965,0.0*
%
%ADD104ROTATEDRECTD104*%

D45*
X-48668Y311218D02*
G03*
X-312249Y41541I48668J-311218D01*
G01*
X313297Y32714D02*
G03*
X44548Y311834I-313297J-32714D01*
G01*
X-312887Y-36424D02*
G03*
X-39542Y-312508I312887J36424D01*
G01*
X39542D02*
G03*
X312683Y-38132I-39542J312508D01*
G01*
D46*
X267081Y59690D02*
D03*
X251079D02*
D03*
X-275971Y-87630D02*
D03*
X-259969D02*
D03*
X-275971Y-118110D02*
D03*
X-259969D02*
D03*
X-231101Y-45974D02*
D03*
X-215099D02*
D03*
D47*
X-82550Y43870D02*
D03*
Y34870D02*
D03*
X-69850D02*
D03*
Y43870D02*
D03*
Y22280D02*
D03*
Y13280D02*
D03*
X-95250Y43870D02*
D03*
Y34870D02*
D03*
X-107950Y43870D02*
D03*
Y34870D02*
D03*
X-120650Y43870D02*
D03*
Y34870D02*
D03*
X-93980Y179760D02*
D03*
Y170760D02*
D03*
X223930Y137640D02*
D03*
Y128640D02*
D03*
X-118110Y142930D02*
D03*
Y133930D02*
D03*
X217430Y50220D02*
D03*
Y41220D02*
D03*
X233680Y68000D02*
D03*
Y77000D02*
D03*
X80870Y152980D02*
D03*
Y161980D02*
D03*
X-107950Y-151336D02*
D03*
Y-142336D02*
D03*
Y179760D02*
D03*
Y170760D02*
D03*
X-120650Y179760D02*
D03*
Y170760D02*
D03*
X-50187Y207146D02*
D03*
Y216146D02*
D03*
X243430Y161290D02*
D03*
Y152290D02*
D03*
X54870Y42490D02*
D03*
Y51490D02*
D03*
X-209550Y4500D02*
D03*
Y-4500D02*
D03*
X-130810Y-126490D02*
D03*
Y-117490D02*
D03*
D50*
X161980Y-102870D02*
D03*
X152980D02*
D03*
X-221560Y70676D02*
D03*
X-230560D02*
D03*
X88320Y57150D02*
D03*
X79320D02*
D03*
X211400Y90170D02*
D03*
X220400D02*
D03*
X-18470Y207010D02*
D03*
X-9470D02*
D03*
X-3230Y177800D02*
D03*
X5770D02*
D03*
X-130230Y157480D02*
D03*
X-121230D02*
D03*
X-41220Y229870D02*
D03*
X-50220D02*
D03*
X-250770Y-134690D02*
D03*
X-259770D02*
D03*
X-250770Y-71190D02*
D03*
X-259770D02*
D03*
X-9470Y194310D02*
D03*
X-18470D02*
D03*
X5770Y153701D02*
D03*
X-3230D02*
D03*
D70*
X266579Y-54010D02*
D03*
Y-131410D02*
D03*
D71*
X235579Y-105210D02*
D03*
Y-92710D02*
D03*
Y-80210D02*
D03*
D73*
X-279400Y57150D02*
D03*
Y76200D02*
D03*
D74*
X-190000Y-190000D02*
D03*
X190000D02*
D03*
Y190000D02*
D03*
X-190000D02*
D03*
D94*
X233999Y33020D02*
D03*
Y17780D02*
D03*
D95*
X-78354Y286752D02*
D03*
X-182942Y237982D02*
D03*
D96*
X-89043Y247563D02*
D03*
X-100372Y242280D02*
D03*
X-134721Y226263D02*
D03*
X-146050Y220980D02*
D03*
X-123211Y231630D02*
D03*
X-111882Y236913D02*
D03*
D97*
X-29960Y229870D02*
D03*
X-15760D02*
D03*
D98*
X-180750Y18250D02*
D03*
X-151250D02*
D03*
X-180750Y138750D02*
D03*
X-151250D02*
D03*
X151250Y12250D02*
D03*
X180750D02*
D03*
X151250Y132750D02*
D03*
X180750D02*
D03*
D99*
X-180750Y23500D02*
D03*
X-151250D02*
D03*
X-180750Y28500D02*
D03*
X-151250D02*
D03*
X-180750Y33500D02*
D03*
X-151250D02*
D03*
X-180750Y38500D02*
D03*
X-151250D02*
D03*
X-180750Y43500D02*
D03*
X-151250D02*
D03*
X-180750Y48500D02*
D03*
X-151250D02*
D03*
X-180750Y53500D02*
D03*
X-151250D02*
D03*
X-180750Y58500D02*
D03*
X-151250D02*
D03*
X-180750Y63500D02*
D03*
X-151250D02*
D03*
X-180750Y68500D02*
D03*
X-151250D02*
D03*
X-180750Y73500D02*
D03*
X-151250D02*
D03*
X-180750Y78500D02*
D03*
X-151250D02*
D03*
X-180750Y83500D02*
D03*
X-151250D02*
D03*
X-180750Y88500D02*
D03*
X-151250D02*
D03*
X-180750Y93500D02*
D03*
X-151250D02*
D03*
X-180750Y98500D02*
D03*
X-151250D02*
D03*
X-180750Y103500D02*
D03*
X-151250D02*
D03*
X-180750Y108500D02*
D03*
X-151250D02*
D03*
X-180750Y113500D02*
D03*
X-151250D02*
D03*
X-180750Y118500D02*
D03*
X-151250D02*
D03*
X-180750Y123500D02*
D03*
X-151250D02*
D03*
X-180750Y128500D02*
D03*
X-151250D02*
D03*
X-180750Y133500D02*
D03*
X-151250D02*
D03*
X151250Y17500D02*
D03*
X180750D02*
D03*
X151250Y22500D02*
D03*
X180750D02*
D03*
X151250Y27500D02*
D03*
X180750D02*
D03*
X151250Y32500D02*
D03*
X180750D02*
D03*
X151250Y37500D02*
D03*
X180750D02*
D03*
X151250Y42500D02*
D03*
X180750D02*
D03*
X151250Y47500D02*
D03*
X180750D02*
D03*
X151250Y52500D02*
D03*
X180750D02*
D03*
X151250Y57500D02*
D03*
X180750D02*
D03*
X151250Y62500D02*
D03*
X180750D02*
D03*
X151250Y67500D02*
D03*
X180750D02*
D03*
X151250Y72500D02*
D03*
X180750D02*
D03*
X151250Y77500D02*
D03*
X180750D02*
D03*
X151250Y82500D02*
D03*
X180750D02*
D03*
X151250Y87500D02*
D03*
X180750D02*
D03*
X151250Y92500D02*
D03*
X180750D02*
D03*
X151250Y97500D02*
D03*
X180750D02*
D03*
X151250Y102500D02*
D03*
X180750D02*
D03*
X151250Y107500D02*
D03*
X180750D02*
D03*
X151250Y112500D02*
D03*
X180750D02*
D03*
X151250Y117500D02*
D03*
X180750D02*
D03*
X151250Y122500D02*
D03*
X180750D02*
D03*
X151250Y127500D02*
D03*
X180750D02*
D03*
D100*
X-151010Y-219939D02*
D03*
X-139500Y-225306D02*
D03*
X-70620Y-257425D02*
D03*
X-82131Y-252058D02*
D03*
X-116480Y-236041D02*
D03*
X-105151Y-241324D02*
D03*
X-93641Y-246691D02*
D03*
X-127990Y-230674D02*
D03*
D101*
X-187720Y-237025D02*
D03*
X-60112Y-296530D02*
D03*
D102*
X233999Y-23241D02*
D03*
Y-7239D02*
D03*
D103*
X-234712Y108092D02*
D03*
X-228462Y118917D02*
D03*
X-222212Y129743D02*
D03*
X-215962Y140568D02*
D03*
D104*
X-229683Y178801D02*
D03*
X-274683Y100859D02*
D03*
M02*
