G04*
G04 #@! TF.GenerationSoftware,Altium Limited,Altium Designer,20.0.2 (26)*
G04*
G04 Layer_Color=2752767*
%FSLAX44Y44*%
%MOMM*%
G71*
G01*
G75*
%ADD105C,0.0508*%
%ADD106C,0.0677*%
D105*
X-281432Y55118D02*
Y59182D01*
X-277368D01*
Y55118D01*
X-281432D01*
Y74168D02*
Y78232D01*
X-277368D01*
Y74168D01*
X-281432D01*
X154777Y-215922D02*
X152745Y-211858D01*
X156809D01*
X154777Y-215922D01*
X191660Y70468D02*
X189628Y74532D01*
X193692D01*
X191660Y70468D01*
X-99622Y18288D02*
X-101655Y22352D01*
X-97591D01*
X-99622Y18288D01*
X-25023Y9158D02*
X-27055Y13222D01*
X-22991D01*
X-25023Y9158D01*
X-54674Y408D02*
X-56706Y4471D01*
X-52642D01*
X-54674Y408D01*
X-3080Y165608D02*
X-5112Y169672D01*
X-1048D01*
X-3080Y165608D01*
X-155130Y144775D02*
X-157162Y148839D01*
X-153098D01*
X-155130Y144775D01*
X-129540Y-262449D02*
X-131572Y-258386D01*
X-127508D01*
X-129540Y-262449D01*
X-107950Y-275082D02*
X-109982Y-271018D01*
X-105918D01*
X-107950Y-275082D01*
X71120Y45468D02*
X69088Y49532D01*
X73152D01*
X71120Y45468D01*
X-79075Y-121412D02*
X-81107Y-117348D01*
X-77043D01*
X-79075Y-121412D01*
X222250Y-9271D02*
X220218Y-5207D01*
X224282D01*
X222250Y-9271D01*
X163171Y-21082D02*
X161138Y-17018D01*
X165203D01*
X163171Y-21082D01*
X212814Y-35363D02*
X210782Y-31299D01*
X214846D01*
X212814Y-35363D01*
X233680Y50038D02*
X231648Y54102D01*
X235712D01*
X233680Y50038D01*
X180340Y-12170D02*
X178308Y-8106D01*
X182372D01*
X180340Y-12170D01*
X103346Y-139105D02*
X101314Y-135041D01*
X105378D01*
X103346Y-139105D01*
X-1167Y-80772D02*
X-3199Y-76708D01*
X865D01*
X-1167Y-80772D01*
X-310Y-51982D02*
X-2342Y-47918D01*
X1722D01*
X-310Y-51982D01*
X240665Y107619D02*
X238633Y111683D01*
X242697D01*
X240665Y107619D01*
Y95468D02*
X238633Y99532D01*
X242697D01*
X240665Y95468D01*
X224790D02*
X222758Y99532D01*
X226822D01*
X224790Y95468D01*
X225200Y107899D02*
X223168Y111963D01*
X227232D01*
X225200Y107899D01*
X228970Y-193802D02*
X226938Y-189738D01*
X231002D01*
X228970Y-193802D01*
X124460Y-257757D02*
X122428Y-253693D01*
X126492D01*
X124460Y-257757D01*
X89694Y-290322D02*
X87662Y-286258D01*
X91726D01*
X89694Y-290322D01*
X-102529Y87208D02*
X-104562Y91272D01*
X-100498D01*
X-102529Y87208D01*
X-7930Y28088D02*
X-9962Y32152D01*
X-5898D01*
X-7930Y28088D01*
X-69850Y26543D02*
X-71882Y30607D01*
X-67818D01*
X-69850Y26543D01*
X-50800Y48768D02*
X-52832Y52832D01*
X-48768D01*
X-50800Y48768D01*
X156210Y-61722D02*
X154178Y-57658D01*
X158242D01*
X156210Y-61722D01*
X151480Y-30067D02*
X149448Y-26003D01*
X153512D01*
X151480Y-30067D01*
X169928Y-24328D02*
X167896Y-20264D01*
X171960D01*
X169928Y-24328D01*
X175260Y-18940D02*
X173228Y-14876D01*
X177292D01*
X175260Y-18940D01*
X157480Y-45281D02*
X155448Y-41217D01*
X159512D01*
X157480Y-45281D01*
X217170Y-107442D02*
X215138Y-103378D01*
X219202D01*
X217170Y-107442D01*
X-41910Y18288D02*
X-43942Y22352D01*
X-39878D01*
X-41910Y18288D01*
X-132230Y2502D02*
X-134262Y6566D01*
X-130198D01*
X-132230Y2502D01*
X-132080Y14478D02*
X-134112Y18542D01*
X-130048D01*
X-132080Y14478D01*
X-140170Y51468D02*
X-142202Y55532D01*
X-138138D01*
X-140170Y51468D01*
X47220Y-4572D02*
X45188Y-508D01*
X49252D01*
X47220Y-4572D01*
X42270Y-56752D02*
X40238Y-52688D01*
X44302D01*
X42270Y-56752D01*
X52270Y1778D02*
X50238Y5842D01*
X54302D01*
X52270Y1778D01*
X62230D02*
X60198Y5842D01*
X64262D01*
X62230Y1778D01*
X52270Y-56752D02*
X50238Y-52688D01*
X54302D01*
X52270Y-56752D01*
X57270Y-4572D02*
X55238Y-508D01*
X59302D01*
X57270Y-4572D01*
X62270Y-56752D02*
X60238Y-52688D01*
X64302D01*
X62270Y-56752D01*
X42270Y1778D02*
X40238Y5842D01*
X44302D01*
X42270Y1778D01*
X143510Y-104919D02*
X141478Y-100855D01*
X145542D01*
X143510Y-104919D01*
X80870Y-45212D02*
X78838Y-41148D01*
X82902D01*
X80870Y-45212D01*
X-238760Y43268D02*
X-240792Y47332D01*
X-236728D01*
X-238760Y43268D01*
X-59433Y-231902D02*
X-61465Y-227838D01*
X-57401D01*
X-59433Y-231902D01*
X251260Y-82242D02*
X249228Y-78178D01*
X253292D01*
X251260Y-82242D01*
X245110Y-66802D02*
X243078Y-62738D01*
X247142D01*
X245110Y-66802D01*
X60904Y-289052D02*
X58872Y-284988D01*
X62936D01*
X60904Y-289052D01*
X-1270Y-116332D02*
X-3302Y-112268D01*
X762D01*
X-1270Y-116332D01*
X95250Y-228982D02*
X93218Y-224918D01*
X97282D01*
X95250Y-228982D01*
X72390Y-229172D02*
X70358Y-225108D01*
X74422D01*
X72390Y-229172D01*
Y-219202D02*
X70358Y-215138D01*
X74422D01*
X72390Y-219202D01*
X-107950Y-160782D02*
X-109982Y-156718D01*
X-105918D01*
X-107950Y-160782D01*
Y-135382D02*
X-109982Y-131318D01*
X-105918D01*
X-107950Y-135382D01*
X-130810Y-136582D02*
X-132842Y-132518D01*
X-128778D01*
X-130810Y-136582D01*
X297180Y-66802D02*
X295148Y-62738D01*
X299212D01*
X297180Y-66802D01*
X-1270Y-129032D02*
X-3302Y-124968D01*
X762D01*
X-1270Y-129032D01*
X95250Y-219202D02*
X93218Y-215138D01*
X97282D01*
X95250Y-219202D01*
X-10740Y-143574D02*
X-12772Y-139509D01*
X-8708D01*
X-10740Y-143574D01*
X62234Y96846D02*
X60202Y100910D01*
X64266D01*
X62234Y96846D01*
X77470D02*
X75438Y100910D01*
X79502D01*
X77470Y96846D01*
Y107701D02*
X75438Y111765D01*
X79502D01*
X77470Y107701D01*
X62230Y107899D02*
X60198Y111963D01*
X64262D01*
X62230Y107899D01*
X35370Y111188D02*
X33338Y115252D01*
X37402D01*
X35370Y111188D01*
X143510Y151972D02*
X141478Y156036D01*
X145542D01*
X143510Y151972D01*
X121560Y51308D02*
X119528Y55372D01*
X123592D01*
X121560Y51308D01*
X129999Y62738D02*
X127966Y66802D01*
X132030D01*
X129999Y62738D01*
X161640Y65468D02*
X159608Y69532D01*
X163672D01*
X161640Y65468D01*
X165011Y75438D02*
X162979Y79502D01*
X167043D01*
X165011Y75438D01*
X169882Y80468D02*
X167850Y84532D01*
X171914D01*
X169882Y80468D01*
X161640Y55468D02*
X159608Y59532D01*
X163672D01*
X161640Y55468D01*
X165011Y95468D02*
X162979Y99532D01*
X167043D01*
X165011Y95468D01*
X169882Y90468D02*
X167850Y94532D01*
X171914D01*
X169882Y90468D01*
X95763Y-51562D02*
X93731Y-47498D01*
X97795D01*
X95763Y-51562D01*
X-155740Y-202020D02*
X-157772Y-197956D01*
X-153708D01*
X-155740Y-202020D01*
X-262890Y121740D02*
X-264922Y125804D01*
X-260858D01*
X-262890Y121740D01*
X-204470Y119025D02*
X-206502Y123089D01*
X-202438D01*
X-204470Y119025D01*
X-168910Y31528D02*
X-170942Y35592D01*
X-166878D01*
X-168910Y31528D01*
X-165700Y42418D02*
X-167732Y46482D01*
X-163668D01*
X-165700Y42418D01*
X-147320Y-27432D02*
X-149352Y-23368D01*
X-145288D01*
X-147320Y-27432D01*
X-275590Y-55626D02*
X-277622Y-51562D01*
X-273558D01*
X-275590Y-55626D01*
X-220443Y-73222D02*
X-222475Y-69158D01*
X-218411D01*
X-220443Y-73222D01*
X-204470Y-101092D02*
X-206502Y-97028D01*
X-202438D01*
X-204470Y-101092D01*
X-156115Y-104902D02*
X-158147Y-100838D01*
X-154083D01*
X-156115Y-104902D01*
X-144780Y-137922D02*
X-146812Y-133858D01*
X-142748D01*
X-144780Y-137922D01*
X-87630Y-183642D02*
X-89662Y-179578D01*
X-85598D01*
X-87630Y-183642D01*
X-217860Y-6532D02*
X-219892Y-2468D01*
X-215828D01*
X-217860Y-6532D01*
X-204470Y152714D02*
X-206502Y156778D01*
X-202438D01*
X-204470Y152714D01*
X-250286Y70358D02*
X-252318Y74422D01*
X-248254D01*
X-250286Y70358D01*
X-231140Y-2032D02*
X-233172Y2032D01*
X-229108D01*
X-231140Y-2032D01*
X-214001Y68644D02*
X-216033Y72708D01*
X-211969D01*
X-214001Y68644D01*
X-81860Y156608D02*
X-83892Y160672D01*
X-79828D01*
X-81860Y156608D01*
X-18470Y125358D02*
X-20502Y129422D01*
X-16438D01*
X-18470Y125358D01*
X-111070Y104648D02*
X-113102Y108712D01*
X-109038D01*
X-111070Y104648D01*
X191770Y55493D02*
X189738Y59557D01*
X193802D01*
X191770Y55493D01*
X106680Y115837D02*
X104648Y119901D01*
X108712D01*
X106680Y115837D01*
X72140Y-56642D02*
X70108Y-52578D01*
X74172D01*
X72140Y-56642D01*
X52869Y-110787D02*
X50837Y-106723D01*
X54901D01*
X52869Y-110787D01*
X32737Y191008D02*
X30705Y195072D01*
X34769D01*
X32737Y191008D01*
X12270Y124039D02*
X10238Y128103D01*
X14302D01*
X12270Y124039D01*
X7620Y75438D02*
X5588Y79502D01*
X9652D01*
X7620Y75438D01*
X-54610Y86868D02*
X-56642Y90932D01*
X-52578D01*
X-54610Y86868D01*
X-81180Y-34023D02*
X-83212Y-29959D01*
X-79148D01*
X-81180Y-34023D01*
X-100230Y-4572D02*
X-102262Y-508D01*
X-98198D01*
X-100230Y-4572D01*
X-15240Y-129032D02*
X-17272Y-124968D01*
X-13208D01*
X-15240Y-129032D01*
X-130230Y140898D02*
X-132262Y144962D01*
X-128198D01*
X-130230Y140898D01*
X209550Y-116332D02*
X207518Y-112268D01*
X211582D01*
X209550Y-116332D01*
X138430Y-214556D02*
X136398Y-210492D01*
X140462D01*
X138430Y-214556D01*
X144780Y-181102D02*
X142748Y-177038D01*
X146812D01*
X144780Y-181102D01*
X127000Y-140462D02*
X124968Y-136398D01*
X129032D01*
X127000Y-140462D01*
X83876Y-229172D02*
X81844Y-225108D01*
X85908D01*
X83876Y-229172D01*
Y-219012D02*
X81844Y-214948D01*
X85908D01*
X83876Y-219012D01*
X22270Y-81812D02*
X20238Y-77748D01*
X24302D01*
X22270Y-81812D01*
X27270Y-108042D02*
X25238Y-103978D01*
X29302D01*
X27270Y-108042D01*
X-112730Y-83312D02*
X-114762Y-79248D01*
X-110698D01*
X-112730Y-83312D01*
X-117730Y-51912D02*
X-119762Y-47847D01*
X-115698D01*
X-117730Y-51912D01*
X-8890Y227838D02*
X-10922Y231902D01*
X-6858D01*
X-8890Y227838D01*
X-1270Y204978D02*
X-3302Y209042D01*
X762D01*
X-1270Y204978D01*
X-104140Y220218D02*
X-106172Y224282D01*
X-102108D01*
X-104140Y220218D01*
X-114300Y210058D02*
X-116332Y214122D01*
X-112268D01*
X-114300Y210058D01*
X86360Y-9652D02*
X84328Y-5588D01*
X88392D01*
X86360Y-9652D01*
X80870Y-3842D02*
X78838Y222D01*
X82902D01*
X80870Y-3842D01*
X-12700Y-38481D02*
X-14732Y-34417D01*
X-10668D01*
X-12700Y-38481D01*
X-125730Y125309D02*
X-127762Y129373D01*
X-123698D01*
X-125730Y125309D01*
X-147320Y-249682D02*
X-149352Y-245618D01*
X-145288D01*
X-147320Y-249682D01*
X-155080D02*
X-157112Y-245618D01*
X-153048D01*
X-155080Y-249682D01*
X17500Y-223012D02*
X15468Y-218948D01*
X19532D01*
X17500Y-223012D01*
X-59690Y-271272D02*
X-61722Y-267208D01*
X-57658D01*
X-59690Y-271272D01*
X-64160Y211328D02*
X-66192Y215392D01*
X-62128D01*
X-64160Y211328D01*
X5770Y181222D02*
X3738Y185286D01*
X7802D01*
X5770Y181222D01*
X-29960Y192278D02*
X-31992Y196342D01*
X-27928D01*
X-29960Y192278D01*
X21700Y141478D02*
X19668Y145542D01*
X23732D01*
X21700Y141478D01*
X-11461Y151670D02*
X-13493Y155733D01*
X-9430D01*
X-11461Y151670D01*
X-243980Y-124022D02*
X-246012Y-119958D01*
X-241948D01*
X-243980Y-124022D01*
Y-136722D02*
X-246012Y-132658D01*
X-241948D01*
X-243980Y-136722D01*
Y-149422D02*
X-246012Y-145358D01*
X-241948D01*
X-243980Y-149422D01*
Y-85922D02*
X-246012Y-81858D01*
X-241948D01*
X-243980Y-85922D01*
Y-73222D02*
X-246012Y-69158D01*
X-241948D01*
X-243980Y-73222D01*
Y-60522D02*
X-246012Y-56458D01*
X-241948D01*
X-243980Y-60522D01*
X-110490Y263398D02*
X-112522Y267462D01*
X-108458D01*
X-110490Y263398D01*
X-121230D02*
X-123262Y267462D01*
X-119198D01*
X-121230Y263398D01*
X7500Y-223012D02*
X5468Y-218948D01*
X9532D01*
X7500Y-223012D01*
X-2500D02*
X-4532Y-218948D01*
X-468D01*
X-2500Y-223012D01*
X-12500D02*
X-14532Y-218948D01*
X-10468D01*
X-12500Y-223012D01*
X-22500D02*
X-24532Y-218948D01*
X-20468D01*
X-22500Y-223012D01*
X22500Y-196342D02*
X20468Y-192278D01*
X24532D01*
X22500Y-196342D01*
X12500D02*
X10468Y-192278D01*
X14532D01*
X12500Y-196342D01*
X2500D02*
X468Y-192278D01*
X4532D01*
X2500Y-196342D01*
X-7500D02*
X-9532Y-192278D01*
X-5468D01*
X-7500Y-196342D01*
X-17500D02*
X-19532Y-192278D01*
X-15468D01*
X-17500Y-196342D01*
X-162465Y101468D02*
X-164497Y105532D01*
X-160433D01*
X-162465Y101468D01*
X-45720Y99909D02*
X-47752Y103973D01*
X-43688D01*
X-45720Y99909D01*
Y112268D02*
X-47752Y116332D01*
X-43688D01*
X-45720Y112268D01*
X-180750Y145288D02*
X-182782Y149352D01*
X-178718D01*
X-180750Y145288D01*
X-134620Y106468D02*
X-136652Y110532D01*
X-132588D01*
X-134620Y106468D01*
X-140170Y111468D02*
X-142202Y115532D01*
X-138138D01*
X-140170Y111468D01*
Y121468D02*
X-142202Y125532D01*
X-138138D01*
X-140170Y121468D01*
X-162465Y136718D02*
X-164497Y140782D01*
X-160433D01*
X-162465Y136718D01*
X-165100Y76468D02*
X-167132Y80532D01*
X-163068D01*
X-165100Y76468D01*
X-170030Y81468D02*
X-172062Y85532D01*
X-167998D01*
X-170030Y81468D01*
X54870Y145288D02*
X52838Y149352D01*
X56902D01*
X54870Y145288D01*
X-170030Y131468D02*
X-172062Y135532D01*
X-167998D01*
X-170030Y131468D01*
X-165100Y116468D02*
X-167132Y120532D01*
X-163068D01*
X-165100Y116468D01*
X-170030Y121468D02*
X-172062Y125532D01*
X-167998D01*
X-170030Y121468D01*
Y111468D02*
X-172062Y115532D01*
X-167998D01*
X-170030Y111468D01*
X215804Y-9271D02*
X213772Y-5207D01*
X217836D01*
X215804Y-9271D01*
X71120Y55118D02*
X69088Y59182D01*
X73152D01*
X71120Y55118D01*
X233680Y57658D02*
X231648Y61722D01*
X235712D01*
X233680Y57658D01*
X139700Y110468D02*
X137668Y114532D01*
X141732D01*
X139700Y110468D01*
X184150Y136398D02*
X182118Y140462D01*
X186182D01*
X184150Y136398D01*
X163171Y120468D02*
X161138Y124532D01*
X165203D01*
X163171Y120468D01*
X169882Y125468D02*
X167850Y129532D01*
X171914D01*
X169882Y125468D01*
X124150Y104648D02*
X122118Y108712D01*
X126182D01*
X124150Y104648D01*
X111760Y99568D02*
X109728Y103632D01*
X113792D01*
X111760Y99568D01*
X169882Y60468D02*
X167850Y64532D01*
X171914D01*
X169882Y60468D01*
X99060Y90468D02*
X97028Y94532D01*
X101092D01*
X99060Y90468D01*
X41910Y116419D02*
X39878Y120483D01*
X43942D01*
X41910Y116419D01*
X48260Y110998D02*
X46228Y115062D01*
X50292D01*
X48260Y110998D01*
X135890Y90468D02*
X133858Y94532D01*
X137922D01*
X135890Y90468D01*
X119380Y124778D02*
X117348Y128842D01*
X121412D01*
X119380Y124778D01*
X166752Y45468D02*
X164720Y49532D01*
X168784D01*
X166752Y45468D01*
X139700Y100468D02*
X137668Y104532D01*
X141732D01*
X139700Y100468D01*
X129999Y95468D02*
X127966Y99532D01*
X132030D01*
X129999Y95468D01*
X169882Y100468D02*
X167850Y104532D01*
X171914D01*
X169882Y100468D01*
X191660Y105468D02*
X189628Y109532D01*
X193692D01*
X191660Y105468D01*
X139386Y138172D02*
X137354Y142236D01*
X141418D01*
X139386Y138172D01*
X217170Y142748D02*
X215138Y146812D01*
X219202D01*
X217170Y142748D01*
X223520Y150368D02*
X221488Y154432D01*
X225552D01*
X223520Y150368D01*
X230430Y143458D02*
X228398Y147522D01*
X232462D01*
X230430Y143458D01*
X169882Y110468D02*
X167850Y114532D01*
X171914D01*
X169882Y110468D01*
X54870Y58928D02*
X52838Y62992D01*
X56902D01*
X54870Y58928D01*
X217430D02*
X215398Y62992D01*
X219462D01*
X217430Y58928D01*
X204470Y88138D02*
X202438Y92202D01*
X206502D01*
X204470Y88138D01*
X269430Y117348D02*
X267398Y121412D01*
X271462D01*
X269430Y117348D01*
X86360Y-50292D02*
X84328Y-46228D01*
X88392D01*
X86360Y-50292D01*
X-57730Y-56752D02*
X-59762Y-52688D01*
X-55698D01*
X-57730Y-56752D01*
X-97790Y-80772D02*
X-99822Y-76708D01*
X-95758D01*
X-97790Y-80772D01*
X-92710Y-107442D02*
X-94742Y-103378D01*
X-90678D01*
X-92710Y-107442D01*
X-82730Y-83312D02*
X-84762Y-79248D01*
X-80698D01*
X-82730Y-83312D01*
X166752Y37338D02*
X164720Y41402D01*
X168784D01*
X166752Y37338D01*
X169882Y30468D02*
X167850Y34532D01*
X171914D01*
X169882Y30468D01*
X57270Y-83312D02*
X55238Y-79248D01*
X59302D01*
X57270Y-83312D01*
X47270D02*
X45238Y-79248D01*
X49302D01*
X47270Y-83312D01*
X-47730Y-56752D02*
X-49762Y-52688D01*
X-45698D01*
X-47730Y-56752D01*
X-22730Y-83312D02*
X-24762Y-79248D01*
X-20698D01*
X-22730Y-83312D01*
X191770Y45468D02*
X189738Y49532D01*
X193802D01*
X191770Y45468D01*
Y35468D02*
X189738Y39532D01*
X193802D01*
X191770Y35468D01*
Y25468D02*
X189738Y29532D01*
X193802D01*
X191770Y25468D01*
X-17730Y-56752D02*
X-19762Y-52688D01*
X-15698D01*
X-17730Y-56752D01*
X-62730Y-83312D02*
X-64762Y-79248D01*
X-60698D01*
X-62730Y-83312D01*
X-170030Y61468D02*
X-172062Y65532D01*
X-167998D01*
X-170030Y61468D01*
X-155080Y-149265D02*
X-157112Y-145201D01*
X-153048D01*
X-155080Y-149265D01*
X-153670Y260858D02*
X-155702Y264922D01*
X-151638D01*
X-153670Y260858D01*
X243430Y57658D02*
X241398Y61722D01*
X245462D01*
X243430Y57658D01*
Y143458D02*
X241398Y147522D01*
X245462D01*
X243430Y143458D01*
X-155080Y-85922D02*
X-157112Y-81858D01*
X-153048D01*
X-155080Y-85922D01*
X-162465Y-51532D02*
X-164497Y-47467D01*
X-160433D01*
X-162465Y-51532D01*
X-177870Y-123882D02*
X-179902Y-119818D01*
X-175838D01*
X-177870Y-123882D01*
X-190360Y-73082D02*
X-192392Y-69018D01*
X-188328D01*
X-190360Y-73082D01*
X80870Y144878D02*
X78838Y148942D01*
X82902D01*
X80870Y144878D01*
X50900Y210158D02*
X48868Y214222D01*
X52932D01*
X50900Y210158D01*
X63600D02*
X61568Y214222D01*
X65632D01*
X63600Y210158D01*
X89000Y180948D02*
X86968Y185012D01*
X91032D01*
X89000Y180948D01*
X-90170Y265938D02*
X-92202Y270002D01*
X-88138D01*
X-90170Y265938D01*
X-284480Y-106172D02*
X-286512Y-102108D01*
X-282448D01*
X-284480Y-106172D01*
X-226060Y-158242D02*
X-228092Y-154178D01*
X-224028D01*
X-226060Y-158242D01*
X-297180Y61468D02*
X-299212Y65532D01*
X-295148D01*
X-297180Y61468D01*
X-198120Y4318D02*
X-200152Y8382D01*
X-196088D01*
X-198120Y4318D01*
X76200Y245531D02*
X74168Y249595D01*
X78232D01*
X76200Y245531D01*
X-292100Y-79248D02*
X-294132Y-75184D01*
X-290068D01*
X-292100Y-79248D01*
X-127000Y-197612D02*
X-129032Y-193548D01*
X-124968D01*
X-127000Y-197612D01*
X170958Y-224282D02*
X168926Y-220218D01*
X172990D01*
X170958Y-224282D01*
X-160060Y203983D02*
X-162092Y208047D01*
X-158028D01*
X-160060Y203983D01*
X281940Y79248D02*
X279908Y83312D01*
X283972D01*
X281940Y79248D01*
X165011Y207502D02*
X162979Y211566D01*
X167043D01*
X165011Y207502D01*
X76070Y277368D02*
X74038Y281432D01*
X78102D01*
X76070Y277368D01*
X161805Y-254090D02*
X159773Y-250026D01*
X163837D01*
X161805Y-254090D01*
X-222250Y-26162D02*
X-224282Y-22098D01*
X-220218D01*
X-222250Y-26162D01*
Y176308D02*
X-224282Y180372D01*
X-220218D01*
X-222250Y176308D01*
X-238760Y151175D02*
X-240792Y155239D01*
X-236728D01*
X-238760Y151175D01*
X289560Y51943D02*
X287528Y56007D01*
X291592D01*
X289560Y51943D01*
X-88900Y-281432D02*
X-90932Y-277368D01*
X-86868D01*
X-88900Y-281432D01*
X219235Y184035D02*
X217203Y188099D01*
X221267D01*
X219235Y184035D01*
X133350Y245618D02*
X131318Y249682D01*
X135382D01*
X133350Y245618D01*
X220980Y-177292D02*
X218948Y-173228D01*
X223012D01*
X220980Y-177292D01*
X243430Y-156972D02*
X241398Y-152908D01*
X245462D01*
X243430Y-156972D01*
D106*
X-187968Y-190000D02*
G03*
X-187968Y-190000I-2032J0D01*
G01*
X192032D02*
G03*
X192032Y-190000I-2032J0D01*
G01*
Y190000D02*
G03*
X192032Y190000I-2032J0D01*
G01*
X-187968D02*
G03*
X-187968Y190000I-2032J0D01*
G01*
M02*
