%FSLAX44Y44*%
%MOMM*%
G71*
G01*
G75*
G04 Layer_Color=8388736*
%ADD10R,0.6000X0.5000*%
%ADD11R,0.5000X0.6000*%
%ADD12R,0.7000X0.6000*%
%ADD13R,1.0000X1.6000*%
G04:AMPARAMS|DCode=14|XSize=3mm|YSize=2.1mm|CornerRadius=0mm|HoleSize=0mm|Usage=FLASHONLY|Rotation=203.500|XOffset=0mm|YOffset=0mm|HoleType=Round|Shape=Rectangle|*
%AMROTATEDRECTD14*
4,1,4,0.9569,1.5610,1.7943,-0.3648,-0.9569,-1.5610,-1.7943,0.3648,0.9569,1.5610,0.0*
%
%ADD14ROTATEDRECTD14*%

G04:AMPARAMS|DCode=15|XSize=2.1mm|YSize=0.8mm|CornerRadius=0mm|HoleSize=0mm|Usage=FLASHONLY|Rotation=203.500|XOffset=0mm|YOffset=0mm|HoleType=Round|Shape=Rectangle|*
%AMROTATEDRECTD15*
4,1,4,0.8034,0.7855,1.1224,0.0519,-0.8034,-0.7855,-1.1224,-0.0519,0.8034,0.7855,0.0*
%
%ADD15ROTATEDRECTD15*%

G04:AMPARAMS|DCode=16|XSize=2mm|YSize=1.2mm|CornerRadius=0mm|HoleSize=0mm|Usage=FLASHONLY|Rotation=150.000|XOffset=0mm|YOffset=0mm|HoleType=Round|Shape=Rectangle|*
%AMROTATEDRECTD16*
4,1,4,1.1660,0.0196,0.5660,-1.0196,-1.1660,-0.0196,-0.5660,1.0196,1.1660,0.0196,0.0*
%
%ADD16ROTATEDRECTD16*%

%ADD17R,1.3500X0.3000*%
%ADD18R,1.3500X0.2500*%
%ADD19R,0.5000X1.7000*%
G04:AMPARAMS|DCode=20|XSize=0.32mm|YSize=1.7mm|CornerRadius=0.08mm|HoleSize=0mm|Usage=FLASHONLY|Rotation=0.000|XOffset=0mm|YOffset=0mm|HoleType=Round|Shape=RoundedRectangle|*
%AMROUNDEDRECTD20*
21,1,0.3200,1.5400,0,0,0.0*
21,1,0.1600,1.7000,0,0,0.0*
1,1,0.1600,0.0800,-0.7700*
1,1,0.1600,-0.0800,-0.7700*
1,1,0.1600,-0.0800,0.7700*
1,1,0.1600,0.0800,0.7700*
%
%ADD20ROUNDEDRECTD20*%
%ADD21R,0.4064X0.5500*%
%ADD22R,0.3048X0.5500*%
%ADD23R,1.3970X1.3970*%
%ADD24R,0.8890X1.0160*%
%ADD25C,0.2540*%
%ADD26C,1.0000*%
%ADD27C,0.6000*%
%ADD28C,0.4000*%
%ADD29C,0.3000*%
%ADD30C,0.5000*%
G04:AMPARAMS|DCode=31|XSize=4mm|YSize=4mm|CornerRadius=2mm|HoleSize=0mm|Usage=FLASHONLY|Rotation=0.000|XOffset=0mm|YOffset=0mm|HoleType=Round|Shape=RoundedRectangle|*
%AMROUNDEDRECTD31*
21,1,4.0000,0.0000,0,0,0.0*
21,1,0.0000,4.0000,0,0,0.0*
1,1,4.0000,0.0000,0.0000*
1,1,4.0000,0.0000,0.0000*
1,1,4.0000,0.0000,0.0000*
1,1,4.0000,0.0000,0.0000*
%
%ADD31ROUNDEDRECTD31*%
%ADD32O,2.0000X0.7500*%
%ADD33C,1.0000*%
%ADD34C,0.5000*%
%ADD35R,0.8128X0.8128*%
%ADD36R,2.1000X0.8000*%
%ADD37R,3.0000X2.1000*%
%ADD38R,0.8000X2.1000*%
%ADD39R,2.1000X3.0000*%
%ADD40R,0.6096X2.0320*%
%ADD41O,0.6096X2.0320*%
%ADD42R,1.3970X1.3970*%
%ADD43R,1.6000X1.2000*%
%ADD44R,2.1500X6.3000*%
%ADD45R,1.2000X1.8000*%
%ADD46R,0.8128X1.0668*%
%ADD47R,0.7000X1.4000*%
%ADD48R,1.8000X2.8000*%
%ADD49R,1.5200X0.7600*%
%ADD50R,1.0668X0.8128*%
%ADD51R,0.8128X0.8128*%
%ADD52R,1.2000X2.2000*%
%ADD53R,1.6000X1.4000*%
%ADD54R,1.1000X1.4000*%
%ADD55R,0.7000X1.6000*%
G04:AMPARAMS|DCode=56|XSize=2mm|YSize=2mm|CornerRadius=0mm|HoleSize=0mm|Usage=FLASHONLY|Rotation=180.000|XOffset=0mm|YOffset=0mm|HoleType=Round|Shape=RoundedRectangle|*
%AMROUNDEDRECTD56*
21,1,2.0000,2.0000,0,0,180.0*
21,1,2.0000,2.0000,0,0,180.0*
1,1,0.0000,-1.0000,1.0000*
1,1,0.0000,1.0000,1.0000*
1,1,0.0000,1.0000,-1.0000*
1,1,0.0000,-1.0000,-1.0000*
%
%ADD56ROUNDEDRECTD56*%
%ADD57C,0.8000*%
%ADD58C,0.1250*%
%ADD59C,0.1200*%
%ADD60R,0.8032X0.7032*%
%ADD61R,0.7032X0.8032*%
%ADD62R,0.9032X0.8032*%
%ADD63R,1.2032X1.8032*%
G04:AMPARAMS|DCode=64|XSize=3.2032mm|YSize=2.3032mm|CornerRadius=0mm|HoleSize=0mm|Usage=FLASHONLY|Rotation=203.500|XOffset=0mm|YOffset=0mm|HoleType=Round|Shape=Rectangle|*
%AMROTATEDRECTD64*
4,1,4,1.0096,1.6947,1.9280,-0.4174,-1.0096,-1.6947,-1.9280,0.4174,1.0096,1.6947,0.0*
%
%ADD64ROTATEDRECTD64*%

G04:AMPARAMS|DCode=65|XSize=2.3032mm|YSize=1.0032mm|CornerRadius=0mm|HoleSize=0mm|Usage=FLASHONLY|Rotation=203.500|XOffset=0mm|YOffset=0mm|HoleType=Round|Shape=Rectangle|*
%AMROTATEDRECTD65*
4,1,4,0.8561,0.9192,1.2561,-0.0008,-0.8561,-0.9192,-1.2561,0.0008,0.8561,0.9192,0.0*
%
%ADD65ROTATEDRECTD65*%

G04:AMPARAMS|DCode=66|XSize=2.2032mm|YSize=1.4032mm|CornerRadius=0mm|HoleSize=0mm|Usage=FLASHONLY|Rotation=150.000|XOffset=0mm|YOffset=0mm|HoleType=Round|Shape=Rectangle|*
%AMROTATEDRECTD66*
4,1,4,1.3048,0.0568,0.6032,-1.1584,-1.3048,-0.0568,-0.6032,1.1584,1.3048,0.0568,0.0*
%
%ADD66ROTATEDRECTD66*%

%ADD67R,1.5532X0.5032*%
%ADD68R,1.5532X0.4532*%
%ADD69R,0.7032X1.9032*%
G04:AMPARAMS|DCode=70|XSize=0.5232mm|YSize=1.9032mm|CornerRadius=0.1816mm|HoleSize=0mm|Usage=FLASHONLY|Rotation=0.000|XOffset=0mm|YOffset=0mm|HoleType=Round|Shape=RoundedRectangle|*
%AMROUNDEDRECTD70*
21,1,0.5232,1.5400,0,0,0.0*
21,1,0.1600,1.9032,0,0,0.0*
1,1,0.3632,0.0800,-0.7700*
1,1,0.3632,-0.0800,-0.7700*
1,1,0.3632,-0.0800,0.7700*
1,1,0.3632,0.0800,0.7700*
%
%ADD70ROUNDEDRECTD70*%
%ADD71R,0.6096X0.7532*%
%ADD72R,0.5080X0.7532*%
%ADD73R,1.6002X1.6002*%
%ADD74R,1.0922X1.2192*%
G04:AMPARAMS|DCode=75|XSize=4.2032mm|YSize=4.2032mm|CornerRadius=2.1016mm|HoleSize=0mm|Usage=FLASHONLY|Rotation=0.000|XOffset=0mm|YOffset=0mm|HoleType=Round|Shape=RoundedRectangle|*
%AMROUNDEDRECTD75*
21,1,4.2032,0.0000,0,0,0.0*
21,1,0.0000,4.2032,0,0,0.0*
1,1,4.2032,0.0000,0.0000*
1,1,4.2032,0.0000,0.0000*
1,1,4.2032,0.0000,0.0000*
1,1,4.2032,0.0000,0.0000*
%
%ADD75ROUNDEDRECTD75*%
%ADD76O,2.2032X0.9532*%
%ADD77C,1.2032*%
D26*
X-59189Y294103D02*
G03*
X-297380Y39563I59189J-294103D01*
G01*
X297385Y39521D02*
G03*
X59128Y294116I-297385J-39521D01*
G01*
X-297380Y-39563D02*
G03*
X-59128Y-294116I297380J39563D01*
G01*
X59097Y-294122D02*
G03*
X297407Y-39355I-59097J294122D01*
G01*
D60*
X-234950Y-29790D02*
D03*
Y-20790D02*
D03*
X62230Y-29790D02*
D03*
Y-38790D02*
D03*
X11430Y-29790D02*
D03*
Y-38790D02*
D03*
X74930Y-29790D02*
D03*
Y-38790D02*
D03*
X24130D02*
D03*
Y-29790D02*
D03*
X36830D02*
D03*
Y-38790D02*
D03*
X74930Y-50503D02*
D03*
Y-59503D02*
D03*
X49530Y-29790D02*
D03*
Y-38790D02*
D03*
X-212090Y-47860D02*
D03*
Y-56860D02*
D03*
Y-120070D02*
D03*
Y-111070D02*
D03*
Y-133930D02*
D03*
Y-142930D02*
D03*
X114300Y-8200D02*
D03*
Y-17200D02*
D03*
X127000Y-8200D02*
D03*
Y-17200D02*
D03*
X119380Y169490D02*
D03*
Y178490D02*
D03*
X248920Y-85780D02*
D03*
Y-76780D02*
D03*
Y-55003D02*
D03*
Y-64003D02*
D03*
D61*
X78160Y95266D02*
D03*
X69160D02*
D03*
X57840Y95250D02*
D03*
X48840D02*
D03*
D62*
X-212090Y-85521D02*
D03*
Y-99721D02*
D03*
D63*
X-234950Y-125440D02*
D03*
X-260350D02*
D03*
X-260350Y-57440D02*
D03*
X-234950D02*
D03*
D64*
X233777Y163235D02*
D03*
X279792Y57406D02*
D03*
D65*
X215815Y126801D02*
D03*
X220799Y115338D02*
D03*
X235912Y80581D02*
D03*
X240896Y69118D02*
D03*
X230848Y92228D02*
D03*
X225863Y103691D02*
D03*
D66*
X168221Y231380D02*
D03*
X116259Y261380D02*
D03*
D67*
X151250Y138750D02*
D03*
X180750D02*
D03*
X151250Y18250D02*
D03*
X180750D02*
D03*
X-180750Y132750D02*
D03*
X-151250D02*
D03*
X-180750Y12250D02*
D03*
X-151250D02*
D03*
D68*
X151250Y133500D02*
D03*
X180750D02*
D03*
X151250Y128500D02*
D03*
X180750D02*
D03*
X151250Y123500D02*
D03*
X180750D02*
D03*
X151250Y118500D02*
D03*
X180750D02*
D03*
X151250Y113500D02*
D03*
X180750D02*
D03*
X151250Y108500D02*
D03*
X180750D02*
D03*
X151250Y103500D02*
D03*
X180750D02*
D03*
X151250Y98500D02*
D03*
X180750D02*
D03*
X151250Y93500D02*
D03*
X180750D02*
D03*
X151250Y88500D02*
D03*
X180750D02*
D03*
X151250Y83500D02*
D03*
X180750D02*
D03*
X151250Y78500D02*
D03*
X180750D02*
D03*
X151250Y73500D02*
D03*
X180750D02*
D03*
X151250Y68500D02*
D03*
X180750D02*
D03*
X151250Y63500D02*
D03*
X180750D02*
D03*
X151250Y58500D02*
D03*
X180750D02*
D03*
X151250Y53500D02*
D03*
X180750D02*
D03*
X151250Y48500D02*
D03*
X180750D02*
D03*
X151250Y43500D02*
D03*
X180750D02*
D03*
X151250Y38500D02*
D03*
X180750D02*
D03*
X151250Y33500D02*
D03*
X180750D02*
D03*
X151250Y28500D02*
D03*
X180750D02*
D03*
X151250Y23500D02*
D03*
X180750D02*
D03*
X-180750Y127500D02*
D03*
X-151250D02*
D03*
X-180750Y122500D02*
D03*
X-151250D02*
D03*
X-180750Y117500D02*
D03*
X-151250D02*
D03*
X-180750Y112500D02*
D03*
X-151250D02*
D03*
X-180750Y107500D02*
D03*
X-151250D02*
D03*
X-180750Y102500D02*
D03*
X-151250D02*
D03*
X-180750Y97500D02*
D03*
X-151250D02*
D03*
X-180750Y92500D02*
D03*
X-151250D02*
D03*
X-180750Y87500D02*
D03*
X-151250D02*
D03*
X-180750Y82500D02*
D03*
X-151250D02*
D03*
X-180750Y77500D02*
D03*
X-151250D02*
D03*
X-180750Y72500D02*
D03*
X-151250D02*
D03*
X-180750Y67500D02*
D03*
X-151250D02*
D03*
X-180750Y62500D02*
D03*
X-151250D02*
D03*
X-180750Y57500D02*
D03*
X-151250D02*
D03*
X-180750Y52500D02*
D03*
X-151250D02*
D03*
X-180750Y47500D02*
D03*
X-151250D02*
D03*
X-180750Y42500D02*
D03*
X-151250D02*
D03*
X-180750Y37500D02*
D03*
X-151250D02*
D03*
X-180750Y32500D02*
D03*
X-151250D02*
D03*
X-180750Y27500D02*
D03*
X-151250D02*
D03*
X-180750Y22500D02*
D03*
X-151250D02*
D03*
X-180750Y17500D02*
D03*
X-151250D02*
D03*
D69*
X82000Y235000D02*
D03*
Y209000D02*
D03*
X-132000D02*
D03*
Y235000D02*
D03*
D70*
X17500Y209000D02*
D03*
X27500D02*
D03*
X37500D02*
D03*
X22500Y235000D02*
D03*
X32500D02*
D03*
X42500D02*
D03*
X72500D02*
D03*
X62500D02*
D03*
X52500D02*
D03*
X67500Y209000D02*
D03*
X57500D02*
D03*
X47500D02*
D03*
X-42500D02*
D03*
X-32500D02*
D03*
X-22500D02*
D03*
X-12500D02*
D03*
X-2500D02*
D03*
X7500D02*
D03*
X-37500Y235000D02*
D03*
X-27500D02*
D03*
X-17500D02*
D03*
X-7500D02*
D03*
X2500D02*
D03*
X12500D02*
D03*
X-47500D02*
D03*
X-57500D02*
D03*
X-67500D02*
D03*
X-77500D02*
D03*
X-87500D02*
D03*
X-97500D02*
D03*
X-107500D02*
D03*
X-117500D02*
D03*
X-52500Y209000D02*
D03*
X-62500D02*
D03*
X-72500D02*
D03*
X-82500D02*
D03*
X-92500D02*
D03*
X-102500D02*
D03*
X-112500D02*
D03*
X-122500D02*
D03*
D71*
X30861Y84920D02*
D03*
X14859D02*
D03*
Y95420D02*
D03*
X30861D02*
D03*
X4867Y84622D02*
D03*
X-11135D02*
D03*
Y95122D02*
D03*
X4867D02*
D03*
D72*
X25359Y84920D02*
D03*
X20361D02*
D03*
Y95420D02*
D03*
X25359D02*
D03*
X-635Y84622D02*
D03*
X-5634D02*
D03*
Y95122D02*
D03*
X-635D02*
D03*
D73*
X232007Y9525D02*
D03*
Y31115D02*
D03*
D74*
X265049Y-50800D02*
D03*
X281051D02*
D03*
X265049Y-91440D02*
D03*
X281051D02*
D03*
D75*
X-190000Y-190000D02*
D03*
X190000D02*
D03*
Y190000D02*
D03*
X-190000D02*
D03*
D76*
X269240Y-63617D02*
D03*
Y-76223D02*
D03*
D77*
X39653Y155927D02*
D03*
X-40233Y155890D02*
D03*
M02*
