%FSLAX44Y44*%
%MOMM*%
G71*
G01*
G75*
G04 Layer_Physical_Order=1*
G04 Layer_Color=255*
%ADD10R,0.6000X0.5000*%
%ADD11R,0.5000X0.6000*%
%ADD12R,0.7000X0.6000*%
%ADD13R,1.0000X1.6000*%
G04:AMPARAMS|DCode=14|XSize=3mm|YSize=2.1mm|CornerRadius=0mm|HoleSize=0mm|Usage=FLASHONLY|Rotation=203.500|XOffset=0mm|YOffset=0mm|HoleType=Round|Shape=Rectangle|*
%AMROTATEDRECTD14*
4,1,4,0.9569,1.5610,1.7943,-0.3648,-0.9569,-1.5610,-1.7943,0.3648,0.9569,1.5610,0.0*
%
%ADD14ROTATEDRECTD14*%

G04:AMPARAMS|DCode=15|XSize=2.1mm|YSize=0.8mm|CornerRadius=0mm|HoleSize=0mm|Usage=FLASHONLY|Rotation=203.500|XOffset=0mm|YOffset=0mm|HoleType=Round|Shape=Rectangle|*
%AMROTATEDRECTD15*
4,1,4,0.8034,0.7855,1.1224,0.0519,-0.8034,-0.7855,-1.1224,-0.0519,0.8034,0.7855,0.0*
%
%ADD15ROTATEDRECTD15*%

G04:AMPARAMS|DCode=16|XSize=2mm|YSize=1.2mm|CornerRadius=0mm|HoleSize=0mm|Usage=FLASHONLY|Rotation=150.000|XOffset=0mm|YOffset=0mm|HoleType=Round|Shape=Rectangle|*
%AMROTATEDRECTD16*
4,1,4,1.1660,0.0196,0.5660,-1.0196,-1.1660,-0.0196,-0.5660,1.0196,1.1660,0.0196,0.0*
%
%ADD16ROTATEDRECTD16*%

%ADD17R,1.3500X0.3000*%
%ADD18R,1.3500X0.2500*%
%ADD19R,0.5000X1.7000*%
G04:AMPARAMS|DCode=20|XSize=0.32mm|YSize=1.7mm|CornerRadius=0.08mm|HoleSize=0mm|Usage=FLASHONLY|Rotation=0.000|XOffset=0mm|YOffset=0mm|HoleType=Round|Shape=RoundedRectangle|*
%AMROUNDEDRECTD20*
21,1,0.3200,1.5400,0,0,0.0*
21,1,0.1600,1.7000,0,0,0.0*
1,1,0.1600,0.0800,-0.7700*
1,1,0.1600,-0.0800,-0.7700*
1,1,0.1600,-0.0800,0.7700*
1,1,0.1600,0.0800,0.7700*
%
%ADD20ROUNDEDRECTD20*%
%ADD21R,0.4064X0.5500*%
%ADD22R,0.3048X0.5500*%
%ADD23R,1.3970X1.3970*%
%ADD24R,0.8890X1.0160*%
%ADD25C,0.2540*%
%ADD26C,1.0000*%
%ADD27C,0.6000*%
%ADD28C,0.4000*%
%ADD29C,0.3000*%
%ADD30C,0.5000*%
G04:AMPARAMS|DCode=31|XSize=4mm|YSize=4mm|CornerRadius=2mm|HoleSize=0mm|Usage=FLASHONLY|Rotation=0.000|XOffset=0mm|YOffset=0mm|HoleType=Round|Shape=RoundedRectangle|*
%AMROUNDEDRECTD31*
21,1,4.0000,0.0000,0,0,0.0*
21,1,0.0000,4.0000,0,0,0.0*
1,1,4.0000,0.0000,0.0000*
1,1,4.0000,0.0000,0.0000*
1,1,4.0000,0.0000,0.0000*
1,1,4.0000,0.0000,0.0000*
%
%ADD31ROUNDEDRECTD31*%
%ADD32O,2.0000X0.7500*%
%ADD33C,1.0000*%
%ADD34C,0.5000*%
G36*
X-60698Y297114D02*
Y250000D01*
X-60494Y249506D01*
X-60000Y249302D01*
X60000D01*
X60494Y249506D01*
X60698Y250000D01*
Y297114D01*
X61680Y297919D01*
X67724Y296717D01*
X84254Y292453D01*
X100520Y287269D01*
X116469Y281181D01*
X132051Y274208D01*
X147219Y266372D01*
X161923Y257699D01*
X176117Y248214D01*
X189758Y237949D01*
X202801Y226935D01*
X215206Y215206D01*
X226935Y202801D01*
X237949Y189758D01*
X243280Y182674D01*
X242956Y181446D01*
X229742Y175700D01*
X234941Y163741D01*
X240141Y151783D01*
X255061Y158271D01*
X248436Y173508D01*
X249551Y174117D01*
X257699Y161923D01*
X266372Y147219D01*
X274208Y132051D01*
X281181Y116469D01*
X287269Y100520D01*
X292453Y84254D01*
X296717Y67724D01*
X297482Y63876D01*
X296270Y63497D01*
X290678Y76359D01*
X275757Y69871D01*
X280957Y57913D01*
X279792Y57406D01*
X280299Y56242D01*
X264214Y49247D01*
X267469Y41760D01*
X266773Y40698D01*
X250000D01*
X249506Y40494D01*
X249302Y40000D01*
Y-24473D01*
X248099Y-24881D01*
X247206Y-23717D01*
X245848Y-22675D01*
X244267Y-22020D01*
X242570Y-21796D01*
X240873Y-22020D01*
X239292Y-22675D01*
X237934Y-23717D01*
X236892Y-25075D01*
X236237Y-26656D01*
X236014Y-28352D01*
X236237Y-30049D01*
X236892Y-31630D01*
X236962Y-31722D01*
Y-46627D01*
X192885Y-90705D01*
X191669Y-92524D01*
X191242Y-94670D01*
Y-139940D01*
X144196Y-186986D01*
X143076Y-186388D01*
X143269Y-185420D01*
X142997Y-184054D01*
X142223Y-182897D01*
X141066Y-182123D01*
X139700Y-181851D01*
X138334Y-182123D01*
X137177Y-182897D01*
X136509Y-183896D01*
X128159Y-192246D01*
X85201D01*
X17884Y-124929D01*
Y-80441D01*
X18119Y-79262D01*
X17847Y-77896D01*
X17073Y-76738D01*
X15916Y-75965D01*
X14550Y-75693D01*
X13184Y-75965D01*
X12027Y-76738D01*
X11253Y-77896D01*
X10981Y-79262D01*
X11216Y-80441D01*
Y-126310D01*
X11470Y-127586D01*
X12192Y-128667D01*
X12192Y-128667D01*
X12192Y-128668D01*
X81462Y-197938D01*
X81462D01*
X81462Y-197938D01*
X81462D01*
X81462Y-197938D01*
Y-197938D01*
X81462Y-197938D01*
Y-197938D01*
X82544Y-198660D01*
X83820Y-198914D01*
X129540D01*
X130800Y-198663D01*
X131399Y-199783D01*
X130540Y-200642D01*
X2099D01*
X2008Y-200572D01*
X427Y-199917D01*
X-1270Y-199694D01*
X-2967Y-199917D01*
X-4548Y-200572D01*
X-5906Y-201614D01*
X-6948Y-202972D01*
X-7603Y-204553D01*
X-7826Y-206250D01*
X-7603Y-207947D01*
X-6948Y-209528D01*
X-5906Y-210886D01*
X-4548Y-211928D01*
X-2967Y-212583D01*
X-1270Y-212806D01*
X427Y-212583D01*
X2008Y-211928D01*
X2099Y-211858D01*
X132863D01*
X135009Y-211431D01*
X136828Y-210215D01*
X169878Y-177166D01*
X170898Y-177922D01*
X169075Y-181333D01*
X167786Y-185581D01*
X167476Y-188730D01*
X188730D01*
Y-167476D01*
X185581Y-167786D01*
X181333Y-169075D01*
X177922Y-170898D01*
X177166Y-169878D01*
X200815Y-146228D01*
X200815Y-146228D01*
X200815Y-146228D01*
X202031Y-144409D01*
X202458Y-142263D01*
Y-103816D01*
X203440Y-103010D01*
X203529Y-103028D01*
X204895Y-102756D01*
X206052Y-101983D01*
X206720Y-100983D01*
X240367Y-67337D01*
X243840D01*
Y-73446D01*
X238180D01*
X236904Y-73700D01*
X235823Y-74422D01*
X207447Y-102797D01*
X206448Y-103465D01*
X205674Y-104623D01*
X205403Y-105989D01*
X205674Y-107354D01*
X206448Y-108512D01*
X207606Y-109285D01*
X208971Y-109557D01*
X210337Y-109285D01*
X211495Y-108512D01*
X212163Y-107513D01*
X239561Y-80114D01*
X243840D01*
Y-90563D01*
X251797Y-98520D01*
X272521D01*
Y-82367D01*
X283210D01*
Y-58420D01*
X288036D01*
Y-52070D01*
X274066D01*
Y-57754D01*
X272521D01*
Y-40698D01*
X300531D01*
X301364Y-41657D01*
X300048Y-50980D01*
X296717Y-67724D01*
X292453Y-84254D01*
X289291Y-94175D01*
X288036Y-93980D01*
Y-83820D01*
X282321D01*
Y-91440D01*
Y-99060D01*
X286658D01*
X287407Y-100085D01*
X287269Y-100520D01*
X281181Y-116469D01*
X274208Y-132051D01*
X266372Y-147219D01*
X257699Y-161923D01*
X248214Y-176117D01*
X237949Y-189758D01*
X226935Y-202801D01*
X215206Y-215206D01*
X202801Y-226935D01*
X189758Y-237949D01*
X176117Y-248214D01*
X161923Y-257699D01*
X147219Y-266372D01*
X132051Y-274208D01*
X116469Y-281181D01*
X100520Y-287269D01*
X84254Y-292453D01*
X67724Y-296717D01*
X61680Y-297919D01*
X60698Y-297114D01*
Y-250000D01*
X60494Y-249506D01*
X60000Y-249302D01*
X-60000D01*
X-60494Y-249506D01*
X-60698Y-250000D01*
Y-297114D01*
X-61680Y-297919D01*
X-67724Y-296717D01*
X-84254Y-292453D01*
X-100520Y-287269D01*
X-116469Y-281181D01*
X-132051Y-274208D01*
X-147219Y-266372D01*
X-161923Y-257699D01*
X-176117Y-248214D01*
X-189758Y-237949D01*
X-202801Y-226935D01*
X-215206Y-215206D01*
X-226935Y-202801D01*
X-237949Y-189758D01*
X-248214Y-176117D01*
X-257699Y-161923D01*
X-266372Y-147219D01*
X-274208Y-132051D01*
X-281181Y-116469D01*
X-287269Y-100520D01*
X-292453Y-84254D01*
X-296717Y-67724D01*
X-300048Y-50980D01*
X-301364Y-41657D01*
X-300531Y-40698D01*
X-250000D01*
X-249506Y-40494D01*
X-249302Y-40000D01*
Y40000D01*
X-249506Y40494D01*
X-250000Y40698D01*
X-300531D01*
X-301364Y41657D01*
X-300048Y50980D01*
X-296717Y67724D01*
X-292453Y84254D01*
X-287269Y100520D01*
X-281181Y116469D01*
X-274208Y132051D01*
X-266372Y147219D01*
X-257699Y161923D01*
X-248214Y176117D01*
X-237949Y189758D01*
X-226935Y202801D01*
X-215206Y215206D01*
X-202801Y226935D01*
X-189758Y237949D01*
X-176117Y248214D01*
X-161923Y257699D01*
X-147219Y266372D01*
X-132051Y274208D01*
X-116469Y281181D01*
X-100520Y287269D01*
X-84254Y292453D01*
X-67724Y296717D01*
X-61680Y297919D01*
X-60698Y297114D01*
D02*
G37*
%LPC*%
G36*
X-171460Y10980D02*
X-179480D01*
Y8210D01*
X-171460D01*
Y10980D01*
D02*
G37*
G36*
X-141960Y16230D02*
X-160789D01*
X-161290Y15819D01*
X-162656Y15547D01*
X-163813Y14773D01*
X-164587Y13616D01*
X-164859Y12250D01*
X-164587Y10884D01*
X-163813Y9727D01*
X-162656Y8953D01*
X-161290Y8681D01*
X-160945Y8750D01*
X-160000Y8750D01*
Y8750D01*
X-142500D01*
Y13710D01*
X-141960D01*
Y16230D01*
D02*
G37*
G36*
X160540Y37230D02*
X141960D01*
Y34770D01*
X160540D01*
Y37230D01*
D02*
G37*
G36*
X96425Y93441D02*
X95059Y93169D01*
X93901Y92396D01*
X93233Y91396D01*
X75113Y73275D01*
X74390Y72194D01*
X74136Y70918D01*
Y13879D01*
X73901Y12700D01*
X74173Y11334D01*
X74947Y10177D01*
X76104Y9403D01*
X77470Y9131D01*
X78836Y9403D01*
X79993Y10177D01*
X80767Y11334D01*
X81039Y12700D01*
X80804Y13879D01*
Y69537D01*
X97948Y86681D01*
X98948Y87349D01*
X99721Y88507D01*
X99993Y89872D01*
X99721Y91238D01*
X98948Y92396D01*
X97790Y93169D01*
X96425Y93441D01*
D02*
G37*
G36*
X-182020Y10980D02*
X-190040D01*
Y8210D01*
X-182020D01*
Y10980D01*
D02*
G37*
G36*
X60960Y-40060D02*
X56690D01*
Y-43830D01*
X60960D01*
Y-40060D01*
D02*
G37*
G36*
X29670D02*
X25400D01*
Y-43830D01*
X29670D01*
Y-40060D01*
D02*
G37*
G36*
X36490Y-19032D02*
X35124Y-19304D01*
X33966Y-20077D01*
X33193Y-21235D01*
X32921Y-22601D01*
X33156Y-23779D01*
Y-25290D01*
X31830D01*
Y-26456D01*
X29130D01*
Y-25290D01*
X19130D01*
Y-26456D01*
X16430D01*
Y-25290D01*
X6430D01*
Y-33750D01*
X5890D01*
Y-37520D01*
X16970D01*
Y-33750D01*
D01*
Y-33750D01*
X17596Y-33124D01*
X18590D01*
Y-33750D01*
X18590D01*
Y-37520D01*
X29670D01*
Y-33750D01*
D01*
Y-33750D01*
X30296Y-33124D01*
X31830D01*
Y-34290D01*
Y-43290D01*
X33496D01*
Y-78831D01*
X33261Y-80010D01*
X33533Y-81376D01*
X34307Y-82533D01*
X35464Y-83307D01*
X36830Y-83579D01*
X38196Y-83307D01*
X39353Y-82533D01*
X40127Y-81376D01*
X40399Y-80010D01*
X40164Y-78831D01*
Y-43290D01*
X41830D01*
Y-34290D01*
Y-25290D01*
X39824D01*
Y-23779D01*
X40058Y-22601D01*
X39786Y-21235D01*
X39013Y-20077D01*
X37855Y-19304D01*
X36490Y-19032D01*
D02*
G37*
G36*
X241532Y8255D02*
X233277D01*
Y0D01*
X241532D01*
Y8255D01*
D02*
G37*
G36*
X230737D02*
X222482D01*
Y0D01*
X230737D01*
Y8255D01*
D02*
G37*
G36*
X242992Y42100D02*
X221022D01*
Y36488D01*
X215765D01*
X215368Y36793D01*
X213787Y37448D01*
X212090Y37671D01*
X210393Y37448D01*
X208812Y36793D01*
X207454Y35751D01*
X206412Y34393D01*
X205757Y32812D01*
X205534Y31115D01*
X205757Y29418D01*
X206412Y27837D01*
X206717Y27440D01*
Y-2274D01*
X197164Y-11827D01*
X137025D01*
X136628Y-11522D01*
X135047Y-10867D01*
X134000Y-10730D01*
Y-10700D01*
X133776D01*
X133350Y-10644D01*
X132955Y-10696D01*
X132000Y-9859D01*
Y-3700D01*
X122000D01*
Y-4866D01*
X119300D01*
Y-3700D01*
X116199D01*
X115393Y-2718D01*
X115429Y-2540D01*
X115157Y-1174D01*
X114383Y-17D01*
X113361Y666D01*
X113237Y1930D01*
X136473Y25166D01*
X137781D01*
X138268Y23993D01*
X137632Y23357D01*
X136909Y22275D01*
X136656Y21000D01*
Y14950D01*
X136909Y13675D01*
X137632Y12593D01*
X141152Y9072D01*
X142234Y8350D01*
X143510Y8096D01*
X153761D01*
X154940Y7861D01*
X156306Y8133D01*
X157463Y8907D01*
X158237Y10064D01*
X158509Y11430D01*
X158237Y12796D01*
X157679Y13630D01*
X158278Y14750D01*
X160000D01*
Y14916D01*
X160731D01*
X161910Y14681D01*
X163276Y14953D01*
X164433Y15727D01*
X165207Y16884D01*
X165479Y18250D01*
X165207Y19616D01*
X164433Y20773D01*
X163276Y21547D01*
X161910Y21819D01*
X160982Y21634D01*
X160000Y22440D01*
Y25250D01*
Y29710D01*
X160540D01*
Y32230D01*
X141960D01*
Y31834D01*
X135091D01*
X133816Y31580D01*
X132734Y30858D01*
X102256Y380D01*
X101534Y-702D01*
X101280Y-1978D01*
Y-45431D01*
X101045Y-46610D01*
X101317Y-47975D01*
X102091Y-49133D01*
X103248Y-49907D01*
X104614Y-50178D01*
X105980Y-49907D01*
X107137Y-49133D01*
X107911Y-47975D01*
X108183Y-46610D01*
X107948Y-45431D01*
Y-22240D01*
X108760D01*
Y-22240D01*
X113030D01*
Y-17200D01*
X115570D01*
Y-22240D01*
X119840D01*
D01*
X119840D01*
X120000Y-22400D01*
Y-23700D01*
X132924D01*
X133350Y-23756D01*
X133776Y-23700D01*
X134000D01*
Y-23670D01*
X135047Y-23533D01*
X136628Y-22878D01*
X137025Y-22573D01*
X199390D01*
X201446Y-22164D01*
X203190Y-20999D01*
X203190Y-21000D01*
X203190Y-20999D01*
X215889Y-8299D01*
X215889Y-8299D01*
X215889Y-8299D01*
X217054Y-6556D01*
X217463Y-4500D01*
Y25742D01*
X221022D01*
Y20130D01*
X222482D01*
Y19050D01*
X222482D01*
Y10795D01*
X241532D01*
Y19050D01*
X241532D01*
Y19232D01*
X242430Y20130D01*
X242992D01*
Y42100D01*
D02*
G37*
G36*
X119380Y192480D02*
X117553Y192240D01*
X115850Y191535D01*
X114388Y190412D01*
X113265Y188950D01*
X112560Y187247D01*
X112320Y185420D01*
Y178490D01*
X112380Y178031D01*
Y171990D01*
X114380D01*
Y164990D01*
X116046D01*
Y162878D01*
X116300Y161602D01*
X117022Y160520D01*
X132546Y144997D01*
Y136085D01*
X132800Y134809D01*
X133523Y133727D01*
X136107Y131143D01*
X137189Y130420D01*
X138465Y130166D01*
X141960D01*
Y129770D01*
X160540D01*
Y132290D01*
X160000D01*
Y135250D01*
Y142250D01*
X142500D01*
Y142084D01*
X141829D01*
X140650Y142319D01*
X140196Y142228D01*
X139214Y143034D01*
Y146377D01*
X138960Y147653D01*
X138237Y148735D01*
X123156Y163817D01*
X123642Y164990D01*
X124380D01*
Y171990D01*
X126380D01*
Y178031D01*
X126440Y178490D01*
Y185420D01*
X126200Y187247D01*
X125494Y188950D01*
X124372Y190412D01*
X122910Y191535D01*
X121207Y192240D01*
X119380Y192480D01*
D02*
G37*
G36*
X160540Y97230D02*
X141960D01*
Y94710D01*
X142500D01*
Y90250D01*
Y85250D01*
Y80250D01*
Y77290D01*
X141960D01*
Y74770D01*
X160540D01*
Y77290D01*
X160000D01*
Y80250D01*
Y85250D01*
Y90250D01*
Y94710D01*
X160540D01*
Y97230D01*
D02*
G37*
G36*
X-152520Y136790D02*
X-160540D01*
Y134020D01*
X-152520D01*
Y136790D01*
D02*
G37*
G36*
X233118Y161564D02*
X218198Y155076D01*
X222891Y144283D01*
X237812Y150770D01*
X233118Y161564D01*
D02*
G37*
G36*
X-141960Y136790D02*
X-149980D01*
Y134020D01*
X-141960D01*
Y136790D01*
D02*
G37*
G36*
Y51230D02*
X-160540D01*
Y48710D01*
X-160000D01*
Y44250D01*
Y39250D01*
Y34250D01*
Y29250D01*
Y24250D01*
Y21290D01*
X-160540D01*
Y18770D01*
X-141177D01*
X-140978Y18933D01*
X-140970Y18931D01*
X-139604Y19203D01*
X-138447Y19977D01*
X-137673Y21134D01*
X-137401Y22500D01*
X-137423Y22609D01*
X-137160Y23931D01*
X-135794Y24203D01*
X-134637Y24977D01*
X-133863Y26134D01*
X-133591Y27500D01*
X-133863Y28866D01*
X-134637Y30023D01*
X-135794Y30797D01*
X-137160Y31069D01*
X-137423Y32391D01*
X-137401Y32500D01*
X-137423Y32609D01*
X-137160Y33931D01*
X-135794Y34203D01*
X-134637Y34977D01*
X-133863Y36134D01*
X-133591Y37500D01*
X-133678Y37935D01*
X-132972Y38991D01*
X-131904Y39203D01*
X-130747Y39977D01*
X-129973Y41134D01*
X-129701Y42500D01*
X-129827Y43130D01*
X-128929Y44028D01*
X-128445Y43931D01*
X-127080Y44203D01*
X-125922Y44977D01*
X-125148Y46134D01*
X-124877Y47500D01*
X-125148Y48866D01*
X-125922Y50023D01*
X-127080Y50797D01*
X-128445Y51069D01*
X-129624Y50834D01*
X-141960D01*
Y51230D01*
D02*
G37*
G36*
X64770Y116069D02*
X63404Y115797D01*
X62247Y115023D01*
X61473Y113866D01*
X61201Y112500D01*
X61473Y111134D01*
X62247Y109977D01*
X63404Y109203D01*
X64770Y108931D01*
X65949Y109166D01*
X93599D01*
X109696Y93069D01*
Y69599D01*
X109950Y68323D01*
X110673Y67242D01*
X110672Y67242D01*
X110673Y67242D01*
X126772Y51143D01*
X127853Y50420D01*
X129129Y50166D01*
X142500D01*
Y45250D01*
Y42290D01*
X141960D01*
Y39770D01*
X160540D01*
Y42290D01*
X160000D01*
Y45250D01*
Y50250D01*
Y54710D01*
X160540D01*
Y57230D01*
X141960D01*
Y56834D01*
X130510D01*
X116364Y70980D01*
Y94450D01*
X116110Y95726D01*
X115388Y96807D01*
X97338Y114858D01*
X96256Y115580D01*
X94980Y115834D01*
X65949D01*
X64770Y116069D01*
D02*
G37*
G36*
X273428Y68858D02*
X258507Y62371D01*
X263201Y51577D01*
X278121Y58064D01*
X273428Y68858D01*
D02*
G37*
G36*
X160540Y72230D02*
X141960D01*
Y69770D01*
X160540D01*
Y72230D01*
D02*
G37*
G36*
Y67230D02*
X141960D01*
Y64710D01*
X142500D01*
Y62290D01*
X141960D01*
Y59770D01*
X160540D01*
Y62290D01*
X160000D01*
Y64710D01*
X160540D01*
Y67230D01*
D02*
G37*
G36*
X106629Y-97155D02*
X105264Y-97427D01*
X104106Y-98201D01*
X103332Y-99358D01*
X103061Y-100724D01*
Y-154889D01*
X103061Y-154889D01*
X103061D01*
X103332Y-156255D01*
X104106Y-157413D01*
X123113Y-176419D01*
Y-184150D01*
X123384Y-185516D01*
X124158Y-186673D01*
X125316Y-187447D01*
X126681Y-187719D01*
X128047Y-187447D01*
X129205Y-186673D01*
X129978Y-185516D01*
X130250Y-184150D01*
Y-174941D01*
X129978Y-173575D01*
X129205Y-172418D01*
X110198Y-153411D01*
Y-100724D01*
X109926Y-99358D01*
X109153Y-98201D01*
X107995Y-97427D01*
X106629Y-97155D01*
D02*
G37*
G36*
X191270Y-167476D02*
Y-188730D01*
X212524D01*
X212214Y-185581D01*
X210925Y-181333D01*
X208832Y-177417D01*
X206015Y-173985D01*
X202583Y-171168D01*
X198667Y-169075D01*
X194419Y-167786D01*
X191270Y-167476D01*
D02*
G37*
G36*
X-40640Y-63294D02*
X-42337Y-63517D01*
X-43918Y-64172D01*
X-45276Y-65214D01*
X-46318Y-66572D01*
X-46973Y-68153D01*
X-47196Y-69850D01*
X-46973Y-71547D01*
X-46318Y-73128D01*
X-46248Y-73219D01*
Y-143951D01*
X-46318Y-144042D01*
X-46973Y-145623D01*
X-47196Y-147320D01*
X-46973Y-149017D01*
X-46318Y-150598D01*
X-45276Y-151956D01*
X-43918Y-152998D01*
X-42337Y-153653D01*
X-40640Y-153876D01*
X-38943Y-153653D01*
X-37362Y-152998D01*
X-36004Y-151956D01*
X-34962Y-150598D01*
X-34307Y-149017D01*
X-34084Y-147320D01*
X-34307Y-145623D01*
X-34962Y-144042D01*
X-35032Y-143951D01*
Y-73219D01*
X-34962Y-73128D01*
X-34307Y-71547D01*
X-34084Y-69850D01*
X-34307Y-68153D01*
X-34962Y-66572D01*
X-36004Y-65214D01*
X-37362Y-64172D01*
X-38943Y-63517D01*
X-40640Y-63294D01*
D02*
G37*
G36*
X-234950Y-106040D02*
X-236316Y-106312D01*
X-237473Y-107086D01*
X-238247Y-108243D01*
X-238519Y-109609D01*
X-238284Y-110788D01*
Y-115440D01*
X-241950D01*
Y-135440D01*
X-227950D01*
Y-115440D01*
X-231616D01*
Y-110788D01*
X-231381Y-109609D01*
X-231653Y-108243D01*
X-232427Y-107086D01*
X-233584Y-106312D01*
X-234950Y-106040D01*
D02*
G37*
G36*
X-206590Y-94721D02*
X-217590D01*
Y-104721D01*
X-215424D01*
Y-106570D01*
X-217090D01*
Y-115570D01*
Y-124570D01*
X-215475D01*
Y-125821D01*
X-215709Y-127000D01*
X-215475Y-128179D01*
Y-129430D01*
X-217090D01*
Y-138342D01*
X-218360D01*
X-220116Y-138691D01*
X-221604Y-139686D01*
X-222599Y-141174D01*
X-222948Y-142930D01*
X-222599Y-144686D01*
X-221604Y-146174D01*
X-220116Y-147169D01*
X-218360Y-147518D01*
X-212090D01*
X-211647Y-147430D01*
X-207090D01*
Y-138430D01*
Y-129430D01*
X-208807D01*
Y-128179D01*
X-208572Y-127000D01*
X-208807Y-125821D01*
Y-124570D01*
X-207090D01*
Y-115570D01*
Y-106570D01*
X-208756D01*
Y-104721D01*
X-206590D01*
Y-94721D01*
D02*
G37*
G36*
X-188730Y-167476D02*
Y-188730D01*
X-167476D01*
X-167786Y-185581D01*
X-169075Y-181333D01*
X-171168Y-177417D01*
X-173985Y-173985D01*
X-177417Y-171168D01*
X-181333Y-169075D01*
X-185581Y-167786D01*
X-188730Y-167476D01*
D02*
G37*
G36*
X-167476Y-191270D02*
X-188730D01*
Y-212524D01*
X-185581Y-212214D01*
X-181333Y-210925D01*
X-177417Y-208832D01*
X-173985Y-206015D01*
X-171168Y-202583D01*
X-169075Y-198667D01*
X-167786Y-194419D01*
X-167476Y-191270D01*
D02*
G37*
G36*
X-191270D02*
X-212524D01*
X-212214Y-194419D01*
X-210925Y-198667D01*
X-208832Y-202583D01*
X-206015Y-206015D01*
X-202583Y-208832D01*
X-198667Y-210925D01*
X-194419Y-212214D01*
X-191270Y-212524D01*
Y-191270D01*
D02*
G37*
G36*
X188730D02*
X167476D01*
X167786Y-194419D01*
X169075Y-198667D01*
X171168Y-202583D01*
X173985Y-206015D01*
X177417Y-208832D01*
X181333Y-210925D01*
X185581Y-212214D01*
X188730Y-212524D01*
Y-191270D01*
D02*
G37*
G36*
X-191270Y-167476D02*
X-194419Y-167786D01*
X-198667Y-169075D01*
X-202583Y-171168D01*
X-206015Y-173985D01*
X-208832Y-177417D01*
X-210925Y-181333D01*
X-212214Y-185581D01*
X-212524Y-188730D01*
X-191270D01*
Y-167476D01*
D02*
G37*
G36*
X212524Y-191270D02*
X191270D01*
Y-212524D01*
X194419Y-212214D01*
X198667Y-210925D01*
X202583Y-208832D01*
X206015Y-206015D01*
X208832Y-202583D01*
X210925Y-198667D01*
X212214Y-194419D01*
X212524Y-191270D01*
D02*
G37*
G36*
X-234950Y-9610D02*
X-236316Y-9882D01*
X-237473Y-10655D01*
X-238247Y-11813D01*
X-238519Y-13179D01*
X-238284Y-14358D01*
Y-16290D01*
X-239950D01*
Y-25290D01*
Y-34290D01*
X-239950Y-34290D01*
X-239950D01*
X-239807Y-34634D01*
X-252613Y-47440D01*
X-253350Y-47440D01*
Y-47440D01*
X-267350D01*
Y-67440D01*
X-253350D01*
Y-54336D01*
X-251460D01*
X-250184Y-54082D01*
X-249102Y-53359D01*
X-245123Y-49380D01*
X-243950Y-49866D01*
Y-69440D01*
X-225950D01*
Y-62233D01*
X-219090D01*
Y-63360D01*
X-205090D01*
Y-62233D01*
X-181511D01*
X-179455Y-61824D01*
X-177711Y-60659D01*
X-177711Y-60659D01*
X-177711Y-60659D01*
X-162369Y-45317D01*
X-161873Y-45252D01*
X-160292Y-44597D01*
X-158934Y-43555D01*
X-157892Y-42197D01*
X-157237Y-40616D01*
X-157014Y-38919D01*
X-157237Y-37222D01*
X-157892Y-35641D01*
X-158934Y-34283D01*
X-160292Y-33241D01*
X-161873Y-32586D01*
X-163570Y-32363D01*
X-165267Y-32586D01*
X-166848Y-33241D01*
X-168206Y-34283D01*
X-169247Y-35641D01*
X-169902Y-37222D01*
X-169968Y-37718D01*
X-183736Y-51487D01*
X-205090D01*
Y-50360D01*
X-207090D01*
Y-43360D01*
X-217090D01*
Y-43639D01*
X-218072Y-44444D01*
X-218840Y-44291D01*
X-220206Y-44563D01*
X-221363Y-45337D01*
X-222137Y-46494D01*
X-222409Y-47860D01*
X-222137Y-49226D01*
X-221374Y-50367D01*
X-221464Y-50533D01*
X-222101Y-51487D01*
X-225950D01*
Y-45440D01*
X-239524D01*
X-240010Y-44267D01*
X-232593Y-36849D01*
X-232592Y-36849D01*
X-232593Y-36849D01*
X-231870Y-35768D01*
X-231616Y-34492D01*
Y-34290D01*
X-229950D01*
Y-25290D01*
Y-16290D01*
X-231616D01*
Y-14358D01*
X-231381Y-13179D01*
X-231653Y-11813D01*
X-232427Y-10655D01*
X-233584Y-9882D01*
X-234950Y-9610D01*
D02*
G37*
G36*
X288036Y-43180D02*
X282321D01*
Y-49530D01*
X288036D01*
Y-43180D01*
D02*
G37*
G36*
X10160Y-40060D02*
X5890D01*
Y-43830D01*
X10160D01*
Y-40060D01*
D02*
G37*
G36*
X22860D02*
X18590D01*
Y-43830D01*
X22860D01*
Y-40060D01*
D02*
G37*
G36*
X16970D02*
X12700D01*
Y-43830D01*
X16970D01*
Y-40060D01*
D02*
G37*
G36*
X279781Y-43180D02*
X274066D01*
Y-49530D01*
X279781D01*
Y-43180D01*
D02*
G37*
G36*
X177870Y-108191D02*
X176504Y-108463D01*
X175347Y-109237D01*
X174573Y-110394D01*
X174301Y-111760D01*
X174573Y-113126D01*
X175347Y-114283D01*
X176504Y-115057D01*
X177870Y-115329D01*
X179236Y-115057D01*
X180393Y-114283D01*
X181167Y-113126D01*
X181439Y-111760D01*
X181167Y-110394D01*
X180393Y-109237D01*
X179236Y-108463D01*
X177870Y-108191D01*
D02*
G37*
G36*
X-253350Y-115440D02*
X-267350D01*
Y-135440D01*
X-253350D01*
Y-126140D01*
X-252368Y-125334D01*
X-251591Y-125489D01*
X-250225Y-125217D01*
X-249067Y-124443D01*
X-248294Y-123286D01*
X-248022Y-121920D01*
X-248294Y-120554D01*
X-249067Y-119397D01*
X-250225Y-118623D01*
X-251591Y-118351D01*
X-252368Y-118506D01*
X-253350Y-117700D01*
Y-115440D01*
D02*
G37*
G36*
X279781Y-83820D02*
X274066D01*
Y-99060D01*
X279781D01*
Y-91440D01*
Y-83820D01*
D02*
G37*
G36*
X49530Y-19032D02*
X48164Y-19304D01*
X47007Y-20077D01*
X46233Y-21235D01*
X45961Y-22601D01*
X46196Y-23779D01*
Y-25290D01*
X44530D01*
Y-34290D01*
Y-43290D01*
X46196D01*
Y-78831D01*
X45961Y-80010D01*
X46233Y-81376D01*
X47007Y-82533D01*
X48164Y-83307D01*
X49530Y-83579D01*
X50896Y-83307D01*
X52053Y-82533D01*
X52827Y-81376D01*
X53099Y-80010D01*
X52864Y-78831D01*
Y-43290D01*
X54530D01*
Y-34290D01*
Y-33124D01*
X56690D01*
Y-33750D01*
X56690D01*
Y-37520D01*
X62230D01*
Y-38790D01*
X63500D01*
Y-43830D01*
X67770D01*
D01*
X67770D01*
X67930Y-43990D01*
Y-45290D01*
Y-57003D01*
X69930D01*
Y-64003D01*
X79930D01*
Y-62837D01*
X81184D01*
X82363Y-63071D01*
X83728Y-62800D01*
X84886Y-62026D01*
X85660Y-60868D01*
X85931Y-59503D01*
X85660Y-58137D01*
X84886Y-56979D01*
X83728Y-56206D01*
X82363Y-55934D01*
X81930Y-55579D01*
Y-45389D01*
X82977Y-45252D01*
X84558Y-44597D01*
X85916Y-43555D01*
X86958Y-42197D01*
X87613Y-40616D01*
X87836Y-38919D01*
X87613Y-37222D01*
X86958Y-35641D01*
X85916Y-34283D01*
X84558Y-33241D01*
X82977Y-32586D01*
X81930Y-32448D01*
Y-32290D01*
X79930D01*
Y-25290D01*
X69930D01*
Y-26456D01*
X67230D01*
Y-25290D01*
X57230D01*
Y-26456D01*
X54530D01*
Y-25290D01*
X52864D01*
Y-23779D01*
X53099Y-22601D01*
X52827Y-21235D01*
X52053Y-20077D01*
X50896Y-19304D01*
X49530Y-19032D01*
D02*
G37*
G36*
X-212141Y-75121D02*
X-213506Y-75392D01*
X-214664Y-76166D01*
X-215438Y-77324D01*
X-215709Y-78689D01*
X-215540Y-79540D01*
X-216346Y-80521D01*
X-217590D01*
Y-90521D01*
X-206590D01*
Y-80521D01*
X-207936D01*
X-208741Y-79540D01*
X-208572Y-78689D01*
X-208844Y-77324D01*
X-209617Y-76166D01*
X-210775Y-75392D01*
X-212141Y-75121D01*
D02*
G37*
G36*
X173591Y238141D02*
X169956Y231845D01*
X179716Y226210D01*
X183351Y232506D01*
X173591Y238141D01*
D02*
G37*
G36*
X156726Y236550D02*
X153091Y230254D01*
X162851Y224619D01*
X166486Y230915D01*
X156726Y236550D01*
D02*
G37*
G36*
X161631Y245046D02*
X157996Y238750D01*
X167756Y233115D01*
X171391Y239411D01*
X161631Y245046D01*
D02*
G37*
G36*
X-126960Y246040D02*
X-130730D01*
Y236270D01*
X-126960D01*
Y246040D01*
D02*
G37*
G36*
X-133270D02*
X-137040D01*
Y236270D01*
X-133270D01*
Y246040D01*
D02*
G37*
G36*
X73770Y246012D02*
Y235000D01*
Y223988D01*
X74603Y224154D01*
X75708Y224892D01*
X76285Y225755D01*
X77500Y225386D01*
Y224500D01*
X86500D01*
Y245500D01*
X77500D01*
Y244614D01*
X76285Y244245D01*
X75708Y245108D01*
X74603Y245846D01*
X73770Y246012D01*
D02*
G37*
G36*
X-73295Y233730D02*
X-76230D01*
Y223988D01*
X-75397Y224154D01*
X-74292Y224892D01*
X-73554Y225997D01*
X-73295Y227300D01*
Y233730D01*
D02*
G37*
G36*
X-78770D02*
X-81705D01*
Y227300D01*
X-81446Y225997D01*
X-80708Y224892D01*
X-79603Y224154D01*
X-78770Y223988D01*
Y233730D01*
D02*
G37*
G36*
X-28770D02*
X-31705D01*
Y227300D01*
X-31446Y225997D01*
X-30708Y224892D01*
X-29603Y224154D01*
X-28770Y223988D01*
Y233730D01*
D02*
G37*
G36*
X71230D02*
X68295D01*
Y227300D01*
X68554Y225997D01*
X69292Y224892D01*
X70397Y224154D01*
X71230Y223988D01*
Y233730D01*
D02*
G37*
G36*
X-23294D02*
X-26230D01*
Y223988D01*
X-25397Y224154D01*
X-24292Y224892D01*
X-23554Y225997D01*
X-23294Y227300D01*
Y233730D01*
D02*
G37*
G36*
X3770Y246012D02*
Y236270D01*
X6705D01*
Y242700D01*
X6446Y244003D01*
X5708Y245108D01*
X4603Y245846D01*
X3770Y246012D01*
D02*
G37*
G36*
X1230D02*
X397Y245846D01*
X-708Y245108D01*
X-1446Y244003D01*
X-1705Y242700D01*
Y236270D01*
X1230D01*
Y246012D01*
D02*
G37*
G36*
X71230D02*
X70397Y245846D01*
X69292Y245108D01*
X68554Y244003D01*
X68295Y242700D01*
Y236270D01*
X71230D01*
Y246012D01*
D02*
G37*
G36*
X109867Y274308D02*
X107600Y270382D01*
X105319D01*
X104140Y270617D01*
X102774Y270345D01*
X101617Y269572D01*
X100843Y268414D01*
X100571Y267048D01*
X100843Y265683D01*
X101617Y264525D01*
X102774Y263751D01*
X103213Y262783D01*
X101867Y260452D01*
X106510Y257771D01*
X106676Y256512D01*
X104107Y253942D01*
X103384Y252861D01*
X103130Y251585D01*
Y216354D01*
X103384Y215078D01*
X104107Y213996D01*
X107622Y210481D01*
D01*
X107622D01*
Y210481D01*
D01*
X107622D01*
Y210481D01*
X107622D01*
X107622Y210481D01*
Y210481D01*
X107622Y210481D01*
Y210481D01*
X108704Y209758D01*
X109979Y209505D01*
X110900D01*
X150479Y169926D01*
X151147Y168927D01*
X152304Y168153D01*
X153670Y167881D01*
X155036Y168153D01*
X156193Y168927D01*
X156844Y169900D01*
X158108Y170025D01*
X167094Y161039D01*
X167094Y161039D01*
X167094D01*
X167094Y161039D01*
X167094D01*
X167094Y161039D01*
Y161039D01*
Y161039D01*
D01*
D01*
X167094D01*
Y161039D01*
X168176Y160316D01*
X169452Y160062D01*
X184343D01*
X185522Y159828D01*
X186887Y160099D01*
X188045Y160873D01*
X188818Y162031D01*
X189090Y163396D01*
X188818Y164762D01*
X188045Y165919D01*
X187367Y166372D01*
X187795Y167568D01*
X188730Y167476D01*
Y188730D01*
X167476D01*
X167786Y185581D01*
X169075Y181333D01*
X171168Y177417D01*
X173985Y173985D01*
X177417Y171168D01*
X181333Y169075D01*
X184692Y168056D01*
X184630Y166787D01*
X184343Y166730D01*
X170833D01*
X164347Y173216D01*
X164472Y174479D01*
X164857Y174737D01*
X165631Y175894D01*
X165902Y177260D01*
X165631Y178626D01*
X164857Y179783D01*
X163858Y180451D01*
X127694Y216615D01*
Y217046D01*
X127929Y218225D01*
X127657Y219590D01*
X126883Y220748D01*
X125726Y221521D01*
X124360Y221793D01*
X122994Y221521D01*
X121837Y220748D01*
X121063Y219590D01*
X120813Y218334D01*
X119809Y218029D01*
X119579Y217983D01*
X116981Y220582D01*
X115899Y221305D01*
X114623Y221559D01*
X113039D01*
X111860Y221793D01*
X110780Y221578D01*
X109798Y222384D01*
Y250204D01*
X113392Y253798D01*
X122652Y248452D01*
X130652Y262308D01*
X109867Y274308D01*
D02*
G37*
G36*
X23300Y247594D02*
X21700D01*
X19827Y247222D01*
X18239Y246161D01*
X17179Y244573D01*
X17098Y244168D01*
X15852Y243920D01*
X15319Y244719D01*
X14392Y245338D01*
X13300Y245555D01*
X11700D01*
X10608Y245338D01*
X9681Y244719D01*
X9062Y243792D01*
X8845Y242700D01*
Y227300D01*
X9062Y226208D01*
X9166Y226053D01*
Y224899D01*
X9039Y224262D01*
X7866Y223776D01*
X7691Y223892D01*
X6472Y224135D01*
X6201Y224789D01*
X6072Y225437D01*
X6446Y225997D01*
X6705Y227300D01*
Y233730D01*
X-1705D01*
Y227300D01*
X-1446Y225997D01*
X-708Y224892D01*
X397Y224154D01*
X1700Y223895D01*
X2973D01*
X3572Y222775D01*
X3029Y221961D01*
X2757Y220595D01*
X3029Y219230D01*
X3802Y218072D01*
X4038Y217914D01*
X4062Y217792D01*
X4062D01*
X4062Y217792D01*
X3845Y216700D01*
Y201300D01*
X4062Y200208D01*
X4681Y199281D01*
X5608Y198662D01*
X6700Y198445D01*
X8300D01*
X9392Y198662D01*
X10319Y199281D01*
X10938Y200208D01*
X11155Y201300D01*
Y216700D01*
X10938Y217792D01*
X10834Y217947D01*
Y219421D01*
X11134Y220423D01*
D01*
X11134Y220423D01*
X12500Y220151D01*
X13866Y220423D01*
X14915Y221124D01*
X15312Y221004D01*
X16215Y220400D01*
X15652Y219346D01*
X15608Y219338D01*
X14681Y218719D01*
X14062Y217792D01*
X13845Y216700D01*
Y201300D01*
X14062Y200208D01*
X14681Y199281D01*
X15608Y198662D01*
X16700Y198445D01*
X18300D01*
X18300Y198445D01*
Y198445D01*
X18576Y198120D01*
Y131097D01*
X18576Y131097D01*
X18576D01*
X18885Y128747D01*
X19792Y126558D01*
X21235Y124678D01*
X36072Y109840D01*
Y102170D01*
X8827D01*
Y101872D01*
X-17167D01*
Y88372D01*
X-17167D01*
Y87967D01*
X-17408Y87919D01*
X-18566Y87146D01*
X-19339Y85988D01*
X-19611Y84622D01*
X-19339Y83257D01*
X-18566Y82099D01*
X-17408Y81326D01*
X-16042Y81054D01*
X-15749Y81112D01*
X-14767Y80307D01*
Y80273D01*
X-8968D01*
Y79131D01*
X-9202Y77952D01*
X-8930Y76586D01*
X-8157Y75428D01*
X-6999Y74655D01*
X-5634Y74383D01*
X-4880Y74533D01*
X-3982Y73635D01*
X-4109Y73000D01*
X-3837Y71634D01*
X-3063Y70477D01*
X-2706Y70238D01*
X-2582Y68974D01*
X-5992Y65564D01*
X-11260D01*
X-19904Y74208D01*
X-20985Y74930D01*
X-22261Y75184D01*
X-49047D01*
X-50323Y74930D01*
X-50756Y74641D01*
X-51405Y74208D01*
X-76912Y48700D01*
X-78176Y48824D01*
X-78637Y49513D01*
X-79636Y50181D01*
X-94966Y65511D01*
Y71535D01*
X-95220Y72811D01*
X-95942Y73892D01*
X-111775Y89725D01*
Y96083D01*
X-112029Y97359D01*
X-112751Y98441D01*
X-129168Y114858D01*
X-130250Y115580D01*
X-131525Y115834D01*
X-142500D01*
Y119250D01*
Y124250D01*
Y128710D01*
X-141960D01*
Y131480D01*
X-161007D01*
X-161522Y131057D01*
X-161579Y131069D01*
X-162187Y130948D01*
X-163085Y131846D01*
X-162894Y132805D01*
X-163166Y134171D01*
X-163940Y135328D01*
X-165098Y136102D01*
X-166463Y136374D01*
X-167829Y136102D01*
X-168880Y135400D01*
X-169945Y135969D01*
X-170000Y136006D01*
Y138250D01*
X-170000Y138250D01*
X-170000D01*
X-170081Y138446D01*
X-112507Y196020D01*
X-112211Y196406D01*
X-111700D01*
X-109827Y196779D01*
X-108239Y197839D01*
X-107257Y199310D01*
X-106588D01*
X-105895Y199172D01*
X-105708Y198892D01*
X-104603Y198154D01*
X-103770Y197988D01*
Y209000D01*
Y220012D01*
X-104603Y219846D01*
X-105708Y219108D01*
X-105895Y218828D01*
X-106588Y218690D01*
X-107257D01*
X-108239Y220161D01*
X-109827Y221222D01*
X-110440Y221343D01*
Y223095D01*
X-109392Y224662D01*
X-108300Y224445D01*
X-106700D01*
X-105607Y224662D01*
X-104681Y225281D01*
X-104062Y226208D01*
X-103845Y227300D01*
Y242700D01*
X-104062Y243792D01*
X-104681Y244719D01*
X-105607Y245338D01*
X-106700Y245555D01*
X-108300D01*
X-109392Y245338D01*
X-110319Y244719D01*
X-110852Y243920D01*
X-112098Y244168D01*
X-112178Y244573D01*
X-113239Y246161D01*
X-114827Y247222D01*
X-116700Y247594D01*
X-118300D01*
X-120173Y247222D01*
X-121761Y246161D01*
X-122821Y244573D01*
X-123194Y242700D01*
Y239078D01*
X-123614Y238530D01*
X-124320Y236827D01*
X-124560Y235000D01*
Y221343D01*
X-125173Y221222D01*
X-126761Y220161D01*
X-126861Y220010D01*
X-126960Y220040D01*
Y220040D01*
X-126960Y220040D01*
X-130730D01*
Y209000D01*
X-132000D01*
Y207730D01*
X-137040D01*
Y197960D01*
X-132196D01*
X-131710Y196787D01*
X-185742Y142754D01*
X-186567Y141680D01*
X-191866D01*
X-193693Y141440D01*
X-194192Y141233D01*
X-195396Y140735D01*
X-196859Y139612D01*
X-200572Y135899D01*
X-201695Y134436D01*
X-202400Y132733D01*
X-202640Y130906D01*
Y118770D01*
X-202400Y116943D01*
X-202378Y116890D01*
X-203084Y115834D01*
X-209143D01*
X-210419Y115580D01*
X-211500Y114858D01*
X-242388Y83970D01*
X-243110Y82889D01*
X-243364Y81613D01*
Y48984D01*
X-243110Y47708D01*
X-242388Y46626D01*
X-235394Y39633D01*
Y2927D01*
X-235140Y1652D01*
X-234417Y570D01*
X-207170Y-26677D01*
X-206089Y-27400D01*
X-204813Y-27654D01*
X-127691D01*
X-126415Y-27400D01*
X-125334Y-26677D01*
X-120944Y-22288D01*
X-73493D01*
X-72217Y-22034D01*
X-71136Y-21311D01*
X-22043Y27781D01*
X8558D01*
X9737Y27546D01*
X11102Y27818D01*
X12260Y28592D01*
X13034Y29749D01*
X13305Y31115D01*
X13034Y32481D01*
X12260Y33638D01*
X11102Y34412D01*
X10534Y34525D01*
X10165Y35740D01*
X11261Y36835D01*
X12260Y37503D01*
X13034Y38661D01*
X13305Y40027D01*
X13215Y40481D01*
X13572Y40917D01*
X14841Y40979D01*
X17317Y38503D01*
X17985Y37503D01*
X19143Y36730D01*
X20508Y36458D01*
X21874Y36730D01*
X23032Y37503D01*
X23805Y38661D01*
X24077Y40027D01*
X23805Y41392D01*
X23032Y42550D01*
X22032Y43218D01*
X18096Y47154D01*
X17014Y47877D01*
X15738Y48131D01*
X7761D01*
X6485Y47877D01*
X5403Y47154D01*
X2223Y43974D01*
X-26741D01*
X-28016Y43720D01*
X-29098Y42998D01*
X-30169Y41926D01*
X-31433Y42051D01*
X-31767Y42550D01*
X-32924Y43324D01*
X-34290Y43595D01*
X-35656Y43324D01*
X-36813Y42550D01*
X-37481Y41550D01*
X-81032Y-2000D01*
X-127967D01*
X-129243Y-2254D01*
X-130324Y-2976D01*
X-134495Y-7147D01*
X-198009D01*
X-215106Y9950D01*
Y76140D01*
X-202080Y89166D01*
X-189500D01*
Y84250D01*
Y79250D01*
Y74250D01*
Y69250D01*
Y64356D01*
X-190482Y63550D01*
X-190821Y63618D01*
X-204014D01*
X-204533Y63833D01*
X-206230Y64056D01*
X-207927Y63833D01*
X-209508Y63178D01*
X-210866Y62136D01*
X-211908Y60778D01*
X-212563Y59197D01*
X-212786Y57500D01*
X-212563Y55803D01*
X-211908Y54222D01*
X-210866Y52864D01*
X-209508Y51822D01*
X-207927Y51167D01*
X-206230Y50944D01*
X-204533Y51167D01*
X-204014Y51382D01*
X-190821D01*
X-190482Y51450D01*
X-189500Y50644D01*
Y49250D01*
Y44250D01*
Y39250D01*
Y34250D01*
Y29250D01*
Y25834D01*
X-193131D01*
X-194310Y26069D01*
X-195676Y25797D01*
X-196833Y25023D01*
X-197607Y23866D01*
X-197879Y22500D01*
X-197607Y21134D01*
X-196833Y19977D01*
X-195676Y19203D01*
X-194310Y18931D01*
X-194047Y17609D01*
X-194069Y17500D01*
X-193797Y16134D01*
X-193023Y14977D01*
X-191866Y14203D01*
X-190500Y13931D01*
X-190040Y13554D01*
Y13520D01*
X-171460D01*
Y16290D01*
X-172000D01*
Y19250D01*
Y24166D01*
X-168819D01*
X-167640Y23931D01*
X-166274Y24203D01*
X-165117Y24977D01*
X-164343Y26134D01*
X-164071Y27500D01*
X-164343Y28866D01*
X-165117Y30023D01*
X-166274Y30797D01*
X-167333Y31007D01*
X-168039Y32064D01*
X-167952Y32500D01*
X-168039Y32936D01*
X-167333Y33993D01*
X-166274Y34203D01*
X-165117Y34977D01*
X-164343Y36134D01*
X-164071Y37500D01*
X-164343Y38866D01*
X-165117Y40023D01*
X-166274Y40797D01*
X-167333Y41007D01*
X-168039Y42063D01*
X-167952Y42500D01*
X-168039Y42937D01*
X-167333Y43993D01*
X-166274Y44203D01*
X-165117Y44977D01*
X-164343Y46134D01*
X-164071Y47500D01*
X-164343Y48866D01*
X-165117Y50023D01*
X-166274Y50797D01*
X-167333Y51007D01*
X-168039Y52063D01*
X-167952Y52500D01*
X-168224Y53866D01*
X-168997Y55023D01*
X-170000Y55693D01*
Y62750D01*
X-172000D01*
Y64250D01*
Y69250D01*
Y74250D01*
Y79250D01*
Y84250D01*
Y89250D01*
Y94250D01*
Y99250D01*
Y104250D01*
Y109250D01*
Y114250D01*
Y119250D01*
Y124166D01*
X-171768D01*
X-170736Y124371D01*
X-169838Y123473D01*
X-170032Y122500D01*
X-169760Y121134D01*
X-168986Y119977D01*
X-167829Y119203D01*
X-166463Y118931D01*
X-165918Y119040D01*
X-165020Y118142D01*
X-165148Y117500D01*
X-164876Y116134D01*
X-164103Y114977D01*
X-162945Y114203D01*
X-161579Y113931D01*
X-160982Y114050D01*
X-160000Y113245D01*
Y111290D01*
X-160540D01*
Y108770D01*
X-151250D01*
Y106230D01*
X-160540D01*
Y103710D01*
X-160000D01*
Y99250D01*
Y94250D01*
Y89250D01*
Y84250D01*
Y79250D01*
Y74250D01*
Y69250D01*
Y64250D01*
Y59250D01*
Y56290D01*
X-160540D01*
Y53770D01*
X-141960D01*
Y56290D01*
X-142500D01*
Y59250D01*
Y64250D01*
Y69250D01*
Y74250D01*
Y79250D01*
Y84250D01*
Y89166D01*
X-139908D01*
X-115254Y64512D01*
Y58163D01*
X-115000Y56887D01*
X-114277Y55806D01*
X-114277Y55806D01*
X-114277Y55806D01*
X-89244Y30772D01*
X-89244Y30772D01*
X-89244D01*
X-89244Y30772D01*
X-89244D01*
X-89244Y30772D01*
Y30772D01*
Y30772D01*
D01*
D01*
X-89244D01*
Y30772D01*
X-88162Y30049D01*
X-86886Y29795D01*
X-74602D01*
X-73326Y30049D01*
X-72244Y30772D01*
X-72244Y30772D01*
X-72244Y30772D01*
X-43977Y59039D01*
X-42978Y59707D01*
X-42204Y60864D01*
X-41932Y62230D01*
X-42084Y62994D01*
X-41279Y63976D01*
X-25848D01*
X-16974Y55103D01*
X-15893Y54380D01*
X-14617Y54126D01*
X-2960D01*
X-1684Y54380D01*
X-602Y55103D01*
X4499Y60203D01*
X6440Y60590D01*
X7213Y59432D01*
X8371Y58658D01*
X9737Y58387D01*
X11102Y58658D01*
X12260Y59432D01*
X12928Y60431D01*
X15707Y63211D01*
X16827Y62612D01*
X16751Y62230D01*
X17023Y60864D01*
X17797Y59707D01*
X18954Y58933D01*
X20320Y58661D01*
X21686Y58933D01*
X22843Y59707D01*
X23617Y60864D01*
X23889Y62230D01*
X23654Y63409D01*
Y64737D01*
X27717Y68800D01*
X28440Y69882D01*
X28693Y71157D01*
Y80570D01*
X34493D01*
Y88670D01*
X36072D01*
Y43124D01*
X-7637Y-585D01*
X-7705Y-637D01*
X-41170Y-34102D01*
X-92739D01*
X-94341Y-32500D01*
X-96221Y-31058D01*
X-97128Y-30682D01*
X-98411Y-30151D01*
X-100760Y-29841D01*
X-103110Y-30151D01*
X-105299Y-31058D01*
X-107179Y-32500D01*
X-108621Y-34380D01*
X-109528Y-36569D01*
X-109838Y-38919D01*
Y-48260D01*
X-109838Y-48260D01*
X-109838D01*
X-109528Y-50609D01*
X-108997Y-51892D01*
X-108621Y-52799D01*
X-107179Y-54679D01*
X-105299Y-56122D01*
X-104392Y-56497D01*
X-103109Y-57028D01*
X-100760Y-57338D01*
X-98411Y-57028D01*
X-97128Y-56497D01*
X-96221Y-56122D01*
X-94341Y-54679D01*
X-94341Y-54679D01*
X-94341Y-54679D01*
X-91920Y-52258D01*
X-37410D01*
X-35061Y-51948D01*
X-33778Y-51417D01*
X-32871Y-51041D01*
X-30991Y-49599D01*
X-30991Y-49599D01*
X-30991Y-49599D01*
X5081Y-13527D01*
X5149Y-13475D01*
X13193Y-5431D01*
X14457Y-5555D01*
X14977Y-6333D01*
X16134Y-7107D01*
X17500Y-7379D01*
X18866Y-7107D01*
X20023Y-6333D01*
X20691Y-5334D01*
X56968Y30942D01*
X57690Y32024D01*
X57944Y33300D01*
X57944Y33300D01*
X57944Y33300D01*
Y33300D01*
Y79899D01*
X60198Y82152D01*
X60920Y83234D01*
X60920Y83234D01*
X60920Y83234D01*
X61174Y84510D01*
Y90250D01*
X62340D01*
Y91931D01*
X64660D01*
Y90266D01*
X82660D01*
Y91703D01*
X83916Y91953D01*
X85073Y92727D01*
X85847Y93884D01*
X86119Y95250D01*
X85847Y96616D01*
X85073Y97773D01*
X83916Y98547D01*
X82660Y98797D01*
Y100266D01*
X64660D01*
Y98600D01*
X62340D01*
Y100250D01*
X55340D01*
Y102250D01*
X54228D01*
Y113600D01*
X54228Y113600D01*
X53918Y115949D01*
X53011Y118139D01*
X52195Y119203D01*
X51569Y120019D01*
X51569Y120019D01*
X36731Y134857D01*
Y148417D01*
X37787Y149123D01*
X37826Y149107D01*
X39653Y148866D01*
X41481Y149107D01*
X43184Y149812D01*
X44646Y150934D01*
X45768Y152396D01*
X46473Y154099D01*
X46714Y155927D01*
X46473Y157754D01*
X45768Y159457D01*
X44646Y160919D01*
X43184Y162041D01*
X41481Y162746D01*
X39653Y162987D01*
X37826Y162746D01*
X37787Y162730D01*
X36731Y163436D01*
Y197895D01*
X38300D01*
X39166Y197184D01*
Y184434D01*
X39420Y183158D01*
X40142Y182077D01*
X40142Y182077D01*
X40142Y182077D01*
X103927Y118292D01*
X105008Y117570D01*
X106284Y117316D01*
X111851D01*
X113030Y117081D01*
X114396Y117353D01*
X115553Y118127D01*
X115811Y118512D01*
X117074Y118636D01*
X129568Y106142D01*
X130650Y105420D01*
X131926Y105166D01*
X142500D01*
Y102290D01*
X141960D01*
Y99770D01*
X161231D01*
X161522Y100009D01*
X161910Y99931D01*
X163189Y100186D01*
X164087Y99288D01*
X164071Y99210D01*
X164343Y97844D01*
X165117Y96687D01*
X166274Y95913D01*
X167640Y95641D01*
X169006Y95913D01*
X170163Y96687D01*
X170785Y97617D01*
X171586Y97373D01*
X172000Y97202D01*
Y95250D01*
Y93750D01*
X170000D01*
Y87003D01*
X168964Y86797D01*
X167807Y86023D01*
X167033Y84866D01*
X166761Y83500D01*
X166845Y83079D01*
X166140Y82023D01*
X165004Y81797D01*
X163847Y81023D01*
X163073Y79866D01*
X162801Y78500D01*
X163073Y77134D01*
X163847Y75977D01*
X165004Y75203D01*
X166370Y74931D01*
X167549Y75166D01*
X170000D01*
Y68250D01*
Y67003D01*
X168964Y66797D01*
X167807Y66023D01*
X167033Y64866D01*
X166761Y63500D01*
X167033Y62134D01*
D01*
X166370Y61989D01*
X166370Y61989D01*
Y61989D01*
X165004Y61717D01*
X163847Y60943D01*
X163073Y59786D01*
X162801Y58420D01*
X163073Y57054D01*
X163847Y55897D01*
X165004Y55123D01*
X166124Y54900D01*
X166830Y53844D01*
X166761Y53500D01*
X167033Y52134D01*
X167807Y50977D01*
X168964Y50203D01*
X170330Y49931D01*
X171018Y50068D01*
X172000Y49263D01*
Y45250D01*
Y42817D01*
X171018Y42011D01*
X170730Y42069D01*
X169364Y41797D01*
X168207Y41023D01*
X167433Y39866D01*
X167161Y38500D01*
X167433Y37134D01*
X168207Y35977D01*
X169364Y35203D01*
X170000Y35077D01*
Y28250D01*
X172000D01*
Y25250D01*
Y20250D01*
Y14750D01*
X178671D01*
X179311Y13970D01*
X179583Y12604D01*
X180357Y11447D01*
X181514Y10673D01*
X182880Y10401D01*
X184246Y10673D01*
X185403Y11447D01*
X186177Y12604D01*
X186449Y13970D01*
X187089Y14750D01*
X189500D01*
Y20166D01*
X190591D01*
X191770Y19931D01*
X192534Y20083D01*
X193516Y19278D01*
Y16936D01*
X193281Y15757D01*
X193553Y14391D01*
X194327Y13234D01*
X195484Y12460D01*
X196850Y12189D01*
X198216Y12460D01*
X199373Y13234D01*
X200147Y14391D01*
X200419Y15757D01*
X200184Y16936D01*
Y25268D01*
X199930Y26544D01*
X199260Y27547D01*
X199629Y28762D01*
X199745Y28811D01*
X201207Y29933D01*
X202330Y31395D01*
X203035Y33098D01*
X203275Y34925D01*
Y38100D01*
Y93687D01*
X214402D01*
X215756Y90573D01*
X216371Y90840D01*
X217086Y89790D01*
X213542Y86247D01*
X213407Y86043D01*
X213377Y86023D01*
X212603Y84866D01*
X212331Y83500D01*
X212603Y82134D01*
X213377Y80977D01*
X214534Y80203D01*
X215900Y79931D01*
X217266Y80203D01*
X218423Y80977D01*
X219197Y82134D01*
X219280Y82555D01*
X219976Y83250D01*
X221224Y83013D01*
X221698Y81923D01*
X221698Y81923D01*
X221698Y81923D01*
X221777Y81741D01*
X222056Y81099D01*
D01*
D01*
X222056Y81099D01*
X221232Y80244D01*
X219867Y79973D01*
X218709Y79199D01*
X217936Y78042D01*
X217664Y76676D01*
X217936Y75310D01*
X218709Y74152D01*
X219867Y73379D01*
X221232Y73107D01*
X222411Y73342D01*
X225429D01*
X226682Y70459D01*
X226682Y70459D01*
X226682Y70459D01*
X226841Y70094D01*
X226941Y69865D01*
X227041Y69636D01*
X227199Y69271D01*
Y69271D01*
X227199D01*
X227217Y69230D01*
X226628Y68104D01*
X226440Y68067D01*
X225283Y67293D01*
X224509Y66136D01*
X224237Y64770D01*
X224509Y63404D01*
X225283Y62247D01*
X226440Y61473D01*
X227806Y61201D01*
X228985Y61436D01*
X230606D01*
X231826Y58631D01*
X254752Y68600D01*
X250126Y79240D01*
X250126Y79240D01*
X250126Y79240D01*
X249967Y79605D01*
X249768Y80063D01*
D01*
D01*
D01*
D01*
X249768D01*
X249768Y80063D01*
X245062Y90886D01*
X245062Y90886D01*
X245062D01*
X244983Y91068D01*
X244704Y91710D01*
D01*
X244704Y91710D01*
X240517Y101339D01*
X242351Y102136D01*
X235971Y116809D01*
X235455Y116585D01*
X234274Y117051D01*
X233264Y119373D01*
X221306Y114173D01*
X220293Y116502D01*
X232251Y121702D01*
X230963Y124664D01*
X232201Y125202D01*
X240353D01*
X240444Y125132D01*
X242025Y124477D01*
X243722Y124254D01*
X245419Y124477D01*
X247000Y125132D01*
X248358Y126174D01*
X249400Y127532D01*
X250055Y129113D01*
X250278Y130810D01*
X250055Y132507D01*
X249400Y134088D01*
X248358Y135446D01*
X247000Y136488D01*
X245419Y137143D01*
X243722Y137366D01*
X242025Y137143D01*
X240444Y136488D01*
X240353Y136418D01*
X227445D01*
X225922Y139919D01*
X204338Y130534D01*
X203275Y131230D01*
Y137084D01*
X203035Y138911D01*
X202330Y140614D01*
X201207Y142076D01*
X195162Y148121D01*
X193700Y149243D01*
X191997Y149949D01*
X190170Y150189D01*
X176530D01*
X174703Y149949D01*
X173000Y149243D01*
X171538Y148121D01*
X170415Y146659D01*
X169710Y144956D01*
X169470Y143129D01*
X169710Y141302D01*
X170000Y140602D01*
Y137003D01*
X168964Y136797D01*
X167807Y136023D01*
X167033Y134866D01*
X166761Y133500D01*
X166771Y133454D01*
X166065Y132398D01*
X165004Y132187D01*
X163847Y131413D01*
X163073Y130256D01*
X162801Y128890D01*
X162992Y127930D01*
X162094Y127032D01*
X161910Y127069D01*
X161522Y126991D01*
X161231Y127230D01*
X141960D01*
Y124710D01*
X142500D01*
Y122290D01*
X141960D01*
Y119770D01*
X151250D01*
Y117230D01*
X141960D01*
Y116834D01*
X139117D01*
X125266Y130685D01*
Y148278D01*
X125012Y149554D01*
X124290Y150636D01*
X123208Y151358D01*
X121932Y151612D01*
X120656Y151358D01*
X120512Y151262D01*
X120189Y151198D01*
X119031Y150424D01*
X118258Y149266D01*
X117986Y147901D01*
X118258Y146535D01*
X118598Y146026D01*
Y129304D01*
X118852Y128028D01*
X117809Y127331D01*
X65834Y179307D01*
Y197184D01*
X66230Y197509D01*
Y209000D01*
Y220491D01*
X65834Y220816D01*
Y226053D01*
X65938Y226208D01*
X66155Y227300D01*
Y242700D01*
X65938Y243792D01*
X65319Y244719D01*
X64392Y245338D01*
X63300Y245555D01*
X61700D01*
X60608Y245338D01*
X59681Y244719D01*
X59062Y243792D01*
X58845Y242700D01*
Y227300D01*
X59062Y226208D01*
X59166Y226053D01*
Y220266D01*
X58300Y219555D01*
X56700D01*
X55834Y220266D01*
Y226053D01*
X55938Y226208D01*
X56155Y227300D01*
Y242700D01*
X55938Y243792D01*
X55319Y244719D01*
X54392Y245338D01*
X53300Y245555D01*
X51700D01*
X50608Y245338D01*
X49681Y244719D01*
X49062Y243792D01*
X48845Y242700D01*
Y227300D01*
X49062Y226208D01*
X49166Y226053D01*
Y220266D01*
X48300Y219555D01*
X46700D01*
X45834Y220266D01*
Y226053D01*
X45938Y226208D01*
X46155Y227300D01*
Y242700D01*
X45938Y243792D01*
X45319Y244719D01*
X44392Y245338D01*
X43300Y245555D01*
X41700D01*
X40608Y245338D01*
X39681Y244719D01*
X39062Y243792D01*
X38845Y242700D01*
Y227300D01*
X39062Y226208D01*
X39166Y226053D01*
Y220816D01*
X38770Y220491D01*
Y209000D01*
X36230D01*
Y220012D01*
X35397Y219846D01*
X34343Y220324D01*
X34320Y220497D01*
X33614Y222200D01*
X33300Y222610D01*
X33300Y224445D01*
X34392Y224662D01*
X35319Y225281D01*
X35938Y226208D01*
X36155Y227300D01*
Y242700D01*
X35938Y243792D01*
X35319Y244719D01*
X34392Y245338D01*
X33300Y245555D01*
X31700D01*
X30608Y245338D01*
X29681Y244719D01*
X29148Y243920D01*
X27902Y244168D01*
X27822Y244573D01*
X26761Y246161D01*
X25173Y247222D01*
X23300Y247594D01*
D02*
G37*
G36*
X-26230Y246012D02*
Y236270D01*
X-23294D01*
Y242700D01*
X-23554Y244003D01*
X-24292Y245108D01*
X-25397Y245846D01*
X-26230Y246012D01*
D02*
G37*
G36*
X-86230D02*
Y236270D01*
X-83294D01*
Y242700D01*
X-83554Y244003D01*
X-84292Y245108D01*
X-85397Y245846D01*
X-86230Y246012D01*
D02*
G37*
G36*
X-88770D02*
X-89603Y245846D01*
X-90708Y245108D01*
X-91446Y244003D01*
X-91705Y242700D01*
Y236270D01*
X-88770D01*
Y246012D01*
D02*
G37*
G36*
X-78770D02*
X-79603Y245846D01*
X-80708Y245108D01*
X-81446Y244003D01*
X-81705Y242700D01*
Y236270D01*
X-78770D01*
Y246012D01*
D02*
G37*
G36*
X-28770D02*
X-29603Y245846D01*
X-30708Y245108D01*
X-31446Y244003D01*
X-31705Y242700D01*
Y236270D01*
X-28770D01*
Y246012D01*
D02*
G37*
G36*
X-76230D02*
Y236270D01*
X-73295D01*
Y242700D01*
X-73554Y244003D01*
X-74292Y245108D01*
X-75397Y245846D01*
X-76230Y246012D01*
D02*
G37*
G36*
X188730Y212524D02*
X185581Y212214D01*
X181333Y210925D01*
X177417Y208832D01*
X173985Y206015D01*
X171168Y202583D01*
X169075Y198667D01*
X167786Y194419D01*
X167476Y191270D01*
X188730D01*
Y212524D01*
D02*
G37*
G36*
X-188730D02*
Y191270D01*
X-167476D01*
X-167786Y194419D01*
X-169075Y198667D01*
X-171168Y202583D01*
X-173985Y206015D01*
X-177417Y208832D01*
X-181333Y210925D01*
X-185581Y212214D01*
X-188730Y212524D01*
D02*
G37*
G36*
X191270D02*
Y191270D01*
X212524D01*
X212214Y194419D01*
X210925Y198667D01*
X208832Y202583D01*
X206015Y206015D01*
X202583Y208832D01*
X198667Y210925D01*
X194419Y212214D01*
X191270Y212524D01*
D02*
G37*
G36*
X71705Y207730D02*
X68770D01*
Y197988D01*
X69603Y198154D01*
X70708Y198892D01*
X71446Y199997D01*
X71705Y201300D01*
Y207730D01*
D02*
G37*
G36*
X1706D02*
X-1230D01*
Y197988D01*
X-397Y198154D01*
X708Y198892D01*
X1446Y199997D01*
X1706Y201300D01*
Y207730D01*
D02*
G37*
G36*
X-191270Y212524D02*
X-194419Y212214D01*
X-198667Y210925D01*
X-202583Y208832D01*
X-206015Y206015D01*
X-208832Y202583D01*
X-210925Y198667D01*
X-212214Y194419D01*
X-212524Y191270D01*
X-191270D01*
Y212524D01*
D02*
G37*
G36*
X227412Y174687D02*
X212492Y168199D01*
X217185Y157406D01*
X232106Y163893D01*
X227412Y174687D01*
D02*
G37*
G36*
X-40233Y162950D02*
X-42061Y162710D01*
X-43763Y162004D01*
X-45226Y160882D01*
X-46348Y159420D01*
X-47053Y157717D01*
X-47294Y155890D01*
X-47053Y154063D01*
X-46348Y152360D01*
X-45226Y150898D01*
X-43763Y149775D01*
X-42061Y149070D01*
X-40233Y148829D01*
X-38406Y149070D01*
X-36703Y149775D01*
X-35241Y150898D01*
X-34119Y152360D01*
X-33414Y154063D01*
X-33173Y155890D01*
X-33414Y157717D01*
X-34119Y159420D01*
X-35241Y160882D01*
X-36703Y162004D01*
X-38406Y162710D01*
X-40233Y162950D01*
D02*
G37*
G36*
X-191270Y188730D02*
X-212524D01*
X-212214Y185581D01*
X-210925Y181333D01*
X-208832Y177417D01*
X-206015Y173985D01*
X-202583Y171168D01*
X-198667Y169075D01*
X-194419Y167786D01*
X-191270Y167476D01*
Y188730D01*
D02*
G37*
G36*
X212524D02*
X191270D01*
Y167476D01*
X194419Y167786D01*
X198667Y169075D01*
X202583Y171168D01*
X206015Y173985D01*
X208832Y177417D01*
X210925Y181333D01*
X212214Y185581D01*
X212524Y188730D01*
D02*
G37*
G36*
X-167476D02*
X-188730D01*
Y167476D01*
X-185581Y167786D01*
X-181333Y169075D01*
X-177417Y171168D01*
X-173985Y173985D01*
X-171168Y177417D01*
X-169075Y181333D01*
X-167786Y185581D01*
X-167476Y188730D01*
D02*
G37*
G36*
X-133270Y233730D02*
X-137040D01*
Y223960D01*
X-133270D01*
Y233730D01*
D02*
G37*
G36*
X-6700Y245555D02*
X-8300D01*
X-9392Y245338D01*
X-10319Y244719D01*
X-10938Y243792D01*
X-11155Y242700D01*
Y227300D01*
X-10938Y226208D01*
X-10834Y226053D01*
Y220266D01*
X-11700Y219555D01*
X-13300D01*
X-14166Y220266D01*
Y226053D01*
X-14062Y226208D01*
X-13845Y227300D01*
Y242700D01*
X-14062Y243792D01*
X-14681Y244719D01*
X-15608Y245338D01*
X-16700Y245555D01*
X-18300D01*
X-19392Y245338D01*
X-20319Y244719D01*
X-20938Y243792D01*
X-21155Y242700D01*
Y227300D01*
X-20938Y226208D01*
X-20834Y226053D01*
Y220266D01*
X-21700Y219555D01*
X-23300D01*
X-24392Y219338D01*
X-25319Y218719D01*
X-25938Y217792D01*
X-26155Y216700D01*
Y201300D01*
X-25938Y200208D01*
X-25834Y200053D01*
Y126861D01*
X-51054Y101642D01*
X-52053Y100974D01*
X-52827Y99816D01*
X-53099Y98450D01*
X-52827Y97085D01*
X-52053Y95927D01*
X-50896Y95154D01*
X-49530Y94882D01*
X-48164Y95154D01*
X-47007Y95927D01*
X-46339Y96927D01*
X-21686Y121580D01*
X-20422Y121455D01*
X-20163Y121068D01*
X-19006Y120294D01*
X-17640Y120023D01*
X-16274Y120294D01*
X-15117Y121068D01*
X-14343Y122226D01*
X-14071Y123591D01*
X-14166Y124066D01*
Y138266D01*
X-13184Y139072D01*
X-12500Y138936D01*
X-11134Y139207D01*
X-9977Y139981D01*
X-9203Y141139D01*
X-8931Y142504D01*
X-9166Y143683D01*
Y171022D01*
X-8184Y171828D01*
X-7500Y171691D01*
X-6134Y171963D01*
X-4977Y172737D01*
X-4203Y173894D01*
X-3931Y175260D01*
X-4166Y176439D01*
Y197184D01*
X-3770Y197509D01*
Y209000D01*
Y220491D01*
X-4166Y220816D01*
Y226053D01*
X-4062Y226208D01*
X-3845Y227300D01*
Y242700D01*
X-4062Y243792D01*
X-4681Y244719D01*
X-5608Y245338D01*
X-6700Y245555D01*
D02*
G37*
G36*
X-126960Y233730D02*
X-130730D01*
Y223960D01*
X-126960D01*
Y233730D01*
D02*
G37*
G36*
X-83294D02*
X-86230D01*
Y223988D01*
X-85397Y224154D01*
X-84292Y224892D01*
X-83554Y225997D01*
X-83294Y227300D01*
Y233730D01*
D02*
G37*
G36*
X-88770D02*
X-91705D01*
Y227300D01*
X-91446Y225997D01*
X-90708Y224892D01*
X-89603Y224154D01*
X-88770Y223988D01*
Y233730D01*
D02*
G37*
G36*
X-36700Y245555D02*
X-38300D01*
X-39392Y245338D01*
X-40319Y244719D01*
X-40938Y243792D01*
X-41155Y242700D01*
Y227300D01*
X-40938Y226208D01*
X-40834Y226053D01*
Y220266D01*
X-41700Y219555D01*
X-43300D01*
X-44166Y220266D01*
Y226053D01*
X-44062Y226208D01*
X-43845Y227300D01*
Y242700D01*
X-44062Y243792D01*
X-44681Y244719D01*
X-45608Y245338D01*
X-46700Y245555D01*
X-48300D01*
X-49392Y245338D01*
X-50319Y244719D01*
X-50938Y243792D01*
X-51155Y242700D01*
Y227300D01*
X-50938Y226208D01*
X-50834Y226053D01*
Y220816D01*
X-51230Y220491D01*
Y209000D01*
X-53770D01*
Y220491D01*
X-54166Y220816D01*
Y226053D01*
X-54062Y226208D01*
X-53845Y227300D01*
Y242700D01*
X-54062Y243792D01*
X-54681Y244719D01*
X-55608Y245338D01*
X-56700Y245555D01*
X-58300D01*
X-59392Y245338D01*
X-60319Y244719D01*
X-60938Y243792D01*
X-61155Y242700D01*
Y227300D01*
X-60938Y226208D01*
X-60834Y226053D01*
Y220266D01*
X-61700Y219555D01*
X-63300D01*
X-64166Y220266D01*
Y226053D01*
X-64062Y226208D01*
X-63845Y227300D01*
Y242700D01*
X-64062Y243792D01*
X-64681Y244719D01*
X-65607Y245338D01*
X-66700Y245555D01*
X-68300D01*
X-69392Y245338D01*
X-70319Y244719D01*
X-70938Y243792D01*
X-71155Y242700D01*
Y227300D01*
X-70938Y226208D01*
X-70834Y226053D01*
Y220266D01*
X-71700Y219555D01*
X-73300D01*
X-74392Y219338D01*
X-75319Y218719D01*
X-75938Y217792D01*
X-76155Y216700D01*
Y201300D01*
X-75938Y200208D01*
X-75834Y200053D01*
Y196045D01*
X-77993Y193886D01*
X-79166Y194372D01*
Y200053D01*
X-79062Y200208D01*
X-78845Y201300D01*
Y216700D01*
X-79062Y217792D01*
X-79681Y218719D01*
X-80608Y219338D01*
X-81700Y219555D01*
X-83300D01*
X-84392Y219338D01*
X-85319Y218719D01*
X-85938Y217792D01*
X-86155Y216700D01*
Y201300D01*
X-85938Y200208D01*
X-85834Y200053D01*
Y192465D01*
X-87993Y190307D01*
X-89166Y190793D01*
Y200053D01*
X-89062Y200208D01*
X-88845Y201300D01*
Y216700D01*
X-89062Y217792D01*
X-89681Y218719D01*
X-90607Y219338D01*
X-91700Y219555D01*
X-93300D01*
X-94166Y220266D01*
Y226053D01*
X-94062Y226208D01*
X-93845Y227300D01*
Y242700D01*
X-94062Y243792D01*
X-94681Y244719D01*
X-95608Y245338D01*
X-96700Y245555D01*
X-98300D01*
X-99392Y245338D01*
X-100319Y244719D01*
X-100938Y243792D01*
X-101155Y242700D01*
Y227300D01*
X-100938Y226208D01*
X-100834Y226053D01*
Y220816D01*
X-101230Y220491D01*
Y209000D01*
Y197509D01*
X-100834Y197184D01*
Y190306D01*
X-111127Y180013D01*
X-111850Y178931D01*
X-112104Y177656D01*
Y147501D01*
X-119824Y139781D01*
X-120823Y139113D01*
X-121597Y137956D01*
X-121868Y136590D01*
X-121597Y135224D01*
X-120823Y134066D01*
X-119666Y133293D01*
X-118300Y133021D01*
X-116934Y133293D01*
X-115777Y134066D01*
X-115109Y135066D01*
X-112489Y137686D01*
X-111225Y137562D01*
X-110967Y137177D01*
X-109810Y136403D01*
X-108444Y136131D01*
X-107078Y136403D01*
X-105921Y137177D01*
X-105253Y138176D01*
X-103567Y139862D01*
X-102394Y139376D01*
Y135594D01*
X-102629Y134415D01*
X-102357Y133049D01*
X-101583Y131891D01*
X-100426Y131118D01*
X-99060Y130846D01*
X-98296Y130998D01*
X-97314Y130192D01*
Y118149D01*
X-97549Y116971D01*
X-97277Y115605D01*
X-96503Y114447D01*
X-95346Y113674D01*
X-93980Y113402D01*
X-92614Y113674D01*
X-91457Y114447D01*
X-90683Y115605D01*
X-90411Y116971D01*
X-90646Y118149D01*
Y125574D01*
X-89664Y126380D01*
X-88900Y126228D01*
X-88136Y126380D01*
X-87154Y125574D01*
Y79109D01*
X-87389Y77930D01*
X-87117Y76564D01*
X-86343Y75407D01*
X-85186Y74633D01*
X-83820Y74361D01*
X-82454Y74633D01*
X-81297Y75407D01*
X-80523Y76564D01*
X-80251Y77930D01*
X-80486Y79109D01*
Y92909D01*
X-79504Y93715D01*
X-78740Y93563D01*
X-77374Y93835D01*
X-76217Y94608D01*
X-75443Y95766D01*
X-75171Y97132D01*
X-75197Y97261D01*
X-74299Y98159D01*
X-73660Y98031D01*
X-72294Y98303D01*
X-71137Y99077D01*
X-70363Y100234D01*
X-70091Y101600D01*
X-70326Y102779D01*
Y117477D01*
X-69344Y118282D01*
X-68270Y118069D01*
X-66904Y118340D01*
X-65747Y119114D01*
X-65079Y120113D01*
X-61143Y124050D01*
X-60420Y125131D01*
X-60166Y126407D01*
Y163759D01*
X-56724Y167201D01*
X-55460Y167077D01*
X-54837Y166143D01*
X-53679Y165370D01*
X-52313Y165098D01*
X-50948Y165370D01*
X-49790Y166143D01*
X-49122Y167143D01*
X-30142Y186122D01*
X-29420Y187204D01*
X-29166Y188480D01*
Y200053D01*
X-29062Y200208D01*
X-28845Y201300D01*
Y216700D01*
X-29062Y217792D01*
X-29681Y218719D01*
X-30608Y219338D01*
X-31700Y219555D01*
X-33300D01*
X-34166Y220266D01*
Y226053D01*
X-34062Y226208D01*
X-33845Y227300D01*
Y242700D01*
X-34062Y243792D01*
X-34681Y244719D01*
X-35608Y245338D01*
X-36700Y245555D01*
D02*
G37*
G36*
X-133270Y220040D02*
X-137040D01*
Y210270D01*
X-133270D01*
Y220040D01*
D02*
G37*
G36*
X86500Y219500D02*
X77500D01*
Y198500D01*
X86500D01*
Y219500D01*
D02*
G37*
G36*
X-1230Y220012D02*
Y210270D01*
X1706D01*
Y216700D01*
X1446Y218003D01*
X708Y219108D01*
X-397Y219846D01*
X-1230Y220012D01*
D02*
G37*
G36*
X168686Y229645D02*
X165051Y223349D01*
X174811Y217714D01*
X178446Y224010D01*
X168686Y229645D01*
D02*
G37*
G36*
X68770Y220012D02*
Y210270D01*
X71705D01*
Y216700D01*
X71446Y218003D01*
X70708Y219108D01*
X69603Y219846D01*
X68770Y220012D01*
D02*
G37*
%LPD*%
D10*
X-234950Y-29790D02*
D03*
Y-20790D02*
D03*
X62230Y-29790D02*
D03*
Y-38790D02*
D03*
X11430Y-29790D02*
D03*
Y-38790D02*
D03*
X74930Y-29790D02*
D03*
Y-38790D02*
D03*
X24130D02*
D03*
Y-29790D02*
D03*
X36830D02*
D03*
Y-38790D02*
D03*
X74930Y-50503D02*
D03*
Y-59503D02*
D03*
X49530Y-29790D02*
D03*
Y-38790D02*
D03*
X-212090Y-47860D02*
D03*
Y-56860D02*
D03*
Y-120070D02*
D03*
Y-111070D02*
D03*
Y-133930D02*
D03*
Y-142930D02*
D03*
X114300Y-8200D02*
D03*
Y-17200D02*
D03*
X127000Y-8200D02*
D03*
Y-17200D02*
D03*
X119380Y169490D02*
D03*
Y178490D02*
D03*
X248920Y-85780D02*
D03*
Y-76780D02*
D03*
Y-55003D02*
D03*
Y-64003D02*
D03*
D11*
X78160Y95266D02*
D03*
X69160D02*
D03*
X57840Y95250D02*
D03*
X48840D02*
D03*
D12*
X-212090Y-85521D02*
D03*
Y-99721D02*
D03*
D13*
X-234950Y-125440D02*
D03*
X-260350D02*
D03*
X-260350Y-57440D02*
D03*
X-234950D02*
D03*
D14*
X233777Y163235D02*
D03*
X279792Y57406D02*
D03*
D15*
X215815Y126801D02*
D03*
X220799Y115338D02*
D03*
X235912Y80581D02*
D03*
X240896Y69118D02*
D03*
X230848Y92228D02*
D03*
X225863Y103691D02*
D03*
D16*
X168221Y231380D02*
D03*
X116259Y261380D02*
D03*
D17*
X151250Y138750D02*
D03*
X180750D02*
D03*
X151250Y18250D02*
D03*
X180750D02*
D03*
X-180750Y132750D02*
D03*
X-151250D02*
D03*
X-180750Y12250D02*
D03*
X-151250D02*
D03*
D18*
X151250Y133500D02*
D03*
X180750D02*
D03*
X151250Y128500D02*
D03*
X180750D02*
D03*
X151250Y123500D02*
D03*
X180750D02*
D03*
X151250Y118500D02*
D03*
X180750D02*
D03*
X151250Y113500D02*
D03*
X180750D02*
D03*
X151250Y108500D02*
D03*
X180750D02*
D03*
X151250Y103500D02*
D03*
X180750D02*
D03*
X151250Y98500D02*
D03*
X180750D02*
D03*
X151250Y93500D02*
D03*
X180750D02*
D03*
X151250Y88500D02*
D03*
X180750D02*
D03*
X151250Y83500D02*
D03*
X180750D02*
D03*
X151250Y78500D02*
D03*
X180750D02*
D03*
X151250Y73500D02*
D03*
X180750D02*
D03*
X151250Y68500D02*
D03*
X180750D02*
D03*
X151250Y63500D02*
D03*
X180750D02*
D03*
X151250Y58500D02*
D03*
X180750D02*
D03*
X151250Y53500D02*
D03*
X180750D02*
D03*
X151250Y48500D02*
D03*
X180750D02*
D03*
X151250Y43500D02*
D03*
X180750D02*
D03*
X151250Y38500D02*
D03*
X180750D02*
D03*
X151250Y33500D02*
D03*
X180750D02*
D03*
X151250Y28500D02*
D03*
X180750D02*
D03*
X151250Y23500D02*
D03*
X180750D02*
D03*
X-180750Y127500D02*
D03*
X-151250D02*
D03*
X-180750Y122500D02*
D03*
X-151250D02*
D03*
X-180750Y117500D02*
D03*
X-151250D02*
D03*
X-180750Y112500D02*
D03*
X-151250D02*
D03*
X-180750Y107500D02*
D03*
X-151250D02*
D03*
X-180750Y102500D02*
D03*
X-151250D02*
D03*
X-180750Y97500D02*
D03*
X-151250D02*
D03*
X-180750Y92500D02*
D03*
X-151250D02*
D03*
X-180750Y87500D02*
D03*
X-151250D02*
D03*
X-180750Y82500D02*
D03*
X-151250D02*
D03*
X-180750Y77500D02*
D03*
X-151250D02*
D03*
X-180750Y72500D02*
D03*
X-151250D02*
D03*
X-180750Y67500D02*
D03*
X-151250D02*
D03*
X-180750Y62500D02*
D03*
X-151250D02*
D03*
X-180750Y57500D02*
D03*
X-151250D02*
D03*
X-180750Y52500D02*
D03*
X-151250D02*
D03*
X-180750Y47500D02*
D03*
X-151250D02*
D03*
X-180750Y42500D02*
D03*
X-151250D02*
D03*
X-180750Y37500D02*
D03*
X-151250D02*
D03*
X-180750Y32500D02*
D03*
X-151250D02*
D03*
X-180750Y27500D02*
D03*
X-151250D02*
D03*
X-180750Y22500D02*
D03*
X-151250D02*
D03*
X-180750Y17500D02*
D03*
X-151250D02*
D03*
D19*
X82000Y235000D02*
D03*
Y209000D02*
D03*
X-132000D02*
D03*
Y235000D02*
D03*
D20*
X17500Y209000D02*
D03*
X27500D02*
D03*
X37500D02*
D03*
X22500Y235000D02*
D03*
X32500D02*
D03*
X42500D02*
D03*
X72500D02*
D03*
X62500D02*
D03*
X52500D02*
D03*
X67500Y209000D02*
D03*
X57500D02*
D03*
X47500D02*
D03*
X-42500D02*
D03*
X-32500D02*
D03*
X-22500D02*
D03*
X-12500D02*
D03*
X-2500D02*
D03*
X7500D02*
D03*
X-37500Y235000D02*
D03*
X-27500D02*
D03*
X-17500D02*
D03*
X-7500D02*
D03*
X2500D02*
D03*
X12500D02*
D03*
X-47500D02*
D03*
X-57500D02*
D03*
X-67500D02*
D03*
X-77500D02*
D03*
X-87500D02*
D03*
X-97500D02*
D03*
X-107500D02*
D03*
X-117500D02*
D03*
X-52500Y209000D02*
D03*
X-62500D02*
D03*
X-72500D02*
D03*
X-82500D02*
D03*
X-92500D02*
D03*
X-102500D02*
D03*
X-112500D02*
D03*
X-122500D02*
D03*
D21*
X30861Y84920D02*
D03*
X14859D02*
D03*
Y95420D02*
D03*
X30861D02*
D03*
X4867Y84622D02*
D03*
X-11135D02*
D03*
Y95122D02*
D03*
X4867D02*
D03*
D22*
X25359Y84920D02*
D03*
X20361D02*
D03*
Y95420D02*
D03*
X25359D02*
D03*
X-635Y84622D02*
D03*
X-5634D02*
D03*
Y95122D02*
D03*
X-635D02*
D03*
D23*
X232007Y9525D02*
D03*
Y31115D02*
D03*
D24*
X265049Y-50800D02*
D03*
X281051D02*
D03*
X265049Y-91440D02*
D03*
X281051D02*
D03*
D25*
X-251460Y-51002D02*
X-234950Y-34492D01*
X-258992Y-51002D02*
X-251460D01*
X-260350Y-52360D02*
X-258992Y-51002D01*
X-260350Y-57440D02*
Y-52360D01*
X-232060Y2927D02*
Y41014D01*
X-240030Y48984D02*
X-232060Y41014D01*
X-240030Y48984D02*
Y81613D01*
X-233584Y49513D02*
Y81638D01*
X-234950Y-20790D02*
Y-13179D01*
Y-34492D02*
Y-29790D01*
X-181511Y-56860D02*
X-163570Y-38919D01*
X-212090Y-56860D02*
X-181511D01*
X-12500Y142504D02*
Y209000D01*
X-16042Y84622D02*
X-11135D01*
X-73493Y-18954D02*
X-23424Y31115D01*
X-75374Y-14414D02*
X-24860Y36100D01*
X-77254Y-9874D02*
X-26741Y40640D01*
X-126086Y-9874D02*
X-77254D01*
X-124206Y-14414D02*
X-75374D01*
X-122325Y-18954D02*
X-73493D01*
X-127691Y-24320D02*
X-122325Y-18954D01*
X-129353Y-19561D02*
X-124206Y-14414D01*
X-131233Y-15021D02*
X-126086Y-9874D01*
X-79651Y-5334D02*
X-34290Y40027D01*
X-127967Y-5334D02*
X-79651D01*
X-133114Y-10481D02*
X-127967Y-5334D01*
X-204813Y-24320D02*
X-127691D01*
X-203151Y-19561D02*
X-129353D01*
X-201271Y-15021D02*
X-131233D01*
X-199390Y-10481D02*
X-133114D01*
X-26741Y40640D02*
X3604D01*
X15738Y44797D02*
X20508Y40027D01*
X7761Y44797D02*
X15738D01*
X3604Y40640D02*
X7761Y44797D01*
X20361Y62566D02*
X20508Y62418D01*
X20320Y66118D02*
X25359Y71157D01*
Y84920D01*
X20320Y62230D02*
Y66118D01*
X20361Y72579D02*
Y84920D01*
X9737Y61955D02*
X20361Y72579D01*
X8770Y69190D02*
X14859Y75279D01*
X8770Y69144D02*
Y69190D01*
X3316Y63690D02*
X8770Y69144D01*
X3270Y63690D02*
X3316D01*
X-2960Y57460D02*
X3270Y63690D01*
X4230Y71070D02*
X4867Y71707D01*
X4230Y71024D02*
Y71070D01*
X1436Y68230D02*
X4230Y71024D01*
X1390Y68230D02*
X1436D01*
X-4611Y62230D02*
X1390Y68230D01*
X4867Y71707D02*
Y84622D01*
X-12641Y62230D02*
X-4611D01*
X-14617Y57460D02*
X-2960D01*
X5810Y36100D02*
X9737Y40027D01*
X-63500Y126407D02*
Y165140D01*
X-68270Y121637D02*
X-63500Y126407D01*
X-88900Y129797D02*
Y171843D01*
X-131525Y112500D02*
X-115109Y96083D01*
Y88344D02*
Y96083D01*
Y88344D02*
X-98300Y71535D01*
X-151250Y112500D02*
X-131525D01*
X-104140Y144004D02*
Y175865D01*
X-108444Y139700D02*
X-104140Y144004D01*
X-108770Y146120D02*
Y177656D01*
X-118300Y136590D02*
X-108770Y146120D01*
X-86886Y33129D02*
X-74602D01*
X-111920Y58163D02*
Y65893D01*
X-102840Y61924D02*
X-83136Y42220D01*
X-102840Y61924D02*
Y69654D01*
X-85006Y37669D02*
X-76808D01*
X-107380Y60044D02*
X-85006Y37669D01*
X-107380Y60044D02*
Y67774D01*
X-111920Y58163D02*
X-86886Y33129D01*
X-83136Y42220D02*
X-78677D01*
X-49047Y71850D02*
X-22261D01*
X-78677Y42220D02*
X-49047Y71850D01*
X-76808Y37669D02*
X-47167Y67310D01*
X-24467D01*
X121932Y129304D02*
Y148278D01*
X121555Y147901D02*
X121932Y148278D01*
X62500Y177926D02*
Y235000D01*
Y177926D02*
X131926Y108500D01*
X151250D01*
X106284Y120650D02*
X113030D01*
X42500Y184434D02*
Y235000D01*
Y184434D02*
X106284Y120650D01*
X137736Y113500D02*
X151250D01*
X121932Y129304D02*
X137736Y113500D01*
X114623Y218225D02*
X169452Y163396D01*
X185522D01*
X111860Y218225D02*
X114623D01*
X109979Y212838D02*
X112282D01*
X153670Y171450D01*
X119380Y162878D02*
X135880Y146377D01*
Y136085D02*
Y146377D01*
X138465Y133500D02*
X151250D01*
X135880Y136085D02*
X138465Y133500D01*
X-540Y73000D02*
Y84528D01*
X-24467Y67310D02*
X-14617Y57460D01*
X-233584Y81638D02*
X-207722Y107500D01*
X-240030Y81613D02*
X-209143Y112500D01*
X-92500Y187505D02*
Y209000D01*
X-97500Y188925D02*
Y235000D01*
X-179810Y47500D02*
X-167640D01*
X-180750Y42500D02*
X-171521D01*
X-180750Y37500D02*
X-167640D01*
X-180750Y32500D02*
X-171521D01*
X-151250Y37500D02*
X-137160D01*
X-151250Y32500D02*
X-140970D01*
X-151250Y27500D02*
X-137160D01*
X-180750D02*
X-167640D01*
X-151250Y42500D02*
X-133270D01*
X-180750Y22500D02*
X-179530D01*
X-194310D02*
X-180750D01*
X-190500Y17500D02*
X-180750D01*
X-161290Y12250D02*
X-151250D01*
Y47500D02*
X-128445D01*
X12500Y223720D02*
Y235000D01*
X221232Y99060D02*
X225863Y103691D01*
X142003Y128500D02*
X151250D01*
X139990Y126487D02*
X142003Y128500D01*
X139990Y120360D02*
Y126487D01*
Y120360D02*
X141850Y118500D01*
X151250D01*
X215952Y110490D02*
X220799Y115338D01*
X226112Y120650D01*
X-161579Y117500D02*
X-151250D01*
X-190821Y57500D02*
X-180750D01*
X6326Y220595D02*
X7500Y219421D01*
Y209000D02*
Y219421D01*
X-166463Y122500D02*
X-151250D01*
X-161579Y127500D02*
X-151250D01*
Y22500D02*
X-140970D01*
X180750Y23500D02*
X191770D01*
X151250Y18250D02*
X161910D01*
X-260350Y-120360D02*
X-259923Y-119933D01*
X-234950Y-120360D02*
Y-109609D01*
X-218840Y-47860D02*
X-212090D01*
X-212141Y-78689D02*
X-212090Y-78740D01*
Y-85521D02*
Y-78740D01*
X-203461Y92500D02*
X-180750D01*
X-218440Y77521D02*
X-203461Y92500D01*
X-218440Y8569D02*
Y77521D01*
X-204881Y97500D02*
X-180750D01*
X-222980Y79401D02*
X-204881Y97500D01*
X-222980Y6688D02*
Y79401D01*
X-206302Y102500D02*
X-180750D01*
X-227520Y81282D02*
X-206302Y102500D01*
X-227520Y4808D02*
Y81282D01*
X-207722Y107500D02*
X-180750D01*
X-209143Y112500D02*
X-180750D01*
X-218440Y8569D02*
X-199390Y-10481D01*
X-222980Y6688D02*
X-201271Y-15021D01*
X-227520Y4808D02*
X-203151Y-19561D01*
X203529Y-99459D02*
X238986Y-64003D01*
X248920D01*
X151250Y38500D02*
X162160D01*
X180750Y28500D02*
X193618D01*
X196850Y25268D01*
Y15757D02*
Y25268D01*
X238180Y-76780D02*
X248920D01*
X208971Y-105989D02*
X238180Y-76780D01*
X221232Y76676D02*
X232007D01*
X235912Y80581D01*
X170330Y63500D02*
X180750D01*
X166370Y58420D02*
X180670D01*
X180750Y58500D01*
X170330Y53500D02*
X180750D01*
X106464Y251585D02*
X116259Y261380D01*
X151250Y123500D02*
X161910D01*
X124360Y215234D02*
Y218225D01*
Y215234D02*
X162334Y177260D01*
X133350Y-17200D02*
X199390D01*
X170330Y83500D02*
X180750D01*
X166370Y78500D02*
X180750D01*
Y88500D02*
X195704D01*
X180750Y73500D02*
X195704D01*
X180750Y68500D02*
X195704D01*
X180750Y33500D02*
X194790D01*
X196215Y34925D01*
X119380Y162878D02*
Y169490D01*
X170730Y38500D02*
X180750D01*
X-22500Y125480D02*
Y209000D01*
X-7500Y175260D02*
Y235000D01*
X-17500Y123780D02*
Y235000D01*
X-49530Y98450D02*
X-22500Y125480D01*
X-73660Y101600D02*
Y167822D01*
X-78740Y97132D02*
Y169162D01*
X-68580Y135087D02*
Y166481D01*
X-83820Y77930D02*
Y170502D01*
X-93980Y116971D02*
Y173184D01*
X-99060Y134415D02*
Y174524D01*
X-104140Y175865D02*
X-92500Y187505D01*
X-108770Y177656D02*
X-97500Y188925D01*
X-99060Y174524D02*
X-82500Y191084D01*
Y209000D01*
X-93980Y173184D02*
X-72500Y194664D01*
Y209000D01*
X-88900Y171843D02*
X-67500Y193243D01*
Y235000D01*
X-83820Y170502D02*
X-62500Y191823D01*
Y209000D01*
X-78740Y169162D02*
X-57500Y190402D01*
Y235000D01*
X-73660Y167822D02*
X-47500Y193982D01*
Y235000D01*
X-68580Y166481D02*
X-42500Y192561D01*
Y209000D01*
X-63500Y165140D02*
X-37500Y191140D01*
Y235000D01*
X-32500Y188480D02*
Y209000D01*
X-52313Y168667D02*
X-32500Y188480D01*
X-234370Y-56860D02*
X-212090D01*
X36490Y-29450D02*
Y-22601D01*
X49530Y-29790D02*
Y-22601D01*
Y-29790D02*
X74930D01*
Y-59503D02*
X82363D01*
X114300Y-8200D02*
X127000D01*
Y-17200D02*
X133350D01*
X111860Y-5760D02*
Y-2540D01*
Y-5760D02*
X114300Y-8200D01*
X143510Y11430D02*
X154940D01*
X139990Y14950D02*
X143510Y11430D01*
X139990Y14950D02*
Y21000D01*
X142490Y23500D01*
X151250D01*
X104614Y-46610D02*
Y-1978D01*
X135091Y28500D01*
X151250D01*
X11430Y-29790D02*
X36830D01*
X14550Y-126310D02*
Y-79262D01*
X129540Y-195580D02*
X139700Y-185420D01*
X83820Y-195580D02*
X129540D01*
X14550Y-126310D02*
X83820Y-195580D01*
X36830Y-80010D02*
Y-38790D01*
X49530Y-80010D02*
Y-38790D01*
X74930Y-50503D02*
Y-38790D01*
X81151D01*
X-212141Y-127000D02*
Y-120121D01*
Y-133879D02*
Y-127000D01*
X-212090Y-111070D02*
Y-99721D01*
X-256830Y-121920D02*
X-251591D01*
X166370Y108500D02*
X180750D01*
X167640Y99210D02*
X171930Y103500D01*
X180750D01*
X170330Y113500D02*
X180750D01*
X166370Y118500D02*
X180750D01*
X166370Y128890D02*
X171760Y123500D01*
X180750D01*
X170330Y133500D02*
X180750D01*
X196365Y99060D02*
X221232D01*
X77470Y12700D02*
Y70918D01*
X96425Y89872D01*
X57840Y84510D02*
Y95250D01*
X57856Y95266D01*
X69160D01*
X17500Y-3810D02*
X54610Y33300D01*
Y81280D01*
X57840Y84510D01*
X129129Y53500D02*
X151250D01*
X113030Y69599D02*
X129129Y53500D01*
X113030Y69599D02*
Y94450D01*
X94980Y112500D02*
X113030Y94450D01*
X64770Y112500D02*
X94980D01*
X14859Y75279D02*
Y84920D01*
X-23424Y31115D02*
X9737D01*
X-24860Y36100D02*
X5810D01*
X104140Y267048D02*
X110591D01*
X116259Y261380D01*
X-22261Y71850D02*
X-12641Y62230D01*
X106464Y216354D02*
X109979Y212838D01*
X106464Y216354D02*
Y251585D01*
X212090Y31115D02*
X232007D01*
X199390Y-17200D02*
X212090Y-4500D01*
Y31115D01*
X-232060Y2927D02*
X-204813Y-24320D01*
X-74602Y33129D02*
X-45501Y62230D01*
X-151250Y92500D02*
X-138527D01*
X-111920Y65893D01*
X-151250Y102500D02*
X-135686D01*
X-102840Y69654D01*
X-151250Y97500D02*
X-137106D01*
X-107380Y67774D01*
X-98300Y64130D02*
X-81160Y46990D01*
X-98300Y64130D02*
Y71535D01*
X-151250Y107500D02*
X-134090D01*
X215900Y83500D02*
Y83889D01*
X220511Y88500D01*
X227120D01*
X-5634Y77952D02*
Y84622D01*
X52500Y189940D02*
X57020Y185420D01*
X52500Y189940D02*
Y235000D01*
X57500Y194660D02*
Y209000D01*
X47500Y186180D02*
Y209000D01*
Y186180D02*
X107773Y125907D01*
X140650Y138750D02*
X151250D01*
Y103500D02*
X161910D01*
X180750Y18250D02*
X182880D01*
Y13970D02*
Y18250D01*
X236548Y64770D02*
X240896Y69118D01*
X227806Y64770D02*
X236548D01*
X-180750Y127500D02*
X-171768D01*
X-166463Y132805D01*
D26*
X-100760Y-48260D02*
X-95680Y-43180D01*
X-96499D02*
X-37410D01*
X-100760Y-48260D02*
Y-38919D01*
X-96499Y-43180D01*
X-37410D02*
X-1286Y-7056D01*
X27653Y131097D02*
Y198120D01*
Y131097D02*
X45150Y113600D01*
X-1286Y-7056D02*
X-1270D01*
X45150Y39364D01*
Y113600D01*
D27*
X228321Y105083D02*
X230400Y107162D01*
X27500Y198120D02*
Y209000D01*
X22500Y223670D02*
Y235000D01*
X27500Y209000D02*
Y218670D01*
X-122500Y209000D02*
X-117500D01*
X-112500D01*
X22500Y223670D02*
X27500Y218670D01*
X-117500Y209000D02*
Y235000D01*
Y201012D02*
Y209000D01*
X-180750Y137762D02*
X-117500Y201012D01*
X-195580Y118770D02*
Y130906D01*
X-191866Y134620D02*
X-180750D01*
X-195580Y130906D02*
X-191866Y134620D01*
X182880Y143129D02*
X190170D01*
X196215Y137084D01*
X119380Y178490D02*
Y185420D01*
X196215Y34925D02*
Y38100D01*
Y137084D01*
X176530Y143129D02*
X182880D01*
D28*
X-206230Y57500D02*
X-190821D01*
X248920Y-85780D02*
X254580Y-91440D01*
X265049D01*
X248920Y-76780D02*
X268683D01*
X269240Y-76223D01*
X248920Y-64003D02*
X268854D01*
X269240Y-63617D01*
X248920Y-55003D02*
X253123Y-50800D01*
X265049D01*
D29*
X106629Y-154889D02*
Y-100724D01*
Y-154889D02*
X126681Y-174941D01*
Y-184150D02*
Y-174941D01*
X-40640Y-147320D02*
Y-69850D01*
X-1270Y-206250D02*
X132863D01*
X196850Y-142263D01*
Y-94670D01*
X-11135Y95122D02*
X-5634D01*
X-635D01*
X4867D01*
X45022D01*
X224087Y130810D02*
X243722D01*
X242570Y-48950D02*
Y-28352D01*
X196850Y-94670D02*
X242570Y-48950D01*
D30*
X-218360Y-142930D02*
X-212090D01*
D31*
X-190000Y-190000D02*
D03*
X190000D02*
D03*
Y190000D02*
D03*
X-190000D02*
D03*
D32*
X269240Y-63617D02*
D03*
Y-76223D02*
D03*
D33*
X39653Y155927D02*
D03*
X-40233Y155890D02*
D03*
D34*
X-171450Y-114151D02*
D03*
X-228346Y-95250D02*
D03*
X-222250Y-120554D02*
D03*
X-243364Y0D02*
D03*
X-243698Y31750D02*
D03*
X-233584Y49513D02*
D03*
X-234950Y-13179D02*
D03*
X-116840Y-158750D02*
D03*
Y-120821D02*
D03*
Y-70137D02*
D03*
X31898Y106680D02*
D03*
X32397Y76182D02*
D03*
X20508Y40027D02*
D03*
X9737Y61955D02*
D03*
Y40027D02*
D03*
X-109220Y116442D02*
D03*
X-125730Y99932D02*
D03*
X-88900Y129797D02*
D03*
X-108444Y139700D02*
D03*
X-118300Y136590D02*
D03*
X-68580Y135087D02*
D03*
X167337Y25453D02*
D03*
X107060Y145842D02*
D03*
X121555Y147901D02*
D03*
X153670Y171450D02*
D03*
X-27940Y-124477D02*
D03*
X-14007Y-158750D02*
D03*
X-280670Y53340D02*
D03*
X-194310Y22500D02*
D03*
X-190500Y17500D02*
D03*
X-140970Y22500D02*
D03*
X-171521Y52500D02*
D03*
X-167640Y37500D02*
D03*
X-137160D02*
D03*
X-140970Y32500D02*
D03*
X-137160Y27500D02*
D03*
X-171521Y32500D02*
D03*
X-167640Y27500D02*
D03*
Y47500D02*
D03*
X-171521Y42500D02*
D03*
X-128445Y47500D02*
D03*
X-133270Y42500D02*
D03*
X-161290Y12250D02*
D03*
X-99060Y134415D02*
D03*
X-177800Y6350D02*
D03*
X-124460Y116469D02*
D03*
X-166463Y122500D02*
D03*
X12500Y223720D02*
D03*
X6326Y220595D02*
D03*
X-161579Y117500D02*
D03*
X170330Y113500D02*
D03*
Y133500D02*
D03*
X182880Y143129D02*
D03*
X57500Y194660D02*
D03*
X166370Y128890D02*
D03*
Y118500D02*
D03*
X27500Y198120D02*
D03*
X-208262Y80010D02*
D03*
X116101Y-60760D02*
D03*
X127017Y38100D02*
D03*
X-166463Y132805D02*
D03*
X-117784Y222448D02*
D03*
X-87630Y222610D02*
D03*
X-77470D02*
D03*
X-27506D02*
D03*
X-143510Y236827D02*
D03*
Y205740D02*
D03*
X6700Y190500D02*
D03*
X90170Y207173D02*
D03*
X75503Y254000D02*
D03*
X210820Y40000D02*
D03*
X60960Y-127000D02*
D03*
X-82402Y-139990D02*
D03*
X-6820Y-63500D02*
D03*
X-88596Y260350D02*
D03*
X69953Y133350D02*
D03*
X6326Y146050D02*
D03*
X-21590Y97917D02*
D03*
X10916Y106680D02*
D03*
X139990Y59590D02*
D03*
X86360Y19050D02*
D03*
X-82402Y-101600D02*
D03*
X-82550Y-120650D02*
D03*
X-139700Y-57150D02*
D03*
X-162334Y-139700D02*
D03*
X-273050Y-57150D02*
D03*
Y-95250D02*
D03*
X-241300Y-158809D02*
D03*
X-254000Y-82550D02*
D03*
X-146437Y-247650D02*
D03*
X-179504Y-38100D02*
D03*
X-184150Y-222250D02*
D03*
X120200Y-260350D02*
D03*
X146050Y-247590D02*
D03*
X133600Y-228600D02*
D03*
X-82766Y-158750D02*
D03*
X-56858Y-133350D02*
D03*
X-139700Y-145796D02*
D03*
X156210Y-198120D02*
D03*
X-133350Y6350D02*
D03*
X-108180D02*
D03*
X-88900D02*
D03*
X72390Y80010D02*
D03*
X12653Y127000D02*
D03*
X-141282Y153670D02*
D03*
X-158750Y184264D02*
D03*
X-108770Y189720D02*
D03*
X57150Y127160D02*
D03*
X166370Y71120D02*
D03*
X273050Y95250D02*
D03*
X250433Y147219D02*
D03*
X165011Y209534D02*
D03*
X76070Y279400D02*
D03*
X63500Y-228600D02*
D03*
X89000Y-273050D02*
D03*
X-69850Y-279400D02*
D03*
X108770Y167640D02*
D03*
X99060Y226935D02*
D03*
X-140133Y-101600D02*
D03*
X-162334Y-89010D02*
D03*
X-222250Y-24130D02*
D03*
X-145831Y0D02*
D03*
X-222250Y178340D02*
D03*
X-196777Y43720D02*
D03*
X-251591Y81280D02*
D03*
X-66834Y-57150D02*
D03*
X-248718Y146465D02*
D03*
X73133Y185968D02*
D03*
X-25649Y-50800D02*
D03*
X55735Y19050D02*
D03*
X-166370Y95266D02*
D03*
X-136604Y127761D02*
D03*
X-3810Y118500D02*
D03*
X-52500Y222200D02*
D03*
X-102870Y221222D02*
D03*
X260350Y127559D02*
D03*
X279661Y76182D02*
D03*
X44646Y171450D02*
D03*
X35560Y-193040D02*
D03*
X27500Y191060D02*
D03*
X-107950Y-266700D02*
D03*
X219235Y186067D02*
D03*
X-161579Y127500D02*
D03*
X15240Y-193550D02*
D03*
X127000Y234950D02*
D03*
X182880Y13970D02*
D03*
X191770Y23500D02*
D03*
X161910Y18250D02*
D03*
X154940Y11430D02*
D03*
X96425Y89872D02*
D03*
X-73660Y101600D02*
D03*
X-78740Y97132D02*
D03*
X-83820Y77930D02*
D03*
X-1270Y-206250D02*
D03*
X-251591Y-121920D02*
D03*
X-234950Y-109609D02*
D03*
X-218840Y-47860D02*
D03*
X-212141Y-78689D02*
D03*
X-206230Y57500D02*
D03*
X-195580Y118770D02*
D03*
X203529Y-99459D02*
D03*
X126681Y-184150D02*
D03*
X106629Y-100724D02*
D03*
X162160Y38500D02*
D03*
X235305Y-105989D02*
D03*
X196850Y15757D02*
D03*
X208971Y-105989D02*
D03*
X170330Y53500D02*
D03*
X166370Y58420D02*
D03*
X162334Y177260D02*
D03*
X124360Y218225D02*
D03*
X111860D02*
D03*
X227806Y64770D02*
D03*
X170330Y83500D02*
D03*
X215900D02*
D03*
X166370Y78500D02*
D03*
X221232Y76676D02*
D03*
X170330Y63500D02*
D03*
X161910Y123500D02*
D03*
X185522Y163396D02*
D03*
X113030Y120650D02*
D03*
X107773Y125907D02*
D03*
X212090Y31115D02*
D03*
X133350Y-17200D02*
D03*
X57020Y185420D02*
D03*
X140650Y138750D02*
D03*
X82550Y95250D02*
D03*
X166370Y108500D02*
D03*
X161910Y103500D02*
D03*
X111860Y-2540D02*
D03*
X119380Y185420D02*
D03*
X196215Y38100D02*
D03*
X170730Y38500D02*
D03*
X-7500Y175260D02*
D03*
X-12500Y142504D02*
D03*
X-49530Y98450D02*
D03*
X-17640Y123591D02*
D03*
X-52313Y168667D02*
D03*
X-68270Y121637D02*
D03*
X-93980Y116971D02*
D03*
X-45501Y62230D02*
D03*
X-34290Y40027D02*
D03*
X20320Y62230D02*
D03*
X-12641D02*
D03*
X-81160Y46990D02*
D03*
X-40640Y-69850D02*
D03*
Y-147320D02*
D03*
X-163570Y-38919D02*
D03*
X-100760D02*
D03*
X-1270Y-7056D02*
D03*
X36490Y-22601D02*
D03*
X49530D02*
D03*
X82363Y-59503D02*
D03*
X104614Y-46610D02*
D03*
X14550Y-79262D02*
D03*
X139700Y-185420D02*
D03*
X36830Y-80010D02*
D03*
X49530D02*
D03*
X81280Y-38919D02*
D03*
X-218360Y-142930D02*
D03*
X-212141Y-127000D02*
D03*
X167640Y99210D02*
D03*
X77470Y12700D02*
D03*
X17500Y-3810D02*
D03*
X64770Y112500D02*
D03*
X-16042Y84622D02*
D03*
X-5634Y77952D02*
D03*
X-540Y73000D02*
D03*
X14859Y75279D02*
D03*
X9737Y31115D02*
D03*
X104140Y267048D02*
D03*
X-120650Y12700D02*
D03*
X-98411D02*
D03*
X-63500Y28758D02*
D03*
X-49142Y81280D02*
D03*
X-35544Y-1270D02*
D03*
X-35241Y133350D02*
D03*
X-62230Y105781D02*
D03*
X-31565Y175260D02*
D03*
X-49360Y146050D02*
D03*
X-118731D02*
D03*
X-165079Y60583D02*
D03*
X-224790Y115142D02*
D03*
X-166252Y107950D02*
D03*
X127000Y80540D02*
D03*
X102015Y115570D02*
D03*
X104140Y18939D02*
D03*
X63500Y56062D02*
D03*
X224790Y-34380D02*
D03*
X133212Y-37820D02*
D03*
X158342Y-6910D02*
D03*
X164691Y-31750D02*
D03*
X184150Y-76223D02*
D03*
X221694Y-177800D02*
D03*
X177870Y-111760D02*
D03*
X148590Y-107264D02*
D03*
X169054Y-151130D02*
D03*
X208066Y-154940D02*
D03*
X262013Y-121920D02*
D03*
X77851Y-155590D02*
D03*
X37250Y-121920D02*
D03*
X-6350Y-108346D02*
D03*
X24196Y-88900D02*
D03*
X66110Y-87311D02*
D03*
X93851Y-33010D02*
D03*
X-294Y-31750D02*
D03*
X-100760Y-48260D02*
D03*
X176530Y143129D02*
D03*
X202801Y113030D02*
D03*
X205886Y108500D02*
D03*
X208653Y70790D02*
D03*
X205886Y90573D02*
D03*
X243722Y130810D02*
D03*
X242570Y-28352D02*
D03*
X209550Y-120650D02*
D03*
X-31750Y-222250D02*
D03*
Y-241300D02*
D03*
X6350D02*
D03*
X6403Y-222250D02*
D03*
X-193834Y-69850D02*
D03*
X-133350Y107579D02*
D03*
X288290Y-50800D02*
D03*
X288036Y-77470D02*
D03*
M02*
