%FSLAX44Y44*%
%MOMM*%
G71*
G01*
G75*
G04 Layer_Physical_Order=2*
G04 Layer_Color=16711680*
%ADD10R,0.6000X0.5000*%
%ADD11R,0.5000X0.6000*%
%ADD12R,0.7000X0.6000*%
%ADD13R,1.0000X1.6000*%
G04:AMPARAMS|DCode=14|XSize=3mm|YSize=2.1mm|CornerRadius=0mm|HoleSize=0mm|Usage=FLASHONLY|Rotation=203.500|XOffset=0mm|YOffset=0mm|HoleType=Round|Shape=Rectangle|*
%AMROTATEDRECTD14*
4,1,4,0.9569,1.5610,1.7943,-0.3648,-0.9569,-1.5610,-1.7943,0.3648,0.9569,1.5610,0.0*
%
%ADD14ROTATEDRECTD14*%

G04:AMPARAMS|DCode=15|XSize=2.1mm|YSize=0.8mm|CornerRadius=0mm|HoleSize=0mm|Usage=FLASHONLY|Rotation=203.500|XOffset=0mm|YOffset=0mm|HoleType=Round|Shape=Rectangle|*
%AMROTATEDRECTD15*
4,1,4,0.8034,0.7855,1.1224,0.0519,-0.8034,-0.7855,-1.1224,-0.0519,0.8034,0.7855,0.0*
%
%ADD15ROTATEDRECTD15*%

G04:AMPARAMS|DCode=16|XSize=2mm|YSize=1.2mm|CornerRadius=0mm|HoleSize=0mm|Usage=FLASHONLY|Rotation=150.000|XOffset=0mm|YOffset=0mm|HoleType=Round|Shape=Rectangle|*
%AMROTATEDRECTD16*
4,1,4,1.1660,0.0196,0.5660,-1.0196,-1.1660,-0.0196,-0.5660,1.0196,1.1660,0.0196,0.0*
%
%ADD16ROTATEDRECTD16*%

%ADD17R,1.3500X0.3000*%
%ADD18R,1.3500X0.2500*%
%ADD19R,0.5000X1.7000*%
G04:AMPARAMS|DCode=20|XSize=0.32mm|YSize=1.7mm|CornerRadius=0.08mm|HoleSize=0mm|Usage=FLASHONLY|Rotation=0.000|XOffset=0mm|YOffset=0mm|HoleType=Round|Shape=RoundedRectangle|*
%AMROUNDEDRECTD20*
21,1,0.3200,1.5400,0,0,0.0*
21,1,0.1600,1.7000,0,0,0.0*
1,1,0.1600,0.0800,-0.7700*
1,1,0.1600,-0.0800,-0.7700*
1,1,0.1600,-0.0800,0.7700*
1,1,0.1600,0.0800,0.7700*
%
%ADD20ROUNDEDRECTD20*%
%ADD21R,0.4064X0.5500*%
%ADD22R,0.3048X0.5500*%
%ADD23R,1.3970X1.3970*%
%ADD24R,0.8890X1.0160*%
%ADD25C,0.2540*%
%ADD26C,1.0000*%
%ADD27C,0.6000*%
%ADD28C,0.4000*%
%ADD29C,0.3000*%
%ADD30C,0.5000*%
G04:AMPARAMS|DCode=31|XSize=4mm|YSize=4mm|CornerRadius=2mm|HoleSize=0mm|Usage=FLASHONLY|Rotation=0.000|XOffset=0mm|YOffset=0mm|HoleType=Round|Shape=RoundedRectangle|*
%AMROUNDEDRECTD31*
21,1,4.0000,0.0000,0,0,0.0*
21,1,0.0000,4.0000,0,0,0.0*
1,1,4.0000,0.0000,0.0000*
1,1,4.0000,0.0000,0.0000*
1,1,4.0000,0.0000,0.0000*
1,1,4.0000,0.0000,0.0000*
%
%ADD31ROUNDEDRECTD31*%
%ADD32O,2.0000X0.7500*%
%ADD33C,1.0000*%
%ADD34C,0.5000*%
%ADD35R,0.8128X0.8128*%
%ADD36R,2.1000X0.8000*%
%ADD37R,3.0000X2.1000*%
%ADD38R,0.8000X2.1000*%
%ADD39R,2.1000X3.0000*%
%ADD40R,0.6096X2.0320*%
%ADD41O,0.6096X2.0320*%
%ADD42R,1.3970X1.3970*%
%ADD43R,1.6000X1.2000*%
%ADD44R,2.1500X6.3000*%
%ADD45R,1.2000X1.8000*%
%ADD46R,0.8128X1.0668*%
%ADD47R,0.7000X1.4000*%
%ADD48R,1.8000X2.8000*%
%ADD49R,1.5200X0.7600*%
%ADD50R,1.0668X0.8128*%
%ADD51R,0.8128X0.8128*%
%ADD52R,1.2000X2.2000*%
%ADD53R,1.6000X1.4000*%
%ADD54R,1.1000X1.4000*%
%ADD55R,0.7000X1.6000*%
G04:AMPARAMS|DCode=56|XSize=2mm|YSize=2mm|CornerRadius=0mm|HoleSize=0mm|Usage=FLASHONLY|Rotation=180.000|XOffset=0mm|YOffset=0mm|HoleType=Round|Shape=RoundedRectangle|*
%AMROUNDEDRECTD56*
21,1,2.0000,2.0000,0,0,180.0*
21,1,2.0000,2.0000,0,0,180.0*
1,1,0.0000,-1.0000,1.0000*
1,1,0.0000,1.0000,1.0000*
1,1,0.0000,1.0000,-1.0000*
1,1,0.0000,-1.0000,-1.0000*
%
%ADD56ROUNDEDRECTD56*%
%ADD57C,0.8000*%
G36*
X-60698Y297114D02*
Y250000D01*
X-60494Y249506D01*
X-60000Y249302D01*
X60000D01*
X60070Y249255D01*
Y236191D01*
X86150D01*
Y252461D01*
X60698D01*
Y297114D01*
X61680Y297919D01*
X67724Y296717D01*
X84254Y292453D01*
X100520Y287269D01*
X116469Y281181D01*
X132051Y274208D01*
X147219Y266372D01*
X161923Y257699D01*
X167943Y253676D01*
X167574Y252461D01*
X150070D01*
Y236191D01*
X176150D01*
Y246767D01*
X177286Y247334D01*
X189758Y237949D01*
X202801Y226935D01*
X215206Y215206D01*
X226935Y202801D01*
X237949Y189758D01*
X248214Y176117D01*
X257699Y161923D01*
X266372Y147219D01*
X274208Y132051D01*
X281181Y116469D01*
X287269Y100520D01*
X292453Y84254D01*
X296717Y67724D01*
X300048Y50980D01*
X301364Y41657D01*
X300531Y40698D01*
X250000D01*
X249506Y40494D01*
X249423Y40293D01*
X248178Y40541D01*
Y43242D01*
X263994Y59058D01*
X265209Y60877D01*
X265636Y63023D01*
Y114504D01*
X265209Y116650D01*
X263994Y118469D01*
X250070Y132393D01*
X250055Y132507D01*
X249400Y134088D01*
X248358Y135446D01*
X247000Y136488D01*
X245419Y137143D01*
X243722Y137366D01*
X242025Y137143D01*
X240444Y136488D01*
X239086Y135446D01*
X238044Y134088D01*
X237686Y133224D01*
X236441Y132976D01*
X212137Y157279D01*
X211056Y158002D01*
X209780Y158256D01*
X195377D01*
X188713Y164920D01*
X188045Y165919D01*
X187367Y166372D01*
X187795Y167568D01*
X188730Y167476D01*
Y188730D01*
X167476D01*
X167786Y185581D01*
X169075Y181333D01*
X171168Y177417D01*
X173985Y173985D01*
X177417Y171168D01*
X181333Y169075D01*
X184692Y168056D01*
X184630Y166787D01*
X184156Y166693D01*
X182998Y165919D01*
X182225Y164762D01*
X182043Y163850D01*
X180828Y163481D01*
X165525Y178784D01*
X164857Y179783D01*
X163699Y180557D01*
X162334Y180829D01*
X160968Y180557D01*
X159810Y179783D01*
X159037Y178626D01*
X158765Y177260D01*
X158995Y176105D01*
X158189Y175124D01*
X154010D01*
X152734Y174870D01*
X152654Y174816D01*
X152304Y174747D01*
X151147Y173973D01*
X150373Y172816D01*
X150101Y171450D01*
X150373Y170084D01*
X151147Y168927D01*
X152304Y168153D01*
X153670Y167881D01*
X155036Y168153D01*
X155488Y168456D01*
X160003D01*
X170152Y158306D01*
X169666Y157132D01*
X167640D01*
Y152092D01*
X166370D01*
Y150822D01*
X160830D01*
Y150189D01*
X159515D01*
X143920Y165784D01*
Y185968D01*
Y189421D01*
X144860D01*
Y218421D01*
X128860D01*
Y218421D01*
X127889D01*
X127657Y219590D01*
X126883Y220748D01*
X125726Y221521D01*
X124360Y221793D01*
X122994Y221521D01*
X121837Y220748D01*
X121063Y219590D01*
X120792Y218225D01*
X120955Y217403D01*
X120149Y216421D01*
X118360D01*
D01*
D01*
X118360Y216421D01*
X117860Y216421D01*
Y216421D01*
X116071D01*
X115265Y217403D01*
X115429Y218225D01*
X115157Y219590D01*
X114383Y220748D01*
X113226Y221521D01*
X111860Y221793D01*
X110494Y221521D01*
X109337Y220748D01*
X108563Y219590D01*
X108291Y218225D01*
X108455Y217403D01*
X107649Y216421D01*
X105900D01*
Y216961D01*
X100630D01*
Y203921D01*
X99360D01*
Y202651D01*
X92820D01*
Y194414D01*
X91647Y193928D01*
X73133Y212442D01*
X71670Y213564D01*
X69967Y214270D01*
X68140Y214510D01*
X43890D01*
Y223520D01*
X43650Y225347D01*
X42944Y227050D01*
X41822Y228512D01*
X29760Y240575D01*
X28298Y241697D01*
X26595Y242402D01*
X24768Y242643D01*
X-104650D01*
X-106477Y242402D01*
X-108180Y241697D01*
X-109642Y240575D01*
X-122777Y227440D01*
X-123899Y225978D01*
X-124604Y224275D01*
X-124845Y222448D01*
X-124604Y220620D01*
X-123899Y218918D01*
X-122777Y217455D01*
X-121314Y216333D01*
X-119612Y215628D01*
X-117784Y215387D01*
X-115957Y215628D01*
X-114254Y216333D01*
X-112792Y217455D01*
X-101725Y228522D01*
X12222D01*
X12347Y227258D01*
X12347Y227258D01*
X12347D01*
X11134Y227017D01*
X9977Y226243D01*
X9203Y225086D01*
X9039Y224262D01*
X7866Y223776D01*
X7691Y223892D01*
X6326Y224164D01*
X4960Y223892D01*
X3802Y223119D01*
X3134Y222119D01*
X-4831Y214154D01*
X-76655D01*
X-77931Y213900D01*
X-79012Y213178D01*
X-156051Y136139D01*
X-165284D01*
X-166463Y136374D01*
X-167829Y136102D01*
X-168986Y135328D01*
X-169760Y134171D01*
X-170032Y132805D01*
X-169925Y132268D01*
X-171045Y131669D01*
X-177083Y137708D01*
X-178165Y138430D01*
X-179441Y138684D01*
X-236618D01*
X-237894Y138430D01*
X-238976Y137708D01*
X-240539Y136144D01*
X-244664D01*
X-245940Y135890D01*
X-247022Y135168D01*
X-268077Y114112D01*
X-268800Y113031D01*
X-269053Y111755D01*
Y107630D01*
X-271597Y105086D01*
X-272320Y104004D01*
X-272574Y102728D01*
Y71671D01*
X-272320Y70395D01*
X-271597Y69314D01*
X-239554Y37270D01*
Y-6322D01*
X-242078Y-8845D01*
X-242800Y-9927D01*
X-243054Y-11203D01*
Y-28764D01*
X-242800Y-30040D01*
X-242078Y-31121D01*
X-242078Y-31121D01*
X-242078Y-31121D01*
X-232522Y-40677D01*
X-233008Y-41850D01*
X-235950D01*
Y-63850D01*
X-219950D01*
Y-52209D01*
X-218968Y-51403D01*
X-218840Y-51429D01*
X-217474Y-51157D01*
X-216317Y-50383D01*
X-215543Y-49226D01*
X-215271Y-47860D01*
X-215543Y-46494D01*
X-216317Y-45337D01*
X-217474Y-44563D01*
X-218840Y-44291D01*
X-218968Y-44317D01*
X-219950Y-43511D01*
Y-41850D01*
X-224616D01*
Y-40534D01*
X-224870Y-39258D01*
X-225592Y-38176D01*
X-236386Y-27383D01*
Y-17463D01*
X-235404Y-16657D01*
X-234950Y-16747D01*
X-233584Y-16476D01*
X-232427Y-15702D01*
X-231759Y-14703D01*
X-229322Y-12266D01*
X-229322Y-12266D01*
X-229322Y-12266D01*
X-228600Y-11185D01*
X-228346Y-9909D01*
Y-110D01*
X-219790D01*
Y1056D01*
X-217141D01*
Y-110D01*
X-215475D01*
Y-1442D01*
X-218853D01*
Y-16110D01*
X-206724D01*
Y-1442D01*
X-208807D01*
Y-110D01*
X-207141D01*
Y2263D01*
X-205968Y2749D01*
X-201777Y-1441D01*
Y-18110D01*
X-194364D01*
X-168562Y-43911D01*
X-167100Y-45033D01*
X-165397Y-45739D01*
X-163570Y-45979D01*
X-109838D01*
Y-176590D01*
X-115510D01*
Y-177165D01*
X-115570D01*
Y-179254D01*
X-134810D01*
Y-180714D01*
X-135890D01*
Y-180714D01*
X-144145D01*
Y-190239D01*
Y-199764D01*
X-135890D01*
Y-199764D01*
X-135708D01*
X-134810Y-200662D01*
Y-201224D01*
X-115570D01*
Y-204915D01*
X-134810D01*
Y-206375D01*
X-135890D01*
Y-206375D01*
X-144145D01*
Y-215900D01*
Y-225425D01*
X-135890D01*
Y-225425D01*
X-135708D01*
X-134810Y-226323D01*
Y-226885D01*
X-115570D01*
Y-247015D01*
X-115510D01*
Y-247590D01*
X-86010D01*
Y-247015D01*
X-45720D01*
Y-181981D01*
X-44547Y-181495D01*
X-40968Y-185073D01*
X-41290Y-185850D01*
X-41290D01*
X-41290Y-185850D01*
Y-198850D01*
X-39830D01*
Y-200080D01*
X-28750D01*
Y-198850D01*
X-27290D01*
Y-189679D01*
X-20769D01*
Y-196250D01*
X-24700D01*
Y-216250D01*
X-700D01*
Y-212731D01*
X427Y-212583D01*
X2008Y-211928D01*
X3366Y-210886D01*
X4408Y-209528D01*
X5063Y-207947D01*
X5286Y-206250D01*
X5063Y-204553D01*
X4408Y-202972D01*
X3366Y-201614D01*
X2008Y-200572D01*
X427Y-199917D01*
X-700Y-199769D01*
Y-196250D01*
X-4631D01*
Y-185542D01*
X1811Y-179100D01*
X21210D01*
Y-179070D01*
X37210D01*
Y-179100D01*
X42831D01*
Y-199130D01*
X42900Y-199654D01*
Y-213630D01*
X58900D01*
Y-212170D01*
X62330D01*
Y-199130D01*
Y-186090D01*
X58969D01*
Y-179100D01*
X65210D01*
Y-151100D01*
X37210D01*
Y-151130D01*
X21210D01*
Y-151100D01*
X-6790D01*
Y-164879D01*
X-15452Y-173541D01*
X-22552D01*
Y-173310D01*
X-22552D01*
Y-148990D01*
X-23236D01*
X-23722Y-147817D01*
X-22169Y-146264D01*
X-15160D01*
Y-147430D01*
X-5160D01*
Y-138430D01*
Y-129430D01*
X-15160D01*
Y-130596D01*
X-42490D01*
X-43766Y-130850D01*
X-44847Y-131573D01*
X-55357Y-142082D01*
X-56080Y-143164D01*
X-56334Y-144439D01*
Y-150195D01*
X-56639Y-150399D01*
X-57755Y-152068D01*
X-58146Y-154038D01*
Y-158053D01*
X-58651Y-158809D01*
X-58738Y-159245D01*
X-60002Y-159121D01*
Y-154038D01*
X-60436Y-151858D01*
X-61671Y-150009D01*
X-63519Y-148774D01*
X-64429Y-148593D01*
Y-161150D01*
Y-173707D01*
X-63519Y-173526D01*
X-61671Y-172291D01*
X-60436Y-170442D01*
X-60381Y-170167D01*
X-59117Y-170291D01*
Y-177165D01*
X-86010D01*
Y-176590D01*
X-91682D01*
Y-80883D01*
X-86391D01*
Y-82010D01*
X-84391D01*
Y-89010D01*
X-74391D01*
Y-87844D01*
X-71040D01*
Y-89010D01*
X-69034D01*
Y-94314D01*
X-69339Y-94519D01*
X-70455Y-96188D01*
X-70846Y-98158D01*
Y-112382D01*
X-70455Y-114352D01*
X-69339Y-116021D01*
X-67669Y-117137D01*
X-65700Y-117529D01*
X-63730Y-117137D01*
X-62060Y-116021D01*
X-60944Y-114352D01*
X-60553Y-112382D01*
Y-98158D01*
X-60944Y-96188D01*
X-62060Y-94519D01*
X-62365Y-94314D01*
Y-89010D01*
X-61040D01*
Y-80550D01*
X-60500D01*
Y-76780D01*
X-66040D01*
Y-75510D01*
X-67310D01*
Y-70470D01*
X-71580D01*
D01*
X-71580D01*
X-72391Y-69658D01*
Y-69010D01*
X-86391D01*
Y-70137D01*
X-91682D01*
Y-38919D01*
X-91992Y-36569D01*
X-92899Y-34380D01*
X-94341Y-32500D01*
X-96221Y-31058D01*
X-98411Y-30151D01*
X-100760Y-29841D01*
X-103110Y-30151D01*
X-105299Y-31058D01*
X-106343Y-31859D01*
X-160645D01*
X-185649Y-6855D01*
Y558D01*
X-186663D01*
X-186665Y570D01*
X-186893Y2307D01*
X-187599Y4010D01*
X-188721Y5472D01*
X-199520Y16271D01*
Y65596D01*
X-190588Y74528D01*
X-189466Y75990D01*
X-188760Y77693D01*
X-188520Y79521D01*
Y118770D01*
X-188760Y120597D01*
X-189466Y122300D01*
X-190588Y123762D01*
X-192050Y124885D01*
X-193753Y125590D01*
X-195580Y125830D01*
X-197407Y125590D01*
X-199110Y124885D01*
X-200572Y123762D01*
X-201695Y122300D01*
X-202400Y120597D01*
X-202640Y118770D01*
Y116109D01*
X-202660D01*
Y114649D01*
X-203890D01*
Y109109D01*
Y103569D01*
X-202660D01*
Y102109D01*
X-202640D01*
Y82445D01*
X-211572Y73513D01*
X-212694Y72051D01*
X-213400Y70348D01*
X-213640Y68521D01*
Y19890D01*
X-219141D01*
Y17890D01*
X-219790D01*
Y17890D01*
X-221456D01*
Y40719D01*
X-221710Y41995D01*
X-222432Y43077D01*
X-230393Y51037D01*
X-231061Y52037D01*
X-232219Y52810D01*
X-233584Y53082D01*
X-234950Y52810D01*
X-236108Y52037D01*
X-236498Y51453D01*
X-237762Y51328D01*
X-246544Y60111D01*
X-246058Y61284D01*
X-245578D01*
Y75952D01*
X-257706D01*
Y66511D01*
X-258879Y66025D01*
X-265906Y73052D01*
Y84220D01*
X-259865D01*
X-259589Y84165D01*
X-259312Y84220D01*
X-255115D01*
Y98888D01*
X-257845D01*
Y108493D01*
X-241403Y124936D01*
X-236510D01*
Y123270D01*
X-218510D01*
Y124936D01*
X-215857D01*
X-214582Y125190D01*
X-213500Y125913D01*
X-211936Y127476D01*
X-183180D01*
X-170846Y115142D01*
X-169765Y114420D01*
X-168489Y114166D01*
X-162758D01*
X-161579Y113931D01*
X-160214Y114203D01*
X-159056Y114977D01*
X-158282Y116134D01*
X-158011Y117500D01*
X-158175Y118326D01*
X-157469Y119382D01*
X-157279Y119420D01*
X-156197Y120142D01*
X-73394Y202946D01*
X256D01*
X1531Y203200D01*
X2613Y203923D01*
X14858Y216167D01*
X15580Y217249D01*
X15834Y218525D01*
Y222541D01*
X16069Y223720D01*
X15797Y225086D01*
X15023Y226243D01*
X13866Y227017D01*
X12653Y227258D01*
X12732Y228055D01*
X12778Y228522D01*
X21843D01*
X29770Y220595D01*
Y210375D01*
X22508Y203112D01*
X21386Y201650D01*
X20680Y199947D01*
X20440Y198120D01*
Y191060D01*
X20680Y189232D01*
X21386Y187529D01*
X22508Y186067D01*
X23970Y184945D01*
X25673Y184240D01*
X27500Y183999D01*
X29327Y184240D01*
X31030Y184945D01*
X32492Y186067D01*
X33614Y187529D01*
X34320Y189232D01*
X34560Y191060D01*
Y195196D01*
X39755Y200390D01*
X65216D01*
X85178Y180428D01*
X86640Y179305D01*
X88343Y178600D01*
X90170Y178360D01*
X129800D01*
Y162860D01*
X130040Y161033D01*
X130745Y159330D01*
X131868Y157868D01*
X151599Y138137D01*
X153061Y137015D01*
X154118Y136577D01*
X154366Y135331D01*
X152816Y133781D01*
X110905D01*
X109748Y134011D01*
X105797D01*
X104521Y133758D01*
X103439Y133035D01*
X80192Y109788D01*
X79470Y108707D01*
X79216Y107431D01*
Y96429D01*
X78981Y95250D01*
X79253Y93884D01*
X80027Y92727D01*
X81184Y91953D01*
X82550Y91681D01*
X83916Y91953D01*
X85073Y92727D01*
X85847Y93884D01*
X86119Y95250D01*
X85884Y96429D01*
Y106050D01*
X103728Y123894D01*
X104992Y123769D01*
X105249Y123384D01*
X106407Y122611D01*
X107773Y122339D01*
X108760Y122535D01*
X109658Y121637D01*
X109461Y120650D01*
X109733Y119284D01*
X110507Y118127D01*
Y117743D01*
X110296Y117603D01*
X94067Y101373D01*
X93344Y100291D01*
X93090Y99016D01*
Y91051D01*
X92856Y89872D01*
X93128Y88507D01*
X93901Y87349D01*
X95059Y86575D01*
X96425Y86304D01*
X97790Y86575D01*
X98948Y87349D01*
X99721Y88507D01*
X99993Y89872D01*
X99759Y91051D01*
Y97634D01*
X114035Y111911D01*
X116070D01*
Y111380D01*
X116070D01*
Y99610D01*
X133610D01*
Y98340D01*
X134880D01*
Y85300D01*
X144895D01*
X145381Y84127D01*
X124178Y62924D01*
X115110D01*
Y65550D01*
X115650D01*
Y70820D01*
X89570D01*
Y65550D01*
X90110D01*
Y53590D01*
X90110Y53590D01*
X90110Y53090D01*
X90110D01*
Y41488D01*
X90110Y41488D01*
X90110D01*
X90110Y41090D01*
Y40840D01*
Y40590D01*
X90110Y40192D01*
X90110Y40192D01*
X90110D01*
Y37924D01*
X84345D01*
Y38830D01*
X71455D01*
Y24670D01*
X84345D01*
Y31256D01*
X90110D01*
Y28590D01*
X90646D01*
Y-11136D01*
X87916D01*
Y-11136D01*
X87702D01*
X86804Y-10238D01*
Y-9136D01*
X84470D01*
Y-8460D01*
X84470D01*
Y4540D01*
X82470D01*
Y11540D01*
X81809D01*
X81003Y12522D01*
X81039Y12700D01*
X80767Y14066D01*
X79993Y15223D01*
X78836Y15997D01*
X77470Y16269D01*
X76104Y15997D01*
X74947Y15223D01*
X74173Y14066D01*
X73901Y12700D01*
X73937Y12522D01*
X73131Y11540D01*
X72470D01*
Y10374D01*
X67036D01*
Y10592D01*
X66645Y12562D01*
X65529Y14231D01*
X63859Y15347D01*
X61890Y15739D01*
X59920Y15347D01*
X58250Y14231D01*
X57134Y12562D01*
X56743Y10592D01*
Y-3632D01*
X57134Y-5602D01*
X57260Y-5790D01*
X56661Y-6910D01*
X54418D01*
X53819Y-5790D01*
X53945Y-5602D01*
X54336Y-3632D01*
Y10592D01*
X53945Y12562D01*
X52829Y14231D01*
X51159Y15347D01*
X49190Y15739D01*
X47220Y15347D01*
X45550Y14231D01*
X44434Y12562D01*
X44043Y10592D01*
Y6814D01*
X41636D01*
Y10592D01*
X41245Y12562D01*
X40129Y14231D01*
X39824Y14435D01*
Y15322D01*
X39570Y16598D01*
X38847Y17680D01*
X23054Y33472D01*
X21972Y34195D01*
X20697Y34449D01*
X10916D01*
X9737Y34684D01*
X8371Y34412D01*
X7213Y33638D01*
X6440Y32481D01*
X6168Y31115D01*
X6440Y29749D01*
X7213Y28592D01*
X8371Y27818D01*
X9737Y27546D01*
X10916Y27781D01*
X19316D01*
X32851Y14245D01*
X32850Y14231D01*
X31734Y12562D01*
X31343Y10592D01*
Y-3632D01*
X31734Y-5602D01*
X31860Y-5790D01*
X31261Y-6910D01*
X28837D01*
Y15640D01*
X18742D01*
Y513D01*
X17760Y-293D01*
X17500Y-241D01*
X16134Y-513D01*
X14977Y-1287D01*
X14203Y-2444D01*
X13931Y-3810D01*
X14203Y-5176D01*
X14613Y-5790D01*
X14015Y-6910D01*
X8569D01*
X6794Y-5135D01*
Y10064D01*
X4794D01*
Y11176D01*
X4794D01*
Y23304D01*
X3818D01*
Y40800D01*
X4220Y40800D01*
Y40800D01*
X4237D01*
X5118Y40800D01*
X5118Y40800D01*
Y40800D01*
X5533D01*
X6168Y40027D01*
X6440Y38661D01*
X7213Y37503D01*
X8371Y36730D01*
X9737Y36458D01*
X11102Y36730D01*
X12260Y37503D01*
X13034Y38661D01*
X13305Y40027D01*
X13940Y40800D01*
X16305D01*
X16940Y40027D01*
X17211Y38661D01*
X17985Y37503D01*
X19143Y36730D01*
X20508Y36458D01*
X21874Y36730D01*
X23032Y37503D01*
X23805Y38661D01*
X24077Y40027D01*
X24712Y40800D01*
X25352D01*
X25352Y40800D01*
Y40800D01*
X26197Y40800D01*
X26223D01*
X26250D01*
X27095Y40800D01*
X27095Y40800D01*
Y40800D01*
X37250D01*
Y60800D01*
X35084D01*
Y63685D01*
X34830Y64961D01*
X34107Y66043D01*
X22514Y77636D01*
X21432Y78359D01*
X20156Y78613D01*
X16038D01*
X14859Y78848D01*
X13493Y78576D01*
X12336Y77802D01*
X11562Y76645D01*
X11290Y75279D01*
X11562Y73913D01*
X12336Y72756D01*
X13493Y71982D01*
X14859Y71710D01*
X16038Y71945D01*
X18775D01*
X28416Y62304D01*
Y60800D01*
X27095D01*
X27095Y60800D01*
Y60800D01*
X26250Y60800D01*
X26223D01*
X26197D01*
X25352Y60800D01*
X25352Y60800D01*
Y60800D01*
X24605D01*
X23799Y61782D01*
X23889Y62230D01*
X23617Y63596D01*
X22843Y64753D01*
X21686Y65527D01*
X20320Y65799D01*
X18954Y65527D01*
X17797Y64753D01*
X17023Y63596D01*
X16751Y62230D01*
X16841Y61782D01*
X16035Y60800D01*
X14076D01*
X13271Y61782D01*
X13305Y61955D01*
X13034Y63321D01*
X12260Y64479D01*
X11102Y65252D01*
X9737Y65524D01*
X8371Y65252D01*
X7213Y64479D01*
X6440Y63321D01*
X6168Y61955D01*
X6203Y61782D01*
X5397Y60800D01*
X5118D01*
X5118Y60800D01*
Y60800D01*
X4237Y60800D01*
X4228D01*
X4220D01*
X3339Y60800D01*
X3339Y60800D01*
Y60800D01*
X-5922D01*
X-5922Y60800D01*
Y60800D01*
X-6780Y60800D01*
X-6800D01*
X-6820D01*
X-7678Y60800D01*
X-7678Y60800D01*
Y60800D01*
X-8356D01*
X-9162Y61782D01*
X-9072Y62230D01*
X-9344Y63596D01*
X-10118Y64753D01*
X-11275Y65527D01*
X-11289Y65530D01*
X-11365Y65580D01*
X-12641Y65834D01*
X-13917Y65580D01*
X-13993Y65530D01*
X-14007Y65527D01*
X-15164Y64753D01*
X-15938Y63596D01*
X-16210Y62230D01*
Y62230D01*
X-16334Y61522D01*
X-17247Y61340D01*
X-17247Y61340D01*
X-17247Y61340D01*
X-22017D01*
Y50800D01*
Y40260D01*
X-17247D01*
Y40800D01*
X-7678D01*
X-7678Y40800D01*
Y40800D01*
X-6820Y40800D01*
X-6780D01*
D01*
Y40800D01*
X-6378Y40800D01*
Y23304D01*
X-7334D01*
Y22523D01*
X-13860D01*
Y26410D01*
X-31830D01*
Y8440D01*
X-13860D01*
Y12327D01*
X-7334D01*
X-7334Y11176D01*
X-7334D01*
Y10962D01*
X-8232Y10064D01*
X-9334D01*
Y-6064D01*
X-8330D01*
Y-7056D01*
X-8090Y-8883D01*
X-7384Y-10586D01*
X-7180Y-10853D01*
X-7742Y-11992D01*
X-15527D01*
Y-9227D01*
X-30195D01*
Y-21355D01*
X-15527D01*
Y-18660D01*
X-4515D01*
X11216Y-34391D01*
Y-67390D01*
X10050D01*
Y-77390D01*
X10353D01*
X11158Y-78372D01*
X10981Y-79262D01*
X11253Y-80627D01*
X12027Y-81785D01*
X13184Y-82559D01*
X14550Y-82830D01*
X15916Y-82559D01*
X17073Y-81785D01*
X17847Y-80627D01*
X18093Y-79390D01*
X30050D01*
Y-65390D01*
X29599D01*
X29037Y-64251D01*
X29946Y-63066D01*
X30501Y-61727D01*
X30947Y-61638D01*
X31784Y-61556D01*
X32850Y-63151D01*
X34520Y-64267D01*
X36490Y-64659D01*
X38459Y-64267D01*
X40129Y-63151D01*
X41245Y-61482D01*
X41636Y-59512D01*
Y-45288D01*
X41245Y-43318D01*
X40129Y-41649D01*
X39824Y-41445D01*
Y-23779D01*
X40058Y-22601D01*
X39941Y-22012D01*
X40747Y-21030D01*
X45273D01*
X46079Y-22012D01*
X45961Y-22601D01*
X46196Y-23779D01*
Y-41217D01*
X45550Y-41649D01*
X44434Y-43318D01*
X44043Y-45288D01*
Y-59512D01*
X44434Y-61482D01*
X45550Y-63151D01*
X47220Y-64267D01*
X49190Y-64659D01*
X51159Y-64267D01*
X52829Y-63151D01*
X53945Y-61482D01*
X54336Y-59512D01*
Y-45288D01*
X53945Y-43318D01*
X52864Y-41701D01*
Y-23779D01*
X53099Y-22601D01*
X52982Y-22012D01*
X53787Y-21030D01*
X55735D01*
X56897Y-22192D01*
X56897D01*
X56897Y-22192D01*
X56897D01*
X56897Y-22192D01*
Y-22192D01*
X56897Y-22192D01*
Y-22192D01*
X58359Y-23314D01*
X60062Y-24020D01*
X60062Y-24020D01*
X60062Y-24020D01*
D01*
X60062Y-24020D01*
X60062Y-24020D01*
X61890Y-24260D01*
X70676D01*
Y-25264D01*
X73367D01*
Y-25400D01*
X73776Y-27456D01*
X74941Y-29200D01*
X75907Y-30166D01*
Y-35244D01*
X75602Y-35641D01*
X74947Y-37222D01*
X74724Y-38919D01*
X74947Y-40616D01*
X75602Y-42197D01*
X76644Y-43555D01*
X78002Y-44597D01*
X79583Y-45252D01*
X81280Y-45475D01*
X82977Y-45252D01*
X84558Y-44597D01*
X85916Y-43555D01*
X86958Y-42197D01*
X87613Y-40616D01*
X87836Y-38919D01*
X87613Y-37222D01*
X86958Y-35641D01*
X86653Y-35244D01*
Y-27940D01*
X86244Y-25884D01*
X86244D01*
D01*
X86804Y-25264D01*
X86804D01*
Y-23264D01*
X87916D01*
Y-23264D01*
X100044D01*
Y-20534D01*
X104426D01*
Y-23264D01*
X116554D01*
Y-23264D01*
X116768D01*
X117666Y-24162D01*
Y-25264D01*
X133794D01*
Y-23698D01*
X135047Y-23533D01*
X136628Y-22878D01*
X137986Y-21836D01*
X139028Y-20478D01*
X139683Y-18897D01*
X139906Y-17200D01*
X139683Y-15503D01*
X139028Y-13922D01*
X137986Y-12564D01*
X136628Y-11522D01*
X135047Y-10867D01*
X133794Y-10702D01*
Y-9136D01*
X117666D01*
Y-11136D01*
X116554D01*
Y-11136D01*
X104426D01*
Y-13866D01*
X100044D01*
Y-11136D01*
X97314D01*
Y28590D01*
X115110D01*
Y40192D01*
X115110Y40192D01*
D01*
D01*
X115110Y40590D01*
Y40660D01*
Y40840D01*
X115110Y41090D01*
D01*
X115110Y41488D01*
X115110Y41488D01*
X115110D01*
Y43756D01*
X119480D01*
X120756Y44010D01*
X121838Y44732D01*
X121838Y44732D01*
X121838Y44732D01*
X156453Y79348D01*
X157626Y78861D01*
Y72171D01*
X139568Y54113D01*
X138846Y53032D01*
X138592Y51756D01*
Y45077D01*
X120739Y27224D01*
X116700D01*
X115424Y26970D01*
X114342Y26247D01*
X109502Y21407D01*
X108780Y20326D01*
X108526Y19050D01*
Y-1361D01*
X108291Y-2540D01*
X108563Y-3906D01*
X109337Y-5063D01*
X110494Y-5837D01*
X111860Y-6109D01*
X113226Y-5837D01*
X114383Y-5063D01*
X114626Y-4700D01*
X116070Y-4700D01*
Y-4700D01*
X132340D01*
Y8340D01*
Y21380D01*
X125985D01*
X125499Y22553D01*
X144283Y41338D01*
X145006Y42420D01*
X145260Y43696D01*
X145260Y43696D01*
X145260Y43696D01*
Y43696D01*
Y50375D01*
X163318Y68432D01*
X164040Y69514D01*
X164294Y70790D01*
Y74343D01*
X165276Y75149D01*
X166370Y74931D01*
X167549Y75166D01*
X210357D01*
X211205Y74318D01*
X212286Y73596D01*
X213562Y73342D01*
X220054D01*
X221232Y73107D01*
X222598Y73379D01*
X223756Y74152D01*
X224529Y75310D01*
X224801Y76676D01*
X224529Y78042D01*
X223756Y79199D01*
X222598Y79973D01*
X221232Y80244D01*
X220054Y80010D01*
X219125D01*
X218526Y81130D01*
X219197Y82134D01*
X219469Y83500D01*
X219197Y84866D01*
X218423Y86023D01*
X217266Y86797D01*
X215900Y87069D01*
X214721Y86834D01*
X171509D01*
X170330Y87069D01*
X168964Y86797D01*
X167807Y86023D01*
X167033Y84866D01*
X166761Y83500D01*
X166845Y83079D01*
X166140Y82023D01*
X165276Y81851D01*
X164294Y82657D01*
Y91149D01*
X169164Y96019D01*
X170163Y96687D01*
X170937Y97844D01*
X171209Y99210D01*
X170937Y100576D01*
X170163Y101733D01*
X169006Y102507D01*
X167640Y102779D01*
X166361Y102524D01*
X165735Y103151D01*
X165735Y104420D01*
X166266Y104952D01*
X166370Y104931D01*
X167736Y105203D01*
X168893Y105977D01*
X169667Y107134D01*
X169939Y108500D01*
X169855Y108921D01*
X170560Y109977D01*
X171696Y110203D01*
X172853Y110977D01*
X173627Y112134D01*
X173899Y113500D01*
X173627Y114866D01*
X172853Y116023D01*
X171696Y116797D01*
X170560Y117023D01*
X169855Y118079D01*
X169939Y118500D01*
X169667Y119866D01*
X169607Y119955D01*
X169800Y120420D01*
X170881Y121143D01*
X181736Y131997D01*
X184727D01*
X186003Y132251D01*
X187084Y132974D01*
X187084Y132974D01*
X187084Y132974D01*
X192078Y137968D01*
X202597D01*
X235328Y105236D01*
X235811Y104914D01*
X236622Y104103D01*
Y74967D01*
X229759Y68104D01*
X228985D01*
X227806Y68339D01*
X226440Y68067D01*
X225283Y67293D01*
X224509Y66136D01*
X224237Y64770D01*
X224328Y64316D01*
X223522Y63334D01*
X220518D01*
X217995Y65858D01*
X216913Y66580D01*
X215637Y66834D01*
X171509D01*
X170330Y67069D01*
X168964Y66797D01*
X167807Y66023D01*
X167033Y64866D01*
X166761Y63500D01*
X167033Y62134D01*
D01*
X166370Y61989D01*
X166370Y61989D01*
Y61989D01*
X165004Y61717D01*
X163847Y60943D01*
X163073Y59786D01*
X162801Y58420D01*
X163073Y57054D01*
X163847Y55897D01*
X165004Y55123D01*
X166124Y54900D01*
X166830Y53844D01*
X166761Y53500D01*
X167033Y52134D01*
X167807Y50977D01*
X168964Y50203D01*
X170330Y49931D01*
X171509Y50166D01*
X211415D01*
X213019Y48562D01*
X214100Y47840D01*
X215376Y47586D01*
X236363D01*
X237169Y46604D01*
X236962Y45565D01*
Y32584D01*
X233363D01*
Y10584D01*
X233363D01*
Y10522D01*
X232465Y9624D01*
X227133D01*
Y-6916D01*
Y-23456D01*
X236962D01*
Y-24983D01*
X236892Y-25075D01*
X236237Y-26656D01*
X236014Y-28352D01*
X236237Y-30049D01*
X236892Y-31630D01*
X237934Y-32988D01*
X239292Y-34030D01*
X240873Y-34685D01*
X242570Y-34909D01*
X244267Y-34685D01*
X245848Y-34030D01*
X247206Y-32988D01*
X248099Y-31824D01*
X249302Y-32232D01*
Y-40000D01*
X249302Y-40000D01*
X249302D01*
X249506Y-40494D01*
X250000Y-40698D01*
X300531D01*
X301364Y-41657D01*
X300048Y-50980D01*
X296717Y-67724D01*
X292453Y-84254D01*
X287269Y-100520D01*
X281181Y-116469D01*
X274208Y-132051D01*
X266372Y-147219D01*
X257699Y-161923D01*
X248214Y-176117D01*
X237949Y-189758D01*
X226935Y-202801D01*
X215206Y-215206D01*
X202801Y-226935D01*
X189758Y-237949D01*
X179826Y-245423D01*
X178690Y-244856D01*
Y-231400D01*
X152610D01*
Y-247670D01*
X174744D01*
X175113Y-248885D01*
X161923Y-257699D01*
X147219Y-266372D01*
X132051Y-274208D01*
X116469Y-281181D01*
X100520Y-287269D01*
X84254Y-292453D01*
X67724Y-296717D01*
X61680Y-297919D01*
X60698Y-297114D01*
Y-250000D01*
X60494Y-249506D01*
X60000Y-249302D01*
X-60000D01*
X-60494Y-249506D01*
X-60698Y-250000D01*
Y-297114D01*
X-61680Y-297919D01*
X-67724Y-296717D01*
X-84254Y-292453D01*
X-100520Y-287269D01*
X-116469Y-281181D01*
X-132051Y-274208D01*
X-147219Y-266372D01*
X-161923Y-257699D01*
X-176117Y-248214D01*
X-189758Y-237949D01*
X-202801Y-226935D01*
X-215206Y-215206D01*
X-226935Y-202801D01*
X-237949Y-189758D01*
X-248214Y-176117D01*
X-257699Y-161923D01*
X-261492Y-155493D01*
X-260862Y-154390D01*
X-244810D01*
Y-144120D01*
X-261890D01*
Y-152406D01*
X-263115Y-152740D01*
X-266372Y-147219D01*
X-274208Y-132051D01*
X-281181Y-116469D01*
X-287269Y-100520D01*
X-292453Y-84254D01*
X-296717Y-67724D01*
X-300048Y-50980D01*
X-301364Y-41657D01*
X-300531Y-40698D01*
X-261890D01*
Y-40698D01*
Y-41310D01*
X-261890Y-41596D01*
X-261890Y-41596D01*
X-261890D01*
Y-51580D01*
X-244810D01*
Y-41310D01*
X-248701D01*
X-249407Y-40254D01*
X-249302Y-40000D01*
Y40000D01*
X-249506Y40494D01*
X-250000Y40698D01*
X-300531D01*
X-301364Y41657D01*
X-300048Y50980D01*
X-296717Y67724D01*
X-292453Y84254D01*
X-287269Y100520D01*
X-281181Y116469D01*
X-274208Y132051D01*
X-266372Y147219D01*
X-257699Y161923D01*
X-248214Y176117D01*
X-237949Y189758D01*
X-226935Y202801D01*
X-215206Y215206D01*
X-202801Y226935D01*
X-189758Y237949D01*
X-176117Y248214D01*
X-161923Y257699D01*
X-147219Y266372D01*
X-132051Y274208D01*
X-116469Y281181D01*
X-100520Y287269D01*
X-84254Y292453D01*
X-67724Y296717D01*
X-61680Y297919D01*
X-60698Y297114D01*
D02*
G37*
%LPC*%
G36*
X269621Y-106272D02*
X263906D01*
Y-112622D01*
X269621D01*
Y-106272D01*
D02*
G37*
G36*
X-47800Y-56273D02*
X-58880D01*
Y-60043D01*
X-58340D01*
Y-68503D01*
X-56674D01*
Y-71010D01*
X-58340D01*
Y-80010D01*
Y-89010D01*
X-56334D01*
Y-94314D01*
X-56639Y-94519D01*
X-57755Y-96188D01*
X-58146Y-98158D01*
Y-112382D01*
X-57755Y-114352D01*
X-56639Y-116021D01*
X-54969Y-117137D01*
X-53000Y-117529D01*
X-51030Y-117137D01*
X-49360Y-116021D01*
X-48244Y-114352D01*
X-47853Y-112382D01*
Y-98158D01*
X-48244Y-96188D01*
X-49360Y-94519D01*
X-49665Y-94314D01*
Y-89010D01*
X-48340D01*
Y-82710D01*
X-47640Y-82010D01*
X-47442Y-82010D01*
X-47442Y-82010D01*
Y-82010D01*
X-45640D01*
Y-89010D01*
X-43634D01*
Y-94314D01*
X-43939Y-94519D01*
X-45055Y-96188D01*
X-45446Y-98158D01*
Y-112382D01*
X-45055Y-114352D01*
X-43939Y-116021D01*
X-42269Y-117137D01*
X-40300Y-117529D01*
X-38330Y-117137D01*
X-36660Y-116021D01*
X-35544Y-114352D01*
X-35153Y-112382D01*
Y-98158D01*
X-35544Y-96188D01*
X-36660Y-94519D01*
X-36965Y-94314D01*
Y-89010D01*
X-35640D01*
Y-82010D01*
X-33838D01*
X-33838Y-82010D01*
Y-82010D01*
X-33640Y-82010D01*
X-32940Y-82710D01*
Y-89010D01*
X-30934D01*
Y-94314D01*
X-31239Y-94519D01*
X-32355Y-96188D01*
X-32746Y-98158D01*
Y-112382D01*
X-32355Y-114352D01*
X-31239Y-116021D01*
X-29569Y-117137D01*
X-27599Y-117529D01*
X-25630Y-117137D01*
X-23960Y-116021D01*
X-22844Y-114352D01*
X-22453Y-112382D01*
Y-98158D01*
X-22844Y-96188D01*
X-23960Y-94519D01*
X-24265Y-94314D01*
Y-89010D01*
X-22940D01*
Y-80550D01*
X-22400D01*
Y-76780D01*
X-27940D01*
Y-75510D01*
X-29210D01*
Y-70470D01*
X-32742D01*
X-32742Y-70470D01*
Y-70470D01*
X-33480Y-70470D01*
X-33640Y-70310D01*
Y-69010D01*
X-34195D01*
X-34307Y-68153D01*
X-34962Y-66572D01*
X-36004Y-65214D01*
X-37362Y-64172D01*
X-38943Y-63517D01*
X-40640Y-63294D01*
X-42337Y-63517D01*
X-43918Y-64172D01*
X-45276Y-65214D01*
X-46318Y-66572D01*
X-46973Y-68153D01*
X-47085Y-69010D01*
X-47640D01*
Y-71010D01*
X-47640D01*
X-48340D01*
X-48538Y-71010D01*
X-48538Y-71010D01*
Y-71010D01*
X-50006D01*
Y-68503D01*
X-48340D01*
Y-60043D01*
X-47800D01*
Y-56273D01*
D02*
G37*
G36*
X177870Y-108191D02*
X176504Y-108463D01*
X175347Y-109237D01*
X174573Y-110394D01*
X174301Y-111760D01*
X174573Y-113126D01*
X175347Y-114283D01*
X176504Y-115057D01*
X177870Y-115329D01*
X179236Y-115057D01*
X180393Y-114283D01*
X181167Y-113126D01*
X181439Y-111760D01*
X181167Y-110394D01*
X180393Y-109237D01*
X179236Y-108463D01*
X177870Y-108191D01*
D02*
G37*
G36*
X82363Y-55934D02*
X80997Y-56206D01*
X79839Y-56979D01*
X79066Y-58137D01*
X78794Y-59503D01*
X79029Y-60682D01*
Y-88067D01*
X79282Y-89342D01*
X80005Y-90424D01*
X84610Y-95029D01*
X85259Y-95463D01*
X85692Y-95752D01*
X86968Y-96006D01*
X100565D01*
Y-100006D01*
X102343D01*
X103061Y-100724D01*
X103061Y-100724D01*
D01*
X103332Y-102090D01*
X104106Y-103247D01*
X105264Y-104021D01*
X106629Y-104293D01*
X107995Y-104021D01*
X109153Y-103247D01*
X109926Y-102090D01*
X110198Y-100724D01*
Y-100006D01*
X112693D01*
Y-85338D01*
X100565D01*
Y-89338D01*
X88349D01*
X85697Y-86686D01*
Y-60682D01*
X85931Y-59503D01*
X85660Y-58137D01*
X84886Y-56979D01*
X83728Y-56206D01*
X82363Y-55934D01*
D02*
G37*
G36*
X269621Y-97382D02*
X263906D01*
Y-103732D01*
X269621D01*
Y-97382D01*
D02*
G37*
G36*
X277876Y-106272D02*
X272161D01*
Y-112622D01*
X277876D01*
Y-106272D01*
D02*
G37*
G36*
X52180Y-67390D02*
X34180D01*
Y-77390D01*
X34180D01*
X34180Y-77676D01*
X33533Y-78644D01*
X33261Y-80010D01*
X33496Y-81189D01*
Y-83760D01*
X30930D01*
Y-108760D01*
X42930D01*
Y-108760D01*
X42930D01*
X42930Y-108760D01*
X43430D01*
Y-108760D01*
X55430D01*
Y-83760D01*
X52764D01*
Y-81470D01*
X52827Y-81376D01*
X53099Y-80010D01*
X52827Y-78644D01*
X52180Y-77676D01*
X52180Y-77390D01*
X52180D01*
Y-67390D01*
D02*
G37*
G36*
X-244810Y-131310D02*
X-261890D01*
Y-141580D01*
X-244810D01*
Y-131310D01*
D02*
G37*
G36*
X-180260Y-121820D02*
X-206340D01*
Y-126426D01*
X-207513Y-126912D01*
X-208950Y-125476D01*
X-209617Y-124477D01*
X-210775Y-123703D01*
X-212141Y-123431D01*
X-213506Y-123703D01*
X-214664Y-124477D01*
X-215438Y-125634D01*
X-215709Y-127000D01*
X-215438Y-128366D01*
X-214664Y-129523D01*
X-213665Y-130191D01*
X-208448Y-135407D01*
D01*
X-208448D01*
Y-135407D01*
D01*
X-208448D01*
Y-135408D01*
X-208448D01*
X-208448Y-135408D01*
Y-135408D01*
X-208448Y-135408D01*
Y-135408D01*
X-207367Y-136130D01*
X-206091Y-136384D01*
X-205800D01*
Y-139050D01*
X-180800D01*
Y-127090D01*
X-180260D01*
Y-121820D01*
D02*
G37*
G36*
X74410Y-128530D02*
X62640D01*
Y-144800D01*
X74410D01*
Y-128530D01*
D02*
G37*
G36*
X88720D02*
X76950D01*
Y-144800D01*
X88720D01*
Y-128530D01*
D02*
G37*
G36*
X74410Y-109720D02*
X62640D01*
Y-125990D01*
X74410D01*
Y-109720D01*
D02*
G37*
G36*
X88720D02*
X76950D01*
Y-125990D01*
X88720D01*
Y-109720D01*
D02*
G37*
G36*
X9410D02*
X-2360D01*
Y-125990D01*
X9410D01*
Y-109720D01*
D02*
G37*
G36*
X23720D02*
X11950D01*
Y-125990D01*
X23720D01*
Y-109720D01*
D02*
G37*
G36*
X277876Y-97382D02*
X272161D01*
Y-103732D01*
X277876D01*
Y-97382D01*
D02*
G37*
G36*
X-163570Y-56260D02*
X-179840D01*
Y-68030D01*
X-163570D01*
Y-56260D01*
D02*
G37*
G36*
X122771Y-61862D02*
X117437D01*
Y-68466D01*
X122771D01*
Y-61862D01*
D02*
G37*
G36*
X114897D02*
X109563D01*
Y-68466D01*
X114897D01*
Y-61862D01*
D02*
G37*
G36*
X-144760Y-56260D02*
X-161030D01*
Y-68030D01*
X-144760D01*
Y-56260D01*
D02*
G37*
G36*
X67587Y-53670D02*
X63159D01*
Y-64957D01*
X64070Y-64776D01*
X65918Y-63541D01*
X67153Y-61692D01*
X67587Y-59512D01*
Y-53670D01*
D02*
G37*
G36*
X60620D02*
X56192D01*
Y-59512D01*
X56626Y-61692D01*
X57861Y-63541D01*
X59709Y-64776D01*
X60620Y-64957D01*
Y-53670D01*
D02*
G37*
G36*
X158190Y-55090D02*
X138990D01*
Y-57477D01*
X138404Y-57593D01*
X137247Y-58367D01*
X131077Y-64537D01*
X130303Y-65694D01*
X130031Y-67060D01*
Y-81773D01*
X115587Y-96218D01*
X114813Y-97375D01*
X114541Y-98741D01*
Y-140031D01*
X73777Y-180796D01*
X73003Y-181953D01*
X72731Y-183319D01*
Y-186630D01*
X71038D01*
X71038Y-186630D01*
Y-186630D01*
X70300Y-186630D01*
X70140Y-186090D01*
X69402Y-186090D01*
X69402Y-186090D01*
Y-186090D01*
X64870D01*
Y-199130D01*
Y-212170D01*
X69402D01*
X69402Y-212170D01*
Y-212170D01*
X70140Y-212170D01*
X70300Y-211630D01*
X71038Y-211630D01*
X71038Y-211630D01*
Y-211630D01*
X82300D01*
Y-211630D01*
X82300D01*
X82300Y-211630D01*
X83000D01*
Y-211630D01*
X95000D01*
Y-211630D01*
X95000D01*
X95000Y-211630D01*
X95500D01*
Y-211630D01*
X107302D01*
X107302Y-211630D01*
Y-211630D01*
X107500Y-211630D01*
X107850D01*
X108200D01*
X108398Y-211630D01*
X108398Y-211630D01*
Y-211630D01*
X120002D01*
X120002Y-211630D01*
Y-211630D01*
X120200Y-211630D01*
X120550D01*
X120900D01*
X121098Y-211630D01*
X121098Y-211630D01*
Y-211630D01*
X132702D01*
X132702Y-211630D01*
Y-211630D01*
X132900Y-211630D01*
X133250D01*
X133600D01*
X133798Y-211630D01*
X133798Y-211630D01*
Y-211630D01*
X145600D01*
Y-186630D01*
X144029D01*
X143223Y-185648D01*
X143269Y-185420D01*
X142997Y-184054D01*
X142223Y-182897D01*
X141066Y-182123D01*
X139700Y-181851D01*
X138334Y-182123D01*
X137177Y-182897D01*
X136403Y-184054D01*
X136131Y-185420D01*
X136177Y-185648D01*
X135371Y-186630D01*
X133798D01*
X133798Y-186630D01*
Y-186630D01*
X133600Y-186630D01*
X133250D01*
X132900D01*
X132702Y-186630D01*
X132702Y-186630D01*
Y-186630D01*
X130250D01*
Y-184150D01*
X129978Y-182784D01*
X129205Y-181627D01*
X128047Y-180853D01*
X126681Y-180581D01*
X125316Y-180853D01*
X124158Y-181627D01*
X123384Y-182784D01*
X123113Y-184150D01*
Y-186630D01*
X121098D01*
X121098Y-186630D01*
Y-186630D01*
X120900Y-186630D01*
X120550D01*
X120200D01*
X120002Y-186630D01*
X120002Y-186630D01*
Y-186630D01*
X117769D01*
Y-176838D01*
X139017Y-155590D01*
X158190D01*
Y-143990D01*
D01*
Y-143990D01*
X158190Y-143990D01*
Y-142890D01*
X158190D01*
Y-140424D01*
X177870D01*
X179146Y-140170D01*
X180228Y-139447D01*
X210495Y-109180D01*
X211495Y-108512D01*
X212268Y-107354D01*
X212540Y-105989D01*
X212268Y-104623D01*
X211495Y-103465D01*
X210337Y-102692D01*
X208971Y-102420D01*
X207606Y-102692D01*
X206448Y-103465D01*
X205780Y-104465D01*
X176489Y-133756D01*
X158190D01*
Y-131290D01*
D01*
Y-131290D01*
X158190Y-131290D01*
Y-130190D01*
X158190D01*
Y-118590D01*
X138990D01*
Y-120821D01*
X137230D01*
X135864Y-121093D01*
X134707Y-121867D01*
X129202Y-127371D01*
X128029Y-126885D01*
Y-103148D01*
X139087Y-92090D01*
X158190D01*
Y-80490D01*
D01*
Y-80490D01*
X158190Y-80490D01*
Y-79390D01*
X158190D01*
Y-76924D01*
X159820D01*
X184713Y-101817D01*
X185795Y-102540D01*
X187071Y-102793D01*
X202350D01*
X203529Y-103028D01*
X204895Y-102756D01*
X206052Y-101983D01*
X206826Y-100825D01*
X207097Y-99459D01*
X206826Y-98094D01*
X206052Y-96936D01*
X204895Y-96162D01*
X203529Y-95891D01*
X202350Y-96125D01*
X188452D01*
X163559Y-71233D01*
X162477Y-70510D01*
X161201Y-70256D01*
X158190D01*
Y-67790D01*
D01*
Y-67790D01*
X158190Y-67790D01*
Y-66690D01*
X158190D01*
Y-55090D01*
D02*
G37*
G36*
X-22400Y-70470D02*
X-26670D01*
Y-74240D01*
X-22400D01*
Y-70470D01*
D02*
G37*
G36*
X-144760Y-70570D02*
X-161030D01*
Y-82340D01*
X-144760D01*
Y-70570D01*
D02*
G37*
G36*
X-163570D02*
X-179840D01*
Y-82340D01*
X-163570D01*
Y-70570D01*
D02*
G37*
G36*
X-180800Y-89550D02*
X-205800D01*
Y-92216D01*
X-206690D01*
X-207966Y-92470D01*
X-209048Y-93193D01*
X-216031Y-100176D01*
X-228851D01*
X-230127Y-100430D01*
X-231208Y-101152D01*
X-236474Y-106418D01*
X-237473Y-107086D01*
X-238247Y-108243D01*
X-238519Y-109609D01*
X-238247Y-110975D01*
X-237473Y-112132D01*
X-236344Y-112887D01*
X-236220Y-114151D01*
X-240655Y-118586D01*
X-250412D01*
X-251591Y-118351D01*
X-252957Y-118623D01*
X-254114Y-119397D01*
X-254888Y-120554D01*
X-255159Y-121920D01*
X-254888Y-123286D01*
X-254114Y-124443D01*
X-252957Y-125217D01*
X-251591Y-125489D01*
X-250412Y-125254D01*
X-239274D01*
X-237998Y-125000D01*
X-236916Y-124277D01*
X-224023Y-111384D01*
X-205800D01*
Y-114010D01*
X-206340D01*
Y-119280D01*
X-180260D01*
Y-114010D01*
X-180800D01*
Y-102050D01*
D01*
Y-102050D01*
X-180800Y-102050D01*
Y-101550D01*
X-180800D01*
Y-89550D01*
D02*
G37*
G36*
X275490Y-57754D02*
X262990D01*
X260746Y-58200D01*
X258845Y-59471D01*
X257574Y-61373D01*
X257127Y-63617D01*
X257574Y-65860D01*
X258845Y-67762D01*
X260746Y-69033D01*
X262013Y-69285D01*
Y-70555D01*
X260746Y-70807D01*
X258845Y-72078D01*
X257574Y-73980D01*
X257127Y-76223D01*
X257574Y-78467D01*
X258845Y-80369D01*
X260746Y-81640D01*
X262990Y-82086D01*
X275490D01*
X277733Y-81640D01*
X279636Y-80369D01*
X280906Y-78467D01*
X281353Y-76223D01*
X280906Y-73980D01*
X279636Y-72078D01*
X277733Y-70807D01*
X276467Y-70555D01*
Y-69285D01*
X277733Y-69033D01*
X279636Y-67762D01*
X280906Y-65860D01*
X281353Y-63617D01*
X280906Y-61373D01*
X279636Y-59471D01*
X277733Y-58200D01*
X275490Y-57754D01*
D02*
G37*
G36*
X-60500Y-70470D02*
X-64770D01*
Y-74240D01*
X-60500D01*
Y-70470D01*
D02*
G37*
G36*
X122771Y-71006D02*
X117437D01*
Y-77610D01*
X122771D01*
Y-71006D01*
D02*
G37*
G36*
X114897D02*
X109563D01*
Y-77610D01*
X114897D01*
Y-71006D01*
D02*
G37*
G36*
X-146685Y-206375D02*
X-154940D01*
Y-214630D01*
X-146685D01*
Y-206375D01*
D02*
G37*
G36*
Y-217170D02*
X-154940D01*
Y-225425D01*
X-146685D01*
Y-217170D01*
D02*
G37*
G36*
X178690Y-212590D02*
X152610D01*
Y-228860D01*
X178690D01*
Y-212590D01*
D02*
G37*
G36*
X-191270Y-191270D02*
X-212524D01*
X-212214Y-194419D01*
X-210925Y-198667D01*
X-208832Y-202583D01*
X-206015Y-206015D01*
X-202583Y-208832D01*
X-198667Y-210925D01*
X-194419Y-212214D01*
X-191270Y-212524D01*
Y-191270D01*
D02*
G37*
G36*
X212524D02*
X191270D01*
Y-212524D01*
X194419Y-212214D01*
X198667Y-210925D01*
X202583Y-208832D01*
X206015Y-206015D01*
X208832Y-202583D01*
X210925Y-198667D01*
X212214Y-194419D01*
X212524Y-191270D01*
D02*
G37*
G36*
X188730D02*
X167476D01*
X167786Y-194419D01*
X169075Y-198667D01*
X171168Y-202583D01*
X173985Y-206015D01*
X177417Y-208832D01*
X181333Y-210925D01*
X185581Y-212214D01*
X188730Y-212524D01*
Y-191270D01*
D02*
G37*
G36*
X-167476D02*
X-188730D01*
Y-212524D01*
X-185581Y-212214D01*
X-181333Y-210925D01*
X-177417Y-208832D01*
X-173985Y-206015D01*
X-171168Y-202583D01*
X-169075Y-198667D01*
X-167786Y-194419D01*
X-167476Y-191270D01*
D02*
G37*
G36*
X37890Y-212590D02*
X26120D01*
Y-228860D01*
X37890D01*
Y-212590D01*
D02*
G37*
G36*
X-13970Y-239520D02*
X-23240D01*
Y-246790D01*
X-13970D01*
Y-239520D01*
D02*
G37*
G36*
X37890Y-231400D02*
X26120D01*
Y-247670D01*
X37890D01*
Y-231400D01*
D02*
G37*
G36*
X23580D02*
X11810D01*
Y-247670D01*
X23580D01*
Y-231400D01*
D02*
G37*
G36*
X-2160Y-239520D02*
X-11430D01*
Y-246790D01*
X-2160D01*
Y-239520D01*
D02*
G37*
G36*
X23580Y-212590D02*
X11810D01*
Y-228860D01*
X23580D01*
Y-212590D01*
D02*
G37*
G36*
X-2160Y-229710D02*
X-11430D01*
Y-236980D01*
X-2160D01*
Y-229710D01*
D02*
G37*
G36*
X-13970D02*
X-23240D01*
Y-236980D01*
X-13970D01*
Y-229710D01*
D02*
G37*
G36*
X-35560Y-202620D02*
X-39830D01*
Y-206390D01*
X-35560D01*
Y-202620D01*
D02*
G37*
G36*
X-163570Y-146260D02*
X-179840D01*
Y-158030D01*
X-163570D01*
Y-146260D01*
D02*
G37*
G36*
X-66969Y-148593D02*
X-67880Y-148774D01*
X-69728Y-150009D01*
X-70963Y-151858D01*
X-71397Y-154038D01*
Y-159880D01*
X-66969D01*
Y-148593D01*
D02*
G37*
G36*
X-163570Y-160570D02*
X-179840D01*
Y-168638D01*
X-180929Y-169291D01*
X-181333Y-169075D01*
X-185581Y-167786D01*
X-188730Y-167476D01*
Y-188730D01*
X-167476D01*
X-167786Y-185581D01*
X-169075Y-181333D01*
X-171168Y-177417D01*
X-173985Y-173985D01*
X-174532Y-173536D01*
X-174104Y-172340D01*
X-163570D01*
Y-160570D01*
D02*
G37*
G36*
X-144760Y-146260D02*
X-161030D01*
Y-158030D01*
X-144760D01*
Y-146260D01*
D02*
G37*
G36*
X23720Y-128530D02*
X11950D01*
Y-144800D01*
X23720D01*
Y-128530D01*
D02*
G37*
G36*
X9410D02*
X-2360D01*
Y-144800D01*
X9410D01*
Y-128530D01*
D02*
G37*
G36*
X-219950Y-131850D02*
X-235950D01*
Y-153850D01*
X-219950D01*
Y-147438D01*
X-218762D01*
X-218360Y-147518D01*
X-216604Y-147169D01*
X-215116Y-146174D01*
X-214121Y-144686D01*
X-213772Y-142930D01*
X-214121Y-141174D01*
X-215116Y-139686D01*
X-215196Y-139606D01*
X-216684Y-138611D01*
X-218440Y-138262D01*
X-219950D01*
Y-131850D01*
D02*
G37*
G36*
X-144760Y-160570D02*
X-161030D01*
Y-172340D01*
X-144760D01*
Y-160570D01*
D02*
G37*
G36*
X-146685Y-180714D02*
X-154940D01*
Y-188969D01*
X-146685D01*
Y-180714D01*
D02*
G37*
G36*
Y-191509D02*
X-154940D01*
Y-199764D01*
X-146685D01*
Y-191509D01*
D02*
G37*
G36*
X-28750Y-202620D02*
X-33020D01*
Y-206390D01*
X-28750D01*
Y-202620D01*
D02*
G37*
G36*
X-191270Y-167476D02*
X-194419Y-167786D01*
X-198667Y-169075D01*
X-202583Y-171168D01*
X-206015Y-173985D01*
X-208832Y-177417D01*
X-210925Y-181333D01*
X-212214Y-185581D01*
X-212524Y-188730D01*
X-191270D01*
Y-167476D01*
D02*
G37*
G36*
X-66969Y-162420D02*
X-71397D01*
Y-168262D01*
X-70963Y-170442D01*
X-69728Y-172291D01*
X-67880Y-173526D01*
X-66969Y-173707D01*
Y-162420D01*
D02*
G37*
G36*
X191270Y-167476D02*
Y-188730D01*
X212524D01*
X212214Y-185581D01*
X210925Y-181333D01*
X208832Y-177417D01*
X206015Y-173985D01*
X202583Y-171168D01*
X198667Y-169075D01*
X194419Y-167786D01*
X191270Y-167476D01*
D02*
G37*
G36*
X188730D02*
X185581Y-167786D01*
X181333Y-169075D01*
X177417Y-171168D01*
X173985Y-173985D01*
X171168Y-177417D01*
X169075Y-181333D01*
X167786Y-185581D01*
X167476Y-188730D01*
X188730D01*
Y-167476D01*
D02*
G37*
G36*
X-254620Y-54120D02*
X-261890D01*
Y-64390D01*
X-254620D01*
Y-54120D01*
D02*
G37*
G36*
X57500Y198229D02*
X56134Y197957D01*
X54977Y197183D01*
X54203Y196026D01*
X53931Y194660D01*
X54166Y193481D01*
Y191654D01*
X54420Y190378D01*
X55069Y189406D01*
X54821Y188160D01*
X54497Y187943D01*
X53723Y186786D01*
X53451Y185420D01*
X53723Y184054D01*
X54497Y182897D01*
X55496Y182229D01*
X73713Y164013D01*
X74794Y163290D01*
X76070Y163036D01*
X78177D01*
Y153150D01*
X95257D01*
Y161079D01*
X96430Y161565D01*
X121602Y136392D01*
X121602D01*
X121602Y136392D01*
X121602Y136392D01*
Y136392D01*
X122684Y135670D01*
X123960Y135416D01*
X139471D01*
X140650Y135181D01*
X142016Y135453D01*
X143173Y136227D01*
X143947Y137384D01*
X144219Y138750D01*
X143947Y140116D01*
X143173Y141273D01*
X142016Y142047D01*
X140650Y142319D01*
X139471Y142084D01*
X125341D01*
X123568Y143856D01*
X123693Y145120D01*
X124078Y145377D01*
X124852Y146535D01*
X125123Y147901D01*
X124852Y149266D01*
X124078Y150424D01*
X123079Y151092D01*
X100903Y173267D01*
X99821Y173990D01*
X98546Y174244D01*
X79625D01*
X64212Y189657D01*
X64148Y189753D01*
X61353Y192547D01*
X61257Y192612D01*
X60834Y193035D01*
Y193481D01*
X61069Y194660D01*
X60797Y196026D01*
X60023Y197183D01*
X58866Y197957D01*
X57500Y198229D01*
D02*
G37*
G36*
X-206430Y114649D02*
X-210200D01*
Y110379D01*
X-206430D01*
Y114649D01*
D02*
G37*
G36*
X64770Y116069D02*
X63591Y115834D01*
X4960D01*
X3684Y115580D01*
X2603Y114858D01*
X-18400Y93855D01*
X-19123Y92773D01*
X-19376Y91497D01*
Y87956D01*
X-32218D01*
X-33493Y87703D01*
X-34575Y86980D01*
X-58614Y62941D01*
X-59058Y62277D01*
X-60273Y62645D01*
Y65333D01*
X-67043D01*
Y55793D01*
Y46253D01*
X-61757D01*
Y40800D01*
X-39803D01*
Y40800D01*
X-39803D01*
X-39803Y40800D01*
X-39753D01*
Y40800D01*
X-38493D01*
X-37859Y40027D01*
X-37587Y38661D01*
X-36813Y37503D01*
X-35656Y36730D01*
X-34290Y36458D01*
X-32924Y36730D01*
X-31767Y37503D01*
X-30993Y38661D01*
X-30721Y40027D01*
X-30530Y40260D01*
X-29327Y40260D01*
Y40260D01*
X-24557D01*
Y50800D01*
Y61340D01*
X-29327D01*
Y60800D01*
X-30956D01*
Y65640D01*
X-26930Y69666D01*
X-1719D01*
X-540Y69431D01*
X826Y69703D01*
X1983Y70477D01*
X2757Y71634D01*
X3029Y73000D01*
X2757Y74366D01*
X1983Y75523D01*
X826Y76297D01*
X-540Y76569D01*
X-1293Y76419D01*
X-2191Y77317D01*
X-2065Y77952D01*
X-2337Y79317D01*
X-3110Y80475D01*
X-4268Y81249D01*
X-5634Y81520D01*
X-6812Y81286D01*
X-12715D01*
X-13314Y82406D01*
X-12745Y83257D01*
X-12474Y84622D01*
X-12708Y85801D01*
Y90116D01*
X6341Y109166D01*
X63591D01*
X64770Y108931D01*
X66136Y109203D01*
X67293Y109977D01*
X68067Y111134D01*
X68339Y112500D01*
X68067Y113866D01*
X67293Y115023D01*
X66136Y115797D01*
X64770Y116069D01*
D02*
G37*
G36*
X85447Y150610D02*
X78177D01*
Y138340D01*
X85447D01*
Y150610D01*
D02*
G37*
G36*
X39653Y162987D02*
X37826Y162746D01*
X36123Y162041D01*
X34661Y160919D01*
X33539Y159457D01*
X32834Y157754D01*
X32593Y155927D01*
X32834Y154099D01*
X33539Y152396D01*
X34661Y150934D01*
X36123Y149812D01*
X37826Y149107D01*
X39653Y148866D01*
X41481Y149107D01*
X43184Y149812D01*
X44646Y150934D01*
X45768Y152396D01*
X46473Y154099D01*
X46714Y155927D01*
X46473Y157754D01*
X45768Y159457D01*
X44646Y160919D01*
X43184Y162041D01*
X41481Y162746D01*
X39653Y162987D01*
D02*
G37*
G36*
X-108444Y143269D02*
X-109810Y142997D01*
X-110967Y142223D01*
X-111635Y141224D01*
X-114255Y138604D01*
X-115519Y138728D01*
X-115777Y139113D01*
X-116934Y139887D01*
X-118300Y140158D01*
X-119666Y139887D01*
X-120823Y139113D01*
X-121491Y138114D01*
X-192507Y67097D01*
X-193230Y66016D01*
X-193484Y64740D01*
Y28041D01*
X-195834Y25691D01*
X-196833Y25023D01*
X-197607Y23866D01*
X-197879Y22500D01*
X-197607Y21134D01*
X-196833Y19977D01*
X-195676Y19203D01*
X-194310Y18931D01*
X-194047Y17609D01*
X-194069Y17500D01*
X-193797Y16134D01*
X-193023Y14977D01*
X-191866Y14203D01*
X-190500Y13931D01*
X-189134Y14203D01*
X-187977Y14977D01*
X-187309Y15976D01*
X-183253Y20032D01*
X-182530Y21114D01*
X-182276Y22390D01*
Y61153D01*
X-106920Y136509D01*
X-105921Y137177D01*
X-105147Y138334D01*
X-104875Y139700D01*
X-105147Y141066D01*
X-105921Y142223D01*
X-107078Y142997D01*
X-108444Y143269D01*
D02*
G37*
G36*
X95257Y150610D02*
X87987D01*
Y138340D01*
X95257D01*
Y150610D01*
D02*
G37*
G36*
X-206430Y107839D02*
X-210200D01*
Y103569D01*
X-206430D01*
Y107839D01*
D02*
G37*
G36*
X-243374Y90284D02*
X-248708D01*
Y83680D01*
X-243374D01*
Y90284D01*
D02*
G37*
G36*
X115650Y78630D02*
X103880D01*
Y73360D01*
X115650D01*
Y78630D01*
D02*
G37*
G36*
X101340D02*
X89570D01*
Y73360D01*
X101340D01*
Y78630D01*
D02*
G37*
G36*
X-235500Y90284D02*
X-240834D01*
Y83680D01*
X-235500D01*
Y90284D01*
D02*
G37*
G36*
Y99428D02*
X-240834D01*
Y92824D01*
X-235500D01*
Y99428D01*
D02*
G37*
G36*
X-243374D02*
X-248708D01*
Y92824D01*
X-243374D01*
Y99428D01*
D02*
G37*
G36*
X132340Y97070D02*
X116070D01*
Y85300D01*
X132340D01*
Y97070D01*
D02*
G37*
G36*
X-69640Y165423D02*
X-76910D01*
Y153153D01*
X-69640D01*
Y165423D01*
D02*
G37*
G36*
X176150Y233651D02*
X150070D01*
Y217381D01*
X176150D01*
Y233651D01*
D02*
G37*
G36*
X98090Y216961D02*
X92820D01*
Y205191D01*
X98090D01*
Y216961D01*
D02*
G37*
G36*
X191270Y212524D02*
Y191270D01*
X212524D01*
X212214Y194419D01*
X210925Y198667D01*
X208832Y202583D01*
X206015Y206015D01*
X202583Y208832D01*
X198667Y210925D01*
X194419Y212214D01*
X191270Y212524D01*
D02*
G37*
G36*
X86150Y233651D02*
X60070D01*
Y217381D01*
X86150D01*
Y233651D01*
D02*
G37*
G36*
X85670Y272588D02*
X81900D01*
Y268318D01*
X85670D01*
Y272588D01*
D02*
G37*
G36*
X91980D02*
X88210D01*
Y267048D01*
Y261508D01*
X91980D01*
Y262048D01*
X100440D01*
Y263714D01*
X102961D01*
X104140Y263480D01*
X105506Y263751D01*
X106663Y264525D01*
X107437Y265683D01*
X107709Y267048D01*
X107437Y268414D01*
X106663Y269572D01*
X105506Y270345D01*
X104140Y270617D01*
X102961Y270382D01*
X100440D01*
Y272048D01*
X91980D01*
Y272588D01*
D02*
G37*
G36*
X85670Y265778D02*
X81900D01*
Y261508D01*
X85670D01*
Y265778D01*
D02*
G37*
G36*
X188730Y212524D02*
X185581Y212214D01*
X181333Y210925D01*
X177417Y208832D01*
X173985Y206015D01*
X171168Y202583D01*
X169075Y198667D01*
X167786Y194419D01*
X167476Y191270D01*
X188730D01*
Y212524D01*
D02*
G37*
G36*
X-191270Y188730D02*
X-212524D01*
X-212214Y185581D01*
X-210925Y181333D01*
X-208832Y177417D01*
X-206015Y173985D01*
X-202583Y171168D01*
X-198667Y169075D01*
X-194419Y167786D01*
X-191270Y167476D01*
Y188730D01*
D02*
G37*
G36*
X-7500Y178829D02*
X-8866Y178557D01*
X-10023Y177783D01*
X-10691Y176784D01*
X-31770Y155705D01*
X-33080Y155878D01*
X-33176Y155910D01*
X-33414Y157717D01*
X-34119Y159420D01*
X-35241Y160882D01*
X-36703Y162004D01*
X-38406Y162710D01*
X-40233Y162950D01*
X-42061Y162710D01*
X-43763Y162004D01*
X-45226Y160882D01*
X-46348Y159420D01*
X-47053Y157717D01*
X-47294Y155890D01*
X-47053Y154063D01*
X-46348Y152360D01*
X-45226Y150898D01*
X-43763Y149775D01*
X-42061Y149070D01*
X-40254Y148832D01*
X-40221Y148736D01*
X-40049Y147426D01*
X-64065Y123410D01*
X-65329Y123535D01*
X-65747Y124160D01*
X-66292Y124525D01*
X-66417Y125789D01*
X-54792Y137413D01*
X-54792Y137413D01*
X-54792Y137413D01*
X-54070Y138495D01*
X-53816Y139770D01*
Y162449D01*
X-50789Y165475D01*
X-49790Y166143D01*
X-49016Y167301D01*
X-48745Y168667D01*
X-49016Y170032D01*
X-49790Y171190D01*
X-50948Y171964D01*
X-52313Y172235D01*
X-53679Y171964D01*
X-54837Y171190D01*
X-55505Y170191D01*
X-59507Y166187D01*
X-60018Y165423D01*
X-67100D01*
Y151883D01*
X-68370D01*
Y150613D01*
X-76910D01*
Y138343D01*
X-71961D01*
X-71362Y137223D01*
X-71771Y136611D01*
X-89720Y118662D01*
X-90984Y118786D01*
X-91457Y119494D01*
X-92441Y120152D01*
X-92566Y121416D01*
X-87376Y126605D01*
X-86377Y127273D01*
X-85603Y128431D01*
X-85331Y129797D01*
X-85603Y131162D01*
X-86377Y132320D01*
X-87534Y133094D01*
X-88900Y133365D01*
X-90266Y133094D01*
X-91423Y132320D01*
X-92091Y131320D01*
X-164264Y59147D01*
X-167953D01*
X-168439Y60321D01*
X-97536Y131223D01*
X-96537Y131891D01*
X-95763Y133049D01*
X-95491Y134415D01*
X-95763Y135780D01*
X-96537Y136938D01*
X-97694Y137711D01*
X-99060Y137983D01*
X-100426Y137711D01*
X-101583Y136938D01*
X-102251Y135939D01*
X-178888Y59302D01*
X-179610Y58221D01*
X-179864Y56945D01*
Y27490D01*
X-179610Y26214D01*
X-178888Y25133D01*
X-178888Y25133D01*
X-178888Y25133D01*
X-164481Y10726D01*
X-163813Y9727D01*
X-162656Y8953D01*
X-161290Y8681D01*
X-159924Y8953D01*
X-158767Y9727D01*
X-157993Y10884D01*
X-157721Y12250D01*
X-157993Y13616D01*
X-158767Y14773D01*
X-159766Y15441D01*
X-167202Y22877D01*
X-166833Y24092D01*
X-166461Y24166D01*
X-155260D01*
X-153984Y24420D01*
X-152902Y25143D01*
X-145658Y32387D01*
X-144443Y32018D01*
X-144267Y31134D01*
X-143493Y29977D01*
X-142336Y29203D01*
X-140970Y28931D01*
X-140707Y27609D01*
X-140729Y27500D01*
X-140707Y27391D01*
X-140970Y26069D01*
X-142336Y25797D01*
X-143493Y25023D01*
X-144267Y23866D01*
X-144539Y22500D01*
X-144267Y21134D01*
X-143493Y19977D01*
X-142336Y19203D01*
X-140970Y18931D01*
X-139791Y19166D01*
X-118731D01*
X-117455Y19420D01*
X-116374Y20143D01*
X-116374Y20143D01*
X-116374Y20143D01*
X-77527Y58989D01*
X-76353Y58503D01*
Y57063D01*
X-69583D01*
Y65478D01*
X-70009Y66507D01*
X-16116Y120400D01*
X-15117Y121068D01*
X-14343Y122226D01*
X-14071Y123591D01*
X-14343Y124957D01*
X-15117Y126115D01*
X-16274Y126888D01*
X-17640Y127160D01*
X-19006Y126888D01*
X-20163Y126115D01*
X-20831Y125115D01*
X-45484Y100462D01*
X-46748Y100587D01*
X-47007Y100974D01*
X-47558Y101342D01*
X-47683Y102606D01*
X-10976Y139313D01*
X-9977Y139981D01*
X-9203Y141139D01*
X-8931Y142504D01*
X-9203Y143870D01*
X-9977Y145028D01*
X-11134Y145801D01*
X-12500Y146073D01*
X-13866Y145801D01*
X-15023Y145028D01*
X-15691Y144028D01*
X-79776Y79944D01*
X-81039Y80068D01*
X-81297Y80453D01*
X-81682Y80711D01*
X-81806Y81974D01*
X-71302Y92478D01*
X-71302Y92478D01*
X-71302Y92478D01*
X-70580Y93560D01*
X-70326Y94836D01*
Y100421D01*
X-70091Y101600D01*
X-70363Y102966D01*
X-71137Y104123D01*
X-71974Y104683D01*
X-72098Y105947D01*
X-5976Y172069D01*
X-4977Y172737D01*
X-4203Y173894D01*
X-3931Y175260D01*
X-4203Y176626D01*
X-4977Y177783D01*
X-6134Y178557D01*
X-7500Y178829D01*
D02*
G37*
G36*
X165100Y157132D02*
X160830D01*
Y153362D01*
X165100D01*
Y157132D01*
D02*
G37*
G36*
X-167476Y188730D02*
X-188730D01*
Y167476D01*
X-185581Y167786D01*
X-181333Y169075D01*
X-177417Y171168D01*
X-173985Y173985D01*
X-171168Y177417D01*
X-169075Y181333D01*
X-167786Y185581D01*
X-167476Y188730D01*
D02*
G37*
G36*
X-188730Y212524D02*
Y191270D01*
X-167476D01*
X-167786Y194419D01*
X-169075Y198667D01*
X-171168Y202583D01*
X-173985Y206015D01*
X-177417Y208832D01*
X-181333Y210925D01*
X-185581Y212214D01*
X-188730Y212524D01*
D02*
G37*
G36*
X-191270D02*
X-194419Y212214D01*
X-198667Y210925D01*
X-202583Y208832D01*
X-206015Y206015D01*
X-208832Y202583D01*
X-210925Y198667D01*
X-212214Y194419D01*
X-212524Y191270D01*
X-191270D01*
Y212524D01*
D02*
G37*
G36*
X212524Y188730D02*
X191270D01*
Y167476D01*
X194419Y167786D01*
X198667Y169075D01*
X202583Y171168D01*
X206015Y173985D01*
X208832Y177417D01*
X210925Y181333D01*
X212214Y185581D01*
X212524Y188730D01*
D02*
G37*
G36*
X-47068Y851D02*
X-53672D01*
Y-4483D01*
X-47068D01*
Y851D01*
D02*
G37*
G36*
X-37924Y-7023D02*
X-44528D01*
Y-12357D01*
X-37924D01*
Y-7023D01*
D02*
G37*
G36*
X-47068D02*
X-53672D01*
Y-12357D01*
X-47068D01*
Y-7023D01*
D02*
G37*
G36*
X-37924Y851D02*
X-44528D01*
Y-4483D01*
X-37924D01*
Y851D01*
D02*
G37*
G36*
X224593Y20314D02*
X219823D01*
Y12044D01*
X224593D01*
Y20314D01*
D02*
G37*
G36*
X-34910Y16155D02*
X-43165D01*
Y7900D01*
X-34910D01*
Y16155D01*
D02*
G37*
G36*
X-45705D02*
X-53960D01*
Y7900D01*
X-45705D01*
Y16155D01*
D02*
G37*
G36*
X224593Y-8186D02*
X214323D01*
Y-23456D01*
X224593D01*
Y-8186D01*
D02*
G37*
G36*
X-47800Y-49963D02*
X-52070D01*
Y-53733D01*
X-47800D01*
Y-49963D01*
D02*
G37*
G36*
X-54610D02*
X-58880D01*
Y-53733D01*
X-54610D01*
Y-49963D01*
D02*
G37*
G36*
X-244810Y-54120D02*
X-252080D01*
Y-64390D01*
X-244810D01*
Y-54120D01*
D02*
G37*
G36*
X60620Y-39843D02*
X59709Y-40024D01*
X57861Y-41259D01*
X56626Y-43108D01*
X56192Y-45288D01*
Y-51130D01*
X60620D01*
Y-39843D01*
D02*
G37*
G36*
X-197187Y-24378D02*
X-209315D01*
Y-39046D01*
X-206585D01*
Y-45153D01*
X-214498Y-53066D01*
X-215221Y-54148D01*
X-215475Y-55423D01*
Y-77510D01*
X-215709Y-78689D01*
X-215438Y-80055D01*
X-214664Y-81213D01*
X-213506Y-81986D01*
X-212141Y-82258D01*
X-210775Y-81986D01*
X-209617Y-81213D01*
X-208844Y-80055D01*
X-208572Y-78689D01*
X-208807Y-77510D01*
Y-56804D01*
X-200893Y-48891D01*
X-200893Y-48891D01*
X-200893Y-48891D01*
X-200170Y-47809D01*
X-199917Y-46533D01*
Y-39046D01*
X-197187D01*
Y-24378D01*
D02*
G37*
G36*
X102790Y-42109D02*
X92790D01*
Y-51109D01*
Y-60110D01*
X94456D01*
Y-62402D01*
X91027D01*
Y-77070D01*
X103155D01*
Y-62402D01*
X101124D01*
Y-60110D01*
X102790D01*
Y-51109D01*
Y-50816D01*
X103772Y-50011D01*
X104614Y-50178D01*
X105980Y-49907D01*
X107137Y-49133D01*
X107911Y-47975D01*
X108183Y-46610D01*
X107911Y-45244D01*
X107137Y-44086D01*
X105980Y-43313D01*
X104614Y-43041D01*
X103772Y-43208D01*
X102790Y-42403D01*
Y-42109D01*
D02*
G37*
G36*
X63159Y-39843D02*
Y-51130D01*
X67587D01*
Y-45288D01*
X67153Y-43108D01*
X65918Y-41259D01*
X64070Y-40024D01*
X63159Y-39843D01*
D02*
G37*
G36*
X231903Y20314D02*
X227133D01*
Y12044D01*
X231903D01*
Y20314D01*
D02*
G37*
G36*
X76437Y54613D02*
X67167D01*
Y46343D01*
X76437D01*
Y54613D01*
D02*
G37*
G36*
X196420Y45500D02*
X183420D01*
Y43500D01*
X176420D01*
Y41834D01*
X171909D01*
X170730Y42069D01*
X169364Y41797D01*
X168207Y41023D01*
X167433Y39866D01*
X167161Y38500D01*
X167433Y37134D01*
X168207Y35977D01*
X169364Y35203D01*
X170730Y34931D01*
X171909Y35166D01*
X176420D01*
Y33500D01*
X183420D01*
Y31500D01*
X196420D01*
Y31571D01*
X197912Y31767D01*
X199493Y32422D01*
X200851Y33464D01*
X201893Y34822D01*
X202548Y36403D01*
X202771Y38100D01*
X202548Y39797D01*
X201893Y41378D01*
X200851Y42736D01*
X199493Y43778D01*
X197912Y44433D01*
X196420Y44629D01*
Y45500D01*
D02*
G37*
G36*
X68882Y39370D02*
X63168D01*
Y33020D01*
X68882D01*
Y39370D01*
D02*
G37*
G36*
X88247Y54613D02*
X78977D01*
Y46343D01*
X88247D01*
Y54613D01*
D02*
G37*
G36*
Y65423D02*
X78977D01*
Y57153D01*
X88247D01*
Y65423D01*
D02*
G37*
G36*
X76437D02*
X67167D01*
Y57153D01*
X76437D01*
Y65423D01*
D02*
G37*
G36*
X-69583Y54523D02*
X-76353D01*
Y47243D01*
X-76450Y47234D01*
D01*
X-77617Y47119D01*
X-77617Y47119D01*
X-77617D01*
Y47119D01*
D01*
X-77863Y48356D01*
X-78637Y49513D01*
X-79795Y50287D01*
X-81160Y50559D01*
X-82526Y50287D01*
X-83684Y49513D01*
X-84457Y48356D01*
X-84729Y46990D01*
X-84494Y45811D01*
Y13850D01*
X-84240Y12574D01*
X-83518Y11493D01*
X-66834Y-5191D01*
Y-11320D01*
X-68500D01*
Y-20320D01*
Y-29320D01*
X-58500D01*
Y-28154D01*
X-53132D01*
Y-30893D01*
X-38464D01*
Y-18764D01*
X-53132D01*
Y-21486D01*
X-58500D01*
Y-20320D01*
Y-11320D01*
X-60166D01*
Y-3810D01*
X-60420Y-2534D01*
X-61143Y-1452D01*
X-77826Y15231D01*
Y45811D01*
X-77617Y46861D01*
X-76424Y46744D01*
X-76401Y46741D01*
X-76353Y46253D01*
X-76256D01*
Y46253D01*
X-69583D01*
Y54523D01*
D02*
G37*
G36*
X60627Y39370D02*
X54913D01*
Y33020D01*
X60627D01*
Y39370D01*
D02*
G37*
G36*
X-34910Y26950D02*
X-43165D01*
Y18695D01*
X-34910D01*
Y26950D01*
D02*
G37*
G36*
X-45705D02*
X-53960D01*
Y18695D01*
X-45705D01*
Y26950D01*
D02*
G37*
G36*
X191770Y27069D02*
X190404Y26797D01*
X189247Y26023D01*
X188473Y24866D01*
X188201Y23500D01*
X188436Y22321D01*
Y14789D01*
X187263Y14302D01*
X186071Y15494D01*
X185403Y16493D01*
X184246Y17267D01*
X182880Y17539D01*
X181514Y17267D01*
X180357Y16493D01*
X179583Y15336D01*
X179311Y13970D01*
X179583Y12604D01*
X180357Y11447D01*
X181356Y10779D01*
X183896Y8239D01*
Y4130D01*
X184150Y2854D01*
X184872Y1772D01*
X192572Y-5927D01*
Y-43506D01*
X192825Y-44781D01*
X193548Y-45863D01*
X193548Y-45863D01*
X193548Y-45863D01*
X220717Y-73032D01*
Y-84185D01*
X220971Y-85461D01*
X221694Y-86543D01*
X221694Y-86543D01*
X221694Y-86543D01*
X223938Y-88787D01*
X225020Y-89510D01*
X226296Y-89764D01*
X227890D01*
Y-92230D01*
X247090D01*
Y-92230D01*
X247298D01*
X248196Y-93128D01*
Y-118730D01*
X247090D01*
Y-118730D01*
X227890D01*
D01*
Y-118730D01*
X227199Y-117061D01*
Y-101485D01*
X226945Y-100209D01*
X226222Y-99128D01*
X216845Y-89751D01*
Y-76351D01*
X216592Y-75075D01*
X215869Y-73994D01*
X188700Y-46825D01*
Y-8911D01*
X188446Y-7635D01*
X187723Y-6554D01*
X180024Y1145D01*
Y3470D01*
X179770Y4746D01*
X179048Y5828D01*
X165101Y19774D01*
X164433Y20773D01*
X163276Y21547D01*
X161910Y21819D01*
X160544Y21547D01*
X159387Y20773D01*
X158613Y19616D01*
X158341Y18250D01*
X158613Y16884D01*
X159281Y15884D01*
X158683Y14764D01*
X156119D01*
X154940Y14999D01*
X153574Y14727D01*
X152417Y13953D01*
X152365Y13877D01*
X151150Y14245D01*
Y21380D01*
X134880D01*
Y8340D01*
Y-4700D01*
X151150D01*
Y8615D01*
X152365Y8983D01*
X152417Y8907D01*
X153574Y8133D01*
X154940Y7861D01*
X156119Y8096D01*
X159909D01*
X168816Y-811D01*
Y-2116D01*
X169070Y-3392D01*
X169792Y-4474D01*
X177492Y-12173D01*
Y-50086D01*
X177745Y-51362D01*
X178468Y-52444D01*
X205637Y-79613D01*
Y-93012D01*
X205891Y-94288D01*
X206614Y-95370D01*
X215991Y-104747D01*
Y-142414D01*
X216245Y-143689D01*
X216967Y-144771D01*
X224484Y-152288D01*
X225565Y-153010D01*
X226841Y-153264D01*
X227890D01*
Y-155730D01*
X247090D01*
Y-144130D01*
D01*
Y-144130D01*
X247090Y-144130D01*
Y-143030D01*
X247090D01*
Y-140564D01*
X248660D01*
X249936Y-140310D01*
X251017Y-139587D01*
X253888Y-136718D01*
X254610Y-135636D01*
X254864Y-134360D01*
Y-112082D01*
X261334D01*
Y-97922D01*
X254864D01*
Y-73730D01*
Y-58680D01*
X254610Y-57404D01*
X253888Y-56322D01*
X247278Y-49713D01*
X246196Y-48990D01*
X244920Y-48736D01*
X220616D01*
X208320Y-36439D01*
Y-785D01*
X208066Y491D01*
X207343Y1573D01*
X200184Y8732D01*
Y14578D01*
X200419Y15757D01*
X200147Y17123D01*
X199373Y18280D01*
X198216Y19054D01*
X196850Y19326D01*
X196086Y19174D01*
X195104Y19979D01*
Y22321D01*
X195339Y23500D01*
X195067Y24866D01*
X194293Y26023D01*
X193136Y26797D01*
X191770Y27069D01*
D02*
G37*
G36*
X212090Y37671D02*
X210393Y37448D01*
X208812Y36793D01*
X207454Y35751D01*
X206412Y34393D01*
X205757Y32812D01*
X205727Y32584D01*
X203363D01*
Y10584D01*
X214323D01*
Y9624D01*
X214323D01*
Y-5646D01*
X224593D01*
Y9624D01*
X218363D01*
Y10584D01*
X218363D01*
Y29275D01*
X218423Y29418D01*
X218556Y30432D01*
X218601Y30429D01*
Y30429D01*
X219773Y30352D01*
D01*
X219823Y30349D01*
Y22854D01*
X224593D01*
Y31124D01*
X219874D01*
Y31124D01*
X219823D01*
D01*
D01*
X219823D01*
Y31124D01*
X219814Y31115D01*
X218646D01*
X218423Y32812D01*
X217768Y34393D01*
X216726Y35751D01*
X215368Y36793D01*
X213787Y37448D01*
X212090Y37671D01*
D02*
G37*
G36*
X68882Y30480D02*
X63168D01*
Y24130D01*
X68882D01*
Y30480D01*
D02*
G37*
G36*
X60627D02*
X54913D01*
Y24130D01*
X60627D01*
Y30480D01*
D02*
G37*
G36*
X231903Y31124D02*
X227133D01*
Y22854D01*
X231903D01*
Y31124D01*
D02*
G37*
%LPD*%
D10*
X-40640Y-75510D02*
D03*
Y-84510D02*
D03*
X-79391Y-75510D02*
D03*
Y-84510D02*
D03*
X-66040Y-75510D02*
D03*
Y-84510D02*
D03*
X166370Y143092D02*
D03*
Y152092D02*
D03*
X-10160Y-133930D02*
D03*
Y-142930D02*
D03*
X-34290Y-201350D02*
D03*
Y-192350D02*
D03*
X-27940Y-75510D02*
D03*
Y-84510D02*
D03*
X-212141Y13390D02*
D03*
Y4390D02*
D03*
X-224790Y13390D02*
D03*
Y4390D02*
D03*
X-53340Y-55003D02*
D03*
Y-64003D02*
D03*
Y-75510D02*
D03*
Y-84510D02*
D03*
X77470Y7040D02*
D03*
Y-1960D02*
D03*
X97790Y-55609D02*
D03*
Y-46610D02*
D03*
X-63500Y-24820D02*
D03*
Y-15820D02*
D03*
D11*
X23550Y-72390D02*
D03*
X14550D02*
D03*
X47680D02*
D03*
X38680D02*
D03*
X86940Y267048D02*
D03*
X95940D02*
D03*
X-223011Y128270D02*
D03*
X-232010D02*
D03*
X-196160Y109109D02*
D03*
X-205160D02*
D03*
X180920Y38500D02*
D03*
X189920D02*
D03*
D24*
X270891Y-105002D02*
D03*
X254889D02*
D03*
X61898Y31750D02*
D03*
X77899D02*
D03*
D25*
X-206690Y-95550D02*
X-193300D01*
X-214650Y-103510D02*
X-206690Y-95550D01*
X-228851Y-103510D02*
X-214650D01*
X-234950Y-109609D02*
X-228851Y-103510D01*
X-225404Y-108050D02*
X-193300D01*
X-239274Y-121920D02*
X-225404Y-108050D01*
X-251591Y-121920D02*
X-239274D01*
X-236220Y-7703D02*
Y38651D01*
X-239720Y-11203D02*
X-236220Y-7703D01*
X-269240Y71671D02*
X-236220Y38651D01*
X-231680Y-9909D02*
Y40532D01*
X-234950Y-13179D02*
X-231680Y-9909D01*
X-251642Y60493D02*
X-231680Y40532D01*
X-224790Y13390D02*
Y40719D01*
X-233584Y49513D02*
X-224790Y40719D01*
X-239720Y-28764D02*
X-227950Y-40534D01*
X-239720Y-28764D02*
Y-11203D01*
X-212141Y13390D02*
X-207810D01*
X-251642Y60493D02*
Y68618D01*
X-269240Y71671D02*
Y102728D01*
X4960Y112500D02*
X64770D01*
X-16042Y91497D02*
X4960Y112500D01*
X-122504Y32500D02*
X-12500Y142504D01*
X-140970Y32500D02*
X-122504D01*
X-236618Y135350D02*
X-179441D01*
X12500Y218525D02*
Y223720D01*
X256Y206280D02*
X12500Y218525D01*
X-74774Y206280D02*
X256D01*
X-16042Y84622D02*
Y91497D01*
X20508Y50612D02*
X20697Y50800D01*
X20508Y40027D02*
Y50612D01*
X9737Y50800D02*
Y61955D01*
Y40027D02*
Y50800D01*
X-133350Y107579D02*
X-124460Y116469D01*
X-181070Y59859D02*
X-133350Y107579D01*
X-165079Y60583D02*
X-87679Y137983D01*
X-171521Y32500D02*
X-157407D01*
X-68270Y121637D01*
X-57150Y139770D02*
Y163830D01*
X-159420Y37500D02*
X-57150Y139770D01*
X-162883Y55813D02*
X-88900Y129797D01*
X-168207Y55813D02*
X-162883D01*
X-171521Y52500D02*
X-168207Y55813D01*
X-181070Y9620D02*
Y59859D01*
X-185610Y62534D02*
X-108444Y139700D01*
X-185610Y22390D02*
Y62534D01*
X-190150Y26660D02*
Y64740D01*
X-118300Y136590D01*
X-76655Y210820D02*
X-3450D01*
X-154670Y132805D02*
X-76655Y210820D01*
X-166463Y132805D02*
X-154670D01*
X-158554Y122500D02*
X-74774Y206280D01*
X-166463Y122500D02*
X-158554D01*
X-167640Y37500D02*
X-159420D01*
X-73660Y94836D02*
Y101600D01*
X-88590Y79906D02*
X-73660Y94836D01*
X-88590Y79894D02*
Y79906D01*
X-125984Y42500D02*
X-88590Y79894D01*
X-133270Y42500D02*
X-125984D01*
X-118731Y22500D02*
X-17640Y123591D01*
X-168489Y117500D02*
X-161579D01*
X-181799Y130810D02*
X-168489Y117500D01*
X-213317Y130810D02*
X-181799D01*
X-171591Y127500D02*
X-161579D01*
X-179441Y135350D02*
X-171591Y127500D01*
X237236Y50920D02*
X253576Y67260D01*
X215376Y50920D02*
X237236D01*
X212796Y53500D02*
X215376Y50920D01*
X170330Y53500D02*
X212796D01*
X235355Y55460D02*
X249036Y69141D01*
X166370Y58420D02*
X214297D01*
X217257Y55460D02*
X235355D01*
X214297Y58420D02*
X217257Y55460D01*
X244496Y71705D02*
Y107365D01*
X232791Y60000D02*
X244496Y71705D01*
X215637Y63500D02*
X219137Y60000D01*
X232791D01*
X170330Y63500D02*
X215637D01*
X61790Y187364D02*
X78244Y170910D01*
X61790Y187364D02*
Y187396D01*
X58996Y190190D02*
X61790Y187396D01*
X58964Y190190D02*
X58996D01*
X57500Y191654D02*
X58964Y190190D01*
X78244Y170910D02*
X98546D01*
X57500Y191654D02*
Y194660D01*
X96340Y166370D02*
X123960Y138750D01*
X76070Y166370D02*
X96340D01*
X123960Y138750D02*
X140650D01*
X98546Y170910D02*
X121555Y147901D01*
X161383Y171790D02*
X179111Y154063D01*
X154010Y171790D02*
X161383D01*
X153670Y171450D02*
X154010Y171790D01*
X168743Y135087D02*
X170330Y133500D01*
X158836Y135087D02*
X168743D01*
X109978Y130447D02*
X154197D01*
X158836Y135087D01*
X82550Y107431D02*
X105797Y130677D01*
X82550Y95250D02*
Y107431D01*
X109748Y130677D02*
X109978Y130447D01*
X105797Y130677D02*
X109748D01*
X160065Y108500D02*
X166370D01*
X151880Y100315D02*
X160065Y108500D01*
X151880Y85911D02*
Y100315D01*
X156854Y115245D02*
X158600Y113500D01*
X112654Y115245D02*
X156854D01*
X96425Y99016D02*
X112654Y115245D01*
X-34290Y67021D02*
X-28310Y73000D01*
X-540D01*
X-190500Y17500D02*
X-185610Y22390D01*
X-194310Y22500D02*
X-190150Y26660D01*
X-176530Y27490D02*
X-161290Y12250D01*
X-3450Y210820D02*
X6326Y220595D01*
X-181070Y9620D02*
X-177800Y6350D01*
X-222960Y-47860D02*
X-218840D01*
X-227950Y-52850D02*
X-222960Y-47860D01*
X-227950Y-52850D02*
Y-40534D01*
X237490Y-73730D02*
X251530D01*
X237490Y-137230D02*
X248660D01*
X251530Y-134360D01*
Y-73730D01*
X228463Y-124530D02*
X237490D01*
X226841Y-149930D02*
X237490D01*
X154940Y11430D02*
X161290D01*
X200446Y-40426D02*
X220009Y-59989D01*
X236432D02*
X237490Y-61047D01*
X220009Y-59989D02*
X236432D01*
X224051Y-84185D02*
X226296Y-86430D01*
X237490D01*
X180826Y-50086D02*
X208971Y-78232D01*
Y-93012D02*
Y-78232D01*
X185366Y-48206D02*
X213511Y-76351D01*
Y-91132D02*
Y-76351D01*
X195906Y-43506D02*
X224051Y-71651D01*
Y-84185D02*
Y-71651D01*
X204986Y-37820D02*
X219235Y-52070D01*
X244920D01*
X251530Y-58680D01*
Y-73730D02*
Y-58680D01*
X148590Y-137090D02*
X177870D01*
X208971Y-105989D01*
X148590Y-73590D02*
X161201D01*
X187071Y-99459D01*
X203529D01*
X124360Y203921D02*
Y218225D01*
X239956Y73586D02*
Y105484D01*
X249036Y69141D02*
Y109245D01*
X253576Y67260D02*
Y111126D01*
X159060Y128890D02*
X166370D01*
X160020Y118500D02*
X166370D01*
X107773Y125907D02*
X156077D01*
X159060Y128890D01*
X113030Y120650D02*
X157870D01*
X160020Y118500D01*
X209534Y21846D02*
X209790Y21590D01*
X96425Y89872D02*
Y99016D01*
X158600Y113500D02*
X170330D01*
X102610Y47090D02*
X119480D01*
X102610Y59590D02*
X125560D01*
X119480Y47090D02*
X156420Y84030D01*
X125560Y59590D02*
X151880Y85911D01*
X170330Y83500D02*
X215900D01*
X189230Y38100D02*
X196160D01*
X170730Y38500D02*
X180920D01*
X-137160Y27500D02*
X-120480D01*
X-167640D02*
X-155260D01*
X-7500Y175260D01*
X-140970Y22500D02*
X-118731D01*
X-171521Y42500D02*
X-161167D01*
X-68580Y135087D01*
X-167640Y47500D02*
X-163451D01*
X-93980Y116971D01*
X-120480Y27500D02*
X-49530Y98450D01*
X-137160Y37500D02*
X-124250D01*
X-83820Y77930D01*
X-176530Y27490D02*
Y56945D01*
X-99060Y134415D01*
X-57150Y163830D02*
X-52313Y168667D01*
X-12641Y51121D02*
X-12320Y50800D01*
X-65700Y-105270D02*
Y-84851D01*
X-79391Y-84510D02*
X-66040D01*
X-53000Y-105270D02*
Y-84851D01*
X-40300Y-105270D02*
Y-84851D01*
X-27599Y-105270D02*
Y-84851D01*
X-53340Y-75510D02*
Y-64003D01*
X-23550Y-142930D02*
X-10160D01*
X-27599Y-146980D02*
X-23550Y-142930D01*
X-27599Y-161150D02*
Y-146980D01*
X-53000Y-161150D02*
Y-144439D01*
X-42490Y-133930D01*
X-10160D01*
X-224790Y4390D02*
X-212141D01*
Y-8128D02*
Y4390D01*
X-212789Y-8776D02*
X-212141Y-8128D01*
X-223011Y128270D02*
X-215857D01*
X-213317Y130810D01*
X-259589Y87499D02*
Y91554D01*
X-63500Y-24820D02*
X-45806D01*
X-63500Y-15820D02*
Y-3810D01*
X36490Y-52400D02*
Y-22601D01*
X49530Y-52059D02*
Y-22601D01*
X49190Y-52400D02*
X49530Y-52059D01*
X82363Y-88067D02*
Y-59503D01*
Y-88067D02*
X86968Y-92672D01*
X106629D01*
X97790Y-69037D02*
Y-55609D01*
X93980Y-17200D02*
X110490D01*
X93980D02*
Y32330D01*
X96240Y34590D01*
X77851D02*
X96240D01*
X102610D01*
X125730Y-17200D02*
X133350D01*
X97790Y-46610D02*
X104614D01*
X23550Y-72390D02*
Y-52639D01*
X14550Y-72390D02*
Y-33010D01*
X-3134Y-15326D02*
X14550Y-33010D01*
X-22861Y-15291D02*
X-22826Y-15326D01*
X-3134D01*
X14550Y-79262D02*
Y-72390D01*
X139700Y-199030D02*
Y-185420D01*
X139600Y-199130D02*
X139700Y-199030D01*
X36830Y-96160D02*
X36930Y-96260D01*
X36830Y-96160D02*
Y-80010D01*
X49430Y-80110D02*
X49530Y-80010D01*
X49430Y-96260D02*
Y-80110D01*
X36830Y-80010D02*
X38680Y-78160D01*
Y-72390D01*
X47680Y-78160D02*
X49530Y-80010D01*
X47680Y-78160D02*
Y-72390D01*
X81280Y-38919D02*
Y-27940D01*
X78740Y-25400D02*
X81280Y-27940D01*
X78740Y-25400D02*
Y-17200D01*
X-212141Y-127000D02*
X-206091Y-133050D01*
X-193300D01*
X160960Y92530D02*
X167640Y99210D01*
X160960Y70790D02*
Y92530D01*
X156420Y98010D02*
X161910Y103500D01*
X156420Y84030D02*
Y98010D01*
X77470Y-15930D02*
Y-1960D01*
X65450Y7040D02*
X77470D01*
Y12700D01*
X17500Y-3810D02*
X23790D01*
Y3480D01*
X-12641Y51121D02*
Y62230D01*
Y62500D01*
X14859Y75279D02*
X20156D01*
X31750Y63685D01*
Y53340D02*
Y63685D01*
X-56257Y50800D02*
Y60583D01*
X-32218Y84622D01*
X-16042D01*
X36490Y3480D02*
X49190D01*
X9737Y31115D02*
X20697D01*
X36490Y15322D01*
Y3480D02*
Y15322D01*
X166370Y78500D02*
X211738D01*
X213562Y76676D01*
X221232D01*
X95940Y267048D02*
X104140D01*
X-45501Y50998D02*
Y62230D01*
X-34290Y40027D02*
Y67021D01*
X212090Y23890D02*
Y31115D01*
X209790Y21590D02*
X212090Y23890D01*
X237686Y107594D02*
X237846D01*
X161910Y123500D02*
X168524D01*
X237846Y107594D02*
X239956Y105484D01*
X203978Y141302D02*
X237686Y107594D01*
X168524Y123500D02*
X180355Y135331D01*
X184727D01*
X190697Y141302D01*
X203978D01*
X208190Y143510D02*
X208351D01*
X205859Y145842D02*
X208190Y143510D01*
X189812Y145842D02*
X205859D01*
X208351Y143510D02*
X244496Y107365D01*
X191693Y150382D02*
X207899D01*
X249036Y109245D01*
X185522Y163396D02*
X193996Y154922D01*
X209780D01*
X253576Y111126D01*
X111860Y-2540D02*
Y19050D01*
X116700Y23890D01*
X141926Y51756D02*
X160960Y70790D01*
X116700Y23890D02*
X122120D01*
X141926Y43696D01*
Y51756D01*
X219325Y-142414D02*
X226841Y-149930D01*
X219325Y-142414D02*
Y-103366D01*
X208971Y-93012D02*
X219325Y-103366D01*
X223865Y-119932D02*
X228463Y-124530D01*
X223865Y-119932D02*
Y-101485D01*
X213511Y-91132D02*
X223865Y-101485D01*
X-212141Y-78689D02*
Y-55423D01*
X-203251Y-46533D01*
Y-31712D01*
X-100070Y-75510D02*
X-79391D01*
X-81160Y13850D02*
Y46990D01*
Y13850D02*
X-63500Y-3810D01*
X-29779Y77952D02*
X-5634D01*
X-45501Y62230D02*
X-29779Y77952D01*
X162334Y177260D02*
X180844Y158750D01*
X183324D01*
X191693Y150382D01*
X179111Y154063D02*
X181591D01*
X189812Y145842D01*
X57020Y185420D02*
X76070Y166370D01*
X111860Y203921D02*
Y218225D01*
X227806Y64770D02*
X231140D01*
X239956Y73586D01*
X20320Y56257D02*
Y62230D01*
Y56257D02*
X20697Y55880D01*
X-128371Y47500D02*
X-78740Y97132D01*
X-261179Y91554D02*
Y109874D01*
X-242784Y128270D01*
X-232010D01*
X-269240Y102728D02*
X-265719Y106249D01*
Y111755D01*
X-244664Y132810D01*
X-239158D01*
X-236618Y135350D01*
X196850Y7351D02*
Y15757D01*
Y7351D02*
X204986Y-785D01*
Y-37820D02*
Y-785D01*
X187230Y4130D02*
X195906Y-4546D01*
X185366Y-48206D02*
Y-8911D01*
X172150Y-2116D02*
X180826Y-10792D01*
Y-50086D02*
Y-10792D01*
X200446Y-40426D02*
Y-2665D01*
X195906Y-43506D02*
Y-4546D01*
X191770Y6011D02*
X200446Y-2665D01*
X191770Y6011D02*
Y23500D01*
X187230Y4130D02*
Y9620D01*
X182880Y13970D02*
X187230Y9620D01*
X161910Y18250D02*
X176690Y3470D01*
Y-236D02*
Y3470D01*
Y-236D02*
X185366Y-8911D01*
X172150Y-2116D02*
Y570D01*
X161290Y11430D02*
X172150Y570D01*
D26*
X-100760Y-212090D02*
Y-38919D01*
X-123825Y-215900D02*
X-104570D01*
X-123825Y-190239D02*
X-101021D01*
D27*
X-193713Y-8776D02*
Y480D01*
X-206580Y13347D02*
X-193713Y480D01*
X-206580Y13347D02*
Y68521D01*
X-163570Y-38919D02*
X-100760D01*
X-193713Y-8776D02*
X-163570Y-38919D01*
X-195580Y79521D02*
Y118770D01*
X-206580Y68521D02*
X-195580Y79521D01*
X24768Y235582D02*
X36830Y223520D01*
X-104650Y235582D02*
X24768D01*
X-117784Y222448D02*
X-104650Y235582D01*
X36830Y207450D02*
Y223520D01*
X27500Y198120D02*
X36830Y207450D01*
X27500Y191060D02*
Y198120D01*
X136860Y162860D02*
X156591Y143129D01*
X136312Y185420D02*
X136860Y185968D01*
Y162860D02*
Y185968D01*
Y203921D01*
X119380Y185420D02*
X136312D01*
X-1280Y17435D02*
Y50800D01*
X-22505Y17425D02*
X-1270D01*
Y-7056D02*
Y2000D01*
X58660Y-13970D02*
X61890Y-17200D01*
X23790Y-52400D02*
Y-14310D01*
X-1270Y-7056D02*
X5644Y-13970D01*
X58660D01*
X61890Y-17200D02*
X78740D01*
X156591Y143129D02*
X182880D01*
X36830Y207450D02*
X68140D01*
X90170Y185420D01*
X119380D01*
D28*
X190636Y-46023D02*
X218781Y-74169D01*
Y-88949D02*
Y-74169D01*
X162160Y25453D02*
Y38500D01*
X229870Y-102870D02*
Y-100037D01*
X218781Y-88949D02*
X229870Y-100037D01*
X190636Y-46023D02*
Y-6729D01*
X181960Y1947D02*
Y5653D01*
Y1947D02*
X190636Y-6729D01*
D29*
X101500Y-199130D02*
Y-177179D01*
X139840Y-86290D02*
X148590D01*
X139770Y-60890D02*
X148590D01*
X126681Y-198911D02*
Y-184150D01*
Y-198911D02*
X126900Y-199130D01*
X106629Y-100724D02*
Y-92672D01*
X-12700Y-206250D02*
X-1270D01*
X-40640Y-75510D02*
Y-69850D01*
Y-160809D02*
Y-147320D01*
X-34290Y-192350D02*
Y-180340D01*
X76300Y-199130D02*
Y-183319D01*
X89000Y-199130D02*
Y-180240D01*
X114200Y-199130D02*
Y-175360D01*
X139770Y-149790D01*
X148590D01*
X137230Y-124390D02*
X148590D01*
X101500Y-177179D02*
X130810Y-147869D01*
Y-130810D01*
X137230Y-124390D01*
X89000Y-180240D02*
X124460Y-144780D01*
Y-101670D01*
X139840Y-86290D01*
X243722Y130810D02*
X260028Y114504D01*
X242570Y-28352D02*
Y18810D01*
X240330Y21050D02*
X242570Y18810D01*
X240863Y21584D02*
X242570Y23291D01*
Y45565D01*
X260028Y63023D01*
Y114504D01*
X133600Y-83251D02*
Y-67060D01*
X139770Y-60890D01*
X76300Y-183319D02*
X118110Y-141509D01*
Y-98741D01*
X133600Y-83251D01*
D30*
X-229830Y-140970D02*
X-227950Y-142850D01*
X-66040Y-84510D02*
X-65700Y-84851D01*
X-218440Y-142850D02*
X-218360Y-142930D01*
X-227950Y-142850D02*
X-218440D01*
D31*
X-190000Y-190000D02*
D03*
X190000D02*
D03*
Y190000D02*
D03*
X-190000D02*
D03*
D32*
X269240Y-63617D02*
D03*
Y-76223D02*
D03*
D33*
X39653Y155927D02*
D03*
X-40233Y155890D02*
D03*
D34*
X-171450Y-114151D02*
D03*
X-228346Y-95250D02*
D03*
X-222250Y-120554D02*
D03*
X-243364Y0D02*
D03*
X-243698Y31750D02*
D03*
X-233584Y49513D02*
D03*
X-234950Y-13179D02*
D03*
X-116840Y-158750D02*
D03*
Y-120821D02*
D03*
Y-70137D02*
D03*
X31898Y106680D02*
D03*
X32397Y76182D02*
D03*
X20508Y40027D02*
D03*
X9737Y61955D02*
D03*
Y40027D02*
D03*
X-109220Y116442D02*
D03*
X-125730Y99932D02*
D03*
X-88900Y129797D02*
D03*
X-108444Y139700D02*
D03*
X-118300Y136590D02*
D03*
X-68580Y135087D02*
D03*
X167337Y25453D02*
D03*
X107060Y145842D02*
D03*
X121555Y147901D02*
D03*
X153670Y171450D02*
D03*
X-27940Y-124477D02*
D03*
X-14007Y-158750D02*
D03*
X-280670Y53340D02*
D03*
X-194310Y22500D02*
D03*
X-190500Y17500D02*
D03*
X-140970Y22500D02*
D03*
X-171521Y52500D02*
D03*
X-167640Y37500D02*
D03*
X-137160D02*
D03*
X-140970Y32500D02*
D03*
X-137160Y27500D02*
D03*
X-171521Y32500D02*
D03*
X-167640Y27500D02*
D03*
Y47500D02*
D03*
X-171521Y42500D02*
D03*
X-128445Y47500D02*
D03*
X-133270Y42500D02*
D03*
X-161290Y12250D02*
D03*
X-99060Y134415D02*
D03*
X-177800Y6350D02*
D03*
X-124460Y116469D02*
D03*
X-166463Y122500D02*
D03*
X12500Y223720D02*
D03*
X6326Y220595D02*
D03*
X-161579Y117500D02*
D03*
X170330Y113500D02*
D03*
Y133500D02*
D03*
X182880Y143129D02*
D03*
X57500Y194660D02*
D03*
X166370Y128890D02*
D03*
Y118500D02*
D03*
X27500Y198120D02*
D03*
X-208262Y80010D02*
D03*
X116101Y-60760D02*
D03*
X127017Y38100D02*
D03*
X-166463Y132805D02*
D03*
X-117784Y222448D02*
D03*
X-87630Y222610D02*
D03*
X-77470D02*
D03*
X-27506D02*
D03*
X-143510Y236827D02*
D03*
Y205740D02*
D03*
X6700Y190500D02*
D03*
X90170Y207173D02*
D03*
X75503Y254000D02*
D03*
X210820Y40000D02*
D03*
X60960Y-127000D02*
D03*
X-82402Y-139990D02*
D03*
X-6820Y-63500D02*
D03*
X-88596Y260350D02*
D03*
X69953Y133350D02*
D03*
X6326Y146050D02*
D03*
X-21590Y97917D02*
D03*
X10916Y106680D02*
D03*
X139990Y59590D02*
D03*
X86360Y19050D02*
D03*
X-82402Y-101600D02*
D03*
X-82550Y-120650D02*
D03*
X-139700Y-57150D02*
D03*
X-162334Y-139700D02*
D03*
X-273050Y-57150D02*
D03*
Y-95250D02*
D03*
X-241300Y-158809D02*
D03*
X-254000Y-82550D02*
D03*
X-146437Y-247650D02*
D03*
X-179504Y-38100D02*
D03*
X-184150Y-222250D02*
D03*
X120200Y-260350D02*
D03*
X146050Y-247590D02*
D03*
X133600Y-228600D02*
D03*
X-82766Y-158750D02*
D03*
X-56858Y-133350D02*
D03*
X-139700Y-145796D02*
D03*
X156210Y-198120D02*
D03*
X-133350Y6350D02*
D03*
X-108180D02*
D03*
X-88900D02*
D03*
X72390Y80010D02*
D03*
X12653Y127000D02*
D03*
X-141282Y153670D02*
D03*
X-158750Y184264D02*
D03*
X-108770Y189720D02*
D03*
X57150Y127160D02*
D03*
X166370Y71120D02*
D03*
X273050Y95250D02*
D03*
X250433Y147219D02*
D03*
X165011Y209534D02*
D03*
X76070Y279400D02*
D03*
X63500Y-228600D02*
D03*
X89000Y-273050D02*
D03*
X-69850Y-279400D02*
D03*
X108770Y167640D02*
D03*
X99060Y226935D02*
D03*
X-140133Y-101600D02*
D03*
X-162334Y-89010D02*
D03*
X-222250Y-24130D02*
D03*
X-145831Y0D02*
D03*
X-222250Y178340D02*
D03*
X-196777Y43720D02*
D03*
X-251591Y81280D02*
D03*
X-66834Y-57150D02*
D03*
X-248718Y146465D02*
D03*
X73133Y185968D02*
D03*
X-25649Y-50800D02*
D03*
X55735Y19050D02*
D03*
X-166370Y95266D02*
D03*
X-136604Y127761D02*
D03*
X-3810Y118500D02*
D03*
X-52500Y222200D02*
D03*
X-102870Y221222D02*
D03*
X260350Y127559D02*
D03*
X279661Y76182D02*
D03*
X44646Y171450D02*
D03*
X35560Y-193040D02*
D03*
X27500Y191060D02*
D03*
X-107950Y-266700D02*
D03*
X219235Y186067D02*
D03*
X-161579Y127500D02*
D03*
X15240Y-193550D02*
D03*
X127000Y234950D02*
D03*
X182880Y13970D02*
D03*
X191770Y23500D02*
D03*
X161910Y18250D02*
D03*
X154940Y11430D02*
D03*
X96425Y89872D02*
D03*
X-73660Y101600D02*
D03*
X-78740Y97132D02*
D03*
X-83820Y77930D02*
D03*
X-1270Y-206250D02*
D03*
X-251591Y-121920D02*
D03*
X-234950Y-109609D02*
D03*
X-218840Y-47860D02*
D03*
X-212141Y-78689D02*
D03*
X-206230Y57500D02*
D03*
X-195580Y118770D02*
D03*
X203529Y-99459D02*
D03*
X126681Y-184150D02*
D03*
X106629Y-100724D02*
D03*
X162160Y38500D02*
D03*
X235305Y-105989D02*
D03*
X196850Y15757D02*
D03*
X208971Y-105989D02*
D03*
X170330Y53500D02*
D03*
X166370Y58420D02*
D03*
X162334Y177260D02*
D03*
X124360Y218225D02*
D03*
X111860D02*
D03*
X227806Y64770D02*
D03*
X170330Y83500D02*
D03*
X215900D02*
D03*
X166370Y78500D02*
D03*
X221232Y76676D02*
D03*
X170330Y63500D02*
D03*
X161910Y123500D02*
D03*
X185522Y163396D02*
D03*
X113030Y120650D02*
D03*
X107773Y125907D02*
D03*
X212090Y31115D02*
D03*
X133350Y-17200D02*
D03*
X57020Y185420D02*
D03*
X140650Y138750D02*
D03*
X82550Y95250D02*
D03*
X166370Y108500D02*
D03*
X161910Y103500D02*
D03*
X111860Y-2540D02*
D03*
X119380Y185420D02*
D03*
X196215Y38100D02*
D03*
X170730Y38500D02*
D03*
X-7500Y175260D02*
D03*
X-12500Y142504D02*
D03*
X-49530Y98450D02*
D03*
X-17640Y123591D02*
D03*
X-52313Y168667D02*
D03*
X-68270Y121637D02*
D03*
X-93980Y116971D02*
D03*
X-45501Y62230D02*
D03*
X-34290Y40027D02*
D03*
X20320Y62230D02*
D03*
X-12641D02*
D03*
X-81160Y46990D02*
D03*
X-40640Y-69850D02*
D03*
Y-147320D02*
D03*
X-163570Y-38919D02*
D03*
X-100760D02*
D03*
X-1270Y-7056D02*
D03*
X36490Y-22601D02*
D03*
X49530D02*
D03*
X82363Y-59503D02*
D03*
X104614Y-46610D02*
D03*
X14550Y-79262D02*
D03*
X139700Y-185420D02*
D03*
X36830Y-80010D02*
D03*
X49530D02*
D03*
X81280Y-38919D02*
D03*
X-218360Y-142930D02*
D03*
X-212141Y-127000D02*
D03*
X167640Y99210D02*
D03*
X77470Y12700D02*
D03*
X17500Y-3810D02*
D03*
X64770Y112500D02*
D03*
X-16042Y84622D02*
D03*
X-5634Y77952D02*
D03*
X-540Y73000D02*
D03*
X14859Y75279D02*
D03*
X9737Y31115D02*
D03*
X104140Y267048D02*
D03*
X-120650Y12700D02*
D03*
X-98411D02*
D03*
X-63500Y28758D02*
D03*
X-49142Y81280D02*
D03*
X-35544Y-1270D02*
D03*
X-35241Y133350D02*
D03*
X-62230Y105781D02*
D03*
X-31565Y175260D02*
D03*
X-49360Y146050D02*
D03*
X-118731D02*
D03*
X-165079Y60583D02*
D03*
X-224790Y115142D02*
D03*
X-166252Y107950D02*
D03*
X127000Y80540D02*
D03*
X102015Y115570D02*
D03*
X104140Y18939D02*
D03*
X63500Y56062D02*
D03*
X224790Y-34380D02*
D03*
X133212Y-37820D02*
D03*
X158342Y-6910D02*
D03*
X164691Y-31750D02*
D03*
X184150Y-76223D02*
D03*
X221694Y-177800D02*
D03*
X177870Y-111760D02*
D03*
X148590Y-107264D02*
D03*
X169054Y-151130D02*
D03*
X208066Y-154940D02*
D03*
X262013Y-121920D02*
D03*
X77851Y-155590D02*
D03*
X37250Y-121920D02*
D03*
X-6350Y-108346D02*
D03*
X24196Y-88900D02*
D03*
X66110Y-87311D02*
D03*
X93851Y-33010D02*
D03*
X-294Y-31750D02*
D03*
X-100760Y-48260D02*
D03*
X176530Y143129D02*
D03*
X202801Y113030D02*
D03*
X205886Y108500D02*
D03*
X208653Y70790D02*
D03*
X205886Y90573D02*
D03*
X243722Y130810D02*
D03*
X242570Y-28352D02*
D03*
X209550Y-120650D02*
D03*
X-31750Y-222250D02*
D03*
Y-241300D02*
D03*
X6350D02*
D03*
X6403Y-222250D02*
D03*
X-193834Y-69850D02*
D03*
X-133350Y107579D02*
D03*
X288290Y-50800D02*
D03*
X288036Y-77470D02*
D03*
D35*
X93980Y-17200D02*
D03*
X78740D02*
D03*
X110490D02*
D03*
X125730D02*
D03*
D36*
X-193300Y-95550D02*
D03*
Y-108050D02*
D03*
Y-120550D02*
D03*
Y-133050D02*
D03*
X102610Y72090D02*
D03*
Y59590D02*
D03*
Y47090D02*
D03*
Y34590D02*
D03*
D37*
X-162300Y-159300D02*
D03*
Y-69300D02*
D03*
X133610Y8340D02*
D03*
Y98340D02*
D03*
D38*
X50900Y-199130D02*
D03*
X63600D02*
D03*
X139600D02*
D03*
X126900D02*
D03*
X89000D02*
D03*
X101500D02*
D03*
X114200D02*
D03*
X76300D02*
D03*
X136860Y203921D02*
D03*
X124360Y203921D02*
D03*
X111860Y203921D02*
D03*
X99360D02*
D03*
X36930Y-96260D02*
D03*
X49430D02*
D03*
D39*
X24850Y-230130D02*
D03*
X165650D02*
D03*
X73110Y234921D02*
D03*
X163110Y234921D02*
D03*
X10680Y-127260D02*
D03*
X75680D02*
D03*
D40*
X23790Y3480D02*
D03*
X-27599Y-161150D02*
D03*
D41*
X36490Y3480D02*
D03*
X49190D02*
D03*
X61890D02*
D03*
Y-52400D02*
D03*
X49190D02*
D03*
X36490D02*
D03*
X23790D02*
D03*
X-40300Y-161150D02*
D03*
X-53000D02*
D03*
X-65700D02*
D03*
Y-105270D02*
D03*
X-53000D02*
D03*
X-40300D02*
D03*
X-27599D02*
D03*
D42*
X-145415Y-190239D02*
D03*
X-123825D02*
D03*
X-145415Y-215900D02*
D03*
X-123825D02*
D03*
X-22845Y17425D02*
D03*
X-44435D02*
D03*
D43*
X-12700Y-206250D02*
D03*
Y-238250D02*
D03*
D44*
X-59260Y-212090D02*
D03*
X-100760D02*
D03*
D45*
X-227950Y-142850D02*
D03*
X-253350Y-142850D02*
D03*
X-253350Y-52850D02*
D03*
X-227950D02*
D03*
D46*
X-203251Y-31712D02*
D03*
X-193713Y-8776D02*
D03*
X-212789D02*
D03*
X-251642Y68618D02*
D03*
X-242104Y91554D02*
D03*
X-261179D02*
D03*
X97092Y-69736D02*
D03*
X116167D02*
D03*
X106629Y-92672D02*
D03*
D47*
X210863Y21584D02*
D03*
X225863D02*
D03*
X240863D02*
D03*
D48*
X225863Y-6916D02*
D03*
D49*
X148590Y-60890D02*
D03*
Y-73590D02*
D03*
Y-86290D02*
D03*
Y-124390D02*
D03*
Y-137090D02*
D03*
Y-149790D02*
D03*
X237490Y-149930D02*
D03*
Y-137230D02*
D03*
Y-124530D02*
D03*
Y-86430D02*
D03*
Y-73730D02*
D03*
Y-61047D02*
D03*
D50*
X-45798Y-24829D02*
D03*
Y-5753D02*
D03*
X-22861Y-15291D02*
D03*
D51*
X-1270Y17240D02*
D03*
Y2000D02*
D03*
D52*
X86717Y151880D02*
D03*
X-68370Y151883D02*
D03*
D53*
X77707Y55883D02*
D03*
D54*
X-68313Y55793D02*
D03*
D55*
X31750Y50800D02*
D03*
X20697D02*
D03*
X9737D02*
D03*
X-1280D02*
D03*
X-12320D02*
D03*
X-23287D02*
D03*
X-34253D02*
D03*
X-45303D02*
D03*
X-56257D02*
D03*
D56*
X7210Y-165100D02*
D03*
X51210D02*
D03*
D57*
X-53000Y-205830D02*
Y-161150D01*
X-40300Y-174331D02*
Y-161150D01*
X-12110Y-181610D02*
X6940Y-162560D01*
X-40300Y-174331D02*
X-34290Y-180340D01*
X-33020Y-181610D01*
X-12700Y-206250D02*
Y-182200D01*
X-33020Y-181610D02*
X-12700D01*
X50900Y-199130D02*
Y-164520D01*
M02*
