M48
;Layer_Color=9474304
;FILE_FORMAT=4:4
METRIC,LZ
;TYPE=PLATED
T1F00S00C0.2500
T2F00S00C0.6000
T3F00S00C1.0000
T4F00S00C2.2000
%
T01
X-0010795Y-002667
X-0006985Y-002794
X00089Y-0027305
X001202Y-0026035
X-0027305Y-0009525
Y-0005715
X-0028067Y0005334
X-00233584Y00049513
X-00243698Y0003175
X-00243364Y0
X-0023495Y-00013179
X-0022225Y-0002413
X-0021884Y-0004786
X-00212141Y-00078689
X-00193834Y-0006985
X-00179504Y-000381
X-0016357Y-00038919
X-001397Y-0005715
X-0011684Y-00070137
X-0010076Y-0004826
Y-00038919
X-00066834Y-0005715
X-0004064Y-0006985
X-00025649Y-000508
X-0000682Y-000635
X0001455Y-00079262
X00024196Y-000889
X0003683Y-0008001
X0004953
X0006611Y-00087311
X00082363Y-00059503
X0008128Y-00038919
X00093851Y-0003301
X00104614Y-0004661
X00116101Y-0006076
X00133212Y-0003782
X0013335Y-000172
X0011186Y-0000254
X0010414Y00018939
X0008636Y0001905
X0007747Y000127
X00055735Y0001905
X000635Y00056062
X0007239Y0008001
X0008255Y0009525
X00096425Y00089872
X00102015Y0011557
X0011303Y0012065
X00107773Y00125907
X00069953Y0013335
X0005715Y0012716
X0006477Y001125
X00031898Y0010668
X00010916
X00012653Y00127
X-0000381Y001185
X-0001764Y00123591
X-00035241Y0013335
X-0006858Y00135087
X-0006827Y00121637
X-0006223Y00105781
X-0007366Y001016
X-0007874Y00097132
X-0008382Y0007793
X-0008116Y0004699
X-000635Y00028758
X-0003429Y00040027
X-00045501Y0006223
X-00049142Y0008128
X-0004953Y0009845
X-0002159Y00097917
X-00016042Y00084622
X-00005634Y00077952
X-0000054Y00073
X00014859Y00075279
X00032397Y00076182
X0002032Y0006223
X00009737Y00061955
Y00040027
Y00031115
X00020508Y00040027
X000175Y-0000381
X-0000127Y-00007056
X-00000294Y-0003175
X0003649Y-00022601
X0004953
X-00035544Y-0000127
X-000889Y0000635
X-00098411Y000127
X-0010818Y0000635
X-0012065Y000127
X-0013335Y0000635
X-00145831Y0
X-0014097Y000225
X-0013716Y000275
X-0014097Y000325
X-0013716Y000375
X-0013327Y000425
X-00128445Y000475
X-0016764
X-00171521Y000525
Y000425
X-0016764Y000375
X-00171521Y000325
X-0016764Y000275
X-0016129Y0001225
X-001778Y0000635
X-001905Y000175
X-0019431Y000225
X-00196777Y0004372
X-0020623Y000575
X-00208262Y0008001
X-00251591Y0008128
X-0022479Y00115142
X-0019558Y0011877
X-00166463Y001225
X-00161579Y001175
Y001275
X-00166463Y00132805
X-00166252Y0010795
X-0016637Y00095266
X-00165079Y00060583
X-0012573Y00099932
X-0013335Y00107579
X-0012446Y00116469
X-0010922Y00116442
X-0009398Y00116971
X-000889Y00129797
X-0009906Y00134415
X-00108444Y001397
X-001183Y0013659
X-00136604Y00127761
X-00012641Y0006223
X00127Y0008054
X00127017Y000381
X00106629Y-00100724
X0006096Y-00127
X0003725Y-0012192
X-0000635Y-00108346
X-0002794Y-00124477
X-0004064Y-0014732
X-00056858Y-0013335
X-00082402Y-0013999
X-00082766Y-0015875
X-0011684
X-001397Y-00145796
X-00162334Y-001397
X-0017145Y-00114151
X-00162334Y-0008901
X-00140133Y-001016
X-0011684Y-00120821
X-0008255Y-0012065
X-00082402Y-001016
X-00014007Y-0015875
X-0000127Y-0020625
X00006403Y-0022225
X0000635Y-002413
X-0003175
Y-0022225
X0001524Y-0019355
X0003556Y-0019304
X000635Y-002286
X001336
X00126681Y-0018415
X00077851Y-0015559
X-0021836Y-0014293
X-00212141Y-00127
X-0022225Y-00120554
X-0023495Y-00109609
X-00228346Y-0009525
X-00254Y-0008255
X-00251591Y-0012192
X-002413Y-00158809
X-0018415Y-0022225
X-00146437Y-0024765
X0014605Y-0024759
X0015621Y-0019812
X001397Y-0018542
X00169054Y-0015113
X00208066Y-0015494
X0020955Y-0012065
X00208971Y-00105989
X00203529Y-00099459
X0017787Y-0011176
X0014859Y-00107264
X0018415Y-00076223
X00164691Y-0003175
X00158342Y-0000691
X0015494Y0001143
X0016191Y0001825
X00167337Y00025453
X0017073Y000385
X0016216
X0017033Y000535
X0016637Y0005842
X0017033Y000635
X0016637Y0007112
Y000785
X0017033Y000835
X0016764Y0009921
X0016191Y001035
X0016637Y001085
X0017033Y001135
X0016637Y001185
X0016191Y001235
X0016637Y0012889
X0017033Y001335
X0014065Y0013875
X0013999Y0005959
X00196215Y000381
X0021082Y0004
X0021209Y00031115
X0019177Y000235
X0019685Y00015757
X0018288Y0001397
X00208653Y0007079
X00221232Y00076676
X002159Y000835
X00205886Y00090573
Y001085
X00202801Y0011303
X00243722Y0013081
X0026035Y00127559
X0027305Y0009525
X00279661Y00076182
X00227806Y0006477
X0022479Y-0003438
X0024257Y-00028352
X0028829Y-000508
X00288036Y-0007747
X00262013Y-0012192
X00235305Y-00105989
X00221694Y-001778
X00250433Y00147219
X00219235Y00186067
X00185522Y00163396
X0018288Y00143129
X0017653
X00162334Y0017726
X0015367Y0017145
X00165011Y00209534
X0012436Y00218225
X0011186
X0009906Y00226935
X0009017Y00207173
X00073133Y00185968
X0005702Y0018542
X000575Y0019466
X000275Y0019812
Y0019106
X000067Y001905
X-000075Y0017526
X-00031565
X-00052313Y00168667
X-0004936Y0014605
X-000125Y00142504
X00006326Y0014605
X00044646Y0017145
X0010877Y0016764
X0010706Y00145842
X00121555Y00147901
X0011938Y0018542
X00127Y0023495
X0010414Y00267048
X0007607Y002794
X00075503Y00254
X000125Y0022372
X00006326Y00220595
X-00027506Y0022261
X-000525Y002222
X-0007747Y0022261
X-0008763
X-0010287Y00221222
X-00117784Y00222448
X-0014351Y00236827
Y0020574
X-0015875Y00184264
X-00141282Y0015367
X-00118731Y0014605
X-0010877Y0018972
X-00088596Y0026035
X-0022225Y0017834
X-00248718Y00146465
T02
X0026924Y-00076223
Y-00063617
T03
X-00040233Y0015589
X00039653Y00155927
T04
X-0019Y-0019
X0019
Y0019
X-0019
M30
