%FSLAX44Y44*%
%MOMM*%
G71*
G01*
G75*
G04 Layer_Color=255*
%ADD10R,0.8890X1.0160*%
%ADD11R,0.6000X0.5000*%
%ADD12R,1.3970X1.3970*%
%ADD13R,0.4064X0.5500*%
%ADD14R,0.3048X0.5500*%
G04:AMPARAMS|DCode=15|XSize=0.32mm|YSize=1.7mm|CornerRadius=0.08mm|HoleSize=0mm|Usage=FLASHONLY|Rotation=0.000|XOffset=0mm|YOffset=0mm|HoleType=Round|Shape=RoundedRectangle|*
%AMROUNDEDRECTD15*
21,1,0.3200,1.5400,0,0,0.0*
21,1,0.1600,1.7000,0,0,0.0*
1,1,0.1600,0.0800,-0.7700*
1,1,0.1600,-0.0800,-0.7700*
1,1,0.1600,-0.0800,0.7700*
1,1,0.1600,0.0800,0.7700*
%
%ADD15ROUNDEDRECTD15*%
%ADD16R,0.5000X1.7000*%
%ADD17R,0.5000X0.6000*%
%ADD18R,1.3500X0.3000*%
%ADD19R,1.3500X0.2500*%
G04:AMPARAMS|DCode=20|XSize=2mm|YSize=1.2mm|CornerRadius=0mm|HoleSize=0mm|Usage=FLASHONLY|Rotation=150.000|XOffset=0mm|YOffset=0mm|HoleType=Round|Shape=Rectangle|*
%AMROTATEDRECTD20*
4,1,4,1.1660,0.0196,0.5660,-1.0196,-1.1660,-0.0196,-0.5660,1.0196,1.1660,0.0196,0.0*
%
%ADD20ROTATEDRECTD20*%

G04:AMPARAMS|DCode=21|XSize=2.1mm|YSize=0.8mm|CornerRadius=0mm|HoleSize=0mm|Usage=FLASHONLY|Rotation=203.500|XOffset=0mm|YOffset=0mm|HoleType=Round|Shape=Rectangle|*
%AMROTATEDRECTD21*
4,1,4,0.8034,0.7855,1.1224,0.0519,-0.8034,-0.7855,-1.1224,-0.0519,0.8034,0.7855,0.0*
%
%ADD21ROTATEDRECTD21*%

G04:AMPARAMS|DCode=22|XSize=3mm|YSize=2.1mm|CornerRadius=0mm|HoleSize=0mm|Usage=FLASHONLY|Rotation=203.500|XOffset=0mm|YOffset=0mm|HoleType=Round|Shape=Rectangle|*
%AMROTATEDRECTD22*
4,1,4,0.9569,1.5610,1.7943,-0.3648,-0.9569,-1.5610,-1.7943,0.3648,0.9569,1.5610,0.0*
%
%ADD22ROTATEDRECTD22*%

%ADD23R,1.0000X1.6000*%
%ADD24R,0.7000X0.6000*%
%ADD25C,0.2540*%
%ADD26C,0.3000*%
%ADD27C,0.6000*%
%ADD28C,1.0000*%
%ADD29C,0.5000*%
%ADD30C,0.4000*%
%ADD31C,1.0000*%
%ADD32O,2.0000X0.7500*%
G04:AMPARAMS|DCode=33|XSize=4mm|YSize=4mm|CornerRadius=2mm|HoleSize=0mm|Usage=FLASHONLY|Rotation=0.000|XOffset=0mm|YOffset=0mm|HoleType=Round|Shape=RoundedRectangle|*
%AMROUNDEDRECTD33*
21,1,4.0000,0.0000,0,0,0.0*
21,1,0.0000,4.0000,0,0,0.0*
1,1,4.0000,0.0000,0.0000*
1,1,4.0000,0.0000,0.0000*
1,1,4.0000,0.0000,0.0000*
1,1,4.0000,0.0000,0.0000*
%
%ADD33ROUNDEDRECTD33*%
%ADD34C,0.4500*%
%ADD35R,1.3970X1.3970*%
G04:AMPARAMS|DCode=36|XSize=2mm|YSize=2mm|CornerRadius=0mm|HoleSize=0mm|Usage=FLASHONLY|Rotation=180.000|XOffset=0mm|YOffset=0mm|HoleType=Round|Shape=RoundedRectangle|*
%AMROUNDEDRECTD36*
21,1,2.0000,2.0000,0,0,180.0*
21,1,2.0000,2.0000,0,0,180.0*
1,1,0.0000,-1.0000,1.0000*
1,1,0.0000,1.0000,1.0000*
1,1,0.0000,1.0000,-1.0000*
1,1,0.0000,-1.0000,-1.0000*
%
%ADD36ROUNDEDRECTD36*%
%ADD37R,0.7000X1.6000*%
%ADD38R,1.1000X1.4000*%
%ADD39R,1.6000X1.4000*%
%ADD40R,1.2000X2.2000*%
%ADD41R,3.0000X2.1000*%
%ADD42R,2.1000X0.8000*%
%ADD43R,0.8128X0.8128*%
%ADD44R,1.0668X0.8128*%
%ADD45R,0.8128X0.8128*%
%ADD46R,0.8128X1.0668*%
%ADD47R,1.5200X0.7600*%
%ADD48R,1.8000X2.8000*%
%ADD49R,0.7000X1.4000*%
%ADD50O,0.6096X2.0320*%
%ADD51R,0.6096X2.0320*%
%ADD52R,1.2000X1.8000*%
%ADD53R,2.1500X6.3000*%
%ADD54R,1.6000X1.2000*%
%ADD55R,2.1000X3.0000*%
%ADD56R,0.8000X2.1000*%
%ADD57C,0.8000*%
D10*
X77899Y31750D02*
D03*
X61898D02*
D03*
X254889Y-105002D02*
D03*
X270891D02*
D03*
D11*
X-63500Y-15820D02*
D03*
Y-24820D02*
D03*
X97790Y-46610D02*
D03*
Y-55609D02*
D03*
X77470Y-1960D02*
D03*
Y7040D02*
D03*
X-53340Y-84510D02*
D03*
Y-75510D02*
D03*
Y-64003D02*
D03*
Y-55003D02*
D03*
X-224790Y4390D02*
D03*
Y13390D02*
D03*
X-212141Y4390D02*
D03*
Y13390D02*
D03*
X-27940Y-84510D02*
D03*
Y-75510D02*
D03*
X-34290Y-192350D02*
D03*
Y-201350D02*
D03*
X-10160Y-142930D02*
D03*
Y-133930D02*
D03*
X166370Y152092D02*
D03*
Y143092D02*
D03*
X-66040Y-84510D02*
D03*
Y-75510D02*
D03*
X-79391Y-84510D02*
D03*
Y-75510D02*
D03*
X-40640Y-84510D02*
D03*
Y-75510D02*
D03*
X-237490Y13390D02*
D03*
Y4390D02*
D03*
D17*
X189920Y38500D02*
D03*
X180920D02*
D03*
X-205160Y109109D02*
D03*
X-196160D02*
D03*
X-232010Y128270D02*
D03*
X-223011D02*
D03*
X95940Y267048D02*
D03*
X86940D02*
D03*
X38680Y-72390D02*
D03*
X47680D02*
D03*
X14550D02*
D03*
X23550D02*
D03*
D31*
X-40233Y155890D02*
D03*
X39653Y155927D02*
D03*
D32*
X269240Y-76223D02*
D03*
Y-63617D02*
D03*
D33*
X-190000Y190000D02*
D03*
X190000D02*
D03*
Y-190000D02*
D03*
X-190000D02*
D03*
D35*
X-44435Y17425D02*
D03*
X-22845D02*
D03*
X-123825Y-215900D02*
D03*
X-145415D02*
D03*
X-123825Y-190239D02*
D03*
X-145415D02*
D03*
D36*
X51210Y-165100D02*
D03*
X7210D02*
D03*
D37*
X-56257Y50800D02*
D03*
X-45303D02*
D03*
X-34253D02*
D03*
X-23287D02*
D03*
X-12320D02*
D03*
X-1280D02*
D03*
X9737D02*
D03*
X20697D02*
D03*
X31750D02*
D03*
D38*
X-68313Y55793D02*
D03*
D39*
X77707Y55883D02*
D03*
D40*
X-68370Y151883D02*
D03*
X86717Y151880D02*
D03*
D41*
X133610Y98340D02*
D03*
Y8340D02*
D03*
X-162300Y-69300D02*
D03*
Y-159300D02*
D03*
D42*
X102610Y34590D02*
D03*
Y47090D02*
D03*
Y59590D02*
D03*
Y72090D02*
D03*
X-193300Y-133050D02*
D03*
Y-120550D02*
D03*
Y-108050D02*
D03*
Y-95550D02*
D03*
D43*
X-1270Y2000D02*
D03*
Y17240D02*
D03*
D44*
X-22861Y-15291D02*
D03*
X-45798Y-5753D02*
D03*
Y-24829D02*
D03*
D45*
X125730Y-17200D02*
D03*
X110490D02*
D03*
X78740D02*
D03*
X93980D02*
D03*
D46*
X106629Y-92672D02*
D03*
X116167Y-69736D02*
D03*
X97092D02*
D03*
X-261179Y91554D02*
D03*
X-242104D02*
D03*
X-251642Y68618D02*
D03*
X-212789Y-8776D02*
D03*
X-193713D02*
D03*
X-203251Y-31712D02*
D03*
D47*
X237490Y-61047D02*
D03*
Y-73730D02*
D03*
Y-86430D02*
D03*
Y-124530D02*
D03*
Y-137230D02*
D03*
Y-149930D02*
D03*
X148590Y-149790D02*
D03*
Y-137090D02*
D03*
Y-124390D02*
D03*
Y-86290D02*
D03*
Y-73590D02*
D03*
Y-60890D02*
D03*
D48*
X225863Y-6916D02*
D03*
D49*
X240863Y21584D02*
D03*
X225863D02*
D03*
X210863D02*
D03*
D50*
X-27599Y-105270D02*
D03*
X-40300D02*
D03*
X-53000D02*
D03*
X-65700D02*
D03*
Y-161150D02*
D03*
X-53000D02*
D03*
X-40300D02*
D03*
X23790Y-52400D02*
D03*
X36490D02*
D03*
X49190D02*
D03*
X61890D02*
D03*
Y3480D02*
D03*
X49190D02*
D03*
X36490D02*
D03*
D51*
X-27599Y-161150D02*
D03*
X23790Y3480D02*
D03*
D52*
X-227950Y-52850D02*
D03*
X-253350D02*
D03*
X-253350Y-142850D02*
D03*
X-227950Y-142850D02*
D03*
D53*
X-100760Y-212090D02*
D03*
X-59260D02*
D03*
D54*
X-12700Y-238250D02*
D03*
Y-206250D02*
D03*
D55*
X75680Y-127260D02*
D03*
X10680D02*
D03*
X163110Y234921D02*
D03*
X73110Y234921D02*
D03*
X165650Y-230130D02*
D03*
X24850D02*
D03*
D56*
X49430Y-96260D02*
D03*
X36930D02*
D03*
X99360Y203921D02*
D03*
X111860D02*
D03*
X124360Y203921D02*
D03*
X136860Y203921D02*
D03*
X76300Y-199130D02*
D03*
X114200D02*
D03*
X101500D02*
D03*
X89000D02*
D03*
X126900D02*
D03*
X139600D02*
D03*
X63600D02*
D03*
X50900D02*
D03*
M02*
