%FSLAX44Y44*%
%MOMM*%
G71*
G01*
G75*
%ADD10R,0.8890X1.0160*%
%ADD11R,0.6000X0.5000*%
%ADD12R,1.3970X1.3970*%
%ADD13R,0.4064X0.5500*%
%ADD14R,0.3048X0.5500*%
G04:AMPARAMS|DCode=15|XSize=0.32mm|YSize=1.7mm|CornerRadius=0.08mm|HoleSize=0mm|Usage=FLASHONLY|Rotation=0.000|XOffset=0mm|YOffset=0mm|HoleType=Round|Shape=RoundedRectangle|*
%AMROUNDEDRECTD15*
21,1,0.3200,1.5400,0,0,0.0*
21,1,0.1600,1.7000,0,0,0.0*
1,1,0.1600,0.0800,-0.7700*
1,1,0.1600,-0.0800,-0.7700*
1,1,0.1600,-0.0800,0.7700*
1,1,0.1600,0.0800,0.7700*
%
%ADD15ROUNDEDRECTD15*%
%ADD16R,0.5000X1.7000*%
%ADD17R,0.5000X0.6000*%
%ADD18R,1.3500X0.3000*%
%ADD19R,1.3500X0.2500*%
G04:AMPARAMS|DCode=20|XSize=2mm|YSize=1.2mm|CornerRadius=0mm|HoleSize=0mm|Usage=FLASHONLY|Rotation=150.000|XOffset=0mm|YOffset=0mm|HoleType=Round|Shape=Rectangle|*
%AMROTATEDRECTD20*
4,1,4,1.1660,0.0196,0.5660,-1.0196,-1.1660,-0.0196,-0.5660,1.0196,1.1660,0.0196,0.0*
%
%ADD20ROTATEDRECTD20*%

G04:AMPARAMS|DCode=21|XSize=2.1mm|YSize=0.8mm|CornerRadius=0mm|HoleSize=0mm|Usage=FLASHONLY|Rotation=203.500|XOffset=0mm|YOffset=0mm|HoleType=Round|Shape=Rectangle|*
%AMROTATEDRECTD21*
4,1,4,0.8034,0.7855,1.1224,0.0519,-0.8034,-0.7855,-1.1224,-0.0519,0.8034,0.7855,0.0*
%
%ADD21ROTATEDRECTD21*%

G04:AMPARAMS|DCode=22|XSize=3mm|YSize=2.1mm|CornerRadius=0mm|HoleSize=0mm|Usage=FLASHONLY|Rotation=203.500|XOffset=0mm|YOffset=0mm|HoleType=Round|Shape=Rectangle|*
%AMROTATEDRECTD22*
4,1,4,0.9569,1.5610,1.7943,-0.3648,-0.9569,-1.5610,-1.7943,0.3648,0.9569,1.5610,0.0*
%
%ADD22ROTATEDRECTD22*%

%ADD23R,1.0000X1.6000*%
%ADD24R,0.7000X0.6000*%
%ADD25C,0.2540*%
%ADD26C,0.3000*%
%ADD27C,0.6000*%
%ADD28C,1.0000*%
%ADD29C,0.5000*%
%ADD30C,0.4000*%
%ADD31C,1.0000*%
%ADD32O,2.0000X0.7500*%
G04:AMPARAMS|DCode=33|XSize=4mm|YSize=4mm|CornerRadius=2mm|HoleSize=0mm|Usage=FLASHONLY|Rotation=0.000|XOffset=0mm|YOffset=0mm|HoleType=Round|Shape=RoundedRectangle|*
%AMROUNDEDRECTD33*
21,1,4.0000,0.0000,0,0,0.0*
21,1,0.0000,4.0000,0,0,0.0*
1,1,4.0000,0.0000,0.0000*
1,1,4.0000,0.0000,0.0000*
1,1,4.0000,0.0000,0.0000*
1,1,4.0000,0.0000,0.0000*
%
%ADD33ROUNDEDRECTD33*%
%ADD34C,0.4500*%
%ADD35R,1.3970X1.3970*%
G04:AMPARAMS|DCode=36|XSize=2mm|YSize=2mm|CornerRadius=0mm|HoleSize=0mm|Usage=FLASHONLY|Rotation=180.000|XOffset=0mm|YOffset=0mm|HoleType=Round|Shape=RoundedRectangle|*
%AMROUNDEDRECTD36*
21,1,2.0000,2.0000,0,0,180.0*
21,1,2.0000,2.0000,0,0,180.0*
1,1,0.0000,-1.0000,1.0000*
1,1,0.0000,1.0000,1.0000*
1,1,0.0000,1.0000,-1.0000*
1,1,0.0000,-1.0000,-1.0000*
%
%ADD36ROUNDEDRECTD36*%
%ADD37R,0.7000X1.6000*%
%ADD38R,1.1000X1.4000*%
%ADD39R,1.6000X1.4000*%
%ADD40R,1.2000X2.2000*%
%ADD41R,3.0000X2.1000*%
%ADD42R,2.1000X0.8000*%
%ADD43R,0.8128X0.8128*%
%ADD44R,1.0668X0.8128*%
%ADD45R,0.8128X0.8128*%
%ADD46R,0.8128X1.0668*%
%ADD47R,1.5200X0.7600*%
%ADD48R,1.8000X2.8000*%
%ADD49R,0.7000X1.4000*%
%ADD50O,0.6096X2.0320*%
%ADD51R,0.6096X2.0320*%
%ADD52R,1.2000X1.8000*%
%ADD53R,2.1500X6.3000*%
%ADD54R,1.6000X1.2000*%
%ADD55R,2.1000X3.0000*%
%ADD56R,0.8000X2.1000*%
%ADD57C,0.8000*%
D10*
X281051Y-91440D02*
D03*
X265049D02*
D03*
X281051Y-50800D02*
D03*
X265049D02*
D03*
D11*
X248920Y-64003D02*
D03*
Y-55003D02*
D03*
Y-76780D02*
D03*
Y-85780D02*
D03*
X119380Y178490D02*
D03*
Y169490D02*
D03*
X127000Y-17200D02*
D03*
Y-8200D02*
D03*
X114300Y-17200D02*
D03*
Y-8200D02*
D03*
X-212090Y-142930D02*
D03*
Y-133930D02*
D03*
Y-111070D02*
D03*
Y-120070D02*
D03*
Y-56860D02*
D03*
Y-47860D02*
D03*
X49530Y-38790D02*
D03*
Y-29790D02*
D03*
X74930Y-59503D02*
D03*
Y-50503D02*
D03*
X36830Y-38790D02*
D03*
Y-29790D02*
D03*
X24130D02*
D03*
Y-38790D02*
D03*
X74930D02*
D03*
Y-29790D02*
D03*
X11430Y-38790D02*
D03*
Y-29790D02*
D03*
X62230Y-38790D02*
D03*
Y-29790D02*
D03*
D12*
X232007Y31115D02*
D03*
Y9525D02*
D03*
D13*
X4867Y95122D02*
D03*
X-11135D02*
D03*
Y84622D02*
D03*
X4867D02*
D03*
X30861Y95420D02*
D03*
X14859D02*
D03*
Y84920D02*
D03*
X30861D02*
D03*
D14*
X-635Y95122D02*
D03*
X-5634D02*
D03*
Y84622D02*
D03*
X-635D02*
D03*
X25359Y95420D02*
D03*
X20361D02*
D03*
Y84920D02*
D03*
X25359D02*
D03*
D15*
X-122500Y209000D02*
D03*
X-112500D02*
D03*
X-102500D02*
D03*
X-92500D02*
D03*
X-82500D02*
D03*
X-72500D02*
D03*
X-62500D02*
D03*
X-52500D02*
D03*
X-117500Y235000D02*
D03*
X-107500D02*
D03*
X-97500D02*
D03*
X-87500D02*
D03*
X-77500D02*
D03*
X-67500D02*
D03*
X-57500D02*
D03*
X-47500D02*
D03*
X12500D02*
D03*
X2500D02*
D03*
X-7500D02*
D03*
X-17500D02*
D03*
X-27500D02*
D03*
X-37500D02*
D03*
X7500Y209000D02*
D03*
X-2500D02*
D03*
X-12500D02*
D03*
X-22500D02*
D03*
X-32500D02*
D03*
X-42500D02*
D03*
X47500D02*
D03*
X57500D02*
D03*
X67500D02*
D03*
X52500Y235000D02*
D03*
X62500D02*
D03*
X72500D02*
D03*
X42500D02*
D03*
X32500D02*
D03*
X22500D02*
D03*
X37500Y209000D02*
D03*
X27500D02*
D03*
X17500D02*
D03*
D16*
X-132000Y235000D02*
D03*
Y209000D02*
D03*
X82000D02*
D03*
Y235000D02*
D03*
D17*
X48840Y95250D02*
D03*
X57840D02*
D03*
X69160Y95266D02*
D03*
X78160D02*
D03*
D18*
X-151250Y12250D02*
D03*
X-180750D02*
D03*
X-151250Y132750D02*
D03*
X-180750D02*
D03*
X180750Y18250D02*
D03*
X151250D02*
D03*
X180750Y138750D02*
D03*
X151250D02*
D03*
D19*
X-151250Y17500D02*
D03*
X-180750D02*
D03*
X-151250Y22500D02*
D03*
X-180750D02*
D03*
X-151250Y27500D02*
D03*
X-180750D02*
D03*
X-151250Y32500D02*
D03*
X-180750D02*
D03*
X-151250Y37500D02*
D03*
X-180750D02*
D03*
X-151250Y42500D02*
D03*
X-180750D02*
D03*
X-151250Y47500D02*
D03*
X-180750D02*
D03*
X-151250Y52500D02*
D03*
X-180750D02*
D03*
X-151250Y57500D02*
D03*
X-180750D02*
D03*
X-151250Y62500D02*
D03*
X-180750D02*
D03*
X-151250Y67500D02*
D03*
X-180750D02*
D03*
X-151250Y72500D02*
D03*
X-180750D02*
D03*
X-151250Y77500D02*
D03*
X-180750D02*
D03*
X-151250Y82500D02*
D03*
X-180750D02*
D03*
X-151250Y87500D02*
D03*
X-180750D02*
D03*
X-151250Y92500D02*
D03*
X-180750D02*
D03*
X-151250Y97500D02*
D03*
X-180750D02*
D03*
X-151250Y102500D02*
D03*
X-180750D02*
D03*
X-151250Y107500D02*
D03*
X-180750D02*
D03*
X-151250Y112500D02*
D03*
X-180750D02*
D03*
X-151250Y117500D02*
D03*
X-180750D02*
D03*
X-151250Y122500D02*
D03*
X-180750D02*
D03*
X-151250Y127500D02*
D03*
X-180750D02*
D03*
X180750Y23500D02*
D03*
X151250D02*
D03*
X180750Y28500D02*
D03*
X151250D02*
D03*
X180750Y33500D02*
D03*
X151250D02*
D03*
X180750Y38500D02*
D03*
X151250D02*
D03*
X180750Y43500D02*
D03*
X151250D02*
D03*
X180750Y48500D02*
D03*
X151250D02*
D03*
X180750Y53500D02*
D03*
X151250D02*
D03*
X180750Y58500D02*
D03*
X151250D02*
D03*
X180750Y63500D02*
D03*
X151250D02*
D03*
X180750Y68500D02*
D03*
X151250D02*
D03*
X180750Y73500D02*
D03*
X151250D02*
D03*
X180750Y78500D02*
D03*
X151250D02*
D03*
X180750Y83500D02*
D03*
X151250D02*
D03*
X180750Y88500D02*
D03*
X151250D02*
D03*
X180750Y93500D02*
D03*
X151250D02*
D03*
X180750Y98500D02*
D03*
X151250D02*
D03*
X180750Y103500D02*
D03*
X151250D02*
D03*
X180750Y108500D02*
D03*
X151250D02*
D03*
X180750Y113500D02*
D03*
X151250D02*
D03*
X180750Y118500D02*
D03*
X151250D02*
D03*
X180750Y123500D02*
D03*
X151250D02*
D03*
X180750Y128500D02*
D03*
X151250D02*
D03*
X180750Y133500D02*
D03*
X151250D02*
D03*
D20*
X116259Y261380D02*
D03*
X168221Y231380D02*
D03*
D21*
X225863Y103691D02*
D03*
X230848Y92228D02*
D03*
X240896Y69118D02*
D03*
X235912Y80581D02*
D03*
X220799Y115338D02*
D03*
X215815Y126801D02*
D03*
D22*
X279792Y57406D02*
D03*
X233777Y163235D02*
D03*
D23*
X-234950Y-57440D02*
D03*
X-260350D02*
D03*
X-260350Y-125440D02*
D03*
X-234950D02*
D03*
D24*
X-212090Y-99721D02*
D03*
Y-85521D02*
D03*
D31*
X-40233Y155890D02*
D03*
X39653Y155927D02*
D03*
D32*
X269240Y-76223D02*
D03*
Y-63617D02*
D03*
D33*
X-190000Y190000D02*
D03*
X190000D02*
D03*
Y-190000D02*
D03*
X-190000D02*
D03*
M02*
