%FSLAX44Y44*%
%MOMM*%
G71*
G01*
G75*
G04 Layer_Physical_Order=2*
G04 Layer_Color=16711680*
%ADD10R,0.8890X1.0160*%
%ADD11R,0.6000X0.5000*%
%ADD12R,1.3970X1.3970*%
%ADD13R,0.4064X0.5500*%
%ADD14R,0.3048X0.5500*%
G04:AMPARAMS|DCode=15|XSize=0.32mm|YSize=1.7mm|CornerRadius=0.08mm|HoleSize=0mm|Usage=FLASHONLY|Rotation=0.000|XOffset=0mm|YOffset=0mm|HoleType=Round|Shape=RoundedRectangle|*
%AMROUNDEDRECTD15*
21,1,0.3200,1.5400,0,0,0.0*
21,1,0.1600,1.7000,0,0,0.0*
1,1,0.1600,0.0800,-0.7700*
1,1,0.1600,-0.0800,-0.7700*
1,1,0.1600,-0.0800,0.7700*
1,1,0.1600,0.0800,0.7700*
%
%ADD15ROUNDEDRECTD15*%
%ADD16R,0.5000X1.7000*%
%ADD17R,0.5000X0.6000*%
%ADD18R,1.3500X0.3000*%
%ADD19R,1.3500X0.2500*%
G04:AMPARAMS|DCode=20|XSize=2mm|YSize=1.2mm|CornerRadius=0mm|HoleSize=0mm|Usage=FLASHONLY|Rotation=150.000|XOffset=0mm|YOffset=0mm|HoleType=Round|Shape=Rectangle|*
%AMROTATEDRECTD20*
4,1,4,1.1660,0.0196,0.5660,-1.0196,-1.1660,-0.0196,-0.5660,1.0196,1.1660,0.0196,0.0*
%
%ADD20ROTATEDRECTD20*%

G04:AMPARAMS|DCode=21|XSize=2.1mm|YSize=0.8mm|CornerRadius=0mm|HoleSize=0mm|Usage=FLASHONLY|Rotation=203.500|XOffset=0mm|YOffset=0mm|HoleType=Round|Shape=Rectangle|*
%AMROTATEDRECTD21*
4,1,4,0.8034,0.7855,1.1224,0.0519,-0.8034,-0.7855,-1.1224,-0.0519,0.8034,0.7855,0.0*
%
%ADD21ROTATEDRECTD21*%

G04:AMPARAMS|DCode=22|XSize=3mm|YSize=2.1mm|CornerRadius=0mm|HoleSize=0mm|Usage=FLASHONLY|Rotation=203.500|XOffset=0mm|YOffset=0mm|HoleType=Round|Shape=Rectangle|*
%AMROTATEDRECTD22*
4,1,4,0.9569,1.5610,1.7943,-0.3648,-0.9569,-1.5610,-1.7943,0.3648,0.9569,1.5610,0.0*
%
%ADD22ROTATEDRECTD22*%

%ADD23R,1.0000X1.6000*%
%ADD24R,0.7000X0.6000*%
%ADD25C,0.2540*%
%ADD26C,0.3000*%
%ADD27C,0.6000*%
%ADD28C,1.0000*%
%ADD29C,0.5000*%
%ADD30C,0.4000*%
%ADD31C,1.0000*%
%ADD32O,2.0000X0.7500*%
G04:AMPARAMS|DCode=33|XSize=4mm|YSize=4mm|CornerRadius=2mm|HoleSize=0mm|Usage=FLASHONLY|Rotation=0.000|XOffset=0mm|YOffset=0mm|HoleType=Round|Shape=RoundedRectangle|*
%AMROUNDEDRECTD33*
21,1,4.0000,0.0000,0,0,0.0*
21,1,0.0000,4.0000,0,0,0.0*
1,1,4.0000,0.0000,0.0000*
1,1,4.0000,0.0000,0.0000*
1,1,4.0000,0.0000,0.0000*
1,1,4.0000,0.0000,0.0000*
%
%ADD33ROUNDEDRECTD33*%
%ADD34C,0.4500*%
%ADD35R,1.3970X1.3970*%
G04:AMPARAMS|DCode=36|XSize=2mm|YSize=2mm|CornerRadius=0mm|HoleSize=0mm|Usage=FLASHONLY|Rotation=180.000|XOffset=0mm|YOffset=0mm|HoleType=Round|Shape=RoundedRectangle|*
%AMROUNDEDRECTD36*
21,1,2.0000,2.0000,0,0,180.0*
21,1,2.0000,2.0000,0,0,180.0*
1,1,0.0000,-1.0000,1.0000*
1,1,0.0000,1.0000,1.0000*
1,1,0.0000,1.0000,-1.0000*
1,1,0.0000,-1.0000,-1.0000*
%
%ADD36ROUNDEDRECTD36*%
%ADD37R,0.7000X1.6000*%
%ADD38R,1.1000X1.4000*%
%ADD39R,1.6000X1.4000*%
%ADD40R,1.2000X2.2000*%
%ADD41R,3.0000X2.1000*%
%ADD42R,2.1000X0.8000*%
%ADD43R,0.8128X0.8128*%
%ADD44R,1.0668X0.8128*%
%ADD45R,0.8128X0.8128*%
%ADD46R,0.8128X1.0668*%
%ADD47R,1.5200X0.7600*%
%ADD48R,1.8000X2.8000*%
%ADD49R,0.7000X1.4000*%
%ADD50O,0.6096X2.0320*%
%ADD51R,0.6096X2.0320*%
%ADD52R,1.2000X1.8000*%
%ADD53R,2.1500X6.3000*%
%ADD54R,1.6000X1.2000*%
%ADD55R,2.1000X3.0000*%
%ADD56R,0.8000X2.1000*%
%ADD57C,0.8000*%
G36*
X-60698Y297114D02*
Y250000D01*
X-60494Y249506D01*
X-60000Y249302D01*
X60000D01*
X60070Y249255D01*
Y236191D01*
X86150D01*
Y252461D01*
X60698D01*
Y297114D01*
X61680Y297919D01*
X67724Y296717D01*
X84254Y292453D01*
X100520Y287269D01*
X116469Y281181D01*
X132051Y274208D01*
X147219Y266372D01*
X161923Y257699D01*
X167943Y253676D01*
X167574Y252461D01*
X150070D01*
Y236191D01*
X176150D01*
Y246767D01*
X177286Y247334D01*
X189758Y237949D01*
X202801Y226935D01*
X215206Y215206D01*
X226935Y202801D01*
X237949Y189758D01*
X248214Y176117D01*
X257699Y161923D01*
X266372Y147219D01*
X274208Y132051D01*
X281181Y116469D01*
X287269Y100520D01*
X292453Y84254D01*
X296717Y67724D01*
X300048Y50980D01*
X301364Y41657D01*
X300531Y40698D01*
X250000D01*
X249506Y40494D01*
X249423Y40293D01*
X248178Y40541D01*
Y43242D01*
X263994Y59058D01*
X265209Y60877D01*
X265636Y63023D01*
Y114504D01*
X265209Y116650D01*
X263994Y118469D01*
X249708Y132755D01*
X249610Y133249D01*
X248228Y135316D01*
X246161Y136697D01*
X243722Y137182D01*
X241284Y136697D01*
X239216Y135316D01*
X237835Y133249D01*
X237821Y133180D01*
X236606Y132811D01*
X212137Y157279D01*
X211056Y158002D01*
X209780Y158256D01*
X195377D01*
X187879Y165754D01*
X186882Y166420D01*
X187309Y167616D01*
X188730Y167476D01*
Y188730D01*
X167476D01*
X167786Y185581D01*
X169075Y181333D01*
X171168Y177417D01*
X173985Y173985D01*
X177417Y171168D01*
X181333Y169075D01*
X185159Y167914D01*
X185097Y166646D01*
X184246Y166476D01*
X183164Y165754D01*
X182441Y164672D01*
X182239Y163654D01*
X181024Y163285D01*
X164691Y179618D01*
X163610Y180340D01*
X162334Y180594D01*
X161058Y180340D01*
X159976Y179618D01*
X159254Y178536D01*
X159000Y177260D01*
X159229Y176105D01*
X158424Y175124D01*
X154963D01*
X153687Y174870D01*
X152605Y174147D01*
X151883Y173065D01*
X151629Y171790D01*
X151883Y170514D01*
X152605Y169432D01*
X153687Y168709D01*
X154963Y168456D01*
X160003D01*
X170152Y158306D01*
X169666Y157132D01*
X167640D01*
Y152092D01*
X166370D01*
Y150822D01*
X160830D01*
Y150189D01*
X159515D01*
X143920Y165784D01*
Y185968D01*
Y189421D01*
X144860D01*
Y218421D01*
X128860D01*
Y218421D01*
X127655D01*
X127440Y219500D01*
X126718Y220582D01*
X125636Y221305D01*
X124360Y221559D01*
X123084Y221305D01*
X122002Y220582D01*
X121280Y219500D01*
X121026Y218225D01*
Y216421D01*
X118360D01*
D01*
D01*
X118360Y216421D01*
X117860Y216421D01*
Y216421D01*
X115194D01*
Y218225D01*
X114940Y219500D01*
X114218Y220582D01*
X113136Y221305D01*
X111860Y221559D01*
X110584Y221305D01*
X109502Y220582D01*
X108780Y219500D01*
X108526Y218225D01*
Y216421D01*
X105900D01*
Y216961D01*
X100630D01*
Y203921D01*
X99360D01*
Y202651D01*
X92820D01*
Y194414D01*
X91647Y193928D01*
X73133Y212442D01*
X71670Y213564D01*
X69967Y214270D01*
X68140Y214510D01*
X43890D01*
Y223520D01*
X43650Y225347D01*
X42944Y227050D01*
X41822Y228512D01*
X29760Y240575D01*
X28298Y241697D01*
X26595Y242402D01*
X24768Y242643D01*
X-104650D01*
X-106477Y242402D01*
X-108180Y241697D01*
X-109642Y240575D01*
X-122777Y227440D01*
X-123899Y225978D01*
X-124604Y224275D01*
X-124845Y222448D01*
X-124604Y220620D01*
X-123899Y218918D01*
X-122777Y217455D01*
X-121314Y216333D01*
X-119612Y215628D01*
X-117784Y215387D01*
X-115957Y215628D01*
X-114254Y216333D01*
X-112792Y217455D01*
X-101725Y228522D01*
X21843D01*
X29770Y220595D01*
Y210375D01*
X22508Y203112D01*
X21386Y201650D01*
X20680Y199947D01*
X20440Y198120D01*
Y191060D01*
X20680Y189232D01*
X21386Y187529D01*
X22508Y186067D01*
X23970Y184945D01*
X25673Y184240D01*
X27500Y183999D01*
X29327Y184240D01*
X31030Y184945D01*
X32492Y186067D01*
X33614Y187529D01*
X34320Y189232D01*
X34560Y191060D01*
Y195196D01*
X39755Y200390D01*
X65216D01*
X85178Y180428D01*
X86640Y179305D01*
X88343Y178600D01*
X90170Y178360D01*
X129800D01*
Y162860D01*
X129800Y162860D01*
X129800D01*
X130040Y161033D01*
X130745Y159330D01*
X131868Y157868D01*
X151599Y138137D01*
X153061Y137015D01*
X154118Y136577D01*
X154366Y135331D01*
X152816Y133781D01*
X105892D01*
X104616Y133528D01*
X103534Y132805D01*
X80192Y109463D01*
X79470Y108381D01*
X79216Y107105D01*
Y95250D01*
X79470Y93974D01*
X80192Y92893D01*
X81274Y92170D01*
X82550Y91916D01*
X83826Y92170D01*
X84908Y92893D01*
X85630Y93974D01*
X85884Y95250D01*
Y105724D01*
X104024Y123864D01*
X105288Y123740D01*
X105415Y123550D01*
X106497Y122827D01*
X107773Y122573D01*
X109078D01*
X109883Y121592D01*
X109696Y120650D01*
X109950Y119374D01*
X110672Y118293D01*
X110701Y118007D01*
X94067Y101373D01*
X93344Y100291D01*
X93090Y99016D01*
Y89872D01*
X93344Y88596D01*
X94067Y87515D01*
X95149Y86792D01*
X96425Y86538D01*
X97700Y86792D01*
X98782Y87515D01*
X99505Y88596D01*
X99759Y89872D01*
Y97634D01*
X114900Y112776D01*
X154608D01*
X156242Y111143D01*
X156242D01*
X156242Y111142D01*
X156242D01*
X156242Y111142D01*
Y111142D01*
X156242Y111142D01*
Y111142D01*
X156713Y110827D01*
X156838Y109564D01*
X152323Y105049D01*
X151150Y105535D01*
Y111380D01*
X134880D01*
Y98340D01*
Y85300D01*
X144895D01*
X145381Y84127D01*
X124178Y62924D01*
X115110D01*
Y65550D01*
X115650D01*
Y70820D01*
X89570D01*
Y65550D01*
X90110D01*
Y53590D01*
X90110Y53590D01*
X90110Y53090D01*
X90110D01*
Y41488D01*
X90110Y41488D01*
X90110D01*
X90110Y41090D01*
Y40840D01*
Y40590D01*
X90110Y40192D01*
X90110Y40192D01*
X90110D01*
Y37924D01*
X84345D01*
Y38830D01*
X71455D01*
Y24670D01*
X84345D01*
Y31256D01*
X90110D01*
Y28590D01*
X90646D01*
Y-11136D01*
X87916D01*
Y-11136D01*
X87702D01*
X86804Y-10238D01*
Y-9136D01*
X84470D01*
Y-8460D01*
X84470D01*
Y4540D01*
X82470D01*
Y11540D01*
X80804D01*
Y12700D01*
X80550Y13976D01*
X79827Y15057D01*
X78746Y15780D01*
X77470Y16034D01*
X76194Y15780D01*
X75113Y15057D01*
X74390Y13976D01*
X74136Y12700D01*
Y11540D01*
X72470D01*
Y10374D01*
X67036D01*
Y10592D01*
X66645Y12562D01*
X65529Y14231D01*
X63859Y15347D01*
X61890Y15739D01*
X59920Y15347D01*
X58250Y14231D01*
X57134Y12562D01*
X56743Y10592D01*
Y-3632D01*
X57134Y-5602D01*
X57260Y-5790D01*
X56661Y-6910D01*
X54418D01*
X53819Y-5790D01*
X53945Y-5602D01*
X54336Y-3632D01*
Y10592D01*
X53945Y12562D01*
X52829Y14231D01*
X51159Y15347D01*
X49190Y15739D01*
X47220Y15347D01*
X45550Y14231D01*
X44434Y12562D01*
X44043Y10592D01*
Y6814D01*
X41636D01*
Y10592D01*
X41245Y12562D01*
X40129Y14231D01*
X39824Y14435D01*
Y15322D01*
X39570Y16598D01*
X38847Y17680D01*
X23054Y33472D01*
X21972Y34195D01*
X20697Y34449D01*
X9737D01*
X8461Y34195D01*
X7379Y33472D01*
X6656Y32391D01*
X6403Y31115D01*
X6656Y29839D01*
X7379Y28758D01*
X8461Y28035D01*
X9737Y27781D01*
X19316D01*
X32851Y14245D01*
X32850Y14231D01*
X31734Y12562D01*
X31343Y10592D01*
Y-3632D01*
X31734Y-5602D01*
X31860Y-5790D01*
X31261Y-6910D01*
X28837D01*
Y15640D01*
X18742D01*
Y-476D01*
X17500D01*
X16224Y-730D01*
X15143Y-1452D01*
X14420Y-2534D01*
X14166Y-3810D01*
X14420Y-5086D01*
X14890Y-5789D01*
X14291Y-6910D01*
X8569D01*
X6794Y-5135D01*
Y10064D01*
X4794D01*
Y11176D01*
X4794D01*
Y23304D01*
X3818D01*
Y40800D01*
X4220Y40800D01*
Y40800D01*
X4237D01*
X5118Y40800D01*
X5118Y40800D01*
Y40800D01*
X6403D01*
Y40027D01*
X6656Y38751D01*
X7379Y37669D01*
X8461Y36946D01*
X9737Y36693D01*
X11013Y36946D01*
X12094Y37669D01*
X12817Y38751D01*
X13071Y40027D01*
Y40800D01*
X17534D01*
X17774Y40640D01*
X19050Y40386D01*
X20326Y40640D01*
X20566Y40800D01*
X25352D01*
X25352Y40800D01*
Y40800D01*
X26197Y40800D01*
X26223D01*
X26250D01*
X27095Y40800D01*
X27095Y40800D01*
Y40800D01*
X37250D01*
Y60800D01*
X35084D01*
Y63685D01*
X34830Y64961D01*
X34107Y66043D01*
X22514Y77636D01*
X21432Y78359D01*
X20156Y78613D01*
X14859D01*
X13583Y78359D01*
X12501Y77636D01*
X11779Y76555D01*
X11525Y75279D01*
X11779Y74003D01*
X12501Y72922D01*
X13583Y72199D01*
X14859Y71945D01*
X18775D01*
X28416Y62304D01*
Y60800D01*
X27095D01*
X27095Y60800D01*
Y60800D01*
X26250Y60800D01*
X26223D01*
X26197D01*
X25352Y60800D01*
X25352Y60800D01*
Y60800D01*
X23654D01*
Y62230D01*
X23400Y63506D01*
X22678Y64587D01*
X21596Y65310D01*
X20320Y65564D01*
X19044Y65310D01*
X17962Y64587D01*
X17240Y63506D01*
X16986Y62230D01*
Y60800D01*
X5118D01*
X5118Y60800D01*
Y60800D01*
X4237Y60800D01*
X4228D01*
X4220D01*
X3339Y60800D01*
X3339Y60800D01*
Y60800D01*
X-5922D01*
X-5922Y60800D01*
Y60800D01*
X-6780Y60800D01*
X-6800D01*
X-6820D01*
X-7678Y60800D01*
X-7678Y60800D01*
Y60800D01*
X-9307D01*
Y62230D01*
Y62500D01*
X-9561Y63776D01*
X-10283Y64858D01*
X-11365Y65580D01*
X-12641Y65834D01*
X-13917Y65580D01*
X-14999Y64858D01*
X-15721Y63776D01*
X-15975Y62500D01*
Y62230D01*
Y60800D01*
X-17247D01*
Y61340D01*
X-22017D01*
Y50800D01*
Y40260D01*
X-17247D01*
Y40800D01*
X-7678D01*
X-7678Y40800D01*
Y40800D01*
X-6820Y40800D01*
X-6780D01*
D01*
Y40800D01*
X-6378Y40800D01*
Y23304D01*
X-7334D01*
Y22523D01*
X-13860D01*
Y26410D01*
X-31830D01*
Y8440D01*
X-13860D01*
Y12327D01*
X-7334D01*
X-7334Y11176D01*
X-7334D01*
Y10962D01*
X-8232Y10064D01*
X-9334D01*
Y-6064D01*
X-8330D01*
Y-7056D01*
X-8090Y-8883D01*
X-7384Y-10586D01*
X-7180Y-10853D01*
X-7742Y-11992D01*
X-15527D01*
Y-9227D01*
X-30195D01*
Y-21355D01*
X-15527D01*
Y-18660D01*
X-4515D01*
X11216Y-34391D01*
Y-67390D01*
X10050D01*
Y-77390D01*
X11216D01*
Y-79262D01*
X11470Y-80538D01*
X12192Y-81619D01*
X13274Y-82342D01*
X14550Y-82596D01*
X15826Y-82342D01*
X16908Y-81619D01*
X17630Y-80538D01*
X17859Y-79390D01*
X30050D01*
Y-65390D01*
X29599D01*
X29037Y-64251D01*
X29946Y-63066D01*
X30501Y-61727D01*
X30947Y-61638D01*
X31784Y-61556D01*
X32850Y-63151D01*
X34520Y-64267D01*
X36490Y-64659D01*
X38459Y-64267D01*
X40129Y-63151D01*
X41245Y-61482D01*
X41636Y-59512D01*
Y-45288D01*
X41245Y-43318D01*
X40129Y-41649D01*
X39824Y-41445D01*
Y-22601D01*
X39706Y-22012D01*
X40512Y-21030D01*
X45507D01*
X46313Y-22012D01*
X46196Y-22601D01*
Y-41217D01*
X45550Y-41649D01*
X44434Y-43318D01*
X44043Y-45288D01*
Y-59512D01*
X44434Y-61482D01*
X45550Y-63151D01*
X47220Y-64267D01*
X49190Y-64659D01*
X51159Y-64267D01*
X52829Y-63151D01*
X53945Y-61482D01*
X54336Y-59512D01*
Y-45288D01*
X53945Y-43318D01*
X52864Y-41701D01*
Y-22601D01*
X52747Y-22012D01*
X53553Y-21030D01*
X55735D01*
X56897Y-22192D01*
X56897D01*
X56897Y-22192D01*
X56897D01*
X56897Y-22192D01*
Y-22192D01*
X56897Y-22192D01*
Y-22192D01*
X58359Y-23314D01*
X60062Y-24020D01*
X60062Y-24020D01*
X60062Y-24020D01*
D01*
X60062Y-24020D01*
X60062Y-24020D01*
X61890Y-24260D01*
X70676D01*
Y-25264D01*
X73367D01*
Y-25400D01*
X73776Y-27456D01*
X74941Y-29200D01*
X75907Y-30166D01*
Y-35711D01*
X75393Y-36480D01*
X74908Y-38919D01*
X75393Y-41358D01*
X76774Y-43425D01*
X78841Y-44806D01*
X81280Y-45291D01*
X83719Y-44806D01*
X85786Y-43425D01*
X87167Y-41358D01*
X87652Y-38919D01*
X87167Y-36480D01*
X86653Y-35711D01*
Y-27940D01*
X86244Y-25884D01*
X86244D01*
D01*
X86804Y-25264D01*
X86804D01*
Y-23264D01*
X87916D01*
Y-23264D01*
X100044D01*
Y-20534D01*
X104426D01*
Y-23264D01*
X116554D01*
Y-23264D01*
X116768D01*
X117666Y-24162D01*
Y-25264D01*
X133794D01*
Y-23484D01*
X135789Y-23087D01*
X137856Y-21706D01*
X139237Y-19639D01*
X139722Y-17200D01*
X139237Y-14761D01*
X137856Y-12694D01*
X135789Y-11313D01*
X133794Y-10916D01*
Y-9136D01*
X117666D01*
Y-11136D01*
X116554D01*
Y-11136D01*
X104426D01*
Y-13866D01*
X100044D01*
Y-11136D01*
X97314D01*
Y28590D01*
X115110D01*
Y40192D01*
X115110Y40192D01*
D01*
D01*
X115110Y40590D01*
Y40660D01*
Y40840D01*
X115110Y41090D01*
D01*
X115110Y41488D01*
X115110Y41488D01*
X115110D01*
Y43756D01*
X119480D01*
X120756Y44010D01*
X121838Y44732D01*
X156453Y79348D01*
X157626Y78861D01*
Y72171D01*
X139568Y54113D01*
X138846Y53032D01*
X138592Y51756D01*
Y45077D01*
X120739Y27224D01*
X116700D01*
X115424Y26970D01*
X114342Y26247D01*
X109502Y21407D01*
X108780Y20326D01*
X108526Y19050D01*
Y-2540D01*
X108780Y-3816D01*
X109502Y-4897D01*
X110584Y-5620D01*
X111860Y-5874D01*
X113136Y-5620D01*
X114218Y-4897D01*
X114855Y-3944D01*
X116070Y-4313D01*
Y-4700D01*
X132340D01*
Y8340D01*
Y21380D01*
X125985D01*
X125499Y22553D01*
X144283Y41338D01*
X145006Y42420D01*
X145260Y43696D01*
X145260Y43696D01*
X145260Y43696D01*
Y43696D01*
Y50375D01*
X163318Y68432D01*
X164040Y69514D01*
X164040Y69514D01*
X164040Y69514D01*
X164294Y70790D01*
Y74578D01*
X165276Y75384D01*
X166370Y75166D01*
X210357D01*
X211205Y74318D01*
X212286Y73596D01*
X213562Y73342D01*
X221232D01*
X222508Y73596D01*
X223590Y74318D01*
X224313Y75400D01*
X224566Y76676D01*
X224313Y77952D01*
X223590Y79033D01*
X222508Y79756D01*
X221232Y80010D01*
X219014D01*
X218258Y81143D01*
X218980Y82224D01*
X219234Y83500D01*
X218980Y84776D01*
X218258Y85857D01*
X217176Y86580D01*
X215900Y86834D01*
X170330D01*
X169054Y86580D01*
X167973Y85857D01*
X167250Y84776D01*
X166996Y83500D01*
X167250Y82224D01*
X167250D01*
X166370Y81834D01*
X165276Y81616D01*
X164294Y82422D01*
Y91149D01*
X169998Y96853D01*
X170720Y97934D01*
X170974Y99210D01*
X170720Y100486D01*
X169998Y101567D01*
X168916Y102290D01*
X167640Y102544D01*
X166364Y102290D01*
X166175Y102164D01*
X165119Y102869D01*
X165244Y103500D01*
X165108Y104184D01*
X165914Y105166D01*
X166370D01*
X167646Y105420D01*
X168727Y106143D01*
X169450Y107224D01*
X169704Y108500D01*
X169450Y109776D01*
X169450Y109776D01*
D01*
X170330Y110166D01*
X171606Y110420D01*
X172687Y111143D01*
X173410Y112224D01*
X173664Y113500D01*
X173410Y114776D01*
X172687Y115857D01*
X171606Y116580D01*
X170330Y116834D01*
X169450Y117224D01*
X169450D01*
X169704Y118500D01*
X169450Y119776D01*
X169709Y120402D01*
X169800Y120420D01*
X170881Y121143D01*
X181736Y131997D01*
X184727D01*
X186003Y132251D01*
X187084Y132974D01*
X192078Y137968D01*
X202597D01*
X235328Y105236D01*
X235811Y104914D01*
X236622Y104103D01*
Y74967D01*
X229759Y68104D01*
X227806D01*
X226530Y67850D01*
X225448Y67127D01*
X224726Y66046D01*
X224472Y64770D01*
X224524Y64505D01*
X223719Y63524D01*
X177862D01*
X175529Y65858D01*
X174447Y66580D01*
X173171Y66834D01*
X170330D01*
X169054Y66580D01*
X167973Y65858D01*
X167250Y64776D01*
X166996Y63500D01*
X167250Y62224D01*
X167250D01*
X166370Y61754D01*
X165094Y61500D01*
X164013Y60778D01*
X163290Y59696D01*
X163036Y58420D01*
X163290Y57144D01*
X164013Y56062D01*
X165094Y55340D01*
X166370Y55086D01*
X166370Y55086D01*
X166370Y55086D01*
X167250Y54776D01*
X166996Y53500D01*
X167250Y52224D01*
X167973Y51143D01*
X170363Y48752D01*
X171445Y48029D01*
X172721Y47776D01*
X236401D01*
X237207Y46794D01*
X236962Y45565D01*
Y32584D01*
X233363D01*
Y10584D01*
X233363D01*
Y10522D01*
X232465Y9624D01*
X227133D01*
Y-6916D01*
Y-23456D01*
X236962D01*
Y-25495D01*
X236683Y-25914D01*
X236198Y-28352D01*
X236683Y-30791D01*
X238064Y-32859D01*
X240131Y-34240D01*
X242570Y-34725D01*
X245009Y-34240D01*
X247076Y-32859D01*
X248086Y-31346D01*
X249302Y-31715D01*
Y-40000D01*
X249506Y-40494D01*
X250000Y-40698D01*
X300531D01*
X301364Y-41657D01*
X300048Y-50980D01*
X296717Y-67724D01*
X292453Y-84254D01*
X287269Y-100520D01*
X281181Y-116469D01*
X274208Y-132051D01*
X266372Y-147219D01*
X257699Y-161923D01*
X248214Y-176117D01*
X237949Y-189758D01*
X226935Y-202801D01*
X215206Y-215206D01*
X202801Y-226935D01*
X189758Y-237949D01*
X179826Y-245423D01*
X178690Y-244856D01*
Y-231400D01*
X152610D01*
Y-247670D01*
X174744D01*
X175113Y-248885D01*
X161923Y-257699D01*
X147219Y-266372D01*
X132051Y-274208D01*
X116469Y-281181D01*
X100520Y-287269D01*
X84254Y-292453D01*
X67724Y-296717D01*
X61680Y-297919D01*
X60698Y-297114D01*
Y-250000D01*
X60494Y-249506D01*
X60000Y-249302D01*
X-60000D01*
X-60494Y-249506D01*
X-60698Y-250000D01*
Y-297114D01*
X-61680Y-297919D01*
X-67724Y-296717D01*
X-84254Y-292453D01*
X-100520Y-287269D01*
X-116469Y-281181D01*
X-132051Y-274208D01*
X-147219Y-266372D01*
X-161923Y-257699D01*
X-176117Y-248214D01*
X-189758Y-237949D01*
X-202801Y-226935D01*
X-215206Y-215206D01*
X-226935Y-202801D01*
X-237949Y-189758D01*
X-248214Y-176117D01*
X-257699Y-161923D01*
X-261492Y-155493D01*
X-260862Y-154390D01*
X-244810D01*
Y-144120D01*
X-261890D01*
Y-152406D01*
X-263115Y-152740D01*
X-266372Y-147219D01*
X-274208Y-132051D01*
X-281181Y-116469D01*
X-287269Y-100520D01*
X-292453Y-84254D01*
X-296717Y-67724D01*
X-300048Y-50980D01*
X-301364Y-41657D01*
X-300531Y-40698D01*
X-261890D01*
Y-40698D01*
Y-41310D01*
X-261890Y-41596D01*
X-261890Y-41596D01*
X-261890D01*
Y-51580D01*
X-244810D01*
Y-41310D01*
X-248701D01*
X-249407Y-40254D01*
X-249302Y-40000D01*
Y-24262D01*
X-248038Y-24137D01*
X-247873Y-24967D01*
X-247150Y-26049D01*
X-247150Y-26049D01*
X-247150Y-26049D01*
X-232522Y-40677D01*
X-233008Y-41850D01*
X-235950D01*
Y-63850D01*
X-219950D01*
Y-51194D01*
X-218840D01*
X-217564Y-50940D01*
X-216483Y-50217D01*
X-215760Y-49136D01*
X-215506Y-47860D01*
X-215760Y-46584D01*
X-216483Y-45503D01*
X-217564Y-44780D01*
X-218840Y-44526D01*
X-219950D01*
Y-41850D01*
X-224616D01*
Y-40534D01*
X-224870Y-39258D01*
X-225592Y-38176D01*
X-241459Y-22310D01*
Y-10841D01*
X-240243Y-10473D01*
X-239848Y-11065D01*
X-238766Y-11788D01*
X-237490Y-12042D01*
X-236214Y-11788D01*
X-235133Y-11065D01*
X-234410Y-9983D01*
X-234156Y-8708D01*
Y-110D01*
X-232490D01*
Y8890D01*
Y17890D01*
X-234156D01*
Y19258D01*
X-234410Y20533D01*
X-235133Y21615D01*
X-236919Y23401D01*
Y43198D01*
X-237172Y44474D01*
X-237895Y45556D01*
X-248308Y55968D01*
Y61284D01*
X-245578D01*
Y75952D01*
X-257706D01*
Y61284D01*
X-254976D01*
Y57875D01*
X-256149Y57389D01*
X-265906Y67146D01*
Y84220D01*
X-259865D01*
X-259589Y84165D01*
X-259312Y84220D01*
X-255115D01*
Y98888D01*
X-257845D01*
Y108493D01*
X-241403Y124936D01*
X-236510D01*
Y123270D01*
X-218510D01*
Y124936D01*
X-215857D01*
X-214582Y125190D01*
X-213500Y125913D01*
X-213500Y125912D01*
X-213500Y125913D01*
X-211936Y127476D01*
X-182702D01*
X-170369Y115142D01*
X-169287Y114420D01*
X-168011Y114166D01*
X-161579D01*
X-160303Y114420D01*
X-159222Y115142D01*
X-158499Y116224D01*
X-158245Y117500D01*
X-158381Y118184D01*
X-157576Y119166D01*
X-153879D01*
X-152604Y119420D01*
X-151522Y120142D01*
X-151522Y120142D01*
X-151522Y120142D01*
X-68719Y202946D01*
X-1569D01*
X-294Y203200D01*
X788Y203923D01*
X14858Y217992D01*
X14858Y217992D01*
X14858Y217992D01*
X15580Y219074D01*
X15834Y220350D01*
Y223720D01*
X15580Y224996D01*
X14858Y226077D01*
X13776Y226800D01*
X12500Y227054D01*
X11224Y226800D01*
X10143Y226077D01*
X9420Y224996D01*
X9198Y223879D01*
X8024Y223393D01*
X7601Y223676D01*
X6326Y223930D01*
X5050Y223676D01*
X3968Y222953D01*
X-4831Y214154D01*
X-71980D01*
X-73256Y213900D01*
X-74338Y213178D01*
X-151376Y136139D01*
X-166463D01*
X-167739Y135885D01*
X-168821Y135162D01*
X-169543Y134081D01*
X-169797Y132805D01*
X-169632Y131975D01*
X-170752Y131377D01*
X-177083Y137708D01*
X-178165Y138430D01*
X-179441Y138684D01*
X-236618D01*
X-237894Y138430D01*
X-238976Y137708D01*
X-240539Y136144D01*
X-244664D01*
X-245940Y135890D01*
X-247022Y135168D01*
X-268077Y114112D01*
X-268800Y113031D01*
X-269053Y111755D01*
Y107630D01*
X-271597Y105086D01*
X-272320Y104004D01*
X-272574Y102728D01*
Y65765D01*
X-272320Y64489D01*
X-271597Y63407D01*
X-271598Y63407D01*
X-271597Y63407D01*
X-250062Y41872D01*
X-250548Y40698D01*
X-300531D01*
X-301364Y41657D01*
X-300048Y50980D01*
X-296717Y67724D01*
X-292453Y84254D01*
X-287269Y100520D01*
X-281181Y116469D01*
X-274208Y132051D01*
X-266372Y147219D01*
X-257699Y161923D01*
X-248214Y176117D01*
X-237949Y189758D01*
X-226935Y202801D01*
X-215206Y215206D01*
X-202801Y226935D01*
X-189758Y237949D01*
X-176117Y248214D01*
X-161923Y257699D01*
X-147219Y266372D01*
X-132051Y274208D01*
X-116469Y281181D01*
X-100520Y287269D01*
X-84254Y292453D01*
X-67724Y296717D01*
X-61680Y297919D01*
X-60698Y297114D01*
D02*
G37*
%LPC*%
G36*
X277876Y-106272D02*
X272161D01*
Y-112622D01*
X277876D01*
Y-106272D01*
D02*
G37*
G36*
X177870Y-108854D02*
X176758Y-109075D01*
X175815Y-109705D01*
X175185Y-110648D01*
X174964Y-111760D01*
X175185Y-112872D01*
X175815Y-113815D01*
X176758Y-114445D01*
X177870Y-114666D01*
X178982Y-114445D01*
X179925Y-113815D01*
X180555Y-112872D01*
X180776Y-111760D01*
X180555Y-110648D01*
X179925Y-109705D01*
X178982Y-109075D01*
X177870Y-108854D01*
D02*
G37*
G36*
X269621Y-106272D02*
X263906D01*
Y-112622D01*
X269621D01*
Y-106272D01*
D02*
G37*
G36*
Y-97382D02*
X263906D01*
Y-103732D01*
X269621D01*
Y-97382D01*
D02*
G37*
G36*
X277876D02*
X272161D01*
Y-103732D01*
X277876D01*
Y-97382D01*
D02*
G37*
G36*
X52180Y-67390D02*
X34180D01*
Y-77390D01*
X34180D01*
X34180Y-78090D01*
X33750Y-78734D01*
X33496Y-80010D01*
Y-83760D01*
X30930D01*
Y-108760D01*
X42930D01*
Y-108760D01*
X42930D01*
X42930Y-108760D01*
X43430D01*
Y-108760D01*
X55430D01*
Y-83760D01*
X52764D01*
Y-80513D01*
X52864Y-80010D01*
X52610Y-78734D01*
X52180Y-78090D01*
X52180Y-77390D01*
X52180D01*
Y-67390D01*
D02*
G37*
G36*
X82363Y-56168D02*
X81087Y-56422D01*
X80005Y-57145D01*
X79282Y-58227D01*
X79029Y-59503D01*
Y-88067D01*
X79282Y-89342D01*
X80005Y-90424D01*
X84610Y-95029D01*
X85259Y-95463D01*
X85692Y-95752D01*
X86968Y-96006D01*
X100565D01*
Y-100006D01*
X103061D01*
Y-100724D01*
X103332Y-102090D01*
X104106Y-103247D01*
X105264Y-104021D01*
X106629Y-104293D01*
X107995Y-104021D01*
X109153Y-103247D01*
X109926Y-102090D01*
X110198Y-100724D01*
Y-100006D01*
X112693D01*
Y-85338D01*
X100565D01*
Y-89338D01*
X88349D01*
X85697Y-86686D01*
Y-59503D01*
X85443Y-58227D01*
X84720Y-57145D01*
X83638Y-56422D01*
X82363Y-56168D01*
D02*
G37*
G36*
X-47800Y-56273D02*
X-58880D01*
Y-60043D01*
X-58340D01*
Y-68503D01*
X-56674D01*
Y-71010D01*
X-58340D01*
Y-80010D01*
Y-89010D01*
X-56334D01*
Y-94314D01*
X-56639Y-94519D01*
X-57755Y-96188D01*
X-58146Y-98158D01*
Y-112382D01*
X-57755Y-114352D01*
X-56639Y-116021D01*
X-54969Y-117137D01*
X-53000Y-117529D01*
X-51030Y-117137D01*
X-49360Y-116021D01*
X-48244Y-114352D01*
X-47853Y-112382D01*
Y-98158D01*
X-48244Y-96188D01*
X-49360Y-94519D01*
X-49665Y-94314D01*
Y-89010D01*
X-48340D01*
Y-82710D01*
X-47640Y-82010D01*
X-47442Y-82010D01*
X-47442Y-82010D01*
Y-82010D01*
X-45640D01*
Y-89010D01*
X-43634D01*
Y-94314D01*
X-43939Y-94519D01*
X-45055Y-96188D01*
X-45446Y-98158D01*
Y-112382D01*
X-45055Y-114352D01*
X-43939Y-116021D01*
X-42269Y-117137D01*
X-40300Y-117529D01*
X-38330Y-117137D01*
X-36660Y-116021D01*
X-35544Y-114352D01*
X-35153Y-112382D01*
Y-98158D01*
X-35544Y-96188D01*
X-36660Y-94519D01*
X-36965Y-94314D01*
Y-89010D01*
X-35640D01*
Y-82010D01*
X-33838D01*
X-33838Y-82010D01*
Y-82010D01*
X-33640Y-82010D01*
X-32940Y-82710D01*
Y-89010D01*
X-30934D01*
Y-94314D01*
X-31239Y-94519D01*
X-32355Y-96188D01*
X-32746Y-98158D01*
Y-112382D01*
X-32355Y-114352D01*
X-31239Y-116021D01*
X-29569Y-117137D01*
X-27599Y-117529D01*
X-25630Y-117137D01*
X-23960Y-116021D01*
X-22844Y-114352D01*
X-22453Y-112382D01*
Y-98158D01*
X-22844Y-96188D01*
X-23960Y-94519D01*
X-24265Y-94314D01*
Y-89010D01*
X-22940D01*
Y-80550D01*
X-22400D01*
Y-76780D01*
X-27940D01*
Y-75510D01*
X-29210D01*
Y-70470D01*
X-32742D01*
X-32742Y-70470D01*
Y-70470D01*
X-33480Y-70470D01*
X-33640Y-70310D01*
Y-69010D01*
X-34435D01*
X-34753Y-67411D01*
X-36134Y-65344D01*
X-38201Y-63963D01*
X-40640Y-63478D01*
X-43079Y-63963D01*
X-45146Y-65344D01*
X-46527Y-67411D01*
X-46845Y-69010D01*
X-47640D01*
Y-71010D01*
X-47640D01*
X-48340D01*
X-48538Y-71010D01*
X-48538Y-71010D01*
Y-71010D01*
X-50006D01*
Y-68503D01*
X-48340D01*
Y-60043D01*
X-47800D01*
Y-56273D01*
D02*
G37*
G36*
X-180260Y-121820D02*
X-206340D01*
Y-126426D01*
X-207513Y-126912D01*
X-209783Y-124642D01*
X-210865Y-123920D01*
X-212141Y-123666D01*
X-213417Y-123920D01*
X-214498Y-124642D01*
X-215221Y-125724D01*
X-215475Y-127000D01*
X-215221Y-128276D01*
X-214498Y-129358D01*
X-208448Y-135407D01*
D01*
X-208448D01*
Y-135407D01*
D01*
X-208448D01*
Y-135408D01*
X-208448D01*
X-208448Y-135408D01*
Y-135408D01*
X-208448Y-135408D01*
Y-135408D01*
X-207367Y-136130D01*
X-206091Y-136384D01*
X-205800D01*
Y-139050D01*
X-180800D01*
Y-127090D01*
X-180260D01*
Y-121820D01*
D02*
G37*
G36*
X9410Y-109720D02*
X-2360D01*
Y-125990D01*
X9410D01*
Y-109720D01*
D02*
G37*
G36*
X88720Y-128530D02*
X76950D01*
Y-144800D01*
X88720D01*
Y-128530D01*
D02*
G37*
G36*
X-244810Y-131310D02*
X-261890D01*
Y-141580D01*
X-244810D01*
Y-131310D01*
D02*
G37*
G36*
X88720Y-109720D02*
X76950D01*
Y-125990D01*
X88720D01*
Y-109720D01*
D02*
G37*
G36*
X-180800Y-89550D02*
X-205800D01*
Y-92216D01*
X-220891D01*
X-222167Y-92470D01*
X-223249Y-93193D01*
X-237308Y-107252D01*
X-238030Y-108333D01*
X-238284Y-109609D01*
X-238030Y-110885D01*
X-237308Y-111967D01*
X-236226Y-112689D01*
X-234950Y-112943D01*
X-233674Y-112689D01*
X-232593Y-111967D01*
X-219510Y-98884D01*
X-205800D01*
Y-101152D01*
X-205800Y-101152D01*
X-205800D01*
X-205800Y-101550D01*
Y-101800D01*
Y-102050D01*
X-205800Y-102448D01*
X-205800Y-102448D01*
X-205800D01*
Y-104716D01*
X-209650D01*
X-210926Y-104970D01*
X-212008Y-105693D01*
X-224901Y-118586D01*
X-251591D01*
X-252867Y-118840D01*
X-253948Y-119563D01*
X-254671Y-120644D01*
X-254925Y-121920D01*
X-254671Y-123196D01*
X-253948Y-124277D01*
X-252867Y-125000D01*
X-251591Y-125254D01*
X-223520D01*
X-222244Y-125000D01*
X-221162Y-124277D01*
X-221162Y-124278D01*
X-221162Y-124277D01*
X-208269Y-111384D01*
X-205800D01*
Y-114010D01*
X-206340D01*
Y-119280D01*
X-180260D01*
Y-114010D01*
X-180800D01*
Y-102448D01*
X-180800Y-102448D01*
D01*
D01*
X-180800Y-102050D01*
Y-101980D01*
Y-101800D01*
X-180800Y-101550D01*
D01*
X-180800Y-101152D01*
X-180800Y-101152D01*
X-180800D01*
Y-89550D01*
D02*
G37*
G36*
X23720Y-109720D02*
X11950D01*
Y-125990D01*
X23720D01*
Y-109720D01*
D02*
G37*
G36*
X74410D02*
X62640D01*
Y-125990D01*
X74410D01*
Y-109720D01*
D02*
G37*
G36*
X-163570Y-56260D02*
X-179840D01*
Y-68030D01*
X-163570D01*
Y-56260D01*
D02*
G37*
G36*
X-144760D02*
X-161030D01*
Y-68030D01*
X-144760D01*
Y-56260D01*
D02*
G37*
G36*
X114897Y-61862D02*
X109563D01*
Y-68466D01*
X114897D01*
Y-61862D01*
D02*
G37*
G36*
X122771D02*
X117437D01*
Y-68466D01*
X122771D01*
Y-61862D01*
D02*
G37*
G36*
X67587Y-53670D02*
X63159D01*
Y-64957D01*
X64070Y-64776D01*
X65918Y-63541D01*
X67153Y-61692D01*
X67587Y-59512D01*
Y-53670D01*
D02*
G37*
G36*
X-254620Y-54120D02*
X-261890D01*
Y-64390D01*
X-254620D01*
Y-54120D01*
D02*
G37*
G36*
X158190Y-55090D02*
X138990D01*
Y-57477D01*
X138404Y-57593D01*
X137247Y-58367D01*
X131077Y-64537D01*
X130303Y-65694D01*
X130031Y-67060D01*
Y-81773D01*
X115587Y-96218D01*
X114813Y-97375D01*
X114541Y-98741D01*
Y-140031D01*
X73777Y-180796D01*
X73003Y-181953D01*
X72731Y-183319D01*
Y-186630D01*
X71038D01*
X71038Y-186630D01*
Y-186630D01*
X70300Y-186630D01*
X70140Y-186090D01*
X69402Y-186090D01*
X69402Y-186090D01*
Y-186090D01*
X64870D01*
Y-199130D01*
Y-212170D01*
X69402D01*
X69402Y-212170D01*
Y-212170D01*
X70140Y-212170D01*
X70300Y-211630D01*
X71038Y-211630D01*
X71038Y-211630D01*
Y-211630D01*
X82300D01*
Y-211630D01*
X82300D01*
X82300Y-211630D01*
X83000D01*
Y-211630D01*
X95000D01*
Y-211630D01*
X95000D01*
X95000Y-211630D01*
X95500D01*
Y-211630D01*
X107302D01*
X107302Y-211630D01*
Y-211630D01*
X107500Y-211630D01*
X107850D01*
X108200D01*
X108398Y-211630D01*
X108398Y-211630D01*
Y-211630D01*
X120002D01*
X120002Y-211630D01*
Y-211630D01*
X120200Y-211630D01*
X120550D01*
X120900D01*
X121098Y-211630D01*
X121098Y-211630D01*
Y-211630D01*
X132702D01*
X132702Y-211630D01*
Y-211630D01*
X132900Y-211630D01*
X133250D01*
X133600D01*
X133798Y-211630D01*
X133798Y-211630D01*
Y-211630D01*
X145600D01*
Y-186630D01*
X143034D01*
Y-185420D01*
X142780Y-184144D01*
X142058Y-183062D01*
X140976Y-182340D01*
X139700Y-182086D01*
X138424Y-182340D01*
X137343Y-183062D01*
X136620Y-184144D01*
X136366Y-185420D01*
Y-186630D01*
X133798D01*
X133798Y-186630D01*
Y-186630D01*
X133600Y-186630D01*
X133250D01*
X132900D01*
X132702Y-186630D01*
X132702Y-186630D01*
Y-186630D01*
X130250D01*
Y-184150D01*
X129978Y-182784D01*
X129205Y-181627D01*
X128047Y-180853D01*
X126681Y-180581D01*
X125316Y-180853D01*
X124158Y-181627D01*
X123384Y-182784D01*
X123113Y-184150D01*
Y-186630D01*
X121098D01*
X121098Y-186630D01*
Y-186630D01*
X120900Y-186630D01*
X120550D01*
X120200D01*
X120002Y-186630D01*
X120002Y-186630D01*
Y-186630D01*
X117769D01*
Y-176838D01*
X139017Y-155590D01*
X158190D01*
Y-143990D01*
D01*
Y-143990D01*
X158190Y-143990D01*
Y-142890D01*
X158190D01*
Y-140424D01*
X177870D01*
X179146Y-140170D01*
X180228Y-139447D01*
X211329Y-108346D01*
X212052Y-107264D01*
X212305Y-105989D01*
X212052Y-104713D01*
X211329Y-103631D01*
X210247Y-102908D01*
X208971Y-102655D01*
X207696Y-102908D01*
X206614Y-103631D01*
X176489Y-133756D01*
X158190D01*
Y-131290D01*
D01*
Y-131290D01*
X158190Y-131290D01*
Y-130190D01*
X158190D01*
Y-118590D01*
X138990D01*
Y-120821D01*
X137230D01*
X135864Y-121093D01*
X134707Y-121867D01*
X129202Y-127371D01*
X128029Y-126885D01*
Y-103148D01*
X139087Y-92090D01*
X158190D01*
Y-80490D01*
D01*
Y-80490D01*
X158190Y-80490D01*
Y-79390D01*
X158190D01*
Y-76924D01*
X159820D01*
X184713Y-101817D01*
X185795Y-102540D01*
X185795Y-102540D01*
X185795Y-102540D01*
D01*
X185795Y-102540D01*
X185795Y-102540D01*
X187071Y-102793D01*
X203529D01*
X204805Y-102540D01*
X205886Y-101817D01*
X206609Y-100735D01*
X206863Y-99459D01*
X206609Y-98183D01*
X205886Y-97102D01*
X204805Y-96379D01*
X203529Y-96125D01*
X188452D01*
X163559Y-71233D01*
X162477Y-70510D01*
X161201Y-70256D01*
X158190D01*
Y-67790D01*
D01*
Y-67790D01*
X158190Y-67790D01*
Y-66690D01*
X158190D01*
Y-55090D01*
D02*
G37*
G36*
X60620Y-53670D02*
X56192D01*
Y-59512D01*
X56626Y-61692D01*
X57861Y-63541D01*
X59709Y-64776D01*
X60620Y-64957D01*
Y-53670D01*
D02*
G37*
G36*
X275490Y-57754D02*
X262990D01*
X260746Y-58200D01*
X258845Y-59471D01*
X257574Y-61373D01*
X257127Y-63617D01*
X257574Y-65860D01*
X258845Y-67762D01*
X260746Y-69033D01*
X262013Y-69285D01*
Y-70555D01*
X260746Y-70807D01*
X258845Y-72078D01*
X257574Y-73980D01*
X257127Y-76223D01*
X257574Y-78467D01*
X258845Y-80369D01*
X260746Y-81640D01*
X262990Y-82086D01*
X275490D01*
X277733Y-81640D01*
X279636Y-80369D01*
X280906Y-78467D01*
X281353Y-76223D01*
X280906Y-73980D01*
X279636Y-72078D01*
X277733Y-70807D01*
X276467Y-70555D01*
Y-69285D01*
X277733Y-69033D01*
X279636Y-67762D01*
X280906Y-65860D01*
X281353Y-63617D01*
X280906Y-61373D01*
X279636Y-59471D01*
X277733Y-58200D01*
X275490Y-57754D01*
D02*
G37*
G36*
X114897Y-71006D02*
X109563D01*
Y-77610D01*
X114897D01*
Y-71006D01*
D02*
G37*
G36*
X-163570Y-70570D02*
X-179840D01*
Y-82340D01*
X-163570D01*
Y-70570D01*
D02*
G37*
G36*
X-144760D02*
X-161030D01*
Y-82340D01*
X-144760D01*
Y-70570D01*
D02*
G37*
G36*
X-60500Y-70470D02*
X-64770D01*
Y-74240D01*
X-60500D01*
Y-70470D01*
D02*
G37*
G36*
X-22400D02*
X-26670D01*
Y-74240D01*
X-22400D01*
Y-70470D01*
D02*
G37*
G36*
X122771Y-71006D02*
X117437D01*
Y-77610D01*
X122771D01*
Y-71006D01*
D02*
G37*
G36*
X102790Y-42109D02*
X92790D01*
Y-51109D01*
Y-60110D01*
X94456D01*
Y-62402D01*
X91027D01*
Y-77070D01*
X103155D01*
Y-62402D01*
X101124D01*
Y-60110D01*
X102790D01*
Y-51109D01*
Y-49944D01*
X104614D01*
X105890Y-49690D01*
X106972Y-48967D01*
X107694Y-47885D01*
X107948Y-46610D01*
X107694Y-45334D01*
X106972Y-44252D01*
X105890Y-43529D01*
X104614Y-43275D01*
X102790D01*
Y-42109D01*
D02*
G37*
G36*
X-146685Y-206375D02*
X-154940D01*
Y-214630D01*
X-146685D01*
Y-206375D01*
D02*
G37*
G36*
X-191270Y-191270D02*
X-212524D01*
X-212214Y-194419D01*
X-210925Y-198667D01*
X-208832Y-202583D01*
X-206015Y-206015D01*
X-202583Y-208832D01*
X-198667Y-210925D01*
X-194419Y-212214D01*
X-191270Y-212524D01*
Y-191270D01*
D02*
G37*
G36*
X178690Y-212590D02*
X152610D01*
Y-228860D01*
X178690D01*
Y-212590D01*
D02*
G37*
G36*
X-146685Y-217170D02*
X-154940D01*
Y-225425D01*
X-146685D01*
Y-217170D01*
D02*
G37*
G36*
X212524Y-191270D02*
X191270D01*
Y-212524D01*
X194419Y-212214D01*
X198667Y-210925D01*
X202583Y-208832D01*
X206015Y-206015D01*
X208832Y-202583D01*
X210925Y-198667D01*
X212214Y-194419D01*
X212524Y-191270D01*
D02*
G37*
G36*
X-35560Y-202620D02*
X-39830D01*
Y-206390D01*
X-35560D01*
Y-202620D01*
D02*
G37*
G36*
X-167476Y-191270D02*
X-188730D01*
Y-212524D01*
X-185581Y-212214D01*
X-181333Y-210925D01*
X-177417Y-208832D01*
X-173985Y-206015D01*
X-171168Y-202583D01*
X-169075Y-198667D01*
X-167786Y-194419D01*
X-167476Y-191270D01*
D02*
G37*
G36*
X188730D02*
X167476D01*
X167786Y-194419D01*
X169075Y-198667D01*
X171168Y-202583D01*
X173985Y-206015D01*
X177417Y-208832D01*
X181333Y-210925D01*
X185581Y-212214D01*
X188730Y-212524D01*
Y-191270D01*
D02*
G37*
G36*
X-13970Y-239520D02*
X-23240D01*
Y-246790D01*
X-13970D01*
Y-239520D01*
D02*
G37*
G36*
X-2160D02*
X-11430D01*
Y-246790D01*
X-2160D01*
Y-239520D01*
D02*
G37*
G36*
X23580Y-231400D02*
X11810D01*
Y-247670D01*
X23580D01*
Y-231400D01*
D02*
G37*
G36*
X37890D02*
X26120D01*
Y-247670D01*
X37890D01*
Y-231400D01*
D02*
G37*
G36*
X23580Y-212590D02*
X11810D01*
Y-228860D01*
X23580D01*
Y-212590D01*
D02*
G37*
G36*
X37890D02*
X26120D01*
Y-228860D01*
X37890D01*
Y-212590D01*
D02*
G37*
G36*
X-13970Y-229710D02*
X-23240D01*
Y-236980D01*
X-13970D01*
Y-229710D01*
D02*
G37*
G36*
X-2160D02*
X-11430D01*
Y-236980D01*
X-2160D01*
Y-229710D01*
D02*
G37*
G36*
X-163570Y-146260D02*
X-179840D01*
Y-158030D01*
X-163570D01*
Y-146260D01*
D02*
G37*
G36*
X-144760D02*
X-161030D01*
Y-158030D01*
X-144760D01*
Y-146260D01*
D02*
G37*
G36*
X-163570Y-160570D02*
X-179840D01*
Y-168638D01*
X-180929Y-169291D01*
X-181333Y-169075D01*
X-185581Y-167786D01*
X-188730Y-167476D01*
Y-188730D01*
X-167476D01*
X-167786Y-185581D01*
X-169075Y-181333D01*
X-171168Y-177417D01*
X-173985Y-173985D01*
X-174532Y-173536D01*
X-174104Y-172340D01*
X-163570D01*
Y-160570D01*
D02*
G37*
G36*
X-66969Y-148593D02*
X-67880Y-148774D01*
X-69728Y-150009D01*
X-70963Y-151858D01*
X-71397Y-154038D01*
Y-159880D01*
X-66969D01*
Y-148593D01*
D02*
G37*
G36*
X23720Y-128530D02*
X11950D01*
Y-144800D01*
X23720D01*
Y-128530D01*
D02*
G37*
G36*
X74410D02*
X62640D01*
Y-144800D01*
X74410D01*
Y-128530D01*
D02*
G37*
G36*
X-219950Y-131850D02*
X-235950D01*
Y-153850D01*
X-219950D01*
Y-147438D01*
X-218762D01*
X-218360Y-147518D01*
X-216604Y-147169D01*
X-215116Y-146174D01*
X-214121Y-144686D01*
X-213772Y-142930D01*
X-214121Y-141174D01*
X-215116Y-139686D01*
X-215196Y-139606D01*
X-216684Y-138611D01*
X-218440Y-138262D01*
X-219950D01*
Y-131850D01*
D02*
G37*
G36*
X9410Y-128530D02*
X-2360D01*
Y-144800D01*
X9410D01*
Y-128530D01*
D02*
G37*
G36*
X-146685Y-180714D02*
X-154940D01*
Y-188969D01*
X-146685D01*
Y-180714D01*
D02*
G37*
G36*
X-191270Y-167476D02*
X-194419Y-167786D01*
X-198667Y-169075D01*
X-202583Y-171168D01*
X-206015Y-173985D01*
X-208832Y-177417D01*
X-210925Y-181333D01*
X-212214Y-185581D01*
X-212524Y-188730D01*
X-191270D01*
Y-167476D01*
D02*
G37*
G36*
X-28750Y-202620D02*
X-33020D01*
Y-206390D01*
X-28750D01*
Y-202620D01*
D02*
G37*
G36*
X-146685Y-191509D02*
X-154940D01*
Y-199764D01*
X-146685D01*
Y-191509D01*
D02*
G37*
G36*
X-66969Y-162420D02*
X-71397D01*
Y-168262D01*
X-70963Y-170442D01*
X-69728Y-172291D01*
X-67880Y-173526D01*
X-66969Y-173707D01*
Y-162420D01*
D02*
G37*
G36*
X-144760Y-160570D02*
X-161030D01*
Y-172340D01*
X-144760D01*
Y-160570D01*
D02*
G37*
G36*
X188730Y-167476D02*
X185581Y-167786D01*
X181333Y-169075D01*
X177417Y-171168D01*
X173985Y-173985D01*
X171168Y-177417D01*
X169075Y-181333D01*
X167786Y-185581D01*
X167476Y-188730D01*
X188730D01*
Y-167476D01*
D02*
G37*
G36*
X191270D02*
Y-188730D01*
X212524D01*
X212214Y-185581D01*
X210925Y-181333D01*
X208832Y-177417D01*
X206015Y-173985D01*
X202583Y-171168D01*
X198667Y-169075D01*
X194419Y-167786D01*
X191270Y-167476D01*
D02*
G37*
G36*
X-244810Y-54120D02*
X-252080D01*
Y-64390D01*
X-244810D01*
Y-54120D01*
D02*
G37*
G36*
X-206430Y114649D02*
X-210200D01*
Y110379D01*
X-206430D01*
Y114649D01*
D02*
G37*
G36*
X57500Y197994D02*
X56224Y197740D01*
X55142Y197017D01*
X54420Y195936D01*
X54166Y194660D01*
Y191420D01*
X54420Y190144D01*
X55089Y189142D01*
X54841Y187897D01*
X54662Y187778D01*
X53940Y186696D01*
X53686Y185420D01*
X53940Y184144D01*
X54662Y183062D01*
X73713Y164013D01*
X74794Y163290D01*
X76070Y163036D01*
X78177D01*
Y153150D01*
X95257D01*
Y158590D01*
X96430Y159076D01*
X119114Y136392D01*
X120195Y135670D01*
X121471Y135416D01*
X140650D01*
X141926Y135670D01*
X143007Y136392D01*
X143730Y137474D01*
X143984Y138750D01*
X143730Y140026D01*
X143007Y141108D01*
X141926Y141830D01*
X140650Y142084D01*
X125458D01*
X124859Y143204D01*
X125012Y143434D01*
X125266Y144710D01*
X125012Y145985D01*
X124290Y147067D01*
X98089Y173267D01*
X97008Y173990D01*
X95732Y174244D01*
X79391D01*
X60834Y192801D01*
Y194660D01*
X60580Y195936D01*
X59858Y197017D01*
X58776Y197740D01*
X57500Y197994D01*
D02*
G37*
G36*
X132340Y111380D02*
X116070D01*
Y99610D01*
X132340D01*
Y111380D01*
D02*
G37*
G36*
X-206430Y107839D02*
X-210200D01*
Y103569D01*
X-206430D01*
Y107839D01*
D02*
G37*
G36*
X-104140Y145565D02*
X-105416Y145311D01*
X-106497Y144588D01*
X-109282Y141804D01*
X-110545Y141929D01*
X-110672Y142119D01*
X-111754Y142841D01*
X-113030Y143095D01*
X-114306Y142841D01*
X-115387Y142119D01*
X-192507Y64998D01*
X-193230Y63917D01*
X-193484Y62641D01*
Y28041D01*
X-196667Y24857D01*
X-197390Y23776D01*
X-197644Y22500D01*
X-197390Y21224D01*
X-196667Y20143D01*
X-195586Y19420D01*
X-194414Y19187D01*
X-193709Y18131D01*
X-193834Y17500D01*
X-193580Y16224D01*
X-192857Y15143D01*
X-191776Y14420D01*
X-190500Y14166D01*
X-189224Y14420D01*
X-188143Y15143D01*
X-183253Y20032D01*
X-182530Y21114D01*
X-182530Y21114D01*
X-182530Y21114D01*
X-182276Y22390D01*
Y59380D01*
X-101783Y139873D01*
X-101060Y140955D01*
X-100806Y142231D01*
X-101060Y143506D01*
X-101783Y144588D01*
X-102864Y145311D01*
X-104140Y145565D01*
D02*
G37*
G36*
X39653Y162987D02*
X37826Y162746D01*
X36123Y162041D01*
X34661Y160919D01*
X33539Y159457D01*
X32834Y157754D01*
X32593Y155927D01*
X32834Y154099D01*
X33539Y152396D01*
X34661Y150934D01*
X36123Y149812D01*
X37826Y149107D01*
X39653Y148866D01*
X41481Y149107D01*
X43184Y149812D01*
X44646Y150934D01*
X45768Y152396D01*
X46473Y154099D01*
X46714Y155927D01*
X46473Y157754D01*
X45768Y159457D01*
X44646Y160919D01*
X43184Y162041D01*
X41481Y162746D01*
X39653Y162987D01*
D02*
G37*
G36*
X85447Y150610D02*
X78177D01*
Y138340D01*
X85447D01*
Y150610D01*
D02*
G37*
G36*
X95257D02*
X87987D01*
Y138340D01*
X95257D01*
Y150610D01*
D02*
G37*
G36*
X115650Y78630D02*
X103880D01*
Y73360D01*
X115650D01*
Y78630D01*
D02*
G37*
G36*
X-243374Y90284D02*
X-248708D01*
Y83680D01*
X-243374D01*
Y90284D01*
D02*
G37*
G36*
X-195580Y125830D02*
X-197407Y125590D01*
X-199110Y124885D01*
X-200572Y123762D01*
X-201695Y122300D01*
X-202400Y120597D01*
X-202640Y118770D01*
Y116109D01*
X-202660D01*
Y114649D01*
X-203890D01*
Y109109D01*
Y103569D01*
X-202660D01*
Y102109D01*
X-202640D01*
Y78880D01*
X-211572Y69948D01*
X-212694Y68485D01*
X-213400Y66782D01*
X-213640Y64955D01*
Y19890D01*
X-219141D01*
Y17890D01*
X-219790D01*
Y17890D01*
X-221456D01*
Y20220D01*
X-221710Y21496D01*
X-222432Y22578D01*
X-229702Y29848D01*
X-230784Y30570D01*
X-232060Y30824D01*
X-233336Y30570D01*
X-234417Y29848D01*
X-235140Y28766D01*
X-235394Y27490D01*
X-235140Y26214D01*
X-234417Y25133D01*
X-228348Y19063D01*
X-228834Y17890D01*
X-229790D01*
Y8890D01*
Y-110D01*
X-219790D01*
Y1056D01*
X-217141D01*
Y-110D01*
X-215475D01*
Y-1442D01*
X-218853D01*
Y-16110D01*
X-206724D01*
Y-1442D01*
X-208807D01*
Y-110D01*
X-207141D01*
Y3537D01*
X-205968Y4023D01*
X-201777Y-168D01*
Y-18110D01*
X-185649D01*
Y-15836D01*
X-182429D01*
X-154353Y-43911D01*
X-152891Y-45033D01*
X-151188Y-45739D01*
X-149361Y-45979D01*
X-109838D01*
Y-176590D01*
X-115510D01*
Y-177165D01*
X-115570D01*
Y-179254D01*
X-134810D01*
Y-180714D01*
X-135890D01*
Y-180714D01*
X-144145D01*
Y-190239D01*
Y-199764D01*
X-135890D01*
Y-199764D01*
X-135708D01*
X-134810Y-200662D01*
Y-201224D01*
X-115570D01*
Y-204915D01*
X-134810D01*
Y-206375D01*
X-135890D01*
Y-206375D01*
X-144145D01*
Y-215900D01*
Y-225425D01*
X-135890D01*
Y-225425D01*
X-135708D01*
X-134810Y-226323D01*
Y-226885D01*
X-115570D01*
Y-247015D01*
X-115510D01*
Y-247590D01*
X-86010D01*
Y-247015D01*
X-45720D01*
Y-181981D01*
X-44547Y-181495D01*
X-40968Y-185073D01*
X-41290Y-185850D01*
X-41290D01*
X-41290Y-185850D01*
Y-198850D01*
X-39830D01*
Y-200080D01*
X-28750D01*
Y-198850D01*
X-27290D01*
Y-189679D01*
X-20769D01*
Y-196250D01*
X-24700D01*
Y-216250D01*
X-700D01*
Y-212509D01*
X1169Y-212137D01*
X3236Y-210756D01*
X4617Y-208689D01*
X5102Y-206250D01*
X4617Y-203811D01*
X3236Y-201744D01*
X1169Y-200363D01*
X-700Y-199991D01*
Y-196250D01*
X-4631D01*
Y-185542D01*
X1811Y-179100D01*
X21210D01*
Y-179070D01*
X37210D01*
Y-179100D01*
X42831D01*
Y-199130D01*
X42900Y-199654D01*
Y-213630D01*
X58900D01*
Y-212170D01*
X62330D01*
Y-199130D01*
Y-186090D01*
X58969D01*
Y-179100D01*
X65210D01*
Y-151100D01*
X37210D01*
Y-151130D01*
X21210D01*
Y-151100D01*
X-6790D01*
Y-164879D01*
X-15452Y-173541D01*
X-22552D01*
Y-173310D01*
X-22552D01*
Y-148990D01*
X-23236D01*
X-23722Y-147817D01*
X-22169Y-146264D01*
X-15160D01*
Y-147430D01*
X-5160D01*
Y-138430D01*
Y-129430D01*
X-15160D01*
Y-130596D01*
X-42490D01*
X-43766Y-130850D01*
X-44847Y-131573D01*
X-55357Y-142082D01*
X-56080Y-143164D01*
X-56334Y-144439D01*
Y-150195D01*
X-56639Y-150399D01*
X-57755Y-152068D01*
X-58146Y-154038D01*
Y-158053D01*
X-58651Y-158809D01*
X-58738Y-159245D01*
X-60002Y-159121D01*
Y-154038D01*
X-60436Y-151858D01*
X-61671Y-150009D01*
X-63519Y-148774D01*
X-64429Y-148593D01*
Y-161150D01*
Y-173707D01*
X-63519Y-173526D01*
X-61671Y-172291D01*
X-60436Y-170442D01*
X-60381Y-170167D01*
X-59117Y-170291D01*
Y-177165D01*
X-86010D01*
Y-176590D01*
X-91682D01*
Y-80883D01*
X-86391D01*
Y-82010D01*
X-84391D01*
Y-89010D01*
X-74391D01*
Y-87844D01*
X-71040D01*
Y-89010D01*
X-69034D01*
Y-94314D01*
X-69339Y-94519D01*
X-70455Y-96188D01*
X-70846Y-98158D01*
Y-112382D01*
X-70455Y-114352D01*
X-69339Y-116021D01*
X-67669Y-117137D01*
X-65700Y-117529D01*
X-63730Y-117137D01*
X-62060Y-116021D01*
X-60944Y-114352D01*
X-60553Y-112382D01*
Y-98158D01*
X-60944Y-96188D01*
X-62060Y-94519D01*
X-62365Y-94314D01*
Y-89010D01*
X-61040D01*
Y-80550D01*
X-60500D01*
Y-76780D01*
X-66040D01*
Y-75510D01*
X-67310D01*
Y-70470D01*
X-71580D01*
D01*
X-71580D01*
X-72391Y-69658D01*
Y-69010D01*
X-86391D01*
Y-70137D01*
X-91682D01*
Y-38919D01*
X-91992Y-36569D01*
X-92899Y-34380D01*
X-94341Y-32500D01*
X-96221Y-31058D01*
X-98411Y-30151D01*
X-100760Y-29841D01*
X-103110Y-30151D01*
X-105299Y-31058D01*
X-106343Y-31859D01*
X-146437D01*
X-174512Y-3783D01*
X-175974Y-2661D01*
X-177677Y-1956D01*
X-179504Y-1715D01*
X-185649D01*
Y558D01*
X-186653D01*
Y1753D01*
X-186893Y3580D01*
X-187599Y5283D01*
X-188721Y6746D01*
X-199520Y17544D01*
Y62031D01*
X-190588Y70963D01*
X-190588Y70963D01*
X-190588Y70963D01*
X-189466Y72425D01*
X-188760Y74128D01*
X-188520Y75955D01*
Y118770D01*
X-188760Y120597D01*
X-189466Y122300D01*
X-190588Y123762D01*
X-192050Y124885D01*
X-193753Y125590D01*
X-195580Y125830D01*
D02*
G37*
G36*
X101340Y78630D02*
X89570D01*
Y73360D01*
X101340D01*
Y78630D01*
D02*
G37*
G36*
X-243374Y99428D02*
X-248708D01*
Y92824D01*
X-243374D01*
Y99428D01*
D02*
G37*
G36*
X-235500D02*
X-240834D01*
Y92824D01*
X-235500D01*
Y99428D01*
D02*
G37*
G36*
Y90284D02*
X-240834D01*
Y83680D01*
X-235500D01*
Y90284D01*
D02*
G37*
G36*
X132340Y97070D02*
X116070D01*
Y85300D01*
X132340D01*
Y97070D01*
D02*
G37*
G36*
X98090Y216961D02*
X92820D01*
Y205191D01*
X98090D01*
Y216961D01*
D02*
G37*
G36*
X176150Y233651D02*
X150070D01*
Y217381D01*
X176150D01*
Y233651D01*
D02*
G37*
G36*
X188730Y212524D02*
X185581Y212214D01*
X181333Y210925D01*
X177417Y208832D01*
X173985Y206015D01*
X171168Y202583D01*
X169075Y198667D01*
X167786Y194419D01*
X167476Y191270D01*
X188730D01*
Y212524D01*
D02*
G37*
G36*
X191270D02*
Y191270D01*
X212524D01*
X212214Y194419D01*
X210925Y198667D01*
X208832Y202583D01*
X206015Y206015D01*
X202583Y208832D01*
X198667Y210925D01*
X194419Y212214D01*
X191270Y212524D01*
D02*
G37*
G36*
X91980Y272588D02*
X88210D01*
Y267048D01*
Y261508D01*
X91980D01*
Y262048D01*
X100440D01*
Y263714D01*
X104140D01*
X105416Y263968D01*
X106497Y264691D01*
X107220Y265772D01*
X107474Y267048D01*
X107220Y268324D01*
X106497Y269406D01*
X105416Y270128D01*
X104140Y270382D01*
X100440D01*
Y272048D01*
X91980D01*
Y272588D01*
D02*
G37*
G36*
X85670D02*
X81900D01*
Y268318D01*
X85670D01*
Y272588D01*
D02*
G37*
G36*
X86150Y233651D02*
X60070D01*
Y217381D01*
X86150D01*
Y233651D01*
D02*
G37*
G36*
X85670Y265778D02*
X81900D01*
Y261508D01*
X85670D01*
Y265778D01*
D02*
G37*
G36*
X-7500Y178594D02*
X-8776Y178340D01*
X-9858Y177617D01*
X-31770Y155705D01*
X-33080Y155878D01*
X-33176Y155910D01*
X-33414Y157717D01*
X-34119Y159420D01*
X-35241Y160882D01*
X-36703Y162004D01*
X-38406Y162710D01*
X-40233Y162950D01*
X-42061Y162710D01*
X-43763Y162004D01*
X-45226Y160882D01*
X-46348Y159420D01*
X-47053Y157717D01*
X-47294Y155890D01*
X-47053Y154063D01*
X-46348Y152360D01*
X-45226Y150898D01*
X-43763Y149775D01*
X-42061Y149070D01*
X-40254Y148832D01*
X-40221Y148736D01*
X-40049Y147426D01*
X-59223Y128252D01*
X-60487Y128377D01*
X-61143Y129358D01*
X-61333Y129485D01*
X-61457Y130748D01*
X-54792Y137413D01*
X-54070Y138495D01*
X-53816Y139770D01*
Y162449D01*
X-49956Y166309D01*
X-49233Y167391D01*
X-48979Y168667D01*
X-49233Y169942D01*
X-49956Y171024D01*
X-51038Y171747D01*
X-52313Y172001D01*
X-53589Y171747D01*
X-54671Y171024D01*
X-59507Y166187D01*
X-60018Y165423D01*
X-67100D01*
Y151883D01*
X-68370D01*
Y150613D01*
X-76910D01*
Y138343D01*
X-71698D01*
X-71212Y137170D01*
X-89886Y118496D01*
X-91150Y118621D01*
X-91622Y119328D01*
X-91812Y119455D01*
X-91937Y120719D01*
X-86543Y126114D01*
X-85820Y127195D01*
X-85566Y128471D01*
X-85820Y129747D01*
X-86543Y130829D01*
X-87624Y131551D01*
X-88900Y131805D01*
X-90176Y131551D01*
X-91257Y130829D01*
X-166252Y55834D01*
X-171266D01*
X-171752Y57007D01*
X-96702Y132057D01*
X-95980Y133139D01*
X-95726Y134415D01*
X-95980Y135690D01*
X-96702Y136772D01*
X-97784Y137495D01*
X-99060Y137749D01*
X-100336Y137495D01*
X-101418Y136772D01*
X-178888Y59302D01*
X-179610Y58221D01*
X-179864Y56945D01*
Y27490D01*
X-179610Y26214D01*
X-178888Y25133D01*
X-178888Y25133D01*
X-178888Y25133D01*
X-163647Y9893D01*
X-162566Y9170D01*
X-161290Y8916D01*
X-160014Y9170D01*
X-158933Y9893D01*
X-158210Y10974D01*
X-157956Y12250D01*
X-158210Y13526D01*
X-158933Y14607D01*
X-167318Y22993D01*
X-166831Y24166D01*
X-155260D01*
X-153984Y24420D01*
X-152902Y25143D01*
X-145462Y32582D01*
X-144247Y32214D01*
X-144050Y31224D01*
X-143328Y30143D01*
X-142246Y29420D01*
X-141074Y29187D01*
X-140369Y28131D01*
X-140494Y27500D01*
X-140240Y26224D01*
X-140240D01*
X-140970Y25834D01*
X-142246Y25580D01*
X-143328Y24857D01*
X-144050Y23776D01*
X-144304Y22500D01*
X-144050Y21224D01*
X-143328Y20143D01*
X-142246Y19420D01*
X-140970Y19166D01*
X-118731D01*
X-117455Y19420D01*
X-116374Y20143D01*
X-116374Y20143D01*
X-116374Y20143D01*
X-77527Y58989D01*
X-76353Y58503D01*
Y57063D01*
X-69583D01*
Y65333D01*
X-69852D01*
X-70338Y66507D01*
X-15282Y121562D01*
X-14560Y122644D01*
X-14306Y123920D01*
X-14560Y125196D01*
X-15282Y126278D01*
X-16364Y127000D01*
X-17640Y127254D01*
X-18916Y127000D01*
X-19998Y126278D01*
X-45782Y100493D01*
X-47045Y100618D01*
X-47172Y100808D01*
X-47362Y100935D01*
X-47487Y102199D01*
X-10217Y139469D01*
X-9495Y140550D01*
X-9241Y141826D01*
X-9495Y143102D01*
X-10217Y144184D01*
X-11299Y144906D01*
X-12575Y145160D01*
X-13851Y144906D01*
X-14933Y144184D01*
X-79700Y79416D01*
X-80964Y79541D01*
X-81462Y80288D01*
X-81841Y80540D01*
X-81965Y81804D01*
X-71302Y92467D01*
X-70580Y93549D01*
X-70326Y94824D01*
X-70326Y94824D01*
X-70326Y94824D01*
Y94824D01*
Y101600D01*
X-70580Y102876D01*
X-71302Y103958D01*
X-72140Y104517D01*
X-72264Y105781D01*
X-5142Y172903D01*
X-4420Y173984D01*
X-4166Y175260D01*
X-4420Y176536D01*
X-5142Y177617D01*
X-6224Y178340D01*
X-7500Y178594D01*
D02*
G37*
G36*
X-191270Y188730D02*
X-212524D01*
X-212214Y185581D01*
X-210925Y181333D01*
X-208832Y177417D01*
X-206015Y173985D01*
X-202583Y171168D01*
X-198667Y169075D01*
X-194419Y167786D01*
X-191270Y167476D01*
Y188730D01*
D02*
G37*
G36*
X-69640Y165423D02*
X-76910D01*
Y153153D01*
X-69640D01*
Y165423D01*
D02*
G37*
G36*
X165100Y157132D02*
X160830D01*
Y153362D01*
X165100D01*
Y157132D01*
D02*
G37*
G36*
X-191270Y212524D02*
X-194419Y212214D01*
X-198667Y210925D01*
X-202583Y208832D01*
X-206015Y206015D01*
X-208832Y202583D01*
X-210925Y198667D01*
X-212214Y194419D01*
X-212524Y191270D01*
X-191270D01*
Y212524D01*
D02*
G37*
G36*
X-188730D02*
Y191270D01*
X-167476D01*
X-167786Y194419D01*
X-169075Y198667D01*
X-171168Y202583D01*
X-173985Y206015D01*
X-177417Y208832D01*
X-181333Y210925D01*
X-185581Y212214D01*
X-188730Y212524D01*
D02*
G37*
G36*
X-167476Y188730D02*
X-188730D01*
Y167476D01*
X-185581Y167786D01*
X-181333Y169075D01*
X-177417Y171168D01*
X-173985Y173985D01*
X-171168Y177417D01*
X-169075Y181333D01*
X-167786Y185581D01*
X-167476Y188730D01*
D02*
G37*
G36*
X212524D02*
X191270D01*
Y167476D01*
X194419Y167786D01*
X198667Y169075D01*
X202583Y171168D01*
X206015Y173985D01*
X208832Y177417D01*
X210925Y181333D01*
X212214Y185581D01*
X212524Y188730D01*
D02*
G37*
G36*
X-47068Y851D02*
X-53672D01*
Y-4483D01*
X-47068D01*
Y851D01*
D02*
G37*
G36*
X-37924D02*
X-44528D01*
Y-4483D01*
X-37924D01*
Y851D01*
D02*
G37*
G36*
Y-7023D02*
X-44528D01*
Y-12357D01*
X-37924D01*
Y-7023D01*
D02*
G37*
G36*
X212090Y37487D02*
X209651Y37002D01*
X207584Y35621D01*
X206203Y33554D01*
X206010Y32584D01*
X203363D01*
Y10584D01*
X214323D01*
Y9624D01*
X214323D01*
Y-5646D01*
X224593D01*
Y9624D01*
X218363D01*
Y10584D01*
X218363D01*
Y30617D01*
X218462Y31115D01*
X218363Y31613D01*
Y32584D01*
X218170D01*
X217977Y33554D01*
X216596Y35621D01*
X214529Y37002D01*
X212090Y37487D01*
D02*
G37*
G36*
X224593Y20314D02*
X219823D01*
Y12044D01*
X224593D01*
Y20314D01*
D02*
G37*
G36*
X231903D02*
X227133D01*
Y12044D01*
X231903D01*
Y20314D01*
D02*
G37*
G36*
X-45705Y16155D02*
X-53960D01*
Y7900D01*
X-45705D01*
Y16155D01*
D02*
G37*
G36*
X-34910D02*
X-43165D01*
Y7900D01*
X-34910D01*
Y16155D01*
D02*
G37*
G36*
X60620Y-39843D02*
X59709Y-40024D01*
X57861Y-41259D01*
X56626Y-43108D01*
X56192Y-45288D01*
Y-51130D01*
X60620D01*
Y-39843D01*
D02*
G37*
G36*
X63159D02*
Y-51130D01*
X67587D01*
Y-45288D01*
X67153Y-43108D01*
X65918Y-41259D01*
X64070Y-40024D01*
X63159Y-39843D01*
D02*
G37*
G36*
X-54610Y-49963D02*
X-58880D01*
Y-53733D01*
X-54610D01*
Y-49963D01*
D02*
G37*
G36*
X-47800D02*
X-52070D01*
Y-53733D01*
X-47800D01*
Y-49963D01*
D02*
G37*
G36*
X224593Y-8186D02*
X214323D01*
Y-23456D01*
X224593D01*
Y-8186D01*
D02*
G37*
G36*
X-47068Y-7023D02*
X-53672D01*
Y-12357D01*
X-47068D01*
Y-7023D01*
D02*
G37*
G36*
X-197187Y-24378D02*
X-209315D01*
Y-39046D01*
X-206585D01*
Y-45153D01*
X-214498Y-53066D01*
X-215221Y-54148D01*
X-215475Y-55423D01*
Y-78689D01*
X-215221Y-79965D01*
X-214498Y-81047D01*
X-213417Y-81770D01*
X-212141Y-82023D01*
X-210865Y-81770D01*
X-209783Y-81047D01*
X-209060Y-79965D01*
X-208807Y-78689D01*
Y-56804D01*
X-200893Y-48891D01*
X-200893Y-48891D01*
X-200893Y-48891D01*
X-200170Y-47809D01*
X-199917Y-46533D01*
Y-39046D01*
X-197187D01*
Y-24378D01*
D02*
G37*
G36*
X-81160Y50324D02*
X-82436Y50070D01*
X-83518Y49348D01*
X-84240Y48266D01*
X-84494Y46990D01*
Y13850D01*
X-84240Y12574D01*
X-83518Y11493D01*
X-66834Y-5191D01*
Y-11320D01*
X-68500D01*
Y-20320D01*
Y-29320D01*
X-58500D01*
Y-28154D01*
X-53132D01*
Y-30893D01*
X-38464D01*
Y-18764D01*
X-53132D01*
Y-21486D01*
X-58500D01*
Y-20320D01*
Y-11320D01*
X-60166D01*
Y-3810D01*
X-60420Y-2534D01*
X-61143Y-1452D01*
X-77826Y15231D01*
Y46990D01*
X-78080Y48266D01*
X-78803Y49348D01*
X-79884Y50070D01*
X-81160Y50324D01*
D02*
G37*
G36*
X-69583Y54523D02*
X-76353D01*
Y46253D01*
X-69583D01*
Y54523D01*
D02*
G37*
G36*
X76437Y54613D02*
X67167D01*
Y46343D01*
X76437D01*
Y54613D01*
D02*
G37*
G36*
X60627Y39370D02*
X54913D01*
Y33020D01*
X60627D01*
Y39370D01*
D02*
G37*
G36*
X68882D02*
X63168D01*
Y33020D01*
X68882D01*
Y39370D01*
D02*
G37*
G36*
X88247Y65423D02*
X78977D01*
Y57153D01*
X88247D01*
Y65423D01*
D02*
G37*
G36*
X64770Y115834D02*
X23600D01*
X22324Y115580D01*
X21242Y114858D01*
X-5659Y87956D01*
X-32218D01*
X-33493Y87703D01*
X-34575Y86980D01*
X-58614Y62941D01*
X-59058Y62277D01*
X-60273Y62645D01*
Y65333D01*
X-67043D01*
Y55793D01*
Y46253D01*
X-61757D01*
Y40800D01*
X-39803D01*
Y40800D01*
X-39803D01*
X-39803Y40800D01*
X-39753D01*
Y40800D01*
X-37624D01*
Y40027D01*
X-37370Y38751D01*
X-36648Y37669D01*
X-35566Y36946D01*
X-34290Y36693D01*
X-33014Y36946D01*
X-31932Y37669D01*
X-31210Y38751D01*
X-30956Y40027D01*
Y40800D01*
X-29327D01*
Y40260D01*
X-24557D01*
Y50800D01*
Y61340D01*
X-29327D01*
Y60800D01*
X-30956D01*
Y65640D01*
X-26518Y70078D01*
X-540D01*
X736Y70332D01*
X1817Y71054D01*
X2540Y72136D01*
X2794Y73412D01*
X2540Y74688D01*
X1817Y75769D01*
X736Y76492D01*
X-540Y76746D01*
X-1538D01*
X-2344Y77727D01*
X-2299Y77952D01*
X-2553Y79228D01*
X-3276Y80309D01*
X-3276Y80309D01*
X-3276D01*
X-3347Y80379D01*
X-3002Y81542D01*
X-1920Y82265D01*
X24981Y109166D01*
X64770D01*
X66046Y109420D01*
X67127Y110142D01*
X67850Y111224D01*
X68104Y112500D01*
X67850Y113776D01*
X67127Y114858D01*
X66046Y115580D01*
X64770Y115834D01*
D02*
G37*
G36*
X88247Y54613D02*
X78977D01*
Y46343D01*
X88247D01*
Y54613D01*
D02*
G37*
G36*
X76437Y65423D02*
X67167D01*
Y57153D01*
X76437D01*
Y65423D01*
D02*
G37*
G36*
X-34910Y26950D02*
X-43165D01*
Y18695D01*
X-34910D01*
Y26950D01*
D02*
G37*
G36*
X224593Y31124D02*
X219823D01*
Y22854D01*
X224593D01*
Y31124D01*
D02*
G37*
G36*
X191770Y26834D02*
X190494Y26580D01*
X189412Y25858D01*
X188690Y24776D01*
X188436Y23500D01*
Y14789D01*
X187263Y14302D01*
X185238Y16328D01*
X184156Y17050D01*
X182880Y17304D01*
X181604Y17050D01*
X180522Y16328D01*
X179800Y15246D01*
X179546Y13970D01*
X179800Y12694D01*
X180522Y11612D01*
X183896Y8239D01*
Y4130D01*
X184150Y2854D01*
X184872Y1772D01*
X184872Y1772D01*
X184872Y1772D01*
X192572Y-5927D01*
Y-43506D01*
X192825Y-44781D01*
X193548Y-45863D01*
X220717Y-73032D01*
Y-84185D01*
X220971Y-85461D01*
X221694Y-86543D01*
X223938Y-88787D01*
X223938D01*
X223938Y-88788D01*
X223938D01*
X223938Y-88788D01*
Y-88788D01*
X223938Y-88788D01*
Y-88788D01*
X225020Y-89510D01*
X226296Y-89764D01*
X227890D01*
Y-92230D01*
X247090D01*
Y-92230D01*
X247298D01*
X248196Y-93128D01*
Y-118730D01*
X247090D01*
Y-118730D01*
X227890D01*
D01*
Y-118730D01*
X227199Y-117061D01*
Y-101485D01*
X226945Y-100209D01*
X226222Y-99128D01*
X216845Y-89751D01*
Y-76351D01*
X216592Y-75075D01*
X215869Y-73994D01*
X188700Y-46825D01*
Y-8911D01*
X188446Y-7635D01*
X187723Y-6554D01*
X180024Y1145D01*
Y3470D01*
X179770Y4746D01*
X179048Y5828D01*
X164268Y20608D01*
X163186Y21330D01*
X161910Y21584D01*
X160634Y21330D01*
X159552Y20608D01*
X158830Y19526D01*
X158576Y18250D01*
X158830Y16974D01*
X159552Y15892D01*
X159085Y14764D01*
X154940D01*
X153664Y14510D01*
X152583Y13787D01*
X152365Y13463D01*
X151150Y13831D01*
Y21380D01*
X134880D01*
Y8340D01*
Y-4700D01*
X151150D01*
Y9029D01*
X152365Y9398D01*
X152583Y9072D01*
X153664Y8350D01*
X154940Y8096D01*
X159909D01*
X168816Y-811D01*
Y-2116D01*
X169070Y-3392D01*
X169792Y-4474D01*
X169792Y-4474D01*
X169792Y-4474D01*
X177492Y-12173D01*
Y-50086D01*
X177745Y-51362D01*
X178468Y-52444D01*
X205637Y-79613D01*
Y-93012D01*
X205891Y-94288D01*
X206614Y-95370D01*
X215991Y-104747D01*
Y-142414D01*
X216245Y-143689D01*
X216967Y-144771D01*
X216967Y-144771D01*
X216967Y-144771D01*
X224484Y-152288D01*
X225565Y-153010D01*
X226841Y-153264D01*
X227890D01*
Y-155730D01*
X247090D01*
Y-144130D01*
D01*
Y-144130D01*
X247090Y-144130D01*
Y-143030D01*
X247090D01*
Y-140564D01*
X248660D01*
X249936Y-140310D01*
X251017Y-139587D01*
X251018Y-139588D01*
X251017Y-139587D01*
X253888Y-136718D01*
X254610Y-135636D01*
X254864Y-134360D01*
Y-112082D01*
X261334D01*
Y-97922D01*
X254864D01*
Y-73730D01*
Y-58680D01*
X254610Y-57404D01*
X253888Y-56322D01*
X247278Y-49713D01*
X246196Y-48990D01*
X244920Y-48736D01*
X220616D01*
X208320Y-36439D01*
Y-785D01*
X208066Y491D01*
X207343Y1573D01*
X200184Y8732D01*
Y15757D01*
X199930Y17033D01*
X199207Y18115D01*
X198126Y18837D01*
X196850Y19091D01*
X196086Y18939D01*
X195104Y19745D01*
Y23500D01*
X194850Y24776D01*
X194128Y25858D01*
X193046Y26580D01*
X191770Y26834D01*
D02*
G37*
G36*
X-45705Y26950D02*
X-53960D01*
Y18695D01*
X-45705D01*
Y26950D01*
D02*
G37*
G36*
X68882Y30480D02*
X63168D01*
Y24130D01*
X68882D01*
Y30480D01*
D02*
G37*
G36*
X196420Y45500D02*
X183420D01*
Y43500D01*
X176420D01*
Y41834D01*
X170730D01*
X169454Y41580D01*
X168372Y40858D01*
X167650Y39776D01*
X167396Y38500D01*
X167650Y37224D01*
X168372Y36142D01*
X169454Y35420D01*
X170730Y35166D01*
X176420D01*
Y33500D01*
X183420D01*
Y31500D01*
X196420D01*
Y31768D01*
X198654Y32213D01*
X200721Y33594D01*
X202102Y35661D01*
X202587Y38100D01*
X202102Y40539D01*
X200721Y42606D01*
X198654Y43987D01*
X196420Y44432D01*
Y45500D01*
D02*
G37*
G36*
X231903Y31124D02*
X227133D01*
Y22854D01*
X231903D01*
Y31124D01*
D02*
G37*
G36*
X60627Y30480D02*
X54913D01*
Y24130D01*
X60627D01*
Y30480D01*
D02*
G37*
%LPD*%
D10*
X77899Y31750D02*
D03*
X61898D02*
D03*
X254889Y-105002D02*
D03*
X270891D02*
D03*
D11*
X-63500Y-15820D02*
D03*
Y-24820D02*
D03*
X97790Y-46610D02*
D03*
Y-55609D02*
D03*
X77470Y-1960D02*
D03*
Y7040D02*
D03*
X-53340Y-84510D02*
D03*
Y-75510D02*
D03*
Y-64003D02*
D03*
Y-55003D02*
D03*
X-224790Y4390D02*
D03*
Y13390D02*
D03*
X-212141Y4390D02*
D03*
Y13390D02*
D03*
X-27940Y-84510D02*
D03*
Y-75510D02*
D03*
X-34290Y-192350D02*
D03*
Y-201350D02*
D03*
X-10160Y-142930D02*
D03*
Y-133930D02*
D03*
X166370Y152092D02*
D03*
Y143092D02*
D03*
X-66040Y-84510D02*
D03*
Y-75510D02*
D03*
X-79391Y-84510D02*
D03*
Y-75510D02*
D03*
X-40640Y-84510D02*
D03*
Y-75510D02*
D03*
X-237490Y13390D02*
D03*
Y4390D02*
D03*
D17*
X189920Y38500D02*
D03*
X180920D02*
D03*
X-205160Y109109D02*
D03*
X-196160D02*
D03*
X-232010Y128270D02*
D03*
X-223011D02*
D03*
X95940Y267048D02*
D03*
X86940D02*
D03*
X38680Y-72390D02*
D03*
X47680D02*
D03*
X14550D02*
D03*
X23550D02*
D03*
D25*
X161290Y11430D02*
X172150Y570D01*
Y-2116D02*
Y570D01*
X176690Y-236D02*
X185366Y-8911D01*
X176690Y-236D02*
Y3470D01*
X161910Y18250D02*
X176690Y3470D01*
X182880Y13970D02*
X187230Y9620D01*
Y4130D02*
Y9620D01*
X191770Y6011D02*
Y23500D01*
Y6011D02*
X200446Y-2665D01*
X195906Y-43506D02*
Y-4546D01*
X200446Y-40426D02*
Y-2665D01*
X180826Y-50086D02*
Y-10792D01*
X172150Y-2116D02*
X180826Y-10792D01*
X185366Y-48206D02*
Y-8911D01*
X187230Y4130D02*
X195906Y-4546D01*
X204986Y-37820D02*
Y-785D01*
X196850Y7351D02*
X204986Y-785D01*
X196850Y7351D02*
Y15757D01*
X-269240Y65765D02*
Y102728D01*
Y65765D02*
X-244793Y41318D01*
Y-23691D02*
Y41318D01*
X-240253Y22020D02*
Y43198D01*
X-251642Y54587D02*
X-240253Y43198D01*
X-251642Y54587D02*
Y68618D01*
X-239158Y132810D02*
X-236618Y135350D01*
X-244664Y132810D02*
X-239158D01*
X-265719Y111755D02*
X-244664Y132810D01*
X-265719Y106249D02*
Y111755D01*
X-269240Y102728D02*
X-265719Y106249D01*
X-242784Y128270D02*
X-232010D01*
X-261179Y109874D02*
X-242784Y128270D01*
X-261179Y91554D02*
Y109874D01*
X-236618Y135350D02*
X-179441D01*
X-149995Y132805D02*
X-71980Y210820D01*
X-166463Y132805D02*
X-149995D01*
X-128371Y47500D02*
X-78740Y97132D01*
X20320Y56257D02*
X20697Y55880D01*
X20320Y56257D02*
Y62230D01*
X231140Y64770D02*
X239956Y73586D01*
X227806Y64770D02*
X231140D01*
X93851Y166370D02*
X121471Y138750D01*
X140650D01*
X111860Y203921D02*
Y218225D01*
X57500Y191420D02*
X78010Y170910D01*
X57500Y191420D02*
Y194660D01*
X57020Y185420D02*
X76070Y166370D01*
X154963Y171790D02*
X161383D01*
X181591Y154063D02*
X189812Y145842D01*
X179111Y154063D02*
X181591D01*
X161383Y171790D02*
X179111Y154063D01*
X183324Y158750D02*
X191693Y150382D01*
X180844Y158750D02*
X183324D01*
X162334Y177260D02*
X180844Y158750D01*
X-27899Y73412D02*
X-540D01*
X-34290Y67021D02*
X-27899Y73412D01*
X-45501Y62230D02*
X-29779Y77952D01*
X-5634D01*
X-133270Y106680D02*
X-124705Y115245D01*
X-181070Y58880D02*
X-133270Y106680D01*
X-81160Y13850D02*
X-63500Y-3810D01*
X-81160Y13850D02*
Y46990D01*
X-100070Y-75510D02*
X-79391D01*
X-237490Y-8708D02*
Y4390D01*
X-203251Y-46533D02*
Y-31712D01*
X-212141Y-55423D02*
X-203251Y-46533D01*
X-212141Y-78689D02*
Y-55423D01*
X213511Y-91132D02*
X223865Y-101485D01*
Y-119932D02*
Y-101485D01*
Y-119932D02*
X228463Y-124530D01*
X208971Y-93012D02*
X219325Y-103366D01*
Y-142414D02*
Y-103366D01*
Y-142414D02*
X226841Y-149930D01*
X141926Y43696D02*
Y51756D01*
X122120Y23890D02*
X141926Y43696D01*
X116700Y23890D02*
X122120D01*
X141926Y51756D02*
X160960Y70790D01*
X111860Y19050D02*
X116700Y23890D01*
X111860Y-2540D02*
Y19050D01*
X209780Y154922D02*
X253576Y111126D01*
X193996Y154922D02*
X209780D01*
X185522Y163396D02*
X193996Y154922D01*
X207899Y150382D02*
X249036Y109245D01*
X191693Y150382D02*
X207899D01*
X208351Y143510D02*
X244496Y107365D01*
X189812Y145842D02*
X205859D01*
X208190Y143510D01*
X208351D01*
X190697Y141302D02*
X203978D01*
X184727Y135331D02*
X190697Y141302D01*
X180355Y135331D02*
X184727D01*
X168524Y123500D02*
X180355Y135331D01*
X203978Y141302D02*
X237686Y107594D01*
X237846D02*
X239956Y105484D01*
X161910Y123500D02*
X168524D01*
X237686Y107594D02*
X237846D01*
X209790Y21590D02*
X212090Y23890D01*
Y31115D01*
X-34290Y40027D02*
Y67021D01*
X-45501Y50998D02*
Y62230D01*
X95940Y267048D02*
X104140D01*
X213562Y76676D02*
X221232D01*
X211738Y78500D02*
X213562Y76676D01*
X166370Y78500D02*
X211738D01*
X36490Y3480D02*
Y15322D01*
X20697Y31115D02*
X36490Y15322D01*
X9737Y31115D02*
X20697D01*
X36490Y3480D02*
X49190D01*
X-32218Y84622D02*
X-16042D01*
X-56257Y60583D02*
X-32218Y84622D01*
X-56257Y50800D02*
Y60583D01*
X31750Y53340D02*
Y63685D01*
X20156Y75279D02*
X31750Y63685D01*
X14859Y75279D02*
X20156D01*
X-4278Y84622D02*
X23600Y112500D01*
X-16042Y84622D02*
X-4278D01*
X23600Y112500D02*
X64770D01*
X-12641Y62230D02*
Y62500D01*
Y51121D02*
Y62230D01*
X23790Y-3810D02*
Y3480D01*
X17500Y-3810D02*
X23790D01*
X77470Y7040D02*
Y12700D01*
X65450Y7040D02*
X77470D01*
Y-15930D02*
Y-1960D01*
X160490Y108500D02*
X166370D01*
X151880Y85911D02*
Y99890D01*
X160490Y108500D01*
X156420Y84030D02*
Y98010D01*
X161910Y103500D01*
X160960Y70790D02*
Y92530D01*
X167640Y99210D01*
X-223520Y-121920D02*
X-209650Y-108050D01*
X-193300D01*
X-251591Y-121920D02*
X-223520D01*
X-206091Y-133050D02*
X-193300D01*
X-212141Y-127000D02*
X-206091Y-133050D01*
X78740Y-25400D02*
Y-17200D01*
Y-25400D02*
X81280Y-27940D01*
Y-38919D02*
Y-27940D01*
X47680Y-78160D02*
Y-72390D01*
Y-78160D02*
X49530Y-80010D01*
X38680Y-78160D02*
Y-72390D01*
X36830Y-80010D02*
X38680Y-78160D01*
X49430Y-96260D02*
Y-80110D01*
X49530Y-80010D01*
X36830Y-96160D02*
Y-80010D01*
Y-96160D02*
X36930Y-96260D01*
X139600Y-199130D02*
X139700Y-199030D01*
Y-185420D01*
X14550Y-79262D02*
Y-72390D01*
X-22826Y-15326D02*
X-3134D01*
X-22861Y-15291D02*
X-22826Y-15326D01*
X-3134D02*
X14550Y-33010D01*
Y-72390D02*
Y-33010D01*
X23550Y-72390D02*
Y-52639D01*
X97790Y-46610D02*
X104614D01*
X125730Y-17200D02*
X133350D01*
X96240Y34590D02*
X102610D01*
X77851D02*
X96240D01*
X93980Y32330D02*
X96240Y34590D01*
X93980Y-17200D02*
Y32330D01*
Y-17200D02*
X110490D01*
X97790Y-69037D02*
Y-55609D01*
X86968Y-92672D02*
X106629D01*
X82363Y-88067D02*
X86968Y-92672D01*
X82363Y-88067D02*
Y-59503D01*
X49190Y-52400D02*
X49530Y-52059D01*
Y-22601D01*
X36490Y-52400D02*
Y-22601D01*
X-63500Y-15820D02*
Y-3810D01*
Y-24820D02*
X-45806D01*
X-259589Y87499D02*
Y91554D01*
X-213317Y130810D02*
X-181321D01*
X-215857Y128270D02*
X-213317Y130810D01*
X-223011Y128270D02*
X-215857D01*
X-212141Y13390D02*
X-207810D01*
X-212789Y-8776D02*
X-212141Y-8128D01*
Y4390D01*
X-224790D02*
X-212141D01*
X-42490Y-133930D02*
X-10160D01*
X-53000Y-144439D02*
X-42490Y-133930D01*
X-53000Y-161150D02*
Y-144439D01*
X-27599Y-161150D02*
Y-146980D01*
X-23550Y-142930D01*
X-10160D01*
X-53340Y-75510D02*
Y-64003D01*
X-27599Y-105270D02*
Y-84851D01*
X-40300Y-105270D02*
Y-84851D01*
X-53000Y-105270D02*
Y-84851D01*
X-79391Y-84510D02*
X-66040D01*
X-65700Y-105270D02*
Y-84851D01*
X-12641Y51121D02*
X-12320Y50800D01*
X9737Y40027D02*
Y50800D01*
X19050Y43720D02*
X20697Y45367D01*
X-121901Y32500D02*
X-12575Y141826D01*
X-57150Y139770D02*
Y163830D01*
X-52313Y168667D01*
X-171521Y32500D02*
X-158000D01*
X-63500Y127000D01*
X-159420Y37500D02*
X-57150Y139770D01*
X-190150Y62641D02*
X-113030Y139761D01*
X-190150Y26660D02*
Y62641D01*
X-176530Y56945D02*
X-99060Y134415D01*
X-176530Y27490D02*
Y56945D01*
X-164871Y52500D02*
X-88900Y128471D01*
X-171521Y52500D02*
X-164871D01*
X-124250Y37500D02*
X-83820Y77930D01*
X-137160Y37500D02*
X-124250D01*
X-120480Y27500D02*
X-49530Y98450D01*
X-118731Y22500D02*
X-75168Y66063D01*
X-163451Y47500D02*
X-93980Y116971D01*
X-167640Y47500D02*
X-163451D01*
X-161167Y42500D02*
X-68580Y135087D01*
X-171521Y42500D02*
X-161167D01*
X-167640Y37500D02*
X-159420D01*
X-125984Y42500D02*
X-73660Y94824D01*
Y101600D01*
X-140970Y22500D02*
X-118731D01*
X-75168Y66392D02*
X-17640Y123920D01*
X-75168Y66063D02*
Y66392D01*
X-155260Y27500D02*
X-7500Y175260D01*
X-167640Y27500D02*
X-155260D01*
X-133270Y42500D02*
X-125984D01*
X-140970Y32500D02*
X-121901D01*
X-137160Y27500D02*
X-120480D01*
X170730Y38500D02*
X180920D01*
X189230Y38100D02*
X196160D01*
X170330Y83500D02*
X215900D01*
X125560Y59590D02*
X151880Y85911D01*
X119480Y47090D02*
X156420Y84030D01*
X102610Y59590D02*
X125560D01*
X102610Y47090D02*
X119480D01*
X155990Y116110D02*
X158600Y113500D01*
X170330D01*
X113519Y116110D02*
X155990D01*
X96425Y99016D02*
X113519Y116110D01*
X82550Y107105D02*
X105892Y130447D01*
X82550Y95250D02*
Y107105D01*
X105892Y130447D02*
X154197D01*
X157249Y133500D01*
X170330D01*
X78010Y170910D02*
X95732D01*
X76070Y166370D02*
X93851D01*
X95732Y170910D02*
X121932Y144710D01*
X96425Y89872D02*
Y99016D01*
X209534Y21846D02*
X209790Y21590D01*
X157870Y120650D02*
X160020Y118500D01*
X113030Y120650D02*
X157870D01*
X156077Y125907D02*
X159060Y128890D01*
X107773Y125907D02*
X156077D01*
X160020Y118500D02*
X166370D01*
X159060Y128890D02*
X166370D01*
X253576Y67260D02*
Y111126D01*
X249036Y69141D02*
Y109245D01*
X244496Y71021D02*
Y107365D01*
X239956Y73586D02*
Y105484D01*
X237425Y51109D02*
X253576Y67260D01*
X235544Y55649D02*
X249036Y69141D01*
X233664Y60189D02*
X244496Y71021D01*
X176481Y60189D02*
X233664D01*
X174601Y55649D02*
X235544D01*
X172721Y51109D02*
X237425D01*
X173171Y63500D02*
X176481Y60189D01*
X171831Y58420D02*
X174601Y55649D01*
X170330Y53500D02*
X172721Y51109D01*
X170330Y63500D02*
X173171D01*
X166370Y58420D02*
X171831D01*
X124360Y203921D02*
Y218225D01*
X187071Y-99459D02*
X203529D01*
X161201Y-73590D02*
X187071Y-99459D01*
X148590Y-73590D02*
X161201D01*
X177870Y-137090D02*
X208971Y-105989D01*
X148590Y-137090D02*
X177870D01*
X251530Y-73730D02*
Y-58680D01*
X244920Y-52070D02*
X251530Y-58680D01*
X219235Y-52070D02*
X244920D01*
X204986Y-37820D02*
X219235Y-52070D01*
X224051Y-84185D02*
Y-71651D01*
X195906Y-43506D02*
X224051Y-71651D01*
X213511Y-91132D02*
Y-76351D01*
X185366Y-48206D02*
X213511Y-76351D01*
X208971Y-93012D02*
Y-78232D01*
X180826Y-50086D02*
X208971Y-78232D01*
X226296Y-86430D02*
X237490D01*
X224051Y-84185D02*
X226296Y-86430D01*
X220009Y-59989D02*
X236432D01*
X237490Y-61047D01*
X200446Y-40426D02*
X220009Y-59989D01*
X154940Y11430D02*
X161290D01*
X226841Y-149930D02*
X237490D01*
X228463Y-124530D02*
X237490D01*
X251530Y-134360D02*
Y-73730D01*
X248660Y-137230D02*
X251530Y-134360D01*
X237490Y-137230D02*
X248660D01*
X237490Y-73730D02*
X251530D01*
X-227950Y-52850D02*
Y-40534D01*
X-244793Y-23691D02*
X-227950Y-40534D01*
X-224790Y13390D02*
Y20220D01*
X-232060Y27490D02*
X-224790Y20220D01*
X-237490Y13390D02*
Y19258D01*
X-240253Y22020D02*
X-237490Y19258D01*
X-171591Y127500D02*
X-161579D01*
X-179441Y135350D02*
X-171591Y127500D01*
X-181321Y130810D02*
X-168011Y117500D01*
X-161579D01*
X-227950Y-52850D02*
X-222960Y-47860D01*
X-218840D01*
X-220891Y-95550D02*
X-193300D01*
X-234950Y-109609D02*
X-220891Y-95550D01*
X-181070Y9620D02*
Y58880D01*
Y9620D02*
X-177800Y6350D01*
X-71980Y210820D02*
X-3450D01*
X-153879Y122500D02*
X-70100Y206280D01*
X-166463Y122500D02*
X-153879D01*
X12500Y220350D02*
Y223720D01*
X-70100Y206280D02*
X-1569D01*
X12500Y220350D01*
X-3450Y210820D02*
X6326Y220595D01*
X-176530Y27490D02*
X-161290Y12250D01*
X-185610Y22390D02*
Y60760D01*
X-194310Y22500D02*
X-190150Y26660D01*
X-185610Y60760D02*
X-104140Y142231D01*
X-190500Y17500D02*
X-185610Y22390D01*
D26*
X118110Y-98741D02*
X133600Y-83251D01*
X118110Y-141509D02*
Y-98741D01*
X76300Y-183319D02*
X118110Y-141509D01*
X133600Y-67060D02*
X139770Y-60890D01*
X133600Y-83251D02*
Y-67060D01*
X260028Y63023D02*
Y114504D01*
X242570Y45565D02*
X260028Y63023D01*
X242570Y23291D02*
Y45565D01*
X240863Y21584D02*
X242570Y23291D01*
X240330Y21050D02*
X242570Y18810D01*
Y-28352D02*
Y18810D01*
X243722Y130810D02*
X260028Y114504D01*
X124460Y-101670D02*
X139840Y-86290D01*
X124460Y-144780D02*
Y-101670D01*
X89000Y-180240D02*
X124460Y-144780D01*
X130810Y-130810D02*
X137230Y-124390D01*
X130810Y-147869D02*
Y-130810D01*
X101500Y-177179D02*
X130810Y-147869D01*
X137230Y-124390D02*
X148590D01*
X139770Y-149790D02*
X148590D01*
X114200Y-175360D02*
X139770Y-149790D01*
X114200Y-199130D02*
Y-175360D01*
X89000Y-199130D02*
Y-180240D01*
X76300Y-199130D02*
Y-183319D01*
X-34290Y-192350D02*
Y-180340D01*
X-40640Y-160809D02*
Y-147320D01*
Y-75510D02*
Y-69850D01*
X-12700Y-206250D02*
X-1270D01*
X106629Y-100724D02*
Y-92672D01*
X126681Y-198911D02*
X126900Y-199130D01*
X126681Y-198911D02*
Y-184150D01*
X139770Y-60890D02*
X148590D01*
X139840Y-86290D02*
X148590D01*
X101500Y-199130D02*
Y-177179D01*
D27*
X90170Y185420D02*
X119380D01*
X68140Y207450D02*
X90170Y185420D01*
X36830Y207450D02*
X68140D01*
X156591Y143129D02*
X182880D01*
X61890Y-17200D02*
X78740D01*
X5644Y-13970D02*
X58660D01*
X-1270Y-7056D02*
X5644Y-13970D01*
X23790Y-52400D02*
Y-14310D01*
X58660Y-13970D02*
X61890Y-17200D01*
X-1270Y-7056D02*
Y2000D01*
X-22505Y17425D02*
X-1270D01*
X-1280Y17435D02*
Y50800D01*
X-149361Y-38919D02*
X-100760D01*
X-179504Y-8776D02*
X-149361Y-38919D01*
X-193713Y-8776D02*
X-179504D01*
X-206580Y14620D02*
Y64955D01*
X-193713Y-8776D02*
Y1753D01*
X-205930Y13970D02*
X-193713Y1753D01*
X-206580Y64955D02*
X-195580Y75955D01*
X119380Y185420D02*
X136312D01*
X136860Y185968D02*
Y203921D01*
Y162860D02*
Y185968D01*
X136312Y185420D02*
X136860Y185968D01*
Y162860D02*
X156591Y143129D01*
X-195580Y75955D02*
Y118770D01*
X27500Y191060D02*
Y198120D01*
X36830Y207450D01*
Y223520D01*
X-117784Y222448D02*
X-104650Y235582D01*
X24768D01*
X36830Y223520D01*
D28*
X-100760Y-212090D02*
Y-38919D01*
X-123825Y-190239D02*
X-101021D01*
X-123825Y-215900D02*
X-104570D01*
D29*
X-227950Y-142850D02*
X-218440D01*
X-218360Y-142930D01*
X-66040Y-84510D02*
X-65700Y-84851D01*
X-229830Y-140970D02*
X-227950Y-142850D01*
D30*
X181960Y1947D02*
X190636Y-6729D01*
X181960Y1947D02*
Y5653D01*
X162160Y25453D02*
X181960Y5653D01*
X190636Y-46023D02*
Y-6729D01*
X218781Y-88949D02*
X229870Y-100037D01*
Y-102870D02*
Y-100037D01*
X-199580Y19127D02*
X-186803Y6350D01*
X-199580Y19127D02*
Y62056D01*
X-166370Y95266D01*
X162160Y25453D02*
Y38500D01*
X218781Y-88949D02*
Y-74169D01*
X190636Y-46023D02*
X218781Y-74169D01*
X-186803Y6350D02*
X-177800D01*
D31*
X-40233Y155890D02*
D03*
X39653Y155927D02*
D03*
D32*
X269240Y-76223D02*
D03*
Y-63617D02*
D03*
D33*
X-190000Y190000D02*
D03*
X190000D02*
D03*
Y-190000D02*
D03*
X-190000D02*
D03*
D34*
X288036Y-77470D02*
D03*
X288290Y-50800D02*
D03*
X-133270Y106680D02*
D03*
X-237490Y-8708D02*
D03*
X-193834Y-69850D02*
D03*
X6403Y-222250D02*
D03*
X6350Y-241300D02*
D03*
X-31750D02*
D03*
Y-222250D02*
D03*
X209550Y-120650D02*
D03*
X242570Y-28352D02*
D03*
X243722Y130810D02*
D03*
X205886Y90573D02*
D03*
Y69118D02*
D03*
Y108500D02*
D03*
X202801Y113030D02*
D03*
X154963Y171790D02*
D03*
X176530Y143129D02*
D03*
X-100760Y-48260D02*
D03*
X-294Y-31750D02*
D03*
X93851Y-33010D02*
D03*
X66110Y-87311D02*
D03*
X24196Y-88900D02*
D03*
X-6350Y-108346D02*
D03*
X37250Y-121920D02*
D03*
X77851Y-155590D02*
D03*
X262013Y-121920D02*
D03*
X208066Y-154940D02*
D03*
X169054Y-151130D02*
D03*
X148590Y-107264D02*
D03*
X177870Y-111760D02*
D03*
X221694Y-177800D02*
D03*
X184150Y-76223D02*
D03*
X164691Y-31750D02*
D03*
X158342Y-6910D02*
D03*
X133212Y-37820D02*
D03*
X224790Y-34380D02*
D03*
X63500Y56062D02*
D03*
X104140Y18939D02*
D03*
X102015Y115570D02*
D03*
X127000Y80540D02*
D03*
X-166252Y107950D02*
D03*
X-224790Y115142D02*
D03*
X-165079Y60583D02*
D03*
X-114300Y111142D02*
D03*
X-118731Y146050D02*
D03*
X-49360D02*
D03*
X-31565Y175260D02*
D03*
X-62230Y105781D02*
D03*
X-35241Y133350D02*
D03*
X-35544Y-1270D02*
D03*
X-49142Y81280D02*
D03*
X-63500Y28758D02*
D03*
X-98411Y12700D02*
D03*
X-120650D02*
D03*
X104140Y267048D02*
D03*
X9737Y31115D02*
D03*
X14859Y75279D02*
D03*
X-540Y73412D02*
D03*
X-5634Y77952D02*
D03*
X-16042Y84622D02*
D03*
X64770Y112500D02*
D03*
X17500Y-3810D02*
D03*
X77470Y12700D02*
D03*
X167640Y99210D02*
D03*
X-212141Y-127000D02*
D03*
X-218360Y-142930D02*
D03*
X81280Y-38919D02*
D03*
X49530Y-80010D02*
D03*
X36830D02*
D03*
X139700Y-185420D02*
D03*
X14550Y-79262D02*
D03*
X104614Y-46610D02*
D03*
X82363Y-59503D02*
D03*
X49530Y-22601D02*
D03*
X36490D02*
D03*
X-1270Y-7056D02*
D03*
X-100760Y-38919D02*
D03*
X-149409D02*
D03*
X-40640Y-147320D02*
D03*
Y-69850D02*
D03*
X-81160Y46990D02*
D03*
X-12641Y62230D02*
D03*
X9737Y40027D02*
D03*
X20320Y62230D02*
D03*
X-34290Y40027D02*
D03*
X-45501Y62230D02*
D03*
X-93980Y116971D02*
D03*
X-68580Y135087D02*
D03*
X-63500Y127000D02*
D03*
X-52313Y168667D02*
D03*
X-17500Y123780D02*
D03*
X-49530Y98450D02*
D03*
X-12500Y141751D02*
D03*
X-7500Y175260D02*
D03*
X170730Y38500D02*
D03*
X196215Y38100D02*
D03*
X119380Y185420D02*
D03*
X111860Y-2540D02*
D03*
X161910Y103500D02*
D03*
X166370Y108500D02*
D03*
X82550Y95250D02*
D03*
X121932Y144710D02*
D03*
X140650Y138750D02*
D03*
X57020Y185420D02*
D03*
X133350Y-17200D02*
D03*
X212090Y31115D02*
D03*
X107773Y125907D02*
D03*
X113030Y120650D02*
D03*
X185522Y163396D02*
D03*
X161910Y123500D02*
D03*
X170330Y63500D02*
D03*
X221232Y76676D02*
D03*
X166370Y78500D02*
D03*
X215900Y83500D02*
D03*
X170330D02*
D03*
X227806Y64770D02*
D03*
X111860Y218225D02*
D03*
X124360D02*
D03*
X162334Y177260D02*
D03*
X166370Y58420D02*
D03*
X170330Y53500D02*
D03*
X208971Y-105989D02*
D03*
X196850Y15757D02*
D03*
X235305Y-105989D02*
D03*
X162160Y38500D02*
D03*
X106629Y-100724D02*
D03*
X126681Y-184150D02*
D03*
X203529Y-99459D02*
D03*
X-232060Y27490D02*
D03*
X-195580Y118770D02*
D03*
X-206230Y57500D02*
D03*
X-212141Y-78689D02*
D03*
X-218840Y-47860D02*
D03*
X-234950Y-109609D02*
D03*
X-251591Y-121920D02*
D03*
X-1270Y-206250D02*
D03*
X-83820Y77930D02*
D03*
X-78740Y97132D02*
D03*
X-73660Y101600D02*
D03*
X96425Y89872D02*
D03*
X154940Y11430D02*
D03*
X161910Y18250D02*
D03*
X191770Y23500D02*
D03*
X182880Y13970D02*
D03*
X127000Y234950D02*
D03*
X15240Y-193550D02*
D03*
X-161579Y127500D02*
D03*
X219235Y186067D02*
D03*
X-107950Y-266700D02*
D03*
X27500Y191060D02*
D03*
X35560Y-193040D02*
D03*
X44646Y171450D02*
D03*
X279661Y76182D02*
D03*
X260350Y127559D02*
D03*
X-102870Y221222D02*
D03*
X-52500Y222200D02*
D03*
X-3810Y118500D02*
D03*
X-136604Y127761D02*
D03*
X-166370Y95266D02*
D03*
X55735Y19050D02*
D03*
X-25649Y-50800D02*
D03*
X73133Y185968D02*
D03*
X-248718Y146465D02*
D03*
X-66834Y-57150D02*
D03*
X-251591Y81280D02*
D03*
X-196777Y43720D02*
D03*
X-222250Y178340D02*
D03*
X-145831Y0D02*
D03*
X-222250Y-24130D02*
D03*
X-162334Y-89010D02*
D03*
X-140133Y-101600D02*
D03*
X99060Y226935D02*
D03*
X108770Y167640D02*
D03*
X-69850Y-279400D02*
D03*
X89000Y-273050D02*
D03*
X63500Y-228600D02*
D03*
X76070Y279400D02*
D03*
X165011Y209534D02*
D03*
X250433Y147219D02*
D03*
X273050Y95250D02*
D03*
X166370Y71120D02*
D03*
X55360Y124460D02*
D03*
X-108770Y189720D02*
D03*
X-158750Y184264D02*
D03*
X-141282Y153670D02*
D03*
X17780Y127000D02*
D03*
X72390Y80010D02*
D03*
X-88900Y6350D02*
D03*
X-108180D02*
D03*
X-133350D02*
D03*
X156210Y-198120D02*
D03*
X-139700Y-145796D02*
D03*
X-56858Y-133350D02*
D03*
X-82766Y-158750D02*
D03*
X133600Y-228600D02*
D03*
X146050Y-247590D02*
D03*
X120200Y-260350D02*
D03*
X-184150Y-222250D02*
D03*
X-179504Y-38100D02*
D03*
X-146437Y-247650D02*
D03*
X-254000Y-82550D02*
D03*
X-241300Y-158809D02*
D03*
X-273050Y-95250D02*
D03*
Y-57150D02*
D03*
X-162334Y-139700D02*
D03*
X-139700Y-57150D02*
D03*
X-82550Y-120650D02*
D03*
X-82402Y-101600D02*
D03*
X86360Y19050D02*
D03*
X139990Y59590D02*
D03*
X9737Y109245D02*
D03*
X-21590Y97917D02*
D03*
X6326Y146050D02*
D03*
X69953Y133350D02*
D03*
X-88596Y260350D02*
D03*
X-6820Y-63500D02*
D03*
X-82402Y-139990D02*
D03*
X60960Y-127000D02*
D03*
X210820Y40000D02*
D03*
X75503Y254000D02*
D03*
X90170Y207173D02*
D03*
X6700Y190500D02*
D03*
X-143510Y205740D02*
D03*
Y236827D02*
D03*
X-27506Y222610D02*
D03*
X-77470D02*
D03*
X-87630D02*
D03*
X-117784Y222448D02*
D03*
X-166463Y132805D02*
D03*
X127017Y38100D02*
D03*
X116101Y-60760D02*
D03*
X-210820Y77930D02*
D03*
X27500Y198120D02*
D03*
X166370Y118500D02*
D03*
Y128890D02*
D03*
X57500Y194660D02*
D03*
X182880Y143129D02*
D03*
X170330Y133500D02*
D03*
Y113500D02*
D03*
X-161579Y117500D02*
D03*
X6326Y220595D02*
D03*
X12500Y223720D02*
D03*
X-166463Y122500D02*
D03*
X-124705Y115245D02*
D03*
X-104140Y142231D02*
D03*
X-113030Y139761D02*
D03*
X-177800Y6350D02*
D03*
X-99060Y134415D02*
D03*
X-161290Y12250D02*
D03*
X-133270Y42500D02*
D03*
X-128445Y47500D02*
D03*
X-171521Y42500D02*
D03*
X-167640Y47500D02*
D03*
Y27500D02*
D03*
X-171521Y32500D02*
D03*
X-137160Y27500D02*
D03*
X-140970Y32500D02*
D03*
X-137160Y37500D02*
D03*
X-167640D02*
D03*
X-171521Y52500D02*
D03*
X-88900Y128471D02*
D03*
X-140970Y22500D02*
D03*
X-190500Y17500D02*
D03*
X-194310Y22500D02*
D03*
X-280670Y53340D02*
D03*
D35*
X-44435Y17425D02*
D03*
X-22845D02*
D03*
X-123825Y-215900D02*
D03*
X-145415D02*
D03*
X-123825Y-190239D02*
D03*
X-145415D02*
D03*
D36*
X51210Y-165100D02*
D03*
X7210D02*
D03*
D37*
X-56257Y50800D02*
D03*
X-45303D02*
D03*
X-34253D02*
D03*
X-23287D02*
D03*
X-12320D02*
D03*
X-1280D02*
D03*
X9737D02*
D03*
X20697D02*
D03*
X31750D02*
D03*
D38*
X-68313Y55793D02*
D03*
D39*
X77707Y55883D02*
D03*
D40*
X-68370Y151883D02*
D03*
X86717Y151880D02*
D03*
D41*
X133610Y98340D02*
D03*
Y8340D02*
D03*
X-162300Y-69300D02*
D03*
Y-159300D02*
D03*
D42*
X102610Y34590D02*
D03*
Y47090D02*
D03*
Y59590D02*
D03*
Y72090D02*
D03*
X-193300Y-133050D02*
D03*
Y-120550D02*
D03*
Y-108050D02*
D03*
Y-95550D02*
D03*
D43*
X-1270Y2000D02*
D03*
Y17240D02*
D03*
D44*
X-22861Y-15291D02*
D03*
X-45798Y-5753D02*
D03*
Y-24829D02*
D03*
D45*
X125730Y-17200D02*
D03*
X110490D02*
D03*
X78740D02*
D03*
X93980D02*
D03*
D46*
X106629Y-92672D02*
D03*
X116167Y-69736D02*
D03*
X97092D02*
D03*
X-261179Y91554D02*
D03*
X-242104D02*
D03*
X-251642Y68618D02*
D03*
X-212789Y-8776D02*
D03*
X-193713D02*
D03*
X-203251Y-31712D02*
D03*
D47*
X237490Y-61047D02*
D03*
Y-73730D02*
D03*
Y-86430D02*
D03*
Y-124530D02*
D03*
Y-137230D02*
D03*
Y-149930D02*
D03*
X148590Y-149790D02*
D03*
Y-137090D02*
D03*
Y-124390D02*
D03*
Y-86290D02*
D03*
Y-73590D02*
D03*
Y-60890D02*
D03*
D48*
X225863Y-6916D02*
D03*
D49*
X240863Y21584D02*
D03*
X225863D02*
D03*
X210863D02*
D03*
D50*
X-27599Y-105270D02*
D03*
X-40300D02*
D03*
X-53000D02*
D03*
X-65700D02*
D03*
Y-161150D02*
D03*
X-53000D02*
D03*
X-40300D02*
D03*
X23790Y-52400D02*
D03*
X36490D02*
D03*
X49190D02*
D03*
X61890D02*
D03*
Y3480D02*
D03*
X49190D02*
D03*
X36490D02*
D03*
D51*
X-27599Y-161150D02*
D03*
X23790Y3480D02*
D03*
D52*
X-227950Y-52850D02*
D03*
X-253350D02*
D03*
X-253350Y-142850D02*
D03*
X-227950Y-142850D02*
D03*
D53*
X-100760Y-212090D02*
D03*
X-59260D02*
D03*
D54*
X-12700Y-238250D02*
D03*
Y-206250D02*
D03*
D55*
X75680Y-127260D02*
D03*
X10680D02*
D03*
X163110Y234921D02*
D03*
X73110Y234921D02*
D03*
X165650Y-230130D02*
D03*
X24850D02*
D03*
D56*
X49430Y-96260D02*
D03*
X36930D02*
D03*
X99360Y203921D02*
D03*
X111860D02*
D03*
X124360Y203921D02*
D03*
X136860Y203921D02*
D03*
X76300Y-199130D02*
D03*
X114200D02*
D03*
X101500D02*
D03*
X89000D02*
D03*
X126900D02*
D03*
X139600D02*
D03*
X63600D02*
D03*
X50900D02*
D03*
D57*
Y-164520D01*
X-33020Y-181610D02*
X-12700D01*
Y-206250D02*
Y-182200D01*
X-34290Y-180340D02*
X-33020Y-181610D01*
X-40300Y-174331D02*
X-34290Y-180340D01*
X-12110Y-181610D02*
X6940Y-162560D01*
X-40300Y-174331D02*
Y-161150D01*
X-53000Y-205830D02*
Y-161150D01*
M02*
