%FSLAX44Y44*%
%MOMM*%
G71*
G01*
G75*
G04 Layer_Physical_Order=1*
G04 Layer_Color=255*
%ADD10R,0.8890X1.0160*%
%ADD11R,0.6000X0.5000*%
%ADD12R,1.3970X1.3970*%
%ADD13R,0.4064X0.5500*%
%ADD14R,0.3048X0.5500*%
G04:AMPARAMS|DCode=15|XSize=0.32mm|YSize=1.7mm|CornerRadius=0.08mm|HoleSize=0mm|Usage=FLASHONLY|Rotation=0.000|XOffset=0mm|YOffset=0mm|HoleType=Round|Shape=RoundedRectangle|*
%AMROUNDEDRECTD15*
21,1,0.3200,1.5400,0,0,0.0*
21,1,0.1600,1.7000,0,0,0.0*
1,1,0.1600,0.0800,-0.7700*
1,1,0.1600,-0.0800,-0.7700*
1,1,0.1600,-0.0800,0.7700*
1,1,0.1600,0.0800,0.7700*
%
%ADD15ROUNDEDRECTD15*%
%ADD16R,0.5000X1.7000*%
%ADD17R,0.5000X0.6000*%
%ADD18R,1.3500X0.3000*%
%ADD19R,1.3500X0.2500*%
G04:AMPARAMS|DCode=20|XSize=2mm|YSize=1.2mm|CornerRadius=0mm|HoleSize=0mm|Usage=FLASHONLY|Rotation=150.000|XOffset=0mm|YOffset=0mm|HoleType=Round|Shape=Rectangle|*
%AMROTATEDRECTD20*
4,1,4,1.1660,0.0196,0.5660,-1.0196,-1.1660,-0.0196,-0.5660,1.0196,1.1660,0.0196,0.0*
%
%ADD20ROTATEDRECTD20*%

G04:AMPARAMS|DCode=21|XSize=2.1mm|YSize=0.8mm|CornerRadius=0mm|HoleSize=0mm|Usage=FLASHONLY|Rotation=203.500|XOffset=0mm|YOffset=0mm|HoleType=Round|Shape=Rectangle|*
%AMROTATEDRECTD21*
4,1,4,0.8034,0.7855,1.1224,0.0519,-0.8034,-0.7855,-1.1224,-0.0519,0.8034,0.7855,0.0*
%
%ADD21ROTATEDRECTD21*%

G04:AMPARAMS|DCode=22|XSize=3mm|YSize=2.1mm|CornerRadius=0mm|HoleSize=0mm|Usage=FLASHONLY|Rotation=203.500|XOffset=0mm|YOffset=0mm|HoleType=Round|Shape=Rectangle|*
%AMROTATEDRECTD22*
4,1,4,0.9569,1.5610,1.7943,-0.3648,-0.9569,-1.5610,-1.7943,0.3648,0.9569,1.5610,0.0*
%
%ADD22ROTATEDRECTD22*%

%ADD23R,1.0000X1.6000*%
%ADD24R,0.7000X0.6000*%
%ADD25C,0.2540*%
%ADD26C,0.3000*%
%ADD27C,0.6000*%
%ADD28C,1.0000*%
%ADD29C,0.5000*%
%ADD30C,0.4000*%
%ADD31C,1.0000*%
%ADD32O,2.0000X0.7500*%
G04:AMPARAMS|DCode=33|XSize=4mm|YSize=4mm|CornerRadius=2mm|HoleSize=0mm|Usage=FLASHONLY|Rotation=0.000|XOffset=0mm|YOffset=0mm|HoleType=Round|Shape=RoundedRectangle|*
%AMROUNDEDRECTD33*
21,1,4.0000,0.0000,0,0,0.0*
21,1,0.0000,4.0000,0,0,0.0*
1,1,4.0000,0.0000,0.0000*
1,1,4.0000,0.0000,0.0000*
1,1,4.0000,0.0000,0.0000*
1,1,4.0000,0.0000,0.0000*
%
%ADD33ROUNDEDRECTD33*%
%ADD34C,0.4500*%
G36*
X-60698Y297114D02*
Y250000D01*
X-60494Y249506D01*
X-60000Y249302D01*
X60000D01*
X60494Y249506D01*
X60698Y250000D01*
Y297114D01*
X61680Y297919D01*
X67724Y296717D01*
X84254Y292453D01*
X100520Y287269D01*
X116469Y281181D01*
X132051Y274208D01*
X147219Y266372D01*
X161923Y257699D01*
X176117Y248214D01*
X189758Y237949D01*
X202801Y226935D01*
X215206Y215206D01*
X226935Y202801D01*
X237949Y189758D01*
X243280Y182674D01*
X242956Y181446D01*
X229742Y175700D01*
X234941Y163741D01*
X240141Y151783D01*
X255061Y158271D01*
X248436Y173508D01*
X249551Y174117D01*
X257699Y161923D01*
X266372Y147219D01*
X274208Y132051D01*
X281181Y116469D01*
X287269Y100520D01*
X292453Y84254D01*
X296717Y67724D01*
X297482Y63876D01*
X296270Y63497D01*
X290678Y76359D01*
X275757Y69871D01*
X280957Y57913D01*
X279792Y57406D01*
X280299Y56242D01*
X264214Y49247D01*
X267469Y41760D01*
X266773Y40698D01*
X250000D01*
X249506Y40494D01*
X249302Y40000D01*
Y-24990D01*
X248086Y-25359D01*
X247076Y-23846D01*
X245009Y-22465D01*
X242570Y-21980D01*
X240131Y-22465D01*
X238064Y-23846D01*
X236683Y-25914D01*
X236198Y-28352D01*
X236683Y-30791D01*
X236962Y-31210D01*
Y-46627D01*
X192885Y-90705D01*
X191669Y-92524D01*
X191242Y-94670D01*
Y-139940D01*
X143903Y-187279D01*
X142783Y-186680D01*
X143034Y-185420D01*
X142780Y-184144D01*
X142058Y-183062D01*
X140976Y-182340D01*
X139700Y-182086D01*
X138424Y-182340D01*
X137342Y-183062D01*
X128159Y-192246D01*
X85201D01*
X17884Y-124929D01*
Y-79262D01*
X17630Y-77986D01*
X16908Y-76904D01*
X15826Y-76181D01*
X14550Y-75928D01*
X13274Y-76181D01*
X12192Y-76904D01*
X11470Y-77986D01*
X11216Y-79262D01*
Y-126310D01*
X11470Y-127586D01*
X12192Y-128667D01*
X81462Y-197938D01*
X82544Y-198660D01*
X83820Y-198914D01*
X129540D01*
X130800Y-198663D01*
X131399Y-199783D01*
X130540Y-200642D01*
X1587D01*
X1169Y-200363D01*
X-1270Y-199878D01*
X-3709Y-200363D01*
X-5776Y-201744D01*
X-7157Y-203811D01*
X-7642Y-206250D01*
X-7157Y-208689D01*
X-5776Y-210756D01*
X-3709Y-212137D01*
X-1270Y-212622D01*
X1169Y-212137D01*
X1587Y-211858D01*
X132863D01*
X135009Y-211431D01*
X136828Y-210215D01*
X136828Y-210215D01*
X136828Y-210215D01*
X169878Y-177166D01*
X170898Y-177922D01*
X169075Y-181333D01*
X167786Y-185581D01*
X167476Y-188730D01*
X188730D01*
Y-167476D01*
X185581Y-167786D01*
X181333Y-169075D01*
X177922Y-170898D01*
X177166Y-169878D01*
X200815Y-146228D01*
X200815Y-146228D01*
X200815Y-146228D01*
X202031Y-144409D01*
X202458Y-142263D01*
Y-103581D01*
X203440Y-102776D01*
X203529Y-102793D01*
X204805Y-102540D01*
X205886Y-101817D01*
X240367Y-67337D01*
X243840D01*
Y-73446D01*
X238180D01*
X236904Y-73700D01*
X235823Y-74422D01*
X206614Y-103631D01*
X205891Y-104713D01*
X205637Y-105989D01*
X205891Y-107264D01*
X206614Y-108346D01*
X207696Y-109069D01*
X208971Y-109323D01*
X210247Y-109069D01*
X211329Y-108346D01*
X239561Y-80114D01*
X243840D01*
Y-90563D01*
X251797Y-98520D01*
X272521D01*
Y-82367D01*
X283210D01*
Y-58420D01*
X288036D01*
Y-52070D01*
X274066D01*
Y-57754D01*
X272521D01*
Y-40698D01*
X300531D01*
X301364Y-41657D01*
X300048Y-50980D01*
X296717Y-67724D01*
X292453Y-84254D01*
X289291Y-94175D01*
X288036Y-93980D01*
Y-83820D01*
X282321D01*
Y-91440D01*
Y-99060D01*
X286658D01*
X287407Y-100085D01*
X287269Y-100520D01*
X281181Y-116469D01*
X274208Y-132051D01*
X266372Y-147219D01*
X257699Y-161923D01*
X248214Y-176117D01*
X237949Y-189758D01*
X226935Y-202801D01*
X215206Y-215206D01*
X202801Y-226935D01*
X189758Y-237949D01*
X176117Y-248214D01*
X161923Y-257699D01*
X147219Y-266372D01*
X132051Y-274208D01*
X116469Y-281181D01*
X100520Y-287269D01*
X84254Y-292453D01*
X67724Y-296717D01*
X61680Y-297919D01*
X60698Y-297114D01*
Y-250000D01*
X60494Y-249506D01*
X60000Y-249302D01*
X-60000D01*
X-60494Y-249506D01*
X-60698Y-250000D01*
Y-297114D01*
X-61680Y-297919D01*
X-67724Y-296717D01*
X-84254Y-292453D01*
X-100520Y-287269D01*
X-116469Y-281181D01*
X-132051Y-274208D01*
X-147219Y-266372D01*
X-161923Y-257699D01*
X-176117Y-248214D01*
X-189758Y-237949D01*
X-202801Y-226935D01*
X-215206Y-215206D01*
X-226935Y-202801D01*
X-237949Y-189758D01*
X-248214Y-176117D01*
X-257699Y-161923D01*
X-266372Y-147219D01*
X-274208Y-132051D01*
X-281181Y-116469D01*
X-287269Y-100520D01*
X-292453Y-84254D01*
X-296717Y-67724D01*
X-300048Y-50980D01*
X-301364Y-41657D01*
X-300531Y-40698D01*
X-250000D01*
X-249506Y-40494D01*
X-249302Y-40000D01*
Y40000D01*
X-249506Y40494D01*
X-250000Y40698D01*
X-300531D01*
X-301364Y41657D01*
X-300048Y50980D01*
X-296717Y67724D01*
X-292453Y84254D01*
X-287269Y100520D01*
X-281181Y116469D01*
X-274208Y132051D01*
X-266372Y147219D01*
X-257699Y161923D01*
X-248214Y176117D01*
X-237949Y189758D01*
X-226935Y202801D01*
X-215206Y215206D01*
X-202801Y226935D01*
X-189758Y237949D01*
X-176117Y248214D01*
X-161923Y257699D01*
X-147219Y266372D01*
X-132051Y274208D01*
X-116469Y281181D01*
X-100520Y287269D01*
X-84254Y292453D01*
X-67724Y296717D01*
X-61680Y297919D01*
X-60698Y297114D01*
D02*
G37*
%LPC*%
G36*
X160540Y37230D02*
X141960D01*
Y34770D01*
X160540D01*
Y37230D01*
D02*
G37*
G36*
X96425Y93207D02*
X95149Y92953D01*
X94067Y92230D01*
X75113Y73275D01*
X74390Y72194D01*
X74136Y70918D01*
Y12700D01*
X74390Y11424D01*
X75113Y10343D01*
X76194Y9620D01*
X77470Y9366D01*
X78746Y9620D01*
X79827Y10343D01*
X80550Y11424D01*
X80804Y12700D01*
Y69537D01*
X98782Y87515D01*
X99505Y88596D01*
X99759Y89872D01*
X99505Y91148D01*
X98782Y92230D01*
X97700Y92953D01*
X96425Y93207D01*
D02*
G37*
G36*
X242992Y42100D02*
X221022D01*
Y36488D01*
X215298D01*
X214529Y37002D01*
X212090Y37487D01*
X209651Y37002D01*
X207584Y35621D01*
X206203Y33554D01*
X205718Y31115D01*
X206203Y28676D01*
X206717Y27907D01*
Y-2274D01*
X197164Y-11827D01*
X136558D01*
X135789Y-11313D01*
X134000Y-10957D01*
Y-10700D01*
X132000D01*
Y-3700D01*
X122000D01*
Y-4866D01*
X119300D01*
Y-3700D01*
X115194D01*
Y-2540D01*
X114940Y-1264D01*
X114218Y-182D01*
X113195Y501D01*
X113071Y1764D01*
X136473Y25166D01*
X137781D01*
X138268Y23993D01*
X137632Y23357D01*
X136909Y22275D01*
X136656Y21000D01*
Y14950D01*
X136909Y13675D01*
X137632Y12593D01*
X137632Y12593D01*
X137632Y12593D01*
X141152Y9072D01*
X142234Y8350D01*
X143510Y8096D01*
X154940D01*
X156216Y8350D01*
X157297Y9072D01*
X158020Y10154D01*
X158274Y11430D01*
X158020Y12706D01*
X157403Y13630D01*
X158001Y14750D01*
X160000D01*
Y14916D01*
X161910D01*
X163186Y15170D01*
X164268Y15892D01*
X164990Y16974D01*
X165244Y18250D01*
X164990Y19526D01*
X164268Y20608D01*
X163186Y21330D01*
X161910Y21584D01*
X160000D01*
Y21750D01*
Y25250D01*
Y29710D01*
X160540D01*
Y32230D01*
X141960D01*
Y31834D01*
X135091D01*
X133816Y31580D01*
X132734Y30858D01*
X102256Y380D01*
X101534Y-702D01*
X101280Y-1978D01*
Y-46610D01*
X101534Y-47885D01*
X102256Y-48967D01*
X103338Y-49690D01*
X104614Y-49944D01*
X105890Y-49690D01*
X106972Y-48967D01*
X107694Y-47885D01*
X107948Y-46610D01*
Y-22240D01*
X108760D01*
Y-22240D01*
X113030D01*
Y-17200D01*
X115570D01*
Y-22240D01*
X119840D01*
D01*
X119840D01*
X120000Y-22400D01*
Y-23700D01*
X134000D01*
Y-23443D01*
X135789Y-23087D01*
X136558Y-22573D01*
X199390D01*
X201446Y-22164D01*
X203190Y-20999D01*
X203190Y-21000D01*
X203190Y-20999D01*
X215889Y-8299D01*
X217054Y-6556D01*
X217463Y-4500D01*
Y25742D01*
X221022D01*
Y20130D01*
X222482D01*
Y19050D01*
X222482D01*
Y10795D01*
X241532D01*
Y19050D01*
X241532D01*
Y19232D01*
X242430Y20130D01*
X242992D01*
Y42100D01*
D02*
G37*
G36*
X94980Y115834D02*
X64770D01*
X63494Y115580D01*
X62413Y114858D01*
X61690Y113776D01*
X61436Y112500D01*
X61690Y111224D01*
X62413Y110142D01*
X63494Y109420D01*
X64770Y109166D01*
X93599D01*
X109696Y93069D01*
Y69599D01*
X109950Y68323D01*
X110673Y67242D01*
X126772Y51143D01*
X127853Y50420D01*
X129129Y50166D01*
X142500D01*
Y45250D01*
Y42290D01*
X141960D01*
Y39770D01*
X160540D01*
Y42290D01*
X160000D01*
Y45250D01*
Y50250D01*
Y54710D01*
X160540D01*
Y57230D01*
X141960D01*
Y56834D01*
X130510D01*
X116364Y70980D01*
Y94450D01*
X116110Y95726D01*
X115388Y96807D01*
X97338Y114858D01*
X96256Y115580D01*
X94980Y115834D01*
D02*
G37*
G36*
X241532Y8255D02*
X233277D01*
Y0D01*
X241532D01*
Y8255D01*
D02*
G37*
G36*
X29670Y-40060D02*
X25400D01*
Y-43830D01*
X29670D01*
Y-40060D01*
D02*
G37*
G36*
X22860D02*
X18590D01*
Y-43830D01*
X22860D01*
Y-40060D01*
D02*
G37*
G36*
X60960D02*
X56690D01*
Y-43830D01*
X60960D01*
Y-40060D01*
D02*
G37*
G36*
X230737Y8255D02*
X222482D01*
Y0D01*
X230737D01*
Y8255D01*
D02*
G37*
G36*
X36490Y-19267D02*
X35214Y-19520D01*
X34132Y-20243D01*
X33409Y-21325D01*
X33156Y-22601D01*
Y-25290D01*
X31830D01*
Y-26456D01*
X29130D01*
Y-25290D01*
X19130D01*
Y-26456D01*
X16430D01*
Y-25290D01*
X6430D01*
Y-33750D01*
X5890D01*
Y-37520D01*
X16970D01*
Y-33750D01*
D01*
Y-33750D01*
X17596Y-33124D01*
X18590D01*
Y-33750D01*
X18590D01*
Y-37520D01*
X29670D01*
Y-33750D01*
D01*
Y-33750D01*
X30296Y-33124D01*
X31830D01*
Y-34290D01*
Y-43290D01*
X33496D01*
Y-80010D01*
X33750Y-81286D01*
X34472Y-82367D01*
X35554Y-83090D01*
X36830Y-83344D01*
X38106Y-83090D01*
X39188Y-82367D01*
X39910Y-81286D01*
X40164Y-80010D01*
Y-43290D01*
X41830D01*
Y-34290D01*
Y-25290D01*
X39824D01*
Y-22601D01*
X39570Y-21325D01*
X38847Y-20243D01*
X37765Y-19520D01*
X36490Y-19267D01*
D02*
G37*
G36*
X-141960Y136790D02*
X-149980D01*
Y134020D01*
X-141960D01*
Y136790D01*
D02*
G37*
G36*
X-152520D02*
X-160540D01*
Y134020D01*
X-152520D01*
Y136790D01*
D02*
G37*
G36*
X233118Y161564D02*
X218198Y155076D01*
X222891Y144283D01*
X237812Y150770D01*
X233118Y161564D01*
D02*
G37*
G36*
X227412Y174687D02*
X212492Y168199D01*
X217185Y157406D01*
X232106Y163893D01*
X227412Y174687D01*
D02*
G37*
G36*
X-40233Y162950D02*
X-42061Y162710D01*
X-43763Y162004D01*
X-45226Y160882D01*
X-46348Y159420D01*
X-47053Y157717D01*
X-47294Y155890D01*
X-47053Y154063D01*
X-46348Y152360D01*
X-45226Y150898D01*
X-43763Y149775D01*
X-42061Y149070D01*
X-40233Y148829D01*
X-38406Y149070D01*
X-36703Y149775D01*
X-35241Y150898D01*
X-34119Y152360D01*
X-33414Y154063D01*
X-33173Y155890D01*
X-33414Y157717D01*
X-34119Y159420D01*
X-35241Y160882D01*
X-36703Y162004D01*
X-38406Y162710D01*
X-40233Y162950D01*
D02*
G37*
G36*
X160540Y67230D02*
X141960D01*
Y64710D01*
X142500D01*
Y62290D01*
X141960D01*
Y59770D01*
X160540D01*
Y62290D01*
X160000D01*
Y64710D01*
X160540D01*
Y67230D01*
D02*
G37*
G36*
X273428Y68858D02*
X258507Y62371D01*
X263201Y51577D01*
X278121Y58064D01*
X273428Y68858D01*
D02*
G37*
G36*
X160540Y72230D02*
X141960D01*
Y69770D01*
X160540D01*
Y72230D01*
D02*
G37*
G36*
X119380Y192480D02*
X117553Y192240D01*
X115850Y191535D01*
X114388Y190412D01*
X113265Y188950D01*
X112560Y187247D01*
X112320Y185420D01*
Y178490D01*
X112380Y178031D01*
Y171990D01*
X114380D01*
Y164990D01*
X116046D01*
Y162878D01*
X116300Y161602D01*
X117022Y160520D01*
X117022Y160520D01*
X117022Y160520D01*
X132556Y144986D01*
Y136770D01*
X132810Y135494D01*
X133532Y134412D01*
X136802Y131143D01*
D01*
X136802D01*
Y131143D01*
D01*
X136802D01*
Y131142D01*
X136802D01*
X136802Y131142D01*
Y131142D01*
X136802Y131142D01*
Y131142D01*
X137884Y130420D01*
X139159Y130166D01*
X141960D01*
Y129770D01*
X160540D01*
Y132290D01*
X160000D01*
Y135250D01*
Y142250D01*
X142500D01*
Y142084D01*
X140650D01*
X140206Y141996D01*
X139224Y142801D01*
Y146368D01*
X138970Y147643D01*
X138247Y148725D01*
X123156Y163817D01*
X123642Y164990D01*
X124380D01*
Y171990D01*
X126380D01*
Y178031D01*
X126440Y178490D01*
Y185420D01*
X126200Y187247D01*
X125494Y188950D01*
X124372Y190412D01*
X122910Y191535D01*
X121207Y192240D01*
X119380Y192480D01*
D02*
G37*
G36*
X160540Y97230D02*
X141960D01*
Y94710D01*
X142500D01*
Y90250D01*
Y85250D01*
Y80250D01*
Y77290D01*
X141960D01*
Y74770D01*
X160540D01*
Y77290D01*
X160000D01*
Y80250D01*
Y85250D01*
Y90250D01*
Y94710D01*
X160540D01*
Y97230D01*
D02*
G37*
G36*
X191270Y-167476D02*
Y-188730D01*
X212524D01*
X212214Y-185581D01*
X210925Y-181333D01*
X208832Y-177417D01*
X206015Y-173985D01*
X202583Y-171168D01*
X198667Y-169075D01*
X194419Y-167786D01*
X191270Y-167476D01*
D02*
G37*
G36*
X-188730D02*
Y-188730D01*
X-167476D01*
X-167786Y-185581D01*
X-169075Y-181333D01*
X-171168Y-177417D01*
X-173985Y-173985D01*
X-177417Y-171168D01*
X-181333Y-169075D01*
X-185581Y-167786D01*
X-188730Y-167476D01*
D02*
G37*
G36*
X106629Y-97155D02*
X105264Y-97427D01*
X104106Y-98201D01*
X103332Y-99358D01*
X103061Y-100724D01*
Y-154889D01*
X103332Y-156255D01*
X104106Y-157413D01*
X123113Y-176419D01*
Y-184150D01*
X123384Y-185516D01*
X124158Y-186673D01*
X125316Y-187447D01*
X126681Y-187719D01*
X128047Y-187447D01*
X129205Y-186673D01*
X129978Y-185516D01*
X130250Y-184150D01*
Y-174941D01*
X129978Y-173575D01*
X129205Y-172418D01*
X110198Y-153411D01*
Y-100724D01*
X109926Y-99358D01*
X109153Y-98201D01*
X107995Y-97427D01*
X106629Y-97155D01*
D02*
G37*
G36*
X-206590Y-94721D02*
X-217590D01*
Y-104721D01*
X-215424D01*
Y-106570D01*
X-217090D01*
Y-115570D01*
Y-124570D01*
X-215475D01*
Y-127000D01*
Y-129430D01*
X-217090D01*
Y-138342D01*
X-218360D01*
X-220116Y-138691D01*
X-221604Y-139686D01*
X-222599Y-141174D01*
X-222948Y-142930D01*
X-222599Y-144686D01*
X-221604Y-146174D01*
X-220116Y-147169D01*
X-218360Y-147518D01*
X-212090D01*
X-211647Y-147430D01*
X-207090D01*
Y-138430D01*
Y-129430D01*
X-208807D01*
Y-127000D01*
Y-124570D01*
X-207090D01*
Y-115570D01*
Y-106570D01*
X-208756D01*
Y-104721D01*
X-206590D01*
Y-94721D01*
D02*
G37*
G36*
X-40640Y-63478D02*
X-43079Y-63963D01*
X-45146Y-65344D01*
X-46527Y-67411D01*
X-47012Y-69850D01*
X-46527Y-72289D01*
X-46248Y-72707D01*
Y-144463D01*
X-46527Y-144881D01*
X-47012Y-147320D01*
X-46527Y-149759D01*
X-45146Y-151826D01*
X-43079Y-153207D01*
X-40640Y-153692D01*
X-38201Y-153207D01*
X-36134Y-151826D01*
X-34753Y-149759D01*
X-34268Y-147320D01*
X-34753Y-144881D01*
X-35032Y-144463D01*
Y-72707D01*
X-34753Y-72289D01*
X-34268Y-69850D01*
X-34753Y-67411D01*
X-36134Y-65344D01*
X-38201Y-63963D01*
X-40640Y-63478D01*
D02*
G37*
G36*
X-167476Y-191270D02*
X-188730D01*
Y-212524D01*
X-185581Y-212214D01*
X-181333Y-210925D01*
X-177417Y-208832D01*
X-173985Y-206015D01*
X-171168Y-202583D01*
X-169075Y-198667D01*
X-167786Y-194419D01*
X-167476Y-191270D01*
D02*
G37*
G36*
X-191270D02*
X-212524D01*
X-212214Y-194419D01*
X-210925Y-198667D01*
X-208832Y-202583D01*
X-206015Y-206015D01*
X-202583Y-208832D01*
X-198667Y-210925D01*
X-194419Y-212214D01*
X-191270Y-212524D01*
Y-191270D01*
D02*
G37*
G36*
X188730D02*
X167476D01*
X167786Y-194419D01*
X169075Y-198667D01*
X171168Y-202583D01*
X173985Y-206015D01*
X177417Y-208832D01*
X181333Y-210925D01*
X185581Y-212214D01*
X188730Y-212524D01*
Y-191270D01*
D02*
G37*
G36*
X-191270Y-167476D02*
X-194419Y-167786D01*
X-198667Y-169075D01*
X-202583Y-171168D01*
X-206015Y-173985D01*
X-208832Y-177417D01*
X-210925Y-181333D01*
X-212214Y-185581D01*
X-212524Y-188730D01*
X-191270D01*
Y-167476D01*
D02*
G37*
G36*
X212524Y-191270D02*
X191270D01*
Y-212524D01*
X194419Y-212214D01*
X198667Y-210925D01*
X202583Y-208832D01*
X206015Y-206015D01*
X208832Y-202583D01*
X210925Y-198667D01*
X212214Y-194419D01*
X212524Y-191270D01*
D02*
G37*
G36*
X-253350Y-115440D02*
X-267350D01*
Y-135440D01*
X-253350D01*
Y-125254D01*
X-251591D01*
X-250315Y-125000D01*
X-249233Y-124277D01*
X-248511Y-123196D01*
X-248257Y-121920D01*
X-248511Y-120644D01*
X-249233Y-119563D01*
X-250315Y-118840D01*
X-251591Y-118586D01*
X-253350D01*
Y-115440D01*
D02*
G37*
G36*
X288036Y-43180D02*
X282321D01*
Y-49530D01*
X288036D01*
Y-43180D01*
D02*
G37*
G36*
X279781D02*
X274066D01*
Y-49530D01*
X279781D01*
Y-43180D01*
D02*
G37*
G36*
X-237490Y-5373D02*
X-238766Y-5627D01*
X-239848Y-6350D01*
X-240570Y-7432D01*
X-240824Y-8708D01*
Y-35651D01*
X-252829Y-47656D01*
X-253350Y-47440D01*
Y-47440D01*
X-253350Y-47440D01*
X-267350D01*
Y-67440D01*
X-253350D01*
Y-57395D01*
X-252711Y-56968D01*
X-252711Y-56968D01*
X-252711Y-56968D01*
X-245123Y-49380D01*
X-243950Y-49866D01*
Y-69440D01*
X-225950D01*
Y-62233D01*
X-219090D01*
Y-63360D01*
X-205090D01*
Y-62233D01*
X-167350D01*
X-165294Y-61824D01*
X-163550Y-60659D01*
X-163550Y-60659D01*
X-163550Y-60659D01*
X-147878Y-44987D01*
X-146970Y-44806D01*
X-144903Y-43425D01*
X-143522Y-41358D01*
X-143036Y-38919D01*
X-143522Y-36480D01*
X-144903Y-34413D01*
X-146970Y-33032D01*
X-149409Y-32547D01*
X-151848Y-33032D01*
X-153915Y-34413D01*
X-155296Y-36480D01*
X-155477Y-37388D01*
X-169576Y-51487D01*
X-205090D01*
Y-50360D01*
X-207090D01*
Y-43360D01*
X-217090D01*
Y-44526D01*
X-218840D01*
X-220116Y-44780D01*
X-221197Y-45503D01*
X-221920Y-46584D01*
X-222174Y-47860D01*
X-221920Y-49136D01*
X-221197Y-50217D01*
X-221117Y-50271D01*
X-221486Y-51487D01*
X-225950D01*
Y-45440D01*
X-239524D01*
X-240010Y-44267D01*
X-235133Y-39389D01*
X-235132Y-39389D01*
X-235133Y-39389D01*
X-234410Y-38308D01*
X-234156Y-37032D01*
Y-8708D01*
X-234410Y-7432D01*
X-235133Y-6350D01*
X-236214Y-5627D01*
X-237490Y-5373D01*
D02*
G37*
G36*
X16970Y-40060D02*
X12700D01*
Y-43830D01*
X16970D01*
Y-40060D01*
D02*
G37*
G36*
X10160D02*
X5890D01*
Y-43830D01*
X10160D01*
Y-40060D01*
D02*
G37*
G36*
X177870Y-108854D02*
X176758Y-109075D01*
X175815Y-109705D01*
X175185Y-110648D01*
X174964Y-111760D01*
X175185Y-112872D01*
X175815Y-113815D01*
X176758Y-114445D01*
X177870Y-114666D01*
X178982Y-114445D01*
X179925Y-113815D01*
X180555Y-112872D01*
X180776Y-111760D01*
X180555Y-110648D01*
X179925Y-109705D01*
X178982Y-109075D01*
X177870Y-108854D01*
D02*
G37*
G36*
X-234950Y-106275D02*
X-236226Y-106529D01*
X-237308Y-107252D01*
X-238030Y-108333D01*
X-238284Y-109609D01*
Y-115440D01*
X-241950D01*
Y-135440D01*
X-227950D01*
Y-115440D01*
X-231616D01*
Y-109609D01*
X-231870Y-108333D01*
X-232593Y-107252D01*
X-233674Y-106529D01*
X-234950Y-106275D01*
D02*
G37*
G36*
X279781Y-83820D02*
X274066D01*
Y-99060D01*
X279781D01*
Y-91440D01*
Y-83820D01*
D02*
G37*
G36*
X49530Y-19267D02*
X48254Y-19520D01*
X47172Y-20243D01*
X46450Y-21325D01*
X46196Y-22601D01*
Y-25290D01*
X44530D01*
Y-34290D01*
Y-43290D01*
X46196D01*
Y-80010D01*
X46450Y-81286D01*
X47172Y-82367D01*
X48254Y-83090D01*
X49530Y-83344D01*
X50806Y-83090D01*
X51887Y-82367D01*
X52610Y-81286D01*
X52864Y-80010D01*
Y-43290D01*
X54530D01*
Y-34290D01*
Y-33124D01*
X56690D01*
Y-33750D01*
X56690D01*
Y-37520D01*
X62230D01*
Y-38790D01*
X63500D01*
Y-43830D01*
X67770D01*
D01*
X67770D01*
X67930Y-43990D01*
Y-45290D01*
Y-57003D01*
X69930D01*
Y-64003D01*
X79930D01*
Y-62837D01*
X82363D01*
X83638Y-62583D01*
X84720Y-61860D01*
X85443Y-60778D01*
X85697Y-59503D01*
X85443Y-58227D01*
X84720Y-57145D01*
X83638Y-56422D01*
X82363Y-56168D01*
X81930D01*
Y-45290D01*
Y-45162D01*
X83719Y-44806D01*
X85786Y-43425D01*
X87167Y-41358D01*
X87652Y-38919D01*
X87167Y-36480D01*
X85786Y-34413D01*
X83719Y-33032D01*
X81930Y-32676D01*
Y-32290D01*
X79930D01*
Y-25290D01*
X69930D01*
Y-26456D01*
X67230D01*
Y-25290D01*
X57230D01*
Y-26456D01*
X54530D01*
Y-25290D01*
X52864D01*
Y-22601D01*
X52610Y-21325D01*
X51887Y-20243D01*
X50806Y-19520D01*
X49530Y-19267D01*
D02*
G37*
G36*
X-212141Y-75355D02*
X-213417Y-75609D01*
X-214498Y-76332D01*
X-215221Y-77413D01*
X-215475Y-78689D01*
X-215424Y-78945D01*
Y-80521D01*
X-217590D01*
Y-90521D01*
X-206590D01*
Y-80521D01*
X-208756D01*
Y-78740D01*
X-209010Y-77464D01*
X-209732Y-76382D01*
X-209783Y-76332D01*
X-210865Y-75609D01*
X-212141Y-75355D01*
D02*
G37*
G36*
X156726Y236550D02*
X153091Y230254D01*
X162851Y224619D01*
X166486Y230915D01*
X156726Y236550D01*
D02*
G37*
G36*
X73770Y246012D02*
Y235000D01*
Y223988D01*
X74603Y224154D01*
X75708Y224892D01*
X76285Y225755D01*
X77500Y225386D01*
Y224500D01*
X86500D01*
Y245500D01*
X77500D01*
Y244614D01*
X76285Y244245D01*
X75708Y245108D01*
X74603Y245846D01*
X73770Y246012D01*
D02*
G37*
G36*
X173591Y238141D02*
X169956Y231845D01*
X179716Y226210D01*
X183351Y232506D01*
X173591Y238141D01*
D02*
G37*
G36*
X-133270Y246040D02*
X-137040D01*
Y236270D01*
X-133270D01*
Y246040D01*
D02*
G37*
G36*
X161631Y245046D02*
X157996Y238750D01*
X167756Y233115D01*
X171391Y239411D01*
X161631Y245046D01*
D02*
G37*
G36*
X71230Y233730D02*
X68295D01*
Y227300D01*
X68554Y225997D01*
X69292Y224892D01*
X70397Y224154D01*
X71230Y223988D01*
Y233730D01*
D02*
G37*
G36*
X-78770D02*
X-81705D01*
Y227300D01*
X-81446Y225997D01*
X-80708Y224892D01*
X-79603Y224154D01*
X-78770Y223988D01*
Y233730D01*
D02*
G37*
G36*
X-83294D02*
X-86230D01*
Y223988D01*
X-85397Y224154D01*
X-84292Y224892D01*
X-83554Y225997D01*
X-83294Y227300D01*
Y233730D01*
D02*
G37*
G36*
X-73295D02*
X-76230D01*
Y223988D01*
X-75397Y224154D01*
X-74292Y224892D01*
X-73554Y225997D01*
X-73295Y227300D01*
Y233730D01*
D02*
G37*
G36*
X-23294D02*
X-26230D01*
Y223988D01*
X-25397Y224154D01*
X-24292Y224892D01*
X-23554Y225997D01*
X-23294Y227300D01*
Y233730D01*
D02*
G37*
G36*
X-28770D02*
X-31705D01*
Y227300D01*
X-31446Y225997D01*
X-30708Y224892D01*
X-29603Y224154D01*
X-28770Y223988D01*
Y233730D01*
D02*
G37*
G36*
X-126960Y246040D02*
X-130730D01*
Y236270D01*
X-126960D01*
Y246040D01*
D02*
G37*
G36*
X3770Y246012D02*
Y236270D01*
X6705D01*
Y242700D01*
X6446Y244003D01*
X5708Y245108D01*
X4603Y245846D01*
X3770Y246012D01*
D02*
G37*
G36*
X1230D02*
X397Y245846D01*
X-708Y245108D01*
X-1446Y244003D01*
X-1705Y242700D01*
Y236270D01*
X1230D01*
Y246012D01*
D02*
G37*
G36*
X71230D02*
X70397Y245846D01*
X69292Y245108D01*
X68554Y244003D01*
X68295Y242700D01*
Y236270D01*
X71230D01*
Y246012D01*
D02*
G37*
G36*
X109867Y274308D02*
X107600Y270382D01*
X104140D01*
X102864Y270128D01*
X101783Y269406D01*
X101060Y268324D01*
X100806Y267048D01*
X101060Y265772D01*
X101783Y264691D01*
X102864Y263968D01*
X103318Y262966D01*
X101867Y260452D01*
X106510Y257771D01*
X106676Y256512D01*
X104107Y253942D01*
X103384Y252861D01*
X103130Y251585D01*
Y216354D01*
X103384Y215078D01*
X104107Y213996D01*
X104107Y213996D01*
X104107Y213996D01*
X107622Y210481D01*
X108704Y209758D01*
X109979Y209505D01*
X112533D01*
X152605Y169432D01*
X153687Y168709D01*
X154963Y168456D01*
X156239Y168709D01*
X157321Y169432D01*
X157448Y169622D01*
X158712Y169747D01*
X167419Y161039D01*
X167419Y161039D01*
X167419D01*
X167419Y161039D01*
X167419D01*
X167420Y161039D01*
Y161039D01*
Y161039D01*
D01*
D01*
X167420D01*
Y161039D01*
X168501Y160316D01*
X169777Y160062D01*
X185522D01*
X186797Y160316D01*
X187879Y161039D01*
X188602Y162120D01*
X188856Y163396D01*
X188602Y164672D01*
X187879Y165754D01*
X186882Y166420D01*
X187309Y167616D01*
X188730Y167476D01*
Y188730D01*
X167476D01*
X167786Y185581D01*
X169075Y181333D01*
X171168Y177417D01*
X173985Y173985D01*
X177417Y171168D01*
X181333Y169075D01*
X184921Y167987D01*
X184735Y166730D01*
X171158D01*
X164377Y173512D01*
X164501Y174776D01*
X164691Y174902D01*
X165414Y175984D01*
X165668Y177260D01*
X165414Y178536D01*
X164691Y179618D01*
X127694Y216615D01*
Y218225D01*
X127440Y219500D01*
X126718Y220582D01*
X125636Y221305D01*
X124360Y221559D01*
X123084Y221305D01*
X122002Y220582D01*
X121280Y219500D01*
X121063Y218409D01*
X119847Y218041D01*
X117306Y220582D01*
X116225Y221305D01*
X114949Y221559D01*
X111860D01*
X110780Y221344D01*
X109798Y222149D01*
Y250204D01*
X113392Y253798D01*
X122652Y248452D01*
X130652Y262308D01*
X109867Y274308D01*
D02*
G37*
G36*
X23300Y247594D02*
X21700D01*
X19827Y247222D01*
X18239Y246161D01*
X17179Y244573D01*
X17098Y244168D01*
X15852Y243920D01*
X15319Y244719D01*
X14392Y245338D01*
X13300Y245555D01*
X11700D01*
X10608Y245338D01*
X9681Y244719D01*
X9062Y243792D01*
X8845Y242700D01*
Y227300D01*
X9062Y226208D01*
X9166Y226053D01*
Y223977D01*
X8399Y223567D01*
X7909Y223470D01*
X7601Y223676D01*
X6334Y223928D01*
X5848Y225101D01*
X6446Y225997D01*
X6705Y227300D01*
Y233730D01*
X-1705D01*
Y227300D01*
X-1446Y225997D01*
X-708Y224892D01*
X397Y224154D01*
X1700Y223895D01*
X3250D01*
X3330Y223746D01*
X3598Y222399D01*
X3245Y221871D01*
X2991Y220595D01*
X3245Y219320D01*
X3968Y218238D01*
X4166Y218040D01*
Y217947D01*
X4062Y217792D01*
X3845Y216700D01*
Y201300D01*
X4062Y200208D01*
X4681Y199281D01*
X5608Y198662D01*
X6700Y198445D01*
X8300D01*
X9392Y198662D01*
X10319Y199281D01*
X10938Y200208D01*
X11155Y201300D01*
Y216700D01*
X10938Y217792D01*
X10834Y217947D01*
Y219421D01*
X10789Y219650D01*
X11687Y220548D01*
X12500Y220386D01*
X13776Y220640D01*
X14825Y221341D01*
X14943Y221305D01*
X16237Y220441D01*
X15652Y219346D01*
X15608Y219338D01*
X14681Y218719D01*
X14062Y217792D01*
X13845Y216700D01*
Y201300D01*
X14062Y200208D01*
X14681Y199281D01*
X15608Y198662D01*
X16700Y198445D01*
X18300D01*
X18300Y198445D01*
Y198445D01*
X18576Y198120D01*
Y131097D01*
X18885Y128747D01*
X19792Y126558D01*
X21235Y124678D01*
X36072Y109840D01*
Y102170D01*
X8827D01*
Y101872D01*
X-17167D01*
Y88372D01*
X-17167D01*
Y87733D01*
X-17318Y87703D01*
X-18400Y86980D01*
X-19123Y85898D01*
X-19376Y84622D01*
X-19123Y83347D01*
X-18400Y82265D01*
X-17318Y81542D01*
X-16042Y81288D01*
X-14767D01*
Y80273D01*
X-8968D01*
Y77952D01*
X-8714Y76676D01*
X-7991Y75594D01*
X-6909Y74872D01*
X-5634Y74618D01*
X-4856Y74772D01*
X-3874Y73967D01*
Y73412D01*
X-3620Y72136D01*
X-2898Y71054D01*
X-1816Y70332D01*
X-705Y70110D01*
X-336Y68895D01*
X-3667Y65564D01*
X-11260D01*
X-19904Y74208D01*
X-20985Y74930D01*
X-22261Y75184D01*
X-48722D01*
X-49998Y74930D01*
X-51080Y74208D01*
X-76948Y48339D01*
X-78212Y48464D01*
X-78803Y49348D01*
X-94966Y65511D01*
Y71535D01*
X-95220Y72811D01*
X-95942Y73892D01*
X-125280Y103230D01*
Y108593D01*
X-125534Y109869D01*
X-126257Y110951D01*
X-130164Y114858D01*
X-131245Y115580D01*
X-132521Y115834D01*
X-142500D01*
Y119250D01*
Y124250D01*
Y128710D01*
X-141960D01*
Y131480D01*
X-160540D01*
Y130834D01*
X-161579D01*
X-162167Y130717D01*
X-163297Y131472D01*
X-163378Y131553D01*
X-163129Y132805D01*
X-163383Y134081D01*
X-164106Y135162D01*
X-165187Y135885D01*
X-166463Y136139D01*
X-167739Y135885D01*
X-168821Y135162D01*
X-168827Y135156D01*
X-170000Y135642D01*
Y138250D01*
X-170000Y138250D01*
X-170000D01*
X-170081Y138446D01*
X-112507Y196020D01*
X-112211Y196406D01*
X-111700D01*
X-109827Y196779D01*
X-108239Y197839D01*
X-107257Y199310D01*
X-106588D01*
X-105895Y199172D01*
X-105708Y198892D01*
X-104603Y198154D01*
X-103770Y197988D01*
Y209000D01*
Y220012D01*
X-104603Y219846D01*
X-105708Y219108D01*
X-105895Y218828D01*
X-106588Y218690D01*
X-107257D01*
X-108239Y220161D01*
X-109827Y221222D01*
X-110440Y221343D01*
Y223095D01*
X-109392Y224662D01*
X-108300Y224445D01*
X-106700D01*
X-105607Y224662D01*
X-104681Y225281D01*
X-104062Y226208D01*
X-103845Y227300D01*
Y242700D01*
X-104062Y243792D01*
X-104681Y244719D01*
X-105607Y245338D01*
X-106700Y245555D01*
X-108300D01*
X-109392Y245338D01*
X-110319Y244719D01*
X-110852Y243920D01*
X-112098Y244168D01*
X-112178Y244573D01*
X-113239Y246161D01*
X-114827Y247222D01*
X-116700Y247594D01*
X-118300D01*
X-120173Y247222D01*
X-121761Y246161D01*
X-122821Y244573D01*
X-123194Y242700D01*
Y239078D01*
X-123614Y238530D01*
X-124320Y236827D01*
X-124560Y235000D01*
Y221343D01*
X-125173Y221222D01*
X-126761Y220161D01*
X-126861Y220010D01*
X-126960Y220040D01*
Y220040D01*
X-126960Y220040D01*
X-130730D01*
Y209000D01*
X-132000D01*
Y207730D01*
X-137040D01*
Y197960D01*
X-132196D01*
X-131710Y196787D01*
X-185742Y142754D01*
X-186567Y141680D01*
X-191866D01*
X-193693Y141440D01*
X-194192Y141233D01*
X-195396Y140735D01*
X-196859Y139612D01*
X-200572Y135899D01*
X-201695Y134436D01*
X-202400Y132733D01*
X-202640Y130906D01*
Y118770D01*
X-202400Y116943D01*
X-202378Y116890D01*
X-203084Y115834D01*
X-209143D01*
X-210419Y115580D01*
X-211500Y114858D01*
X-238958Y87400D01*
X-239680Y86319D01*
X-239934Y85043D01*
Y25414D01*
X-239680Y24138D01*
X-238958Y23057D01*
X-235394Y19493D01*
Y2927D01*
X-235140Y1652D01*
X-234417Y570D01*
X-234417Y570D01*
X-234417Y570D01*
X-207170Y-26677D01*
X-207170D01*
X-207170Y-26677D01*
X-207170Y-26678D01*
Y-26677D01*
X-206089Y-27400D01*
X-204813Y-27654D01*
X-78860D01*
X-77584Y-27400D01*
X-76502Y-26677D01*
X-76502Y-26677D01*
X-76502Y-26677D01*
X-22043Y27781D01*
X9737D01*
X11013Y28035D01*
X12094Y28758D01*
X12817Y29839D01*
X13071Y31115D01*
X12817Y32391D01*
X12094Y33472D01*
X11013Y34195D01*
X10338Y34329D01*
X9970Y35545D01*
X12094Y37669D01*
X12094Y37669D01*
X27717Y53292D01*
X28440Y54373D01*
X28693Y55649D01*
Y80570D01*
X34493D01*
Y88670D01*
X36072D01*
Y43124D01*
X-7637Y-585D01*
X-7705Y-637D01*
X-7705Y-637D01*
X-36909Y-29841D01*
X-100760D01*
X-103110Y-30151D01*
X-105299Y-31058D01*
X-107179Y-32500D01*
X-108621Y-34380D01*
X-109528Y-36569D01*
X-109838Y-38919D01*
Y-48260D01*
X-109528Y-50609D01*
X-108621Y-52799D01*
X-107179Y-54679D01*
X-105299Y-56122D01*
X-103110Y-57028D01*
X-100760Y-57338D01*
X-98411Y-57028D01*
X-96221Y-56122D01*
X-94341Y-54679D01*
X-92899Y-52799D01*
X-91992Y-50609D01*
X-91682Y-48260D01*
Y-47997D01*
X-33149D01*
X-30800Y-47687D01*
X-28610Y-46780D01*
X-26730Y-45338D01*
X5081Y-13527D01*
X5149Y-13475D01*
X5149Y-13475D01*
X5149Y-13475D01*
X13359Y-5265D01*
X14623Y-5389D01*
X15143Y-6168D01*
X16224Y-6890D01*
X17500Y-7144D01*
X18776Y-6890D01*
X19857Y-6168D01*
X56968Y30942D01*
X57690Y32024D01*
X57944Y33300D01*
Y79899D01*
X60198Y82152D01*
X60920Y83234D01*
X60920Y83234D01*
X60920Y83234D01*
X61174Y84510D01*
Y90250D01*
X62340D01*
Y91931D01*
X64660D01*
Y90266D01*
X82660D01*
Y92366D01*
X83662Y92565D01*
X84605Y93195D01*
X85235Y94138D01*
X85456Y95250D01*
X85235Y96362D01*
X84605Y97305D01*
X83662Y97935D01*
X82660Y98134D01*
Y100266D01*
X64660D01*
Y98600D01*
X62340D01*
Y100250D01*
X55340D01*
Y102250D01*
X54228D01*
Y113600D01*
X54228Y113600D01*
X53918Y115949D01*
X53011Y118139D01*
X52195Y119203D01*
X51569Y120019D01*
X51569Y120019D01*
X36731Y134857D01*
Y148417D01*
X37787Y149123D01*
X37826Y149107D01*
X39653Y148866D01*
X41481Y149107D01*
X43184Y149812D01*
X44646Y150934D01*
X45768Y152396D01*
X46473Y154099D01*
X46714Y155927D01*
X46473Y157754D01*
X45768Y159457D01*
X44646Y160919D01*
X43184Y162041D01*
X41481Y162746D01*
X39653Y162987D01*
X37826Y162746D01*
X37787Y162730D01*
X36731Y163436D01*
Y197895D01*
X38300D01*
X39166Y197184D01*
Y184510D01*
X39420Y183234D01*
X40142Y182153D01*
X40142Y182152D01*
X40142Y182152D01*
X104003Y118293D01*
X105084Y117570D01*
X106360Y117316D01*
X113030D01*
X114306Y117570D01*
X115387Y118293D01*
X115514Y118483D01*
X116778Y118607D01*
X129243Y106143D01*
X130325Y105420D01*
X131601Y105166D01*
X142500D01*
Y102290D01*
X141960D01*
Y99770D01*
X160540D01*
Y100166D01*
X161910D01*
X163186Y100420D01*
X163375Y100546D01*
X164431Y99841D01*
X164306Y99210D01*
X164560Y97934D01*
X165282Y96853D01*
X166364Y96130D01*
X167640Y95876D01*
X168916Y96130D01*
X169998Y96853D01*
X170827Y97682D01*
X172000Y97196D01*
Y95250D01*
Y93750D01*
X170000D01*
Y86768D01*
X169054Y86580D01*
X167973Y85857D01*
X167250Y84776D01*
X166996Y83500D01*
X167250Y82224D01*
X167250D01*
X166370Y81834D01*
X165094Y81580D01*
X164013Y80857D01*
X163290Y79776D01*
X163036Y78500D01*
X163290Y77224D01*
X164013Y76143D01*
X165094Y75420D01*
X166370Y75166D01*
X170000D01*
Y68250D01*
Y66768D01*
X169054Y66580D01*
X167973Y65858D01*
X167250Y64776D01*
X166996Y63500D01*
X167250Y62224D01*
X167250D01*
X166370Y61754D01*
X165094Y61500D01*
X164013Y60778D01*
X163290Y59696D01*
X163036Y58420D01*
X163290Y57144D01*
X164013Y56062D01*
X165094Y55340D01*
X166370Y55086D01*
X166370Y55086D01*
X166370Y55086D01*
X167250Y54776D01*
X166996Y53500D01*
X167250Y52224D01*
X167973Y51143D01*
X169054Y50420D01*
X170330Y50166D01*
X172000D01*
Y45250D01*
Y41834D01*
X170730D01*
X169454Y41580D01*
X168372Y40858D01*
X167650Y39776D01*
X167396Y38500D01*
X167650Y37224D01*
X168372Y36142D01*
X169454Y35420D01*
X170000Y35311D01*
Y28250D01*
X172000D01*
Y25250D01*
Y20250D01*
Y14750D01*
X179546D01*
Y13970D01*
X179800Y12694D01*
X180522Y11612D01*
X181604Y10890D01*
X182880Y10636D01*
X184156Y10890D01*
X185238Y11612D01*
X185960Y12694D01*
X186214Y13970D01*
Y14750D01*
X189500D01*
Y20166D01*
X191770D01*
X192534Y20318D01*
X193516Y19512D01*
Y15757D01*
X193770Y14481D01*
X194492Y13399D01*
X195574Y12677D01*
X196850Y12423D01*
X198126Y12677D01*
X199207Y13399D01*
X199930Y14481D01*
X200184Y15757D01*
Y25268D01*
X199930Y26544D01*
X199260Y27547D01*
X199629Y28762D01*
X199745Y28811D01*
X201207Y29933D01*
X202330Y31395D01*
X203035Y33098D01*
X203275Y34925D01*
Y38100D01*
Y93687D01*
X214402D01*
X215756Y90573D01*
X216371Y90840D01*
X217086Y89790D01*
X213542Y86247D01*
X212820Y85165D01*
X212566Y83889D01*
Y83500D01*
X212820Y82224D01*
X213542Y81143D01*
X214624Y80420D01*
X215900Y80166D01*
X217176Y80420D01*
X218258Y81143D01*
X218980Y82224D01*
X218988Y82262D01*
X219976Y83250D01*
X221224Y83013D01*
X221698Y81923D01*
X221698Y81923D01*
X221698Y81923D01*
X221777Y81741D01*
X222056Y81099D01*
D01*
X222056Y81099D01*
X222068Y81072D01*
X221372Y80010D01*
X221232D01*
X219956Y79756D01*
X218875Y79033D01*
X218152Y77952D01*
X217898Y76676D01*
X218152Y75400D01*
X218875Y74318D01*
X219956Y73596D01*
X221232Y73342D01*
X225429D01*
X226682Y70459D01*
X226682Y70459D01*
X226682Y70459D01*
X226841Y70094D01*
X226941Y69865D01*
X227041Y69636D01*
X227199Y69271D01*
Y69271D01*
X227199D01*
X227311Y69014D01*
X226722Y67888D01*
X226530Y67850D01*
X225448Y67127D01*
X224726Y66046D01*
X224472Y64770D01*
X224726Y63494D01*
X225448Y62413D01*
X226530Y61690D01*
X227806Y61436D01*
X230606D01*
X231826Y58631D01*
X254752Y68600D01*
X250126Y79240D01*
X250126Y79240D01*
X250126Y79240D01*
X249967Y79605D01*
X249768Y80063D01*
D01*
D01*
D01*
D01*
X249768D01*
X249768Y80063D01*
X245062Y90886D01*
X245062Y90886D01*
X245062D01*
X244983Y91068D01*
X244704Y91710D01*
D01*
X244704Y91710D01*
X240517Y101339D01*
X242351Y102136D01*
X235971Y116809D01*
X235455Y116585D01*
X234274Y117051D01*
X233264Y119373D01*
X221306Y114173D01*
X220293Y116502D01*
X232251Y121702D01*
X230963Y124664D01*
X232201Y125202D01*
X240865D01*
X241284Y124923D01*
X243722Y124438D01*
X246161Y124923D01*
X248228Y126304D01*
X249610Y128371D01*
X250095Y130810D01*
X249610Y133249D01*
X248228Y135316D01*
X246161Y136697D01*
X243722Y137182D01*
X241284Y136697D01*
X240865Y136418D01*
X227445D01*
X225922Y139919D01*
X204338Y130534D01*
X203275Y131230D01*
Y137084D01*
X203035Y138911D01*
X202330Y140614D01*
X201207Y142076D01*
X195162Y148121D01*
X193700Y149243D01*
X191997Y149949D01*
X190170Y150189D01*
X176530D01*
X174703Y149949D01*
X173000Y149243D01*
X171538Y148121D01*
X170415Y146659D01*
X169710Y144956D01*
X169470Y143129D01*
X169710Y141302D01*
X170000Y140602D01*
Y136768D01*
X169054Y136580D01*
X167973Y135857D01*
X167250Y134776D01*
X166996Y133500D01*
X167250Y132224D01*
D01*
X166370Y132224D01*
X166370Y132224D01*
Y132224D01*
X165094Y131970D01*
X164013Y131248D01*
X163290Y130166D01*
X163036Y128890D01*
X163285Y127637D01*
X163207Y127559D01*
X162073Y126802D01*
X161910Y126834D01*
X160540D01*
Y127230D01*
X141960D01*
Y124710D01*
X142500D01*
Y122290D01*
X141960D01*
Y119770D01*
X151250D01*
Y117230D01*
X141960D01*
Y116834D01*
X134402D01*
X125266Y125970D01*
Y144710D01*
X125012Y145985D01*
X124290Y147067D01*
X123208Y147790D01*
X121932Y148044D01*
X120656Y147790D01*
X119575Y147067D01*
X118852Y145985D01*
X118598Y144710D01*
Y127877D01*
X117425Y127391D01*
X65834Y178981D01*
Y197184D01*
X66230Y197509D01*
Y209000D01*
Y220491D01*
X65834Y220816D01*
Y226053D01*
X65938Y226208D01*
X66155Y227300D01*
Y242700D01*
X65938Y243792D01*
X65319Y244719D01*
X64392Y245338D01*
X63300Y245555D01*
X61700D01*
X60608Y245338D01*
X59681Y244719D01*
X59062Y243792D01*
X58845Y242700D01*
Y227300D01*
X59062Y226208D01*
X59166Y226053D01*
Y220266D01*
X58300Y219555D01*
X56700D01*
X55834Y220266D01*
Y226053D01*
X55938Y226208D01*
X56155Y227300D01*
Y242700D01*
X55938Y243792D01*
X55319Y244719D01*
X54392Y245338D01*
X53300Y245555D01*
X51700D01*
X50608Y245338D01*
X49681Y244719D01*
X49062Y243792D01*
X48845Y242700D01*
Y227300D01*
X49062Y226208D01*
X49166Y226053D01*
Y220266D01*
X48300Y219555D01*
X46700D01*
X45834Y220266D01*
Y226053D01*
X45938Y226208D01*
X46155Y227300D01*
Y242700D01*
X45938Y243792D01*
X45319Y244719D01*
X44392Y245338D01*
X43300Y245555D01*
X41700D01*
X40608Y245338D01*
X39681Y244719D01*
X39062Y243792D01*
X38845Y242700D01*
Y227300D01*
X39062Y226208D01*
X39166Y226053D01*
Y220816D01*
X38770Y220491D01*
Y209000D01*
X36230D01*
Y220012D01*
X35397Y219846D01*
X34343Y220324D01*
X34320Y220497D01*
X33614Y222200D01*
X33300Y222610D01*
X33300Y224445D01*
X34392Y224662D01*
X35319Y225281D01*
X35938Y226208D01*
X36155Y227300D01*
Y242700D01*
X35938Y243792D01*
X35319Y244719D01*
X34392Y245338D01*
X33300Y245555D01*
X31700D01*
X30608Y245338D01*
X29681Y244719D01*
X29148Y243920D01*
X27902Y244168D01*
X27822Y244573D01*
X26761Y246161D01*
X25173Y247222D01*
X23300Y247594D01*
D02*
G37*
G36*
X-26230Y246012D02*
Y236270D01*
X-23294D01*
Y242700D01*
X-23554Y244003D01*
X-24292Y245108D01*
X-25397Y245846D01*
X-26230Y246012D01*
D02*
G37*
G36*
X-86230D02*
Y236270D01*
X-83294D01*
Y242700D01*
X-83554Y244003D01*
X-84292Y245108D01*
X-85397Y245846D01*
X-86230Y246012D01*
D02*
G37*
G36*
X-88770D02*
X-89603Y245846D01*
X-90708Y245108D01*
X-91446Y244003D01*
X-91705Y242700D01*
Y236270D01*
X-88770D01*
Y246012D01*
D02*
G37*
G36*
X-78770D02*
X-79603Y245846D01*
X-80708Y245108D01*
X-81446Y244003D01*
X-81705Y242700D01*
Y236270D01*
X-78770D01*
Y246012D01*
D02*
G37*
G36*
X-28770D02*
X-29603Y245846D01*
X-30708Y245108D01*
X-31446Y244003D01*
X-31705Y242700D01*
Y236270D01*
X-28770D01*
Y246012D01*
D02*
G37*
G36*
X-76230D02*
Y236270D01*
X-73295D01*
Y242700D01*
X-73554Y244003D01*
X-74292Y245108D01*
X-75397Y245846D01*
X-76230Y246012D01*
D02*
G37*
G36*
X-88770Y233730D02*
X-91705D01*
Y227300D01*
X-91446Y225997D01*
X-90708Y224892D01*
X-89603Y224154D01*
X-88770Y223988D01*
Y233730D01*
D02*
G37*
G36*
X1706Y207730D02*
X-1230D01*
Y197988D01*
X-397Y198154D01*
X708Y198892D01*
X1446Y199997D01*
X1706Y201300D01*
Y207730D01*
D02*
G37*
G36*
X191270Y212524D02*
Y191270D01*
X212524D01*
X212214Y194419D01*
X210925Y198667D01*
X208832Y202583D01*
X206015Y206015D01*
X202583Y208832D01*
X198667Y210925D01*
X194419Y212214D01*
X191270Y212524D01*
D02*
G37*
G36*
X71705Y207730D02*
X68770D01*
Y197988D01*
X69603Y198154D01*
X70708Y198892D01*
X71446Y199997D01*
X71705Y201300D01*
Y207730D01*
D02*
G37*
G36*
X-133270Y220040D02*
X-137040D01*
Y210270D01*
X-133270D01*
Y220040D01*
D02*
G37*
G36*
X86500Y219500D02*
X77500D01*
Y198500D01*
X86500D01*
Y219500D01*
D02*
G37*
G36*
X188730Y212524D02*
X185581Y212214D01*
X181333Y210925D01*
X177417Y208832D01*
X173985Y206015D01*
X171168Y202583D01*
X169075Y198667D01*
X167786Y194419D01*
X167476Y191270D01*
X188730D01*
Y212524D01*
D02*
G37*
G36*
X-167476Y188730D02*
X-188730D01*
Y167476D01*
X-185581Y167786D01*
X-181333Y169075D01*
X-177417Y171168D01*
X-173985Y173985D01*
X-171168Y177417D01*
X-169075Y181333D01*
X-167786Y185581D01*
X-167476Y188730D01*
D02*
G37*
G36*
X-191270D02*
X-212524D01*
X-212214Y185581D01*
X-210925Y181333D01*
X-208832Y177417D01*
X-206015Y173985D01*
X-202583Y171168D01*
X-198667Y169075D01*
X-194419Y167786D01*
X-191270Y167476D01*
Y188730D01*
D02*
G37*
G36*
X212524D02*
X191270D01*
Y167476D01*
X194419Y167786D01*
X198667Y169075D01*
X202583Y171168D01*
X206015Y173985D01*
X208832Y177417D01*
X210925Y181333D01*
X212214Y185581D01*
X212524Y188730D01*
D02*
G37*
G36*
X-188730Y212524D02*
Y191270D01*
X-167476D01*
X-167786Y194419D01*
X-169075Y198667D01*
X-171168Y202583D01*
X-173985Y206015D01*
X-177417Y208832D01*
X-181333Y210925D01*
X-185581Y212214D01*
X-188730Y212524D01*
D02*
G37*
G36*
X-191270D02*
X-194419Y212214D01*
X-198667Y210925D01*
X-202583Y208832D01*
X-206015Y206015D01*
X-208832Y202583D01*
X-210925Y198667D01*
X-212214Y194419D01*
X-212524Y191270D01*
X-191270D01*
Y212524D01*
D02*
G37*
G36*
X-6700Y245555D02*
X-8300D01*
X-9392Y245338D01*
X-10319Y244719D01*
X-10938Y243792D01*
X-11155Y242700D01*
Y227300D01*
X-10938Y226208D01*
X-10834Y226053D01*
Y220266D01*
X-11700Y219555D01*
X-13300D01*
X-14166Y220266D01*
Y226053D01*
X-14062Y226208D01*
X-13845Y227300D01*
Y242700D01*
X-14062Y243792D01*
X-14681Y244719D01*
X-15608Y245338D01*
X-16700Y245555D01*
X-18300D01*
X-19392Y245338D01*
X-20319Y244719D01*
X-20938Y243792D01*
X-21155Y242700D01*
Y227300D01*
X-20938Y226208D01*
X-20834Y226053D01*
Y220266D01*
X-21700Y219555D01*
X-23300D01*
X-24392Y219338D01*
X-25319Y218719D01*
X-25938Y217792D01*
X-26155Y216700D01*
Y201300D01*
X-25938Y200208D01*
X-25834Y200053D01*
Y126861D01*
X-51887Y100808D01*
X-52610Y99726D01*
X-52864Y98450D01*
X-52610Y97175D01*
X-51887Y96093D01*
X-50806Y95370D01*
X-49530Y95117D01*
X-48254Y95370D01*
X-47172Y96093D01*
X-21361Y121905D01*
X-20097Y121780D01*
X-19857Y121423D01*
X-18776Y120700D01*
X-17500Y120446D01*
X-16224Y120700D01*
X-15142Y121423D01*
X-14420Y122504D01*
X-14166Y123780D01*
Y137747D01*
X-13184Y138553D01*
X-12500Y138417D01*
X-11224Y138671D01*
X-10142Y139394D01*
X-9420Y140475D01*
X-9166Y141751D01*
Y171256D01*
X-8184Y172062D01*
X-7500Y171926D01*
X-6224Y172180D01*
X-5142Y172903D01*
X-4420Y173984D01*
X-4166Y175260D01*
Y197184D01*
X-3770Y197509D01*
Y209000D01*
Y220491D01*
X-4166Y220816D01*
Y226053D01*
X-4062Y226208D01*
X-3845Y227300D01*
Y242700D01*
X-4062Y243792D01*
X-4681Y244719D01*
X-5608Y245338D01*
X-6700Y245555D01*
D02*
G37*
G36*
X-36700D02*
X-38300D01*
X-39392Y245338D01*
X-40319Y244719D01*
X-40938Y243792D01*
X-41155Y242700D01*
Y227300D01*
X-40938Y226208D01*
X-40834Y226053D01*
Y220266D01*
X-41700Y219555D01*
X-43300D01*
X-44166Y220266D01*
Y226053D01*
X-44062Y226208D01*
X-43845Y227300D01*
Y242700D01*
X-44062Y243792D01*
X-44681Y244719D01*
X-45608Y245338D01*
X-46700Y245555D01*
X-48300D01*
X-49392Y245338D01*
X-50319Y244719D01*
X-50938Y243792D01*
X-51155Y242700D01*
Y227300D01*
X-50938Y226208D01*
X-50834Y226053D01*
Y220816D01*
X-51230Y220491D01*
Y209000D01*
X-53770D01*
Y220491D01*
X-54166Y220816D01*
Y226053D01*
X-54062Y226208D01*
X-53845Y227300D01*
Y242700D01*
X-54062Y243792D01*
X-54681Y244719D01*
X-55608Y245338D01*
X-56700Y245555D01*
X-58300D01*
X-59392Y245338D01*
X-60319Y244719D01*
X-60938Y243792D01*
X-61155Y242700D01*
Y227300D01*
X-60938Y226208D01*
X-60834Y226053D01*
Y220266D01*
X-61700Y219555D01*
X-63300D01*
X-64166Y220266D01*
Y226053D01*
X-64062Y226208D01*
X-63845Y227300D01*
Y242700D01*
X-64062Y243792D01*
X-64681Y244719D01*
X-65607Y245338D01*
X-66700Y245555D01*
X-68300D01*
X-69392Y245338D01*
X-70319Y244719D01*
X-70938Y243792D01*
X-71155Y242700D01*
Y227300D01*
X-70938Y226208D01*
X-70834Y226053D01*
Y220266D01*
X-71700Y219555D01*
X-73300D01*
X-74392Y219338D01*
X-75319Y218719D01*
X-75938Y217792D01*
X-76155Y216700D01*
Y201300D01*
X-75938Y200208D01*
X-75834Y200053D01*
Y196045D01*
X-77993Y193886D01*
X-79166Y194372D01*
Y200053D01*
X-79062Y200208D01*
X-78845Y201300D01*
Y216700D01*
X-79062Y217792D01*
X-79681Y218719D01*
X-80608Y219338D01*
X-81700Y219555D01*
X-83300D01*
X-84392Y219338D01*
X-85319Y218719D01*
X-85938Y217792D01*
X-86155Y216700D01*
Y201300D01*
X-85938Y200208D01*
X-85834Y200053D01*
Y192465D01*
X-87993Y190307D01*
X-89166Y190793D01*
Y200053D01*
X-89062Y200208D01*
X-88845Y201300D01*
Y216700D01*
X-89062Y217792D01*
X-89681Y218719D01*
X-90607Y219338D01*
X-91700Y219555D01*
X-93300D01*
X-94166Y220266D01*
Y226053D01*
X-94062Y226208D01*
X-93845Y227300D01*
Y242700D01*
X-94062Y243792D01*
X-94681Y244719D01*
X-95608Y245338D01*
X-96700Y245555D01*
X-98300D01*
X-99392Y245338D01*
X-100319Y244719D01*
X-100938Y243792D01*
X-101155Y242700D01*
Y227300D01*
X-100938Y226208D01*
X-100834Y226053D01*
Y220816D01*
X-101230Y220491D01*
Y209000D01*
Y197509D01*
X-100834Y197184D01*
Y190306D01*
X-111127Y180013D01*
X-111850Y178931D01*
X-112104Y177656D01*
Y145402D01*
X-115387Y142119D01*
X-116110Y141037D01*
X-116364Y139761D01*
X-116110Y138485D01*
X-115387Y137403D01*
X-114306Y136681D01*
X-113030Y136427D01*
X-111754Y136681D01*
X-110673Y137403D01*
X-107888Y140188D01*
X-106624Y140063D01*
X-106497Y139873D01*
X-105416Y139150D01*
X-104140Y138896D01*
X-103376Y139049D01*
X-102394Y138243D01*
Y134415D01*
X-102140Y133139D01*
X-101418Y132057D01*
X-100336Y131334D01*
X-99060Y131081D01*
X-98296Y131233D01*
X-97314Y130427D01*
Y116971D01*
X-97060Y115695D01*
X-96337Y114613D01*
X-95256Y113890D01*
X-93980Y113636D01*
X-92704Y113890D01*
X-91622Y114613D01*
X-90900Y115695D01*
X-90646Y116971D01*
Y124483D01*
X-89664Y125289D01*
X-88900Y125137D01*
X-88136Y125289D01*
X-87154Y124483D01*
Y77930D01*
X-86900Y76654D01*
X-86178Y75573D01*
X-85096Y74850D01*
X-83820Y74596D01*
X-82544Y74850D01*
X-81462Y75573D01*
X-80740Y76654D01*
X-80486Y77930D01*
Y93144D01*
X-79504Y93949D01*
X-78740Y93798D01*
X-77464Y94051D01*
X-76382Y94774D01*
X-75660Y95856D01*
X-75406Y97132D01*
Y97612D01*
X-74424Y98418D01*
X-73660Y98266D01*
X-72384Y98520D01*
X-71302Y99242D01*
X-70580Y100324D01*
X-70326Y101600D01*
Y131099D01*
X-69344Y131905D01*
X-68580Y131753D01*
X-67816Y131905D01*
X-66834Y131099D01*
Y127000D01*
X-66580Y125724D01*
X-65858Y124642D01*
X-64776Y123920D01*
X-63500Y123666D01*
X-62224Y123920D01*
X-61143Y124642D01*
X-60420Y125724D01*
X-60166Y127000D01*
Y163759D01*
X-56558Y167367D01*
X-56558Y167367D01*
X-56558Y167367D01*
X-56433Y167355D01*
X-55294Y167243D01*
D01*
X-54671Y166309D01*
X-53589Y165586D01*
X-52313Y165333D01*
X-51038Y165586D01*
X-49956Y166309D01*
X-30142Y186122D01*
X-29420Y187204D01*
X-29166Y188480D01*
Y200053D01*
X-29062Y200208D01*
X-28845Y201300D01*
Y216700D01*
X-29062Y217792D01*
X-29681Y218719D01*
X-30608Y219338D01*
X-31700Y219555D01*
X-33300D01*
X-34166Y220266D01*
Y226053D01*
X-34062Y226208D01*
X-33845Y227300D01*
Y242700D01*
X-34062Y243792D01*
X-34681Y244719D01*
X-35608Y245338D01*
X-36700Y245555D01*
D02*
G37*
G36*
X-126960Y233730D02*
X-130730D01*
Y223960D01*
X-126960D01*
Y233730D01*
D02*
G37*
G36*
X-133270D02*
X-137040D01*
Y223960D01*
X-133270D01*
Y233730D01*
D02*
G37*
G36*
X68770Y220012D02*
Y210270D01*
X71705D01*
Y216700D01*
X71446Y218003D01*
X70708Y219108D01*
X69603Y219846D01*
X68770Y220012D01*
D02*
G37*
G36*
X168686Y229645D02*
X165051Y223349D01*
X174811Y217714D01*
X178446Y224010D01*
X168686Y229645D01*
D02*
G37*
G36*
X-1230Y220012D02*
Y210270D01*
X1706D01*
Y216700D01*
X1446Y218003D01*
X708Y219108D01*
X-397Y219846D01*
X-1230Y220012D01*
D02*
G37*
%LPD*%
G36*
X-170492Y124420D02*
X-169594Y123522D01*
X-169797Y122500D01*
X-169543Y121224D01*
X-168821Y120142D01*
X-167739Y119420D01*
X-166463Y119166D01*
X-165583D01*
X-164777Y118184D01*
X-164913Y117500D01*
X-164660Y116224D01*
X-163937Y115142D01*
X-162855Y114420D01*
X-161579Y114166D01*
X-160000D01*
Y111290D01*
X-160540D01*
Y108770D01*
X-151250D01*
Y106230D01*
X-160540D01*
Y103710D01*
X-160000D01*
Y99250D01*
Y94250D01*
Y89250D01*
Y84250D01*
Y79250D01*
Y74250D01*
Y69250D01*
Y64250D01*
Y59250D01*
Y56290D01*
X-160540D01*
Y53770D01*
X-141960D01*
Y56290D01*
X-142500D01*
Y59250D01*
Y64250D01*
Y69250D01*
Y74250D01*
Y79250D01*
Y84250D01*
Y89166D01*
X-139908D01*
X-115254Y64512D01*
Y58488D01*
X-115000Y57212D01*
X-114277Y56131D01*
X-88918Y30772D01*
X-87837Y30049D01*
X-86561Y29795D01*
X-74602D01*
X-73326Y30049D01*
X-72244Y30772D01*
X-72244Y30772D01*
X-72244Y30772D01*
X-43143Y59872D01*
X-42421Y60954D01*
X-42167Y62230D01*
X-42319Y62994D01*
X-41513Y63976D01*
X-25522D01*
X-16689Y55142D01*
X-15607Y54420D01*
X-14332Y54166D01*
X-595D01*
X680Y54420D01*
X1762Y55142D01*
X1762Y55142D01*
X1762Y55142D01*
X15821Y69201D01*
X16995Y68716D01*
Y62273D01*
X16986Y62230D01*
Y58411D01*
X2549Y43974D01*
X-26741D01*
X-28016Y43720D01*
X-29098Y42997D01*
X-30335Y41761D01*
X-31599Y41885D01*
X-31932Y42384D01*
X-33014Y43107D01*
X-34290Y43361D01*
X-35566Y43107D01*
X-36648Y42384D01*
X-86179Y-7147D01*
X-198009D01*
X-215106Y9950D01*
Y76140D01*
X-202080Y89166D01*
X-189500D01*
Y84250D01*
Y79250D01*
Y74250D01*
Y69250D01*
Y64356D01*
X-190482Y63550D01*
X-190821Y63618D01*
X-204949D01*
X-206230Y63872D01*
X-208669Y63387D01*
X-210736Y62006D01*
X-212117Y59939D01*
X-212602Y57500D01*
X-212117Y55061D01*
X-210736Y52994D01*
X-208669Y51613D01*
X-206230Y51128D01*
X-204949Y51382D01*
X-190821D01*
X-190482Y51450D01*
X-189500Y50644D01*
Y49250D01*
Y44250D01*
Y39250D01*
Y34250D01*
Y29250D01*
Y25834D01*
X-194310D01*
X-195586Y25580D01*
X-196667Y24857D01*
X-197390Y23776D01*
X-197644Y22500D01*
X-197390Y21224D01*
X-196667Y20143D01*
X-195586Y19420D01*
X-194414Y19187D01*
X-193709Y18131D01*
X-193834Y17500D01*
X-193580Y16224D01*
X-192857Y15143D01*
X-191776Y14420D01*
X-190500Y14166D01*
X-190040D01*
Y13520D01*
X-171460D01*
Y16290D01*
X-172000D01*
Y19250D01*
Y24166D01*
X-167640D01*
X-166364Y24420D01*
X-165282Y25143D01*
X-164560Y26224D01*
X-164306Y27500D01*
X-164560Y28776D01*
X-165282Y29857D01*
X-166364Y30580D01*
X-167640Y30834D01*
X-168440Y31224D01*
X-168440D01*
X-168186Y32500D01*
X-168440Y33776D01*
X-168440Y33776D01*
D01*
X-167640Y34166D01*
X-166364Y34420D01*
X-165282Y35143D01*
X-164560Y36224D01*
X-164306Y37500D01*
X-164560Y38776D01*
X-165282Y39857D01*
X-166364Y40580D01*
X-167640Y40834D01*
X-168440Y41224D01*
X-168440D01*
X-168186Y42500D01*
X-168440Y43776D01*
X-168440Y43776D01*
D01*
X-167640Y44166D01*
X-166364Y44420D01*
X-165282Y45142D01*
X-164560Y46224D01*
X-164306Y47500D01*
X-164560Y48776D01*
X-165282Y49858D01*
X-166364Y50580D01*
X-167640Y50834D01*
X-168440Y51224D01*
X-168440D01*
X-168186Y52500D01*
X-168440Y53776D01*
X-169163Y54858D01*
X-170000Y55417D01*
Y62750D01*
X-172000D01*
Y64250D01*
Y69250D01*
Y74250D01*
Y79250D01*
Y84250D01*
Y89250D01*
Y94250D01*
Y99250D01*
Y104250D01*
Y109250D01*
Y114250D01*
Y119250D01*
Y124166D01*
X-171768D01*
X-170492Y124420D01*
Y124420D01*
D02*
G37*
%LPC*%
G36*
X-182020Y10980D02*
X-190040D01*
Y8210D01*
X-182020D01*
Y10980D01*
D02*
G37*
G36*
X-141960Y51230D02*
X-160540D01*
Y48710D01*
X-160000D01*
Y44250D01*
Y39250D01*
Y34250D01*
Y29250D01*
Y24250D01*
Y21290D01*
X-160540D01*
Y18770D01*
X-141960D01*
Y19166D01*
X-140970D01*
X-139694Y19420D01*
X-138612Y20143D01*
X-137890Y21224D01*
X-137636Y22500D01*
X-137890Y23776D01*
X-137890Y23776D01*
D01*
X-137160Y24166D01*
X-135884Y24420D01*
X-134803Y25143D01*
X-134080Y26224D01*
X-133826Y27500D01*
X-134080Y28776D01*
X-134803Y29857D01*
X-135884Y30580D01*
X-137160Y30834D01*
X-137890Y31224D01*
X-137890D01*
X-137636Y32500D01*
X-137890Y33776D01*
X-137890Y33776D01*
D01*
X-137160Y34166D01*
X-135884Y34420D01*
X-134803Y35143D01*
X-134080Y36224D01*
X-133826Y37500D01*
X-134080Y38776D01*
X-134080Y38776D01*
D01*
X-133270Y39166D01*
X-131994Y39420D01*
X-130913Y40142D01*
X-130190Y41224D01*
X-129936Y42500D01*
X-130072Y43184D01*
X-129266Y44166D01*
X-128445D01*
X-127169Y44420D01*
X-126088Y45142D01*
X-125365Y46224D01*
X-125111Y47500D01*
X-125365Y48776D01*
X-126088Y49858D01*
X-127169Y50580D01*
X-128445Y50834D01*
X-141960D01*
Y51230D01*
D02*
G37*
G36*
Y16230D02*
X-160540D01*
Y15584D01*
X-161290D01*
X-162566Y15330D01*
X-163647Y14607D01*
X-164370Y13526D01*
X-164624Y12250D01*
X-164370Y10974D01*
X-163647Y9893D01*
X-162566Y9170D01*
X-161290Y8916D01*
X-160000D01*
Y8750D01*
X-142500D01*
Y13710D01*
X-141960D01*
Y16230D01*
D02*
G37*
G36*
X-171460Y10980D02*
X-179480D01*
Y8210D01*
X-171460D01*
Y10980D01*
D02*
G37*
%LPD*%
D10*
X281051Y-91440D02*
D03*
X265049D02*
D03*
X281051Y-50800D02*
D03*
X265049D02*
D03*
D11*
X248920Y-64003D02*
D03*
Y-55003D02*
D03*
Y-76780D02*
D03*
Y-85780D02*
D03*
X119380Y178490D02*
D03*
Y169490D02*
D03*
X127000Y-17200D02*
D03*
Y-8200D02*
D03*
X114300Y-17200D02*
D03*
Y-8200D02*
D03*
X-212090Y-142930D02*
D03*
Y-133930D02*
D03*
Y-111070D02*
D03*
Y-120070D02*
D03*
Y-56860D02*
D03*
Y-47860D02*
D03*
X49530Y-38790D02*
D03*
Y-29790D02*
D03*
X74930Y-59503D02*
D03*
Y-50503D02*
D03*
X36830Y-38790D02*
D03*
Y-29790D02*
D03*
X24130D02*
D03*
Y-38790D02*
D03*
X74930D02*
D03*
Y-29790D02*
D03*
X11430Y-38790D02*
D03*
Y-29790D02*
D03*
X62230Y-38790D02*
D03*
Y-29790D02*
D03*
D12*
X232007Y31115D02*
D03*
Y9525D02*
D03*
D13*
X4867Y95122D02*
D03*
X-11135D02*
D03*
Y84622D02*
D03*
X4867D02*
D03*
X30861Y95420D02*
D03*
X14859D02*
D03*
Y84920D02*
D03*
X30861D02*
D03*
D14*
X-635Y95122D02*
D03*
X-5634D02*
D03*
Y84622D02*
D03*
X-635D02*
D03*
X25359Y95420D02*
D03*
X20361D02*
D03*
Y84920D02*
D03*
X25359D02*
D03*
D15*
X-122500Y209000D02*
D03*
X-112500D02*
D03*
X-102500D02*
D03*
X-92500D02*
D03*
X-82500D02*
D03*
X-72500D02*
D03*
X-62500D02*
D03*
X-52500D02*
D03*
X-117500Y235000D02*
D03*
X-107500D02*
D03*
X-97500D02*
D03*
X-87500D02*
D03*
X-77500D02*
D03*
X-67500D02*
D03*
X-57500D02*
D03*
X-47500D02*
D03*
X12500D02*
D03*
X2500D02*
D03*
X-7500D02*
D03*
X-17500D02*
D03*
X-27500D02*
D03*
X-37500D02*
D03*
X7500Y209000D02*
D03*
X-2500D02*
D03*
X-12500D02*
D03*
X-22500D02*
D03*
X-32500D02*
D03*
X-42500D02*
D03*
X47500D02*
D03*
X57500D02*
D03*
X67500D02*
D03*
X52500Y235000D02*
D03*
X62500D02*
D03*
X72500D02*
D03*
X42500D02*
D03*
X32500D02*
D03*
X22500D02*
D03*
X37500Y209000D02*
D03*
X27500D02*
D03*
X17500D02*
D03*
D16*
X-132000Y235000D02*
D03*
Y209000D02*
D03*
X82000D02*
D03*
Y235000D02*
D03*
D17*
X48840Y95250D02*
D03*
X57840D02*
D03*
X69160Y95266D02*
D03*
X78160D02*
D03*
D18*
X-151250Y12250D02*
D03*
X-180750D02*
D03*
X-151250Y132750D02*
D03*
X-180750D02*
D03*
X180750Y18250D02*
D03*
X151250D02*
D03*
X180750Y138750D02*
D03*
X151250D02*
D03*
D19*
X-151250Y17500D02*
D03*
X-180750D02*
D03*
X-151250Y22500D02*
D03*
X-180750D02*
D03*
X-151250Y27500D02*
D03*
X-180750D02*
D03*
X-151250Y32500D02*
D03*
X-180750D02*
D03*
X-151250Y37500D02*
D03*
X-180750D02*
D03*
X-151250Y42500D02*
D03*
X-180750D02*
D03*
X-151250Y47500D02*
D03*
X-180750D02*
D03*
X-151250Y52500D02*
D03*
X-180750D02*
D03*
X-151250Y57500D02*
D03*
X-180750D02*
D03*
X-151250Y62500D02*
D03*
X-180750D02*
D03*
X-151250Y67500D02*
D03*
X-180750D02*
D03*
X-151250Y72500D02*
D03*
X-180750D02*
D03*
X-151250Y77500D02*
D03*
X-180750D02*
D03*
X-151250Y82500D02*
D03*
X-180750D02*
D03*
X-151250Y87500D02*
D03*
X-180750D02*
D03*
X-151250Y92500D02*
D03*
X-180750D02*
D03*
X-151250Y97500D02*
D03*
X-180750D02*
D03*
X-151250Y102500D02*
D03*
X-180750D02*
D03*
X-151250Y107500D02*
D03*
X-180750D02*
D03*
X-151250Y112500D02*
D03*
X-180750D02*
D03*
X-151250Y117500D02*
D03*
X-180750D02*
D03*
X-151250Y122500D02*
D03*
X-180750D02*
D03*
X-151250Y127500D02*
D03*
X-180750D02*
D03*
X180750Y23500D02*
D03*
X151250D02*
D03*
X180750Y28500D02*
D03*
X151250D02*
D03*
X180750Y33500D02*
D03*
X151250D02*
D03*
X180750Y38500D02*
D03*
X151250D02*
D03*
X180750Y43500D02*
D03*
X151250D02*
D03*
X180750Y48500D02*
D03*
X151250D02*
D03*
X180750Y53500D02*
D03*
X151250D02*
D03*
X180750Y58500D02*
D03*
X151250D02*
D03*
X180750Y63500D02*
D03*
X151250D02*
D03*
X180750Y68500D02*
D03*
X151250D02*
D03*
X180750Y73500D02*
D03*
X151250D02*
D03*
X180750Y78500D02*
D03*
X151250D02*
D03*
X180750Y83500D02*
D03*
X151250D02*
D03*
X180750Y88500D02*
D03*
X151250D02*
D03*
X180750Y93500D02*
D03*
X151250D02*
D03*
X180750Y98500D02*
D03*
X151250D02*
D03*
X180750Y103500D02*
D03*
X151250D02*
D03*
X180750Y108500D02*
D03*
X151250D02*
D03*
X180750Y113500D02*
D03*
X151250D02*
D03*
X180750Y118500D02*
D03*
X151250D02*
D03*
X180750Y123500D02*
D03*
X151250D02*
D03*
X180750Y128500D02*
D03*
X151250D02*
D03*
X180750Y133500D02*
D03*
X151250D02*
D03*
D20*
X116259Y261380D02*
D03*
X168221Y231380D02*
D03*
D21*
X225863Y103691D02*
D03*
X230848Y92228D02*
D03*
X240896Y69118D02*
D03*
X235912Y80581D02*
D03*
X220799Y115338D02*
D03*
X215815Y126801D02*
D03*
D22*
X279792Y57406D02*
D03*
X233777Y163235D02*
D03*
D23*
X-234950Y-57440D02*
D03*
X-260350D02*
D03*
X-260350Y-125440D02*
D03*
X-234950D02*
D03*
D24*
X-212090Y-99721D02*
D03*
Y-85521D02*
D03*
D25*
X-171768Y127500D02*
X-166463Y132805D01*
X-180750Y127500D02*
X-171768D01*
X20361Y62566D02*
X20508Y62418D01*
X227806Y64770D02*
X236548D01*
X240896Y69118D01*
X182880Y13970D02*
Y18250D01*
X180750D02*
X182880D01*
X151250Y103500D02*
X161910D01*
X121932Y124589D02*
X133021Y113500D01*
X121932Y124589D02*
Y144710D01*
X140650Y138750D02*
X151250D01*
X133021Y113500D02*
X151250D01*
X62500Y177600D02*
X131601Y108500D01*
X151250D01*
X62500Y177600D02*
Y235000D01*
X47500Y186180D02*
X107773Y125907D01*
X47500Y186180D02*
Y209000D01*
X114949Y218225D02*
X169777Y163396D01*
X111860Y218225D02*
X114949D01*
X57500Y194660D02*
Y209000D01*
X52500Y189940D02*
Y235000D01*
Y189940D02*
X57020Y185420D01*
X169777Y163396D02*
X185522D01*
X-5634Y77952D02*
Y84622D01*
X-540Y73412D02*
Y84528D01*
X-14332Y57500D02*
X-595D01*
X14859Y72954D01*
Y75279D01*
X4867Y69383D02*
Y84622D01*
X-2286Y62230D02*
X4867Y69383D01*
X-12641Y62230D02*
X-2286D01*
X220511Y88500D02*
X227120D01*
X215900Y83889D02*
X220511Y88500D01*
X215900Y83500D02*
Y83889D01*
X-134090Y107500D02*
X-133270Y106680D01*
X-151250Y107500D02*
X-134090D01*
X-128614Y101849D02*
Y108593D01*
X-132521Y112500D02*
X-128614Y108593D01*
X-151250Y112500D02*
X-132521D01*
X-128614Y101849D02*
X-98300Y71535D01*
Y64130D02*
Y71535D01*
Y64130D02*
X-81160Y46990D01*
X-137106Y97500D02*
X-107380Y67774D01*
X-151250Y97500D02*
X-137106D01*
X-135686Y102500D02*
X-102840Y69654D01*
X-151250Y102500D02*
X-135686D01*
X-111920Y58488D02*
X-86561Y33129D01*
X-107380Y60369D02*
X-84680Y37669D01*
X-102840Y62249D02*
X-82800Y42209D01*
X-138527Y92500D02*
X-111920Y65893D01*
Y58488D02*
Y65893D01*
X-107380Y60369D02*
Y67774D01*
X-102840Y62249D02*
Y69654D01*
X-151250Y92500D02*
X-138527D01*
X-86561Y33129D02*
X-74602D01*
X-84680Y37669D02*
X-76482D01*
X-82800Y42209D02*
X-78363D01*
X-48722Y71850D01*
X-74602Y33129D02*
X-45501Y62230D01*
X-76482Y37669D02*
X-46842Y67310D01*
X-237490Y-37032D02*
Y-8708D01*
X-232060Y2927D02*
X-204813Y-24320D01*
X-236600Y25414D02*
Y85043D01*
X-232060Y2927D02*
Y20874D01*
X-236600Y25414D02*
X-232060Y20874D01*
X212090Y-4500D02*
Y31115D01*
X199390Y-17200D02*
X212090Y-4500D01*
Y31115D02*
X232007D01*
X106464Y216354D02*
Y251585D01*
Y216354D02*
X109979Y212838D01*
X113914D01*
X154963Y171790D01*
X-48722Y71850D02*
X-22261D01*
X-46842Y67310D02*
X-24141D01*
X-22261Y71850D02*
X-12641Y62230D01*
X-24141Y67310D02*
X-14332Y57500D01*
X110591Y267048D02*
X116259Y261380D01*
X104140Y267048D02*
X110591D01*
X5810Y36100D02*
X9737Y40027D01*
X-24860Y36100D02*
X5810D01*
X-80521Y-19561D02*
X-24860Y36100D01*
X3929Y40640D02*
X20320Y57031D01*
X-26741Y40640D02*
X3929D01*
X-82402Y-15021D02*
X-26741Y40640D01*
X-23424Y31115D02*
X9737D01*
X-78860Y-24320D02*
X-23424Y31115D01*
X14859Y75279D02*
Y84920D01*
X9737Y40027D02*
X25359Y55649D01*
Y84920D01*
X20329Y84888D02*
X20361Y84920D01*
X20329Y62238D02*
Y84888D01*
X20320Y62230D02*
X20329Y62238D01*
X20320Y57031D02*
Y62230D01*
X20361Y62566D02*
Y84920D01*
X-16042Y84622D02*
X-11135D01*
X64770Y112500D02*
X94980D01*
X113030Y94450D01*
Y69599D02*
Y94450D01*
Y69599D02*
X129129Y53500D01*
X151250D01*
X54610Y81280D02*
X57840Y84510D01*
X54610Y33300D02*
Y81280D01*
X17500Y-3810D02*
X54610Y33300D01*
X57856Y95266D02*
X69160D01*
X57840Y95250D02*
X57856Y95266D01*
X57840Y84510D02*
Y95250D01*
X77470Y70918D02*
X96425Y89872D01*
X77470Y12700D02*
Y70918D01*
X196365Y99060D02*
X221232D01*
X170330Y133500D02*
X180750D01*
X171760Y123500D02*
X180750D01*
X166370Y128890D02*
X171760Y123500D01*
X166370Y118500D02*
X180750D01*
X170330Y113500D02*
X180750D01*
X171930Y103500D02*
X180750D01*
X167640Y99210D02*
X171930Y103500D01*
X166370Y108500D02*
X180750D01*
X-256830Y-121920D02*
X-251591D01*
X-212090Y-111070D02*
Y-99721D01*
X-212141Y-133879D02*
Y-127000D01*
Y-120121D01*
X74930Y-38790D02*
X81151D01*
X74930Y-50503D02*
Y-38790D01*
X49530Y-80010D02*
Y-38790D01*
X36830Y-80010D02*
Y-38790D01*
X14550Y-126310D02*
X83820Y-195580D01*
X129540D01*
X139700Y-185420D01*
X14550Y-126310D02*
Y-79262D01*
X11430Y-29790D02*
X36830D01*
X135091Y28500D02*
X151250D01*
X104614Y-1978D02*
X135091Y28500D01*
X104614Y-46610D02*
Y-1978D01*
X142490Y23500D02*
X151250D01*
X139990Y21000D02*
X142490Y23500D01*
X139990Y14950D02*
Y21000D01*
Y14950D02*
X143510Y11430D01*
X154940D01*
X111860Y-5760D02*
X114300Y-8200D01*
X111860Y-5760D02*
Y-2540D01*
X127000Y-17200D02*
X133350D01*
X114300Y-8200D02*
X127000D01*
X74930Y-59503D02*
X82363D01*
X49530Y-29790D02*
X74930D01*
X49530D02*
Y-22601D01*
X36490Y-29450D02*
Y-22601D01*
X-167350Y-56860D02*
X-149409Y-38919D01*
X-212090Y-56860D02*
X-167350D01*
X-234370D02*
X-212090D01*
X-204813Y-24320D02*
X-78860D01*
X-201271Y-15021D02*
X-82402D01*
X-203151Y-19561D02*
X-80521D01*
X-199390Y-10481D02*
X-84798D01*
X-34290Y40027D01*
X-52313Y168667D02*
X-32500Y188480D01*
Y209000D01*
X-37500Y191140D02*
Y235000D01*
X-63500Y165140D02*
X-37500Y191140D01*
X-42500Y192561D02*
Y209000D01*
X-68580Y166481D02*
X-42500Y192561D01*
X-47500Y193982D02*
Y235000D01*
X-73660Y167822D02*
X-47500Y193982D01*
X-57500Y190402D02*
Y235000D01*
X-78740Y169162D02*
X-57500Y190402D01*
X-62500Y191823D02*
Y209000D01*
X-83820Y170502D02*
X-62500Y191823D01*
X-67500Y193243D02*
Y235000D01*
X-88900Y171843D02*
X-67500Y193243D01*
X-72500Y194664D02*
Y209000D01*
X-93980Y173184D02*
X-72500Y194664D01*
X-82500Y191084D02*
Y209000D01*
X-99060Y174524D02*
X-82500Y191084D01*
X-63500Y127000D02*
Y165140D01*
X-108770Y177656D02*
X-97500Y188925D01*
X-108770Y144021D02*
Y177656D01*
X-113030Y139761D02*
X-108770Y144021D01*
X-104140Y175865D02*
X-92500Y187505D01*
X-104140Y142231D02*
Y175865D01*
X-99060Y134415D02*
Y174524D01*
X-93980Y116971D02*
Y173184D01*
X-88900Y128471D02*
Y171843D01*
X-83820Y77930D02*
Y170502D01*
X-68580Y135087D02*
Y166481D01*
X-78740Y97132D02*
Y169162D01*
X-73660Y101600D02*
Y167822D01*
X-49530Y98450D02*
X-22500Y125480D01*
X-17500Y123780D02*
Y235000D01*
X-7500Y175260D02*
Y235000D01*
X-22500Y125480D02*
Y209000D01*
X-12500Y141751D02*
Y209000D01*
X170730Y38500D02*
X180750D01*
X119380Y162878D02*
X135890Y146368D01*
X119380Y162878D02*
Y169490D01*
X135890Y136770D02*
Y146368D01*
Y136770D02*
X139159Y133500D01*
X151250D01*
X194790Y33500D02*
X196215Y34925D01*
X180750Y33500D02*
X194790D01*
X180750Y68500D02*
X195704D01*
X180750Y73500D02*
X195704D01*
X180750Y88500D02*
X195704D01*
X166370Y78500D02*
X180750D01*
X170330Y83500D02*
X180750D01*
X133350Y-17200D02*
X199390D01*
X124360Y215234D02*
X162334Y177260D01*
X124360Y215234D02*
Y218225D01*
X42500Y184510D02*
X106360Y120650D01*
X113030D01*
X151250Y123500D02*
X161910D01*
X106464Y251585D02*
X116259Y261380D01*
X170330Y53500D02*
X180750D01*
X180670Y58420D02*
X180750Y58500D01*
X166370Y58420D02*
X180670D01*
X170330Y63500D02*
X180750D01*
X232007Y76676D02*
X235912Y80581D01*
X221232Y76676D02*
X232007D01*
X208971Y-105989D02*
X238180Y-76780D01*
X248920D01*
X196850Y15757D02*
Y25268D01*
X193618Y28500D02*
X196850Y25268D01*
X180750Y28500D02*
X193618D01*
X151250Y38500D02*
X162160D01*
X238986Y-64003D02*
X248920D01*
X203529Y-99459D02*
X238986Y-64003D01*
X-227520Y4808D02*
X-203151Y-19561D01*
X-222980Y6688D02*
X-201271Y-15021D01*
X-218440Y8569D02*
X-199390Y-10481D01*
X-232060Y27490D02*
Y83162D01*
X-209143Y112500D02*
X-180750D01*
X-236600Y85043D02*
X-209143Y112500D01*
X-207722Y107500D02*
X-180750D01*
X-232060Y83162D02*
X-207722Y107500D01*
X-227520Y4808D02*
Y81282D01*
X-206302Y102500D01*
X-180750D01*
X-222980Y6688D02*
Y79401D01*
X-204881Y97500D01*
X-180750D01*
X-218440Y8569D02*
Y77521D01*
X-203461Y92500D01*
X-180750D01*
X-212090Y-85521D02*
Y-78740D01*
X-212141Y-78689D02*
X-212090Y-78740D01*
X-218840Y-47860D02*
X-212090D01*
X-255068Y-54610D02*
X-237490Y-37032D01*
X-258100Y-54610D02*
X-255068D01*
X-260350Y-52360D02*
X-258100Y-54610D01*
X-234950Y-120360D02*
Y-109609D01*
X-260350Y-120360D02*
X-259923Y-119933D01*
X151250Y18250D02*
X161910D01*
X180750Y23500D02*
X191770D01*
X-151250Y22500D02*
X-140970D01*
X-161579Y127500D02*
X-151250D01*
X-166463Y122500D02*
X-151250D01*
X7500Y209000D02*
Y219421D01*
X6326Y220595D02*
X7500Y219421D01*
X-190821Y57500D02*
X-180750D01*
X-161579Y117500D02*
X-151250D01*
X220799Y115338D02*
X226112Y120650D01*
X215952Y110490D02*
X220799Y115338D01*
X141850Y118500D02*
X151250D01*
X139990Y120360D02*
X141850Y118500D01*
X139990Y120360D02*
Y126487D01*
X142003Y128500D01*
X151250D01*
X221232Y99060D02*
X225863Y103691D01*
X42500Y184510D02*
Y235000D01*
X12500Y223720D02*
Y235000D01*
X-151250Y47500D02*
X-128445D01*
X-161290Y12250D02*
X-151250D01*
X-190500Y17500D02*
X-180750D01*
X-194310Y22500D02*
X-180750D01*
X-179530D01*
X-151250Y42500D02*
X-133270D01*
X-180750Y27500D02*
X-167640D01*
X-151250D02*
X-137160D01*
X-151250Y32500D02*
X-140970D01*
X-151250Y37500D02*
X-137160D01*
X-180750Y32500D02*
X-171521D01*
X-180750Y52500D02*
X-171521D01*
X-180750Y37500D02*
X-167640D01*
X-180750Y42500D02*
X-171521D01*
X-179810Y47500D02*
X-167640D01*
X-97500Y188925D02*
Y235000D01*
X-92500Y187505D02*
Y209000D01*
D26*
X196850Y-94670D02*
X242570Y-48950D01*
Y-28352D01*
X224087Y130810D02*
X243722D01*
X4867Y95122D02*
X45022D01*
X-635D02*
X4867D01*
X-5634D02*
X-635D01*
X-11135D02*
X-5634D01*
X196850Y-142263D02*
Y-94670D01*
X132863Y-206250D02*
X196850Y-142263D01*
X-1270Y-206250D02*
X132863D01*
X-40640Y-147320D02*
Y-69850D01*
X126681Y-184150D02*
Y-174941D01*
X106629Y-154889D02*
X126681Y-174941D01*
X106629Y-154889D02*
Y-100724D01*
D27*
X176530Y143129D02*
X182880D01*
X196215Y38100D02*
Y137084D01*
Y34925D02*
Y38100D01*
X119380Y178490D02*
Y185420D01*
X190170Y143129D02*
X196215Y137084D01*
X182880Y143129D02*
X190170D01*
X-195580Y130906D02*
X-191866Y134620D01*
X-180750D01*
X-195580Y118770D02*
Y130906D01*
X-180750Y137762D02*
X-117500Y201012D01*
Y209000D01*
Y235000D01*
X22500Y223670D02*
X27500Y218670D01*
X-117500Y209000D02*
X-112500D01*
X-122500D02*
X-117500D01*
X27500D02*
Y218670D01*
X22500Y223670D02*
Y235000D01*
X27500Y198120D02*
Y209000D01*
X228321Y105083D02*
X230400Y107162D01*
D28*
X-100760Y-38919D02*
X-33149D01*
X-100760Y-48260D02*
Y-38919D01*
X45150Y39364D02*
Y113600D01*
X-1270Y-7056D02*
X45150Y39364D01*
X-33149Y-38919D02*
X-1286Y-7056D01*
X-1270D01*
X27653Y131097D02*
X45150Y113600D01*
X27653Y131097D02*
Y198120D01*
D29*
X-218360Y-142930D02*
X-212090D01*
D30*
X253123Y-50800D02*
X265049D01*
X248920Y-55003D02*
X253123Y-50800D01*
X268854Y-64003D02*
X269240Y-63617D01*
X248920Y-64003D02*
X268854D01*
X268683Y-76780D02*
X269240Y-76223D01*
X248920Y-76780D02*
X268683D01*
X254580Y-91440D02*
X265049D01*
X248920Y-85780D02*
X254580Y-91440D01*
X-206230Y57500D02*
X-190821D01*
D31*
X-40233Y155890D02*
D03*
X39653Y155927D02*
D03*
D32*
X269240Y-76223D02*
D03*
Y-63617D02*
D03*
D33*
X-190000Y190000D02*
D03*
X190000D02*
D03*
Y-190000D02*
D03*
X-190000D02*
D03*
D34*
X288036Y-77470D02*
D03*
X288290Y-50800D02*
D03*
X-133270Y106680D02*
D03*
X-237490Y-8708D02*
D03*
X-193834Y-69850D02*
D03*
X6403Y-222250D02*
D03*
X6350Y-241300D02*
D03*
X-31750D02*
D03*
Y-222250D02*
D03*
X209550Y-120650D02*
D03*
X242570Y-28352D02*
D03*
X243722Y130810D02*
D03*
X205886Y90573D02*
D03*
Y69118D02*
D03*
Y108500D02*
D03*
X202801Y113030D02*
D03*
X154963Y171790D02*
D03*
X176530Y143129D02*
D03*
X-100760Y-48260D02*
D03*
X-294Y-31750D02*
D03*
X93851Y-33010D02*
D03*
X66110Y-87311D02*
D03*
X24196Y-88900D02*
D03*
X-6350Y-108346D02*
D03*
X37250Y-121920D02*
D03*
X77851Y-155590D02*
D03*
X262013Y-121920D02*
D03*
X208066Y-154940D02*
D03*
X169054Y-151130D02*
D03*
X148590Y-107264D02*
D03*
X177870Y-111760D02*
D03*
X221694Y-177800D02*
D03*
X184150Y-76223D02*
D03*
X164691Y-31750D02*
D03*
X158342Y-6910D02*
D03*
X133212Y-37820D02*
D03*
X224790Y-34380D02*
D03*
X63500Y56062D02*
D03*
X104140Y18939D02*
D03*
X102015Y115570D02*
D03*
X127000Y80540D02*
D03*
X-166252Y107950D02*
D03*
X-224790Y115142D02*
D03*
X-165079Y60583D02*
D03*
X-114300Y111142D02*
D03*
X-118731Y146050D02*
D03*
X-49360D02*
D03*
X-31565Y175260D02*
D03*
X-62230Y105781D02*
D03*
X-35241Y133350D02*
D03*
X-35544Y-1270D02*
D03*
X-49142Y81280D02*
D03*
X-63500Y28758D02*
D03*
X-98411Y12700D02*
D03*
X-120650D02*
D03*
X104140Y267048D02*
D03*
X9737Y31115D02*
D03*
X14859Y75279D02*
D03*
X-540Y73412D02*
D03*
X-5634Y77952D02*
D03*
X-16042Y84622D02*
D03*
X64770Y112500D02*
D03*
X17500Y-3810D02*
D03*
X77470Y12700D02*
D03*
X167640Y99210D02*
D03*
X-212141Y-127000D02*
D03*
X-218360Y-142930D02*
D03*
X81280Y-38919D02*
D03*
X49530Y-80010D02*
D03*
X36830D02*
D03*
X139700Y-185420D02*
D03*
X14550Y-79262D02*
D03*
X104614Y-46610D02*
D03*
X82363Y-59503D02*
D03*
X49530Y-22601D02*
D03*
X36490D02*
D03*
X-1270Y-7056D02*
D03*
X-100760Y-38919D02*
D03*
X-149409D02*
D03*
X-40640Y-147320D02*
D03*
Y-69850D02*
D03*
X-81160Y46990D02*
D03*
X-12641Y62230D02*
D03*
X9737Y40027D02*
D03*
X20320Y62230D02*
D03*
X-34290Y40027D02*
D03*
X-45501Y62230D02*
D03*
X-93980Y116971D02*
D03*
X-68580Y135087D02*
D03*
X-63500Y127000D02*
D03*
X-52313Y168667D02*
D03*
X-17500Y123780D02*
D03*
X-49530Y98450D02*
D03*
X-12500Y141751D02*
D03*
X-7500Y175260D02*
D03*
X170730Y38500D02*
D03*
X196215Y38100D02*
D03*
X119380Y185420D02*
D03*
X111860Y-2540D02*
D03*
X161910Y103500D02*
D03*
X166370Y108500D02*
D03*
X82550Y95250D02*
D03*
X121932Y144710D02*
D03*
X140650Y138750D02*
D03*
X57020Y185420D02*
D03*
X133350Y-17200D02*
D03*
X212090Y31115D02*
D03*
X107773Y125907D02*
D03*
X113030Y120650D02*
D03*
X185522Y163396D02*
D03*
X161910Y123500D02*
D03*
X170330Y63500D02*
D03*
X221232Y76676D02*
D03*
X166370Y78500D02*
D03*
X215900Y83500D02*
D03*
X170330D02*
D03*
X227806Y64770D02*
D03*
X111860Y218225D02*
D03*
X124360D02*
D03*
X162334Y177260D02*
D03*
X166370Y58420D02*
D03*
X170330Y53500D02*
D03*
X208971Y-105989D02*
D03*
X196850Y15757D02*
D03*
X235305Y-105989D02*
D03*
X162160Y38500D02*
D03*
X106629Y-100724D02*
D03*
X126681Y-184150D02*
D03*
X203529Y-99459D02*
D03*
X-232060Y27490D02*
D03*
X-195580Y118770D02*
D03*
X-206230Y57500D02*
D03*
X-212141Y-78689D02*
D03*
X-218840Y-47860D02*
D03*
X-234950Y-109609D02*
D03*
X-251591Y-121920D02*
D03*
X-1270Y-206250D02*
D03*
X-83820Y77930D02*
D03*
X-78740Y97132D02*
D03*
X-73660Y101600D02*
D03*
X96425Y89872D02*
D03*
X154940Y11430D02*
D03*
X161910Y18250D02*
D03*
X191770Y23500D02*
D03*
X182880Y13970D02*
D03*
X127000Y234950D02*
D03*
X15240Y-193550D02*
D03*
X-161579Y127500D02*
D03*
X219235Y186067D02*
D03*
X-107950Y-266700D02*
D03*
X27500Y191060D02*
D03*
X35560Y-193040D02*
D03*
X44646Y171450D02*
D03*
X279661Y76182D02*
D03*
X260350Y127559D02*
D03*
X-102870Y221222D02*
D03*
X-52500Y222200D02*
D03*
X-3810Y118500D02*
D03*
X-136604Y127761D02*
D03*
X-166370Y95266D02*
D03*
X55735Y19050D02*
D03*
X-25649Y-50800D02*
D03*
X73133Y185968D02*
D03*
X-248718Y146465D02*
D03*
X-66834Y-57150D02*
D03*
X-251591Y81280D02*
D03*
X-196777Y43720D02*
D03*
X-222250Y178340D02*
D03*
X-145831Y0D02*
D03*
X-222250Y-24130D02*
D03*
X-162334Y-89010D02*
D03*
X-140133Y-101600D02*
D03*
X99060Y226935D02*
D03*
X108770Y167640D02*
D03*
X-69850Y-279400D02*
D03*
X89000Y-273050D02*
D03*
X63500Y-228600D02*
D03*
X76070Y279400D02*
D03*
X165011Y209534D02*
D03*
X250433Y147219D02*
D03*
X273050Y95250D02*
D03*
X166370Y71120D02*
D03*
X55360Y124460D02*
D03*
X-108770Y189720D02*
D03*
X-158750Y184264D02*
D03*
X-141282Y153670D02*
D03*
X17780Y127000D02*
D03*
X72390Y80010D02*
D03*
X-88900Y6350D02*
D03*
X-108180D02*
D03*
X-133350D02*
D03*
X156210Y-198120D02*
D03*
X-139700Y-145796D02*
D03*
X-56858Y-133350D02*
D03*
X-82766Y-158750D02*
D03*
X133600Y-228600D02*
D03*
X146050Y-247590D02*
D03*
X120200Y-260350D02*
D03*
X-184150Y-222250D02*
D03*
X-179504Y-38100D02*
D03*
X-146437Y-247650D02*
D03*
X-254000Y-82550D02*
D03*
X-241300Y-158809D02*
D03*
X-273050Y-95250D02*
D03*
Y-57150D02*
D03*
X-162334Y-139700D02*
D03*
X-139700Y-57150D02*
D03*
X-82550Y-120650D02*
D03*
X-82402Y-101600D02*
D03*
X86360Y19050D02*
D03*
X139990Y59590D02*
D03*
X9737Y109245D02*
D03*
X-21590Y97917D02*
D03*
X6326Y146050D02*
D03*
X69953Y133350D02*
D03*
X-88596Y260350D02*
D03*
X-6820Y-63500D02*
D03*
X-82402Y-139990D02*
D03*
X60960Y-127000D02*
D03*
X210820Y40000D02*
D03*
X75503Y254000D02*
D03*
X90170Y207173D02*
D03*
X6700Y190500D02*
D03*
X-143510Y205740D02*
D03*
Y236827D02*
D03*
X-27506Y222610D02*
D03*
X-77470D02*
D03*
X-87630D02*
D03*
X-117784Y222448D02*
D03*
X-166463Y132805D02*
D03*
X127017Y38100D02*
D03*
X116101Y-60760D02*
D03*
X-210820Y77930D02*
D03*
X27500Y198120D02*
D03*
X166370Y118500D02*
D03*
Y128890D02*
D03*
X57500Y194660D02*
D03*
X182880Y143129D02*
D03*
X170330Y133500D02*
D03*
Y113500D02*
D03*
X-161579Y117500D02*
D03*
X6326Y220595D02*
D03*
X12500Y223720D02*
D03*
X-166463Y122500D02*
D03*
X-124705Y115245D02*
D03*
X-104140Y142231D02*
D03*
X-113030Y139761D02*
D03*
X-177800Y6350D02*
D03*
X-99060Y134415D02*
D03*
X-161290Y12250D02*
D03*
X-133270Y42500D02*
D03*
X-128445Y47500D02*
D03*
X-171521Y42500D02*
D03*
X-167640Y47500D02*
D03*
Y27500D02*
D03*
X-171521Y32500D02*
D03*
X-137160Y27500D02*
D03*
X-140970Y32500D02*
D03*
X-137160Y37500D02*
D03*
X-167640D02*
D03*
X-171521Y52500D02*
D03*
X-88900Y128471D02*
D03*
X-140970Y22500D02*
D03*
X-190500Y17500D02*
D03*
X-194310Y22500D02*
D03*
X-280670Y53340D02*
D03*
M02*
